<svg width="179" height="83" viewBox="0 0 179 83" fill="none" xmlns="http://www.w3.org/2000/svg">
<path d="M148.75 26.9893C150.761 25.8283 153.239 25.8283 155.25 26.9893L172.9 37.1807C174.911 38.3418 176.15 40.4873 176.15 42.8096V63.1904C176.15 65.5127 174.911 67.6582 172.9 68.8193L155.25 79.0107C153.239 80.1717 150.761 80.1717 148.75 79.0107L131.1 68.8193C129.089 67.6582 127.85 65.5127 127.85 63.1904V42.8096C127.85 40.4873 129.089 38.3418 131.1 37.1807L148.75 26.9893Z" fill="black" stroke="#050505" stroke-width="5"/>
<path d="M123.75 26.9893C125.761 25.8283 128.239 25.8283 130.25 26.9893L147.9 37.1807C149.911 38.3418 151.15 40.4873 151.15 42.8096V63.1904C151.15 65.5127 149.911 67.6582 147.9 68.8193L130.25 79.0107C128.239 80.1717 125.761 80.1717 123.75 79.0107L106.1 68.8193C104.089 67.6582 102.85 65.5127 102.85 63.1904V42.8096C102.85 40.4873 104.089 38.3418 106.1 37.1807L123.75 26.9893Z" fill="black" stroke="#050505" stroke-width="5"/>
<path d="M98.75 26.9893C100.761 25.8283 103.239 25.8283 105.25 26.9893L122.9 37.1807C124.911 38.3418 126.15 40.4873 126.15 42.8096V63.1904C126.15 65.5127 124.911 67.6582 122.9 68.8193L105.25 79.0107C103.239 80.1717 100.761 80.1717 98.75 79.0107L81.0996 68.8193C79.0885 67.6582 77.8496 65.5127 77.8496 63.1904V42.8096C77.8496 40.4873 79.0885 38.3418 81.0996 37.1807L98.75 26.9893Z" fill="black" stroke="#050505" stroke-width="5"/>
<path d="M73.75 26.9893C75.761 25.8283 78.239 25.8283 80.25 26.9893L97.9004 37.1807C99.9115 38.3418 101.15 40.4873 101.15 42.8096V63.1904C101.15 65.5127 99.9115 67.6582 97.9004 68.8193L80.25 79.0107C78.239 80.1717 75.761 80.1717 73.75 79.0107L56.0996 68.8193C54.0885 67.6582 52.8496 65.5127 52.8496 63.1904V42.8096C52.8496 40.4873 54.0885 38.3418 56.0996 37.1807L73.75 26.9893Z" fill="#BB8189" stroke="#B97A83" stroke-width="5"/>
<path d="M48.75 26.9893C50.761 25.8283 53.239 25.8283 55.25 26.9893L72.9004 37.1807C74.9115 38.3418 76.1504 40.4873 76.1504 42.8096V63.1904C76.1504 65.5127 74.9115 67.6582 72.9004 68.8193L55.25 79.0107C53.239 80.1717 50.761 80.1717 48.75 79.0107L31.0996 68.8193C29.0885 67.6582 27.8496 65.5127 27.8496 63.1904V42.8096C27.8496 40.4873 29.0885 38.3418 31.0996 37.1807L48.75 26.9893Z" fill="#BB8189" stroke="#B97A83" stroke-width="5"/>
<path d="M23.75 26.9893C25.761 25.8283 28.239 25.8283 30.25 26.9893L47.9004 37.1807C49.9115 38.3418 51.1504 40.4873 51.1504 42.8096V63.1904C51.1504 65.5127 49.9115 67.6582 47.9004 68.8193L30.25 79.0107C28.239 80.1717 25.761 80.1717 23.75 79.0107L6.09961 68.8193C4.0885 67.6582 2.84961 65.5127 2.84961 63.1904V42.8096C2.84961 40.4873 4.0885 38.3418 6.09961 37.1807L23.75 26.9893Z" fill="#BB8189" stroke="#B97A83" stroke-width="5"/>
<path d="M1.128 15L4.872 3.32H9.64L13.512 15H10.44L7.432 5.4L8.28 5.72H6.168L7.032 5.4L4.104 15H1.128ZM4.184 12.296L5.08 9.864H9.512L10.408 12.296H4.184ZM18.0764 18.536C17.639 18.536 17.1857 18.52 16.7164 18.488C16.2577 18.456 15.8417 18.4133 15.4684 18.36V15.928C15.8417 15.9707 16.2577 16.008 16.7164 16.04C17.175 16.0827 17.5964 16.104 17.9804 16.104C18.6417 16.104 19.1804 16.0347 19.5964 15.896C20.023 15.7573 20.3377 15.544 20.5404 15.256C20.743 14.968 20.8444 14.6 20.8444 14.152V12.36L21.2924 11.4C21.271 12.1467 21.127 12.7973 20.8604 13.352C20.5937 13.896 20.2097 14.3173 19.7084 14.616C19.2177 14.9147 18.6204 15.064 17.9164 15.064C17.319 15.064 16.7804 14.9573 16.3004 14.744C15.8204 14.5307 15.4097 14.232 15.0684 13.848C14.7377 13.4533 14.4817 12.9893 14.3004 12.456C14.119 11.9227 14.0284 11.3413 14.0284 10.712V10.328C14.0284 9.69867 14.1244 9.11733 14.3164 8.584C14.5084 8.04 14.7857 7.57067 15.1484 7.176C15.511 6.77067 15.9377 6.46133 16.4284 6.248C16.9297 6.024 17.4844 5.912 18.0924 5.912C18.7964 5.912 19.4044 6.072 19.9164 6.392C20.4284 6.70133 20.8284 7.15467 21.1164 7.752C21.4044 8.34933 21.559 9.07467 21.5804 9.928L21.2604 10.04V6.168H23.5644V13.96C23.5644 15.048 23.3617 15.928 22.9564 16.6C22.551 17.272 21.9377 17.7627 21.1164 18.072C20.3057 18.3813 19.2924 18.536 18.0764 18.536ZM18.8924 12.664C19.2444 12.664 19.559 12.584 19.8364 12.424C20.1244 12.264 20.3537 12.0347 20.5244 11.736C20.695 11.4267 20.7804 11.0587 20.7804 10.632V10.248C20.7804 9.832 20.6897 9.48 20.5084 9.192C20.3377 8.904 20.1084 8.68533 19.8204 8.536C19.5324 8.38667 19.223 8.312 18.8924 8.312C18.5084 8.312 18.167 8.40267 17.8684 8.584C17.5804 8.76533 17.351 9.02133 17.1804 9.352C17.0204 9.68267 16.9404 10.072 16.9404 10.52C16.9404 10.968 17.0204 11.352 17.1804 11.672C17.351 11.992 17.5804 12.2373 17.8684 12.408C18.167 12.5787 18.5084 12.664 18.8924 12.664ZM26.0033 15V6.168H28.9153V15H26.0033ZM24.8833 8.28V6.168H28.9153V8.28H24.8833ZM27.2033 5.464C26.6699 5.464 26.2753 5.33067 26.0193 5.064C25.7739 4.78667 25.6513 4.43467 25.6513 4.008C25.6513 3.58133 25.7739 3.23467 26.0193 2.968C26.2753 2.69067 26.6646 2.552 27.1873 2.552C27.7206 2.552 28.1099 2.69067 28.3553 2.968C28.6006 3.23467 28.7233 3.58133 28.7233 4.008C28.7233 4.43467 28.6006 4.78667 28.3553 5.064C28.1099 5.33067 27.7259 5.464 27.2033 5.464ZM31.184 15V3.32H34.096V15H31.184ZM30.192 5.432V3.32H34.096V5.432H30.192ZM40.3875 15.32C39.6408 15.32 38.9795 15.192 38.4035 14.936C37.8275 14.68 37.3422 14.3333 36.9475 13.896C36.5528 13.4587 36.2488 12.968 36.0355 12.424C35.8328 11.88 35.7315 11.32 35.7315 10.744V10.424C35.7315 9.82667 35.8328 9.256 36.0355 8.712C36.2488 8.15733 36.5475 7.66667 36.9315 7.24C37.3262 6.81333 37.8062 6.47733 38.3715 6.232C38.9368 5.976 39.5768 5.848 40.2915 5.848C41.2408 5.848 42.0462 6.06133 42.7075 6.488C43.3688 6.91467 43.8755 7.48 44.2275 8.184C44.5795 8.87733 44.7555 9.63467 44.7555 10.456V11.384H36.9475V9.816H43.0755L42.0675 10.52C42.0675 10.0187 41.9982 9.59733 41.8595 9.256C41.7315 8.904 41.5342 8.63733 41.2675 8.456C41.0115 8.27467 40.6862 8.184 40.2915 8.184C39.9075 8.184 39.5715 8.27467 39.2835 8.456C39.0062 8.62667 38.7928 8.89333 38.6435 9.256C38.4942 9.608 38.4195 10.056 38.4195 10.6C38.4195 11.0907 38.4888 11.5173 38.6275 11.88C38.7662 12.232 38.9795 12.504 39.2675 12.696C39.5555 12.888 39.9288 12.984 40.3875 12.984C40.7928 12.984 41.1235 12.9147 41.3795 12.776C41.6462 12.6373 41.8328 12.4507 41.9395 12.216H44.5955C44.4675 12.8133 44.2115 13.3467 43.8275 13.816C43.4542 14.2853 42.9742 14.6533 42.3875 14.92C41.8115 15.1867 41.1448 15.32 40.3875 15.32ZM49.684 15V3.32H53.812L56.212 9.48H56.532L58.916 3.32H63.124V15H60.18V5.032L60.644 5.064L57.636 12.648H54.932L51.908 5.064L52.404 5.032V15H49.684ZM69.5125 15.32C68.7658 15.32 68.1045 15.192 67.5285 14.936C66.9525 14.68 66.4672 14.3333 66.0725 13.896C65.6778 13.4587 65.3738 12.968 65.1605 12.424C64.9578 11.88 64.8565 11.32 64.8565 10.744V10.424C64.8565 9.82667 64.9578 9.256 65.1605 8.712C65.3738 8.15733 65.6725 7.66667 66.0565 7.24C66.4512 6.81333 66.9312 6.47733 67.4965 6.232C68.0618 5.976 68.7018 5.848 69.4165 5.848C70.3658 5.848 71.1712 6.06133 71.8325 6.488C72.4938 6.91467 73.0005 7.48 73.3525 8.184C73.7045 8.87733 73.8805 9.63467 73.8805 10.456V11.384H66.0725V9.816H72.2005L71.1925 10.52C71.1925 10.0187 71.1232 9.59733 70.9845 9.256C70.8565 8.904 70.6592 8.63733 70.3925 8.456C70.1365 8.27467 69.8112 8.184 69.4165 8.184C69.0325 8.184 68.6965 8.27467 68.4085 8.456C68.1312 8.62667 67.9178 8.89333 67.7685 9.256C67.6192 9.608 67.5445 10.056 67.5445 10.6C67.5445 11.0907 67.6138 11.5173 67.7525 11.88C67.8912 12.232 68.1045 12.504 68.3925 12.696C68.6805 12.888 69.0538 12.984 69.5125 12.984C69.9178 12.984 70.2485 12.9147 70.5045 12.776C70.7712 12.6373 70.9578 12.4507 71.0645 12.216H73.7205C73.5925 12.8133 73.3365 13.3467 72.9525 13.816C72.5792 14.2853 72.0992 14.6533 71.5125 14.92C70.9365 15.1867 70.2698 15.32 69.5125 15.32ZM79.6234 15.128C78.6634 15.128 77.8954 15.0107 77.3194 14.776C76.754 14.5413 76.3434 14.152 76.0874 13.608C75.8314 13.064 75.7034 12.328 75.7034 11.4L75.7194 3.864H78.4074L78.3914 11.48C78.3914 11.8747 78.4927 12.1787 78.6954 12.392C78.9087 12.5947 79.2127 12.696 79.6074 12.696H80.8234V15.128H79.6234ZM74.4234 8.28V6.168H80.8234V8.28H74.4234ZM82.3841 15V3.32H85.2961V9.976H84.9121C84.9121 9.08 85.0241 8.328 85.2481 7.72C85.4721 7.112 85.7975 6.65333 86.2241 6.344C86.6615 6.03467 87.2001 5.88 87.8401 5.88H87.9681C88.9281 5.88 89.6588 6.22667 90.1601 6.92C90.6721 7.61333 90.9281 8.632 90.9281 9.976V15H88.0161V9.864C88.0161 9.45867 87.8935 9.128 87.6481 8.872C87.4028 8.60533 87.0775 8.472 86.6721 8.472C86.2668 8.472 85.9361 8.60533 85.6801 8.872C85.4241 9.128 85.2961 9.46933 85.2961 9.896V15H82.3841ZM97.2841 15.32C96.5055 15.32 95.8121 15.2027 95.2041 14.968C94.5961 14.7333 94.0788 14.408 93.6521 13.992C93.2361 13.576 92.9161 13.096 92.6921 12.552C92.4788 12.008 92.3721 11.4267 92.3721 10.808V10.424C92.3721 9.784 92.4841 9.18667 92.7081 8.632C92.9428 8.07733 93.2735 7.592 93.7001 7.176C94.1268 6.76 94.6441 6.43467 95.2521 6.2C95.8601 5.96533 96.5375 5.848 97.2841 5.848C98.0415 5.848 98.7188 5.96533 99.3161 6.2C99.9241 6.43467 100.441 6.76 100.868 7.176C101.295 7.592 101.62 8.07733 101.844 8.632C102.079 9.18667 102.196 9.784 102.196 10.424V10.808C102.196 11.4267 102.084 12.008 101.86 12.552C101.647 13.096 101.327 13.576 100.9 13.992C100.484 14.408 99.9721 14.7333 99.3641 14.968C98.7561 15.2027 98.0628 15.32 97.2841 15.32ZM97.2841 12.888C97.7321 12.888 98.1001 12.792 98.3881 12.6C98.6868 12.408 98.9108 12.1413 99.0601 11.8C99.2095 11.448 99.2841 11.0533 99.2841 10.616C99.2841 10.1573 99.2041 9.75733 99.0441 9.416C98.8948 9.064 98.6708 8.78667 98.3721 8.584C98.0735 8.38133 97.7108 8.28 97.2841 8.28C96.8575 8.28 96.4948 8.38133 96.1961 8.584C95.8975 8.78667 95.6681 9.064 95.5081 9.416C95.3588 9.75733 95.2841 10.1573 95.2841 10.616C95.2841 11.0533 95.3588 11.448 95.5081 11.8C95.6575 12.1413 95.8815 12.408 96.1801 12.6C96.4788 12.792 96.8468 12.888 97.2841 12.888ZM107.422 15.288C106.804 15.288 106.238 15.176 105.726 14.952C105.225 14.728 104.788 14.4187 104.414 14.024C104.052 13.6187 103.769 13.144 103.566 12.6C103.374 12.056 103.278 11.464 103.278 10.824V10.44C103.278 9.8 103.369 9.208 103.55 8.664C103.742 8.10933 104.014 7.62933 104.366 7.224C104.718 6.808 105.145 6.488 105.646 6.264C106.148 6.02933 106.708 5.912 107.326 5.912C108.041 5.912 108.649 6.072 109.15 6.392C109.662 6.70133 110.052 7.15467 110.318 7.752C110.596 8.34933 110.745 9.07467 110.766 9.928L110.094 9.432V3.32H113.006V15H110.702V11.416H111.022C111.001 12.2053 110.841 12.8933 110.542 13.48C110.244 14.056 109.828 14.504 109.294 14.824C108.772 15.1333 108.148 15.288 107.422 15.288ZM108.206 12.888C108.558 12.888 108.878 12.808 109.166 12.648C109.465 12.488 109.705 12.2533 109.886 11.944C110.068 11.6347 110.158 11.2613 110.158 10.824V10.28C110.158 9.85333 110.062 9.496 109.87 9.208C109.689 8.92 109.449 8.70133 109.15 8.552C108.862 8.392 108.548 8.312 108.206 8.312C107.822 8.312 107.476 8.41333 107.166 8.616C106.868 8.808 106.628 9.08 106.446 9.432C106.276 9.77333 106.19 10.1733 106.19 10.632C106.19 11.0907 106.276 11.4907 106.446 11.832C106.628 12.1627 106.868 12.424 107.166 12.616C107.476 12.7973 107.822 12.888 108.206 12.888ZM119.519 15.32C118.74 15.32 118.047 15.2027 117.439 14.968C116.831 14.7333 116.313 14.408 115.887 13.992C115.471 13.576 115.151 13.096 114.927 12.552C114.713 12.008 114.607 11.4267 114.607 10.808V10.424C114.607 9.784 114.719 9.18667 114.943 8.632C115.177 8.07733 115.508 7.592 115.935 7.176C116.361 6.76 116.879 6.43467 117.487 6.2C118.095 5.96533 118.772 5.848 119.519 5.848C120.276 5.848 120.953 5.96533 121.551 6.2C122.159 6.43467 122.676 6.76 123.102 7.176C123.529 7.592 123.855 8.07733 124.079 8.632C124.313 9.18667 124.431 9.784 124.431 10.424V10.808C124.431 11.4267 124.319 12.008 124.095 12.552C123.881 13.096 123.561 13.576 123.135 13.992C122.719 14.408 122.207 14.7333 121.599 14.968C120.991 15.2027 120.297 15.32 119.519 15.32ZM119.519 12.888C119.967 12.888 120.335 12.792 120.623 12.6C120.921 12.408 121.145 12.1413 121.295 11.8C121.444 11.448 121.519 11.0533 121.519 10.616C121.519 10.1573 121.439 9.75733 121.279 9.416C121.129 9.064 120.905 8.78667 120.607 8.584C120.308 8.38133 119.945 8.28 119.519 8.28C119.092 8.28 118.729 8.38133 118.431 8.584C118.132 8.78667 117.903 9.064 117.743 9.416C117.593 9.75733 117.519 10.1573 117.519 10.616C117.519 11.0533 117.593 11.448 117.743 11.8C117.892 12.1413 118.116 12.408 118.415 12.6C118.713 12.792 119.081 12.888 119.519 12.888ZM126.153 15V3.32H129.065V15H126.153ZM125.161 5.432V3.32H129.065V5.432H125.161ZM135.612 15.32C134.834 15.32 134.14 15.2027 133.532 14.968C132.924 14.7333 132.407 14.408 131.98 13.992C131.564 13.576 131.244 13.096 131.02 12.552C130.807 12.008 130.7 11.4267 130.7 10.808V10.424C130.7 9.784 130.812 9.18667 131.036 8.632C131.271 8.07733 131.602 7.592 132.028 7.176C132.455 6.76 132.972 6.43467 133.58 6.2C134.188 5.96533 134.866 5.848 135.612 5.848C136.37 5.848 137.047 5.96533 137.644 6.2C138.252 6.43467 138.77 6.76 139.196 7.176C139.623 7.592 139.948 8.07733 140.172 8.632C140.407 9.18667 140.524 9.784 140.524 10.424V10.808C140.524 11.4267 140.412 12.008 140.188 12.552C139.975 13.096 139.655 13.576 139.228 13.992C138.812 14.408 138.3 14.7333 137.692 14.968C137.084 15.2027 136.391 15.32 135.612 15.32ZM135.612 12.888C136.06 12.888 136.428 12.792 136.716 12.6C137.015 12.408 137.239 12.1413 137.388 11.8C137.538 11.448 137.612 11.0533 137.612 10.616C137.612 10.1573 137.532 9.75733 137.372 9.416C137.223 9.064 136.999 8.78667 136.7 8.584C136.402 8.38133 136.039 8.28 135.612 8.28C135.186 8.28 134.823 8.38133 134.524 8.584C134.226 8.78667 133.996 9.064 133.836 9.416C133.687 9.75733 133.612 10.1573 133.612 10.616C133.612 11.0533 133.687 11.448 133.836 11.8C133.986 12.1413 134.21 12.408 134.508 12.6C134.807 12.792 135.175 12.888 135.612 12.888ZM145.655 18.536C145.217 18.536 144.764 18.52 144.295 18.488C143.836 18.456 143.42 18.4133 143.047 18.36V15.928C143.42 15.9707 143.836 16.008 144.295 16.04C144.753 16.0827 145.175 16.104 145.559 16.104C146.22 16.104 146.759 16.0347 147.175 15.896C147.601 15.7573 147.916 15.544 148.119 15.256C148.321 14.968 148.423 14.6 148.423 14.152V12.36L148.871 11.4C148.849 12.1467 148.705 12.7973 148.439 13.352C148.172 13.896 147.788 14.3173 147.287 14.616C146.796 14.9147 146.199 15.064 145.495 15.064C144.897 15.064 144.359 14.9573 143.879 14.744C143.399 14.5307 142.988 14.232 142.647 13.848C142.316 13.4533 142.06 12.9893 141.879 12.456C141.697 11.9227 141.607 11.3413 141.607 10.712V10.328C141.607 9.69867 141.703 9.11733 141.895 8.584C142.087 8.04 142.364 7.57067 142.727 7.176C143.089 6.77067 143.516 6.46133 144.007 6.248C144.508 6.024 145.063 5.912 145.671 5.912C146.375 5.912 146.983 6.072 147.495 6.392C148.007 6.70133 148.407 7.15467 148.695 7.752C148.983 8.34933 149.137 9.07467 149.159 9.928L148.839 10.04V6.168H151.143V13.96C151.143 15.048 150.94 15.928 150.535 16.6C150.129 17.272 149.516 17.7627 148.695 18.072C147.884 18.3813 146.871 18.536 145.655 18.536ZM146.471 12.664C146.823 12.664 147.137 12.584 147.415 12.424C147.703 12.264 147.932 12.0347 148.103 11.736C148.273 11.4267 148.359 11.0587 148.359 10.632V10.248C148.359 9.832 148.268 9.48 148.087 9.192C147.916 8.904 147.687 8.68533 147.399 8.536C147.111 8.38667 146.801 8.312 146.471 8.312C146.087 8.312 145.745 8.40267 145.447 8.584C145.159 8.76533 144.929 9.02133 144.759 9.352C144.599 9.68267 144.519 10.072 144.519 10.52C144.519 10.968 144.599 11.352 144.759 11.672C144.929 11.992 145.159 12.2373 145.447 12.408C145.745 12.5787 146.087 12.664 146.471 12.664ZM153.581 15V6.168H156.493V15H153.581ZM152.461 8.28V6.168H156.493V8.28H152.461ZM154.781 5.464C154.248 5.464 153.853 5.33067 153.597 5.064C153.352 4.78667 153.229 4.43467 153.229 4.008C153.229 3.58133 153.352 3.23467 153.597 2.968C153.853 2.69067 154.243 2.552 154.765 2.552C155.299 2.552 155.688 2.69067 155.933 2.968C156.179 3.23467 156.301 3.58133 156.301 4.008C156.301 4.43467 156.179 4.78667 155.933 5.064C155.688 5.33067 155.304 5.464 154.781 5.464ZM162.778 15.32C162.031 15.32 161.37 15.192 160.794 14.936C160.218 14.68 159.733 14.3333 159.338 13.896C158.943 13.4587 158.639 12.968 158.426 12.424C158.223 11.88 158.122 11.32 158.122 10.744V10.424C158.122 9.82667 158.223 9.256 158.426 8.712C158.639 8.15733 158.938 7.66667 159.322 7.24C159.717 6.81333 160.197 6.47733 160.762 6.232C161.327 5.976 161.967 5.848 162.682 5.848C163.631 5.848 164.437 6.06133 165.098 6.488C165.759 6.91467 166.266 7.48 166.618 8.184C166.97 8.87733 167.146 9.63467 167.146 10.456V11.384H159.338V9.816H165.466L164.458 10.52C164.458 10.0187 164.389 9.59733 164.25 9.256C164.122 8.904 163.925 8.63733 163.658 8.456C163.402 8.27467 163.077 8.184 162.682 8.184C162.298 8.184 161.962 8.27467 161.674 8.456C161.397 8.62667 161.183 8.89333 161.034 9.256C160.885 9.608 160.81 10.056 160.81 10.6C160.81 11.0907 160.879 11.5173 161.018 11.88C161.157 12.232 161.37 12.504 161.658 12.696C161.946 12.888 162.319 12.984 162.778 12.984C163.183 12.984 163.514 12.9147 163.77 12.776C164.037 12.6373 164.223 12.4507 164.33 12.216H166.986C166.858 12.8133 166.602 13.3467 166.218 13.816C165.845 14.2853 165.365 14.6533 164.778 14.92C164.202 15.1867 163.535 15.32 162.778 15.32ZM172.185 15.288C170.905 15.288 169.897 15.0267 169.161 14.504C168.425 13.9707 168.03 13.224 167.977 12.264H170.537C170.58 12.5307 170.745 12.76 171.033 12.952C171.321 13.144 171.726 13.24 172.249 13.24C172.622 13.24 172.942 13.1867 173.209 13.08C173.486 12.9627 173.625 12.776 173.625 12.52C173.625 12.296 173.518 12.1147 173.305 11.976C173.092 11.8267 172.702 11.7253 172.137 11.672L171.529 11.608C170.398 11.4907 169.566 11.1813 169.033 10.68C168.5 10.1787 168.233 9.54933 168.233 8.792C168.233 8.14133 168.393 7.608 168.713 7.192C169.033 6.76533 169.476 6.44533 170.041 6.232C170.606 6.01867 171.252 5.912 171.977 5.912C173.161 5.912 174.116 6.17333 174.841 6.696C175.566 7.208 175.95 7.94933 175.993 8.92H173.433C173.39 8.65333 173.246 8.42933 173.001 8.248C172.756 8.056 172.404 7.96 171.945 7.96C171.614 7.96 171.342 8.01867 171.129 8.136C170.926 8.25333 170.825 8.41867 170.825 8.632C170.825 8.856 170.921 9.02133 171.113 9.128C171.316 9.23467 171.636 9.31467 172.073 9.368L172.681 9.432C173.812 9.54933 174.681 9.864 175.289 10.376C175.908 10.8773 176.217 11.5387 176.217 12.36C176.217 12.968 176.052 13.4907 175.721 13.928C175.401 14.3653 174.937 14.7013 174.329 14.936C173.732 15.1707 173.017 15.288 172.185 15.288Z" fill="white"/>
</svg>
