<svg width="780" height="180" viewBox="0 0 780 180" fill="none" xmlns="http://www.w3.org/2000/svg">
<mask id="mask0_55_270" style="mask-type:alpha" maskUnits="userSpaceOnUse" x="0" y="0" width="781" height="180">
<rect width="780.004" height="180" fill="#2C2C2C"/>
</mask>
<g mask="url(#mask0_55_270)">
<rect width="780.004" height="180" fill="#2C2C2C"/>
<rect x="268.829" y="-142.923" width="141.901" height="329.402" transform="rotate(45 268.829 -142.923)" fill="#270A3B"/>
<rect x="0.00195312" width="141.901" height="180" fill="#270A3B"/>
<path d="M0.00195312 142.123H780.004V180H0.00195312V142.123Z" fill="#270A3B"/>
<path d="M213.026 133.5L242.978 40.06H281.122L312.098 133.5H287.522L263.458 56.7L270.242 59.26H253.346L260.258 56.7L236.834 133.5H213.026ZM237.474 111.868L244.642 92.412H280.098L287.266 111.868H237.474ZM321.599 133.5V40.06H344.895V133.5H321.599ZM313.663 56.956V40.06H344.895V56.956H313.663ZM385.755 135.804C377.734 135.804 371.504 133.201 367.067 127.996C362.715 122.705 360.539 114.641 360.539 103.804V62.844H383.835V104.444C383.835 107.601 384.774 110.161 386.651 112.124C388.528 114.087 391.046 115.068 394.203 115.068C397.36 115.068 399.92 114.087 401.883 112.124C403.846 110.161 404.827 107.516 404.827 104.188V62.844H428.123V133.5H409.691V103.804H410.971C410.971 111.057 410.032 117.073 408.155 121.852C406.363 126.545 403.675 130.044 400.091 132.348C396.507 134.652 392.07 135.804 386.779 135.804H385.755ZM445.325 133.5V62.844H463.757V93.564H463.501C463.501 83.6653 465.549 75.9 469.645 70.268C473.826 64.636 479.8 61.82 487.565 61.82H490.381V81.788H485.005C479.8 81.788 475.746 83.196 472.845 86.012C470.029 88.828 468.621 92.8813 468.621 98.172V133.5H445.325ZM541.827 133.5V112.764H537.987V90.62C537.987 87.3773 537.219 84.988 535.683 83.452C534.232 81.8307 531.8 81.02 528.387 81.02C526.766 81.02 524.376 81.0627 521.219 81.148C518.062 81.2333 514.734 81.3613 511.235 81.532C507.736 81.7027 504.536 81.8733 501.635 82.044V62.588C503.683 62.4173 506.115 62.2467 508.931 62.076C511.747 61.9053 514.648 61.7773 517.635 61.692C520.707 61.6067 523.523 61.564 526.083 61.564C533.336 61.564 539.48 62.6307 544.515 64.764C549.635 66.8973 553.518 70.0973 556.163 74.364C558.894 78.6307 560.259 84.0493 560.259 90.62V133.5H541.827ZM519.427 135.292C514.478 135.292 510.083 134.396 506.243 132.604C502.403 130.812 499.374 128.252 497.155 124.924C495.022 121.511 493.955 117.457 493.955 112.764C493.955 107.473 495.363 103.207 498.179 99.964C500.995 96.636 504.878 94.204 509.827 92.668C514.776 91.132 520.451 90.364 526.851 90.364H540.547V102.396H526.851C523.694 102.396 521.262 103.207 519.555 104.828C517.848 106.364 516.995 108.455 516.995 111.1C516.995 113.66 517.848 115.751 519.555 117.372C521.262 118.908 523.694 119.676 526.851 119.676C528.899 119.676 530.691 119.335 532.227 118.652C533.848 117.884 535.171 116.604 536.195 114.812C537.219 113.02 537.816 110.545 537.987 107.388L543.363 112.508C542.936 117.372 541.742 121.511 539.779 124.924C537.902 128.252 535.256 130.812 531.843 132.604C528.515 134.396 524.376 135.292 519.427 135.292Z" fill="white"/>
</g>
</svg>
