<svg width="478" height="194" viewBox="0 0 478 194" fill="none" xmlns="http://www.w3.org/2000/svg">
<mask id="mask0_242_29" style="mask-type:alpha" maskUnits="userSpaceOnUse" x="0" y="0" width="478" height="194">
<rect width="478" height="194" fill="#8892BF"/>
</mask>
<g mask="url(#mask0_242_29)">
<rect width="478" height="194" fill="#00599C"/>
<path d="M84.9768 82.6991C84.9998 81.6603 84.7477 80.6337 84.2458 79.722C83.7256 78.8407 82.9756 78.115 82.075 77.6213C74.0904 73.0438 66.103 68.4727 58.1129 63.908C55.9614 62.6728 53.8761 62.7166 51.7383 63.971C48.5607 65.8252 32.6476 74.8879 27.9059 77.6186C25.953 78.7415 25.0041 80.4615 25.0041 82.6963V110.304C24.9839 111.32 25.2261 112.326 25.7075 113.223C26.2279 114.131 26.9918 114.878 27.9142 115.381C32.6558 118.12 48.5717 127.172 51.7493 129.034C53.8871 130.289 55.9724 130.333 58.1267 129.097C66.1095 124.518 74.0968 119.945 82.0888 115.379C83.0111 114.876 83.775 114.129 84.2955 113.221C84.7769 112.323 85.019 111.318 84.9988 110.301V82.6991H84.9768Z" fill="#D0D0D0"/>
<path d="M84.9823 110.304C85.0031 111.321 84.7609 112.326 84.2789 113.223C84.1606 113.437 84.0269 113.642 83.8789 113.837L54.9904 96.5L82.075 77.6213C82.9748 78.1151 83.7238 78.8409 84.243 79.722C84.7471 80.633 85.0002 81.6599 84.9768 82.6991C84.9823 91.9015 84.9823 110.304 84.9823 110.304Z" fill="#F0F0F0"/>
<path d="M84.243 79.722L25.6992 113.223C25.2199 112.326 24.9797 111.322 25.0013 110.306V82.6963C25.0013 80.4615 25.953 78.7415 27.9032 77.6186C32.6476 74.8879 48.5607 65.8252 51.7411 63.9655C53.8733 62.7111 55.9614 62.6673 58.1129 63.9025C66.0957 68.4818 74.083 73.0548 82.075 77.6213C82.9748 78.1151 83.7238 78.8409 84.243 79.722Z" fill="white"/>
<path d="M56.149 107.652C54.1776 107.655 52.2418 107.132 50.5435 106.138C48.8453 105.145 47.4469 103.716 46.4946 102.002C46.3972 101.831 46.3052 101.655 46.2188 101.476C45.0438 99.067 44.7995 96.3133 45.5321 93.737C46.2647 91.1606 47.9234 88.9405 50.194 87.4969C52.4647 86.0534 55.1896 85.4868 57.8528 85.9043C60.516 86.3218 62.9325 87.6946 64.6448 89.7625C64.791 89.9378 64.9206 90.1213 65.0668 90.3103C65.133 90.4006 65.1992 90.491 65.2599 90.5841L74.9335 85.0517C74.6981 84.6756 74.4517 84.3104 74.1943 83.9562C74.0591 83.7672 73.9184 83.5864 73.786 83.4084C70.4237 79.0714 65.5467 76.1429 60.1169 75.2004C54.687 74.2579 49.0986 75.3699 44.4538 78.317C39.809 81.2641 36.4451 85.8324 35.0255 91.1209C33.6059 96.4094 34.2337 102.034 36.7851 106.886C36.8789 107.061 36.9755 107.233 37.061 107.406C38.9348 110.689 41.6315 113.434 44.8894 115.377C48.1472 117.32 51.8556 118.393 55.6544 118.493C59.4533 118.592 63.2136 117.715 66.5703 115.946C69.927 114.178 72.7662 111.577 74.8121 108.397L65.3537 102.72C64.3523 104.236 62.9865 105.481 61.3795 106.342C59.7726 107.203 57.975 107.653 56.149 107.652Z" fill="#659AD2"/>
<path d="M0.0701828 164L112.118 194.023L102.657 229.33L-9.39023 199.307L0.0701828 164Z" fill="#18005B"/>
<path d="M-1.6265 141.518L201.842 196.038L198.308 209.227L-5.1607 154.708L-1.6265 141.518Z" fill="#18005B"/>
<path d="M-2.84124 124.052L257.68 193.858L255.361 202.515L-5.1607 132.708L-2.84124 124.052Z" fill="#18005B"/>
<rect x="149" y="72" width="315" height="50" rx="8" stroke="#EBEBEB" stroke-width="8"/>
<rect x="155" y="78" width="59" height="38" rx="3" fill="white"/>
<rect x="216" y="78" width="59" height="38" rx="3" fill="white"/>
<rect x="277" y="78" width="59" height="38" rx="3" fill="white"/>
<path d="M298.7 183L297.82 179.64H294L293.14 183H290.1L293.88 169.04H298.12L301.9 183H298.7ZM296 171.94H295.84L294.48 177.22H297.36L296 171.94ZM305.992 173.72H305.772V183H303.212V169.04H306.812L309.992 178.32H310.212V169.04H312.772V183H309.172L305.992 173.72ZM319.764 183.24C318.591 183.24 317.571 183.047 316.704 182.66C315.838 182.273 315.138 181.747 314.604 181.08L316.344 179.16C316.851 179.72 317.404 180.133 318.004 180.4C318.618 180.667 319.238 180.8 319.864 180.8C320.584 180.8 321.131 180.64 321.504 180.32C321.878 180 322.064 179.54 322.064 178.94C322.064 178.447 321.918 178.073 321.624 177.82C321.344 177.567 320.864 177.387 320.184 177.28L318.724 177.04C317.471 176.827 316.564 176.367 316.004 175.66C315.444 174.94 315.164 174.067 315.164 173.04C315.164 171.693 315.604 170.653 316.484 169.92C317.364 169.173 318.598 168.8 320.184 168.8C321.264 168.8 322.204 168.967 323.004 169.3C323.804 169.633 324.451 170.087 324.944 170.66L323.244 172.56C322.871 172.147 322.431 171.827 321.924 171.6C321.418 171.36 320.844 171.24 320.204 171.24C318.858 171.24 318.184 171.793 318.184 172.9C318.184 173.38 318.331 173.74 318.624 173.98C318.931 174.22 319.424 174.4 320.104 174.52L321.564 174.78C322.698 174.98 323.571 175.407 324.184 176.06C324.798 176.713 325.104 177.593 325.104 178.7C325.104 179.353 324.991 179.96 324.764 180.52C324.538 181.067 324.198 181.547 323.744 181.96C323.291 182.36 322.731 182.673 322.064 182.9C321.411 183.127 320.644 183.24 319.764 183.24ZM327.477 183V180.78H330.477V171.26H327.477V169.04H336.477V171.26H333.477V180.78H336.477V183H327.477ZM356.281 183.24C354.414 183.24 353.028 182.613 352.121 181.36C351.228 180.093 350.781 178.313 350.781 176.02C350.781 173.727 351.228 171.953 352.121 170.7C353.028 169.433 354.414 168.8 356.281 168.8C357.001 168.8 357.634 168.9 358.181 169.1C358.741 169.287 359.221 169.553 359.621 169.9C360.021 170.247 360.348 170.667 360.601 171.16C360.868 171.653 361.074 172.207 361.221 172.82L358.421 173.5C358.341 173.167 358.248 172.86 358.141 172.58C358.034 172.3 357.894 172.06 357.721 171.86C357.561 171.66 357.354 171.507 357.101 171.4C356.861 171.28 356.568 171.22 356.221 171.22C355.408 171.22 354.828 171.54 354.481 172.18C354.148 172.807 353.981 173.68 353.981 174.8V177.24C353.981 178.36 354.148 179.24 354.481 179.88C354.828 180.507 355.408 180.82 356.221 180.82C356.914 180.82 357.414 180.607 357.721 180.18C358.041 179.753 358.274 179.207 358.421 178.54L361.221 179.22C361.074 179.833 360.868 180.387 360.601 180.88C360.348 181.373 360.021 181.8 359.621 182.16C359.221 182.507 358.741 182.773 358.181 182.96C357.634 183.147 357.001 183.24 356.281 183.24ZM375.785 183V169.04H378.805V180.54H384.805V183H375.785ZM395.678 183C395.064 183 394.571 182.847 394.198 182.54C393.824 182.22 393.604 181.767 393.538 181.18H393.438C393.251 181.86 392.878 182.373 392.318 182.72C391.771 183.067 391.098 183.24 390.298 183.24C389.298 183.24 388.491 182.973 387.878 182.44C387.278 181.893 386.978 181.133 386.978 180.16C386.978 179.08 387.371 178.28 388.158 177.76C388.944 177.24 390.098 176.98 391.618 176.98H393.278V176.46C393.278 175.847 393.131 175.387 392.838 175.08C392.558 174.76 392.078 174.6 391.398 174.6C390.771 174.6 390.264 174.72 389.878 174.96C389.491 175.2 389.158 175.513 388.877 175.9L387.257 174.46C387.604 173.873 388.144 173.393 388.877 173.02C389.624 172.633 390.578 172.44 391.738 172.44C393.151 172.44 394.251 172.767 395.038 173.42C395.838 174.06 396.238 175.033 396.238 176.34V180.86H397.378V183H395.678ZM391.418 181.3C391.938 181.3 392.378 181.173 392.738 180.92C393.098 180.667 393.278 180.3 393.278 179.82V178.58H391.698C390.484 178.58 389.878 178.987 389.878 179.8V180.2C389.878 180.56 390.018 180.833 390.298 181.02C390.578 181.207 390.951 181.3 391.418 181.3ZM399.23 183V172.68H402.19V174.56H402.31C402.43 174.267 402.576 173.993 402.75 173.74C402.923 173.487 403.13 173.267 403.37 173.08C403.623 172.88 403.91 172.727 404.23 172.62C404.563 172.5 404.936 172.44 405.35 172.44C405.843 172.44 406.296 172.527 406.71 172.7C407.123 172.86 407.476 173.107 407.77 173.44C408.063 173.773 408.29 174.18 408.45 174.66C408.623 175.14 408.71 175.693 408.71 176.32V183H405.75V176.72C405.75 175.387 405.17 174.72 404.01 174.72C403.783 174.72 403.556 174.753 403.33 174.82C403.116 174.873 402.923 174.967 402.75 175.1C402.576 175.22 402.436 175.373 402.33 175.56C402.236 175.747 402.19 175.967 402.19 176.22V183H399.23ZM421.582 184.04C421.582 185.133 421.122 185.94 420.202 186.46C419.282 186.98 417.835 187.24 415.862 187.24C414.875 187.24 414.062 187.18 413.422 187.06C412.782 186.953 412.269 186.793 411.882 186.58C411.509 186.367 411.242 186.113 411.082 185.82C410.935 185.527 410.862 185.207 410.862 184.86C410.862 184.273 411.035 183.827 411.382 183.52C411.729 183.227 412.215 183 412.842 182.84V182.72C412.402 182.587 412.049 182.4 411.782 182.16C411.529 181.907 411.402 181.553 411.402 181.1C411.402 180.593 411.569 180.22 411.902 179.98C412.249 179.74 412.702 179.553 413.262 179.42V179.3C412.649 179.007 412.169 178.593 411.822 178.06C411.489 177.527 411.322 176.88 411.322 176.12C411.322 175.52 411.429 174.993 411.642 174.54C411.855 174.073 412.155 173.687 412.542 173.38C412.942 173.073 413.415 172.84 413.962 172.68C414.509 172.52 415.122 172.44 415.802 172.44C416.455 172.44 417.062 172.513 417.622 172.66V172.1C417.622 171.7 417.762 171.367 418.042 171.1C418.322 170.833 418.709 170.7 419.202 170.7H421.022V172.86H418.542V173.04C419.102 173.333 419.535 173.74 419.842 174.26C420.162 174.767 420.322 175.387 420.322 176.12C420.322 176.72 420.215 177.247 420.002 177.7C419.789 178.153 419.482 178.54 419.082 178.86C418.682 179.167 418.202 179.4 417.642 179.56C417.095 179.72 416.482 179.8 415.802 179.8C415.495 179.8 415.202 179.787 414.922 179.76C414.642 179.72 414.375 179.667 414.122 179.6C413.975 179.68 413.849 179.78 413.742 179.9C413.649 180.02 413.602 180.173 413.602 180.36C413.602 180.52 413.642 180.647 413.722 180.74C413.802 180.833 413.909 180.907 414.042 180.96C414.189 181 414.355 181.027 414.542 181.04C414.729 181.053 414.922 181.06 415.122 181.06H417.482C418.215 181.06 418.842 181.133 419.362 181.28C419.882 181.427 420.309 181.633 420.642 181.9C420.975 182.167 421.215 182.48 421.362 182.84C421.509 183.2 421.582 183.6 421.582 184.04ZM418.782 184.26C418.782 183.993 418.675 183.78 418.462 183.62C418.249 183.473 417.842 183.4 417.242 183.4H413.702C413.435 183.627 413.302 183.907 413.302 184.24C413.302 184.56 413.435 184.82 413.702 185.02C413.982 185.233 414.449 185.34 415.102 185.34H416.842C417.522 185.34 418.015 185.247 418.322 185.06C418.629 184.873 418.782 184.607 418.782 184.26ZM415.802 177.92C416.402 177.92 416.835 177.773 417.102 177.48C417.382 177.187 417.522 176.813 417.522 176.36V175.88C417.522 175.427 417.382 175.053 417.102 174.76C416.835 174.467 416.402 174.32 415.802 174.32C415.215 174.32 414.789 174.467 414.522 174.76C414.255 175.053 414.122 175.427 414.122 175.88V176.36C414.122 176.813 414.255 177.187 414.522 177.48C414.789 177.773 415.215 177.92 415.802 177.92ZM429.654 181.12H429.534C429.307 181.707 428.947 182.207 428.454 182.62C427.974 183.033 427.321 183.24 426.494 183.24C426.001 183.24 425.547 183.16 425.134 183C424.721 182.827 424.367 182.573 424.074 182.24C423.781 181.907 423.547 181.5 423.374 181.02C423.214 180.54 423.134 179.987 423.134 179.36V172.68H426.094V178.96C426.094 180.293 426.674 180.96 427.834 180.96C428.061 180.96 428.281 180.933 428.494 180.88C428.721 180.813 428.914 180.72 429.074 180.6C429.247 180.467 429.387 180.307 429.494 180.12C429.601 179.933 429.654 179.713 429.654 179.46V172.68H432.614V183H429.654V181.12ZM443.646 183C443.033 183 442.54 182.847 442.166 182.54C441.793 182.22 441.573 181.767 441.506 181.18H441.406C441.22 181.86 440.846 182.373 440.286 182.72C439.74 183.067 439.066 183.24 438.266 183.24C437.266 183.24 436.46 182.973 435.846 182.44C435.246 181.893 434.946 181.133 434.946 180.16C434.946 179.08 435.34 178.28 436.126 177.76C436.913 177.24 438.066 176.98 439.586 176.98H441.246V176.46C441.246 175.847 441.1 175.387 440.806 175.08C440.526 174.76 440.046 174.6 439.366 174.6C438.74 174.6 438.233 174.72 437.846 174.96C437.46 175.2 437.126 175.513 436.846 175.9L435.226 174.46C435.573 173.873 436.113 173.393 436.846 173.02C437.593 172.633 438.546 172.44 439.706 172.44C441.12 172.44 442.22 172.767 443.006 173.42C443.806 174.06 444.206 175.033 444.206 176.34V180.86H445.346V183H443.646ZM439.386 181.3C439.906 181.3 440.346 181.173 440.706 180.92C441.066 180.667 441.246 180.3 441.246 179.82V178.58H439.666C438.453 178.58 437.846 178.987 437.846 179.8V180.2C437.846 180.56 437.986 180.833 438.266 181.02C438.546 181.207 438.92 181.3 439.386 181.3ZM457.558 184.04C457.558 185.133 457.098 185.94 456.178 186.46C455.258 186.98 453.812 187.24 451.838 187.24C450.852 187.24 450.038 187.18 449.398 187.06C448.758 186.953 448.245 186.793 447.858 186.58C447.485 186.367 447.218 186.113 447.058 185.82C446.912 185.527 446.838 185.207 446.838 184.86C446.838 184.273 447.012 183.827 447.358 183.52C447.705 183.227 448.192 183 448.818 182.84V182.72C448.378 182.587 448.025 182.4 447.758 182.16C447.505 181.907 447.378 181.553 447.378 181.1C447.378 180.593 447.545 180.22 447.878 179.98C448.225 179.74 448.678 179.553 449.238 179.42V179.3C448.625 179.007 448.145 178.593 447.798 178.06C447.465 177.527 447.298 176.88 447.298 176.12C447.298 175.52 447.405 174.993 447.618 174.54C447.832 174.073 448.132 173.687 448.518 173.38C448.918 173.073 449.392 172.84 449.938 172.68C450.485 172.52 451.098 172.44 451.778 172.44C452.432 172.44 453.038 172.513 453.598 172.66V172.1C453.598 171.7 453.738 171.367 454.018 171.1C454.298 170.833 454.685 170.7 455.178 170.7H456.998V172.86H454.518V173.04C455.078 173.333 455.512 173.74 455.818 174.26C456.138 174.767 456.298 175.387 456.298 176.12C456.298 176.72 456.192 177.247 455.978 177.7C455.765 178.153 455.458 178.54 455.058 178.86C454.658 179.167 454.178 179.4 453.618 179.56C453.072 179.72 452.458 179.8 451.778 179.8C451.472 179.8 451.178 179.787 450.898 179.76C450.618 179.72 450.352 179.667 450.098 179.6C449.952 179.68 449.825 179.78 449.718 179.9C449.625 180.02 449.578 180.173 449.578 180.36C449.578 180.52 449.618 180.647 449.698 180.74C449.778 180.833 449.885 180.907 450.018 180.96C450.165 181 450.332 181.027 450.518 181.04C450.705 181.053 450.898 181.06 451.098 181.06H453.458C454.192 181.06 454.818 181.133 455.338 181.28C455.858 181.427 456.285 181.633 456.618 181.9C456.952 182.167 457.192 182.48 457.338 182.84C457.485 183.2 457.558 183.6 457.558 184.04ZM454.758 184.26C454.758 183.993 454.652 183.78 454.438 183.62C454.225 183.473 453.818 183.4 453.218 183.4H449.678C449.412 183.627 449.278 183.907 449.278 184.24C449.278 184.56 449.412 184.82 449.678 185.02C449.958 185.233 450.425 185.34 451.078 185.34H452.818C453.498 185.34 453.992 185.247 454.298 185.06C454.605 184.873 454.758 184.607 454.758 184.26ZM451.778 177.92C452.378 177.92 452.812 177.773 453.078 177.48C453.358 177.187 453.498 176.813 453.498 176.36V175.88C453.498 175.427 453.358 175.053 453.078 174.76C452.812 174.467 452.378 174.32 451.778 174.32C451.192 174.32 450.765 174.467 450.498 174.76C450.232 175.053 450.098 175.427 450.098 175.88V176.36C450.098 176.813 450.232 177.187 450.498 177.48C450.765 177.773 451.192 177.92 451.778 177.92ZM464.171 183.24C462.437 183.24 461.124 182.76 460.231 181.8C459.337 180.84 458.891 179.533 458.891 177.88C458.891 177.04 459.004 176.287 459.231 175.62C459.471 174.94 459.804 174.367 460.231 173.9C460.671 173.42 461.197 173.06 461.811 172.82C462.437 172.567 463.137 172.44 463.911 172.44C464.684 172.44 465.377 172.567 465.991 172.82C466.604 173.06 467.124 173.407 467.551 173.86C467.977 174.313 468.304 174.867 468.531 175.52C468.771 176.16 468.891 176.88 468.891 177.68V178.56H461.831V178.74C461.831 179.407 462.037 179.947 462.451 180.36C462.864 180.76 463.471 180.96 464.271 180.96C464.884 180.96 465.411 180.847 465.851 180.62C466.291 180.38 466.671 180.067 466.991 179.68L468.591 181.42C468.191 181.913 467.631 182.34 466.911 182.7C466.191 183.06 465.277 183.24 464.171 183.24ZM463.931 174.56C463.291 174.56 462.777 174.76 462.391 175.16C462.017 175.547 461.831 176.073 461.831 176.74V176.9H465.991V176.74C465.991 176.06 465.804 175.527 465.431 175.14C465.071 174.753 464.571 174.56 463.931 174.56Z" fill="white"/>
</g>
</svg>
