<svg width="179" height="80" viewBox="0 0 179 80" fill="none" xmlns="http://www.w3.org/2000/svg">
<path d="M148.75 23.9893C150.761 22.8283 153.239 22.8283 155.25 23.9893L172.9 34.1807C174.911 35.3418 176.15 37.4873 176.15 39.8096V60.1904C176.15 62.5127 174.911 64.6582 172.9 65.8193L155.25 76.0107C153.239 77.1717 150.761 77.1717 148.75 76.0107L131.1 65.8193C129.089 64.6582 127.85 62.5127 127.85 60.1904V39.8096C127.85 37.4873 129.089 35.3418 131.1 34.1807L148.75 23.9893Z" fill="black" stroke="#050505" stroke-width="5"/>
<path d="M123.75 23.9893C125.761 22.8283 128.239 22.8283 130.25 23.9893L147.9 34.1807C149.911 35.3418 151.15 37.4873 151.15 39.8096V60.1904C151.15 62.5127 149.911 64.6582 147.9 65.8193L130.25 76.0107C128.239 77.1717 125.761 77.1717 123.75 76.0107L106.1 65.8193C104.089 64.6582 102.85 62.5127 102.85 60.1904V39.8096C102.85 37.4873 104.089 35.3418 106.1 34.1807L123.75 23.9893Z" fill="black" stroke="#050505" stroke-width="5"/>
<path d="M98.75 23.9893C100.761 22.8283 103.239 22.8283 105.25 23.9893L122.9 34.1807C124.911 35.3418 126.15 37.4873 126.15 39.8096V60.1904C126.15 62.5127 124.911 64.6582 122.9 65.8193L105.25 76.0107C103.239 77.1717 100.761 77.1717 98.75 76.0107L81.0996 65.8193C79.0885 64.6582 77.8496 62.5127 77.8496 60.1904V39.8096C77.8496 37.4873 79.0885 35.3418 81.0996 34.1807L98.75 23.9893Z" fill="#085E9F" stroke="#055796" stroke-width="5"/>
<path d="M73.75 23.9893C75.761 22.8283 78.239 22.8283 80.25 23.9893L97.9004 34.1807C99.9115 35.3418 101.15 37.4873 101.15 39.8096V60.1904C101.15 62.5127 99.9115 64.6582 97.9004 65.8193L80.25 76.0107C78.239 77.1717 75.761 77.1717 73.75 76.0107L56.0996 65.8193C54.0885 64.6582 52.8496 62.5127 52.8496 60.1904V39.8096C52.8496 37.4873 54.0885 35.3418 56.0996 34.1807L73.75 23.9893Z" fill="#085E9F" stroke="#055796" stroke-width="5"/>
<path d="M48.75 23.9893C50.761 22.8283 53.239 22.8283 55.25 23.9893L72.9004 34.1807C74.9115 35.3418 76.1504 37.4873 76.1504 39.8096V60.1904C76.1504 62.5127 74.9115 64.6582 72.9004 65.8193L55.25 76.0107C53.239 77.1717 50.761 77.1717 48.75 76.0107L31.0996 65.8193C29.0885 64.6582 27.8496 62.5127 27.8496 60.1904V39.8096C27.8496 37.4873 29.0885 35.3418 31.0996 34.1807L48.75 23.9893Z" fill="#085E9F" stroke="#055796" stroke-width="5"/>
<path d="M23.75 23.9893C25.761 22.8283 28.239 22.8283 30.25 23.9893L47.9004 34.1807C49.9115 35.3418 51.1504 37.4873 51.1504 39.8096V60.1904C51.1504 62.5127 49.9115 64.6582 47.9004 65.8193L30.25 76.0107C28.239 77.1717 25.761 77.1717 23.75 76.0107L6.09961 65.8193C4.0885 64.6582 2.84961 62.5127 2.84961 60.1904V39.8096C2.84961 37.4873 4.0885 35.3418 6.09961 34.1807L23.75 23.9893Z" fill="#085E9F" stroke="#055796" stroke-width="5"/>
<path d="M40.128 15L43.872 3.32H48.64L52.512 15H49.44L46.432 5.4L47.28 5.72H45.168L46.032 5.4L43.104 15H40.128ZM43.184 12.296L44.08 9.864H48.512L49.408 12.296H43.184ZM53.8246 15V3.32H58.7046L62.5926 12.632H63.1526L62.8326 12.92V3.32H65.6166V15H60.7046L56.8166 5.688H56.2566L56.5766 5.4V15H53.8246ZM72.1409 15.32C71.0529 15.32 70.1355 15.1493 69.3889 14.808C68.6529 14.4667 68.0929 14.0027 67.7089 13.416C67.3355 12.8187 67.1489 12.136 67.1489 11.368H70.0289C70.0289 11.6453 70.1035 11.9013 70.2529 12.136C70.4129 12.36 70.6475 12.536 70.9569 12.664C71.2662 12.792 71.6609 12.856 72.1409 12.856C72.5569 12.856 72.9089 12.8027 73.1969 12.696C73.4955 12.5893 73.7195 12.44 73.8689 12.248C74.0289 12.056 74.1089 11.8267 74.1089 11.56C74.1089 11.2187 73.9649 10.9573 73.6769 10.776C73.3889 10.584 72.9035 10.4613 72.2209 10.408L71.4689 10.344C70.2635 10.2373 69.3035 9.85867 68.5889 9.208C67.8742 8.55733 67.5169 7.69333 67.5169 6.616C67.5169 5.848 67.6929 5.192 68.0449 4.648C68.4075 4.104 68.9142 3.688 69.5649 3.4C70.2155 3.112 70.9835 2.968 71.8689 2.968C72.8289 2.968 73.6395 3.128 74.3009 3.448C74.9729 3.768 75.4849 4.22133 75.8369 4.808C76.1889 5.384 76.3649 6.056 76.3649 6.824H73.4849C73.4849 6.568 73.4209 6.33333 73.2929 6.12C73.1649 5.90667 72.9782 5.74133 72.7329 5.624C72.4982 5.496 72.2102 5.432 71.8689 5.432C71.5489 5.432 71.2769 5.48533 71.0529 5.592C70.8395 5.688 70.6742 5.82667 70.5569 6.008C70.4502 6.18933 70.3969 6.392 70.3969 6.616C70.3969 6.91467 70.4982 7.17067 70.7009 7.384C70.9035 7.59733 71.2555 7.72533 71.7569 7.768L72.5089 7.832C73.3835 7.90667 74.1569 8.09867 74.8289 8.408C75.5009 8.70667 76.0289 9.11733 76.4129 9.64C76.7969 10.1627 76.9889 10.8027 76.9889 11.56C76.9889 12.3173 76.7915 12.9787 76.3969 13.544C76.0129 14.1093 75.4582 14.5467 74.7329 14.856C74.0182 15.1653 73.1542 15.32 72.1409 15.32ZM78.5598 15V3.32H81.5358V15H78.5598ZM92.6556 15.32C91.5996 15.32 90.693 15.1387 89.9356 14.776C89.1783 14.4027 88.5543 13.9173 88.0636 13.32C87.573 12.712 87.2103 12.056 86.9756 11.352C86.741 10.648 86.6236 9.96533 86.6236 9.304V8.952C86.6236 8.216 86.741 7.496 86.9756 6.792C87.221 6.07733 87.589 5.432 88.0796 4.856C88.581 4.28 89.205 3.82133 89.9516 3.48C90.6983 3.13867 91.573 2.968 92.5756 2.968C93.6423 2.968 94.5863 3.17067 95.4076 3.576C96.2396 3.97067 96.9063 4.53067 97.4076 5.256C97.909 5.97067 98.2023 6.80267 98.2876 7.752H95.3116C95.237 7.34667 95.077 6.99467 94.8316 6.696C94.5863 6.39733 94.2716 6.168 93.8876 6.008C93.5036 5.83733 93.0663 5.752 92.5756 5.752C92.117 5.752 91.701 5.832 91.3276 5.992C90.965 6.152 90.6556 6.38133 90.3996 6.68C90.1543 6.968 89.9623 7.32 89.8236 7.736C89.6956 8.152 89.6316 8.62133 89.6316 9.144C89.6316 9.66667 89.6956 10.136 89.8236 10.552C89.9623 10.968 90.1596 11.3253 90.4156 11.624C90.6823 11.9227 91.0023 12.152 91.3756 12.312C91.749 12.4613 92.1756 12.536 92.6556 12.536C93.4023 12.536 94.0316 12.3547 94.5436 11.992C95.0663 11.6293 95.381 11.144 95.4876 10.536H98.4636C98.3676 11.4107 98.0743 12.2107 97.5836 12.936C97.093 13.6613 96.4316 14.2427 95.5996 14.68C94.7676 15.1067 93.7863 15.32 92.6556 15.32ZM99.0998 15.96L102.428 2.52H105.436L102.108 15.96H99.0998ZM112.328 15.32C111.272 15.32 110.365 15.1387 109.608 14.776C108.85 14.4027 108.226 13.9173 107.736 13.32C107.245 12.712 106.882 12.056 106.648 11.352C106.413 10.648 106.296 9.96533 106.296 9.304V8.952C106.296 8.216 106.413 7.496 106.648 6.792C106.893 6.07733 107.261 5.432 107.752 4.856C108.253 4.28 108.877 3.82133 109.624 3.48C110.37 3.13867 111.245 2.968 112.248 2.968C113.314 2.968 114.258 3.17067 115.08 3.576C115.912 3.97067 116.578 4.53067 117.08 5.256C117.581 5.97067 117.874 6.80267 117.96 7.752H114.984C114.909 7.34667 114.749 6.99467 114.503 6.696C114.258 6.39733 113.944 6.168 113.56 6.008C113.176 5.83733 112.738 5.752 112.248 5.752C111.789 5.752 111.373 5.832 111 5.992C110.637 6.152 110.328 6.38133 110.072 6.68C109.826 6.968 109.634 7.32 109.496 7.736C109.368 8.152 109.304 8.62133 109.304 9.144C109.304 9.66667 109.368 10.136 109.496 10.552C109.634 10.968 109.832 11.3253 110.088 11.624C110.354 11.9227 110.674 12.152 111.048 12.312C111.421 12.4613 111.848 12.536 112.328 12.536C113.074 12.536 113.704 12.3547 114.216 11.992C114.738 11.6293 115.053 11.144 115.16 10.536H118.136C118.04 11.4107 117.746 12.2107 117.256 12.936C116.765 13.6613 116.104 14.2427 115.272 14.68C114.44 15.1067 113.458 15.32 112.328 15.32ZM122.004 13.592V5.4H124.596V13.592H122.004ZM119.22 10.68V8.312H127.38V10.68H119.22ZM131.566 13.592V5.4H134.158V13.592H131.566ZM128.782 10.68V8.312H136.942V10.68H128.782Z" fill="white"/>
</svg>
