<svg width="780" height="180" viewBox="0 0 780 180" fill="none" xmlns="http://www.w3.org/2000/svg">
<mask id="mask0_58_289" style="mask-type:alpha" maskUnits="userSpaceOnUse" x="0" y="0" width="781" height="180">
<rect width="780.004" height="180" fill="#2C2C2C"/>
</mask>
<g mask="url(#mask0_58_289)">
<rect width="780.004" height="180" fill="#2C2C2C"/>
<rect x="268.829" y="-142.923" width="141.901" height="329.402" transform="rotate(45 268.829 -142.923)" fill="#27083C"/>
<rect x="0.00195312" width="141.901" height="180" fill="#27083C"/>
<path d="M0.00195312 142.123H780.004V180H0.00195312V142.123Z" fill="#27083C"/>
<path d="M157.954 134.268V116.092H178.562C182.061 116.092 184.663 115.196 186.37 113.404C188.077 111.612 188.93 109.009 188.93 105.596C188.93 102.183 188.077 99.6227 186.37 97.916C184.663 96.124 182.061 95.228 178.562 95.228H157.954V81.148H177.794C184.365 81.148 190.253 81.9587 195.458 83.58C200.663 85.116 204.759 87.676 207.746 91.26C210.733 94.844 212.226 99.6227 212.226 105.596V107.388C212.226 113.02 210.903 117.841 208.258 121.852C205.613 125.863 201.73 128.935 196.61 131.068C191.49 133.201 185.218 134.268 177.794 134.268H157.954ZM137.474 134.268V39.292H160.514V134.268H137.474ZM157.954 91.644V77.564H175.106C178.605 77.564 181.122 76.7107 182.658 75.004C184.279 73.212 185.09 70.7373 185.09 67.58C185.09 64.3373 184.279 61.8627 182.658 60.156C181.122 58.364 178.605 57.468 175.106 57.468H157.954V39.292H174.082C185.005 39.292 193.453 41.596 199.426 46.204C205.399 50.7267 208.386 57.212 208.386 65.66V67.58C208.386 73.468 206.85 78.204 203.778 81.788C200.791 85.2867 196.695 87.804 191.49 89.34C186.37 90.876 180.567 91.644 174.082 91.644H157.954ZM226.599 133.5V40.06H249.895V133.5H226.599ZM218.663 56.956V40.06H249.895V56.956H218.663ZM290.755 135.804C282.734 135.804 276.504 133.201 272.067 127.996C267.715 122.705 265.539 114.641 265.539 103.804V62.844H288.835V104.444C288.835 107.601 289.774 110.161 291.651 112.124C293.528 114.087 296.046 115.068 299.203 115.068C302.36 115.068 304.92 114.087 306.883 112.124C308.846 110.161 309.827 107.516 309.827 104.188V62.844H333.123V133.5H314.691V103.804H315.971C315.971 111.057 315.032 117.073 313.155 121.852C311.363 126.545 308.675 130.044 305.091 132.348C301.507 134.652 297.07 135.804 291.779 135.804H290.755ZM383.477 136.06C377.504 136.06 372.213 135.036 367.605 132.988C362.997 130.94 359.114 128.167 355.957 124.668C352.8 121.169 350.368 117.244 348.661 112.892C347.04 108.54 346.229 104.06 346.229 99.452V96.892C346.229 92.1133 347.04 87.548 348.661 83.196C350.368 78.7587 352.757 74.8333 355.829 71.42C358.986 68.0067 362.826 65.3187 367.349 63.356C371.872 61.308 376.992 60.284 382.709 60.284C390.304 60.284 396.746 61.9907 402.037 65.404C407.328 68.8173 411.381 73.34 414.197 78.972C417.013 84.5187 418.421 90.5773 418.421 97.148V104.572H355.957V92.028H404.981L396.917 97.66C396.917 93.6493 396.362 90.2787 395.253 87.548C394.229 84.732 392.65 82.5987 390.517 81.148C388.469 79.6973 385.866 78.972 382.709 78.972C379.637 78.972 376.949 79.6973 374.645 81.148C372.426 82.5133 370.72 84.6467 369.525 87.548C368.33 90.364 367.733 93.948 367.733 98.3C367.733 102.225 368.288 105.639 369.397 108.54C370.506 111.356 372.213 113.532 374.517 115.068C376.821 116.604 379.808 117.372 383.477 117.372C386.72 117.372 389.365 116.817 391.413 115.708C393.546 114.599 395.04 113.105 395.893 111.228H417.141C416.117 116.007 414.069 120.273 410.997 124.028C408.01 127.783 404.17 130.727 399.477 132.86C394.869 134.993 389.536 136.06 383.477 136.06ZM458.732 135.804C448.492 135.804 440.428 133.713 434.54 129.532C428.652 125.265 425.495 119.292 425.068 111.612H445.548C445.889 113.745 447.212 115.58 449.516 117.116C451.82 118.652 455.063 119.42 459.244 119.42C462.231 119.42 464.791 118.993 466.924 118.14C469.143 117.201 470.252 115.708 470.252 113.66C470.252 111.868 469.399 110.417 467.692 109.308C465.985 108.113 462.871 107.303 458.348 106.876L453.484 106.364C444.439 105.425 437.783 102.951 433.516 98.94C429.249 94.9293 427.116 89.8947 427.116 83.836C427.116 78.6307 428.396 74.364 430.956 71.036C433.516 67.6227 437.057 65.0627 441.58 63.356C446.103 61.6493 451.265 60.796 457.068 60.796C466.54 60.796 474.177 62.8867 479.98 67.068C485.783 71.164 488.855 77.0947 489.196 84.86H468.716C468.375 82.7267 467.223 80.9347 465.26 79.484C463.297 77.948 460.481 77.18 456.812 77.18C454.167 77.18 451.991 77.6493 450.284 78.588C448.663 79.5267 447.852 80.8493 447.852 82.556C447.852 84.348 448.62 85.6707 450.156 86.524C451.777 87.3773 454.337 88.0173 457.836 88.444L462.7 88.956C471.745 89.8947 478.7 92.412 483.564 96.508C488.513 100.519 490.988 105.809 490.988 112.38C490.988 117.244 489.665 121.425 487.02 124.924C484.46 128.423 480.748 131.111 475.884 132.988C471.105 134.865 465.388 135.804 458.732 135.804ZM552.751 133.5L531.887 100.476H522.415L550.063 62.844H574.383L548.143 98.3V87.036L578.735 133.5H552.751ZM502.575 133.5V40.06H525.871V133.5H502.575ZM586.212 161.66V142.204H602.468C604.431 142.204 606.095 141.948 607.46 141.436C608.825 140.924 609.935 140.071 610.788 138.876C611.641 137.767 612.281 136.188 612.708 134.14L628.58 62.844H650.596L632.036 138.62C630.671 144.423 628.751 148.988 626.276 152.316C623.887 155.729 620.559 158.119 616.292 159.484C612.111 160.935 606.649 161.66 599.908 161.66H586.212ZM608.612 131.964V114.044H623.46V131.964H608.612ZM597.86 131.964L577.252 62.844H600.548L619.876 131.964H597.86Z" fill="white"/>
</g>
</svg>
