<svg width="780" height="220" viewBox="0 0 780 220" fill="none" xmlns="http://www.w3.org/2000/svg">
<rect width="780.004" height="219.554" fill="#492A8B"/>
<path d="M181.115 151.777H144.143V67.7539H184.338C187.697 67.7539 190.822 67.9492 193.713 68.3398C196.604 68.7305 199.377 69.4141 202.033 70.3906C204.689 71.3281 206.955 72.5391 208.83 74.0234C210.705 75.4688 212.189 77.3438 213.283 79.6484C214.416 81.9531 214.982 84.5898 214.982 87.5586C214.982 92.5586 212.971 96.5039 208.947 99.3945C204.924 102.246 198.4 103.867 189.377 104.258V105.723C201.057 105.059 209.631 106.562 215.1 110.234C220.607 113.906 223.361 119.316 223.361 126.465C223.361 129.707 222.834 132.637 221.779 135.254C220.764 137.832 219.436 140 217.795 141.758C216.193 143.477 214.162 144.98 211.701 146.27C209.279 147.52 206.877 148.496 204.494 149.199C202.15 149.863 199.475 150.41 196.467 150.84C193.459 151.23 190.822 151.484 188.557 151.602C186.291 151.719 183.811 151.777 181.115 151.777ZM172.619 88.2031V100.566H179.533C183.166 100.566 185.881 100.078 187.678 99.1016C189.475 98.125 190.373 96.5234 190.373 94.2969C190.373 92.0703 189.494 90.5078 187.736 89.6094C185.979 88.6719 183.244 88.2031 179.533 88.2031H172.619ZM172.619 114.453V127.754H182.697C187.268 127.754 190.49 127.168 192.365 125.996C194.24 124.785 195.178 123.066 195.178 120.84C195.178 116.582 191.604 114.453 184.455 114.453H172.619ZM255.295 151.777H226.994V61.7773H255.295V151.777ZM282.365 153.242C275.217 153.242 269.729 150.684 265.9 145.566C262.072 140.449 260.158 132.207 260.158 120.84V79.7656H288.225V105.312C288.225 107.227 288.244 108.809 288.283 110.059C288.322 111.309 288.42 112.734 288.576 114.336C288.771 115.898 289.045 117.188 289.396 118.203C289.787 119.18 290.275 120.137 290.861 121.074C291.486 121.973 292.287 122.637 293.264 123.066C294.24 123.496 295.373 123.711 296.662 123.711C297.756 123.711 298.693 123.594 299.475 123.359C300.256 123.086 301.076 122.48 301.936 121.543C302.834 120.566 303.537 119.238 304.045 117.559C304.592 115.879 305.041 113.535 305.393 110.527C305.783 107.48 305.979 103.828 305.979 99.5703V79.7656H334.104V151.777H305.627L310.197 110.879H308.967C308.146 118.809 307.092 125.391 305.803 130.625C304.553 135.859 302.873 140.215 300.764 143.691C298.654 147.129 296.115 149.59 293.146 151.074C290.217 152.52 286.623 153.242 282.365 153.242ZM378.283 153.242C372.268 153.242 366.701 152.285 361.584 150.371C356.467 148.418 352.17 145.762 348.693 142.402C345.256 139.043 342.561 135.059 340.607 130.449C338.654 125.84 337.678 120.918 337.678 115.684C337.678 110.566 338.576 105.723 340.373 101.152C342.17 96.582 344.67 92.6172 347.873 89.2578C351.076 85.8984 355.002 83.2422 359.65 81.2891C364.338 79.3359 369.416 78.3594 374.885 78.3594C379.494 78.3594 383.83 79.043 387.893 80.4102C391.994 81.7383 395.607 83.6523 398.732 86.1523C401.857 88.6523 404.318 91.8555 406.115 95.7617C407.951 99.668 408.869 104.023 408.869 108.828C408.869 111.445 408.557 114.473 407.932 117.91L363.518 115.918C363.947 119.863 365.744 122.793 368.908 124.707C372.111 126.582 376.115 127.52 380.92 127.52C389.67 127.52 397.346 125.156 403.947 120.43H405.529V146.973C402.521 148.809 398.635 150.312 393.869 151.484C389.104 152.656 383.908 153.242 378.283 153.242ZM364.455 109.414L384.729 108.359C384.143 106.562 383.01 105.156 381.33 104.141C379.689 103.086 377.678 102.559 375.295 102.559C372.951 102.559 370.803 103.145 368.85 104.316C366.896 105.449 365.432 107.148 364.455 109.414ZM440.686 153.242C429.787 153.242 420.158 151.152 411.799 146.973V117.91H413.615C421.232 125.527 430.549 129.336 441.564 129.336C443.752 129.336 445.471 129.102 446.721 128.633C448.01 128.164 448.654 127.52 448.654 126.699C448.654 126.152 448.107 125.703 447.014 125.352C445.92 124.961 444.475 124.648 442.678 124.414C440.92 124.18 438.908 123.848 436.643 123.418C434.377 122.949 432.053 122.441 429.67 121.895C427.287 121.348 424.963 120.508 422.697 119.375C420.432 118.242 418.4 116.934 416.604 115.449C414.846 113.926 413.42 111.953 412.326 109.531C411.232 107.109 410.686 104.355 410.686 101.27C410.686 97.5195 411.564 94.1602 413.322 91.1914C415.119 88.1836 417.521 85.7617 420.529 83.9258C423.537 82.0898 426.916 80.7031 430.666 79.7656C434.455 78.8281 438.479 78.3594 442.736 78.3594C452.932 78.3594 462.541 80.7617 471.564 85.5664V111.113H469.982C466.467 108.027 462.131 105.566 456.975 103.73C451.818 101.855 446.604 100.918 441.33 100.918C436.291 100.918 433.771 101.875 433.771 103.789C433.771 104.531 434.533 105.156 436.057 105.664C437.619 106.133 439.631 106.543 442.092 106.895C444.553 107.246 447.268 107.656 450.236 108.125C453.244 108.594 456.232 109.316 459.201 110.293C462.209 111.27 464.943 112.461 467.404 113.867C469.865 115.273 471.857 117.246 473.381 119.785C474.943 122.285 475.725 125.195 475.725 128.516C475.725 134.141 474.182 138.848 471.096 142.637C468.01 146.387 463.908 149.102 458.791 150.781C453.674 152.422 447.639 153.242 440.686 153.242ZM507.6 151.777H479.299V61.7773H507.717L503.791 116.27H504.963C505.744 110.996 506.877 106.133 508.361 101.68C509.846 97.2266 511.369 93.7109 512.932 91.1328C514.533 88.5547 516.076 86.3672 517.561 84.5703C519.045 82.7344 520.256 81.4648 521.193 80.7617L522.6 79.7656H553.83V81.8164L532.209 105.605L555.588 149.727V151.777H524.65L513.107 123.477L507.6 129.453V151.777ZM587.58 171.23C582.814 171.23 578.049 170.469 573.283 168.945V144.688C577.619 146.133 580.822 146.855 582.893 146.855C584.885 146.855 586.76 146.562 588.518 145.977C590.314 145.391 591.799 144.727 592.971 143.984C594.143 143.203 595.686 142.402 597.6 141.582C599.514 140.723 601.525 140.117 603.635 139.766C605.158 139.453 607.111 139.297 609.494 139.297V138.125H575.568L556.584 79.7656H586.232L592.854 103.906C595.627 114.062 597.014 122.734 597.014 129.922H598.01C598.01 122.422 599.357 113.75 602.053 103.906L608.791 79.7656H638.439L618.869 143.516C617.736 147.148 616.467 150.41 615.061 153.301C613.693 156.191 612.326 158.594 610.959 160.508C609.631 162.422 608.107 164.062 606.389 165.43C604.709 166.836 603.146 167.891 601.701 168.594C600.295 169.336 598.674 169.902 596.838 170.293C595.041 170.723 593.479 170.977 592.15 171.055C590.861 171.172 589.338 171.23 587.58 171.23Z" fill="white"/>
</svg>
