<svg width="179" height="80" viewBox="0 0 179 80" fill="none" xmlns="http://www.w3.org/2000/svg">
<path d="M148.75 23.9893C150.761 22.8283 153.239 22.8283 155.25 23.9893L172.9 34.1807C174.911 35.3418 176.15 37.4873 176.15 39.8096V60.1904C176.15 62.5127 174.911 64.6582 172.9 65.8193L155.25 76.0107C153.239 77.1717 150.761 77.1717 148.75 76.0107L131.1 65.8193C129.089 64.6582 127.85 62.5127 127.85 60.1904V39.8096C127.85 37.4873 129.089 35.3418 131.1 34.1807L148.75 23.9893Z" fill="black" stroke="#050505" stroke-width="5"/>
<path d="M123.75 23.9893C125.761 22.8283 128.239 22.8283 130.25 23.9893L147.9 34.1807C149.911 35.3418 151.15 37.4873 151.15 39.8096V60.1904C151.15 62.5127 149.911 64.6582 147.9 65.8193L130.25 76.0107C128.239 77.1717 125.761 77.1717 123.75 76.0107L106.1 65.8193C104.089 64.6582 102.85 62.5127 102.85 60.1904V39.8096C102.85 37.4873 104.089 35.3418 106.1 34.1807L123.75 23.9893Z" fill="black" stroke="#050505" stroke-width="5"/>
<path d="M98.75 23.9893C100.761 22.8283 103.239 22.8283 105.25 23.9893L122.9 34.1807C124.911 35.3418 126.15 37.4873 126.15 39.8096V60.1904C126.15 62.5127 124.911 64.6582 122.9 65.8193L105.25 76.0107C103.239 77.1717 100.761 77.1717 98.75 76.0107L81.0996 65.8193C79.0885 64.6582 77.8496 62.5127 77.8496 60.1904V39.8096C77.8496 37.4873 79.0885 35.3418 81.0996 34.1807L98.75 23.9893Z" fill="black" stroke="#050505" stroke-width="5"/>
<path d="M73.75 23.9893C75.761 22.8283 78.239 22.8283 80.25 23.9893L97.9004 34.1807C99.9115 35.3418 101.15 37.4873 101.15 39.8096V60.1904C101.15 62.5127 99.9115 64.6582 97.9004 65.8193L80.25 76.0107C78.239 77.1717 75.761 77.1717 73.75 76.0107L56.0996 65.8193C54.0885 64.6582 52.8496 62.5127 52.8496 60.1904V39.8096C52.8496 37.4873 54.0885 35.3418 56.0996 34.1807L73.75 23.9893Z" fill="black" stroke="#050505" stroke-width="5"/>
<path d="M48.75 23.9893C50.761 22.8283 53.239 22.8283 55.25 23.9893L72.9004 34.1807C74.9115 35.3418 76.1504 37.4873 76.1504 39.8096V60.1904C76.1504 62.5127 74.9115 64.6582 72.9004 65.8193L55.25 76.0107C53.239 77.1717 50.761 77.1717 48.75 76.0107L31.0996 65.8193C29.0885 64.6582 27.8496 62.5127 27.8496 60.1904V39.8096C27.8496 37.4873 29.0885 35.3418 31.0996 34.1807L48.75 23.9893Z" fill="#F3BD0F" stroke="#EEB809" stroke-width="5"/>
<path d="M23.75 23.9893C25.761 22.8283 28.239 22.8283 30.25 23.9893L47.9004 34.1807C49.9115 35.3418 51.1504 37.4873 51.1504 39.8096V60.1904C51.1504 62.5127 49.9115 64.6582 47.9004 65.8193L30.25 76.0107C28.239 77.1717 25.761 77.1717 23.75 76.0107L6.09961 65.8193C4.0885 64.6582 2.84961 62.5127 2.84961 60.1904V39.8096C2.84961 37.4873 4.0885 35.3418 6.09961 34.1807L23.75 23.9893Z" fill="#F3BD0F" stroke="#EEB809" stroke-width="5"/>
<path d="M71.64 15.32C70.584 15.32 69.6773 15.1387 68.92 14.776C68.1627 14.4027 67.5387 13.9173 67.048 13.32C66.5573 12.712 66.1947 12.056 65.96 11.352C65.7253 10.648 65.608 9.96533 65.608 9.304V8.952C65.608 8.216 65.7253 7.496 65.96 6.792C66.2053 6.07733 66.5733 5.432 67.064 4.856C67.5653 4.28 68.1893 3.82133 68.936 3.48C69.6827 3.13867 70.5573 2.968 71.56 2.968C72.6267 2.968 73.5707 3.17067 74.392 3.576C75.224 3.97067 75.8907 4.53067 76.392 5.256C76.8933 5.97067 77.1867 6.80267 77.272 7.752H74.296C74.2213 7.34667 74.0613 6.99467 73.816 6.696C73.5707 6.39733 73.256 6.168 72.872 6.008C72.488 5.83733 72.0507 5.752 71.56 5.752C71.1013 5.752 70.6853 5.832 70.312 5.992C69.9493 6.152 69.64 6.38133 69.384 6.68C69.1387 6.968 68.9467 7.32 68.808 7.736C68.68 8.152 68.616 8.62133 68.616 9.144C68.616 9.66667 68.68 10.136 68.808 10.552C68.9467 10.968 69.144 11.3253 69.4 11.624C69.6667 11.9227 69.9867 12.152 70.36 12.312C70.7333 12.4613 71.16 12.536 71.64 12.536C72.3867 12.536 73.016 12.3547 73.528 11.992C74.0507 11.6293 74.3653 11.144 74.472 10.536H77.448C77.352 11.4107 77.0587 12.2107 76.568 12.936C76.0773 13.6613 75.416 14.2427 74.584 14.68C73.752 15.1067 72.7707 15.32 71.64 15.32ZM79.0121 15V3.32H81.9241V15H79.0121ZM78.0201 5.432V3.32H81.9241V5.432H78.0201ZM88.4716 15.32C87.693 15.32 86.9996 15.2027 86.3916 14.968C85.7836 14.7333 85.2663 14.408 84.8396 13.992C84.4236 13.576 84.1036 13.096 83.8796 12.552C83.6663 12.008 83.5596 11.4267 83.5596 10.808V10.424C83.5596 9.784 83.6716 9.18667 83.8956 8.632C84.1303 8.07733 84.461 7.592 84.8876 7.176C85.3143 6.76 85.8316 6.43467 86.4396 6.2C87.0476 5.96533 87.725 5.848 88.4716 5.848C89.229 5.848 89.9063 5.96533 90.5036 6.2C91.1116 6.43467 91.629 6.76 92.0556 7.176C92.4823 7.592 92.8076 8.07733 93.0316 8.632C93.2663 9.18667 93.3836 9.784 93.3836 10.424V10.808C93.3836 11.4267 93.2716 12.008 93.0476 12.552C92.8343 13.096 92.5143 13.576 92.0876 13.992C91.6716 14.408 91.1596 14.7333 90.5516 14.968C89.9436 15.2027 89.2503 15.32 88.4716 15.32ZM88.4716 12.888C88.9196 12.888 89.2876 12.792 89.5756 12.6C89.8743 12.408 90.0983 12.1413 90.2476 11.8C90.397 11.448 90.4716 11.0533 90.4716 10.616C90.4716 10.1573 90.3916 9.75733 90.2316 9.416C90.0823 9.064 89.8583 8.78667 89.5596 8.584C89.261 8.38133 88.8983 8.28 88.4716 8.28C88.045 8.28 87.6823 8.38133 87.3836 8.584C87.085 8.78667 86.8556 9.064 86.6956 9.416C86.5463 9.75733 86.4716 10.1573 86.4716 10.616C86.4716 11.0533 86.5463 11.448 86.6956 11.8C86.845 12.1413 87.069 12.408 87.3676 12.6C87.6663 12.792 88.0343 12.888 88.4716 12.888ZM97.9379 15.288C96.9352 15.288 96.1565 14.9627 95.6019 14.312C95.0579 13.6507 94.7859 12.6427 94.7859 11.288V6.168H97.6979V11.368C97.6979 11.7627 97.8152 12.0827 98.0499 12.328C98.2845 12.5733 98.5992 12.696 98.9939 12.696C99.3885 12.696 99.7085 12.5733 99.9539 12.328C100.199 12.0827 100.322 11.752 100.322 11.336V6.168H103.234V15H100.93V11.288H101.09C101.09 12.1947 100.973 12.9467 100.738 13.544C100.514 14.1307 100.178 14.568 99.7299 14.856C99.2819 15.144 98.7272 15.288 98.0659 15.288H97.9379ZM109.016 15.288C108.397 15.288 107.832 15.176 107.32 14.952C106.819 14.728 106.381 14.4187 106.008 14.024C105.645 13.6187 105.363 13.144 105.16 12.6C104.968 12.056 104.872 11.464 104.872 10.824V10.44C104.872 9.8 104.963 9.208 105.144 8.664C105.336 8.10933 105.608 7.62933 105.96 7.224C106.312 6.808 106.739 6.488 107.24 6.264C107.741 6.02933 108.301 5.912 108.92 5.912C109.635 5.912 110.243 6.072 110.744 6.392C111.256 6.70133 111.645 7.15467 111.912 7.752C112.189 8.34933 112.339 9.07467 112.36 9.928L111.688 9.432V3.32H114.6V15H112.296V11.416H112.616C112.595 12.2053 112.435 12.8933 112.136 13.48C111.837 14.056 111.421 14.504 110.888 14.824C110.365 15.1333 109.741 15.288 109.016 15.288ZM109.8 12.888C110.152 12.888 110.472 12.808 110.76 12.648C111.059 12.488 111.299 12.2533 111.48 11.944C111.661 11.6347 111.752 11.2613 111.752 10.824V10.28C111.752 9.85333 111.656 9.496 111.464 9.208C111.283 8.92 111.043 8.70133 110.744 8.552C110.456 8.392 110.141 8.312 109.8 8.312C109.416 8.312 109.069 8.41333 108.76 8.616C108.461 8.808 108.221 9.08 108.04 9.432C107.869 9.77333 107.784 10.1733 107.784 10.632C107.784 11.0907 107.869 11.4907 108.04 11.832C108.221 12.1627 108.461 12.424 108.76 12.616C109.069 12.7973 109.416 12.888 109.8 12.888Z" fill="white"/>
</svg>
