<svg width="4000" height="651" viewBox="0 0 4000 651" fill="none" xmlns="http://www.w3.org/2000/svg">
<rect width="4000" height="651" fill="#2C2C2C" fill-opacity="0.1"/>
<rect x="118.204" y="173.5" width="260" height="260" rx="130" fill="#F7374F"/>
<mask id="mask0_59_347" style="mask-type:alpha" maskUnits="userSpaceOnUse" x="158" y="213" width="181" height="181">
<rect x="158.204" y="213.5" width="180" height="180" fill="#D9D9D9"/>
</mask>
<g mask="url(#mask0_59_347)">
<path d="M219.142 371.187C212.392 371.187 206.36 369.063 201.048 364.813C195.735 360.563 192.079 355.125 190.079 348.5L180.704 318.5H315.704L306.329 348.5C304.204 355.125 300.517 360.563 295.267 364.813C290.017 369.063 284.017 371.187 277.267 371.187H219.142ZM197.204 303.5C198.079 300.375 199.204 297.344 200.579 294.406C201.954 291.469 203.704 288.75 205.829 286.25C205.079 284.875 204.454 283.375 203.954 281.75C203.454 280.125 203.204 278.438 203.204 276.688C203.204 269.188 205.61 262.719 210.423 257.281C215.235 251.844 221.329 248.625 228.704 247.625C230.704 244 233.454 241.156 236.954 239.094C240.454 237.031 244.204 236 248.204 236C252.204 236 255.985 237.031 259.548 239.094C263.11 241.156 265.892 244 267.892 247.625C272.892 248.25 277.298 250.031 281.11 252.969C284.923 255.906 287.892 259.5 290.017 263.75L302.954 243.313L315.704 251.375L292.079 288.312C293.704 290.687 295.11 293.125 296.298 295.625C297.485 298.125 298.454 300.75 299.204 303.5H197.204ZM223.829 280.812L248.204 272.75L272.392 280.812C273.767 281.312 275.079 281.125 276.329 280.25C277.579 279.375 278.204 278.188 278.204 276.688C278.204 273.063 277.017 269.938 274.642 267.313C272.267 264.688 269.267 263.125 265.642 262.625L258.329 261.5L254.579 254.938C253.954 253.688 253.079 252.719 251.954 252.031C250.829 251.344 249.579 251 248.204 251C246.829 251 245.548 251.344 244.36 252.031C243.173 252.719 242.267 253.688 241.642 254.938L238.079 261.5L230.579 262.625C226.954 263.125 223.985 264.688 221.673 267.313C219.36 269.938 218.204 273.063 218.204 276.688C218.204 278.188 218.798 279.375 219.985 280.25C221.173 281.125 222.454 281.312 223.829 280.812Z" fill="white"/>
</g>
<mask id="path-4-outside-1_59_347" maskUnits="userSpaceOnUse" x="434.563" y="207.5" width="993" height="185" fill="black">
<rect fill="white" x="434.563" y="207.5" width="993" height="185"/>
<path d="M562.843 367.94C556.923 370.5 550.043 372.34 542.203 373.46C534.363 374.58 527.083 375.14 520.363 375.14C498.603 375.14 481.563 369.46 469.243 358.1C456.923 346.74 450.763 329.3 450.763 305.78C450.763 281.78 457.243 263.86 470.203 252.02C483.163 240.02 501.403 234.02 524.923 234.02C536.123 234.02 547.803 235.54 559.963 238.58C559.963 241.78 559.643 246.58 559.003 252.98C558.363 259.22 557.723 263.62 557.083 266.18H541.963C530.923 266.18 522.203 266.42 515.803 266.9C509.563 267.22 505.803 267.94 504.523 269.06C502.123 271.3 500.283 275.86 499.003 282.74C497.723 289.46 497.083 295.94 497.083 302.18C497.083 313.06 498.443 321.46 501.163 327.38C503.883 333.14 507.323 336.98 511.483 338.9C515.483 340.82 522.123 341.78 531.403 341.78C538.763 341.78 548.363 341.14 560.203 339.86L562.843 367.94ZM629.729 375.62C610.529 375.62 596.129 371.14 586.529 362.18C577.089 353.06 572.369 338.74 572.369 319.22C572.369 308.5 573.329 299.14 575.249 291.14C577.329 282.98 579.809 277.3 582.689 274.1C586.369 269.94 593.089 266.5 602.849 263.78C612.77 261.06 622.05 259.7 630.69 259.7C651.33 259.7 666.05 264.1 674.85 272.9C683.65 281.7 688.05 295.78 688.05 315.14C688.05 335.94 683.33 351.22 673.89 360.98C664.45 370.74 649.729 375.62 629.729 375.62ZM630.449 347.54C636.689 347.54 640.769 345.38 642.689 341.06C644.61 336.58 645.57 328.74 645.57 317.54C645.57 309.7 645.17 303.7 644.369 299.54C643.569 295.22 642.049 292.1 639.809 290.18C637.73 288.1 634.45 287.06 629.969 287.06C623.569 287.06 619.889 287.62 618.929 288.74C617.649 289.86 616.609 293.38 615.81 299.3C615.009 305.22 614.609 311.38 614.609 317.78C614.609 328.66 615.649 336.34 617.73 340.82C619.97 345.3 624.209 347.54 630.449 347.54ZM810.515 269.06C811.955 270.82 812.995 275.22 813.635 282.26C814.435 289.3 814.835 300.02 814.835 314.42V372.5H773.795V314.9V305.06C773.795 299.94 773.395 296.74 772.595 295.46C771.315 293.86 768.355 293.06 763.715 293.06C761.475 293.06 759.795 293.14 758.675 293.3C754.195 293.46 749.555 294.5 744.755 296.42V372.5H703.715V262.1H737.075L741.635 280.58C753.155 266.66 766.915 259.7 782.915 259.7C788.675 259.7 794.035 260.5 798.995 262.1C804.115 263.7 807.955 266.02 810.515 269.06ZM900.753 343.7C904.753 343.7 912.193 343.3 923.073 342.5C924.513 342.5 927.153 342.34 930.993 342.02L934.593 366.74C922.273 372.5 906.273 375.38 886.593 375.38C868.193 375.38 854.033 370.74 844.113 361.46C834.353 352.18 829.473 338.18 829.473 319.46C829.473 309.86 830.673 300.58 833.073 291.62C835.633 282.66 838.513 276.42 841.713 272.9C845.073 269.38 851.313 266.34 860.433 263.78C869.553 261.22 878.593 259.94 887.553 259.94C901.953 259.94 912.753 262.5 919.953 267.62C927.153 272.74 931.873 279.86 934.113 288.98C936.353 297.94 937.473 310.02 937.473 325.22C926.593 325.86 915.953 326.18 905.553 326.18H871.473C871.473 331.3 872.513 335.14 874.593 337.7C876.833 340.26 879.953 341.94 883.953 342.74C887.953 343.38 893.553 343.7 900.753 343.7ZM873.873 288.5C872.913 288.98 872.193 291.06 871.713 294.74C871.233 298.42 870.913 302.58 870.753 307.22H883.233C890.753 307.22 896.193 307.14 899.553 306.98C899.553 299.3 898.433 293.86 896.193 290.66C894.113 287.46 890.433 285.86 885.153 285.86C880.833 285.86 877.073 286.74 873.873 288.5ZM972.078 316.1L944.478 262.1H984.318L1004.24 304.82L1024.4 262.1H1064L1036.64 316.1L1066.64 372.5H1026.56L1004.24 326.9L981.918 372.5H941.838L972.078 316.1ZM1129.42 375.62C1110.22 375.62 1095.82 371.14 1086.22 362.18C1076.78 353.06 1072.06 338.74 1072.06 319.22C1072.06 308.5 1073.02 299.14 1074.94 291.14C1077.02 282.98 1079.5 277.3 1082.38 274.1C1086.06 269.94 1092.78 266.5 1102.54 263.78C1112.46 261.06 1121.74 259.7 1130.38 259.7C1151.02 259.7 1165.74 264.1 1174.54 272.9C1183.34 281.7 1187.74 295.78 1187.74 315.14C1187.74 335.94 1183.02 351.22 1173.58 360.98C1164.14 370.74 1149.42 375.62 1129.42 375.62ZM1130.14 347.54C1136.38 347.54 1140.46 345.38 1142.38 341.06C1144.3 336.58 1145.26 328.74 1145.26 317.54C1145.26 309.7 1144.86 303.7 1144.06 299.54C1143.26 295.22 1141.74 292.1 1139.5 290.18C1137.42 288.1 1134.14 287.06 1129.66 287.06C1123.26 287.06 1119.58 287.62 1118.62 288.74C1117.34 289.86 1116.3 293.38 1115.5 299.3C1114.7 305.22 1114.3 311.38 1114.3 317.78C1114.3 328.66 1115.34 336.34 1117.42 340.82C1119.66 345.3 1123.9 347.54 1130.14 347.54ZM1165.9 225.14C1166.06 225.94 1166.14 227.14 1166.14 228.74C1166.14 234.5 1164.3 239.46 1160.62 243.62C1157.1 247.78 1152.14 249.86 1145.74 249.86C1143.02 249.86 1140.38 249.54 1137.82 248.9C1135.26 248.1 1132.06 247.06 1128.22 245.78C1122.3 243.38 1117.74 242.18 1114.54 242.18C1111.82 242.18 1109.98 242.74 1109.02 243.86C1108.06 244.98 1107.58 246.58 1107.58 248.66H1093.66L1093.42 245.78C1093.42 240.18 1095.1 235.14 1098.46 230.66C1101.82 226.18 1106.94 223.94 1113.82 223.94C1116.38 223.94 1118.78 224.26 1121.02 224.9C1123.26 225.38 1126.14 226.26 1129.66 227.54C1135.9 229.94 1141.02 231.14 1145.02 231.14C1149.66 231.14 1151.98 229.14 1151.98 225.14H1165.9ZM1270.36 343.7C1274.36 343.7 1281.8 343.3 1292.68 342.5C1294.12 342.5 1296.76 342.34 1300.6 342.02L1304.2 366.74C1291.88 372.5 1275.88 375.38 1256.2 375.38C1237.8 375.38 1223.64 370.74 1213.72 361.46C1203.96 352.18 1199.08 338.18 1199.08 319.46C1199.08 309.86 1200.28 300.58 1202.68 291.62C1205.24 282.66 1208.12 276.42 1211.32 272.9C1214.68 269.38 1220.92 266.34 1230.04 263.78C1239.16 261.22 1248.2 259.94 1257.16 259.94C1271.56 259.94 1282.36 262.5 1289.56 267.62C1296.76 272.74 1301.48 279.86 1303.72 288.98C1305.96 297.94 1307.08 310.02 1307.08 325.22C1296.2 325.86 1285.56 326.18 1275.16 326.18H1241.08C1241.08 331.3 1242.12 335.14 1244.2 337.7C1246.44 340.26 1249.56 341.94 1253.56 342.74C1257.56 343.38 1263.16 343.7 1270.36 343.7ZM1243.48 288.5C1242.52 288.98 1241.8 291.06 1241.32 294.74C1240.84 298.42 1240.52 302.58 1240.36 307.22H1252.84C1260.36 307.22 1265.8 307.14 1269.16 306.98C1269.16 299.3 1268.04 293.86 1265.8 290.66C1263.72 287.46 1260.04 285.86 1254.76 285.86C1250.44 285.86 1246.68 286.74 1243.48 288.5ZM1410.81 335.06C1410.81 349.3 1406.25 359.54 1397.13 365.78C1388.17 372.02 1375.37 375.14 1358.73 375.14C1347.05 375.14 1333.61 373.46 1318.41 370.1C1318.73 366.9 1319.45 362.34 1320.57 356.42C1321.85 350.34 1322.89 345.7 1323.69 342.5C1329.45 343.46 1335.85 344.26 1342.89 344.9C1349.93 345.38 1355.93 345.62 1360.89 345.62C1365.21 345.62 1367.85 345.38 1368.81 344.9C1368.97 344.74 1369.13 344.34 1369.29 343.7C1369.61 342.9 1369.77 342.1 1369.77 341.3C1369.77 338.1 1367.77 335.94 1363.77 334.82C1362.49 334.5 1357.61 333.14 1349.13 330.74C1340.65 328.34 1333.69 324.02 1328.25 317.78C1322.97 311.38 1320.33 303.46 1320.33 294.02C1320.33 289.06 1321.45 283.54 1323.69 277.46C1325.93 271.38 1328.33 267.54 1330.89 265.94C1332.81 264.66 1337.45 263.38 1344.81 262.1C1352.17 260.66 1358.97 259.94 1365.21 259.94C1378.49 259.94 1391.85 260.9 1405.29 262.82C1405.29 265.7 1404.89 270.58 1404.09 277.46C1403.29 284.18 1402.57 288.42 1401.93 290.18C1388.33 288.42 1377.37 287.54 1369.05 287.54C1364.73 287.54 1361.93 287.78 1360.65 288.26C1360.33 288.42 1360.01 288.9 1359.69 289.7C1359.37 290.34 1359.21 291.22 1359.21 292.34C1359.21 294.58 1359.93 296.18 1361.37 297.14C1362.81 298.26 1366.57 299.62 1372.65 301.22C1379.85 303.3 1386.01 305.46 1391.13 307.7C1396.41 309.94 1400.97 313.3 1404.81 317.78C1408.81 322.26 1410.81 328.02 1410.81 335.06Z"/>
</mask>
<path d="M562.843 367.94C556.923 370.5 550.043 372.34 542.203 373.46C534.363 374.58 527.083 375.14 520.363 375.14C498.603 375.14 481.563 369.46 469.243 358.1C456.923 346.74 450.763 329.3 450.763 305.78C450.763 281.78 457.243 263.86 470.203 252.02C483.163 240.02 501.403 234.02 524.923 234.02C536.123 234.02 547.803 235.54 559.963 238.58C559.963 241.78 559.643 246.58 559.003 252.98C558.363 259.22 557.723 263.62 557.083 266.18H541.963C530.923 266.18 522.203 266.42 515.803 266.9C509.563 267.22 505.803 267.94 504.523 269.06C502.123 271.3 500.283 275.86 499.003 282.74C497.723 289.46 497.083 295.94 497.083 302.18C497.083 313.06 498.443 321.46 501.163 327.38C503.883 333.14 507.323 336.98 511.483 338.9C515.483 340.82 522.123 341.78 531.403 341.78C538.763 341.78 548.363 341.14 560.203 339.86L562.843 367.94ZM629.729 375.62C610.529 375.62 596.129 371.14 586.529 362.18C577.089 353.06 572.369 338.74 572.369 319.22C572.369 308.5 573.329 299.14 575.249 291.14C577.329 282.98 579.809 277.3 582.689 274.1C586.369 269.94 593.089 266.5 602.849 263.78C612.77 261.06 622.05 259.7 630.69 259.7C651.33 259.7 666.05 264.1 674.85 272.9C683.65 281.7 688.05 295.78 688.05 315.14C688.05 335.94 683.33 351.22 673.89 360.98C664.45 370.74 649.729 375.62 629.729 375.62ZM630.449 347.54C636.689 347.54 640.769 345.38 642.689 341.06C644.61 336.58 645.57 328.74 645.57 317.54C645.57 309.7 645.17 303.7 644.369 299.54C643.569 295.22 642.049 292.1 639.809 290.18C637.73 288.1 634.45 287.06 629.969 287.06C623.569 287.06 619.889 287.62 618.929 288.74C617.649 289.86 616.609 293.38 615.81 299.3C615.009 305.22 614.609 311.38 614.609 317.78C614.609 328.66 615.649 336.34 617.73 340.82C619.97 345.3 624.209 347.54 630.449 347.54ZM810.515 269.06C811.955 270.82 812.995 275.22 813.635 282.26C814.435 289.3 814.835 300.02 814.835 314.42V372.5H773.795V314.9V305.06C773.795 299.94 773.395 296.74 772.595 295.46C771.315 293.86 768.355 293.06 763.715 293.06C761.475 293.06 759.795 293.14 758.675 293.3C754.195 293.46 749.555 294.5 744.755 296.42V372.5H703.715V262.1H737.075L741.635 280.58C753.155 266.66 766.915 259.7 782.915 259.7C788.675 259.7 794.035 260.5 798.995 262.1C804.115 263.7 807.955 266.02 810.515 269.06ZM900.753 343.7C904.753 343.7 912.193 343.3 923.073 342.5C924.513 342.5 927.153 342.34 930.993 342.02L934.593 366.74C922.273 372.5 906.273 375.38 886.593 375.38C868.193 375.38 854.033 370.74 844.113 361.46C834.353 352.18 829.473 338.18 829.473 319.46C829.473 309.86 830.673 300.58 833.073 291.62C835.633 282.66 838.513 276.42 841.713 272.9C845.073 269.38 851.313 266.34 860.433 263.78C869.553 261.22 878.593 259.94 887.553 259.94C901.953 259.94 912.753 262.5 919.953 267.62C927.153 272.74 931.873 279.86 934.113 288.98C936.353 297.94 937.473 310.02 937.473 325.22C926.593 325.86 915.953 326.18 905.553 326.18H871.473C871.473 331.3 872.513 335.14 874.593 337.7C876.833 340.26 879.953 341.94 883.953 342.74C887.953 343.38 893.553 343.7 900.753 343.7ZM873.873 288.5C872.913 288.98 872.193 291.06 871.713 294.74C871.233 298.42 870.913 302.58 870.753 307.22H883.233C890.753 307.22 896.193 307.14 899.553 306.98C899.553 299.3 898.433 293.86 896.193 290.66C894.113 287.46 890.433 285.86 885.153 285.86C880.833 285.86 877.073 286.74 873.873 288.5ZM972.078 316.1L944.478 262.1H984.318L1004.24 304.82L1024.4 262.1H1064L1036.64 316.1L1066.64 372.5H1026.56L1004.24 326.9L981.918 372.5H941.838L972.078 316.1ZM1129.42 375.62C1110.22 375.62 1095.82 371.14 1086.22 362.18C1076.78 353.06 1072.06 338.74 1072.06 319.22C1072.06 308.5 1073.02 299.14 1074.94 291.14C1077.02 282.98 1079.5 277.3 1082.38 274.1C1086.06 269.94 1092.78 266.5 1102.54 263.78C1112.46 261.06 1121.74 259.7 1130.38 259.7C1151.02 259.7 1165.74 264.1 1174.54 272.9C1183.34 281.7 1187.74 295.78 1187.74 315.14C1187.74 335.94 1183.02 351.22 1173.58 360.98C1164.14 370.74 1149.42 375.62 1129.42 375.62ZM1130.14 347.54C1136.38 347.54 1140.46 345.38 1142.38 341.06C1144.3 336.58 1145.26 328.74 1145.26 317.54C1145.26 309.7 1144.86 303.7 1144.06 299.54C1143.26 295.22 1141.74 292.1 1139.5 290.18C1137.42 288.1 1134.14 287.06 1129.66 287.06C1123.26 287.06 1119.58 287.62 1118.62 288.74C1117.34 289.86 1116.3 293.38 1115.5 299.3C1114.7 305.22 1114.3 311.38 1114.3 317.78C1114.3 328.66 1115.34 336.34 1117.42 340.82C1119.66 345.3 1123.9 347.54 1130.14 347.54ZM1165.9 225.14C1166.06 225.94 1166.14 227.14 1166.14 228.74C1166.14 234.5 1164.3 239.46 1160.62 243.62C1157.1 247.78 1152.14 249.86 1145.74 249.86C1143.02 249.86 1140.38 249.54 1137.82 248.9C1135.26 248.1 1132.06 247.06 1128.22 245.78C1122.3 243.38 1117.74 242.18 1114.54 242.18C1111.82 242.18 1109.98 242.74 1109.02 243.86C1108.06 244.98 1107.58 246.58 1107.58 248.66H1093.66L1093.42 245.78C1093.42 240.18 1095.1 235.14 1098.46 230.66C1101.82 226.18 1106.94 223.94 1113.82 223.94C1116.38 223.94 1118.78 224.26 1121.02 224.9C1123.26 225.38 1126.14 226.26 1129.66 227.54C1135.9 229.94 1141.02 231.14 1145.02 231.14C1149.66 231.14 1151.98 229.14 1151.98 225.14H1165.9ZM1270.36 343.7C1274.36 343.7 1281.8 343.3 1292.68 342.5C1294.12 342.5 1296.76 342.34 1300.6 342.02L1304.2 366.74C1291.88 372.5 1275.88 375.38 1256.2 375.38C1237.8 375.38 1223.64 370.74 1213.72 361.46C1203.96 352.18 1199.08 338.18 1199.08 319.46C1199.08 309.86 1200.28 300.58 1202.68 291.62C1205.24 282.66 1208.12 276.42 1211.32 272.9C1214.68 269.38 1220.92 266.34 1230.04 263.78C1239.16 261.22 1248.2 259.94 1257.16 259.94C1271.56 259.94 1282.36 262.5 1289.56 267.62C1296.76 272.74 1301.48 279.86 1303.72 288.98C1305.96 297.94 1307.08 310.02 1307.08 325.22C1296.2 325.86 1285.56 326.18 1275.16 326.18H1241.08C1241.08 331.3 1242.12 335.14 1244.2 337.7C1246.44 340.26 1249.56 341.94 1253.56 342.74C1257.56 343.38 1263.16 343.7 1270.36 343.7ZM1243.48 288.5C1242.52 288.98 1241.8 291.06 1241.32 294.74C1240.84 298.42 1240.52 302.58 1240.36 307.22H1252.84C1260.36 307.22 1265.8 307.14 1269.16 306.98C1269.16 299.3 1268.04 293.86 1265.8 290.66C1263.72 287.46 1260.04 285.86 1254.76 285.86C1250.44 285.86 1246.68 286.74 1243.48 288.5ZM1410.81 335.06C1410.81 349.3 1406.25 359.54 1397.13 365.78C1388.17 372.02 1375.37 375.14 1358.73 375.14C1347.05 375.14 1333.61 373.46 1318.41 370.1C1318.73 366.9 1319.45 362.34 1320.57 356.42C1321.85 350.34 1322.89 345.7 1323.69 342.5C1329.45 343.46 1335.85 344.26 1342.89 344.9C1349.93 345.38 1355.93 345.62 1360.89 345.62C1365.21 345.62 1367.85 345.38 1368.81 344.9C1368.97 344.74 1369.13 344.34 1369.29 343.7C1369.61 342.9 1369.77 342.1 1369.77 341.3C1369.77 338.1 1367.77 335.94 1363.77 334.82C1362.49 334.5 1357.61 333.14 1349.13 330.74C1340.65 328.34 1333.69 324.02 1328.25 317.78C1322.97 311.38 1320.33 303.46 1320.33 294.02C1320.33 289.06 1321.45 283.54 1323.69 277.46C1325.93 271.38 1328.33 267.54 1330.89 265.94C1332.81 264.66 1337.45 263.38 1344.81 262.1C1352.17 260.66 1358.97 259.94 1365.21 259.94C1378.49 259.94 1391.85 260.9 1405.29 262.82C1405.29 265.7 1404.89 270.58 1404.09 277.46C1403.29 284.18 1402.57 288.42 1401.93 290.18C1388.33 288.42 1377.37 287.54 1369.05 287.54C1364.73 287.54 1361.93 287.78 1360.65 288.26C1360.33 288.42 1360.01 288.9 1359.69 289.7C1359.37 290.34 1359.21 291.22 1359.21 292.34C1359.21 294.58 1359.93 296.18 1361.37 297.14C1362.81 298.26 1366.57 299.62 1372.65 301.22C1379.85 303.3 1386.01 305.46 1391.13 307.7C1396.41 309.94 1400.97 313.3 1404.81 317.78C1408.81 322.26 1410.81 328.02 1410.81 335.06Z" fill="#F7374F"/>
<path d="M562.843 367.94L569.193 382.626C575.554 379.875 579.421 373.342 578.772 366.442L562.843 367.94ZM542.203 373.46L539.94 357.621L542.203 373.46ZM469.243 358.1L458.396 369.863H458.396L469.243 358.1ZM470.203 252.02L480.994 263.833C481.021 263.809 481.047 263.784 481.073 263.76L470.203 252.02ZM559.963 238.58H575.963C575.963 231.238 570.966 224.838 563.843 223.058L559.963 238.58ZM559.003 252.98L574.919 254.612C574.921 254.599 574.922 254.586 574.923 254.572L559.003 252.98ZM557.083 266.18V282.18C564.425 282.18 570.824 277.183 572.605 270.061L557.083 266.18ZM515.803 266.9L516.622 282.879C516.748 282.873 516.874 282.865 516.999 282.855L515.803 266.9ZM504.523 269.06L493.987 257.019C493.858 257.131 493.731 257.246 493.606 257.363L504.523 269.06ZM499.003 282.74L514.72 285.734C514.724 285.711 514.729 285.689 514.733 285.667L499.003 282.74ZM501.163 327.38L486.624 334.06C486.647 334.111 486.671 334.162 486.695 334.212L501.163 327.38ZM511.483 338.9L518.406 324.476C518.334 324.441 518.261 324.406 518.188 324.373L511.483 338.9ZM560.203 339.86L576.132 338.362C575.732 334.099 573.639 330.174 570.321 327.466C567.004 324.758 562.74 323.492 558.483 323.953L560.203 339.86ZM562.843 367.94L556.492 353.254C552.134 355.139 546.679 356.658 539.94 357.621L542.203 373.46L544.465 389.299C553.406 388.022 561.711 385.861 569.193 382.626L562.843 367.94ZM542.203 373.46L539.94 357.621C532.721 358.652 526.206 359.14 520.363 359.14V375.14V391.14C527.959 391.14 536.004 390.508 544.465 389.299L542.203 373.46ZM520.363 375.14V359.14C501.386 359.14 488.656 354.237 480.089 346.337L469.243 358.1L458.396 369.863C474.469 384.683 495.819 391.14 520.363 391.14V375.14ZM469.243 358.1L480.089 346.337C472.205 339.068 466.763 326.683 466.763 305.78H450.763H434.763C434.763 331.917 441.64 354.412 458.396 369.863L469.243 358.1ZM450.763 305.78H466.763C466.763 284.56 472.436 271.651 480.994 263.833L470.203 252.02L459.411 240.207C442.049 256.069 434.763 279 434.763 305.78H450.763ZM470.203 252.02L481.073 263.76C490.206 255.303 504.068 250.02 524.923 250.02V234.02V218.02C498.738 218.02 476.119 224.737 459.332 240.28L470.203 252.02ZM524.923 234.02V250.02C534.67 250.02 545.043 251.342 556.082 254.102L559.963 238.58L563.843 223.058C550.562 219.738 537.575 218.02 524.923 218.02V234.02ZM559.963 238.58H543.963C543.963 240.951 543.711 245.102 543.082 251.388L559.003 252.98L574.923 254.572C575.575 248.058 575.963 242.609 575.963 238.58H559.963ZM559.003 252.98L543.086 251.348C542.447 257.576 541.895 260.96 541.56 262.299L557.083 266.18L572.605 270.061C573.55 266.28 574.278 260.864 574.919 254.612L559.003 252.98ZM557.083 266.18V250.18H541.963V266.18V282.18H557.083V266.18ZM541.963 266.18V250.18C530.763 250.18 521.587 250.421 514.606 250.945L515.803 266.9L516.999 282.855C522.818 282.419 531.082 282.18 541.963 282.18V266.18ZM515.803 266.9L514.983 250.921C511.525 251.098 508.203 251.408 505.293 251.966C503.308 252.346 498.16 253.367 493.987 257.019L504.523 269.06L515.059 281.101C514.106 281.935 513.244 282.456 512.687 282.756C512.115 283.063 511.67 283.239 511.435 283.325C510.998 283.484 510.89 283.475 511.312 283.394C511.69 283.322 512.315 283.226 513.243 283.129C514.158 283.034 515.277 282.948 516.622 282.879L515.803 266.9ZM504.523 269.06L493.606 257.363C487.115 263.421 484.606 272.648 483.273 279.813L499.003 282.74L514.733 285.667C515.252 282.873 515.787 281.122 516.18 280.147C516.368 279.683 516.462 279.549 516.405 279.641C516.35 279.728 516.06 280.178 515.44 280.757L504.523 269.06ZM499.003 282.74L483.285 279.746C481.835 287.36 481.083 294.845 481.083 302.18H497.083H513.083C513.083 297.035 513.61 291.56 514.72 285.734L499.003 282.74ZM497.083 302.18H481.083C481.083 314.019 482.504 325.093 486.624 334.06L501.163 327.38L515.701 320.7C514.381 317.827 513.083 312.101 513.083 302.18H497.083ZM501.163 327.38L486.695 334.212C490.398 342.054 496.086 349.416 504.778 353.427L511.483 338.9L518.188 324.373C518.56 324.544 517.368 324.226 515.631 320.548L501.163 327.38ZM511.483 338.9L504.559 353.324C512.021 356.906 521.787 357.78 531.403 357.78V341.78V325.78C527.262 325.78 524.089 325.562 521.752 325.225C519.305 324.871 518.397 324.471 518.406 324.476L511.483 338.9ZM531.403 341.78V357.78C539.577 357.78 549.813 357.076 561.922 355.767L560.203 339.86L558.483 323.953C546.912 325.204 537.948 325.78 531.403 325.78V341.78ZM560.203 339.86L544.273 341.358L546.913 369.438L562.843 367.94L578.772 366.442L576.132 338.362L560.203 339.86ZM586.529 362.18L575.413 373.687C575.479 373.751 575.545 373.814 575.612 373.877L586.529 362.18ZM575.249 291.14L559.745 287.188C559.727 287.26 559.709 287.333 559.691 287.406L575.249 291.14ZM582.689 274.1L594.582 284.803C594.613 284.769 594.643 284.735 594.673 284.701L582.689 274.1ZM602.85 263.78L598.619 248.35C598.597 248.355 598.576 248.361 598.554 248.367L602.85 263.78ZM673.889 360.98L685.39 372.104V372.104L673.889 360.98ZM642.689 341.06L657.31 347.558C657.339 347.493 657.368 347.428 657.396 347.363L642.689 341.06ZM644.37 299.54L628.637 302.453C628.644 302.49 628.65 302.526 628.657 302.562L644.37 299.54ZM639.81 290.18L628.496 301.494C628.785 301.783 629.086 302.062 629.397 302.328L639.81 290.18ZM618.93 288.74L629.466 300.781C630.041 300.278 630.58 299.733 631.078 299.153L618.93 288.74ZM615.81 299.3L631.665 301.443V301.443L615.81 299.3ZM617.729 340.82L603.217 347.558C603.282 347.698 603.35 347.837 603.419 347.975L617.729 340.82ZM629.729 375.62V359.62C612.732 359.62 602.963 355.632 597.447 350.483L586.529 362.18L575.612 373.877C589.296 386.648 608.327 391.62 629.729 391.62V375.62ZM586.529 362.18L597.646 350.673C592.573 345.771 588.369 336.508 588.369 319.22H572.369H556.369C556.369 340.972 561.606 360.349 575.413 373.687L586.529 362.18ZM572.369 319.22H588.369C588.369 309.401 589.254 301.347 590.808 294.874L575.249 291.14L559.691 287.406C557.405 296.933 556.369 307.599 556.369 319.22H572.369ZM575.249 291.14L590.754 295.092C591.65 291.575 592.537 288.986 593.333 287.162C594.161 285.265 594.674 284.701 594.582 284.803L582.689 274.1L570.797 263.397C565.205 269.61 561.964 278.483 559.745 287.188L575.249 291.14ZM582.689 274.1L594.673 284.701C595.226 284.076 598.248 281.672 607.145 279.193L602.85 263.78L598.554 248.367C587.931 251.328 577.513 255.804 570.706 263.499L582.689 274.1ZM602.85 263.78L607.08 279.21C615.876 276.799 623.72 275.7 630.689 275.7V259.7V243.7C620.379 243.7 609.663 245.321 598.619 248.35L602.85 263.78ZM630.689 259.7V275.7C649.734 275.7 659.197 279.875 663.536 284.214L674.85 272.9L686.163 261.586C672.902 248.325 652.925 243.7 630.689 243.7V259.7ZM674.85 272.9L663.536 284.214C668.03 288.708 672.049 297.728 672.049 315.14H688.049H704.049C704.049 293.832 699.269 274.692 686.163 261.586L674.85 272.9ZM688.049 315.14H672.049C672.049 333.941 667.73 344.334 662.389 349.856L673.889 360.98L685.39 372.104C698.929 358.106 704.049 337.939 704.049 315.14H688.049ZM673.889 360.98L662.389 349.856C657.141 355.282 647.445 359.62 629.729 359.62V375.62V391.62C652.014 391.62 671.758 386.198 685.39 372.104L673.889 360.98ZM630.449 347.54V363.54C635.302 363.54 640.662 362.715 645.676 360.061C650.964 357.261 654.933 352.908 657.31 347.558L642.689 341.06L628.069 334.562C628.252 334.15 628.579 333.592 629.104 333.024C629.633 332.453 630.204 332.043 630.703 331.779C631.637 331.285 631.837 331.54 630.449 331.54V347.54ZM642.689 341.06L657.396 347.363C660.724 339.596 661.57 328.809 661.57 317.54H645.57H629.57C629.57 328.671 628.495 333.564 627.983 334.757L642.689 341.06ZM645.57 317.54H661.57C661.57 309.386 661.171 302.183 660.082 296.518L644.37 299.54L628.657 302.562C629.168 305.217 629.57 310.014 629.57 317.54H645.57ZM644.37 299.54L660.102 296.627C658.949 290.403 656.311 283.251 650.222 278.032L639.81 290.18L629.397 302.328C628.589 301.636 628.277 301.032 628.246 300.967C628.233 300.941 628.281 301.036 628.36 301.288C628.439 301.54 628.538 301.921 628.637 302.453L644.37 299.54ZM639.81 290.18L651.123 278.866C644.79 272.533 636.513 271.06 629.969 271.06V287.06V303.06C631.036 303.06 631.268 303.191 630.954 303.092C630.565 302.968 629.553 302.551 628.496 301.494L639.81 290.18ZM629.969 287.06V271.06C626.448 271.06 623.006 271.205 620.002 271.662C618.512 271.889 616.64 272.263 614.712 272.961C613.08 273.552 609.648 274.983 606.781 278.327L618.93 288.74L631.078 299.153C629.796 300.648 628.489 301.564 627.624 302.081C626.743 302.608 626.015 302.901 625.607 303.049C624.839 303.327 624.467 303.351 624.817 303.298C625.092 303.256 625.65 303.191 626.567 303.14C627.466 303.09 628.591 303.06 629.969 303.06V287.06ZM618.93 288.74L608.393 276.699C604.027 280.52 602.437 285.684 601.845 287.686C600.996 290.56 600.404 293.823 599.954 297.157L615.81 299.3L631.665 301.443C631.833 300.2 632 299.184 632.159 298.371C632.32 297.545 632.453 297.027 632.534 296.754C632.627 296.437 632.589 296.658 632.325 297.185C632.184 297.468 631.925 297.946 631.511 298.529C631.103 299.104 630.443 299.926 629.466 300.781L618.93 288.74ZM615.81 299.3L599.954 297.157C599.051 303.836 598.609 310.714 598.609 317.78H614.609H630.609C630.609 312.046 630.968 306.604 631.665 301.443L615.81 299.3ZM614.609 317.78H598.609C598.609 328.843 599.539 339.636 603.217 347.558L617.729 340.82L632.242 334.082C632.242 334.082 632.239 334.076 632.233 334.063C632.228 334.05 632.22 334.031 632.209 334.005C632.189 333.954 632.16 333.878 632.125 333.776C632.054 333.569 631.963 333.276 631.862 332.884C631.658 332.086 631.44 330.993 631.245 329.553C630.851 326.644 630.609 322.764 630.609 317.78H614.609ZM617.729 340.82L603.419 347.975C609.085 359.307 619.934 363.54 630.449 363.54V347.54V331.54C629.175 331.54 629.291 331.305 630.063 331.713C630.462 331.924 630.902 332.239 631.302 332.654C631.697 333.064 631.928 333.44 632.04 333.665L617.729 340.82ZM810.515 269.06L822.898 258.928C822.851 258.87 822.802 258.812 822.754 258.754L810.515 269.06ZM813.635 282.26L797.701 283.709C797.712 283.828 797.724 283.947 797.737 284.067L813.635 282.26ZM814.835 372.5V388.5C823.672 388.5 830.835 381.337 830.835 372.5H814.835ZM773.795 372.5H757.795C757.795 381.337 764.959 388.5 773.795 388.5V372.5ZM772.595 295.46L786.163 286.98C785.835 286.455 785.476 285.949 785.089 285.465L772.595 295.46ZM758.675 293.3L759.246 309.29C759.812 309.27 760.377 309.219 760.938 309.139L758.675 293.3ZM744.755 296.42L738.813 281.564C732.738 283.994 728.755 289.878 728.755 296.42H744.755ZM744.755 372.5V388.5C753.592 388.5 760.755 381.337 760.755 372.5H744.755ZM703.715 372.5H687.715C687.715 381.337 694.879 388.5 703.715 388.5V372.5ZM703.715 262.1V246.1C694.879 246.1 687.715 253.263 687.715 262.1H703.715ZM737.075 262.1L752.609 258.267C750.846 251.121 744.435 246.1 737.075 246.1V262.1ZM741.635 280.58L726.101 284.413C727.549 290.28 732.179 294.831 738.07 296.178C743.961 297.524 750.108 295.437 753.961 290.781L741.635 280.58ZM798.995 262.1L794.083 277.327C794.13 277.342 794.176 277.357 794.223 277.372L798.995 262.1ZM810.515 269.06L798.132 279.192C797.113 277.947 796.721 276.958 796.678 276.85C796.602 276.663 796.668 276.784 796.804 277.36C797.082 278.538 797.416 280.572 797.701 283.709L813.635 282.26L829.569 280.811C829.215 276.908 828.708 273.223 827.946 270C827.314 267.324 826.038 262.765 822.898 258.928L810.515 269.06ZM813.635 282.26L797.737 284.067C798.431 290.167 798.835 300.142 798.835 314.42H814.835H830.835C830.835 299.898 830.44 288.433 829.533 280.453L813.635 282.26ZM814.835 314.42H798.835V372.5H814.835H830.835V314.42H814.835ZM814.835 372.5V356.5H773.795V372.5V388.5H814.835V372.5ZM773.795 372.5H789.795V314.9H773.795H757.795V372.5H773.795ZM773.795 314.9H789.795V305.06H773.795H757.795V314.9H773.795ZM773.795 305.06H789.795C789.795 302.173 789.687 299.36 789.372 296.835C789.138 294.968 788.551 290.801 786.163 286.98L772.595 295.46L759.027 303.94C758.509 303.11 758.191 302.401 758.009 301.943C757.822 301.473 757.717 301.114 757.665 300.92C757.568 300.559 757.577 300.474 757.619 300.805C757.656 301.104 757.703 301.605 757.739 302.348C757.774 303.082 757.795 303.981 757.795 305.06H773.795ZM772.595 295.46L785.089 285.465C781.506 280.986 776.806 279.083 773.59 278.214C770.243 277.31 766.802 277.06 763.715 277.06V293.06V309.06C765.268 309.06 765.627 309.21 765.241 309.106C764.984 309.037 762.404 308.334 760.101 305.455L772.595 295.46ZM763.715 293.06V277.06C761.3 277.06 758.695 277.135 756.412 277.461L758.675 293.3L760.938 309.139C760.824 309.156 760.982 309.128 761.536 309.102C762.056 309.077 762.772 309.06 763.715 309.06V293.06ZM758.675 293.3L758.104 277.31C751.523 277.545 745.067 279.063 738.813 281.564L744.755 296.42L750.697 311.276C754.044 309.937 756.867 309.375 759.246 309.29L758.675 293.3ZM744.755 296.42H728.755V372.5H744.755H760.755V296.42H744.755ZM744.755 372.5V356.5H703.715V372.5V388.5H744.755V372.5ZM703.715 372.5H719.715V262.1H703.715H687.715V372.5H703.715ZM703.715 262.1V278.1H737.075V262.1V246.1H703.715V262.1ZM737.075 262.1L721.541 265.933L726.101 284.413L741.635 280.58L757.169 276.747L752.609 258.267L737.075 262.1ZM741.635 280.58L753.961 290.781C762.884 280 772.335 275.7 782.915 275.7V259.7V243.7C761.495 243.7 743.426 253.32 729.309 270.379L741.635 280.58ZM782.915 259.7V275.7C787.182 275.7 790.868 276.29 794.083 277.327L798.995 262.1L803.907 246.873C797.203 244.71 790.169 243.7 782.915 243.7V259.7ZM798.995 262.1L794.223 277.372C797.421 278.371 798.256 279.342 798.277 279.366L810.515 269.06L822.754 258.754C817.654 252.698 810.81 249.029 803.768 246.828L798.995 262.1ZM923.073 342.5V326.5C922.682 326.5 922.29 326.514 921.9 326.543L923.073 342.5ZM930.993 342.02L946.826 339.714C945.608 331.348 938.09 325.373 929.665 326.075L930.993 342.02ZM934.593 366.74L941.37 381.234C947.764 378.245 951.443 371.419 950.426 364.434L934.593 366.74ZM844.113 361.46L833.088 373.055C833.12 373.085 833.151 373.115 833.183 373.144L844.113 361.46ZM833.073 291.62L817.689 287.224C817.665 287.31 817.641 287.395 817.618 287.48L833.073 291.62ZM841.713 272.9L830.14 261.852C830.05 261.946 829.961 262.041 829.874 262.137L841.713 272.9ZM860.433 263.78L864.757 279.185V279.185L860.433 263.78ZM919.953 267.62L910.681 280.659L910.681 280.659L919.953 267.62ZM934.113 288.98L918.575 292.796C918.58 292.818 918.586 292.839 918.591 292.861L934.113 288.98ZM937.473 325.22L938.413 341.192C946.87 340.695 953.473 333.692 953.473 325.22H937.473ZM871.473 326.18V310.18C862.637 310.18 855.473 317.343 855.473 326.18H871.473ZM874.593 337.7L862.175 347.789C862.298 347.941 862.424 348.09 862.552 348.236L874.593 337.7ZM883.953 342.74L880.815 358.429C881.018 358.47 881.221 358.506 881.425 358.539L883.953 342.74ZM873.873 288.5L881.029 302.811C881.216 302.717 881.401 302.62 881.584 302.519L873.873 288.5ZM871.713 294.74L887.579 296.809V296.809L871.713 294.74ZM870.753 307.22L854.763 306.669C854.613 311.005 856.231 315.216 859.246 318.337C862.261 321.458 866.414 323.22 870.753 323.22V307.22ZM899.553 306.98L900.314 322.962C908.845 322.556 915.553 315.521 915.553 306.98H899.553ZM896.193 290.66L882.778 299.38C882.878 299.533 882.98 299.685 883.086 299.835L896.193 290.66ZM900.753 343.7V359.7C905.424 359.7 913.422 359.253 924.247 358.457L923.073 342.5L921.9 326.543C910.964 327.347 904.083 327.7 900.753 327.7V343.7ZM923.073 342.5V358.5C925.269 358.5 928.535 358.28 932.322 357.965L930.993 342.02L929.665 326.075C925.771 326.4 923.757 326.5 923.073 326.5V342.5ZM930.993 342.02L915.16 344.326L918.76 369.046L934.593 366.74L950.426 364.434L946.826 339.714L930.993 342.02ZM934.593 366.74L927.817 352.246C918.348 356.673 904.899 359.38 886.593 359.38V375.38V391.38C907.648 391.38 926.199 388.327 941.37 381.234L934.593 366.74ZM886.593 375.38V359.38C870.789 359.38 861.08 355.423 855.044 349.776L844.113 361.46L833.183 373.144C846.986 386.057 865.598 391.38 886.593 391.38V375.38ZM844.113 361.46L855.138 349.865C849.634 344.631 845.473 335.55 845.473 319.46H829.473H813.473C813.473 340.81 819.072 359.729 833.088 373.055L844.113 361.46ZM829.473 319.46H845.473C845.473 311.209 846.503 303.323 848.528 295.76L833.073 291.62L817.618 287.48C814.844 297.837 813.473 308.511 813.473 319.46H829.473ZM833.073 291.62L848.458 296.016C850.87 287.573 852.942 284.334 853.552 283.663L841.713 272.9L829.874 262.137C824.085 268.506 820.397 277.747 817.689 287.224L833.073 291.62ZM841.713 272.9L853.287 283.948C853.225 284.013 853.84 283.377 855.921 282.364C857.932 281.384 860.812 280.292 864.757 279.185L860.433 263.78L856.109 248.375C846.393 251.103 836.606 255.078 830.14 261.852L841.713 272.9ZM860.433 263.78L864.757 279.185C872.55 276.997 880.136 275.94 887.553 275.94V259.94V243.94C877.05 243.94 866.556 245.443 856.109 248.375L860.433 263.78ZM887.553 259.94V275.94C900.542 275.94 907.414 278.337 910.681 280.659L919.953 267.62L929.226 254.581C918.092 246.663 903.365 243.94 887.553 243.94V259.94ZM919.953 267.62L910.681 280.659C914.547 283.408 917.188 287.148 918.575 292.796L934.113 288.98L949.651 285.164C946.559 272.572 939.76 262.072 929.226 254.581L919.953 267.62ZM934.113 288.98L918.591 292.861C920.376 300.002 921.473 310.604 921.473 325.22H937.473H953.473C953.473 309.436 952.33 295.878 949.636 285.099L934.113 288.98ZM937.473 325.22L936.534 309.248C925.952 309.87 915.625 310.18 905.553 310.18V326.18V342.18C916.281 342.18 927.235 341.85 938.413 341.192L937.473 325.22ZM905.553 326.18V310.18H871.473V326.18V342.18H905.553V326.18ZM871.473 326.18H855.473C855.473 333.053 856.803 341.177 862.175 347.789L874.593 337.7L887.011 327.611C887.641 328.386 887.75 328.915 887.697 328.717C887.634 328.486 887.473 327.709 887.473 326.18H871.473ZM874.593 337.7L862.552 348.236C867.547 353.945 874.071 357.08 880.815 358.429L883.953 342.74L887.091 327.051C886.415 326.915 886.171 326.778 886.199 326.792C886.212 326.8 886.274 326.835 886.365 326.906C886.456 326.979 886.549 327.067 886.634 327.164L874.593 337.7ZM883.953 342.74L881.425 358.539C886.666 359.377 893.249 359.7 900.753 359.7V343.7V327.7C893.857 327.7 889.241 327.383 886.481 326.941L883.953 342.74ZM873.873 288.5L866.718 274.189C860.126 277.485 857.994 283.741 857.493 285.186C856.619 287.714 856.147 290.378 855.848 292.671L871.713 294.74L887.579 296.809C887.76 295.422 887.888 295.206 887.733 295.654C887.652 295.888 887.33 296.788 886.575 297.938C885.859 299.029 884.167 301.242 881.029 302.811L873.873 288.5ZM871.713 294.74L855.848 292.671C855.288 296.961 854.936 301.641 854.763 306.669L870.753 307.22L886.744 307.771C886.89 303.519 887.178 299.879 887.579 296.809L871.713 294.74ZM870.753 307.22V323.22H883.233V307.22V291.22H870.753V307.22ZM883.233 307.22V323.22C890.776 323.22 896.544 323.141 900.314 322.962L899.553 306.98L898.792 290.998C895.842 291.139 890.73 291.22 883.233 291.22V307.22ZM899.553 306.98H915.553C915.553 298.673 914.521 288.942 909.301 281.485L896.193 290.66L883.086 299.835C882.544 299.062 882.75 298.949 883.042 300.366C883.318 301.709 883.553 303.845 883.553 306.98H899.553ZM896.193 290.66L909.608 281.94C903.519 272.572 893.568 269.86 885.153 269.86V285.86V301.86C886.258 301.86 886.195 302.038 885.494 301.733C885.117 301.569 884.618 301.291 884.09 300.852C883.558 300.408 883.115 299.898 882.778 299.38L896.193 290.66ZM885.153 285.86V269.86C878.631 269.86 872.123 271.202 866.163 274.481L873.873 288.5L881.584 302.519C882.024 302.278 883.036 301.86 885.153 301.86V285.86ZM972.078 316.1L986.179 323.661C988.659 319.036 988.713 313.49 986.325 308.818L972.078 316.1ZM944.478 262.1V246.1C938.908 246.1 933.738 248.997 930.831 253.749C927.923 258.5 927.696 264.422 930.231 269.382L944.478 262.1ZM984.318 262.1L998.819 255.338C996.191 249.703 990.536 246.1 984.318 246.1V262.1ZM1004.24 304.82L989.737 311.582C992.359 317.205 997.997 320.806 1004.2 320.82C1010.41 320.834 1016.06 317.26 1018.71 311.648L1004.24 304.82ZM1024.4 262.1V246.1C1018.21 246.1 1012.57 249.672 1009.93 255.272L1024.4 262.1ZM1064 262.1L1078.27 269.331C1080.78 264.371 1080.54 258.462 1077.63 253.725C1074.72 248.987 1069.56 246.1 1064 246.1V262.1ZM1036.64 316.1L1022.37 308.869C1020.01 313.515 1020.07 319.016 1022.51 323.614L1036.64 316.1ZM1066.64 372.5V388.5C1072.26 388.5 1077.46 385.555 1080.35 380.74C1083.25 375.925 1083.4 369.945 1080.76 364.986L1066.64 372.5ZM1026.56 372.5L1012.19 379.534C1014.87 385.021 1020.45 388.5 1026.56 388.5V372.5ZM1004.24 326.9L1018.61 319.866C1015.92 314.379 1010.35 310.9 1004.24 310.9C998.129 310.9 992.553 314.379 989.867 319.866L1004.24 326.9ZM981.918 372.5V388.5C988.027 388.5 993.603 385.021 996.289 379.534L981.918 372.5ZM941.838 372.5L927.737 364.939C925.079 369.898 925.22 375.889 928.109 380.717C930.999 385.545 936.212 388.5 941.838 388.5V372.5ZM972.078 316.1L986.325 308.818L958.725 254.818L944.478 262.1L930.231 269.382L957.831 323.382L972.078 316.1ZM944.478 262.1V278.1H984.318V262.1V246.1H944.478V262.1ZM984.318 262.1L969.817 268.862L989.737 311.582L1004.24 304.82L1018.74 298.058L998.819 255.338L984.318 262.1ZM1004.24 304.82L1018.71 311.648L1038.87 268.928L1024.4 262.1L1009.93 255.272L989.769 297.992L1004.24 304.82ZM1024.4 262.1V278.1H1064V262.1V246.1H1024.4V262.1ZM1064 262.1L1049.73 254.869L1022.37 308.869L1036.64 316.1L1050.91 323.331L1078.27 269.331L1064 262.1ZM1036.64 316.1L1022.51 323.614L1052.51 380.014L1066.64 372.5L1080.76 364.986L1050.76 308.586L1036.64 316.1ZM1066.64 372.5V356.5H1026.56V372.5V388.5H1066.64V372.5ZM1026.56 372.5L1040.93 365.466L1018.61 319.866L1004.24 326.9L989.867 333.934L1012.19 379.534L1026.56 372.5ZM1004.24 326.9L989.867 319.866L967.547 365.466L981.918 372.5L996.289 379.534L1018.61 333.934L1004.24 326.9ZM981.918 372.5V356.5H941.838V372.5V388.5H981.918V372.5ZM941.838 372.5L955.939 380.061L986.179 323.661L972.078 316.1L957.977 308.539L927.737 364.939L941.838 372.5ZM1086.22 362.18L1075.1 373.687C1075.17 373.751 1075.23 373.814 1075.3 373.877L1086.22 362.18ZM1074.94 291.14L1059.43 287.188C1059.41 287.26 1059.4 287.333 1059.38 287.406L1074.94 291.14ZM1082.38 274.1L1094.27 284.803C1094.3 284.769 1094.33 284.735 1094.36 284.701L1082.38 274.1ZM1102.54 263.78L1098.31 248.35C1098.28 248.355 1098.26 248.361 1098.24 248.367L1102.54 263.78ZM1173.58 360.98L1185.08 372.104V372.104L1173.58 360.98ZM1142.38 341.06L1157 347.558C1157.03 347.493 1157.06 347.428 1157.08 347.363L1142.38 341.06ZM1144.06 299.54L1128.32 302.453C1128.33 302.49 1128.34 302.526 1128.34 302.562L1144.06 299.54ZM1139.5 290.18L1128.18 301.494C1128.47 301.783 1128.77 302.062 1129.08 302.328L1139.5 290.18ZM1118.62 288.74L1129.15 300.781C1129.73 300.278 1130.27 299.733 1130.77 299.153L1118.62 288.74ZM1115.5 299.3L1131.35 301.443V301.443L1115.5 299.3ZM1117.42 340.82L1102.9 347.558C1102.97 347.698 1103.04 347.837 1103.11 347.975L1117.42 340.82ZM1165.9 225.14L1181.59 222.002C1180.09 214.523 1173.52 209.14 1165.9 209.14V225.14ZM1160.62 243.62L1148.63 233.019C1148.56 233.107 1148.48 233.195 1148.4 233.285L1160.62 243.62ZM1137.82 248.9L1133.04 264.172C1133.34 264.264 1133.64 264.347 1133.94 264.422L1137.82 248.9ZM1128.22 245.78L1122.21 260.608C1122.52 260.735 1122.84 260.852 1123.16 260.959L1128.22 245.78ZM1109.02 243.86L1121.17 254.273V254.273L1109.02 243.86ZM1107.58 248.66V264.66C1116.41 264.66 1123.58 257.497 1123.58 248.66H1107.58ZM1093.66 248.66L1077.71 249.989C1078.4 258.281 1085.34 264.66 1093.66 264.66V248.66ZM1093.42 245.78H1077.42C1077.42 246.223 1077.44 246.667 1077.47 247.109L1093.42 245.78ZM1121.02 224.9L1116.62 240.284C1116.97 240.383 1117.31 240.47 1117.66 240.545L1121.02 224.9ZM1129.66 227.54L1135.4 212.606C1135.31 212.571 1135.22 212.537 1135.12 212.503L1129.66 227.54ZM1151.98 225.14V209.14C1143.14 209.14 1135.98 216.303 1135.98 225.14H1151.98ZM1129.42 375.62V359.62C1112.42 359.62 1102.65 355.632 1097.13 350.483L1086.22 362.18L1075.3 373.877C1088.98 386.648 1108.01 391.62 1129.42 391.62V375.62ZM1086.22 362.18L1097.33 350.673C1092.26 345.771 1088.06 336.508 1088.06 319.22H1072.06H1056.06C1056.06 340.972 1061.29 360.349 1075.1 373.687L1086.22 362.18ZM1072.06 319.22H1088.06C1088.06 309.401 1088.94 301.347 1090.5 294.874L1074.94 291.14L1059.38 287.406C1057.09 296.933 1056.06 307.599 1056.06 319.22H1072.06ZM1074.94 291.14L1090.44 295.092C1091.34 291.575 1092.22 288.986 1093.02 287.162C1093.85 285.265 1094.36 284.701 1094.27 284.803L1082.38 274.1L1070.48 263.397C1064.89 269.61 1061.65 278.483 1059.43 287.188L1074.94 291.14ZM1082.38 274.1L1094.36 284.701C1094.91 284.076 1097.94 281.672 1106.83 279.193L1102.54 263.78L1098.24 248.367C1087.62 251.328 1077.2 255.804 1070.39 263.499L1082.38 274.1ZM1102.54 263.78L1106.77 279.21C1115.56 276.799 1123.41 275.7 1130.38 275.7V259.7V243.7C1120.07 243.7 1109.35 245.321 1098.31 248.35L1102.54 263.78ZM1130.38 259.7V275.7C1149.42 275.7 1158.88 279.875 1163.22 284.214L1174.54 272.9L1185.85 261.586C1172.59 248.325 1152.61 243.7 1130.38 243.7V259.7ZM1174.54 272.9L1163.22 284.214C1167.72 288.708 1171.74 297.728 1171.74 315.14H1187.74H1203.74C1203.74 293.832 1198.96 274.692 1185.85 261.586L1174.54 272.9ZM1187.74 315.14H1171.74C1171.74 333.941 1167.42 344.334 1162.08 349.856L1173.58 360.98L1185.08 372.104C1198.62 358.106 1203.74 337.939 1203.74 315.14H1187.74ZM1173.58 360.98L1162.08 349.856C1156.83 355.282 1147.13 359.62 1129.42 359.62V375.62V391.62C1151.7 391.62 1171.45 386.198 1185.08 372.104L1173.58 360.98ZM1130.14 347.54V363.54C1134.99 363.54 1140.35 362.715 1145.36 360.061C1150.65 357.261 1154.62 352.908 1157 347.558L1142.38 341.06L1127.76 334.562C1127.94 334.15 1128.27 333.592 1128.79 333.024C1129.32 332.453 1129.89 332.043 1130.39 331.779C1131.32 331.285 1131.52 331.54 1130.14 331.54V347.54ZM1142.38 341.06L1157.08 347.363C1160.41 339.596 1161.26 328.809 1161.26 317.54H1145.26H1129.26C1129.26 328.671 1128.18 333.564 1127.67 334.757L1142.38 341.06ZM1145.26 317.54H1161.26C1161.26 309.386 1160.86 302.183 1159.77 296.518L1144.06 299.54L1128.34 302.562C1128.86 305.217 1129.26 310.014 1129.26 317.54H1145.26ZM1144.06 299.54L1159.79 296.627C1158.64 290.403 1156 283.251 1149.91 278.032L1139.5 290.18L1129.08 302.328C1128.28 301.636 1127.96 301.032 1127.93 300.967C1127.92 300.941 1127.97 301.036 1128.05 301.288C1128.13 301.54 1128.23 301.921 1128.32 302.453L1144.06 299.54ZM1139.5 290.18L1150.81 278.866C1144.48 272.533 1136.2 271.06 1129.66 271.06V287.06V303.06C1130.72 303.06 1130.96 303.191 1130.64 303.092C1130.25 302.968 1129.24 302.551 1128.18 301.494L1139.5 290.18ZM1129.66 287.06V271.06C1126.14 271.06 1122.69 271.205 1119.69 271.662C1118.2 271.889 1116.33 272.263 1114.4 272.961C1112.77 273.552 1109.34 274.983 1106.47 278.327L1118.62 288.74L1130.77 299.153C1129.48 300.648 1128.18 301.564 1127.31 302.081C1126.43 302.608 1125.7 302.901 1125.29 303.049C1124.53 303.327 1124.15 303.351 1124.5 303.298C1124.78 303.256 1125.34 303.191 1126.25 303.14C1127.15 303.09 1128.28 303.06 1129.66 303.06V287.06ZM1118.62 288.74L1108.08 276.699C1103.71 280.52 1102.12 285.684 1101.53 287.686C1100.68 290.56 1100.09 293.823 1099.64 297.157L1115.5 299.3L1131.35 301.443C1131.52 300.2 1131.69 299.184 1131.85 298.371C1132.01 297.545 1132.14 297.027 1132.22 296.754C1132.31 296.437 1132.28 296.658 1132.01 297.185C1131.87 297.468 1131.61 297.946 1131.2 298.529C1130.79 299.104 1130.13 299.926 1129.15 300.781L1118.62 288.74ZM1115.5 299.3L1099.64 297.157C1098.74 303.836 1098.3 310.714 1098.3 317.78H1114.3H1130.3C1130.3 312.046 1130.66 306.604 1131.35 301.443L1115.5 299.3ZM1114.3 317.78H1098.3C1098.3 328.843 1099.23 339.636 1102.9 347.558L1117.42 340.82L1131.93 334.082C1131.93 334.082 1131.93 334.076 1131.92 334.063C1131.92 334.05 1131.91 334.031 1131.9 334.005C1131.88 333.954 1131.85 333.878 1131.81 333.776C1131.74 333.569 1131.65 333.276 1131.55 332.884C1131.35 332.086 1131.13 330.993 1130.93 329.553C1130.54 326.644 1130.3 322.764 1130.3 317.78H1114.3ZM1117.42 340.82L1103.11 347.975C1108.77 359.307 1119.62 363.54 1130.14 363.54V347.54V331.54C1128.86 331.54 1128.98 331.305 1129.75 331.713C1130.15 331.924 1130.59 332.239 1130.99 332.654C1131.38 333.064 1131.62 333.44 1131.73 333.665L1117.42 340.82ZM1165.9 225.14L1150.21 228.278C1150.15 227.989 1150.12 227.793 1150.12 227.721C1150.11 227.644 1150.11 227.634 1150.11 227.704C1150.12 227.772 1150.12 227.893 1150.13 228.072C1150.13 228.25 1150.14 228.471 1150.14 228.74H1166.14H1182.14C1182.14 226.887 1182.07 224.401 1181.59 222.002L1165.9 225.14ZM1166.14 228.74H1150.14C1150.14 230.753 1149.62 231.901 1148.63 233.019L1160.62 243.62L1172.6 254.221C1178.97 247.019 1182.14 238.247 1182.14 228.74H1166.14ZM1160.62 243.62L1148.4 233.285C1148.25 233.463 1148.19 233.495 1148.07 233.545C1147.88 233.623 1147.21 233.86 1145.74 233.86V249.86V265.86C1155.93 265.86 1165.73 262.349 1172.83 253.955L1160.62 243.62ZM1145.74 249.86V233.86C1144.28 233.86 1142.95 233.691 1141.7 233.378L1137.82 248.9L1133.94 264.422C1137.8 265.389 1141.75 265.86 1145.74 265.86V249.86ZM1137.82 248.9L1142.59 233.628C1140.16 232.869 1137.06 231.863 1133.28 230.601L1128.22 245.78L1123.16 260.959C1127.05 262.257 1130.35 263.331 1133.04 264.172L1137.82 248.9ZM1128.22 245.78L1134.23 230.952C1127.92 228.394 1120.97 226.18 1114.54 226.18V242.18V258.18C1114.28 258.18 1114.77 258.154 1116.29 258.553C1117.72 258.931 1119.67 259.581 1122.21 260.608L1128.22 245.78ZM1114.54 242.18V226.18C1110.79 226.18 1102.63 226.726 1096.87 233.447L1109.02 243.86L1121.17 254.273C1119.15 256.628 1116.9 257.565 1115.78 257.907C1114.7 258.233 1114.16 258.18 1114.54 258.18V242.18ZM1109.02 243.86L1096.87 233.447C1092.57 238.46 1091.58 244.311 1091.58 248.66H1107.58H1123.58C1123.58 248.849 1123.54 251.5 1121.17 254.273L1109.02 243.86ZM1107.58 248.66V232.66H1093.66V248.66V264.66H1107.58V248.66ZM1093.66 248.66L1109.6 247.331L1109.36 244.451L1093.42 245.78L1077.47 247.109L1077.71 249.989L1093.66 248.66ZM1093.42 245.78H1109.42C1109.42 243.642 1109.97 241.97 1111.26 240.26L1098.46 230.66L1085.66 221.06C1080.22 228.31 1077.42 236.718 1077.42 245.78H1093.42ZM1098.46 230.66L1111.26 240.26C1111.3 240.2 1111.3 240.217 1111.24 240.26C1111.19 240.303 1111.17 240.305 1111.23 240.279C1111.36 240.223 1112.09 239.94 1113.82 239.94V223.94V207.94C1103.19 207.94 1092.73 211.624 1085.66 221.06L1098.46 230.66ZM1113.82 223.94V239.94C1115.04 239.94 1115.94 240.091 1116.62 240.284L1121.02 224.9L1125.41 209.516C1121.61 208.429 1117.72 207.94 1113.82 207.94V223.94ZM1121.02 224.9L1117.66 240.545C1118.88 240.805 1120.99 241.412 1124.19 242.577L1129.66 227.54L1135.12 212.503C1131.29 211.108 1127.63 209.955 1124.37 209.255L1121.02 224.9ZM1129.66 227.54L1123.91 242.474C1130.92 245.17 1138.17 247.14 1145.02 247.14V231.14V215.14C1143.87 215.14 1140.87 214.71 1135.4 212.606L1129.66 227.54ZM1145.02 231.14V247.14C1149.27 247.14 1155.45 246.274 1160.68 241.759C1166.38 236.851 1167.98 230.277 1167.98 225.14H1151.98H1135.98C1135.98 224.003 1136.42 220.429 1139.79 217.521C1142.71 215.006 1145.4 215.14 1145.02 215.14V231.14ZM1151.98 225.14V241.14H1165.9V225.14V209.14H1151.98V225.14ZM1292.68 342.5V326.5C1292.29 326.5 1291.9 326.514 1291.51 326.543L1292.68 342.5ZM1300.6 342.02L1316.44 339.714C1315.22 331.348 1307.7 325.373 1299.27 326.075L1300.6 342.02ZM1304.2 366.74L1310.98 381.234C1317.37 378.245 1321.05 371.419 1320.04 364.434L1304.2 366.74ZM1213.72 361.46L1202.7 373.055C1202.73 373.085 1202.76 373.115 1202.79 373.144L1213.72 361.46ZM1202.68 291.62L1187.3 287.224C1187.27 287.31 1187.25 287.395 1187.23 287.48L1202.68 291.62ZM1211.32 272.9L1199.75 261.852C1199.66 261.946 1199.57 262.041 1199.48 262.137L1211.32 272.9ZM1230.04 263.78L1234.37 279.185V279.185L1230.04 263.78ZM1289.56 267.62L1280.29 280.659L1280.29 280.659L1289.56 267.62ZM1303.72 288.98L1288.18 292.796C1288.19 292.818 1288.2 292.839 1288.2 292.861L1303.72 288.98ZM1307.08 325.22L1308.02 341.192C1316.48 340.695 1323.08 333.692 1323.08 325.22H1307.08ZM1241.08 326.18V310.18C1232.25 310.18 1225.08 317.343 1225.08 326.18H1241.08ZM1244.2 337.7L1231.78 347.789C1231.91 347.941 1232.03 348.09 1232.16 348.236L1244.2 337.7ZM1253.56 342.74L1250.42 358.429C1250.63 358.47 1250.83 358.506 1251.03 358.539L1253.56 342.74ZM1243.48 288.5L1250.64 302.811C1250.83 302.717 1251.01 302.62 1251.19 302.519L1243.48 288.5ZM1241.32 294.74L1257.19 296.809V296.809L1241.32 294.74ZM1240.36 307.22L1224.37 306.669C1224.22 311.005 1225.84 315.216 1228.86 318.337C1231.87 321.458 1236.02 323.22 1240.36 323.22V307.22ZM1269.16 306.98L1269.92 322.962C1278.45 322.556 1285.16 315.521 1285.16 306.98H1269.16ZM1265.8 290.66L1252.39 299.38C1252.49 299.533 1252.59 299.685 1252.69 299.835L1265.8 290.66ZM1270.36 343.7V359.7C1275.03 359.7 1283.03 359.253 1293.86 358.457L1292.68 342.5L1291.51 326.543C1280.57 327.347 1273.69 327.7 1270.36 327.7V343.7ZM1292.68 342.5V358.5C1294.88 358.5 1298.14 358.28 1301.93 357.965L1300.6 342.02L1299.27 326.075C1295.38 326.4 1293.37 326.5 1292.68 326.5V342.5ZM1300.6 342.02L1284.77 344.326L1288.37 369.046L1304.2 366.74L1320.04 364.434L1316.44 339.714L1300.6 342.02ZM1304.2 366.74L1297.43 352.246C1287.96 356.673 1274.51 359.38 1256.2 359.38V375.38V391.38C1277.26 391.38 1295.81 388.327 1310.98 381.234L1304.2 366.74ZM1256.2 375.38V359.38C1240.4 359.38 1230.69 355.423 1224.65 349.776L1213.72 361.46L1202.79 373.144C1216.6 386.057 1235.21 391.38 1256.2 391.38V375.38ZM1213.72 361.46L1224.75 349.865C1219.24 344.631 1215.08 335.55 1215.08 319.46H1199.08H1183.08C1183.08 340.81 1188.68 359.729 1202.7 373.055L1213.72 361.46ZM1199.08 319.46H1215.08C1215.08 311.209 1216.11 303.323 1218.14 295.76L1202.68 291.62L1187.23 287.48C1184.45 297.837 1183.08 308.511 1183.08 319.46H1199.08ZM1202.68 291.62L1218.07 296.016C1220.48 287.573 1222.55 284.334 1223.16 283.663L1211.32 272.9L1199.48 262.137C1193.69 268.506 1190.01 277.747 1187.3 287.224L1202.68 291.62ZM1211.32 272.9L1222.9 283.948C1222.83 284.013 1223.45 283.377 1225.53 282.364C1227.54 281.384 1230.42 280.292 1234.37 279.185L1230.04 263.78L1225.72 248.375C1216 251.103 1206.22 255.078 1199.75 261.852L1211.32 272.9ZM1230.04 263.78L1234.37 279.185C1242.16 276.997 1249.75 275.94 1257.16 275.94V259.94V243.94C1246.66 243.94 1236.17 245.443 1225.72 248.375L1230.04 263.78ZM1257.16 259.94V275.94C1270.15 275.94 1277.02 278.337 1280.29 280.659L1289.56 267.62L1298.84 254.581C1287.7 246.663 1272.97 243.94 1257.16 243.94V259.94ZM1289.56 267.62L1280.29 280.659C1284.16 283.408 1286.8 287.148 1288.18 292.796L1303.72 288.98L1319.26 285.164C1316.17 272.572 1309.37 262.072 1298.84 254.581L1289.56 267.62ZM1303.72 288.98L1288.2 292.861C1289.99 300.002 1291.08 310.604 1291.08 325.22H1307.08H1323.08C1323.08 309.436 1321.94 295.878 1319.24 285.099L1303.72 288.98ZM1307.08 325.22L1306.14 309.248C1295.56 309.87 1285.23 310.18 1275.16 310.18V326.18V342.18C1285.89 342.18 1296.84 341.85 1308.02 341.192L1307.08 325.22ZM1275.16 326.18V310.18H1241.08V326.18V342.18H1275.16V326.18ZM1241.08 326.18H1225.08C1225.08 333.053 1226.41 341.177 1231.78 347.789L1244.2 337.7L1256.62 327.611C1257.25 328.386 1257.36 328.915 1257.31 328.717C1257.24 328.486 1257.08 327.709 1257.08 326.18H1241.08ZM1244.2 337.7L1232.16 348.236C1237.16 353.945 1243.68 357.08 1250.42 358.429L1253.56 342.74L1256.7 327.051C1256.02 326.915 1255.78 326.778 1255.81 326.792C1255.82 326.8 1255.88 326.835 1255.97 326.906C1256.07 326.979 1256.16 327.067 1256.24 327.164L1244.2 337.7ZM1253.56 342.74L1251.03 358.539C1256.28 359.377 1262.86 359.7 1270.36 359.7V343.7V327.7C1263.47 327.7 1258.85 327.383 1256.09 326.941L1253.56 342.74ZM1243.48 288.5L1236.33 274.189C1229.74 277.485 1227.6 283.741 1227.1 285.186C1226.23 287.714 1225.76 290.378 1225.46 292.671L1241.32 294.74L1257.19 296.809C1257.37 295.422 1257.5 295.206 1257.34 295.654C1257.26 295.888 1256.94 296.788 1256.18 297.938C1255.47 299.029 1253.78 301.242 1250.64 302.811L1243.48 288.5ZM1241.32 294.74L1225.46 292.671C1224.9 296.961 1224.55 301.641 1224.37 306.669L1240.36 307.22L1256.35 307.771C1256.5 303.519 1256.79 299.879 1257.19 296.809L1241.32 294.74ZM1240.36 307.22V323.22H1252.84V307.22V291.22H1240.36V307.22ZM1252.84 307.22V323.22C1260.39 323.22 1266.15 323.141 1269.92 322.962L1269.16 306.98L1268.4 290.998C1265.45 291.139 1260.34 291.22 1252.84 291.22V307.22ZM1269.16 306.98H1285.16C1285.16 298.673 1284.13 288.942 1278.91 281.485L1265.8 290.66L1252.69 299.835C1252.15 299.062 1252.36 298.949 1252.65 300.366C1252.93 301.709 1253.16 303.845 1253.16 306.98H1269.16ZM1265.8 290.66L1279.22 281.94C1273.13 272.572 1263.18 269.86 1254.76 269.86V285.86V301.86C1255.87 301.86 1255.8 302.038 1255.1 301.733C1254.73 301.569 1254.23 301.291 1253.7 300.852C1253.17 300.408 1252.72 299.898 1252.39 299.38L1265.8 290.66ZM1254.76 285.86V269.86C1248.24 269.86 1241.73 271.202 1235.77 274.481L1243.48 288.5L1251.19 302.519C1251.63 302.278 1252.64 301.86 1254.76 301.86V285.86ZM1397.13 365.78L1388.09 352.575C1388.06 352.6 1388.02 352.625 1387.98 352.65L1397.13 365.78ZM1318.41 370.1L1302.49 368.508C1301.68 376.576 1307.04 383.973 1314.95 385.723L1318.41 370.1ZM1320.57 356.42L1304.91 353.124C1304.89 353.231 1304.87 353.338 1304.85 353.446L1320.57 356.42ZM1323.69 342.5L1326.32 326.718C1318.09 325.346 1310.19 330.527 1308.17 338.619L1323.69 342.5ZM1342.89 344.9L1341.44 360.834C1341.56 360.845 1341.68 360.855 1341.8 360.863L1342.89 344.9ZM1368.81 344.9L1375.96 359.211C1377.5 358.442 1378.91 357.43 1380.12 356.214L1368.81 344.9ZM1369.29 343.7L1354.43 337.758C1354.16 338.429 1353.94 339.118 1353.77 339.819L1369.29 343.7ZM1363.77 334.82L1368.08 319.413C1367.94 319.372 1367.79 319.334 1367.65 319.298L1363.77 334.82ZM1349.13 330.74L1344.77 346.135V346.135L1349.13 330.74ZM1328.25 317.78L1315.91 327.962C1316 328.074 1316.09 328.185 1316.19 328.294L1328.25 317.78ZM1323.69 277.46L1308.67 271.929V271.929L1323.69 277.46ZM1330.89 265.94L1339.37 279.508C1339.5 279.425 1339.63 279.34 1339.76 279.253L1330.89 265.94ZM1344.81 262.1L1347.55 277.863C1347.66 277.844 1347.77 277.824 1347.88 277.802L1344.81 262.1ZM1405.29 262.82H1421.29C1421.29 254.858 1415.43 248.107 1407.55 246.981L1405.29 262.82ZM1404.09 277.46L1419.98 279.351C1419.98 279.337 1419.98 279.322 1419.98 279.308L1404.09 277.46ZM1401.93 290.18L1399.87 306.048C1407.3 307.009 1414.4 302.688 1416.96 295.648L1401.93 290.18ZM1360.65 288.26L1355.03 273.279C1354.51 273.475 1353.99 273.699 1353.49 273.949L1360.65 288.26ZM1359.69 289.7L1374 296.855C1374.2 296.459 1374.38 296.054 1374.54 295.642L1359.69 289.7ZM1361.37 297.14L1371.19 284.51C1370.88 284.271 1370.57 284.043 1370.24 283.827L1361.37 297.14ZM1372.65 301.22L1377.09 285.849C1376.97 285.813 1376.84 285.779 1376.72 285.747L1372.65 301.22ZM1391.13 307.7L1384.71 322.359C1384.77 322.382 1384.82 322.406 1384.88 322.429L1391.13 307.7ZM1404.81 317.78L1392.66 328.193C1392.73 328.275 1392.8 328.356 1392.87 328.436L1404.81 317.78ZM1410.81 335.06H1394.81C1394.81 345.72 1391.62 350.164 1388.09 352.575L1397.13 365.78L1406.16 378.985C1420.88 368.916 1426.81 352.88 1426.81 335.06H1410.81ZM1397.13 365.78L1387.98 352.65C1382.78 356.277 1373.7 359.14 1358.73 359.14V375.14V391.14C1377.03 391.14 1393.56 387.763 1406.27 378.91L1397.13 365.78ZM1358.73 375.14V359.14C1348.52 359.14 1336.28 357.664 1321.86 354.477L1318.41 370.1L1314.95 385.723C1330.94 389.256 1345.58 391.14 1358.73 391.14V375.14ZM1318.41 370.1L1334.33 371.692C1334.58 369.195 1335.19 365.178 1336.29 359.394L1320.57 356.42L1304.85 353.446C1303.7 359.502 1302.88 364.605 1302.49 368.508L1318.41 370.1ZM1320.57 356.42L1336.22 359.716C1337.49 353.693 1338.48 349.286 1339.21 346.381L1323.69 342.5L1308.17 338.619C1307.29 342.114 1306.2 346.987 1304.91 353.124L1320.57 356.42ZM1323.69 342.5L1321.06 358.282C1327.28 359.319 1334.08 360.166 1341.44 360.834L1342.89 344.9L1344.34 328.966C1337.61 328.354 1331.61 327.601 1326.32 326.718L1323.69 342.5ZM1342.89 344.9L1341.8 360.863C1349.06 361.358 1355.45 361.62 1360.89 361.62V345.62V329.62C1356.41 329.62 1350.79 329.402 1343.98 328.937L1342.89 344.9ZM1360.89 345.62V361.62C1363.27 361.62 1365.55 361.557 1367.56 361.374C1368.78 361.263 1372.48 360.953 1375.96 359.211L1368.81 344.9L1361.65 330.589C1362.12 330.355 1362.53 330.18 1362.86 330.054C1363.2 329.926 1363.48 329.831 1363.71 329.762C1364.15 329.628 1364.48 329.557 1364.63 329.526C1364.8 329.492 1364.89 329.481 1364.88 329.483C1364.87 329.484 1364.8 329.493 1364.66 329.506C1364.37 329.532 1363.92 329.562 1363.26 329.585C1362.61 329.607 1361.83 329.62 1360.89 329.62V345.62ZM1368.81 344.9L1380.12 356.214C1382.56 353.772 1383.61 351.144 1383.9 350.422C1384.35 349.298 1384.64 348.276 1384.81 347.581L1369.29 343.7L1353.77 339.819C1353.78 339.764 1353.9 339.262 1354.19 338.538C1354.34 338.163 1354.61 337.541 1355.04 336.797C1355.43 336.109 1356.2 334.878 1357.49 333.586L1368.81 344.9ZM1369.29 343.7L1384.14 349.642C1385.16 347.099 1385.77 344.288 1385.77 341.3H1369.77H1353.77C1353.77 339.912 1354.05 338.701 1354.43 337.758L1369.29 343.7ZM1369.77 341.3H1385.77C1385.77 336.052 1384 330.716 1380.01 326.409C1376.34 322.444 1371.81 320.458 1368.08 319.413L1363.77 334.82L1359.45 350.227C1359.72 350.302 1358.2 349.956 1356.53 348.151C1354.54 346.004 1353.77 343.348 1353.77 341.3H1369.77ZM1363.77 334.82L1367.65 319.298C1366.68 319.055 1362.13 317.791 1353.48 315.345L1349.13 330.74L1344.77 346.135C1353.09 348.489 1358.3 349.945 1359.89 350.342L1363.77 334.82ZM1349.13 330.74L1353.48 315.345C1347.79 313.733 1343.57 311.012 1340.31 307.266L1328.25 317.78L1316.19 328.294C1323.8 337.028 1333.51 342.947 1344.77 346.135L1349.13 330.74ZM1328.25 317.78L1340.59 307.598C1338 304.456 1336.33 300.286 1336.33 294.02H1320.33H1304.33C1304.33 306.634 1307.94 318.304 1315.91 327.962L1328.25 317.78ZM1320.33 294.02H1336.33C1336.33 291.427 1336.92 287.814 1338.7 282.991L1323.69 277.46L1308.67 271.929C1305.97 279.266 1304.33 286.693 1304.33 294.02H1320.33ZM1323.69 277.46L1338.7 282.991C1339.59 280.581 1340.31 279.186 1340.74 278.5C1340.94 278.179 1340.98 278.167 1340.82 278.34C1340.67 278.511 1340.2 278.988 1339.37 279.508L1330.89 265.94L1322.41 252.372C1318.3 254.941 1315.5 258.501 1313.6 261.54C1311.63 264.694 1310.03 268.259 1308.67 271.929L1323.69 277.46ZM1330.89 265.94L1339.76 279.253C1338.92 279.813 1338.41 279.98 1338.65 279.885C1338.82 279.822 1339.25 279.667 1340.06 279.444C1341.69 278.995 1344.13 278.457 1347.55 277.863L1344.81 262.1L1342.07 246.337C1338.12 247.023 1334.56 247.765 1331.55 248.596C1328.97 249.308 1325.23 250.484 1322.01 252.627L1330.89 265.94ZM1344.81 262.1L1347.88 277.802C1354.42 276.522 1360.18 275.94 1365.21 275.94V259.94V243.94C1357.75 243.94 1349.91 244.798 1341.74 246.398L1344.81 262.1ZM1365.21 259.94V275.94C1377.71 275.94 1390.32 276.844 1403.02 278.659L1405.29 262.82L1407.55 246.981C1393.38 244.956 1379.26 243.94 1365.21 243.94V259.94ZM1405.29 262.82H1389.29C1389.29 264.677 1388.99 268.733 1388.19 275.612L1404.09 277.46L1419.98 279.308C1420.78 272.427 1421.29 266.723 1421.29 262.82H1405.29ZM1404.09 277.46L1388.2 275.569C1387.82 278.796 1387.47 281.246 1387.17 283.001C1387.02 283.877 1386.9 284.479 1386.82 284.858C1386.72 285.311 1386.72 285.174 1386.89 284.712L1401.93 290.18L1416.96 295.648C1417.82 293.287 1418.35 290.53 1418.72 288.359C1419.14 285.874 1419.56 282.844 1419.98 279.351L1404.09 277.46ZM1401.93 290.18L1403.98 274.312C1390.08 272.513 1378.35 271.54 1369.05 271.54V287.54V303.54C1376.39 303.54 1386.58 304.327 1399.87 306.048L1401.93 290.18ZM1369.05 287.54V271.54C1366.65 271.54 1364.37 271.605 1362.34 271.778C1360.68 271.921 1357.83 272.229 1355.03 273.279L1360.65 288.26L1366.27 303.241C1365.75 303.433 1365.35 303.544 1365.12 303.602C1364.88 303.663 1364.73 303.692 1364.67 303.702C1364.58 303.717 1364.69 303.694 1365.07 303.662C1365.85 303.595 1367.13 303.54 1369.05 303.54V287.54ZM1360.65 288.26L1353.49 273.949C1349.76 275.816 1347.71 278.583 1346.85 279.865C1345.86 281.358 1345.22 282.78 1344.83 283.758L1359.69 289.7L1374.54 295.642C1374.47 295.82 1374.16 296.602 1373.48 297.615C1372.95 298.417 1371.22 300.864 1367.8 302.571L1360.65 288.26ZM1359.69 289.7L1345.38 282.545C1343.49 286.313 1343.21 290 1343.21 292.34H1359.21H1375.21C1375.21 292.511 1375.2 292.997 1375.07 293.702C1374.94 294.399 1374.66 295.53 1374 296.855L1359.69 289.7ZM1359.21 292.34H1343.21C1343.21 298.166 1345.31 305.665 1352.49 310.453L1361.37 297.14L1370.24 283.827C1372.06 285.039 1373.48 286.753 1374.34 288.654C1375.13 290.406 1375.21 291.8 1375.21 292.34H1359.21ZM1361.37 297.14L1351.54 309.77C1354.41 311.996 1357.79 313.31 1359.83 314.046C1362.33 314.953 1365.3 315.832 1368.58 316.693L1372.65 301.22L1376.72 285.747C1373.91 285.008 1371.96 284.407 1370.71 283.954C1370.41 283.847 1370.19 283.759 1370.02 283.691C1369.94 283.658 1369.88 283.631 1369.83 283.612C1369.81 283.603 1369.8 283.596 1369.79 283.591C1369.78 283.586 1369.77 283.583 1369.77 283.583C1369.77 283.583 1369.78 283.587 1369.79 283.593C1369.8 283.599 1369.82 283.609 1369.85 283.622C1369.9 283.648 1369.98 283.692 1370.09 283.756C1370.28 283.871 1370.68 284.116 1371.19 284.51L1361.37 297.14ZM1372.65 301.22L1368.21 316.591C1374.95 318.538 1380.41 320.475 1384.71 322.359L1391.13 307.7L1397.54 293.041C1391.61 290.445 1384.75 288.062 1377.09 285.849L1372.65 301.22ZM1391.13 307.7L1384.88 322.429C1387.82 323.677 1390.38 325.532 1392.66 328.193L1404.81 317.78L1416.96 307.367C1411.56 301.068 1405 296.203 1397.38 292.971L1391.13 307.7ZM1404.81 317.78L1392.87 328.436C1393.81 329.49 1394.81 331.233 1394.81 335.06H1410.81H1426.81C1426.81 324.807 1423.8 315.03 1416.74 307.124L1404.81 317.78Z" fill="white" mask="url(#path-4-outside-1_59_347)"/>
</svg>
