<svg width="4000" height="513" viewBox="0 0 4000 513" fill="none" xmlns="http://www.w3.org/2000/svg">
<rect width="4000" height="512.5" fill="#190626"/>
<path d="M666.433 350.698C659.033 353.898 650.433 356.198 640.634 357.598C630.834 358.998 621.734 359.698 613.334 359.698C586.134 359.698 564.833 352.598 549.433 338.398C534.033 324.198 526.333 302.398 526.333 272.998C526.333 242.998 534.433 220.598 550.633 205.798C566.833 190.798 589.633 183.298 619.034 183.298C633.033 183.298 647.633 185.198 662.834 188.998C662.834 192.998 662.434 198.998 661.634 206.998C660.834 214.798 660.034 220.298 659.234 223.498H640.334C626.534 223.498 615.634 223.798 607.634 224.398C599.834 224.798 595.134 225.698 593.533 227.098C590.533 229.898 588.233 235.598 586.633 244.198C585.033 252.598 584.233 260.698 584.233 268.498C584.233 282.098 585.933 292.598 589.333 299.998C592.733 307.198 597.033 311.998 602.234 314.398C607.234 316.798 615.534 317.998 627.134 317.998C636.334 317.998 648.334 317.198 663.134 315.598L666.433 350.698ZM750.042 360.298C726.042 360.298 708.042 354.698 696.042 343.498C684.242 332.098 678.342 314.198 678.342 289.798C678.342 276.398 679.542 264.698 681.942 254.698C684.542 244.498 687.642 237.398 691.242 233.398C695.842 228.198 704.242 223.898 716.442 220.498C728.842 217.098 740.442 215.398 751.242 215.398C777.042 215.398 795.442 220.898 806.442 231.898C817.442 242.898 822.942 260.498 822.942 284.698C822.942 310.698 817.042 329.798 805.242 341.998C793.442 354.198 775.042 360.298 750.042 360.298ZM750.942 325.198C758.742 325.198 763.842 322.498 766.242 317.098C768.642 311.498 769.842 301.698 769.842 287.698C769.842 277.898 769.342 270.398 768.342 265.198C767.342 259.798 765.442 255.898 762.642 253.498C760.042 250.898 755.942 249.598 750.342 249.598C742.342 249.598 737.742 250.298 736.542 251.698C734.942 253.098 733.642 257.498 732.642 264.898C731.642 272.298 731.142 279.998 731.142 287.998C731.142 301.598 732.442 311.198 735.042 316.798C737.842 322.398 743.142 325.198 750.942 325.198ZM976.024 227.098C977.824 229.298 979.124 234.798 979.924 243.598C980.924 252.398 981.424 265.798 981.424 283.798V356.398H930.124V284.398V272.098C930.124 265.698 929.624 261.698 928.624 260.098C927.024 258.098 923.324 257.098 917.524 257.098C914.724 257.098 912.624 257.198 911.224 257.398C905.624 257.598 899.824 258.898 893.824 261.298V356.398H842.524V218.398H884.224L889.924 241.498C904.324 224.098 921.524 215.398 941.524 215.398C948.724 215.398 955.424 216.398 961.624 218.398C968.024 220.398 972.824 223.298 976.024 227.098ZM1088.82 320.398C1093.82 320.398 1103.12 319.898 1116.72 318.898C1118.52 318.898 1121.82 318.698 1126.62 318.298L1131.12 349.198C1115.72 356.398 1095.72 359.998 1071.12 359.998C1048.12 359.998 1030.42 354.198 1018.02 342.598C1005.82 330.998 999.722 313.498 999.722 290.098C999.722 278.098 1001.22 266.498 1004.22 255.298C1007.42 244.098 1011.02 236.298 1015.02 231.898C1019.22 227.498 1027.02 223.698 1038.42 220.498C1049.82 217.298 1061.12 215.698 1072.32 215.698C1090.32 215.698 1103.82 218.898 1112.82 225.298C1121.82 231.698 1127.72 240.598 1130.52 251.998C1133.32 263.198 1134.72 278.298 1134.72 297.298C1121.12 298.098 1107.82 298.498 1094.82 298.498H1052.22C1052.22 304.898 1053.52 309.698 1056.12 312.898C1058.92 316.098 1062.82 318.198 1067.82 319.198C1072.82 319.998 1079.82 320.398 1088.82 320.398ZM1055.22 251.398C1054.02 251.998 1053.12 254.598 1052.52 259.198C1051.92 263.798 1051.52 268.998 1051.32 274.798H1066.92C1076.32 274.798 1083.12 274.698 1087.32 274.498C1087.32 264.898 1085.92 258.098 1083.12 254.098C1080.52 250.098 1075.92 248.098 1069.32 248.098C1063.92 248.098 1059.22 249.198 1055.22 251.398ZM1177.98 285.898L1143.48 218.398H1193.28L1218.18 271.798L1243.38 218.398H1292.88L1258.68 285.898L1296.18 356.398H1246.08L1218.18 299.398L1190.28 356.398H1140.18L1177.98 285.898ZM1374.65 360.298C1350.65 360.298 1332.65 354.698 1320.65 343.498C1308.85 332.098 1302.95 314.198 1302.95 289.798C1302.95 276.398 1304.15 264.698 1306.55 254.698C1309.15 244.498 1312.25 237.398 1315.85 233.398C1320.45 228.198 1328.85 223.898 1341.05 220.498C1353.45 217.098 1365.05 215.398 1375.85 215.398C1401.65 215.398 1420.05 220.898 1431.05 231.898C1442.05 242.898 1447.55 260.498 1447.55 284.698C1447.55 310.698 1441.65 329.798 1429.85 341.998C1418.05 354.198 1399.65 360.298 1374.65 360.298ZM1375.55 325.198C1383.35 325.198 1388.45 322.498 1390.85 317.098C1393.25 311.498 1394.45 301.698 1394.45 287.698C1394.45 277.898 1393.95 270.398 1392.95 265.198C1391.95 259.798 1390.05 255.898 1387.25 253.498C1384.65 250.898 1380.55 249.598 1374.95 249.598C1366.95 249.598 1362.35 250.298 1361.15 251.698C1359.55 253.098 1358.25 257.498 1357.25 264.898C1356.25 272.298 1355.75 279.998 1355.75 287.998C1355.75 301.598 1357.05 311.198 1359.65 316.798C1362.45 322.398 1367.75 325.198 1375.55 325.198ZM1420.25 172.198C1420.45 173.198 1420.55 174.698 1420.55 176.698C1420.55 183.898 1418.25 190.098 1413.65 195.298C1409.25 200.498 1403.05 203.098 1395.05 203.098C1391.65 203.098 1388.35 202.698 1385.15 201.898C1381.95 200.898 1377.95 199.598 1373.15 197.998C1365.75 194.998 1360.05 193.498 1356.05 193.498C1352.65 193.498 1350.35 194.198 1349.15 195.598C1347.95 196.998 1347.35 198.998 1347.35 201.598H1329.95L1329.65 197.998C1329.65 190.998 1331.75 184.698 1335.95 179.098C1340.15 173.498 1346.55 170.698 1355.15 170.698C1358.35 170.698 1361.35 171.098 1364.15 171.898C1366.95 172.498 1370.55 173.598 1374.95 175.198C1382.75 178.198 1389.15 179.698 1394.15 179.698C1399.95 179.698 1402.85 177.198 1402.85 172.198H1420.25ZM1550.83 320.398C1555.83 320.398 1565.13 319.898 1578.73 318.898C1580.53 318.898 1583.83 318.698 1588.63 318.298L1593.13 349.198C1577.73 356.398 1557.73 359.998 1533.13 359.998C1510.13 359.998 1492.43 354.198 1480.03 342.598C1467.83 330.998 1461.73 313.498 1461.73 290.098C1461.73 278.098 1463.23 266.498 1466.23 255.298C1469.43 244.098 1473.03 236.298 1477.03 231.898C1481.23 227.498 1489.03 223.698 1500.43 220.498C1511.83 217.298 1523.13 215.698 1534.33 215.698C1552.33 215.698 1565.83 218.898 1574.83 225.298C1583.83 231.698 1589.73 240.598 1592.53 251.998C1595.33 263.198 1596.73 278.298 1596.73 297.298C1583.13 298.098 1569.83 298.498 1556.83 298.498H1514.23C1514.23 304.898 1515.53 309.698 1518.13 312.898C1520.93 316.098 1524.83 318.198 1529.83 319.198C1534.83 319.998 1541.83 320.398 1550.83 320.398ZM1517.23 251.398C1516.03 251.998 1515.13 254.598 1514.53 259.198C1513.93 263.798 1513.53 268.998 1513.33 274.798H1528.93C1538.33 274.798 1545.13 274.698 1549.33 274.498C1549.33 264.898 1547.93 258.098 1545.13 254.098C1542.53 250.098 1537.93 248.098 1531.33 248.098C1525.93 248.098 1521.23 249.198 1517.23 251.398ZM1726.39 309.598C1726.39 327.398 1720.69 340.198 1709.29 347.998C1698.09 355.798 1682.09 359.698 1661.29 359.698C1646.69 359.698 1629.89 357.598 1610.89 353.398C1611.29 349.398 1612.19 343.698 1613.59 336.298C1615.19 328.698 1616.49 322.898 1617.49 318.898C1624.69 320.098 1632.69 321.098 1641.49 321.898C1650.29 322.498 1657.79 322.798 1663.99 322.798C1669.39 322.798 1672.69 322.498 1673.89 321.898C1674.09 321.698 1674.29 321.198 1674.49 320.398C1674.89 319.398 1675.09 318.398 1675.09 317.398C1675.09 313.398 1672.59 310.698 1667.59 309.298C1665.99 308.898 1659.89 307.198 1649.29 304.198C1638.69 301.198 1629.99 295.798 1623.19 287.998C1616.59 279.998 1613.29 270.098 1613.29 258.298C1613.29 252.098 1614.69 245.198 1617.49 237.598C1620.29 229.998 1623.29 225.198 1626.49 223.198C1628.89 221.598 1634.69 219.998 1643.89 218.398C1653.09 216.598 1661.59 215.698 1669.39 215.698C1685.99 215.698 1702.69 216.898 1719.49 219.298C1719.49 222.898 1718.99 228.998 1717.99 237.598C1716.99 245.998 1716.09 251.298 1715.29 253.498C1698.29 251.298 1684.59 250.198 1674.19 250.198C1668.79 250.198 1665.29 250.498 1663.69 251.098C1663.29 251.298 1662.89 251.898 1662.49 252.898C1662.09 253.698 1661.89 254.798 1661.89 256.198C1661.89 258.998 1662.79 260.998 1664.59 262.198C1666.39 263.598 1671.09 265.298 1678.69 267.298C1687.69 269.898 1695.39 272.598 1701.79 275.398C1708.39 278.198 1714.09 282.398 1718.89 287.998C1723.89 293.598 1726.39 300.798 1726.39 309.598Z" fill="#F7374F"/>
<mask id="mask0_53_209" style="mask-type:alpha" maskUnits="userSpaceOnUse" x="91" y="114" width="301" height="301">
<rect x="91.7579" y="114.102" width="300" height="300" fill="#D9D9D9"/>
</mask>
<g mask="url(#mask0_53_209)">
<path d="M116.758 364.102V214.102H154.258V164.102H229.258V214.102H254.258V164.102H329.258V214.102H366.758V364.102H116.758Z" fill="#F7374F"/>
</g>
</svg>
