<svg width="6000" height="952" viewBox="0 0 6000 952" fill="none" xmlns="http://www.w3.org/2000/svg">
<path d="M1033.54 616H938.615V335.922H1044.28L1104.63 466.781L1131.39 551.156H1135.1C1126.64 521.729 1121.17 500.701 1118.69 488.07C1113.88 463.331 1111.47 436.768 1111.47 408.383V335.922H1206.19V616H1100.72L1039.01 482.797L1013.42 401.156H1009.9C1010.56 403.37 1012.05 408.708 1014.4 417.172C1016.87 425.505 1018.43 430.909 1019.08 433.383C1019.74 435.727 1020.97 440.609 1022.79 448.031C1024.75 455.323 1025.99 460.792 1026.51 464.438C1027.16 467.953 1028.07 473.292 1029.24 480.453C1030.54 487.484 1031.39 493.865 1031.78 499.594C1032.17 505.193 1032.56 511.833 1032.95 519.516C1033.34 527.198 1033.54 535.206 1033.54 543.539V616ZM1355.41 620.883C1335.36 620.883 1316.81 617.693 1299.75 611.312C1282.69 604.802 1268.37 595.948 1256.78 584.75C1245.32 573.552 1236.34 560.271 1229.83 544.906C1223.32 529.542 1220.06 513.135 1220.06 495.688C1220.06 478.63 1223.06 462.484 1229.04 447.25C1235.03 432.016 1243.37 418.799 1254.04 407.602C1264.72 396.404 1277.81 387.549 1293.3 381.039C1308.93 374.529 1325.85 371.273 1344.08 371.273C1359.45 371.273 1373.9 373.552 1387.44 378.109C1401.12 382.536 1413.16 388.917 1423.58 397.25C1433.99 405.583 1442.2 416.26 1448.19 429.281C1454.31 442.302 1457.37 456.82 1457.37 472.836C1457.37 481.56 1456.32 491.651 1454.24 503.109L1306.19 496.469C1307.63 509.62 1313.62 519.385 1324.16 525.766C1334.84 532.016 1348.19 535.141 1364.2 535.141C1393.37 535.141 1418.95 527.263 1440.96 511.508H1446.23V599.984C1436.21 606.104 1423.25 611.117 1407.37 615.023C1391.48 618.93 1374.16 620.883 1355.41 620.883ZM1309.32 474.789L1376.9 471.273C1374.94 465.284 1371.17 460.596 1365.57 457.211C1360.1 453.695 1353.39 451.938 1345.45 451.938C1337.64 451.938 1330.48 453.891 1323.97 457.797C1317.46 461.573 1312.57 467.237 1309.32 474.789ZM1620.84 600.766C1606.26 614.177 1586.79 620.883 1562.44 620.883C1538.09 620.883 1519.15 613.461 1505.61 598.617C1492.07 583.643 1485.29 563.852 1485.29 539.242V432.406H1459.71V378.891C1476.51 378.891 1488.81 375.701 1496.62 369.32C1504.57 362.81 1508.54 351.677 1508.54 335.922H1579.63V375.961H1620.84V440.023L1579.63 433.578V509.945C1579.63 518.799 1581.13 525.635 1584.12 530.453C1587.12 535.271 1592.33 537.68 1599.75 537.68C1606.13 537.68 1611.53 534.294 1615.96 527.523H1620.84V600.766ZM1800.72 616H1685.49L1630.22 375.961H1729.04L1743.5 496.078C1743.76 498.682 1744.34 503.63 1745.26 510.922C1746.17 518.083 1746.82 523.422 1747.21 526.938C1747.73 530.323 1748.25 534.815 1748.77 540.414C1749.29 545.883 1749.68 550.831 1749.94 555.258C1750.2 559.685 1750.33 563.917 1750.33 567.953H1753.46L1769.47 375.961H1863.03L1879.04 567.953H1882.17C1882.17 561.573 1882.43 554.802 1882.95 547.641C1883.6 540.479 1884.71 530.909 1886.27 518.93C1887.83 506.82 1888.75 499.333 1889.01 496.469L1903.46 375.961H2002.29L1947.01 616H1831.78L1817.91 460.727H1814.59L1800.72 616ZM2124.36 620.883C2104.31 620.883 2085.88 617.628 2069.08 611.117C2052.29 604.607 2038.22 595.753 2026.9 584.555C2015.57 573.227 2006.78 560.01 2000.53 544.906C1994.28 529.802 1991.15 513.656 1991.15 496.469C1991.15 482.797 1993.11 469.711 1997.01 457.211C2001.05 444.581 2006.91 433.057 2014.59 422.641C2022.27 412.224 2031.45 403.174 2042.13 395.492C2052.81 387.81 2065.18 381.885 2079.24 377.719C2093.3 373.422 2108.34 371.273 2124.36 371.273C2144.02 371.273 2162.18 374.594 2178.85 381.234C2195.65 387.875 2209.71 396.859 2221.04 408.188C2232.37 419.385 2241.22 432.667 2247.6 448.031C2253.98 463.266 2257.17 479.411 2257.17 496.469C2257.17 513.656 2254.04 529.802 2247.79 544.906C2241.68 560.01 2233.02 573.227 2221.82 584.555C2210.62 595.753 2196.62 604.607 2179.83 611.117C2163.03 617.628 2144.54 620.883 2124.36 620.883ZM2089.2 523.617C2098.19 529.737 2109.9 532.797 2124.36 532.797C2138.81 532.797 2150.59 529.737 2159.71 523.617C2168.95 517.497 2173.58 508.448 2173.58 496.469C2173.58 484.49 2168.95 475.44 2159.71 469.32C2150.59 463.07 2138.81 459.945 2124.36 459.945C2110.16 459.945 2098.51 463.07 2089.4 469.32C2080.28 475.44 2075.72 484.49 2075.72 496.469C2075.72 508.448 2080.22 517.497 2089.2 523.617ZM2362.64 616H2269.08V375.961H2363.81L2348.77 512.484H2352.68C2354.89 485.01 2358.28 462.094 2362.83 443.734C2367.39 425.375 2373.38 410.922 2380.8 400.375C2388.35 389.698 2396.82 382.211 2406.19 377.914C2415.7 373.487 2427.09 371.273 2440.37 371.273V480.453H2435.1C2428.07 473.422 2419.28 469.906 2408.73 469.906C2394.54 469.906 2383.28 476.221 2374.94 488.852C2366.74 501.482 2362.64 520.688 2362.64 546.469V616ZM2546.62 616H2452.29V316H2547.01L2533.93 497.641H2537.83C2540.44 480.062 2544.21 463.852 2549.16 449.008C2554.11 434.164 2559.19 422.445 2564.4 413.852C2569.74 405.258 2574.88 397.966 2579.83 391.977C2584.77 385.857 2588.81 381.625 2591.94 379.281L2596.62 375.961H2700.72V382.797L2628.65 462.094L2706.58 609.164V616H2603.46L2564.98 521.664L2546.62 541.586V616ZM2804.83 620.883C2768.5 620.883 2736.4 613.917 2708.54 599.984V503.109H2714.59C2739.98 528.5 2771.04 541.195 2807.76 541.195C2815.05 541.195 2820.78 540.414 2824.94 538.852C2829.24 537.289 2831.39 535.141 2831.39 532.406C2831.39 530.583 2829.57 529.086 2825.92 527.914C2822.27 526.612 2817.46 525.57 2811.47 524.789C2805.61 524.008 2798.9 522.901 2791.35 521.469C2783.8 519.906 2776.05 518.214 2768.11 516.391C2760.16 514.568 2752.42 511.768 2744.87 507.992C2737.31 504.216 2730.54 499.854 2724.55 494.906C2718.69 489.828 2713.94 483.253 2710.29 475.18C2706.65 467.107 2704.83 457.927 2704.83 447.641C2704.83 435.141 2707.76 423.943 2713.62 414.047C2719.6 404.021 2727.61 395.948 2737.64 389.828C2747.66 383.708 2758.93 379.086 2771.43 375.961C2784.06 372.836 2797.47 371.273 2811.66 371.273C2845.65 371.273 2877.68 379.281 2907.76 395.297V480.453H2902.48C2890.76 470.167 2876.31 461.964 2859.12 455.844C2841.94 449.594 2824.55 446.469 2806.97 446.469C2790.18 446.469 2781.78 449.659 2781.78 456.039C2781.78 458.513 2784.32 460.596 2789.4 462.289C2794.6 463.852 2801.31 465.219 2809.51 466.391C2817.72 467.562 2826.77 468.93 2836.66 470.492C2846.69 472.055 2856.65 474.464 2866.54 477.719C2876.57 480.974 2885.69 484.945 2893.89 489.633C2902.09 494.32 2908.73 500.896 2913.81 509.359C2919.02 517.693 2921.62 527.393 2921.62 538.461C2921.62 557.211 2916.48 572.901 2906.19 585.531C2895.91 598.031 2882.24 607.081 2865.18 612.68C2848.12 618.148 2828 620.883 2804.83 620.883Z" fill="#2F2AA8"/>
<rect x="472.592" y="326" width="300" height="300" fill="#2F2AA8"/>
<mask id="mask0_81_256" style="mask-type:alpha" maskUnits="userSpaceOnUse" x="512" y="366" width="221" height="220">
<rect x="512.592" y="366" width="220" height="220" fill="#D9D9D9"/>
</mask>
<g mask="url(#mask0_81_256)">
<path d="M572.175 466.833L622.592 384.333L673.008 466.833H572.175ZM673.008 567.667C661.55 567.667 651.811 563.656 643.79 555.636C635.769 547.615 631.758 537.875 631.758 526.417C631.758 514.958 635.769 505.219 643.79 497.198C651.811 489.177 661.55 485.167 673.008 485.167C684.467 485.167 694.206 489.177 702.227 497.198C710.248 505.219 714.258 514.958 714.258 526.417C714.258 537.875 710.248 547.615 702.227 555.636C694.206 563.656 684.467 567.667 673.008 567.667ZM540.092 563.083V489.75H613.425V563.083H540.092Z" fill="white"/>
</g>
</svg>
