<svg width="1662" height="352" viewBox="0 0 1662 352" fill="none" xmlns="http://www.w3.org/2000/svg">
<mask id="path-1-outside-1_53_209" maskUnits="userSpaceOnUse" x="409.576" y="82" width="1253" height="242" fill="black">
<rect fill="white" x="409.576" y="82" width="1253" height="242"/>
<path d="M575.676 288.3C568.276 291.5 559.676 293.8 549.876 295.2C540.076 296.6 530.976 297.3 522.576 297.3C495.376 297.3 474.076 290.2 458.676 276C443.276 261.8 435.576 240 435.576 210.6C435.576 180.6 443.676 158.2 459.876 143.4C476.076 128.4 498.876 120.9 528.276 120.9C542.276 120.9 556.876 122.8 572.076 126.6C572.076 130.6 571.676 136.6 570.876 144.6C570.076 152.4 569.276 157.9 568.476 161.1H549.576C535.776 161.1 524.876 161.4 516.876 162C509.076 162.4 504.376 163.3 502.776 164.7C499.776 167.5 497.476 173.2 495.876 181.8C494.276 190.2 493.476 198.3 493.476 206.1C493.476 219.7 495.176 230.2 498.576 237.6C501.976 244.8 506.276 249.6 511.476 252C516.476 254.4 524.776 255.6 536.376 255.6C545.576 255.6 557.576 254.8 572.376 253.2L575.676 288.3ZM659.284 297.9C635.284 297.9 617.284 292.3 605.284 281.1C593.484 269.7 587.584 251.8 587.584 227.4C587.584 214 588.784 202.3 591.184 192.3C593.784 182.1 596.884 175 600.484 171C605.084 165.8 613.484 161.5 625.684 158.1C638.084 154.7 649.684 153 660.484 153C686.284 153 704.684 158.5 715.684 169.5C726.684 180.5 732.184 198.1 732.184 222.3C732.184 248.3 726.284 267.4 714.484 279.6C702.684 291.8 684.284 297.9 659.284 297.9ZM660.184 262.8C667.984 262.8 673.084 260.1 675.484 254.7C677.884 249.1 679.084 239.3 679.084 225.3C679.084 215.5 678.584 208 677.584 202.8C676.584 197.4 674.684 193.5 671.884 191.1C669.284 188.5 665.184 187.2 659.584 187.2C651.584 187.2 646.984 187.9 645.784 189.3C644.184 190.7 642.884 195.1 641.884 202.5C640.884 209.9 640.384 217.6 640.384 225.6C640.384 239.2 641.684 248.8 644.284 254.4C647.084 260 652.384 262.8 660.184 262.8ZM885.266 164.7C887.066 166.9 888.366 172.4 889.166 181.2C890.166 190 890.666 203.4 890.666 221.4V294H839.366V222V209.7C839.366 203.3 838.866 199.3 837.866 197.7C836.266 195.7 832.566 194.7 826.766 194.7C823.966 194.7 821.866 194.8 820.466 195C814.866 195.2 809.066 196.5 803.066 198.9V294H751.766V156H793.466L799.166 179.1C813.566 161.7 830.766 153 850.766 153C857.966 153 864.666 154 870.866 156C877.266 158 882.066 160.9 885.266 164.7ZM998.064 258C1003.06 258 1012.36 257.5 1025.96 256.5C1027.76 256.5 1031.06 256.3 1035.86 255.9L1040.36 286.8C1024.96 294 1004.96 297.6 980.364 297.6C957.364 297.6 939.664 291.8 927.264 280.2C915.064 268.6 908.964 251.1 908.964 227.7C908.964 215.7 910.464 204.1 913.464 192.9C916.664 181.7 920.264 173.9 924.264 169.5C928.464 165.1 936.264 161.3 947.664 158.1C959.064 154.9 970.364 153.3 981.564 153.3C999.564 153.3 1013.06 156.5 1022.06 162.9C1031.06 169.3 1036.96 178.2 1039.76 189.6C1042.56 200.8 1043.96 215.9 1043.96 234.9C1030.36 235.7 1017.06 236.1 1004.06 236.1H961.464C961.464 242.5 962.764 247.3 965.364 250.5C968.164 253.7 972.064 255.8 977.064 256.8C982.064 257.6 989.064 258 998.064 258ZM964.464 189C963.264 189.6 962.364 192.2 961.764 196.8C961.164 201.4 960.764 206.6 960.564 212.4H976.164C985.564 212.4 992.364 212.3 996.564 212.1C996.564 202.5 995.164 195.7 992.364 191.7C989.764 187.7 985.164 185.7 978.564 185.7C973.164 185.7 968.464 186.8 964.464 189ZM1087.22 223.5L1052.72 156H1102.52L1127.42 209.4L1152.62 156H1202.12L1167.92 223.5L1205.42 294H1155.32L1127.42 237L1099.52 294H1049.42L1087.22 223.5ZM1283.89 297.9C1259.89 297.9 1241.89 292.3 1229.89 281.1C1218.09 269.7 1212.19 251.8 1212.19 227.4C1212.19 214 1213.39 202.3 1215.79 192.3C1218.39 182.1 1221.49 175 1225.09 171C1229.69 165.8 1238.09 161.5 1250.29 158.1C1262.69 154.7 1274.29 153 1285.09 153C1310.89 153 1329.29 158.5 1340.29 169.5C1351.29 180.5 1356.79 198.1 1356.79 222.3C1356.79 248.3 1350.89 267.4 1339.09 279.6C1327.29 291.8 1308.89 297.9 1283.89 297.9ZM1284.79 262.8C1292.59 262.8 1297.69 260.1 1300.09 254.7C1302.49 249.1 1303.69 239.3 1303.69 225.3C1303.69 215.5 1303.19 208 1302.19 202.8C1301.19 197.4 1299.29 193.5 1296.49 191.1C1293.89 188.5 1289.79 187.2 1284.19 187.2C1276.19 187.2 1271.59 187.9 1270.39 189.3C1268.79 190.7 1267.49 195.1 1266.49 202.5C1265.49 209.9 1264.99 217.6 1264.99 225.6C1264.99 239.2 1266.29 248.8 1268.89 254.4C1271.69 260 1276.99 262.8 1284.79 262.8ZM1329.49 109.8C1329.69 110.8 1329.79 112.3 1329.79 114.3C1329.79 121.5 1327.49 127.7 1322.89 132.9C1318.49 138.1 1312.29 140.7 1304.29 140.7C1300.89 140.7 1297.59 140.3 1294.39 139.5C1291.19 138.5 1287.19 137.2 1282.39 135.6C1274.99 132.6 1269.29 131.1 1265.29 131.1C1261.89 131.1 1259.59 131.8 1258.39 133.2C1257.19 134.6 1256.59 136.6 1256.59 139.2H1239.19L1238.89 135.6C1238.89 128.6 1240.99 122.3 1245.19 116.7C1249.39 111.1 1255.79 108.3 1264.39 108.3C1267.59 108.3 1270.59 108.7 1273.39 109.5C1276.19 110.1 1279.79 111.2 1284.19 112.8C1291.99 115.8 1298.39 117.3 1303.39 117.3C1309.19 117.3 1312.09 114.8 1312.09 109.8H1329.49ZM1460.08 258C1465.08 258 1474.38 257.5 1487.98 256.5C1489.78 256.5 1493.08 256.3 1497.88 255.9L1502.38 286.8C1486.98 294 1466.98 297.6 1442.38 297.6C1419.38 297.6 1401.68 291.8 1389.28 280.2C1377.08 268.6 1370.98 251.1 1370.98 227.7C1370.98 215.7 1372.48 204.1 1375.48 192.9C1378.68 181.7 1382.28 173.9 1386.28 169.5C1390.48 165.1 1398.28 161.3 1409.68 158.1C1421.08 154.9 1432.38 153.3 1443.58 153.3C1461.58 153.3 1475.08 156.5 1484.08 162.9C1493.08 169.3 1498.98 178.2 1501.78 189.6C1504.58 200.8 1505.98 215.9 1505.98 234.9C1492.38 235.7 1479.08 236.1 1466.08 236.1H1423.48C1423.48 242.5 1424.78 247.3 1427.38 250.5C1430.18 253.7 1434.08 255.8 1439.08 256.8C1444.08 257.6 1451.08 258 1460.08 258ZM1426.48 189C1425.28 189.6 1424.38 192.2 1423.78 196.8C1423.18 201.4 1422.78 206.6 1422.58 212.4H1438.18C1447.58 212.4 1454.38 212.3 1458.58 212.1C1458.58 202.5 1457.18 195.7 1454.38 191.7C1451.78 187.7 1447.18 185.7 1440.58 185.7C1435.18 185.7 1430.48 186.8 1426.48 189ZM1635.63 247.2C1635.63 265 1629.93 277.8 1618.53 285.6C1607.33 293.4 1591.33 297.3 1570.53 297.3C1555.93 297.3 1539.13 295.2 1520.13 291C1520.53 287 1521.43 281.3 1522.83 273.9C1524.43 266.3 1525.73 260.5 1526.73 256.5C1533.93 257.7 1541.93 258.7 1550.73 259.5C1559.53 260.1 1567.03 260.4 1573.23 260.4C1578.63 260.4 1581.93 260.1 1583.13 259.5C1583.33 259.3 1583.53 258.8 1583.73 258C1584.13 257 1584.33 256 1584.33 255C1584.33 251 1581.83 248.3 1576.83 246.9C1575.23 246.5 1569.13 244.8 1558.53 241.8C1547.93 238.8 1539.23 233.4 1532.43 225.6C1525.83 217.6 1522.53 207.7 1522.53 195.9C1522.53 189.7 1523.93 182.8 1526.73 175.2C1529.53 167.6 1532.53 162.8 1535.73 160.8C1538.13 159.2 1543.93 157.6 1553.13 156C1562.33 154.2 1570.83 153.3 1578.63 153.3C1595.23 153.3 1611.93 154.5 1628.73 156.9C1628.73 160.5 1628.23 166.6 1627.23 175.2C1626.23 183.6 1625.33 188.9 1624.53 191.1C1607.53 188.9 1593.83 187.8 1583.43 187.8C1578.03 187.8 1574.53 188.1 1572.93 188.7C1572.53 188.9 1572.13 189.5 1571.73 190.5C1571.33 191.3 1571.13 192.4 1571.13 193.8C1571.13 196.6 1572.03 198.6 1573.83 199.8C1575.63 201.2 1580.33 202.9 1587.93 204.9C1596.93 207.5 1604.63 210.2 1611.03 213C1617.63 215.8 1623.33 220 1628.13 225.6C1633.13 231.2 1635.63 238.4 1635.63 247.2Z"/>
</mask>
<path d="M575.676 288.3C568.276 291.5 559.676 293.8 549.876 295.2C540.076 296.6 530.976 297.3 522.576 297.3C495.376 297.3 474.076 290.2 458.676 276C443.276 261.8 435.576 240 435.576 210.6C435.576 180.6 443.676 158.2 459.876 143.4C476.076 128.4 498.876 120.9 528.276 120.9C542.276 120.9 556.876 122.8 572.076 126.6C572.076 130.6 571.676 136.6 570.876 144.6C570.076 152.4 569.276 157.9 568.476 161.1H549.576C535.776 161.1 524.876 161.4 516.876 162C509.076 162.4 504.376 163.3 502.776 164.7C499.776 167.5 497.476 173.2 495.876 181.8C494.276 190.2 493.476 198.3 493.476 206.1C493.476 219.7 495.176 230.2 498.576 237.6C501.976 244.8 506.276 249.6 511.476 252C516.476 254.4 524.776 255.6 536.376 255.6C545.576 255.6 557.576 254.8 572.376 253.2L575.676 288.3ZM659.284 297.9C635.284 297.9 617.284 292.3 605.284 281.1C593.484 269.7 587.584 251.8 587.584 227.4C587.584 214 588.784 202.3 591.184 192.3C593.784 182.1 596.884 175 600.484 171C605.084 165.8 613.484 161.5 625.684 158.1C638.084 154.7 649.684 153 660.484 153C686.284 153 704.684 158.5 715.684 169.5C726.684 180.5 732.184 198.1 732.184 222.3C732.184 248.3 726.284 267.4 714.484 279.6C702.684 291.8 684.284 297.9 659.284 297.9ZM660.184 262.8C667.984 262.8 673.084 260.1 675.484 254.7C677.884 249.1 679.084 239.3 679.084 225.3C679.084 215.5 678.584 208 677.584 202.8C676.584 197.4 674.684 193.5 671.884 191.1C669.284 188.5 665.184 187.2 659.584 187.2C651.584 187.2 646.984 187.9 645.784 189.3C644.184 190.7 642.884 195.1 641.884 202.5C640.884 209.9 640.384 217.6 640.384 225.6C640.384 239.2 641.684 248.8 644.284 254.4C647.084 260 652.384 262.8 660.184 262.8ZM885.266 164.7C887.066 166.9 888.366 172.4 889.166 181.2C890.166 190 890.666 203.4 890.666 221.4V294H839.366V222V209.7C839.366 203.3 838.866 199.3 837.866 197.7C836.266 195.7 832.566 194.7 826.766 194.7C823.966 194.7 821.866 194.8 820.466 195C814.866 195.2 809.066 196.5 803.066 198.9V294H751.766V156H793.466L799.166 179.1C813.566 161.7 830.766 153 850.766 153C857.966 153 864.666 154 870.866 156C877.266 158 882.066 160.9 885.266 164.7ZM998.064 258C1003.06 258 1012.36 257.5 1025.96 256.5C1027.76 256.5 1031.06 256.3 1035.86 255.9L1040.36 286.8C1024.96 294 1004.96 297.6 980.364 297.6C957.364 297.6 939.664 291.8 927.264 280.2C915.064 268.6 908.964 251.1 908.964 227.7C908.964 215.7 910.464 204.1 913.464 192.9C916.664 181.7 920.264 173.9 924.264 169.5C928.464 165.1 936.264 161.3 947.664 158.1C959.064 154.9 970.364 153.3 981.564 153.3C999.564 153.3 1013.06 156.5 1022.06 162.9C1031.06 169.3 1036.96 178.2 1039.76 189.6C1042.56 200.8 1043.96 215.9 1043.96 234.9C1030.36 235.7 1017.06 236.1 1004.06 236.1H961.464C961.464 242.5 962.764 247.3 965.364 250.5C968.164 253.7 972.064 255.8 977.064 256.8C982.064 257.6 989.064 258 998.064 258ZM964.464 189C963.264 189.6 962.364 192.2 961.764 196.8C961.164 201.4 960.764 206.6 960.564 212.4H976.164C985.564 212.4 992.364 212.3 996.564 212.1C996.564 202.5 995.164 195.7 992.364 191.7C989.764 187.7 985.164 185.7 978.564 185.7C973.164 185.7 968.464 186.8 964.464 189ZM1087.22 223.5L1052.72 156H1102.52L1127.42 209.4L1152.62 156H1202.12L1167.92 223.5L1205.42 294H1155.32L1127.42 237L1099.52 294H1049.42L1087.22 223.5ZM1283.89 297.9C1259.89 297.9 1241.89 292.3 1229.89 281.1C1218.09 269.7 1212.19 251.8 1212.19 227.4C1212.19 214 1213.39 202.3 1215.79 192.3C1218.39 182.1 1221.49 175 1225.09 171C1229.69 165.8 1238.09 161.5 1250.29 158.1C1262.69 154.7 1274.29 153 1285.09 153C1310.89 153 1329.29 158.5 1340.29 169.5C1351.29 180.5 1356.79 198.1 1356.79 222.3C1356.79 248.3 1350.89 267.4 1339.09 279.6C1327.29 291.8 1308.89 297.9 1283.89 297.9ZM1284.79 262.8C1292.59 262.8 1297.69 260.1 1300.09 254.7C1302.49 249.1 1303.69 239.3 1303.69 225.3C1303.69 215.5 1303.19 208 1302.19 202.8C1301.19 197.4 1299.29 193.5 1296.49 191.1C1293.89 188.5 1289.79 187.2 1284.19 187.2C1276.19 187.2 1271.59 187.9 1270.39 189.3C1268.79 190.7 1267.49 195.1 1266.49 202.5C1265.49 209.9 1264.99 217.6 1264.99 225.6C1264.99 239.2 1266.29 248.8 1268.89 254.4C1271.69 260 1276.99 262.8 1284.79 262.8ZM1329.49 109.8C1329.69 110.8 1329.79 112.3 1329.79 114.3C1329.79 121.5 1327.49 127.7 1322.89 132.9C1318.49 138.1 1312.29 140.7 1304.29 140.7C1300.89 140.7 1297.59 140.3 1294.39 139.5C1291.19 138.5 1287.19 137.2 1282.39 135.6C1274.99 132.6 1269.29 131.1 1265.29 131.1C1261.89 131.1 1259.59 131.8 1258.39 133.2C1257.19 134.6 1256.59 136.6 1256.59 139.2H1239.19L1238.89 135.6C1238.89 128.6 1240.99 122.3 1245.19 116.7C1249.39 111.1 1255.79 108.3 1264.39 108.3C1267.59 108.3 1270.59 108.7 1273.39 109.5C1276.19 110.1 1279.79 111.2 1284.19 112.8C1291.99 115.8 1298.39 117.3 1303.39 117.3C1309.19 117.3 1312.09 114.8 1312.09 109.8H1329.49ZM1460.08 258C1465.08 258 1474.38 257.5 1487.98 256.5C1489.78 256.5 1493.08 256.3 1497.88 255.9L1502.38 286.8C1486.98 294 1466.98 297.6 1442.38 297.6C1419.38 297.6 1401.68 291.8 1389.28 280.2C1377.08 268.6 1370.98 251.1 1370.98 227.7C1370.98 215.7 1372.48 204.1 1375.48 192.9C1378.68 181.7 1382.28 173.9 1386.28 169.5C1390.48 165.1 1398.28 161.3 1409.68 158.1C1421.08 154.9 1432.38 153.3 1443.58 153.3C1461.58 153.3 1475.08 156.5 1484.08 162.9C1493.08 169.3 1498.98 178.2 1501.78 189.6C1504.58 200.8 1505.98 215.9 1505.98 234.9C1492.38 235.7 1479.08 236.1 1466.08 236.1H1423.48C1423.48 242.5 1424.78 247.3 1427.38 250.5C1430.18 253.7 1434.08 255.8 1439.08 256.8C1444.08 257.6 1451.08 258 1460.08 258ZM1426.48 189C1425.28 189.6 1424.38 192.2 1423.78 196.8C1423.18 201.4 1422.78 206.6 1422.58 212.4H1438.18C1447.58 212.4 1454.38 212.3 1458.58 212.1C1458.58 202.5 1457.18 195.7 1454.38 191.7C1451.78 187.7 1447.18 185.7 1440.58 185.7C1435.18 185.7 1430.48 186.8 1426.48 189ZM1635.63 247.2C1635.63 265 1629.93 277.8 1618.53 285.6C1607.33 293.4 1591.33 297.3 1570.53 297.3C1555.93 297.3 1539.13 295.2 1520.13 291C1520.53 287 1521.43 281.3 1522.83 273.9C1524.43 266.3 1525.73 260.5 1526.73 256.5C1533.93 257.7 1541.93 258.7 1550.73 259.5C1559.53 260.1 1567.03 260.4 1573.23 260.4C1578.63 260.4 1581.93 260.1 1583.13 259.5C1583.33 259.3 1583.53 258.8 1583.73 258C1584.13 257 1584.33 256 1584.33 255C1584.33 251 1581.83 248.3 1576.83 246.9C1575.23 246.5 1569.13 244.8 1558.53 241.8C1547.93 238.8 1539.23 233.4 1532.43 225.6C1525.83 217.6 1522.53 207.7 1522.53 195.9C1522.53 189.7 1523.93 182.8 1526.73 175.2C1529.53 167.6 1532.53 162.8 1535.73 160.8C1538.13 159.2 1543.93 157.6 1553.13 156C1562.33 154.2 1570.83 153.3 1578.63 153.3C1595.23 153.3 1611.93 154.5 1628.73 156.9C1628.73 160.5 1628.23 166.6 1627.23 175.2C1626.23 183.6 1625.33 188.9 1624.53 191.1C1607.53 188.9 1593.83 187.8 1583.43 187.8C1578.03 187.8 1574.53 188.1 1572.93 188.7C1572.53 188.9 1572.13 189.5 1571.73 190.5C1571.33 191.3 1571.13 192.4 1571.13 193.8C1571.13 196.6 1572.03 198.6 1573.83 199.8C1575.63 201.2 1580.33 202.9 1587.93 204.9C1596.93 207.5 1604.63 210.2 1611.03 213C1617.63 215.8 1623.33 220 1628.13 225.6C1633.13 231.2 1635.63 238.4 1635.63 247.2Z" fill="#F7374F"/>
<path d="M575.676 288.3L585.995 312.164C596.332 307.694 602.616 297.078 601.561 285.866L575.676 288.3ZM549.876 295.2L546.199 269.461L549.876 295.2ZM458.676 276L441.051 295.114H441.051L458.676 276ZM459.876 143.4L477.412 162.595C477.455 162.556 477.498 162.517 477.54 162.478L459.876 143.4ZM572.076 126.6H598.076C598.076 114.669 589.956 104.27 578.381 101.376L572.076 126.6ZM570.876 144.6L596.74 147.253C596.742 147.231 596.744 147.209 596.747 147.187L570.876 144.6ZM568.476 161.1V187.1C580.406 187.1 590.806 178.98 593.699 167.406L568.476 161.1ZM516.876 162L518.207 187.966C518.412 187.955 518.616 187.942 518.82 187.927L516.876 162ZM502.776 164.7L485.654 145.133C485.445 145.316 485.239 145.503 485.035 145.693L502.776 164.7ZM495.876 181.8L521.416 186.665C521.423 186.628 521.43 186.592 521.437 186.556L495.876 181.8ZM498.576 237.6L474.95 248.455C474.988 248.538 475.026 248.62 475.065 248.702L498.576 237.6ZM511.476 252L522.727 228.56C522.608 228.504 522.49 228.448 522.371 228.393L511.476 252ZM572.376 253.2L598.261 250.766C597.61 243.838 594.209 237.461 588.819 233.06C583.428 228.659 576.499 226.603 569.581 227.351L572.376 253.2ZM575.676 288.3L565.356 264.436C560.494 266.538 554.209 268.317 546.199 269.461L549.876 295.2L553.553 320.939C565.142 319.283 576.057 316.462 585.995 312.164L575.676 288.3ZM549.876 295.2L546.199 269.461C537.408 270.717 529.551 271.3 522.576 271.3V297.3V323.3C532.4 323.3 542.743 322.483 553.553 320.939L549.876 295.2ZM522.576 297.3V271.3C499.899 271.3 485.603 265.463 476.301 256.886L458.676 276L441.051 295.114C462.549 314.937 490.852 323.3 522.576 323.3V297.3ZM458.676 276L476.301 256.886C468.109 249.332 461.576 235.748 461.576 210.6H435.576H409.576C409.576 244.252 418.442 274.268 441.051 295.114L458.676 276ZM435.576 210.6H461.576C461.576 185.118 468.365 170.861 477.412 162.595L459.876 143.4L442.339 124.204C418.986 145.539 409.576 176.082 409.576 210.6H435.576ZM459.876 143.4L477.54 162.478C487.522 153.236 503.206 146.9 528.276 146.9V120.9V94.9C494.545 94.9 464.629 103.564 442.211 124.322L459.876 143.4ZM528.276 120.9V146.9C539.915 146.9 552.391 148.479 565.77 151.824L572.076 126.6L578.381 101.376C561.36 97.121 544.636 94.9 528.276 94.9V120.9ZM572.076 126.6H546.076C546.076 129.253 545.786 134.198 545.005 142.013L570.876 144.6L596.747 147.187C597.565 139.002 598.076 131.947 598.076 126.6H572.076ZM570.876 144.6L545.011 141.947C544.213 149.729 543.556 153.577 543.252 154.794L568.476 161.1L593.699 167.406C594.995 162.223 595.938 155.071 596.74 147.253L570.876 144.6ZM568.476 161.1V135.1H549.576V161.1V187.1H568.476V161.1ZM549.576 161.1V135.1C535.516 135.1 523.876 135.402 514.931 136.073L516.876 162L518.82 187.927C525.876 187.398 536.035 187.1 549.576 187.1V161.1ZM516.876 162L515.544 136.034C511.094 136.262 506.634 136.669 502.611 137.439C500.09 137.922 492.196 139.409 485.654 145.133L502.776 164.7L519.897 184.267C518.289 185.674 516.814 186.572 515.819 187.106C514.801 187.652 513.974 187.984 513.473 188.167C512.528 188.512 512.058 188.575 512.39 188.511C512.653 188.461 513.258 188.362 514.296 188.254C515.315 188.148 516.607 188.048 518.207 187.966L516.876 162ZM502.776 164.7L485.035 145.693C475.388 154.697 472.001 167.98 470.314 177.044L495.876 181.8L521.437 186.556C521.729 184.986 522.021 183.725 522.291 182.735C522.563 181.736 522.785 181.118 522.912 180.804C523.044 180.477 523.011 180.633 522.719 181.1C522.432 181.562 521.748 182.557 520.516 183.707L502.776 164.7ZM495.876 181.8L470.335 176.935C468.458 186.787 467.476 196.52 467.476 206.1H493.476H519.476C519.476 200.08 520.093 193.613 521.416 186.665L495.876 181.8ZM493.476 206.1H467.476C467.476 221.258 469.275 236.104 474.95 248.455L498.576 237.6L522.201 226.745C521.076 224.296 519.476 218.142 519.476 206.1H493.476ZM498.576 237.6L475.065 248.702C480.063 259.285 488.015 269.808 500.58 275.607L511.476 252L522.371 228.393C523.372 228.855 523.796 229.34 523.716 229.252C523.582 229.102 522.955 228.338 522.086 226.498L498.576 237.6ZM511.476 252L500.225 275.44C510.85 280.54 524.23 281.6 536.376 281.6V255.6V229.6C531.386 229.6 527.723 229.337 525.171 228.968C522.439 228.573 521.961 228.193 522.727 228.56L511.476 252ZM536.376 255.6V281.6C546.899 281.6 559.933 280.697 575.17 279.049L572.376 253.2L569.581 227.351C555.218 228.903 544.252 229.6 536.376 229.6V255.6ZM572.376 253.2L546.49 255.634L549.79 290.734L575.676 288.3L601.561 285.866L598.261 250.766L572.376 253.2ZM605.284 281.1L587.219 299.799C587.326 299.903 587.435 300.006 587.544 300.107L605.284 281.1ZM591.184 192.3L565.99 185.878C565.96 185.996 565.93 186.114 565.902 186.232L591.184 192.3ZM600.484 171L619.81 188.393C619.859 188.338 619.909 188.283 619.958 188.227L600.484 171ZM625.684 158.1L618.809 133.025C618.774 133.035 618.739 133.045 618.704 133.054L625.684 158.1ZM714.484 279.6L733.173 297.676V297.676L714.484 279.6ZM675.484 254.7L699.243 265.26C699.29 265.154 699.336 265.048 699.382 264.942L675.484 254.7ZM677.584 202.8L652.019 207.534C652.03 207.593 652.041 207.652 652.052 207.71L677.584 202.8ZM671.884 191.1L653.499 209.485C653.97 209.955 654.458 210.408 654.964 210.841L671.884 191.1ZM645.784 189.3L662.905 208.867C663.841 208.049 664.716 207.164 665.525 206.221L645.784 189.3ZM641.884 202.5L667.65 205.982V205.982L641.884 202.5ZM644.284 254.4L620.702 265.349C620.808 265.577 620.917 265.803 621.029 266.028L644.284 254.4ZM659.284 297.9V271.9C638.863 271.9 628.389 267.099 623.024 262.093L605.284 281.1L587.544 300.107C606.18 317.501 631.705 323.9 659.284 323.9V297.9ZM605.284 281.1L623.349 262.401C618.644 257.856 613.584 248.173 613.584 227.4H587.584H561.584C561.584 255.427 568.324 281.544 587.219 299.799L605.284 281.1ZM587.584 227.4H613.584C613.584 215.465 614.662 205.887 616.466 198.368L591.184 192.3L565.902 186.232C562.907 198.713 561.584 212.535 561.584 227.4H587.584ZM591.184 192.3L616.379 198.722C617.446 194.536 618.458 191.627 619.287 189.729C620.168 187.711 620.499 187.627 619.81 188.393L600.484 171L581.159 153.607C573.152 162.503 568.816 174.792 565.99 185.878L591.184 192.3ZM600.484 171L619.958 188.227C619.487 188.76 619.799 188.187 622.082 187.019C624.303 185.882 627.715 184.525 632.664 183.146L625.684 158.1L618.704 133.054C605.101 136.845 590.692 142.828 581.01 153.773L600.484 171ZM625.684 158.1L632.559 183.174C643.131 180.276 652.399 179 660.484 179V153V127C646.97 127 633.037 129.124 618.809 133.025L625.684 158.1ZM660.484 153V179C683.691 179 693.549 184.134 697.299 187.885L715.684 169.5L734.069 151.115C715.82 132.866 688.877 127 660.484 127V153ZM715.684 169.5L697.299 187.885C701.302 191.887 706.184 201.265 706.184 222.3H732.184H758.184C758.184 194.935 752.067 169.113 734.069 151.115L715.684 169.5ZM732.184 222.3H706.184C706.184 245.052 700.936 256.21 695.796 261.524L714.484 279.6L733.173 297.676C751.633 278.59 758.184 251.548 758.184 222.3H732.184ZM714.484 279.6L695.796 261.524C690.808 266.681 680.572 271.9 659.284 271.9V297.9V323.9C687.996 323.9 714.56 316.919 733.173 297.676L714.484 279.6ZM660.184 262.8V288.8C666.9 288.8 674.642 287.662 682.024 283.753C689.853 279.609 695.74 273.142 699.243 265.26L675.484 254.7L651.725 244.14C652.203 243.066 652.965 241.805 654.1 240.579C655.241 239.347 656.501 238.428 657.694 237.797C659.976 236.588 661.268 236.8 660.184 236.8V262.8ZM675.484 254.7L699.382 264.942C704.071 254.001 705.084 239.412 705.084 225.3H679.084H653.084C653.084 231.642 652.808 236.47 652.377 239.99C651.915 243.762 651.408 244.873 651.586 244.458L675.484 254.7ZM679.084 225.3H705.084C705.084 214.99 704.587 205.535 703.116 197.89L677.584 202.8L652.052 207.71C652.582 210.465 653.084 216.01 653.084 225.3H679.084ZM677.584 202.8L703.149 198.066C701.577 189.572 697.86 179.121 688.805 171.359L671.884 191.1L654.964 210.841C653.231 209.355 652.372 207.902 652.035 207.212C651.728 206.581 651.838 206.56 652.019 207.534L677.584 202.8ZM671.884 191.1L690.269 172.715C680.758 163.204 668.538 161.2 659.584 161.2V187.2V213.2C660.476 213.2 660.127 213.316 659.001 212.959C657.754 212.564 655.607 211.593 653.499 209.485L671.884 191.1ZM659.584 187.2V161.2C655.062 161.2 650.414 161.383 646.223 162.021C644.146 162.337 641.384 162.879 638.47 163.934C636.035 164.816 630.611 167.05 626.043 172.379L645.784 189.3L665.525 206.221C663.397 208.703 661.213 210.241 659.73 211.127C658.221 212.028 656.945 212.549 656.173 212.828C654.709 213.358 653.822 213.463 654.046 213.429C654.454 213.367 656.106 213.2 659.584 213.2V187.2ZM645.784 189.3L628.663 169.733C621.807 175.732 619.441 183.689 618.675 186.283C617.49 190.292 616.701 194.71 616.118 199.018L641.884 202.5L667.65 205.982C667.848 204.518 668.039 203.365 668.21 202.487C668.386 201.587 668.51 201.131 668.544 201.017C668.598 200.833 668.433 201.465 667.896 202.54C667.612 203.107 667.135 203.979 666.405 205.008C665.685 206.023 664.554 207.424 662.905 208.867L645.784 189.3ZM641.884 202.5L616.118 199.018C614.952 207.651 614.384 216.517 614.384 225.6H640.384H666.384C666.384 218.683 666.816 212.149 667.65 205.982L641.884 202.5ZM640.384 225.6H614.384C614.384 239.498 615.505 254.156 620.702 265.349L644.284 254.4L667.866 243.451C668.103 243.961 667.599 243.021 667.124 239.511C666.679 236.225 666.384 231.66 666.384 225.6H640.384ZM644.284 254.4L621.029 266.028C629.396 282.762 645.437 288.8 660.184 288.8V262.8V236.8C659.283 236.8 660.454 236.628 662.504 237.711C663.55 238.264 664.615 239.038 665.569 240.027C666.515 241.009 667.146 241.987 667.539 242.772L644.284 254.4ZM885.266 164.7L905.389 148.236C905.311 148.141 905.233 148.046 905.154 147.952L885.266 164.7ZM889.166 181.2L863.273 183.554C863.291 183.748 863.31 183.942 863.332 184.136L889.166 181.2ZM890.666 294V320C905.026 320 916.666 308.359 916.666 294H890.666ZM839.366 294H813.366C813.366 308.359 825.007 320 839.366 320V294ZM837.866 197.7L859.914 183.92C859.381 183.066 858.798 182.244 858.169 181.458L837.866 197.7ZM820.466 195L821.394 220.983C822.314 220.951 823.232 220.869 824.143 220.739L820.466 195ZM803.066 198.9L793.41 174.76C783.539 178.708 777.066 188.268 777.066 198.9H803.066ZM803.066 294V320C817.426 320 829.066 308.359 829.066 294H803.066ZM751.766 294H725.766C725.766 308.359 737.407 320 751.766 320V294ZM751.766 156V130C737.407 130 725.766 141.641 725.766 156H751.766ZM793.466 156L818.709 149.771C815.844 138.159 805.426 130 793.466 130V156ZM799.166 179.1L773.923 185.329C776.276 194.863 783.8 202.258 793.373 204.446C802.946 206.634 812.935 203.242 819.196 195.677L799.166 179.1ZM870.866 156L862.884 180.744C862.96 180.769 863.035 180.793 863.111 180.816L870.866 156ZM885.266 164.7L865.143 181.164C864.195 180.005 863.563 178.981 863.172 178.274C862.775 177.558 862.532 176.998 862.404 176.679C862.165 176.086 862.164 175.931 862.288 176.456C862.402 176.935 862.566 177.757 862.748 178.996C862.928 180.221 863.107 181.73 863.273 183.554L889.166 181.2L915.059 178.846C914.603 173.823 913.937 168.907 912.894 164.494C912.061 160.972 910.221 154.141 905.389 148.236L885.266 164.7ZM889.166 181.2L863.332 184.136C864.159 191.409 864.666 203.598 864.666 221.4H890.666H916.666C916.666 203.202 916.173 188.591 915 178.264L889.166 181.2ZM890.666 221.4H864.666V294H890.666H916.666V221.4H890.666ZM890.666 294V268H839.366V294V320H890.666V294ZM839.366 294H865.366V222H839.366H813.366V294H839.366ZM839.366 222H865.366V209.7H839.366H813.366V222H839.366ZM839.366 209.7H865.366C865.366 205.969 865.228 202.177 864.79 198.675C864.486 196.24 863.645 189.889 859.914 183.92L837.866 197.7L815.818 211.48C814.938 210.072 814.388 208.849 814.058 208.021C813.722 207.174 813.52 206.498 813.408 206.077C813.194 205.28 813.162 204.887 813.192 205.125C813.215 205.312 813.263 205.78 813.302 206.599C813.341 207.401 813.366 208.426 813.366 209.7H839.366ZM837.866 197.7L858.169 181.458C852.586 174.48 845.346 171.613 840.675 170.351C835.792 169.031 830.913 168.7 826.766 168.7V194.7V220.7C828.42 220.7 828.291 220.869 827.108 220.549C826.136 220.287 821.546 218.92 817.564 213.942L837.866 197.7ZM826.766 194.7V168.7C823.681 168.7 820.079 168.791 816.789 169.261L820.466 195L824.143 220.739C823.748 220.795 823.743 220.773 824.328 220.746C824.857 220.72 825.653 220.7 826.766 220.7V194.7ZM820.466 195L819.538 169.017C810.524 169.338 801.772 171.415 793.41 174.76L803.066 198.9L812.722 223.04C816.36 221.585 819.208 221.061 821.394 220.983L820.466 195ZM803.066 198.9H777.066V294H803.066H829.066V198.9H803.066ZM803.066 294V268H751.766V294V320H803.066V294ZM751.766 294H777.766V156H751.766H725.766V294H751.766ZM751.766 156V182H793.466V156V130H751.766V156ZM793.466 156L768.223 162.229L773.923 185.329L799.166 179.1L824.409 172.871L818.709 149.771L793.466 156ZM799.166 179.1L819.196 195.677C829.376 183.377 839.574 179 850.766 179V153V127C821.958 127 797.757 140.023 779.136 162.523L799.166 179.1ZM850.766 153V179C855.539 179 859.519 179.659 862.884 180.744L870.866 156L878.848 131.256C869.813 128.341 860.393 127 850.766 127V153ZM870.866 156L863.111 180.816C866.388 181.84 866.306 182.548 865.379 181.448L885.266 164.7L905.154 147.952C897.827 139.252 888.145 134.16 878.621 131.184L870.866 156ZM1025.96 256.5V230.5C1025.33 230.5 1024.69 230.523 1024.06 230.57L1025.96 256.5ZM1035.86 255.9L1061.59 252.153C1059.61 238.557 1047.4 228.849 1033.7 229.99L1035.86 255.9ZM1040.36 286.8L1051.38 310.353C1061.77 305.495 1067.75 294.403 1066.09 283.053L1040.36 286.8ZM927.264 280.2L909.348 299.042C909.399 299.091 909.45 299.139 909.502 299.187L927.264 280.2ZM913.464 192.9L888.464 185.757C888.425 185.895 888.386 186.034 888.349 186.173L913.464 192.9ZM924.264 169.5L905.457 151.548C905.311 151.7 905.167 151.854 905.025 152.011L924.264 169.5ZM947.664 158.1L954.69 183.132V183.132L947.664 158.1ZM1022.06 162.9L1007 184.089V184.089L1022.06 162.9ZM1039.76 189.6L1014.51 195.802C1014.52 195.836 1014.53 195.871 1014.54 195.906L1039.76 189.6ZM1043.96 234.9L1045.49 260.855C1059.23 260.047 1069.96 248.666 1069.96 234.9H1043.96ZM961.464 236.1V210.1C947.104 210.1 935.464 221.741 935.464 236.1H961.464ZM965.364 250.5L945.185 266.895C945.384 267.141 945.588 267.383 945.797 267.621L965.364 250.5ZM977.064 256.8L971.965 282.295C972.294 282.361 972.625 282.42 972.956 282.473L977.064 256.8ZM964.464 189L976.091 212.255C976.395 212.103 976.696 211.945 976.994 211.782L964.464 189ZM961.764 196.8L987.545 200.163V200.163L961.764 196.8ZM960.564 212.4L934.579 211.504C934.336 218.551 936.966 225.394 941.865 230.465C946.764 235.536 953.513 238.4 960.564 238.4V212.4ZM996.564 212.1L997.801 238.071C1011.66 237.41 1022.56 225.979 1022.56 212.1H996.564ZM992.364 191.7L970.564 205.87C970.727 206.119 970.893 206.366 971.064 206.61L992.364 191.7ZM998.064 258V284C1004.15 284 1014.36 283.423 1027.87 282.43L1025.96 256.5L1024.06 230.57C1010.37 231.577 1001.97 232 998.064 232V258ZM1025.96 256.5V282.5C1028.99 282.5 1033.31 282.203 1038.02 281.81L1035.86 255.9L1033.7 229.99C1031.42 230.18 1029.6 230.313 1028.22 230.398C1027.52 230.439 1026.98 230.466 1026.58 230.482C1026.37 230.49 1026.22 230.495 1026.11 230.497C1026 230.5 1025.95 230.5 1025.96 230.5V256.5ZM1035.86 255.9L1010.14 259.647L1014.64 290.547L1040.36 286.8L1066.09 283.053L1061.59 252.153L1035.86 255.9ZM1040.36 286.8L1029.35 263.247C1018.59 268.281 1002.73 271.6 980.364 271.6V297.6V323.6C1007.2 323.6 1031.34 319.719 1051.38 310.353L1040.36 286.8ZM980.364 297.6V271.6C961.581 271.6 951.115 266.909 945.026 261.213L927.264 280.2L909.502 299.187C928.212 316.691 953.146 323.6 980.364 323.6V297.6ZM927.264 280.2L945.179 261.358C939.895 256.333 934.964 246.826 934.964 227.7H908.964H882.964C882.964 255.374 890.232 280.867 909.348 299.042L927.264 280.2ZM908.964 227.7H934.964C934.964 217.892 936.186 208.557 938.578 199.627L913.464 192.9L888.349 186.173C884.741 199.643 882.964 213.508 882.964 227.7H908.964ZM913.464 192.9L938.463 200.043C939.816 195.308 941.088 191.892 942.171 189.546C943.308 187.081 943.886 186.567 943.502 186.989L924.264 169.5L905.025 152.011C896.818 161.039 891.904 173.717 888.464 185.757L913.464 192.9ZM924.264 169.5L943.071 187.452C942.34 188.219 942.44 187.801 944.651 186.724C946.749 185.702 949.989 184.452 954.69 183.132L947.664 158.1L940.637 133.068C928.268 136.54 914.705 141.859 905.457 151.548L924.264 169.5ZM947.664 158.1L954.69 183.132C963.934 180.538 972.871 179.3 981.564 179.3V153.3V127.3C967.856 127.3 954.193 129.262 940.637 133.068L947.664 158.1ZM981.564 153.3V179.3C997.27 179.3 1004.39 182.234 1007 184.089L1022.06 162.9L1037.13 141.711C1021.74 130.766 1001.86 127.3 981.564 127.3V153.3ZM1022.06 162.9L1007 184.089C1010.58 186.636 1013.1 190.043 1014.51 195.802L1039.76 189.6L1065.01 183.398C1060.83 166.357 1051.55 151.964 1037.13 141.711L1022.06 162.9ZM1039.76 189.6L1014.54 195.906C1016.6 204.15 1017.96 216.849 1017.96 234.9H1043.96H1069.96C1069.96 214.951 1068.53 197.45 1064.99 183.294L1039.76 189.6ZM1043.96 234.9L1042.44 208.945C1029.32 209.716 1016.53 210.1 1004.06 210.1V236.1V262.1C1017.6 262.1 1031.41 261.684 1045.49 260.855L1043.96 234.9ZM1004.06 236.1V210.1H961.464V236.1V262.1H1004.06V236.1ZM961.464 236.1H935.464C935.464 245.349 937.234 257.11 945.185 266.895L965.364 250.5L985.543 234.105C986.956 235.845 987.427 237.304 987.535 237.703C987.628 238.047 987.464 237.625 987.464 236.1H961.464ZM965.364 250.5L945.797 267.621C953.074 275.937 962.505 280.403 971.965 282.295L977.064 256.8L982.163 231.305C981.814 231.235 982.086 231.244 982.715 231.583C983.389 231.945 984.197 232.54 984.931 233.379L965.364 250.5ZM977.064 256.8L972.956 282.473C979.972 283.596 988.57 284 998.064 284V258V232C989.558 232 984.156 231.604 981.172 231.127L977.064 256.8ZM964.464 189L952.836 165.745C942.305 171.011 938.997 180.936 938.319 182.895C937.032 186.613 936.378 190.403 935.982 193.437L961.764 196.8L987.545 200.163C987.75 198.597 987.845 198.787 987.458 199.905C987.259 200.481 986.663 202.101 985.357 204.09C984.116 205.982 981.281 209.66 976.091 212.255L964.464 189ZM961.764 196.8L935.982 193.437C935.253 199.028 934.801 205.074 934.579 211.504L960.564 212.4L986.548 213.296C986.727 208.126 987.075 203.772 987.545 200.163L961.764 196.8ZM960.564 212.4V238.4H976.164V212.4V186.4H960.564V212.4ZM976.164 212.4V238.4C985.601 238.4 992.934 238.302 997.801 238.071L996.564 212.1L995.327 186.129C991.794 186.298 985.527 186.4 976.164 186.4V212.4ZM996.564 212.1H1022.56C1022.56 201.481 1021.31 187.708 1013.66 176.79L992.364 191.7L971.064 206.61C970.373 205.623 970.063 204.889 969.969 204.649C969.875 204.407 969.936 204.498 970.048 205.043C970.287 206.204 970.564 208.445 970.564 212.1H996.564ZM992.364 191.7L1014.16 177.53C1005.05 163.506 990.258 159.7 978.564 159.7V185.7V211.7C979.369 211.7 978.426 211.839 976.597 211.044C974.473 210.12 972.191 208.372 970.564 205.87L992.364 191.7ZM978.564 185.7V159.7C969.585 159.7 960.419 161.551 951.934 166.218L964.464 189L976.994 211.782C976.802 211.887 976.738 211.882 976.914 211.841C977.108 211.795 977.626 211.7 978.564 211.7V185.7ZM1087.22 223.5L1110.13 235.786C1114.16 228.272 1114.25 219.259 1110.37 211.667L1087.22 223.5ZM1052.72 156V130C1043.67 130 1035.27 134.708 1030.54 142.429C1025.82 150.15 1025.45 159.773 1029.57 167.833L1052.72 156ZM1102.52 156L1126.08 145.012C1121.81 135.854 1112.62 130 1102.52 130V156ZM1127.42 209.4L1103.86 220.388C1108.12 229.526 1117.28 235.377 1127.36 235.4C1137.44 235.423 1146.63 229.615 1150.93 220.496L1127.42 209.4ZM1152.62 156V130C1142.56 130 1133.4 135.805 1129.11 144.904L1152.62 156ZM1202.12 156L1225.31 167.751C1229.4 159.691 1229 150.089 1224.27 142.39C1219.54 134.691 1211.16 130 1202.12 130V156ZM1167.92 223.5L1144.73 211.749C1140.9 219.299 1140.99 228.238 1144.97 235.71L1167.92 223.5ZM1205.42 294V320C1214.55 320 1223.01 315.214 1227.71 307.389C1232.41 299.565 1232.66 289.849 1228.37 281.79L1205.42 294ZM1155.32 294L1131.97 305.43C1136.33 314.347 1145.39 320 1155.32 320V294ZM1127.42 237L1150.77 225.57C1146.41 216.653 1137.35 211 1127.42 211C1117.49 211 1108.43 216.653 1104.07 225.57L1127.42 237ZM1099.52 294V320C1109.45 320 1118.51 314.347 1122.87 305.43L1099.52 294ZM1049.42 294L1026.51 281.714C1022.19 289.772 1022.42 299.507 1027.11 307.352C1031.81 315.198 1040.28 320 1049.42 320V294ZM1087.22 223.5L1110.37 211.667L1075.87 144.167L1052.72 156L1029.57 167.833L1064.07 235.333L1087.22 223.5ZM1052.72 156V182H1102.52V156V130H1052.72V156ZM1102.52 156L1078.96 166.988L1103.86 220.388L1127.42 209.4L1150.98 198.412L1126.08 145.012L1102.52 156ZM1127.42 209.4L1150.93 220.496L1176.13 167.096L1152.62 156L1129.11 144.904L1103.91 198.304L1127.42 209.4ZM1152.62 156V182H1202.12V156V130H1152.62V156ZM1202.12 156L1178.93 144.249L1144.73 211.749L1167.92 223.5L1191.11 235.251L1225.31 167.751L1202.12 156ZM1167.92 223.5L1144.97 235.71L1182.47 306.21L1205.42 294L1228.37 281.79L1190.87 211.29L1167.92 223.5ZM1205.42 294V268H1155.32V294V320H1205.42V294ZM1155.32 294L1178.67 282.57L1150.77 225.57L1127.42 237L1104.07 248.43L1131.97 305.43L1155.32 294ZM1127.42 237L1104.07 225.57L1076.17 282.57L1099.52 294L1122.87 305.43L1150.77 248.43L1127.42 237ZM1099.52 294V268H1049.42V294V320H1099.52V294ZM1049.42 294L1072.33 306.286L1110.13 235.786L1087.22 223.5L1064.31 211.214L1026.51 281.714L1049.42 294ZM1229.89 281.1L1211.83 299.799C1211.94 299.903 1212.04 300.006 1212.15 300.107L1229.89 281.1ZM1215.79 192.3L1190.6 185.878C1190.57 185.996 1190.54 186.114 1190.51 186.232L1215.79 192.3ZM1225.09 171L1244.42 188.393C1244.47 188.338 1244.52 188.283 1244.57 188.227L1225.09 171ZM1250.29 158.1L1243.42 133.025C1243.38 133.035 1243.35 133.045 1243.31 133.054L1250.29 158.1ZM1339.09 279.6L1357.78 297.676V297.676L1339.09 279.6ZM1300.09 254.7L1323.85 265.26C1323.9 265.154 1323.95 265.048 1323.99 264.942L1300.09 254.7ZM1302.19 202.8L1276.63 207.534C1276.64 207.593 1276.65 207.652 1276.66 207.71L1302.19 202.8ZM1296.49 191.1L1278.11 209.485C1278.58 209.955 1279.07 210.408 1279.57 210.841L1296.49 191.1ZM1270.39 189.3L1287.51 208.867C1288.45 208.049 1289.33 207.164 1290.13 206.221L1270.39 189.3ZM1266.49 202.5L1292.26 205.982V205.982L1266.49 202.5ZM1268.89 254.4L1245.31 265.349C1245.42 265.577 1245.53 265.803 1245.64 266.028L1268.89 254.4ZM1329.49 109.8L1354.99 104.701C1352.56 92.548 1341.89 83.8 1329.49 83.8V109.8ZM1322.89 132.9L1303.42 115.673C1303.29 115.816 1303.17 115.96 1303.05 116.105L1322.89 132.9ZM1294.39 139.5L1286.64 164.316C1287.12 164.466 1287.6 164.602 1288.09 164.724L1294.39 139.5ZM1282.39 135.6L1272.63 159.695C1273.13 159.902 1273.65 160.092 1274.17 160.266L1282.39 135.6ZM1258.39 133.2L1278.13 150.121L1278.13 150.121L1258.39 133.2ZM1256.59 139.2V165.2C1270.95 165.2 1282.59 153.559 1282.59 139.2H1256.59ZM1239.19 139.2L1213.28 141.359C1214.41 154.835 1225.67 165.2 1239.19 165.2V139.2ZM1238.89 135.6H1212.89C1212.89 136.321 1212.92 137.041 1212.98 137.759L1238.89 135.6ZM1273.39 109.5L1266.25 134.5C1266.81 134.66 1267.38 134.801 1267.95 134.923L1273.39 109.5ZM1284.19 112.8L1293.53 88.533C1293.38 88.4758 1293.23 88.4199 1293.08 88.3654L1284.19 112.8ZM1312.09 109.8V83.8C1297.73 83.8 1286.09 95.4406 1286.09 109.8H1312.09ZM1283.89 297.9V271.9C1263.47 271.9 1253 267.099 1247.63 262.093L1229.89 281.1L1212.15 300.107C1230.79 317.501 1256.31 323.9 1283.89 323.9V297.9ZM1229.89 281.1L1247.96 262.401C1243.25 257.856 1238.19 248.173 1238.19 227.4H1212.19H1186.19C1186.19 255.427 1192.93 281.544 1211.83 299.799L1229.89 281.1ZM1212.19 227.4H1238.19C1238.19 215.465 1239.27 205.887 1241.08 198.368L1215.79 192.3L1190.51 186.232C1187.52 198.713 1186.19 212.535 1186.19 227.4H1212.19ZM1215.79 192.3L1240.99 198.722C1242.05 194.536 1243.07 191.627 1243.9 189.729C1244.78 187.711 1245.11 187.627 1244.42 188.393L1225.09 171L1205.77 153.607C1197.76 162.503 1193.42 174.792 1190.6 185.878L1215.79 192.3ZM1225.09 171L1244.57 188.227C1244.1 188.76 1244.41 188.187 1246.69 187.019C1248.91 185.882 1252.32 184.525 1257.27 183.146L1250.29 158.1L1243.31 133.054C1229.71 136.845 1215.3 142.828 1205.62 153.773L1225.09 171ZM1250.29 158.1L1257.17 183.174C1267.74 180.276 1277.01 179 1285.09 179V153V127C1271.58 127 1257.65 129.124 1243.42 133.025L1250.29 158.1ZM1285.09 153V179C1308.3 179 1318.16 184.134 1321.91 187.885L1340.29 169.5L1358.68 151.115C1340.43 132.866 1313.49 127 1285.09 127V153ZM1340.29 169.5L1321.91 187.885C1325.91 191.887 1330.79 201.265 1330.79 222.3H1356.79H1382.79C1382.79 194.935 1376.68 169.113 1358.68 151.115L1340.29 169.5ZM1356.79 222.3H1330.79C1330.79 245.052 1325.54 256.21 1320.4 261.524L1339.09 279.6L1357.78 297.676C1376.24 278.59 1382.79 251.548 1382.79 222.3H1356.79ZM1339.09 279.6L1320.4 261.524C1315.42 266.681 1305.18 271.9 1283.89 271.9V297.9V323.9C1312.61 323.9 1339.17 316.919 1357.78 297.676L1339.09 279.6ZM1284.79 262.8V288.8C1291.51 288.8 1299.25 287.662 1306.63 283.753C1314.46 279.609 1320.35 273.142 1323.85 265.26L1300.09 254.7L1276.33 244.14C1276.81 243.066 1277.57 241.805 1278.71 240.579C1279.85 239.347 1281.11 238.428 1282.3 237.797C1284.59 236.588 1285.88 236.8 1284.79 236.8V262.8ZM1300.09 254.7L1323.99 264.942C1328.68 254.001 1329.69 239.412 1329.69 225.3H1303.69H1277.69C1277.69 231.642 1277.42 236.47 1276.99 239.99C1276.52 243.762 1276.02 244.873 1276.2 244.458L1300.09 254.7ZM1303.69 225.3H1329.69C1329.69 214.99 1329.2 205.535 1327.73 197.89L1302.19 202.8L1276.66 207.71C1277.19 210.465 1277.69 216.01 1277.69 225.3H1303.69ZM1302.19 202.8L1327.76 198.066C1326.19 189.572 1322.47 179.121 1313.41 171.359L1296.49 191.1L1279.57 210.841C1277.84 209.355 1276.98 207.902 1276.64 207.212C1276.34 206.581 1276.45 206.56 1276.63 207.534L1302.19 202.8ZM1296.49 191.1L1314.88 172.715C1305.37 163.204 1293.15 161.2 1284.19 161.2V187.2V213.2C1285.09 213.2 1284.74 213.316 1283.61 212.959C1282.36 212.564 1280.22 211.593 1278.11 209.485L1296.49 191.1ZM1284.19 187.2V161.2C1279.67 161.2 1275.02 161.383 1270.83 162.021C1268.76 162.337 1265.99 162.879 1263.08 163.934C1260.64 164.816 1255.22 167.05 1250.65 172.379L1270.39 189.3L1290.13 206.221C1288.01 208.703 1285.82 210.241 1284.34 211.127C1282.83 212.028 1281.55 212.549 1280.78 212.828C1279.32 213.358 1278.43 213.463 1278.66 213.429C1279.06 213.367 1280.72 213.2 1284.19 213.2V187.2ZM1270.39 189.3L1253.27 169.733C1246.42 175.732 1244.05 183.689 1243.28 186.283C1242.1 190.292 1241.31 194.71 1240.73 199.018L1266.49 202.5L1292.26 205.982C1292.46 204.518 1292.65 203.365 1292.82 202.487C1292.99 201.587 1293.12 201.131 1293.15 201.017C1293.21 200.833 1293.04 201.465 1292.5 202.54C1292.22 203.107 1291.74 203.979 1291.01 205.008C1290.29 206.023 1289.16 207.424 1287.51 208.867L1270.39 189.3ZM1266.49 202.5L1240.73 199.018C1239.56 207.651 1238.99 216.517 1238.99 225.6H1264.99H1290.99C1290.99 218.683 1291.43 212.149 1292.26 205.982L1266.49 202.5ZM1264.99 225.6H1238.99C1238.99 239.498 1240.11 254.156 1245.31 265.349L1268.89 254.4L1292.48 243.451C1292.71 243.961 1292.21 243.021 1291.73 239.511C1291.29 236.225 1290.99 231.66 1290.99 225.6H1264.99ZM1268.89 254.4L1245.64 266.028C1254.01 282.762 1270.05 288.8 1284.79 288.8V262.8V236.8C1283.89 236.8 1285.06 236.628 1287.11 237.711C1288.16 238.264 1289.22 239.038 1290.18 240.027C1291.12 241.009 1291.76 241.987 1292.15 242.772L1268.89 254.4ZM1329.49 109.8L1304 114.899C1303.89 114.354 1303.84 113.952 1303.81 113.741C1303.8 113.628 1303.79 113.543 1303.78 113.49C1303.78 113.436 1303.78 113.407 1303.78 113.404C1303.78 113.403 1303.78 113.476 1303.79 113.636C1303.79 113.795 1303.79 114.014 1303.79 114.3H1329.79H1355.79C1355.79 111.889 1355.71 108.299 1354.99 104.701L1329.49 109.8ZM1329.79 114.3H1303.79C1303.79 114.712 1303.76 114.975 1303.74 115.114C1303.71 115.25 1303.69 115.305 1303.69 115.307C1303.69 115.308 1303.69 115.317 1303.67 115.35C1303.65 115.385 1303.58 115.493 1303.42 115.673L1322.89 132.9L1342.37 150.127C1351.34 139.984 1355.79 127.588 1355.79 114.3H1329.79ZM1322.89 132.9L1303.05 116.105C1303.21 115.909 1303.48 115.642 1303.85 115.371C1304.22 115.099 1304.58 114.902 1304.89 114.773C1305.52 114.509 1305.48 114.7 1304.29 114.7V140.7V166.7C1318.46 166.7 1332.52 161.774 1342.74 149.695L1322.89 132.9ZM1304.29 140.7V114.7C1302.95 114.7 1301.77 114.545 1300.7 114.276L1294.39 139.5L1288.09 164.724C1293.41 166.055 1298.83 166.7 1304.29 166.7V140.7ZM1294.39 139.5L1302.15 114.684C1299.16 113.75 1295.33 112.506 1290.62 110.934L1282.39 135.6L1274.17 160.266C1279.06 161.894 1283.23 163.25 1286.64 164.316L1294.39 139.5ZM1282.39 135.6L1292.16 111.505C1284.13 108.248 1274.55 105.1 1265.29 105.1V131.1V157.1C1264.28 157.1 1264.34 156.946 1265.95 157.369C1267.43 157.758 1269.62 158.476 1272.63 159.695L1282.39 135.6ZM1265.29 131.1V105.1C1260.23 105.1 1247.65 105.777 1238.65 116.279L1258.39 133.2L1278.13 150.121C1274.67 154.158 1270.76 155.839 1268.59 156.499C1267.48 156.835 1266.62 156.976 1266.12 157.037C1265.61 157.1 1265.32 157.1 1265.29 157.1V131.1ZM1258.39 133.2L1238.65 116.279C1232.03 124.005 1230.59 132.913 1230.59 139.2H1256.59H1282.59C1282.59 140.287 1282.36 145.195 1278.13 150.121L1258.39 133.2ZM1256.59 139.2V113.2H1239.19V139.2V165.2H1256.59V139.2ZM1239.19 139.2L1265.1 137.041L1264.8 133.441L1238.89 135.6L1212.98 137.759L1213.28 141.359L1239.19 139.2ZM1238.89 135.6H1264.89C1264.89 134.226 1265.17 133.399 1265.99 132.3L1245.19 116.7L1224.39 101.1C1216.82 111.201 1212.89 122.974 1212.89 135.6H1238.89ZM1245.19 116.7L1265.99 132.3C1265.75 132.623 1265.39 133.018 1264.9 133.402C1264.42 133.787 1263.95 134.053 1263.56 134.22C1262.81 134.549 1262.87 134.3 1264.39 134.3V108.3V82.3C1249.7 82.3 1234.63 87.4464 1224.39 101.1L1245.19 116.7ZM1264.39 108.3V134.3C1265.41 134.3 1265.99 134.425 1266.25 134.5L1273.39 109.5L1280.54 84.5004C1275.2 82.9747 1269.77 82.3 1264.39 82.3V108.3ZM1273.39 109.5L1267.95 134.923C1269.08 135.166 1271.42 135.821 1275.31 137.235L1284.19 112.8L1293.08 88.3654C1288.16 86.5785 1283.3 85.0336 1278.84 84.0771L1273.39 109.5ZM1284.19 112.8L1274.86 137.067C1283.91 140.548 1293.77 143.3 1303.39 143.3V117.3V91.3C1303.4 91.3 1302.6 91.2888 1300.78 90.861C1298.99 90.443 1296.6 89.715 1293.53 88.533L1284.19 112.8ZM1303.39 117.3V143.3C1309.43 143.3 1318.82 142.081 1326.89 135.118C1335.71 127.518 1338.09 117.397 1338.09 109.8H1312.09H1286.09C1286.09 107.203 1287.03 100.832 1292.94 95.7323C1298.12 91.2692 1303.15 91.3 1303.39 91.3V117.3ZM1312.09 109.8V135.8H1329.49V109.8V83.8H1312.09V109.8ZM1487.98 256.5V230.5C1487.34 230.5 1486.7 230.523 1486.07 230.57L1487.98 256.5ZM1497.88 255.9L1523.6 252.153C1521.62 238.557 1509.41 228.849 1495.72 229.99L1497.88 255.9ZM1502.38 286.8L1513.39 310.353C1523.78 305.495 1529.76 294.403 1528.1 283.053L1502.38 286.8ZM1389.28 280.2L1371.36 299.042C1371.41 299.091 1371.46 299.139 1371.51 299.187L1389.28 280.2ZM1375.48 192.9L1350.48 185.757C1350.44 185.895 1350.4 186.034 1350.36 186.173L1375.48 192.9ZM1386.28 169.5L1367.47 151.548C1367.32 151.7 1367.18 151.854 1367.04 152.011L1386.28 169.5ZM1409.68 158.1L1416.7 183.132V183.132L1409.68 158.1ZM1484.08 162.9L1469.01 184.089V184.089L1484.08 162.9ZM1501.78 189.6L1476.53 195.802C1476.53 195.836 1476.54 195.871 1476.55 195.906L1501.78 189.6ZM1505.98 234.9L1507.5 260.855C1521.24 260.047 1531.98 248.666 1531.98 234.9H1505.98ZM1423.48 236.1V210.1C1409.12 210.1 1397.48 221.741 1397.48 236.1H1423.48ZM1427.38 250.5L1407.2 266.895C1407.4 267.141 1407.6 267.383 1407.81 267.621L1427.38 250.5ZM1439.08 256.8L1433.98 282.295C1434.31 282.361 1434.64 282.42 1434.97 282.473L1439.08 256.8ZM1426.48 189L1438.1 212.255C1438.41 212.103 1438.71 211.945 1439.01 211.782L1426.48 189ZM1423.78 196.8L1449.56 200.163V200.163L1423.78 196.8ZM1422.58 212.4L1396.59 211.504C1396.35 218.551 1398.98 225.394 1403.88 230.465C1408.78 235.536 1415.52 238.4 1422.58 238.4V212.4ZM1458.58 212.1L1459.81 238.071C1473.68 237.41 1484.58 225.979 1484.58 212.1H1458.58ZM1454.38 191.7L1432.58 205.87C1432.74 206.119 1432.9 206.366 1433.08 206.61L1454.38 191.7ZM1460.08 258V284C1466.17 284 1476.37 283.423 1489.88 282.43L1487.98 256.5L1486.07 230.57C1472.38 231.577 1463.99 232 1460.08 232V258ZM1487.98 256.5V282.5C1491 282.5 1495.32 282.203 1500.03 281.81L1497.88 255.9L1495.72 229.99C1493.43 230.18 1491.62 230.313 1490.23 230.398C1489.54 230.439 1489 230.466 1488.59 230.482C1488.39 230.49 1488.23 230.495 1488.12 230.497C1488.01 230.5 1487.97 230.5 1487.98 230.5V256.5ZM1497.88 255.9L1472.15 259.647L1476.65 290.547L1502.38 286.8L1528.1 283.053L1523.6 252.153L1497.88 255.9ZM1502.38 286.8L1491.36 263.247C1480.6 268.281 1464.74 271.6 1442.38 271.6V297.6V323.6C1469.21 323.6 1493.35 319.719 1513.39 310.353L1502.38 286.8ZM1442.38 297.6V271.6C1423.59 271.6 1413.13 266.909 1407.04 261.213L1389.28 280.2L1371.51 299.187C1390.22 316.691 1415.16 323.6 1442.38 323.6V297.6ZM1389.28 280.2L1407.19 261.358C1401.91 256.333 1396.98 246.826 1396.98 227.7H1370.98H1344.98C1344.98 255.374 1352.24 280.867 1371.36 299.042L1389.28 280.2ZM1370.98 227.7H1396.98C1396.98 217.892 1398.2 208.557 1400.59 199.627L1375.48 192.9L1350.36 186.173C1346.75 199.643 1344.98 213.508 1344.98 227.7H1370.98ZM1375.48 192.9L1400.48 200.043C1401.83 195.308 1403.1 191.892 1404.18 189.546C1405.32 187.081 1405.9 186.567 1405.51 186.989L1386.28 169.5L1367.04 152.011C1358.83 161.039 1353.92 173.717 1350.48 185.757L1375.48 192.9ZM1386.28 169.5L1405.08 187.452C1404.35 188.219 1404.45 187.801 1406.66 186.724C1408.76 185.702 1412 184.452 1416.7 183.132L1409.68 158.1L1402.65 133.068C1390.28 136.54 1376.72 141.859 1367.47 151.548L1386.28 169.5ZM1409.68 158.1L1416.7 183.132C1425.95 180.538 1434.88 179.3 1443.58 179.3V153.3V127.3C1429.87 127.3 1416.21 129.262 1402.65 133.068L1409.68 158.1ZM1443.58 153.3V179.3C1459.28 179.3 1466.4 182.234 1469.01 184.089L1484.08 162.9L1499.14 141.711C1483.75 130.766 1463.87 127.3 1443.58 127.3V153.3ZM1484.08 162.9L1469.01 184.089C1472.59 186.636 1475.11 190.043 1476.53 195.802L1501.78 189.6L1527.03 183.398C1522.84 166.357 1513.56 151.964 1499.14 141.711L1484.08 162.9ZM1501.78 189.6L1476.55 195.906C1478.61 204.15 1479.98 216.849 1479.98 234.9H1505.98H1531.98C1531.98 214.951 1530.54 197.45 1527 183.294L1501.78 189.6ZM1505.98 234.9L1504.45 208.945C1491.33 209.716 1478.54 210.1 1466.08 210.1V236.1V262.1C1479.61 262.1 1493.42 261.684 1507.5 260.855L1505.98 234.9ZM1466.08 236.1V210.1H1423.48V236.1V262.1H1466.08V236.1ZM1423.48 236.1H1397.48C1397.48 245.349 1399.25 257.11 1407.2 266.895L1427.38 250.5L1447.55 234.105C1448.97 235.845 1449.44 237.304 1449.55 237.703C1449.64 238.047 1449.48 237.625 1449.48 236.1H1423.48ZM1427.38 250.5L1407.81 267.621C1415.09 275.937 1424.52 280.403 1433.98 282.295L1439.08 256.8L1444.17 231.305C1443.83 231.235 1444.1 231.244 1444.73 231.583C1445.4 231.945 1446.21 232.54 1446.94 233.379L1427.38 250.5ZM1439.08 256.8L1434.97 282.473C1441.98 283.596 1450.58 284 1460.08 284V258V232C1451.57 232 1446.17 231.604 1443.18 231.127L1439.08 256.8ZM1426.48 189L1414.85 165.745C1404.32 171.011 1401.01 180.936 1400.33 182.895C1399.04 186.613 1398.39 190.403 1397.99 193.437L1423.78 196.8L1449.56 200.163C1449.76 198.597 1449.86 198.787 1449.47 199.905C1449.27 200.481 1448.67 202.101 1447.37 204.09C1446.13 205.982 1443.29 209.66 1438.1 212.255L1426.48 189ZM1423.78 196.8L1397.99 193.437C1397.26 199.028 1396.81 205.074 1396.59 211.504L1422.58 212.4L1448.56 213.296C1448.74 208.126 1449.09 203.772 1449.56 200.163L1423.78 196.8ZM1422.58 212.4V238.4H1438.18V212.4V186.4H1422.58V212.4ZM1438.18 212.4V238.4C1447.61 238.4 1454.95 238.302 1459.81 238.071L1458.58 212.1L1457.34 186.129C1453.81 186.298 1447.54 186.4 1438.18 186.4V212.4ZM1458.58 212.1H1484.58C1484.58 201.481 1483.32 187.708 1475.68 176.79L1454.38 191.7L1433.08 206.61C1432.38 205.623 1432.07 204.889 1431.98 204.649C1431.89 204.407 1431.95 204.498 1432.06 205.043C1432.3 206.204 1432.58 208.445 1432.58 212.1H1458.58ZM1454.38 191.7L1476.18 177.53C1467.06 163.506 1452.27 159.7 1440.58 159.7V185.7V211.7C1441.38 211.7 1440.44 211.839 1438.61 211.044C1436.48 210.12 1434.2 208.372 1432.58 205.87L1454.38 191.7ZM1440.58 185.7V159.7C1431.6 159.7 1422.43 161.551 1413.95 166.218L1426.48 189L1439.01 211.782C1438.81 211.887 1438.75 211.882 1438.93 211.841C1439.12 211.795 1439.64 211.7 1440.58 211.7V185.7ZM1618.53 285.6L1603.85 264.142C1603.79 264.182 1603.73 264.223 1603.67 264.264L1618.53 285.6ZM1520.13 291L1494.26 288.413C1492.95 301.524 1501.65 313.543 1514.52 316.387L1520.13 291ZM1522.83 273.9L1497.39 268.544C1497.35 268.718 1497.32 268.892 1497.29 269.067L1522.83 273.9ZM1526.73 256.5L1531.01 230.854C1517.64 228.625 1504.8 237.043 1501.51 250.194L1526.73 256.5ZM1550.73 259.5L1548.38 285.393C1548.57 285.411 1548.77 285.426 1548.96 285.44L1550.73 259.5ZM1583.13 259.5L1594.76 282.755C1597.26 281.505 1599.54 279.861 1601.52 277.885L1583.13 259.5ZM1583.73 258L1559.59 248.344C1559.16 249.435 1558.79 250.554 1558.51 251.694L1583.73 258ZM1576.83 246.9L1583.84 221.863C1583.61 221.797 1583.37 221.735 1583.14 221.676L1576.83 246.9ZM1558.53 241.8L1551.45 266.817V266.817L1558.53 241.8ZM1532.43 225.6L1512.38 242.146C1512.53 242.328 1512.68 242.508 1512.83 242.686L1532.43 225.6ZM1526.73 175.2L1502.33 166.212V166.212L1526.73 175.2ZM1535.73 160.8L1549.51 182.848C1549.73 182.713 1549.94 182.575 1550.15 182.433L1535.73 160.8ZM1553.13 156L1557.59 181.616C1557.77 181.584 1557.95 181.551 1558.12 181.516L1553.13 156ZM1628.73 156.9H1654.73C1654.73 143.961 1645.22 132.991 1632.41 131.161L1628.73 156.9ZM1627.23 175.2L1653.05 178.274C1653.05 178.25 1653.06 178.227 1653.06 178.203L1627.23 175.2ZM1624.53 191.1L1621.19 216.885C1633.27 218.447 1644.81 211.425 1648.97 199.985L1624.53 191.1ZM1572.93 188.7L1563.8 164.355C1562.95 164.675 1562.12 165.038 1561.3 165.445L1572.93 188.7ZM1571.73 190.5L1594.99 202.127C1595.31 201.483 1595.6 200.825 1595.87 200.156L1571.73 190.5ZM1573.83 199.8L1589.79 179.277C1589.29 178.888 1588.78 178.518 1588.25 178.167L1573.83 199.8ZM1587.93 204.9L1595.15 179.921C1594.95 179.864 1594.75 179.809 1594.55 179.756L1587.93 204.9ZM1611.03 213L1600.61 236.82C1600.7 236.859 1600.79 236.897 1600.88 236.935L1611.03 213ZM1628.13 225.6L1608.39 242.521C1608.51 242.654 1608.62 242.786 1608.74 242.916L1628.13 225.6ZM1635.63 247.2H1609.63C1609.63 259.183 1606.16 262.565 1603.85 264.142L1618.53 285.6L1633.21 307.058C1653.71 293.035 1661.63 270.817 1661.63 247.2H1635.63ZM1618.53 285.6L1603.67 264.264C1598.57 267.817 1588.63 271.3 1570.53 271.3V297.3V323.3C1594.04 323.3 1616.09 318.983 1633.39 306.936L1618.53 285.6ZM1570.53 297.3V271.3C1558.32 271.3 1543.47 269.531 1525.74 265.613L1520.13 291L1514.52 316.387C1534.79 320.869 1553.54 323.3 1570.53 323.3V297.3ZM1520.13 291L1546 293.587C1546.29 290.729 1547.02 285.911 1548.38 278.733L1522.83 273.9L1497.29 269.067C1495.84 276.689 1494.78 283.271 1494.26 288.413L1520.13 291ZM1522.83 273.9L1548.27 279.256C1549.85 271.749 1551.08 266.327 1551.96 262.806L1526.73 256.5L1501.51 250.194C1500.39 254.673 1499.01 260.851 1497.39 268.544L1522.83 273.9ZM1526.73 256.5L1522.46 282.146C1530.41 283.472 1539.06 284.546 1548.38 285.393L1550.73 259.5L1553.09 233.607C1544.8 232.854 1537.45 231.928 1531.01 230.854L1526.73 256.5ZM1550.73 259.5L1548.96 285.44C1558.13 286.065 1566.25 286.4 1573.23 286.4V260.4V234.4C1567.81 234.4 1560.94 234.135 1552.5 233.56L1550.73 259.5ZM1573.23 260.4V286.4C1576.3 286.4 1579.35 286.319 1582.11 286.068C1583.6 285.933 1589.28 285.496 1594.76 282.755L1583.13 259.5L1571.5 236.245C1573.02 235.489 1574.28 235.062 1575.01 234.837C1575.79 234.6 1576.4 234.467 1576.74 234.399C1577.38 234.27 1577.67 234.257 1577.4 234.282C1577.19 234.302 1576.73 234.334 1575.99 234.359C1575.26 234.384 1574.35 234.4 1573.23 234.4V260.4ZM1583.13 259.5L1601.52 277.885C1605.45 273.947 1607.13 269.73 1607.57 268.631C1608.27 266.879 1608.7 265.315 1608.96 264.306L1583.73 258L1558.51 251.694C1558.56 251.485 1558.79 250.571 1559.29 249.319C1559.55 248.673 1560 247.63 1560.71 246.394C1561.36 245.251 1562.63 243.229 1564.75 241.115L1583.13 259.5ZM1583.73 258L1607.87 267.656C1609.41 263.823 1610.33 259.555 1610.33 255H1584.33H1558.33C1558.33 252.445 1558.86 250.176 1559.59 248.344L1583.73 258ZM1584.33 255H1610.33C1610.33 247.071 1607.64 238.904 1601.53 232.31C1595.94 226.271 1589.16 223.351 1583.84 221.863L1576.83 246.9L1569.82 271.937C1569.51 271.849 1566.47 270.979 1563.38 267.64C1559.77 263.746 1558.33 258.929 1558.33 255H1584.33ZM1576.83 246.9L1583.14 221.676C1583.14 221.677 1583.11 221.668 1583.02 221.647C1582.95 221.627 1582.84 221.599 1582.71 221.563C1582.43 221.491 1582.08 221.395 1581.63 221.272C1580.73 221.028 1579.54 220.698 1578.04 220.279C1575.04 219.443 1570.9 218.279 1565.61 216.783L1558.53 241.8L1551.45 266.817C1561.79 269.743 1568.43 271.598 1570.53 272.124L1576.83 246.9ZM1558.53 241.8L1565.61 216.783C1559.54 215.063 1555.3 212.263 1552.03 208.514L1532.43 225.6L1512.83 242.686C1523.17 254.537 1536.33 262.537 1551.45 266.817L1558.53 241.8ZM1532.43 225.6L1552.49 209.054C1550.26 206.348 1548.53 202.542 1548.53 195.9H1522.53H1496.53C1496.53 212.858 1501.41 228.852 1512.38 242.146L1532.43 225.6ZM1522.53 195.9H1548.53C1548.53 193.546 1549.08 189.745 1551.13 184.188L1526.73 175.2L1502.33 166.212C1498.78 175.855 1496.53 185.854 1496.53 195.9H1522.53ZM1526.73 175.2L1551.13 184.188C1551.62 182.855 1552.06 181.82 1552.42 181.041C1552.79 180.253 1553.04 179.829 1553.13 179.68C1553.23 179.518 1553.07 179.807 1552.58 180.343C1552.1 180.875 1551.1 181.853 1549.51 182.848L1535.73 160.8L1521.95 138.752C1515.75 142.627 1511.67 147.902 1509.03 152.12C1506.28 156.525 1504.11 161.389 1502.33 166.212L1526.73 175.2ZM1535.73 160.8L1550.15 182.433C1549.31 182.996 1548.64 183.347 1548.27 183.526C1547.89 183.714 1547.66 183.807 1547.62 183.821C1547.58 183.838 1547.92 183.706 1548.8 183.464C1550.57 182.974 1553.42 182.341 1557.59 181.616L1553.13 156L1548.68 130.384C1543.65 131.259 1538.99 132.226 1534.97 133.336C1531.65 134.252 1526.17 135.924 1521.31 139.167L1535.73 160.8ZM1553.13 156L1558.12 181.516C1566 179.976 1572.8 179.3 1578.63 179.3V153.3V127.3C1568.86 127.3 1558.67 128.424 1548.14 130.484L1553.13 156ZM1578.63 153.3V179.3C1593.97 179.3 1609.45 180.409 1625.05 182.639L1628.73 156.9L1632.41 131.161C1614.42 128.591 1596.49 127.3 1578.63 127.3V153.3ZM1628.73 156.9H1602.73C1602.73 158.838 1602.41 163.599 1601.41 172.197L1627.23 175.2L1653.06 178.203C1654.06 169.601 1654.73 162.162 1654.73 156.9H1628.73ZM1627.23 175.2L1601.41 172.126C1600.94 176.111 1600.52 179.065 1600.17 181.122C1600 182.148 1599.87 182.787 1599.79 183.121C1599.69 183.577 1599.76 183.13 1600.1 182.215L1624.53 191.1L1648.97 199.985C1650.24 196.479 1650.98 192.561 1651.44 189.828C1651.99 186.585 1652.52 182.689 1653.05 178.274L1627.23 175.2ZM1624.53 191.1L1627.87 165.315C1610.37 163.051 1595.43 161.8 1583.43 161.8V187.8V213.8C1592.24 213.8 1604.69 214.749 1621.19 216.885L1624.53 191.1ZM1583.43 187.8V161.8C1580.34 161.8 1577.3 161.883 1574.54 162.12C1572.36 162.306 1568.11 162.74 1563.8 164.355L1572.93 188.7L1582.06 213.045C1581.17 213.379 1580.45 213.581 1580 213.695C1579.53 213.813 1579.19 213.879 1579.01 213.911C1578.67 213.97 1578.62 213.961 1578.98 213.93C1579.31 213.902 1579.84 213.868 1580.61 213.841C1581.38 213.816 1582.31 213.8 1583.43 213.8V187.8ZM1572.93 188.7L1561.3 165.445C1555.3 168.448 1552.03 172.885 1550.7 174.878C1549.14 177.214 1548.17 179.405 1547.59 180.844L1571.73 190.5L1595.87 200.156C1595.7 200.595 1595.12 201.986 1593.97 203.722C1593.04 205.115 1590.17 209.152 1584.56 211.955L1572.93 188.7ZM1571.73 190.5L1548.48 178.872C1545.54 184.755 1545.13 190.418 1545.13 193.8H1571.13H1597.13C1597.13 194.289 1597.1 195.265 1596.86 196.576C1596.63 197.873 1596.12 199.854 1594.99 202.127L1571.73 190.5ZM1571.13 193.8H1545.13C1545.13 202.428 1548.28 214.013 1559.41 221.433L1573.83 199.8L1588.25 178.167C1591.48 180.316 1593.99 183.341 1595.52 186.731C1596.93 189.877 1597.13 192.502 1597.13 193.8H1571.13ZM1573.83 199.8L1557.87 220.323C1562.25 223.731 1567.26 225.633 1569.86 226.575C1573.23 227.794 1577.14 228.944 1581.31 230.044L1587.93 204.9L1594.55 179.756C1591.13 178.856 1588.88 178.156 1587.55 177.675C1586.89 177.437 1586.73 177.351 1586.92 177.439C1587.02 177.489 1587.32 177.635 1587.76 177.889C1588.17 178.131 1588.9 178.583 1589.79 179.277L1573.83 199.8ZM1587.93 204.9L1580.72 229.879C1588.97 232.262 1595.53 234.599 1600.61 236.82L1611.03 213L1621.45 189.18C1613.73 185.801 1604.9 182.738 1595.15 179.921L1587.93 204.9ZM1611.03 213L1600.88 236.935C1603.68 238.122 1606.12 239.877 1608.39 242.521L1628.13 225.6L1647.87 208.679C1640.54 200.123 1631.59 193.478 1621.19 189.065L1611.03 213ZM1628.13 225.6L1608.74 242.916C1608.77 242.948 1609.63 243.622 1609.63 247.2H1635.63H1661.63C1661.63 233.178 1657.5 219.452 1647.53 208.284L1628.13 225.6Z" fill="white" mask="url(#path-1-outside-1_53_209)"/>
<mask id="mask0_53_209" style="mask-type:alpha" maskUnits="userSpaceOnUse" x="-25" y="25" width="352" height="353">
<rect x="-12" y="38.7031" width="326" height="326" fill="#D9D9D9" stroke="white" stroke-width="26" stroke-linejoin="round"/>
</mask>
<g mask="url(#mask0_53_209)">
<path d="M138.5 88.7031C144.438 88.7031 149.445 92.6839 151 98.1221C152.555 92.6839 157.562 88.7031 163.5 88.7031H238.5C245.68 88.7031 251.5 94.5234 251.5 101.703V138.703H276C283.18 138.703 289 144.523 289 151.703V301.703C289 308.883 283.18 314.703 276 314.703H26C18.8203 314.703 13 308.883 13 301.703V151.703C13 144.523 18.8203 138.703 26 138.703H50.5V101.703L50.5039 101.367C50.6821 94.3427 56.4326 88.7031 63.5 88.7031H138.5Z" fill="#F7374F" stroke="white" stroke-width="26" stroke-linejoin="round"/>
</g>
</svg>
