<svg width="612" height="114" viewBox="0 0 612 114" fill="none" xmlns="http://www.w3.org/2000/svg">
<rect width="612" height="114" fill="#000AF1"/>
<path d="M24 35.0625C24 32.75 24.5729 30.6562 25.7188 28.7812C26.8646 26.8854 28.3958 25.375 30.3125 24.25C32.2292 23.125 34.3542 22.5625 36.6875 22.5625H59.9688V29.125H36.6875C35 29.125 33.5625 29.7083 32.375 30.875C31.1875 32.0208 30.5938 33.4167 30.5938 35.0625V54.625C30.5938 56.2083 31.1875 57.5729 32.375 58.7188C33.5625 59.8438 35 60.4062 36.6875 60.4062H59.9688V67H36.6875C34.3542 67 32.2292 66.4479 30.3125 65.3438C28.3958 64.2396 26.8646 62.7604 25.7188 60.9062C24.5729 59.0312 24 56.9688 24 54.7188V35.0625ZM66.25 46.3125C66.25 44.1667 66.7708 42.2083 67.8125 40.4375C68.875 38.6667 70.2917 37.2604 72.0625 36.2188C73.8333 35.1562 75.7917 34.625 77.9375 34.625H85C87.1458 34.625 89.1042 35.1562 90.875 36.2188C92.6458 37.2604 94.0521 38.6667 95.0938 40.4375C96.1562 42.2083 96.6875 44.1667 96.6875 46.3125V55.3125C96.6875 57.4583 96.1562 59.4167 95.0938 61.1875C94.0521 62.9583 92.6458 64.375 90.875 65.4375C89.1042 66.4792 87.1458 67 85 67H77.9375C75.7917 67 73.8333 66.4792 72.0625 65.4375C70.2917 64.375 68.875 62.9583 67.8125 61.1875C66.7708 59.4167 66.25 57.4583 66.25 55.3125V46.3125ZM72.8438 55.25C72.8438 56.6667 73.3438 57.8854 74.3438 58.9062C75.3438 59.9062 76.5417 60.4062 77.9375 60.4062H85C86.4167 60.4062 87.6146 59.9062 88.5938 58.9062C89.5938 57.8854 90.0938 56.6667 90.0938 55.25V46.375C90.0938 44.9583 89.5938 43.75 88.5938 42.75C87.6146 41.7292 86.4167 41.2188 85 41.2188H77.9375C76.5417 41.2188 75.3438 41.7292 74.3438 42.75C73.3438 43.75 72.8438 44.9583 72.8438 46.375V55.25ZM103.875 41.1875C103.875 39.375 104.521 37.8333 105.812 36.5625C107.125 35.2708 108.698 34.625 110.531 34.625H121.938C124.083 34.625 126.042 35.1562 127.812 36.2188C129.583 37.2604 130.99 38.6667 132.031 40.4375C133.094 42.2083 133.625 44.1667 133.625 46.3125V67H127.031V46.4062C127.031 44.9479 126.531 43.7083 125.531 42.6875C124.552 41.6667 123.354 41.1562 121.938 41.1562H110.469V67H103.875V41.1875ZM141.125 22.5625H147.719V34.625H157.906C160.156 34.625 162.198 35.1562 164.031 36.2188C165.885 37.2604 167.354 38.6667 168.438 40.4375C169.542 42.1875 170.094 44.1354 170.094 46.2812V67H163.5V46.375C163.5 45 162.938 43.8021 161.812 42.7812C160.708 41.7396 159.406 41.2188 157.906 41.2188H147.719V67H141.125V22.5625ZM177.625 41.3125C177.625 39.4583 178.302 37.8854 179.656 36.5938C181.01 35.2812 182.635 34.625 184.531 34.625H198.031C199.76 34.625 201.323 35.0521 202.719 35.9062C204.135 36.7396 205.26 37.875 206.094 39.3125C206.948 40.7292 207.375 42.3021 207.375 44.0312V44.9375C207.375 46.6458 206.948 48.2083 206.094 49.625C205.26 51.0208 204.135 52.1458 202.719 53C201.323 53.8333 199.76 54.25 198.031 54.25H187.969V47.6875H198.094C198.844 47.6875 199.479 47.4167 200 46.875C200.542 46.3333 200.812 45.6771 200.812 44.9062V44.0312C200.812 43.2396 200.542 42.5729 200 42.0312C199.479 41.4896 198.844 41.2188 198.094 41.2188H184.219V57.8438C184.219 58.5521 184.458 59.1562 184.938 59.6562C185.417 60.1562 186 60.4062 186.688 60.4062H205.094V67H186.688C185.021 67 183.5 66.5938 182.125 65.7812C180.75 64.9479 179.656 63.8438 178.844 62.4688C178.031 61.0729 177.625 59.5417 177.625 57.875V41.3125ZM214.25 46.3125C214.25 44.1667 214.792 42.2083 215.875 40.4375C216.958 38.6667 218.406 37.2604 220.219 36.2188C222.031 35.1562 224.042 34.625 226.25 34.625H244.469V41.2188H226.25C224.771 41.2188 223.5 41.7292 222.438 42.75C221.375 43.75 220.844 44.9688 220.844 46.4062V55.1875C220.844 56.625 221.365 57.8542 222.406 58.875C223.469 59.8958 224.75 60.4062 226.25 60.4062H244.469V67H226.25C224.042 67 222.031 66.4688 220.219 65.4062C218.406 64.3438 216.958 62.9271 215.875 61.1562C214.792 59.3646 214.25 57.3958 214.25 55.25V46.3125ZM250.938 25.8125C250.938 24.6875 251.333 23.7292 252.125 22.9375C252.917 22.1458 253.875 21.75 255 21.75C256.125 21.75 257.083 22.1458 257.875 22.9375C258.667 23.7292 259.062 24.6875 259.062 25.8125C259.062 26.9375 258.667 27.8958 257.875 28.6875C257.083 29.4792 256.125 29.875 255 29.875C253.875 29.875 252.917 29.4792 252.125 28.6875C251.333 27.8958 250.938 26.9375 250.938 25.8125ZM251.688 34.625H258.312V67H251.688V34.625ZM265.812 41.2188C265.812 39.4062 266.458 37.8542 267.75 36.5625C269.042 35.2708 270.604 34.625 272.438 34.625H282.312C284.979 34.625 287.167 35.4583 288.875 37.125C290.542 35.4583 292.729 34.625 295.438 34.625H300.312C302.458 34.625 304.417 35.1562 306.188 36.2188C307.958 37.2604 309.365 38.6667 310.406 40.4375C311.469 42.1875 312 44.1354 312 46.2812V67H305.438V46.375C305.438 44.9375 304.938 43.7188 303.938 42.7188C302.938 41.6979 301.729 41.1875 300.312 41.1875H295.438C294.521 41.1875 293.74 41.4792 293.094 42.0625C292.448 42.625 292.125 43.3125 292.125 44.125V67H285.531V44.125C285.531 43.3125 285.219 42.625 284.594 42.0625C283.969 41.4792 283.208 41.1875 282.312 41.1875H272.406V67H265.812V41.2188ZM319.5 41.3125C319.5 39.4583 320.177 37.8854 321.531 36.5938C322.885 35.2812 324.51 34.625 326.406 34.625H339.906C341.635 34.625 343.198 35.0521 344.594 35.9062C346.01 36.7396 347.135 37.875 347.969 39.3125C348.823 40.7292 349.25 42.3021 349.25 44.0312V44.9375C349.25 46.6458 348.823 48.2083 347.969 49.625C347.135 51.0208 346.01 52.1458 344.594 53C343.198 53.8333 341.635 54.25 339.906 54.25H329.844V47.6875H339.969C340.719 47.6875 341.354 47.4167 341.875 46.875C342.417 46.3333 342.688 45.6771 342.688 44.9062V44.0312C342.688 43.2396 342.417 42.5729 341.875 42.0312C341.354 41.4896 340.719 41.2188 339.969 41.2188H326.094V57.8438C326.094 58.5521 326.333 59.1562 326.812 59.6562C327.292 60.1562 327.875 60.4062 328.562 60.4062H346.969V67H328.562C326.896 67 325.375 66.5938 324 65.7812C322.625 64.9479 321.531 63.8438 320.719 62.4688C319.906 61.0729 319.5 59.5417 319.5 57.875V41.3125ZM356.438 41.1875C356.438 39.375 357.083 37.8333 358.375 36.5625C359.688 35.2708 361.26 34.625 363.094 34.625H374.5C376.646 34.625 378.604 35.1562 380.375 36.2188C382.146 37.2604 383.552 38.6667 384.594 40.4375C385.656 42.2083 386.188 44.1667 386.188 46.3125V67H379.594V46.4062C379.594 44.9479 379.094 43.7083 378.094 42.6875C377.115 41.6667 375.917 41.1562 374.5 41.1562H363.031V67H356.438V41.1875ZM392.125 34.625H396.344V22.5625H402.938V34.625H412.906V41.2188H402.938V57.8125C402.938 58.5208 403.208 59.1354 403.75 59.6562C404.312 60.1562 404.979 60.4062 405.75 60.4062H412.906V67H405.656C403.948 67 402.385 66.5938 400.969 65.7812C399.573 64.9479 398.448 63.8438 397.594 62.4688C396.76 61.0729 396.344 59.5312 396.344 57.8438V41.2188H392.125V34.625ZM418.562 46.3125C418.562 44.1667 419.083 42.2083 420.125 40.4375C421.188 38.6667 422.604 37.2604 424.375 36.2188C426.146 35.1562 428.104 34.625 430.25 34.625H437.312C439.458 34.625 441.417 35.1562 443.188 36.2188C444.958 37.2604 446.365 38.6667 447.406 40.4375C448.469 42.2083 449 44.1667 449 46.3125V55.3125C449 57.4583 448.469 59.4167 447.406 61.1875C446.365 62.9583 444.958 64.375 443.188 65.4375C441.417 66.4792 439.458 67 437.312 67H430.25C428.104 67 426.146 66.4792 424.375 65.4375C422.604 64.375 421.188 62.9583 420.125 61.1875C419.083 59.4167 418.562 57.4583 418.562 55.3125V46.3125ZM425.156 55.25C425.156 56.6667 425.656 57.8854 426.656 58.9062C427.656 59.9062 428.854 60.4062 430.25 60.4062H437.312C438.729 60.4062 439.927 59.9062 440.906 58.9062C441.906 57.8854 442.406 56.6667 442.406 55.25V46.375C442.406 44.9583 441.906 43.75 440.906 42.75C439.927 41.7292 438.729 41.2188 437.312 41.2188H430.25C428.854 41.2188 427.656 41.7292 426.656 42.75C425.656 43.75 425.156 44.9583 425.156 46.375V55.25ZM455.875 43.7188C455.875 42.0312 456.292 40.5 457.125 39.125C457.979 37.75 459.104 36.6562 460.5 35.8438C461.917 35.0312 463.479 34.625 465.188 34.625H484.188V41.2188H465.188C464.438 41.2188 463.792 41.4688 463.25 41.9688C462.729 42.4479 462.469 43.0312 462.469 43.7188V44.5C462.469 45.2083 462.729 45.8125 463.25 46.3125C463.792 46.8125 464.438 47.0625 465.188 47.0625H477C478.708 47.0625 480.26 47.4792 481.656 48.3125C483.073 49.125 484.198 50.2188 485.031 51.5938C485.865 52.9688 486.281 54.5 486.281 56.1875V57.875C486.281 59.5417 485.865 61.0729 485.031 62.4688C484.198 63.8438 483.073 64.9479 481.656 65.7812C480.26 66.5938 478.708 67 477 67H457.344V60.4062H477C477.75 60.4062 478.385 60.1562 478.906 59.6562C479.448 59.1562 479.719 58.5521 479.719 57.8438V56.2188C479.719 55.4896 479.448 54.875 478.906 54.375C478.385 53.875 477.75 53.625 477 53.625H465.188C463.479 53.625 461.917 53.2188 460.5 52.4062C459.104 51.5729 457.979 50.4688 457.125 49.0938C456.292 47.6979 455.875 46.1667 455.875 44.5V43.7188Z" fill="white"/>
<path d="M42.4883 100H37.7617L31.082 88.125L29.4023 90.1172V100H25.3594V74.5117H29.4023V84.5117L37.332 74.5117H42.5273L33.6406 85.0781L42.4883 100ZM63.4844 100H59.4414V88.7695C59.4414 87.3503 59.1745 86.3672 58.6406 85.8203C58.1068 85.2734 57.332 85 56.3164 85C54.819 85 53.5951 85.6055 52.6445 86.8164C51.707 88.0273 51.2383 89.7005 51.2383 91.8359V100H47.1953V81.7969H51.2383V86.3672C51.6419 84.7917 52.3906 83.5677 53.4844 82.6953C54.5781 81.8099 55.9258 81.3672 57.5273 81.3672C59.3893 81.3672 60.8477 81.9727 61.9023 83.1836C62.957 84.3945 63.4844 86.2565 63.4844 88.7695V100ZM86.7461 90.918C86.7461 92.3372 86.5182 93.6263 86.0625 94.7852C85.6198 95.944 84.9753 96.9466 84.1289 97.793C83.2956 98.6263 82.293 99.2773 81.1211 99.7461C79.9492 100.215 78.6406 100.449 77.1953 100.449C75.776 100.449 74.4805 100.215 73.3086 99.7461C72.1367 99.2773 71.1276 98.6263 70.2812 97.793C69.4479 96.9466 68.8034 95.944 68.3477 94.7852C67.9049 93.6263 67.6836 92.3372 67.6836 90.918C67.6836 89.5378 67.9049 88.2617 68.3477 87.0898C68.8034 85.9049 69.4479 84.8893 70.2812 84.043C71.1276 83.1836 72.1367 82.526 73.3086 82.0703C74.4805 81.6016 75.776 81.3672 77.1953 81.3672C78.6406 81.3672 79.9492 81.6016 81.1211 82.0703C82.293 82.526 83.2956 83.1836 84.1289 84.043C84.9753 84.8893 85.6198 85.9049 86.0625 87.0898C86.5182 88.2617 86.7461 89.5378 86.7461 90.918ZM82.7227 90.918C82.7227 90.0977 82.5924 89.3229 82.332 88.5938C82.0846 87.8516 81.7201 87.2201 81.2383 86.6992C80.7565 86.1784 80.1706 85.7682 79.4805 85.4688C78.8034 85.1562 78.0417 85 77.1953 85C76.3359 85 75.5677 85.1562 74.8906 85.4688C74.2135 85.7682 73.6406 86.1784 73.1719 86.6992C72.7031 87.2201 72.3385 87.8516 72.0781 88.5938C71.8307 89.3229 71.707 90.0977 71.707 90.918C71.707 91.7773 71.8307 92.5586 72.0781 93.2617C72.3385 93.9648 72.7031 94.5833 73.1719 95.1172C73.6406 95.651 74.2135 96.0677 74.8906 96.3672C75.5677 96.6536 76.3359 96.7969 77.1953 96.7969C78.0417 96.7969 78.8034 96.6536 79.4805 96.3672C80.1706 96.0677 80.7565 95.651 81.2383 95.1172C81.7201 94.5833 82.0846 93.9648 82.332 93.2617C82.5924 92.5586 82.7227 91.7773 82.7227 90.918ZM108.68 81.7969L105.945 100H100.945L99.0312 89.043L97.0781 100H92.0781L89.3438 81.7969H93.3086L94.9102 93.9648L96.8633 81.7969H101.141L103.113 93.9648L104.715 81.7969H108.68ZM128.992 100H124.949V88.7695C124.949 87.3503 124.682 86.3672 124.148 85.8203C123.615 85.2734 122.84 85 121.824 85C120.327 85 119.103 85.6055 118.152 86.8164C117.215 88.0273 116.746 89.7005 116.746 91.8359V100H112.703V81.7969H116.746V86.3672C117.15 84.7917 117.898 83.5677 118.992 82.6953C120.086 81.8099 121.434 81.3672 123.035 81.3672C124.897 81.3672 126.355 81.9727 127.41 83.1836C128.465 84.3945 128.992 86.2565 128.992 88.7695V100ZM148.895 100H136.668V96.3672H140.652V78.1641H136.668V74.5117H144.695V96.3672H148.895V100ZM159.129 92.4414C159.324 93.6914 159.917 94.7331 160.906 95.5664C161.909 96.3867 163.25 96.7969 164.93 96.7969C166.245 96.7969 167.384 96.5951 168.348 96.1914C169.324 95.7747 170.164 95.2279 170.867 94.5508L172.938 97.4023C171.766 98.5742 170.522 99.375 169.207 99.8047C167.905 100.234 166.479 100.449 164.93 100.449C163.523 100.449 162.215 100.215 161.004 99.7461C159.793 99.2773 158.745 98.6263 157.859 97.793C156.974 96.9466 156.277 95.944 155.77 94.7852C155.275 93.6263 155.027 92.3372 155.027 90.918C155.027 89.5378 155.255 88.2682 155.711 87.1094C156.18 85.9375 156.831 84.9284 157.664 84.082C158.51 83.2227 159.52 82.5586 160.691 82.0898C161.863 81.6081 163.159 81.3672 164.578 81.3672C166.049 81.3672 167.384 81.6211 168.582 82.1289C169.78 82.6237 170.802 83.3464 171.648 84.2969C172.508 85.2474 173.178 86.4128 173.66 87.793C174.142 89.1602 174.383 90.7096 174.383 92.4414H159.129ZM169.812 88.8867C169.604 87.7148 168.999 86.7773 167.996 86.0742C166.993 85.3581 165.854 85 164.578 85C163.302 85 162.156 85.3581 161.141 86.0742C160.125 86.7773 159.513 87.7148 159.305 88.8867H169.812ZM194.5 100H190.457V98.3203C189.676 99.0104 188.888 99.5378 188.094 99.9023C187.299 100.267 186.395 100.449 185.379 100.449C184.207 100.449 183.12 100.215 182.117 99.7461C181.115 99.2773 180.249 98.6263 179.52 97.793C178.803 96.9466 178.237 95.9375 177.82 94.7656C177.417 93.5938 177.215 92.3112 177.215 90.918C177.215 89.5378 177.417 88.2617 177.82 87.0898C178.237 85.9049 178.803 84.8958 179.52 84.0625C180.249 83.2161 181.115 82.5586 182.117 82.0898C183.12 81.6081 184.207 81.3672 185.379 81.3672C186.395 81.3672 187.299 81.543 188.094 81.8945C188.888 82.2331 189.676 82.7474 190.457 83.4375V78.1641H186.941V74.5117H194.5V100ZM190.457 86.6406C189.975 86.1068 189.35 85.7031 188.582 85.4297C187.827 85.1432 187.104 85 186.414 85C184.891 85 183.647 85.5469 182.684 86.6406C181.733 87.7344 181.258 89.1602 181.258 90.918C181.258 92.6758 181.733 94.0951 182.684 95.1758C183.647 96.2565 184.891 96.7969 186.414 96.7969C187.104 96.7969 187.827 96.6602 188.582 96.3867C189.35 96.1003 189.975 95.6901 190.457 95.1562V86.6406ZM216.336 99.8047C216.336 101.055 216.121 102.168 215.691 103.145C215.262 104.121 214.656 104.948 213.875 105.625C213.107 106.302 212.195 106.816 211.141 107.168C210.099 107.533 208.934 107.715 207.645 107.715C204.48 107.715 201.779 106.758 199.539 104.844L201.453 101.719C203.315 103.32 205.379 104.121 207.645 104.121C209.038 104.121 210.158 103.776 211.004 103.086C211.863 102.409 212.293 101.341 212.293 99.8828V97.9297C211.46 98.6458 210.659 99.1797 209.891 99.5312C209.122 99.8698 208.23 100.039 207.215 100.039C206.043 100.039 204.956 99.7917 203.953 99.2969C202.951 98.8021 202.085 98.1315 201.355 97.2852C200.639 96.4258 200.073 95.4297 199.656 94.2969C199.253 93.1641 199.051 91.9596 199.051 90.6836C199.051 89.4076 199.253 88.2031 199.656 87.0703C200.073 85.9245 200.639 84.9349 201.355 84.1016C202.085 83.2552 202.951 82.5911 203.953 82.1094C204.956 81.6146 206.043 81.3672 207.215 81.3672C208.23 81.3672 209.135 81.543 209.93 81.8945C210.724 82.2331 211.512 82.7474 212.293 83.4375V81.7969H216.336V99.8047ZM212.293 86.6406C211.811 86.1068 211.186 85.7031 210.418 85.4297C209.663 85.1432 208.927 85 208.211 85C206.688 85 205.451 85.5339 204.5 86.6016C203.562 87.6693 203.094 89.0299 203.094 90.6836C203.094 91.5039 203.217 92.2656 203.465 92.9688C203.725 93.6589 204.077 94.2578 204.52 94.7656C204.975 95.2734 205.516 95.6771 206.141 95.9766C206.779 96.263 207.469 96.4062 208.211 96.4062C208.927 96.4062 209.663 96.263 210.418 95.9766C211.186 95.6771 211.811 95.2604 212.293 94.7266V86.6406ZM224.637 92.4414C224.832 93.6914 225.424 94.7331 226.414 95.5664C227.417 96.3867 228.758 96.7969 230.438 96.7969C231.753 96.7969 232.892 96.5951 233.855 96.1914C234.832 95.7747 235.672 95.2279 236.375 94.5508L238.445 97.4023C237.273 98.5742 236.03 99.375 234.715 99.8047C233.413 100.234 231.987 100.449 230.438 100.449C229.031 100.449 227.723 100.215 226.512 99.7461C225.301 99.2773 224.253 98.6263 223.367 97.793C222.482 96.9466 221.785 95.944 221.277 94.7852C220.783 93.6263 220.535 92.3372 220.535 90.918C220.535 89.5378 220.763 88.2682 221.219 87.1094C221.688 85.9375 222.339 84.9284 223.172 84.082C224.018 83.2227 225.027 82.5586 226.199 82.0898C227.371 81.6081 228.667 81.3672 230.086 81.3672C231.557 81.3672 232.892 81.6211 234.09 82.1289C235.288 82.6237 236.31 83.3464 237.156 84.2969C238.016 85.2474 238.686 86.4128 239.168 87.793C239.65 89.1602 239.891 90.7096 239.891 92.4414H224.637ZM235.32 88.8867C235.112 87.7148 234.507 86.7773 233.504 86.0742C232.501 85.3581 231.362 85 230.086 85C228.81 85 227.664 85.3581 226.648 86.0742C225.633 86.7773 225.021 87.7148 224.812 88.8867H235.32ZM260.477 94.5508C260.477 95.7357 260.21 96.6992 259.676 97.4414C259.142 98.1836 258.452 98.7826 257.605 99.2383C256.772 99.694 255.835 100.007 254.793 100.176C253.764 100.358 252.755 100.449 251.766 100.449C250.112 100.449 248.465 100.208 246.824 99.7266C245.184 99.2448 243.764 98.6133 242.566 97.832L244.246 94.5117C245.678 95.3451 246.987 95.9375 248.172 96.2891C249.37 96.6276 250.568 96.7969 251.766 96.7969C253.393 96.7969 254.578 96.6276 255.32 96.2891C256.062 95.9375 256.434 95.4557 256.434 94.8438C256.434 94.5443 256.329 94.2969 256.121 94.1016C255.913 93.9062 255.568 93.7305 255.086 93.5742C254.604 93.4049 253.966 93.2422 253.172 93.0859C252.391 92.9167 251.414 92.7409 250.242 92.5586C249.305 92.4023 248.413 92.2135 247.566 91.9922C246.733 91.7578 245.997 91.4323 245.359 91.0156C244.721 90.599 244.207 90.0716 243.816 89.4336C243.439 88.7956 243.25 87.9948 243.25 87.0312C243.25 86.0547 243.497 85.2083 243.992 84.4922C244.5 83.763 245.158 83.1641 245.965 82.6953C246.785 82.2266 247.703 81.888 248.719 81.6797C249.734 81.4714 250.75 81.3672 251.766 81.3672C253.198 81.3672 254.585 81.556 255.926 81.9336C257.28 82.2982 258.465 82.8255 259.48 83.5156L257.879 86.6406C256.863 86.0026 255.874 85.5729 254.91 85.3516C253.96 85.1172 252.911 85 251.766 85C251.284 85 250.783 85.026 250.262 85.0781C249.741 85.1302 249.259 85.2344 248.816 85.3906C248.374 85.5339 248.003 85.7357 247.703 85.9961C247.417 86.2435 247.273 86.5495 247.273 86.9141C247.273 87.3958 247.697 87.793 248.543 88.1055C249.402 88.4049 250.861 88.7044 252.918 89.0039C254.038 89.1602 255.06 89.362 255.984 89.6094C256.909 89.8438 257.703 90.1693 258.367 90.5859C259.031 90.9896 259.546 91.5169 259.91 92.168C260.288 92.806 260.477 93.6003 260.477 94.5508Z" fill="#1E1E1E"/>
</svg>
