<svg width="478" height="194" viewBox="0 0 478 194" fill="none" xmlns="http://www.w3.org/2000/svg">
<mask id="mask0_242_46" style="mask-type:alpha" maskUnits="userSpaceOnUse" x="0" y="0" width="478" height="194">
<rect width="478" height="194" fill="#8892BF"/>
</mask>
<g mask="url(#mask0_242_46)">
<rect width="478" height="194" fill="#1A4674"/>
<path d="M86.9969 82.992C86.9965 81.8486 86.754 80.8383 86.2636 79.9712C85.7818 79.1185 85.0604 78.4038 84.0928 77.8387C76.1051 73.1944 68.1097 68.5643 60.1246 63.9153C57.9719 62.662 55.8847 62.7077 53.7479 63.9789C50.5686 65.8697 34.6508 75.0657 29.9075 77.8361C27.9541 78.9764 27.0035 80.7216 27.0031 82.9899C27 92.3299 27.0031 101.67 27 111.01C27.0005 112.128 27.2326 113.119 27.7015 113.973C28.1834 114.851 28.9149 115.586 29.9049 116.164C34.6484 118.934 50.5683 128.129 53.747 130.021C55.8847 131.293 57.9719 131.338 60.1253 130.084C68.1106 125.435 76.1065 120.805 84.0953 116.161C85.0853 115.583 85.8168 114.848 86.2988 113.971C86.7669 113.117 86.9995 112.126 87 111.007C87 111.007 87 92.3323 86.9969 82.992Z" fill="white"/>
<path d="M57.0918 96.9089L27.7015 113.973C28.1834 114.851 28.9149 115.586 29.9049 116.164C34.6484 118.934 50.5683 128.129 53.747 130.021C55.8847 131.293 57.9719 131.338 60.1253 130.084C68.1106 125.435 76.1065 120.805 84.0953 116.161C85.0853 115.583 85.8168 114.848 86.2988 113.971L57.0918 96.9089Z" fill="#D0D0D0"/>
<path d="M48.3867 101.963C50.0969 104.974 53.3119 107.005 57 107.005C60.7108 107.005 63.9442 104.948 65.6457 101.905L57.0918 96.9089L48.3867 101.963Z" fill="#D0D0D0"/>
<path d="M86.9969 82.992C86.9965 81.8486 86.754 80.8383 86.2636 79.9712L57.0918 96.9089L86.2988 113.971C86.7669 113.117 86.9995 112.126 87 111.007C87 111.007 87 92.3323 86.9969 82.992Z" fill="#F0F0F0"/>
<path d="M85.391 98.1285H83.1086V100.43H80.8259V98.1285H78.5438V95.8273H80.8259V93.5258H83.1086V95.8273H85.391V98.1285ZM77.0629 98.1285H74.7808V100.43H72.4985V98.1285H70.2162V95.8273H72.4985V93.5258H74.7808V95.8273H77.0629V98.1285Z" fill="#1B598E"/>
<path d="M65.6457 101.905C63.9442 104.948 60.7108 107.005 57 107.005C53.3119 107.005 50.0969 104.974 48.3867 101.963C47.5276 100.453 47.0764 98.7413 47.0782 96.9998C47.0782 91.4744 51.5205 86.995 57 86.995C60.6643 86.995 63.8625 89.0004 65.5811 91.9803L74.2533 86.9446C70.8064 80.9446 64.3709 76.9079 57 76.9079C45.9955 76.9079 37.0749 85.9035 37.0749 96.9998C37.0749 100.64 38.0353 104.054 39.7138 106.999C43.1521 113.03 49.6058 117.092 57 117.092C64.4078 117.092 70.8716 113.014 74.305 106.964L65.6457 101.905Z" fill="#1B598E"/>
<path d="M0.0701828 164L112.118 194.023L102.657 229.33L-9.39023 199.307L0.0701828 164Z" fill="#18005B"/>
<path d="M-1.6265 141.518L201.842 196.038L198.308 209.227L-5.1607 154.708L-1.6265 141.518Z" fill="#18005B"/>
<path d="M-2.84124 124.052L257.68 193.858L255.361 202.515L-5.1607 132.708L-2.84124 124.052Z" fill="#18005B"/>
<rect x="149" y="72" width="315" height="50" rx="8" stroke="#EBEBEB" stroke-width="8"/>
<rect x="155" y="78" width="59" height="38" rx="3" fill="white"/>
<rect x="216" y="78" width="59" height="38" rx="3" fill="white"/>
<path d="M345.32 183.24C343.453 183.24 342.067 182.613 341.16 181.36C340.267 180.093 339.82 178.313 339.82 176.02C339.82 173.727 340.267 171.953 341.16 170.7C342.067 169.433 343.453 168.8 345.32 168.8C346.04 168.8 346.673 168.9 347.22 169.1C347.78 169.287 348.26 169.553 348.66 169.9C349.06 170.247 349.387 170.667 349.64 171.16C349.907 171.653 350.113 172.207 350.26 172.82L347.46 173.5C347.38 173.167 347.287 172.86 347.18 172.58C347.073 172.3 346.933 172.06 346.76 171.86C346.6 171.66 346.393 171.507 346.14 171.4C345.9 171.28 345.607 171.22 345.26 171.22C344.447 171.22 343.867 171.54 343.52 172.18C343.187 172.807 343.02 173.68 343.02 174.8V177.24C343.02 178.36 343.187 179.24 343.52 179.88C343.867 180.507 344.447 180.82 345.26 180.82C345.953 180.82 346.453 180.607 346.76 180.18C347.08 179.753 347.313 179.207 347.46 178.54L350.26 179.22C350.113 179.833 349.907 180.387 349.64 180.88C349.387 181.373 349.06 181.8 348.66 182.16C348.26 182.507 347.78 182.773 347.22 182.96C346.673 183.147 346.04 183.24 345.32 183.24ZM364.504 183V169.04H369.904C370.584 169.04 371.191 169.147 371.724 169.36C372.258 169.56 372.704 169.853 373.064 170.24C373.438 170.627 373.718 171.093 373.904 171.64C374.091 172.187 374.184 172.8 374.184 173.48C374.184 174.16 374.091 174.773 373.904 175.32C373.718 175.867 373.438 176.333 373.064 176.72C372.704 177.107 372.258 177.407 371.724 177.62C371.191 177.82 370.584 177.92 369.904 177.92H367.524V183H364.504ZM367.524 175.5H369.144C369.851 175.5 370.338 175.367 370.604 175.1C370.884 174.833 371.024 174.393 371.024 173.78V173.18C371.024 172.567 370.884 172.127 370.604 171.86C370.338 171.593 369.851 171.46 369.144 171.46H367.524V175.5ZM376.337 180.7H379.497V170.5H376.337V168.2H382.457V180.7H385.617V183H376.337V180.7ZM394.709 181.12H394.589C394.362 181.707 394.002 182.207 393.509 182.62C393.029 183.033 392.375 183.24 391.549 183.24C391.055 183.24 390.602 183.16 390.189 183C389.775 182.827 389.422 182.573 389.129 182.24C388.835 181.907 388.602 181.5 388.429 181.02C388.269 180.54 388.189 179.987 388.189 179.36V172.68H391.149V178.96C391.149 180.293 391.729 180.96 392.889 180.96C393.115 180.96 393.335 180.933 393.549 180.88C393.775 180.813 393.969 180.72 394.129 180.6C394.302 180.467 394.442 180.307 394.549 180.12C394.655 179.933 394.709 179.713 394.709 179.46V172.68H397.669V183H394.709V181.12ZM404.841 183.24C403.694 183.24 402.694 183.067 401.841 182.72C401.001 182.373 400.368 181.9 399.941 181.3L401.601 179.76C402.001 180.2 402.468 180.547 403.001 180.8C403.548 181.04 404.168 181.16 404.861 181.16C405.448 181.16 405.908 181.073 406.241 180.9C406.574 180.713 406.741 180.433 406.741 180.06C406.741 179.767 406.628 179.567 406.401 179.46C406.174 179.34 405.861 179.247 405.461 179.18L403.801 178.92C403.334 178.853 402.901 178.753 402.501 178.62C402.101 178.473 401.754 178.28 401.461 178.04C401.168 177.8 400.934 177.507 400.761 177.16C400.588 176.813 400.501 176.393 400.501 175.9C400.501 174.82 400.914 173.973 401.741 173.36C402.568 172.747 403.728 172.44 405.221 172.44C406.234 172.44 407.094 172.58 407.801 172.86C408.521 173.127 409.094 173.513 409.521 174.02L408.041 175.7C407.734 175.367 407.341 175.087 406.861 174.86C406.381 174.633 405.801 174.52 405.121 174.52C403.974 174.52 403.401 174.867 403.401 175.56C403.401 175.867 403.514 176.08 403.741 176.2C403.968 176.307 404.281 176.393 404.681 176.46L406.321 176.72C406.788 176.787 407.221 176.893 407.621 177.04C408.021 177.173 408.368 177.36 408.661 177.6C408.968 177.84 409.208 178.133 409.381 178.48C409.554 178.827 409.641 179.247 409.641 179.74C409.641 180.82 409.221 181.673 408.381 182.3C407.554 182.927 406.374 183.24 404.841 183.24ZM424.465 183V169.04H429.865C430.545 169.04 431.152 169.147 431.685 169.36C432.219 169.56 432.665 169.853 433.025 170.24C433.399 170.627 433.679 171.093 433.865 171.64C434.052 172.187 434.145 172.8 434.145 173.48C434.145 174.16 434.052 174.773 433.865 175.32C433.679 175.867 433.399 176.333 433.025 176.72C432.665 177.107 432.219 177.407 431.685 177.62C431.152 177.82 430.545 177.92 429.865 177.92H427.485V183H424.465ZM427.485 175.5H429.105C429.812 175.5 430.299 175.367 430.565 175.1C430.845 174.833 430.985 174.393 430.985 173.78V173.18C430.985 172.567 430.845 172.127 430.565 171.86C430.299 171.593 429.812 171.46 429.105 171.46H427.485V175.5ZM436.298 180.7H439.458V170.5H436.298V168.2H442.418V180.7H445.578V183H436.298V180.7ZM454.67 181.12H454.55C454.323 181.707 453.963 182.207 453.47 182.62C452.99 183.033 452.336 183.24 451.51 183.24C451.016 183.24 450.563 183.16 450.15 183C449.736 182.827 449.383 182.573 449.09 182.24C448.796 181.907 448.563 181.5 448.39 181.02C448.23 180.54 448.15 179.987 448.15 179.36V172.68H451.11V178.96C451.11 180.293 451.69 180.96 452.85 180.96C453.076 180.96 453.296 180.933 453.51 180.88C453.736 180.813 453.93 180.72 454.09 180.6C454.263 180.467 454.403 180.307 454.51 180.12C454.616 179.933 454.67 179.713 454.67 179.46V172.68H457.63V183H454.67V181.12ZM464.802 183.24C463.655 183.24 462.655 183.067 461.802 182.72C460.962 182.373 460.329 181.9 459.902 181.3L461.562 179.76C461.962 180.2 462.429 180.547 462.962 180.8C463.509 181.04 464.129 181.16 464.822 181.16C465.409 181.16 465.869 181.073 466.202 180.9C466.535 180.713 466.702 180.433 466.702 180.06C466.702 179.767 466.589 179.567 466.362 179.46C466.135 179.34 465.822 179.247 465.422 179.18L463.762 178.92C463.295 178.853 462.862 178.753 462.462 178.62C462.062 178.473 461.715 178.28 461.422 178.04C461.129 177.8 460.895 177.507 460.722 177.16C460.549 176.813 460.462 176.393 460.462 175.9C460.462 174.82 460.875 173.973 461.702 173.36C462.529 172.747 463.689 172.44 465.182 172.44C466.195 172.44 467.055 172.58 467.762 172.86C468.482 173.127 469.055 173.513 469.482 174.02L468.002 175.7C467.695 175.367 467.302 175.087 466.822 174.86C466.342 174.633 465.762 174.52 465.082 174.52C463.935 174.52 463.362 174.867 463.362 175.56C463.362 175.867 463.475 176.08 463.702 176.2C463.929 176.307 464.242 176.393 464.642 176.46L466.282 176.72C466.749 176.787 467.182 176.893 467.582 177.04C467.982 177.173 468.329 177.36 468.622 177.6C468.929 177.84 469.169 178.133 469.342 178.48C469.515 178.827 469.602 179.247 469.602 179.74C469.602 180.82 469.182 181.673 468.342 182.3C467.515 182.927 466.335 183.24 464.802 183.24Z" fill="white"/>
</g>
</svg>
