<svg width="179" height="81" viewBox="0 0 179 81" fill="none" xmlns="http://www.w3.org/2000/svg">
<path d="M148.75 24.9893C150.761 23.8283 153.239 23.8283 155.25 24.9893L172.9 35.1807C174.911 36.3418 176.15 38.4873 176.15 40.8096V61.1904C176.15 63.5127 174.911 65.6582 172.9 66.8193L155.25 77.0107C153.239 78.1717 150.761 78.1717 148.75 77.0107L131.1 66.8193C129.089 65.6582 127.85 63.5127 127.85 61.1904V40.8096C127.85 38.4873 129.089 36.3418 131.1 35.1807L148.75 24.9893Z" fill="#167CCE" stroke="#1B73BA" stroke-width="5"/>
<path d="M123.75 24.9893C125.761 23.8283 128.239 23.8283 130.25 24.9893L147.9 35.1807C149.911 36.3418 151.15 38.4873 151.15 40.8096V61.1904C151.15 63.5127 149.911 65.6582 147.9 66.8193L130.25 77.0107C128.239 78.1717 125.761 78.1717 123.75 77.0107L106.1 66.8193C104.089 65.6582 102.85 63.5127 102.85 61.1904V40.8096C102.85 38.4873 104.089 36.3418 106.1 35.1807L123.75 24.9893Z" fill="#167CCE" stroke="#1B73BA" stroke-width="5"/>
<path d="M98.75 24.9893C100.761 23.8283 103.239 23.8283 105.25 24.9893L122.9 35.1807C124.911 36.3418 126.15 38.4873 126.15 40.8096V61.1904C126.15 63.5127 124.911 65.6582 122.9 66.8193L105.25 77.0107C103.239 78.1717 100.761 78.1717 98.75 77.0107L81.0996 66.8193C79.0885 65.6582 77.8496 63.5127 77.8496 61.1904V40.8096C77.8496 38.4873 79.0885 36.3418 81.0996 35.1807L98.75 24.9893Z" fill="#167CCE" stroke="#1B73BA" stroke-width="5"/>
<path d="M73.75 24.9893C75.761 23.8283 78.239 23.8283 80.25 24.9893L97.9004 35.1807C99.9115 36.3418 101.15 38.4873 101.15 40.8096V61.1904C101.15 63.5127 99.9115 65.6582 97.9004 66.8193L80.25 77.0107C78.239 78.1717 75.761 78.1717 73.75 77.0107L56.0996 66.8193C54.0885 65.6582 52.8496 63.5127 52.8496 61.1904V40.8096C52.8496 38.4873 54.0885 36.3418 56.0996 35.1807L73.75 24.9893Z" fill="#167CCE" stroke="#1B73BA" stroke-width="5"/>
<path d="M48.75 24.9893C50.761 23.8283 53.239 23.8283 55.25 24.9893L72.9004 35.1807C74.9115 36.3418 76.1504 38.4873 76.1504 40.8096V61.1904C76.1504 63.5127 74.9115 65.6582 72.9004 66.8193L55.25 77.0107C53.239 78.1717 50.761 78.1717 48.75 77.0107L31.0996 66.8193C29.0885 65.6582 27.8496 63.5127 27.8496 61.1904V40.8096C27.8496 38.4873 29.0885 36.3418 31.0996 35.1807L48.75 24.9893Z" fill="#167CCE" stroke="#1B73BA" stroke-width="5"/>
<path d="M23.75 24.9893C25.761 23.8283 28.239 23.8283 30.25 24.9893L47.9004 35.1807C49.9115 36.3418 51.1504 38.4873 51.1504 40.8096V61.1904C51.1504 63.5127 49.9115 65.6582 47.9004 66.8193L30.25 77.0107C28.239 78.1717 25.761 78.1717 23.75 77.0107L6.09961 66.8193C4.0885 65.6582 2.84961 63.5127 2.84961 61.1904V40.8096C2.84961 38.4873 4.0885 36.3418 6.09961 35.1807L23.75 24.9893Z" fill="#167CCE" stroke="#1B73BA" stroke-width="5"/>
<path d="M73.64 15.32C72.584 15.32 71.6773 15.1387 70.92 14.776C70.1627 14.4027 69.5387 13.9173 69.048 13.32C68.5573 12.712 68.1947 12.056 67.96 11.352C67.7253 10.648 67.608 9.96533 67.608 9.304V8.952C67.608 8.216 67.7253 7.496 67.96 6.792C68.2053 6.07733 68.5733 5.432 69.064 4.856C69.5653 4.28 70.1893 3.82133 70.936 3.48C71.6827 3.13867 72.5573 2.968 73.56 2.968C74.6267 2.968 75.5707 3.17067 76.392 3.576C77.224 3.97067 77.8907 4.53067 78.392 5.256C78.8933 5.97067 79.1867 6.80267 79.272 7.752H76.296C76.2213 7.34667 76.0613 6.99467 75.816 6.696C75.5707 6.39733 75.256 6.168 74.872 6.008C74.488 5.83733 74.0507 5.752 73.56 5.752C73.1013 5.752 72.6853 5.832 72.312 5.992C71.9493 6.152 71.64 6.38133 71.384 6.68C71.1387 6.968 70.9467 7.32 70.808 7.736C70.68 8.152 70.616 8.62133 70.616 9.144C70.616 9.66667 70.68 10.136 70.808 10.552C70.9467 10.968 71.144 11.3253 71.4 11.624C71.6667 11.9227 71.9867 12.152 72.36 12.312C72.7333 12.4613 73.16 12.536 73.64 12.536C74.3867 12.536 75.016 12.3547 75.528 11.992C76.0507 11.6293 76.3653 11.144 76.472 10.536H79.448C79.352 11.4107 79.0587 12.2107 78.568 12.936C78.0773 13.6613 77.416 14.2427 76.584 14.68C75.752 15.1067 74.7707 15.32 73.64 15.32ZM85.1721 15.32C84.0841 15.32 83.1668 15.1493 82.4201 14.808C81.6841 14.4667 81.1241 14.0027 80.7401 13.416C80.3668 12.8187 80.1801 12.136 80.1801 11.368H83.0601C83.0601 11.6453 83.1348 11.9013 83.2841 12.136C83.4441 12.36 83.6788 12.536 83.9881 12.664C84.2975 12.792 84.6921 12.856 85.1721 12.856C85.5881 12.856 85.9401 12.8027 86.2281 12.696C86.5268 12.5893 86.7508 12.44 86.9001 12.248C87.0601 12.056 87.1401 11.8267 87.1401 11.56C87.1401 11.2187 86.9961 10.9573 86.7081 10.776C86.4201 10.584 85.9348 10.4613 85.2521 10.408L84.5001 10.344C83.2948 10.2373 82.3348 9.85867 81.6201 9.208C80.9055 8.55733 80.5481 7.69333 80.5481 6.616C80.5481 5.848 80.7241 5.192 81.0761 4.648C81.4388 4.104 81.9455 3.688 82.5961 3.4C83.2468 3.112 84.0148 2.968 84.9001 2.968C85.8601 2.968 86.6708 3.128 87.3321 3.448C88.0041 3.768 88.5161 4.22133 88.8681 4.808C89.2201 5.384 89.3961 6.056 89.3961 6.824H86.5161C86.5161 6.568 86.4521 6.33333 86.3241 6.12C86.1961 5.90667 86.0095 5.74133 85.7641 5.624C85.5295 5.496 85.2415 5.432 84.9001 5.432C84.5801 5.432 84.3081 5.48533 84.0841 5.592C83.8708 5.688 83.7055 5.82667 83.5881 6.008C83.4815 6.18933 83.4281 6.392 83.4281 6.616C83.4281 6.91467 83.5295 7.17067 83.7321 7.384C83.9348 7.59733 84.2868 7.72533 84.7881 7.768L85.5401 7.832C86.4148 7.90667 87.1881 8.09867 87.8601 8.408C88.5321 8.70667 89.0601 9.11733 89.4441 9.64C89.8281 10.1627 90.0201 10.8027 90.0201 11.56C90.0201 12.3173 89.8228 12.9787 89.4281 13.544C89.0441 14.1093 88.4895 14.5467 87.7641 14.856C87.0495 15.1653 86.1855 15.32 85.1721 15.32ZM95.719 15.32C94.631 15.32 93.7137 15.1493 92.967 14.808C92.231 14.4667 91.671 14.0027 91.287 13.416C90.9137 12.8187 90.727 12.136 90.727 11.368H93.607C93.607 11.6453 93.6817 11.9013 93.831 12.136C93.991 12.36 94.2257 12.536 94.535 12.664C94.8443 12.792 95.239 12.856 95.719 12.856C96.135 12.856 96.487 12.8027 96.775 12.696C97.0737 12.5893 97.2977 12.44 97.447 12.248C97.607 12.056 97.687 11.8267 97.687 11.56C97.687 11.2187 97.543 10.9573 97.255 10.776C96.967 10.584 96.4817 10.4613 95.799 10.408L95.047 10.344C93.8417 10.2373 92.8817 9.85867 92.167 9.208C91.4523 8.55733 91.095 7.69333 91.095 6.616C91.095 5.848 91.271 5.192 91.623 4.648C91.9857 4.104 92.4923 3.688 93.143 3.4C93.7937 3.112 94.5617 2.968 95.447 2.968C96.407 2.968 97.2177 3.128 97.879 3.448C98.551 3.768 99.063 4.22133 99.415 4.808C99.767 5.384 99.943 6.056 99.943 6.824H97.063C97.063 6.568 96.999 6.33333 96.871 6.12C96.743 5.90667 96.5563 5.74133 96.311 5.624C96.0763 5.496 95.7883 5.432 95.447 5.432C95.127 5.432 94.855 5.48533 94.631 5.592C94.4177 5.688 94.2523 5.82667 94.135 6.008C94.0283 6.18933 93.975 6.392 93.975 6.616C93.975 6.91467 94.0763 7.17067 94.279 7.384C94.4817 7.59733 94.8337 7.72533 95.335 7.768L96.087 7.832C96.9617 7.90667 97.735 8.09867 98.407 8.408C99.079 8.70667 99.607 9.11733 99.991 9.64C100.375 10.1627 100.567 10.8027 100.567 11.56C100.567 12.3173 100.37 12.9787 99.975 13.544C99.591 14.1093 99.0363 14.5467 98.311 14.856C97.5963 15.1653 96.7323 15.32 95.719 15.32ZM105.93 15.32C105.013 15.32 104.213 15.1547 103.53 14.824C102.847 14.4827 102.319 14.024 101.946 13.448C101.583 12.8613 101.402 12.1947 101.402 11.448H104.282C104.282 11.864 104.426 12.2053 104.714 12.472C105.002 12.728 105.407 12.856 105.93 12.856C106.282 12.856 106.581 12.792 106.826 12.664C107.071 12.5253 107.258 12.344 107.386 12.12C107.514 11.8853 107.578 11.624 107.578 11.336C107.578 10.8987 107.434 10.536 107.146 10.248C106.869 9.96 106.463 9.816 105.93 9.816C105.621 9.816 105.343 9.864 105.098 9.96C104.863 10.056 104.661 10.1787 104.49 10.328L103.162 8.12L106.394 6.136L106.25 5.88H101.898V3.32H110.026V5.864L105.818 8.424L104.474 7.928C104.698 7.864 104.933 7.816 105.178 7.784C105.434 7.752 105.695 7.736 105.962 7.736C106.879 7.736 107.674 7.88 108.346 8.168C109.018 8.456 109.535 8.872 109.898 9.416C110.271 9.94933 110.458 10.5893 110.458 11.336V11.528C110.458 12.264 110.271 12.92 109.898 13.496C109.535 14.0613 109.013 14.5093 108.33 14.84C107.658 15.16 106.858 15.32 105.93 15.32Z" fill="white"/>
</svg>
