<svg width="478" height="194" viewBox="0 0 478 194" fill="none" xmlns="http://www.w3.org/2000/svg">
<mask id="mask0_239_73" style="mask-type:alpha" maskUnits="userSpaceOnUse" x="0" y="0" width="478" height="194">
<rect width="478" height="194" fill="#8892BF"/>
</mask>
<g mask="url(#mask0_239_73)">
<rect width="478" height="194" fill="#1C88C7"/>
<path d="M0.0701828 164L112.118 194.023L102.657 229.33L-9.39023 199.307L0.0701828 164Z" fill="#18005B"/>
<path d="M-1.6265 141.518L201.842 196.038L198.308 209.227L-5.1607 154.708L-1.6265 141.518Z" fill="#18005B"/>
<path d="M-2.84124 124.052L257.68 193.858L255.361 202.515L-5.1607 132.708L-2.84124 124.052Z" fill="#18005B"/>
<path d="M34.024 124.399L29 63L89 63.1234L83.6876 124.399L59.2264 131.482L34.024 124.399Z" fill="#EBEBEB"/>
<path d="M59.2264 125.171V68.229L83.9348 68.3116L79.5287 119.258L59.2264 125.171Z" fill="white"/>
<path d="M77.7989 75.5072H39.7893L40.819 82.9501H58.8558L41.1074 90.6005L42.1366 97.7956H68.2864L67.339 107.844L58.4851 109.581L50.4553 107.514L49.8374 101.807H42.4661L43.4542 113.675L59.2676 118.1L74.4224 113.262L76.3579 90.0626H60.3379L77.7984 82.7849L77.7989 75.5072Z" fill="#1C88C7"/>
<rect x="148" y="72" width="315" height="50" rx="8" stroke="#EBEBEB" stroke-width="8"/>
<rect x="154" y="78" width="59" height="38" rx="3" fill="white"/>
<rect x="215" y="78" width="59" height="38" rx="3" fill="white"/>
<rect x="276" y="78" width="59" height="38" rx="3" fill="white"/>
<rect x="337" y="78" width="59" height="38" rx="3" fill="white"/>
<rect x="398" y="78" width="59" height="38" rx="3" fill="white"/>
<path d="M214.32 184.24C212.453 184.24 211.067 183.613 210.16 182.36C209.267 181.093 208.82 179.313 208.82 177.02C208.82 174.727 209.267 172.953 210.16 171.7C211.067 170.433 212.453 169.8 214.32 169.8C215.04 169.8 215.673 169.9 216.22 170.1C216.78 170.287 217.26 170.553 217.66 170.9C218.06 171.247 218.387 171.667 218.64 172.16C218.907 172.653 219.113 173.207 219.26 173.82L216.46 174.5C216.38 174.167 216.287 173.86 216.18 173.58C216.073 173.3 215.933 173.06 215.76 172.86C215.6 172.66 215.393 172.507 215.14 172.4C214.9 172.28 214.607 172.22 214.26 172.22C213.447 172.22 212.867 172.54 212.52 173.18C212.187 173.807 212.02 174.68 212.02 175.8V178.24C212.02 179.36 212.187 180.24 212.52 180.88C212.867 181.507 213.447 181.82 214.26 181.82C214.953 181.82 215.453 181.607 215.76 181.18C216.08 180.753 216.313 180.207 216.46 179.54L219.26 180.22C219.113 180.833 218.907 181.387 218.64 181.88C218.387 182.373 218.06 182.8 217.66 183.16C217.26 183.507 216.78 183.773 216.22 183.96C215.673 184.147 215.04 184.24 214.32 184.24ZM229.732 184C229.119 184 228.626 183.847 228.252 183.54C227.879 183.22 227.659 182.767 227.592 182.18H227.492C227.306 182.86 226.932 183.373 226.372 183.72C225.826 184.067 225.152 184.24 224.352 184.24C223.352 184.24 222.546 183.973 221.932 183.44C221.332 182.893 221.032 182.133 221.032 181.16C221.032 180.08 221.426 179.28 222.212 178.76C222.999 178.24 224.152 177.98 225.672 177.98H227.332V177.46C227.332 176.847 227.186 176.387 226.892 176.08C226.612 175.76 226.132 175.6 225.452 175.6C224.826 175.6 224.319 175.72 223.932 175.96C223.546 176.2 223.212 176.513 222.932 176.9L221.312 175.46C221.659 174.873 222.199 174.393 222.932 174.02C223.679 173.633 224.632 173.44 225.792 173.44C227.206 173.44 228.306 173.767 229.092 174.42C229.892 175.06 230.292 176.033 230.292 177.34V181.86H231.432V184H229.732ZM225.472 182.3C225.992 182.3 226.432 182.173 226.792 181.92C227.152 181.667 227.332 181.3 227.332 180.82V179.58H225.752C224.539 179.58 223.932 179.987 223.932 180.8V181.2C223.932 181.56 224.072 181.833 224.352 182.02C224.632 182.207 225.006 182.3 225.472 182.3ZM237.864 184.24C236.718 184.24 235.718 184.067 234.864 183.72C234.024 183.373 233.391 182.9 232.964 182.3L234.624 180.76C235.024 181.2 235.491 181.547 236.024 181.8C236.571 182.04 237.191 182.16 237.884 182.16C238.471 182.16 238.931 182.073 239.264 181.9C239.598 181.713 239.764 181.433 239.764 181.06C239.764 180.767 239.651 180.567 239.424 180.46C239.198 180.34 238.884 180.247 238.484 180.18L236.824 179.92C236.358 179.853 235.924 179.753 235.524 179.62C235.124 179.473 234.778 179.28 234.484 179.04C234.191 178.8 233.958 178.507 233.784 178.16C233.611 177.813 233.524 177.393 233.524 176.9C233.524 175.82 233.938 174.973 234.764 174.36C235.591 173.747 236.751 173.44 238.244 173.44C239.258 173.44 240.118 173.58 240.824 173.86C241.544 174.127 242.118 174.513 242.544 175.02L241.064 176.7C240.758 176.367 240.364 176.087 239.884 175.86C239.404 175.633 238.824 175.52 238.144 175.52C236.998 175.52 236.424 175.867 236.424 176.56C236.424 176.867 236.538 177.08 236.764 177.2C236.991 177.307 237.304 177.393 237.704 177.46L239.344 177.72C239.811 177.787 240.244 177.893 240.644 178.04C241.044 178.173 241.391 178.36 241.684 178.6C241.991 178.84 242.231 179.133 242.404 179.48C242.578 179.827 242.664 180.247 242.664 180.74C242.664 181.82 242.244 182.673 241.404 183.3C240.578 183.927 239.398 184.24 237.864 184.24ZM250.397 184.24C249.583 184.24 248.85 184.12 248.197 183.88C247.557 183.627 247.01 183.267 246.557 182.8C246.117 182.333 245.777 181.767 245.537 181.1C245.297 180.433 245.177 179.68 245.177 178.84C245.177 178 245.297 177.247 245.537 176.58C245.777 175.913 246.117 175.347 246.557 174.88C247.01 174.413 247.557 174.06 248.197 173.82C248.85 173.567 249.577 173.44 250.377 173.44C251.51 173.44 252.417 173.673 253.097 174.14C253.79 174.593 254.317 175.2 254.677 175.96L252.397 177.2C252.21 176.8 251.963 176.467 251.657 176.2C251.363 175.933 250.937 175.8 250.377 175.8C249.697 175.8 249.17 176 248.797 176.4C248.437 176.787 248.257 177.32 248.257 178V179.68C248.257 180.36 248.437 180.9 248.797 181.3C249.17 181.687 249.71 181.88 250.417 181.88C250.99 181.88 251.437 181.747 251.757 181.48C252.09 181.213 252.37 180.867 252.597 180.44L254.837 181.72C254.463 182.48 253.917 183.093 253.197 183.56C252.49 184.013 251.557 184.24 250.397 184.24ZM265.709 184C265.095 184 264.602 183.847 264.229 183.54C263.855 183.22 263.635 182.767 263.569 182.18H263.469C263.282 182.86 262.909 183.373 262.349 183.72C261.802 184.067 261.129 184.24 260.329 184.24C259.329 184.24 258.522 183.973 257.909 183.44C257.309 182.893 257.009 182.133 257.009 181.16C257.009 180.08 257.402 179.28 258.189 178.76C258.975 178.24 260.129 177.98 261.649 177.98H263.309V177.46C263.309 176.847 263.162 176.387 262.869 176.08C262.589 175.76 262.109 175.6 261.429 175.6C260.802 175.6 260.295 175.72 259.909 175.96C259.522 176.2 259.189 176.513 258.909 176.9L257.289 175.46C257.635 174.873 258.175 174.393 258.909 174.02C259.655 173.633 260.609 173.44 261.769 173.44C263.182 173.44 264.282 173.767 265.069 174.42C265.869 175.06 266.269 176.033 266.269 177.34V181.86H267.409V184H265.709ZM261.449 182.3C261.969 182.3 262.409 182.173 262.769 181.92C263.129 181.667 263.309 181.3 263.309 180.82V179.58H261.729C260.515 179.58 259.909 179.987 259.909 180.8V181.2C259.909 181.56 260.049 181.833 260.329 182.02C260.609 182.207 260.982 182.3 261.449 182.3ZM275.821 182.12H275.681C275.414 182.747 275.041 183.26 274.561 183.66C274.094 184.047 273.448 184.24 272.621 184.24C272.048 184.24 271.521 184.133 271.041 183.92C270.574 183.707 270.168 183.38 269.821 182.94C269.488 182.5 269.221 181.94 269.021 181.26C268.834 180.58 268.741 179.773 268.741 178.84C268.741 177.907 268.834 177.1 269.021 176.42C269.221 175.74 269.488 175.18 269.821 174.74C270.168 174.3 270.574 173.973 271.041 173.76C271.521 173.547 272.048 173.44 272.621 173.44C273.034 173.44 273.401 173.493 273.721 173.6C274.041 173.707 274.321 173.853 274.561 174.04C274.814 174.227 275.028 174.453 275.201 174.72C275.388 174.973 275.548 175.253 275.681 175.56H275.821V169.2H278.781V184H275.821V182.12ZM273.901 181.94C274.421 181.94 274.868 181.813 275.241 181.56C275.628 181.307 275.821 180.907 275.821 180.36V177.32C275.821 176.773 275.628 176.373 275.241 176.12C274.868 175.867 274.421 175.74 273.901 175.74C273.234 175.74 272.721 175.947 272.361 176.36C272.001 176.76 271.821 177.32 271.821 178.04V179.64C271.821 180.36 272.001 180.927 272.361 181.34C272.721 181.74 273.234 181.94 273.901 181.94ZM286.593 172.36C285.926 172.36 285.46 172.227 285.193 171.96C284.94 171.68 284.813 171.347 284.813 170.96V170.38C284.813 169.98 284.94 169.647 285.193 169.38C285.46 169.113 285.926 168.98 286.593 168.98C287.26 168.98 287.72 169.113 287.973 169.38C288.24 169.647 288.373 169.98 288.373 170.38V170.96C288.373 171.347 288.24 171.68 287.973 171.96C287.72 172.227 287.26 172.36 286.593 172.36ZM281.833 181.7H285.113V175.98H281.833V173.68H288.073V181.7H291.113V184H281.833V181.7ZM293.245 184V173.68H296.205V175.56H296.325C296.445 175.267 296.592 174.993 296.765 174.74C296.939 174.487 297.145 174.267 297.385 174.08C297.639 173.88 297.925 173.727 298.245 173.62C298.579 173.5 298.952 173.44 299.365 173.44C299.859 173.44 300.312 173.527 300.725 173.7C301.139 173.86 301.492 174.107 301.785 174.44C302.079 174.773 302.305 175.18 302.465 175.66C302.639 176.14 302.725 176.693 302.725 177.32V184H299.765V177.72C299.765 176.387 299.185 175.72 298.025 175.72C297.799 175.72 297.572 175.753 297.345 175.82C297.132 175.873 296.939 175.967 296.765 176.1C296.592 176.22 296.452 176.373 296.345 176.56C296.252 176.747 296.205 176.967 296.205 177.22V184H293.245ZM315.598 185.04C315.598 186.133 315.138 186.94 314.217 187.46C313.298 187.98 311.851 188.24 309.878 188.24C308.891 188.24 308.078 188.18 307.438 188.06C306.798 187.953 306.284 187.793 305.898 187.58C305.524 187.367 305.258 187.113 305.098 186.82C304.951 186.527 304.878 186.207 304.878 185.86C304.878 185.273 305.051 184.827 305.398 184.52C305.744 184.227 306.231 184 306.858 183.84V183.72C306.418 183.587 306.064 183.4 305.798 183.16C305.544 182.907 305.418 182.553 305.418 182.1C305.418 181.593 305.584 181.22 305.918 180.98C306.264 180.74 306.718 180.553 307.278 180.42V180.3C306.664 180.007 306.184 179.593 305.838 179.06C305.504 178.527 305.338 177.88 305.338 177.12C305.338 176.52 305.444 175.993 305.658 175.54C305.871 175.073 306.171 174.687 306.558 174.38C306.958 174.073 307.431 173.84 307.978 173.68C308.524 173.52 309.138 173.44 309.817 173.44C310.471 173.44 311.078 173.513 311.638 173.66V173.1C311.638 172.7 311.778 172.367 312.058 172.1C312.338 171.833 312.724 171.7 313.218 171.7H315.038V173.86H312.558V174.04C313.118 174.333 313.551 174.74 313.858 175.26C314.178 175.767 314.338 176.387 314.338 177.12C314.338 177.72 314.231 178.247 314.018 178.7C313.804 179.153 313.498 179.54 313.098 179.86C312.698 180.167 312.218 180.4 311.658 180.56C311.111 180.72 310.498 180.8 309.817 180.8C309.511 180.8 309.218 180.787 308.938 180.76C308.658 180.72 308.391 180.667 308.138 180.6C307.991 180.68 307.864 180.78 307.758 180.9C307.664 181.02 307.618 181.173 307.618 181.36C307.618 181.52 307.658 181.647 307.738 181.74C307.818 181.833 307.924 181.907 308.058 181.96C308.204 182 308.371 182.027 308.558 182.04C308.744 182.053 308.938 182.06 309.138 182.06H311.498C312.231 182.06 312.858 182.133 313.378 182.28C313.898 182.427 314.324 182.633 314.658 182.9C314.991 183.167 315.231 183.48 315.378 183.84C315.524 184.2 315.598 184.6 315.598 185.04ZM312.798 185.26C312.798 184.993 312.691 184.78 312.478 184.62C312.264 184.473 311.858 184.4 311.258 184.4H307.718C307.451 184.627 307.318 184.907 307.318 185.24C307.318 185.56 307.451 185.82 307.718 186.02C307.998 186.233 308.464 186.34 309.118 186.34H310.858C311.538 186.34 312.031 186.247 312.338 186.06C312.644 185.873 312.798 185.607 312.798 185.26ZM309.817 178.92C310.418 178.92 310.851 178.773 311.118 178.48C311.398 178.187 311.538 177.813 311.538 177.36V176.88C311.538 176.427 311.398 176.053 311.118 175.76C310.851 175.467 310.418 175.32 309.817 175.32C309.231 175.32 308.804 175.467 308.538 175.76C308.271 176.053 308.138 176.427 308.138 176.88V177.36C308.138 177.813 308.271 178.187 308.538 178.48C308.804 178.773 309.231 178.92 309.817 178.92ZM333.702 184.24C332.529 184.24 331.509 184.047 330.642 183.66C329.775 183.273 329.075 182.747 328.542 182.08L330.282 180.16C330.789 180.72 331.342 181.133 331.942 181.4C332.555 181.667 333.175 181.8 333.802 181.8C334.522 181.8 335.069 181.64 335.442 181.32C335.815 181 336.002 180.54 336.002 179.94C336.002 179.447 335.855 179.073 335.562 178.82C335.282 178.567 334.802 178.387 334.122 178.28L332.662 178.04C331.409 177.827 330.502 177.367 329.942 176.66C329.382 175.94 329.102 175.067 329.102 174.04C329.102 172.693 329.542 171.653 330.422 170.92C331.302 170.173 332.535 169.8 334.122 169.8C335.202 169.8 336.142 169.967 336.942 170.3C337.742 170.633 338.389 171.087 338.882 171.66L337.182 173.56C336.809 173.147 336.369 172.827 335.862 172.6C335.355 172.36 334.782 172.24 334.142 172.24C332.795 172.24 332.122 172.793 332.122 173.9C332.122 174.38 332.269 174.74 332.562 174.98C332.869 175.22 333.362 175.4 334.042 175.52L335.502 175.78C336.635 175.98 337.509 176.407 338.122 177.06C338.735 177.713 339.042 178.593 339.042 179.7C339.042 180.353 338.929 180.96 338.702 181.52C338.475 182.067 338.135 182.547 337.682 182.96C337.229 183.36 336.669 183.673 336.002 183.9C335.349 184.127 334.582 184.24 333.702 184.24ZM346.714 184C345.647 184 344.854 183.72 344.334 183.16C343.814 182.6 343.554 181.887 343.554 181.02V175.98H340.754V173.68H342.574C343.014 173.68 343.327 173.593 343.514 173.42C343.701 173.247 343.794 172.927 343.794 172.46V170.04H346.514V173.68H350.534V175.98H346.514V181.7H350.534V184H346.714ZM360.506 173.68H363.526L358.666 185.66C358.36 186.42 357.953 187 357.446 187.4C356.94 187.8 356.246 188 355.366 188H353.326V185.7H355.806L356.446 183.94L352.286 173.68H355.466L356.966 178.02L357.906 181.02H358.066L358.966 178.02L360.506 173.68ZM365.258 181.7H368.418V171.5H365.258V169.2H371.378V181.7H374.538V184H365.258V181.7ZM382.171 184.24C380.437 184.24 379.124 183.76 378.231 182.8C377.337 181.84 376.891 180.533 376.891 178.88C376.891 178.04 377.004 177.287 377.231 176.62C377.471 175.94 377.804 175.367 378.231 174.9C378.671 174.42 379.197 174.06 379.811 173.82C380.437 173.567 381.137 173.44 381.911 173.44C382.684 173.44 383.377 173.567 383.991 173.82C384.604 174.06 385.124 174.407 385.551 174.86C385.977 175.313 386.304 175.867 386.531 176.52C386.771 177.16 386.891 177.88 386.891 178.68V179.56H379.831V179.74C379.831 180.407 380.037 180.947 380.451 181.36C380.864 181.76 381.471 181.96 382.271 181.96C382.884 181.96 383.411 181.847 383.851 181.62C384.291 181.38 384.671 181.067 384.991 180.68L386.591 182.42C386.191 182.913 385.631 183.34 384.911 183.7C384.191 184.06 383.277 184.24 382.171 184.24ZM381.931 175.56C381.291 175.56 380.777 175.76 380.391 176.16C380.017 176.547 379.831 177.073 379.831 177.74V177.9H383.991V177.74C383.991 177.06 383.804 176.527 383.431 176.14C383.071 175.753 382.571 175.56 381.931 175.56ZM405.655 184.24C404.482 184.24 403.462 184.047 402.595 183.66C401.728 183.273 401.028 182.747 400.495 182.08L402.235 180.16C402.742 180.72 403.295 181.133 403.895 181.4C404.508 181.667 405.128 181.8 405.755 181.8C406.475 181.8 407.022 181.64 407.395 181.32C407.768 181 407.955 180.54 407.955 179.94C407.955 179.447 407.808 179.073 407.515 178.82C407.235 178.567 406.755 178.387 406.075 178.28L404.615 178.04C403.362 177.827 402.455 177.367 401.895 176.66C401.335 175.94 401.055 175.067 401.055 174.04C401.055 172.693 401.495 171.653 402.375 170.92C403.255 170.173 404.488 169.8 406.075 169.8C407.155 169.8 408.095 169.967 408.895 170.3C409.695 170.633 410.342 171.087 410.835 171.66L409.135 173.56C408.762 173.147 408.322 172.827 407.815 172.6C407.308 172.36 406.735 172.24 406.095 172.24C404.748 172.24 404.075 172.793 404.075 173.9C404.075 174.38 404.222 174.74 404.515 174.98C404.822 175.22 405.315 175.4 405.995 175.52L407.455 175.78C408.588 175.98 409.462 176.407 410.075 177.06C410.688 177.713 410.995 178.593 410.995 179.7C410.995 180.353 410.882 180.96 410.655 181.52C410.428 182.067 410.088 182.547 409.635 182.96C409.182 183.36 408.622 183.673 407.955 183.9C407.302 184.127 406.535 184.24 405.655 184.24ZM413.167 169.2H416.127V175.56H416.247C416.367 175.267 416.514 174.993 416.687 174.74C416.861 174.487 417.067 174.267 417.307 174.08C417.561 173.88 417.847 173.727 418.167 173.62C418.501 173.5 418.874 173.44 419.287 173.44C419.781 173.44 420.234 173.527 420.647 173.7C421.061 173.86 421.414 174.107 421.707 174.44C422.001 174.773 422.227 175.18 422.387 175.66C422.561 176.14 422.647 176.693 422.647 177.32V184H419.687V177.72C419.687 176.387 419.107 175.72 417.947 175.72C417.721 175.72 417.494 175.753 417.267 175.82C417.054 175.873 416.861 175.967 416.687 176.1C416.514 176.22 416.374 176.373 416.267 176.56C416.174 176.747 416.127 176.967 416.127 177.22V184H413.167V169.2ZM430.139 184.24C428.406 184.24 427.093 183.76 426.199 182.8C425.306 181.84 424.859 180.533 424.859 178.88C424.859 178.04 424.973 177.287 425.199 176.62C425.439 175.94 425.773 175.367 426.199 174.9C426.639 174.42 427.166 174.06 427.779 173.82C428.406 173.567 429.106 173.44 429.879 173.44C430.653 173.44 431.346 173.567 431.959 173.82C432.573 174.06 433.093 174.407 433.519 174.86C433.946 175.313 434.273 175.867 434.499 176.52C434.739 177.16 434.859 177.88 434.859 178.68V179.56H427.799V179.74C427.799 180.407 428.006 180.947 428.419 181.36C428.833 181.76 429.439 181.96 430.239 181.96C430.853 181.96 431.379 181.847 431.819 181.62C432.259 181.38 432.639 181.067 432.959 180.68L434.559 182.42C434.159 182.913 433.599 183.34 432.879 183.7C432.159 184.06 431.246 184.24 430.139 184.24ZM429.899 175.56C429.259 175.56 428.746 175.76 428.359 176.16C427.986 176.547 427.799 177.073 427.799 177.74V177.9H431.959V177.74C431.959 177.06 431.773 176.527 431.399 176.14C431.039 175.753 430.539 175.56 429.899 175.56ZM442.132 184.24C440.398 184.24 439.085 183.76 438.192 182.8C437.298 181.84 436.852 180.533 436.852 178.88C436.852 178.04 436.965 177.287 437.192 176.62C437.432 175.94 437.765 175.367 438.192 174.9C438.632 174.42 439.158 174.06 439.772 173.82C440.398 173.567 441.098 173.44 441.872 173.44C442.645 173.44 443.338 173.567 443.952 173.82C444.565 174.06 445.085 174.407 445.512 174.86C445.938 175.313 446.265 175.867 446.492 176.52C446.732 177.16 446.852 177.88 446.852 178.68V179.56H439.792V179.74C439.792 180.407 439.998 180.947 440.412 181.36C440.825 181.76 441.432 181.96 442.232 181.96C442.845 181.96 443.372 181.847 443.812 181.62C444.252 181.38 444.632 181.067 444.952 180.68L446.552 182.42C446.152 182.913 445.592 183.34 444.872 183.7C444.152 184.06 443.238 184.24 442.132 184.24ZM441.892 175.56C441.252 175.56 440.738 175.76 440.352 176.16C439.978 176.547 439.792 177.073 439.792 177.74V177.9H443.952V177.74C443.952 177.06 443.765 176.527 443.392 176.14C443.032 175.753 442.532 175.56 441.892 175.56ZM454.644 184C453.577 184 452.784 183.72 452.264 183.16C451.744 182.6 451.484 181.887 451.484 181.02V175.98H448.684V173.68H450.504C450.944 173.68 451.257 173.593 451.444 173.42C451.63 173.247 451.724 172.927 451.724 172.46V170.04H454.444V173.68H458.464V175.98H454.444V181.7H458.464V184H454.644ZM465.716 184.24C464.569 184.24 463.569 184.067 462.716 183.72C461.876 183.373 461.243 182.9 460.816 182.3L462.476 180.76C462.876 181.2 463.343 181.547 463.876 181.8C464.423 182.04 465.043 182.16 465.736 182.16C466.323 182.16 466.783 182.073 467.116 181.9C467.449 181.713 467.616 181.433 467.616 181.06C467.616 180.767 467.503 180.567 467.276 180.46C467.049 180.34 466.736 180.247 466.336 180.18L464.676 179.92C464.209 179.853 463.776 179.753 463.376 179.62C462.976 179.473 462.629 179.28 462.336 179.04C462.043 178.8 461.809 178.507 461.636 178.16C461.463 177.813 461.376 177.393 461.376 176.9C461.376 175.82 461.789 174.973 462.616 174.36C463.443 173.747 464.603 173.44 466.096 173.44C467.109 173.44 467.969 173.58 468.676 173.86C469.396 174.127 469.969 174.513 470.396 175.02L468.916 176.7C468.609 176.367 468.216 176.087 467.736 175.86C467.256 175.633 466.676 175.52 465.996 175.52C464.849 175.52 464.276 175.867 464.276 176.56C464.276 176.867 464.389 177.08 464.616 177.2C464.843 177.307 465.156 177.393 465.556 177.46L467.196 177.72C467.663 177.787 468.096 177.893 468.496 178.04C468.896 178.173 469.243 178.36 469.536 178.6C469.843 178.84 470.083 179.133 470.256 179.48C470.429 179.827 470.516 180.247 470.516 180.74C470.516 181.82 470.096 182.673 469.256 183.3C468.429 183.927 467.249 184.24 465.716 184.24Z" fill="white"/>
</g>
</svg>
