<svg width="4000" height="651" viewBox="0 0 4000 651" fill="none" xmlns="http://www.w3.org/2000/svg">
<rect width="4000" height="651" fill="#2C2C2C" fill-opacity="0.1"/>
<rect x="128.204" y="185.5" width="260" height="260" rx="130" fill="#0E21A0"/>
<mask id="mask0_59_307" style="mask-type:alpha" maskUnits="userSpaceOnUse" x="168" y="225" width="181" height="181">
<rect x="168.204" y="225.5" width="180" height="180" rx="6" fill="#D9D9D9"/>
</mask>
<g mask="url(#mask0_59_307)">
<path d="M332.197 361.507C329.854 363.851 326.055 363.851 323.712 361.507L309.697 347.493C307.354 345.15 307.354 341.351 309.697 339.007L311.712 336.993C314.055 334.65 317.854 334.65 320.197 336.993L334.212 351.007C336.555 353.351 336.555 357.15 334.212 359.493L332.197 361.507ZM305.197 271.507C302.854 273.851 299.055 273.851 296.712 271.507L294.697 269.493C292.354 267.15 292.354 263.351 294.697 261.007L308.712 246.993C311.055 244.65 314.854 244.65 317.197 246.993L319.212 249.007C321.555 251.351 321.555 255.15 319.212 257.493L305.197 271.507ZM219.697 271.507C217.354 273.851 213.555 273.851 211.212 271.507L197.197 257.493C194.854 255.15 194.854 251.351 197.197 249.007L199.212 246.993C201.555 244.65 205.354 244.65 207.697 246.993L221.712 261.007C224.055 263.351 224.055 267.15 221.712 269.493L219.697 271.507ZM192.697 361.507C190.354 363.851 186.555 363.851 184.212 361.507L182.197 359.493C179.854 357.15 179.854 353.351 182.197 351.007L196.212 336.993C198.555 334.65 202.354 334.65 204.697 336.993L206.712 339.007C209.055 341.351 209.055 345.15 206.712 347.493L192.697 361.507ZM224.032 375.677C219.493 378.415 213.893 374.352 215.087 369.187L223.266 333.832C223.766 331.667 223.029 329.402 221.35 327.946L193.914 304.16C189.909 300.688 192.045 294.108 197.326 293.649L233.604 290.5C235.819 290.308 237.746 288.906 238.612 286.858L252.678 253.577C254.743 248.691 261.666 248.691 263.731 253.577L277.798 286.858C278.663 288.906 280.59 290.308 282.805 290.5L319.083 293.649C324.364 294.108 326.5 300.688 322.495 304.16L295.059 327.946C293.38 329.402 292.643 331.667 293.144 333.832L301.322 369.187C302.517 374.352 296.916 378.415 292.377 375.677L261.304 356.932C259.398 355.782 257.012 355.782 255.105 356.932L224.032 375.677Z" fill="white"/>
</g>
<mask id="path-4-outside-1_59_307" maskUnits="userSpaceOnUse" x="439.563" y="229.018" width="1075" height="207" fill="black">
<rect fill="white" x="439.563" y="229.018" width="1075" height="207"/>
<path d="M503.563 247.218C522.283 247.218 537.563 248.978 549.403 252.498C561.403 256.018 570.683 262.658 577.243 272.418C583.963 282.178 587.323 296.178 587.323 314.418C587.323 333.938 583.803 348.818 576.763 359.058C569.723 369.138 560.283 375.858 548.443 379.218C536.603 382.418 521.643 384.018 503.563 384.018H455.563V247.218H503.563ZM535.723 351.378C537.643 349.458 539.003 344.498 539.803 336.498C540.603 328.498 541.003 321.138 541.003 314.418C541.003 305.938 540.363 299.218 539.083 294.258C537.963 289.138 535.883 285.058 532.843 282.018C528.043 276.738 519.803 274.098 508.123 274.098C506.043 274.098 502.923 274.258 498.763 274.578V354.258C501.483 354.578 505.723 354.738 511.483 354.738C517.403 354.738 522.603 354.498 527.083 354.018C531.723 353.378 534.603 352.498 535.723 351.378ZM671.3 355.218C675.3 355.218 682.74 354.818 693.62 354.018C695.06 354.018 697.7 353.858 701.54 353.538L705.14 378.258C692.82 384.018 676.82 386.898 657.14 386.898C638.74 386.898 624.58 382.258 614.66 372.978C604.9 363.698 600.02 349.698 600.02 330.978C600.02 321.378 601.22 312.098 603.62 303.138C606.18 294.178 609.06 287.938 612.26 284.418C615.62 280.898 621.86 277.858 630.98 275.298C640.1 272.738 649.14 271.458 658.1 271.458C672.5 271.458 683.3 274.018 690.5 279.138C697.7 284.258 702.42 291.378 704.66 300.498C706.9 309.458 708.02 321.538 708.02 336.738C697.14 337.378 686.5 337.698 676.1 337.698H642.02C642.02 342.818 643.06 346.658 645.14 349.218C647.38 351.778 650.5 353.458 654.5 354.258C658.5 354.898 664.1 355.218 671.3 355.218ZM644.42 300.018C643.46 300.498 642.74 302.578 642.26 306.258C641.78 309.938 641.46 314.098 641.3 318.738H653.78C661.3 318.738 666.74 318.658 670.1 318.498C670.1 310.818 668.98 305.378 666.74 302.178C664.66 298.978 660.98 297.378 655.7 297.378C651.38 297.378 647.62 298.258 644.42 300.018ZM811.745 346.578C811.745 360.818 807.185 371.058 798.065 377.298C789.105 383.538 776.305 386.658 759.665 386.658C747.985 386.658 734.545 384.978 719.345 381.618C719.665 378.418 720.385 373.858 721.505 367.938C722.785 361.858 723.825 357.218 724.625 354.018C730.385 354.978 736.785 355.778 743.825 356.418C750.865 356.898 756.865 357.138 761.825 357.138C766.145 357.138 768.785 356.898 769.745 356.418C769.905 356.258 770.065 355.858 770.225 355.218C770.545 354.418 770.705 353.618 770.705 352.818C770.705 349.618 768.705 347.458 764.705 346.338C763.425 346.018 758.545 344.658 750.065 342.258C741.585 339.858 734.625 335.538 729.185 329.298C723.905 322.898 721.265 314.978 721.265 305.538C721.265 300.578 722.385 295.058 724.625 288.978C726.865 282.898 729.265 279.058 731.825 277.458C733.745 276.178 738.385 274.898 745.745 273.618C753.105 272.178 759.905 271.458 766.145 271.458C779.425 271.458 792.785 272.418 806.225 274.338C806.225 277.218 805.825 282.098 805.025 288.978C804.225 295.698 803.505 299.938 802.865 301.698C789.265 299.938 778.305 299.058 769.985 299.058C765.665 299.058 762.865 299.298 761.585 299.778C761.265 299.938 760.945 300.418 760.625 301.218C760.305 301.858 760.145 302.738 760.145 303.858C760.145 306.098 760.865 307.698 762.305 308.658C763.745 309.778 767.505 311.138 773.585 312.738C780.785 314.818 786.945 316.978 792.065 319.218C797.345 321.458 801.905 324.818 805.745 329.298C809.745 333.778 811.745 339.538 811.745 346.578ZM876.236 338.658C876.236 341.538 876.316 344.578 876.476 347.778C876.636 350.818 877.116 352.738 877.916 353.538C879.036 354.658 882.956 355.218 889.676 355.218L897.836 354.978C899.276 362.658 899.996 371.538 899.996 381.618C896.956 382.738 892.476 383.778 886.556 384.738C880.796 385.698 875.276 386.178 869.996 386.178C858.956 386.178 850.396 383.778 844.316 378.978C838.396 374.018 835.436 366.418 835.436 356.178V297.138H817.436V275.298L835.436 273.618L846.236 247.218L876.236 245.538V273.618H901.676V297.138H876.236V338.658ZM979.71 384.018L975.87 368.898C968.51 380.898 958.27 386.898 945.149 386.898C934.429 386.898 925.629 383.938 918.749 378.018C912.029 371.938 908.669 363.458 908.669 352.578C908.669 345.858 910.589 340.018 914.429 335.058C918.429 329.938 923.869 326.338 930.749 324.258C939.709 321.698 953.549 320.258 972.269 319.938C972.269 309.378 971.79 303.778 970.83 303.138C970.029 302.498 967.469 302.178 963.149 302.178C960.43 302.178 956.67 302.338 951.87 302.658C944.189 302.978 933.789 303.858 920.669 305.298C919.389 296.658 918.429 287.378 917.789 277.458C926.269 275.698 935.149 274.258 944.43 273.138C953.709 271.858 962.03 271.218 969.39 271.218C982.19 271.218 991.79 273.378 998.19 277.698C1004.59 281.858 1008.75 287.378 1010.67 294.258C1012.59 301.138 1013.47 309.858 1013.31 320.418L1013.07 355.698L1013.79 384.018H979.71ZM959.07 360.018C963.23 360.018 967.63 359.218 972.269 357.618V339.858H970.35C958.51 339.858 951.949 340.498 950.669 341.778C949.869 342.578 949.229 343.778 948.749 345.378C948.429 346.978 948.27 348.498 948.27 349.938C948.27 353.778 949.15 356.418 950.909 357.858C952.67 359.298 955.39 360.018 959.07 360.018ZM1088.48 271.458C1105.6 271.458 1123.28 273.858 1141.52 278.658V417.618L1100.48 419.298V387.618C1100.48 381.538 1101.68 374.418 1104.08 366.258L1103.36 365.778C1099.36 372.978 1094.16 378.098 1087.76 381.138C1081.36 384.018 1075.36 385.458 1069.76 385.458C1057.28 385.458 1047.2 381.058 1039.52 372.258C1031.84 363.298 1028 349.858 1028 331.938C1028 319.938 1029.52 309.058 1032.56 299.298C1035.6 289.538 1039.28 283.218 1043.6 280.338C1048.24 277.298 1054.56 275.058 1062.56 273.618C1070.56 272.178 1079.2 271.458 1088.48 271.458ZM1087.04 352.098C1090.88 352.098 1095.36 351.378 1100.48 349.938V299.778C1098.56 299.458 1095.68 299.138 1091.84 298.818C1090.4 298.658 1088.24 298.578 1085.36 298.578C1079.12 298.578 1075.6 299.218 1074.8 300.498C1073.36 302.738 1072.24 306.818 1071.44 312.738C1070.64 318.338 1070.24 323.778 1070.24 329.058C1070.24 337.378 1071.6 343.298 1074.32 346.818C1077.04 350.338 1081.28 352.098 1087.04 352.098ZM1271.38 273.618V384.018H1238.02L1233.46 365.538C1221.94 379.458 1208.18 386.418 1192.18 386.418C1186.42 386.418 1180.98 385.618 1175.86 384.018C1170.9 382.418 1167.14 380.098 1164.58 377.058C1163.14 375.298 1162.02 370.898 1161.22 363.858C1160.58 356.818 1160.26 346.098 1160.26 331.698V273.618H1201.3V331.218C1201.3 334.418 1201.38 338.178 1201.54 342.498C1201.7 346.818 1202.18 349.538 1202.98 350.658C1204.1 352.258 1207.3 353.058 1212.58 353.058L1216.42 352.818C1220.9 352.658 1225.54 351.618 1230.34 349.698V273.618H1271.38ZM1358.02 355.218C1362.02 355.218 1369.46 354.818 1380.34 354.018C1381.78 354.018 1384.42 353.858 1388.26 353.538L1391.86 378.258C1379.54 384.018 1363.54 386.898 1343.86 386.898C1325.46 386.898 1311.3 382.258 1301.38 372.978C1291.62 363.698 1286.74 349.698 1286.74 330.978C1286.74 321.378 1287.94 312.098 1290.34 303.138C1292.9 294.178 1295.78 287.938 1298.98 284.418C1302.34 280.898 1308.58 277.858 1317.7 275.298C1326.82 272.738 1335.86 271.458 1344.82 271.458C1359.22 271.458 1370.02 274.018 1377.22 279.138C1384.42 284.258 1389.14 291.378 1391.38 300.498C1393.62 309.458 1394.74 321.538 1394.74 336.738C1383.86 337.378 1373.22 337.698 1362.82 337.698H1328.74C1328.74 342.818 1329.78 346.658 1331.86 349.218C1334.1 351.778 1337.22 353.458 1341.22 354.258C1345.22 354.898 1350.82 355.218 1358.02 355.218ZM1331.14 300.018C1330.18 300.498 1329.46 302.578 1328.98 306.258C1328.5 309.938 1328.18 314.098 1328.02 318.738H1340.5C1348.02 318.738 1353.46 318.658 1356.82 318.498C1356.82 310.818 1355.7 305.378 1353.46 302.178C1351.38 298.978 1347.7 297.378 1342.42 297.378C1338.1 297.378 1334.34 298.258 1331.14 300.018ZM1498.46 346.578C1498.46 360.818 1493.9 371.058 1484.78 377.298C1475.82 383.538 1463.02 386.658 1446.38 386.658C1434.7 386.658 1421.26 384.978 1406.06 381.618C1406.38 378.418 1407.1 373.858 1408.22 367.938C1409.5 361.858 1410.54 357.218 1411.34 354.018C1417.1 354.978 1423.5 355.778 1430.54 356.418C1437.58 356.898 1443.58 357.138 1448.54 357.138C1452.86 357.138 1455.5 356.898 1456.46 356.418C1456.62 356.258 1456.78 355.858 1456.94 355.218C1457.26 354.418 1457.42 353.618 1457.42 352.818C1457.42 349.618 1455.42 347.458 1451.42 346.338C1450.14 346.018 1445.26 344.658 1436.78 342.258C1428.3 339.858 1421.34 335.538 1415.9 329.298C1410.62 322.898 1407.98 314.978 1407.98 305.538C1407.98 300.578 1409.1 295.058 1411.34 288.978C1413.58 282.898 1415.98 279.058 1418.54 277.458C1420.46 276.178 1425.1 274.898 1432.46 273.618C1439.82 272.178 1446.62 271.458 1452.86 271.458C1466.14 271.458 1479.5 272.418 1492.94 274.338C1492.94 277.218 1492.54 282.098 1491.74 288.978C1490.94 295.698 1490.22 299.938 1489.58 301.698C1475.98 299.938 1465.02 299.058 1456.7 299.058C1452.38 299.058 1449.58 299.298 1448.3 299.778C1447.98 299.938 1447.66 300.418 1447.34 301.218C1447.02 301.858 1446.86 302.738 1446.86 303.858C1446.86 306.098 1447.58 307.698 1449.02 308.658C1450.46 309.778 1454.22 311.138 1460.3 312.738C1467.5 314.818 1473.66 316.978 1478.78 319.218C1484.06 321.458 1488.62 324.818 1492.46 329.298C1496.46 333.778 1498.46 339.538 1498.46 346.578Z"/>
</mask>
<path d="M503.563 247.218C522.283 247.218 537.563 248.978 549.403 252.498C561.403 256.018 570.683 262.658 577.243 272.418C583.963 282.178 587.323 296.178 587.323 314.418C587.323 333.938 583.803 348.818 576.763 359.058C569.723 369.138 560.283 375.858 548.443 379.218C536.603 382.418 521.643 384.018 503.563 384.018H455.563V247.218H503.563ZM535.723 351.378C537.643 349.458 539.003 344.498 539.803 336.498C540.603 328.498 541.003 321.138 541.003 314.418C541.003 305.938 540.363 299.218 539.083 294.258C537.963 289.138 535.883 285.058 532.843 282.018C528.043 276.738 519.803 274.098 508.123 274.098C506.043 274.098 502.923 274.258 498.763 274.578V354.258C501.483 354.578 505.723 354.738 511.483 354.738C517.403 354.738 522.603 354.498 527.083 354.018C531.723 353.378 534.603 352.498 535.723 351.378ZM671.3 355.218C675.3 355.218 682.74 354.818 693.62 354.018C695.06 354.018 697.7 353.858 701.54 353.538L705.14 378.258C692.82 384.018 676.82 386.898 657.14 386.898C638.74 386.898 624.58 382.258 614.66 372.978C604.9 363.698 600.02 349.698 600.02 330.978C600.02 321.378 601.22 312.098 603.62 303.138C606.18 294.178 609.06 287.938 612.26 284.418C615.62 280.898 621.86 277.858 630.98 275.298C640.1 272.738 649.14 271.458 658.1 271.458C672.5 271.458 683.3 274.018 690.5 279.138C697.7 284.258 702.42 291.378 704.66 300.498C706.9 309.458 708.02 321.538 708.02 336.738C697.14 337.378 686.5 337.698 676.1 337.698H642.02C642.02 342.818 643.06 346.658 645.14 349.218C647.38 351.778 650.5 353.458 654.5 354.258C658.5 354.898 664.1 355.218 671.3 355.218ZM644.42 300.018C643.46 300.498 642.74 302.578 642.26 306.258C641.78 309.938 641.46 314.098 641.3 318.738H653.78C661.3 318.738 666.74 318.658 670.1 318.498C670.1 310.818 668.98 305.378 666.74 302.178C664.66 298.978 660.98 297.378 655.7 297.378C651.38 297.378 647.62 298.258 644.42 300.018ZM811.745 346.578C811.745 360.818 807.185 371.058 798.065 377.298C789.105 383.538 776.305 386.658 759.665 386.658C747.985 386.658 734.545 384.978 719.345 381.618C719.665 378.418 720.385 373.858 721.505 367.938C722.785 361.858 723.825 357.218 724.625 354.018C730.385 354.978 736.785 355.778 743.825 356.418C750.865 356.898 756.865 357.138 761.825 357.138C766.145 357.138 768.785 356.898 769.745 356.418C769.905 356.258 770.065 355.858 770.225 355.218C770.545 354.418 770.705 353.618 770.705 352.818C770.705 349.618 768.705 347.458 764.705 346.338C763.425 346.018 758.545 344.658 750.065 342.258C741.585 339.858 734.625 335.538 729.185 329.298C723.905 322.898 721.265 314.978 721.265 305.538C721.265 300.578 722.385 295.058 724.625 288.978C726.865 282.898 729.265 279.058 731.825 277.458C733.745 276.178 738.385 274.898 745.745 273.618C753.105 272.178 759.905 271.458 766.145 271.458C779.425 271.458 792.785 272.418 806.225 274.338C806.225 277.218 805.825 282.098 805.025 288.978C804.225 295.698 803.505 299.938 802.865 301.698C789.265 299.938 778.305 299.058 769.985 299.058C765.665 299.058 762.865 299.298 761.585 299.778C761.265 299.938 760.945 300.418 760.625 301.218C760.305 301.858 760.145 302.738 760.145 303.858C760.145 306.098 760.865 307.698 762.305 308.658C763.745 309.778 767.505 311.138 773.585 312.738C780.785 314.818 786.945 316.978 792.065 319.218C797.345 321.458 801.905 324.818 805.745 329.298C809.745 333.778 811.745 339.538 811.745 346.578ZM876.236 338.658C876.236 341.538 876.316 344.578 876.476 347.778C876.636 350.818 877.116 352.738 877.916 353.538C879.036 354.658 882.956 355.218 889.676 355.218L897.836 354.978C899.276 362.658 899.996 371.538 899.996 381.618C896.956 382.738 892.476 383.778 886.556 384.738C880.796 385.698 875.276 386.178 869.996 386.178C858.956 386.178 850.396 383.778 844.316 378.978C838.396 374.018 835.436 366.418 835.436 356.178V297.138H817.436V275.298L835.436 273.618L846.236 247.218L876.236 245.538V273.618H901.676V297.138H876.236V338.658ZM979.71 384.018L975.87 368.898C968.51 380.898 958.27 386.898 945.149 386.898C934.429 386.898 925.629 383.938 918.749 378.018C912.029 371.938 908.669 363.458 908.669 352.578C908.669 345.858 910.589 340.018 914.429 335.058C918.429 329.938 923.869 326.338 930.749 324.258C939.709 321.698 953.549 320.258 972.269 319.938C972.269 309.378 971.79 303.778 970.83 303.138C970.029 302.498 967.469 302.178 963.149 302.178C960.43 302.178 956.67 302.338 951.87 302.658C944.189 302.978 933.789 303.858 920.669 305.298C919.389 296.658 918.429 287.378 917.789 277.458C926.269 275.698 935.149 274.258 944.43 273.138C953.709 271.858 962.03 271.218 969.39 271.218C982.19 271.218 991.79 273.378 998.19 277.698C1004.59 281.858 1008.75 287.378 1010.67 294.258C1012.59 301.138 1013.47 309.858 1013.31 320.418L1013.07 355.698L1013.79 384.018H979.71ZM959.07 360.018C963.23 360.018 967.63 359.218 972.269 357.618V339.858H970.35C958.51 339.858 951.949 340.498 950.669 341.778C949.869 342.578 949.229 343.778 948.749 345.378C948.429 346.978 948.27 348.498 948.27 349.938C948.27 353.778 949.15 356.418 950.909 357.858C952.67 359.298 955.39 360.018 959.07 360.018ZM1088.48 271.458C1105.6 271.458 1123.28 273.858 1141.52 278.658V417.618L1100.48 419.298V387.618C1100.48 381.538 1101.68 374.418 1104.08 366.258L1103.36 365.778C1099.36 372.978 1094.16 378.098 1087.76 381.138C1081.36 384.018 1075.36 385.458 1069.76 385.458C1057.28 385.458 1047.2 381.058 1039.52 372.258C1031.84 363.298 1028 349.858 1028 331.938C1028 319.938 1029.52 309.058 1032.56 299.298C1035.6 289.538 1039.28 283.218 1043.6 280.338C1048.24 277.298 1054.56 275.058 1062.56 273.618C1070.56 272.178 1079.2 271.458 1088.48 271.458ZM1087.04 352.098C1090.88 352.098 1095.36 351.378 1100.48 349.938V299.778C1098.56 299.458 1095.68 299.138 1091.84 298.818C1090.4 298.658 1088.24 298.578 1085.36 298.578C1079.12 298.578 1075.6 299.218 1074.8 300.498C1073.36 302.738 1072.24 306.818 1071.44 312.738C1070.64 318.338 1070.24 323.778 1070.24 329.058C1070.24 337.378 1071.6 343.298 1074.32 346.818C1077.04 350.338 1081.28 352.098 1087.04 352.098ZM1271.38 273.618V384.018H1238.02L1233.46 365.538C1221.94 379.458 1208.18 386.418 1192.18 386.418C1186.42 386.418 1180.98 385.618 1175.86 384.018C1170.9 382.418 1167.14 380.098 1164.58 377.058C1163.14 375.298 1162.02 370.898 1161.22 363.858C1160.58 356.818 1160.26 346.098 1160.26 331.698V273.618H1201.3V331.218C1201.3 334.418 1201.38 338.178 1201.54 342.498C1201.7 346.818 1202.18 349.538 1202.98 350.658C1204.1 352.258 1207.3 353.058 1212.58 353.058L1216.42 352.818C1220.9 352.658 1225.54 351.618 1230.34 349.698V273.618H1271.38ZM1358.02 355.218C1362.02 355.218 1369.46 354.818 1380.34 354.018C1381.78 354.018 1384.42 353.858 1388.26 353.538L1391.86 378.258C1379.54 384.018 1363.54 386.898 1343.86 386.898C1325.46 386.898 1311.3 382.258 1301.38 372.978C1291.62 363.698 1286.74 349.698 1286.74 330.978C1286.74 321.378 1287.94 312.098 1290.34 303.138C1292.9 294.178 1295.78 287.938 1298.98 284.418C1302.34 280.898 1308.58 277.858 1317.7 275.298C1326.82 272.738 1335.86 271.458 1344.82 271.458C1359.22 271.458 1370.02 274.018 1377.22 279.138C1384.42 284.258 1389.14 291.378 1391.38 300.498C1393.62 309.458 1394.74 321.538 1394.74 336.738C1383.86 337.378 1373.22 337.698 1362.82 337.698H1328.74C1328.74 342.818 1329.78 346.658 1331.86 349.218C1334.1 351.778 1337.22 353.458 1341.22 354.258C1345.22 354.898 1350.82 355.218 1358.02 355.218ZM1331.14 300.018C1330.18 300.498 1329.46 302.578 1328.98 306.258C1328.5 309.938 1328.18 314.098 1328.02 318.738H1340.5C1348.02 318.738 1353.46 318.658 1356.82 318.498C1356.82 310.818 1355.7 305.378 1353.46 302.178C1351.38 298.978 1347.7 297.378 1342.42 297.378C1338.1 297.378 1334.34 298.258 1331.14 300.018ZM1498.46 346.578C1498.46 360.818 1493.9 371.058 1484.78 377.298C1475.82 383.538 1463.02 386.658 1446.38 386.658C1434.7 386.658 1421.26 384.978 1406.06 381.618C1406.38 378.418 1407.1 373.858 1408.22 367.938C1409.5 361.858 1410.54 357.218 1411.34 354.018C1417.1 354.978 1423.5 355.778 1430.54 356.418C1437.58 356.898 1443.58 357.138 1448.54 357.138C1452.86 357.138 1455.5 356.898 1456.46 356.418C1456.62 356.258 1456.78 355.858 1456.94 355.218C1457.26 354.418 1457.42 353.618 1457.42 352.818C1457.42 349.618 1455.42 347.458 1451.42 346.338C1450.14 346.018 1445.26 344.658 1436.78 342.258C1428.3 339.858 1421.34 335.538 1415.9 329.298C1410.62 322.898 1407.98 314.978 1407.98 305.538C1407.98 300.578 1409.1 295.058 1411.34 288.978C1413.58 282.898 1415.98 279.058 1418.54 277.458C1420.46 276.178 1425.1 274.898 1432.46 273.618C1439.82 272.178 1446.62 271.458 1452.86 271.458C1466.14 271.458 1479.5 272.418 1492.94 274.338C1492.94 277.218 1492.54 282.098 1491.74 288.978C1490.94 295.698 1490.22 299.938 1489.58 301.698C1475.98 299.938 1465.02 299.058 1456.7 299.058C1452.38 299.058 1449.58 299.298 1448.3 299.778C1447.98 299.938 1447.66 300.418 1447.34 301.218C1447.02 301.858 1446.86 302.738 1446.86 303.858C1446.86 306.098 1447.58 307.698 1449.02 308.658C1450.46 309.778 1454.22 311.138 1460.3 312.738C1467.5 314.818 1473.66 316.978 1478.78 319.218C1484.06 321.458 1488.62 324.818 1492.46 329.298C1496.46 333.778 1498.46 339.538 1498.46 346.578Z" fill="#0E21A0"/>
<path d="M549.403 252.498L544.843 267.835C544.862 267.84 544.88 267.846 544.899 267.851L549.403 252.498ZM577.243 272.418L563.963 281.343C563.997 281.393 564.03 281.442 564.064 281.492L577.243 272.418ZM576.763 359.058L589.88 368.219C589.903 368.187 589.925 368.155 589.947 368.122L576.763 359.058ZM548.443 379.218L552.617 394.664C552.682 394.646 552.746 394.628 552.811 394.61L548.443 379.218ZM455.563 384.018H439.563C439.563 392.855 446.726 400.018 455.563 400.018V384.018ZM455.563 247.218V231.218C446.726 231.218 439.563 238.381 439.563 247.218H455.563ZM535.723 351.378L524.409 340.064L524.409 340.064L535.723 351.378ZM539.803 336.498L523.882 334.906V334.906L539.803 336.498ZM539.083 294.258L523.452 297.677C523.495 297.871 523.541 298.064 523.59 298.256L539.083 294.258ZM532.843 282.018L521.004 292.781C521.174 292.969 521.349 293.152 521.529 293.332L532.843 282.018ZM498.763 274.578L497.535 258.625C489.2 259.266 482.763 266.217 482.763 274.578H498.763ZM498.763 354.258H482.763C482.763 362.371 488.835 369.2 496.893 370.148L498.763 354.258ZM527.083 354.018L528.787 369.927C528.948 369.91 529.109 369.89 529.269 369.868L527.083 354.018ZM503.563 247.218V263.218C521.447 263.218 535.036 264.919 544.843 267.835L549.403 252.498L553.962 237.161C540.089 233.037 523.118 231.218 503.563 231.218V247.218ZM549.403 252.498L544.899 267.851C553.558 270.391 559.627 274.891 563.963 281.343L577.243 272.418L590.522 263.493C581.739 250.425 569.247 241.645 553.906 237.145L549.403 252.498ZM577.243 272.418L564.064 281.492C568.2 287.499 571.323 297.79 571.323 314.418H587.323H603.323C603.323 294.566 599.725 276.857 590.421 263.344L577.243 272.418ZM587.323 314.418H571.323C571.323 332.409 568.01 343.547 563.578 349.994L576.763 359.058L589.947 368.122C599.595 354.089 603.323 335.467 603.323 314.418H587.323ZM576.763 359.058L563.645 349.897C558.719 356.95 552.371 361.471 544.075 363.826L548.443 379.218L552.811 394.61C568.194 390.245 580.726 381.326 589.88 368.219L576.763 359.058ZM548.443 379.218L544.268 363.772C534.267 366.475 520.833 368.018 503.563 368.018V384.018V400.018C522.453 400.018 538.938 398.361 552.617 394.664L548.443 379.218ZM503.563 384.018V368.018H455.563V384.018V400.018H503.563V384.018ZM455.563 384.018H471.563V247.218H455.563H439.563V384.018H455.563ZM455.563 247.218V263.218H503.563V247.218V231.218H455.563V247.218ZM535.723 351.378L547.036 362.692C551.036 358.692 552.748 353.604 553.613 350.449C554.623 346.765 555.278 342.545 555.723 338.09L539.803 336.498L523.882 334.906C523.527 338.451 523.102 340.711 522.752 341.987C522.582 342.608 522.505 342.713 522.615 342.483C522.697 342.31 523.197 341.276 524.409 340.064L535.723 351.378ZM539.803 336.498L555.723 338.09C556.566 329.66 557.003 321.761 557.003 314.418H541.003H525.003C525.003 320.515 524.639 327.336 523.882 334.906L539.803 336.498ZM541.003 314.418H557.003C557.003 305.346 556.34 297.098 554.575 290.26L539.083 294.258L523.59 298.256C524.386 301.338 525.003 306.53 525.003 314.418H541.003ZM539.083 294.258L554.713 290.839C553.083 283.387 549.793 276.341 544.156 270.704L532.843 282.018L521.529 293.332C521.972 293.775 522.842 294.889 523.452 297.677L539.083 294.258ZM532.843 282.018L544.682 271.255C535.383 261.027 521.534 258.098 508.123 258.098V274.098V290.098C518.071 290.098 520.702 292.449 521.004 292.781L532.843 282.018ZM508.123 274.098V258.098C505.405 258.098 501.784 258.298 497.535 258.625L498.763 274.578L499.99 290.531C504.061 290.218 506.681 290.098 508.123 290.098V274.098ZM498.763 274.578H482.763V354.258H498.763H514.763V274.578H498.763ZM498.763 354.258L496.893 370.148C500.597 370.584 505.622 370.738 511.483 370.738V354.738V338.738C505.823 338.738 502.368 338.572 500.632 338.368L498.763 354.258ZM511.483 354.738V370.738C517.807 370.738 523.598 370.483 528.787 369.927L527.083 354.018L525.378 338.109C521.608 338.513 516.999 338.738 511.483 338.738V354.738ZM527.083 354.018L529.269 369.868C532.024 369.488 534.827 368.965 537.398 368.18C539.468 367.547 543.609 366.119 547.036 362.692L535.723 351.378L524.409 340.064C525.1 339.373 525.743 338.882 526.228 338.553C526.716 338.221 527.125 337.998 527.397 337.862C527.914 337.604 528.186 337.534 528.047 337.576C527.935 337.611 527.625 337.697 527.063 337.81C526.51 337.922 525.796 338.044 524.896 338.168L527.083 354.018ZM693.62 354.018V338.018C693.229 338.018 692.837 338.032 692.447 338.061L693.62 354.018ZM701.54 353.538L717.373 351.232C716.155 342.866 708.637 336.891 700.211 337.593L701.54 353.538ZM705.14 378.258L711.917 392.752C718.311 389.763 721.99 382.937 720.973 375.952L705.14 378.258ZM614.66 372.978L603.635 384.573C603.667 384.603 603.698 384.633 603.73 384.662L614.66 372.978ZM603.62 303.138L588.236 298.742C588.211 298.828 588.188 298.913 588.165 298.998L603.62 303.138ZM612.26 284.418L600.686 273.37C600.597 273.464 600.508 273.559 600.421 273.655L612.26 284.418ZM630.98 275.298L635.304 290.703V290.703L630.98 275.298ZM690.5 279.138L681.228 292.177L681.228 292.177L690.5 279.138ZM704.66 300.498L689.122 304.314C689.127 304.336 689.133 304.357 689.138 304.379L704.66 300.498ZM708.02 336.738L708.96 352.71C717.417 352.213 724.02 345.21 724.02 336.738H708.02ZM642.02 337.698V321.698C633.184 321.698 626.02 328.861 626.02 337.698H642.02ZM645.14 349.218L632.722 359.307C632.845 359.459 632.971 359.608 633.099 359.754L645.14 349.218ZM654.5 354.258L651.362 369.947C651.565 369.988 651.768 370.024 651.972 370.057L654.5 354.258ZM644.42 300.018L651.576 314.329C651.763 314.235 651.948 314.138 652.131 314.037L644.42 300.018ZM642.26 306.258L658.126 308.327V308.327L642.26 306.258ZM641.3 318.738L625.31 318.187C625.16 322.523 626.778 326.734 629.793 329.855C632.808 332.976 636.961 334.738 641.3 334.738V318.738ZM670.1 318.498L670.861 334.48C679.392 334.074 686.1 327.039 686.1 318.498H670.1ZM666.74 302.178L653.325 310.898C653.425 311.051 653.527 311.203 653.632 311.353L666.74 302.178ZM671.3 355.218V371.218C675.971 371.218 683.969 370.771 694.793 369.975L693.62 354.018L692.447 338.061C681.511 338.865 674.63 339.218 671.3 339.218V355.218ZM693.62 354.018V370.018C695.816 370.018 699.082 369.798 702.869 369.483L701.54 353.538L700.211 337.593C696.318 337.918 694.304 338.018 693.62 338.018V354.018ZM701.54 353.538L685.707 355.844L689.307 380.564L705.14 378.258L720.973 375.952L717.373 351.232L701.54 353.538ZM705.14 378.258L698.364 363.764C688.895 368.191 675.446 370.898 657.14 370.898V386.898V402.898C678.194 402.898 696.745 399.845 711.917 392.752L705.14 378.258ZM657.14 386.898V370.898C641.336 370.898 631.627 366.941 625.591 361.294L614.66 372.978L603.73 384.662C617.533 397.575 636.145 402.898 657.14 402.898V386.898ZM614.66 372.978L625.685 361.383C620.181 356.149 616.02 347.068 616.02 330.978H600.02H584.02C584.02 352.328 589.619 371.247 603.635 384.573L614.66 372.978ZM600.02 330.978H616.02C616.02 322.727 617.049 314.841 619.075 307.278L603.62 303.138L588.165 298.998C585.391 309.355 584.02 320.029 584.02 330.978H600.02ZM603.62 303.138L619.005 307.534C621.417 299.091 623.489 295.852 624.099 295.181L612.26 284.418L600.421 273.655C594.632 280.024 590.943 289.265 588.236 298.742L603.62 303.138ZM612.26 284.418L623.834 295.466C623.771 295.531 624.387 294.895 626.468 293.882C628.479 292.902 631.359 291.81 635.304 290.703L630.98 275.298L626.656 259.893C616.94 262.621 607.153 266.596 600.686 273.37L612.26 284.418ZM630.98 275.298L635.304 290.703C643.097 288.515 650.683 287.458 658.1 287.458V271.458V255.458C647.597 255.458 637.103 256.961 626.656 259.893L630.98 275.298ZM658.1 271.458V287.458C671.089 287.458 677.961 289.855 681.228 292.177L690.5 279.138L699.773 266.099C688.639 258.181 673.911 255.458 658.1 255.458V271.458ZM690.5 279.138L681.228 292.177C685.094 294.926 687.735 298.666 689.122 304.314L704.66 300.498L720.198 296.682C717.106 284.09 710.307 273.59 699.772 266.099L690.5 279.138ZM704.66 300.498L689.138 304.379C690.923 311.52 692.02 322.122 692.02 336.738H708.02H724.02C724.02 320.954 722.877 307.396 720.182 296.617L704.66 300.498ZM708.02 336.738L707.081 320.766C696.499 321.388 686.172 321.698 676.1 321.698V337.698V353.698C686.828 353.698 697.782 353.368 708.96 352.71L708.02 336.738ZM676.1 337.698V321.698H642.02V337.698V353.698H676.1V337.698ZM642.02 337.698H626.02C626.02 344.571 627.35 352.695 632.722 359.307L645.14 349.218L657.558 339.129C658.188 339.904 658.297 340.433 658.244 340.235C658.181 340.004 658.02 339.227 658.02 337.698H642.02ZM645.14 349.218L633.099 359.754C638.094 365.463 644.618 368.598 651.362 369.947L654.5 354.258L657.638 338.569C656.962 338.434 656.718 338.296 656.746 338.31C656.759 338.318 656.821 338.353 656.912 338.424C657.003 338.497 657.096 338.585 657.181 338.682L645.14 349.218ZM654.5 354.258L651.972 370.057C657.213 370.895 663.796 371.218 671.3 371.218V355.218V339.218C664.404 339.218 659.788 338.901 657.028 338.459L654.5 354.258ZM644.42 300.018L637.265 285.707C630.673 289.003 628.541 295.259 628.04 296.704C627.165 299.232 626.693 301.896 626.395 304.189L642.26 306.258L658.126 308.327C658.307 306.94 658.435 306.724 658.28 307.172C658.199 307.406 657.877 308.306 657.122 309.456C656.406 310.547 654.714 312.76 651.576 314.329L644.42 300.018ZM642.26 306.258L626.395 304.189C625.835 308.479 625.483 313.159 625.31 318.187L641.3 318.738L657.291 319.289C657.437 315.037 657.725 311.397 658.126 308.327L642.26 306.258ZM641.3 318.738V334.738H653.78V318.738V302.738H641.3V318.738ZM653.78 318.738V334.738C661.323 334.738 667.091 334.659 670.861 334.48L670.1 318.498L669.339 302.516C666.389 302.657 661.277 302.738 653.78 302.738V318.738ZM670.1 318.498H686.1C686.1 310.191 685.068 300.46 679.848 293.003L666.74 302.178L653.632 311.353C653.091 310.58 653.297 310.467 653.589 311.884C653.865 313.227 654.1 315.363 654.1 318.498H670.1ZM666.74 302.178L680.155 293.458C674.066 284.09 664.115 281.378 655.7 281.378V297.378V313.378C656.805 313.378 656.741 313.556 656.041 313.251C655.664 313.087 655.165 312.809 654.637 312.37C654.105 311.926 653.662 311.416 653.325 310.898L666.74 302.178ZM655.7 297.378V281.378C649.178 281.378 642.67 282.72 636.709 285.999L644.42 300.018L652.131 314.037C652.571 313.796 653.582 313.378 655.7 313.378V297.378ZM798.065 377.298L789.03 364.093C788.994 364.118 788.957 364.143 788.921 364.168L798.065 377.298ZM719.345 381.618L703.425 380.026C702.618 388.094 707.974 395.491 715.892 397.241L719.345 381.618ZM721.505 367.938L705.848 364.642C705.826 364.749 705.804 364.856 705.784 364.964L721.505 367.938ZM724.625 354.018L727.255 338.236C719.027 336.864 711.126 342.045 709.103 350.137L724.625 354.018ZM743.825 356.418L742.377 372.352C742.496 372.363 742.617 372.373 742.737 372.381L743.825 356.418ZM769.745 356.418L776.901 370.729C778.439 369.96 779.843 368.948 781.059 367.732L769.745 356.418ZM770.225 355.218L755.37 349.276C755.101 349.947 754.878 350.636 754.703 351.337L770.225 355.218ZM764.705 346.338L769.019 330.931C768.875 330.89 768.731 330.852 768.586 330.816L764.705 346.338ZM750.065 342.258L745.708 357.653V357.653L750.065 342.258ZM729.185 329.298L716.843 339.48C716.936 339.592 717.029 339.703 717.125 339.812L729.185 329.298ZM724.625 288.978L709.612 283.447V283.447L724.625 288.978ZM731.825 277.458L740.305 291.026C740.438 290.943 740.57 290.858 740.7 290.771L731.825 277.458ZM745.745 273.618L748.487 289.381C748.597 289.362 748.707 289.342 748.817 289.32L745.745 273.618ZM806.225 274.338H822.225C822.225 266.376 816.37 259.625 808.488 258.499L806.225 274.338ZM805.025 288.978L820.913 290.869C820.915 290.855 820.916 290.84 820.918 290.826L805.025 288.978ZM802.865 301.698L800.812 317.566C808.24 318.527 815.342 314.206 817.902 307.166L802.865 301.698ZM761.585 299.778L755.967 284.797C755.443 284.993 754.93 285.217 754.43 285.467L761.585 299.778ZM760.625 301.218L774.936 308.373C775.134 307.977 775.316 307.572 775.481 307.16L760.625 301.218ZM762.305 308.658L772.128 296.028C771.821 295.789 771.505 295.561 771.18 295.345L762.305 308.658ZM773.585 312.738L778.026 297.367C777.903 297.331 777.78 297.297 777.657 297.265L773.585 312.738ZM792.065 319.218L785.652 333.877C785.707 333.9 785.761 333.924 785.816 333.947L792.065 319.218ZM805.745 329.298L793.597 339.711C793.667 339.793 793.738 339.874 793.81 339.954L805.745 329.298ZM811.745 346.578H795.745C795.745 357.238 792.553 361.682 789.03 364.093L798.065 377.298L807.1 390.503C821.817 380.434 827.745 364.398 827.745 346.578H811.745ZM798.065 377.298L788.921 364.168C783.714 367.795 774.64 370.658 759.665 370.658V386.658V402.658C777.97 402.658 794.496 399.281 807.209 390.428L798.065 377.298ZM759.665 386.658V370.658C749.457 370.658 737.214 369.182 722.799 365.995L719.345 381.618L715.892 397.241C731.876 400.774 746.513 402.658 759.665 402.658V386.658ZM719.345 381.618L735.266 383.21C735.515 380.713 736.132 376.696 737.226 370.912L721.505 367.938L705.784 364.964C704.638 371.02 703.815 376.123 703.425 380.026L719.345 381.618ZM721.505 367.938L737.162 371.234C738.43 365.212 739.421 360.804 740.147 357.899L724.625 354.018L709.103 350.137C708.229 353.632 707.14 358.505 705.848 364.642L721.505 367.938ZM724.625 354.018L721.995 369.8C728.218 370.837 735.02 371.684 742.377 372.352L743.825 356.418L745.274 340.484C738.55 339.872 732.552 339.119 727.255 338.236L724.625 354.018ZM743.825 356.418L742.737 372.381C750.001 372.876 756.386 373.138 761.825 373.138V357.138V341.138C757.344 341.138 751.729 340.92 744.914 340.455L743.825 356.418ZM761.825 357.138V373.138C764.209 373.138 766.489 373.075 768.494 372.892C769.714 372.781 773.416 372.471 776.901 370.729L769.745 356.418L762.59 342.107C763.059 341.873 763.472 341.699 763.802 341.572C764.134 341.444 764.421 341.349 764.648 341.28C765.089 341.146 765.415 341.075 765.572 341.044C765.739 341.01 765.827 340.999 765.814 341.001C765.804 341.002 765.735 341.011 765.597 341.024C765.31 341.05 764.856 341.08 764.199 341.103C763.55 341.125 762.763 341.138 761.825 341.138V357.138ZM769.745 356.418L781.059 367.732C783.5 365.29 784.552 362.662 784.841 361.94C785.291 360.816 785.574 359.794 785.747 359.099L770.225 355.218L754.703 351.337C754.717 351.282 754.84 350.78 755.13 350.056C755.279 349.681 755.548 349.059 755.973 348.315C756.366 347.627 757.14 346.396 758.431 345.104L769.745 356.418ZM770.225 355.218L785.081 361.16C786.098 358.617 786.705 355.806 786.705 352.818H770.705H754.705C754.705 351.43 754.992 350.219 755.37 349.276L770.225 355.218ZM770.705 352.818H786.705C786.705 347.57 784.933 342.234 780.945 337.927C777.274 333.962 772.751 331.976 769.019 330.931L764.705 346.338L760.391 361.745C760.659 361.82 759.137 361.474 757.465 359.669C755.477 357.522 754.705 354.866 754.705 352.818H770.705ZM764.705 346.338L768.586 330.816C767.614 330.573 763.065 329.309 754.422 326.863L750.065 342.258L745.708 357.653C754.026 360.007 759.236 361.463 760.825 361.86L764.705 346.338ZM750.065 342.258L754.422 326.863C748.727 325.251 744.512 322.53 741.245 318.784L729.185 329.298L717.125 339.812C724.739 348.546 734.443 354.465 745.708 357.653L750.065 342.258ZM729.185 329.298L741.527 319.116C738.935 315.974 737.265 311.804 737.265 305.538H721.265H705.265C705.265 318.152 708.875 329.822 716.843 339.48L729.185 329.298ZM721.265 305.538H737.265C737.265 302.945 737.862 299.332 739.639 294.509L724.625 288.978L709.612 283.447C706.908 290.784 705.265 298.211 705.265 305.538H721.265ZM724.625 288.978L739.639 294.509C740.527 292.099 741.244 290.704 741.673 290.018C741.874 289.697 741.916 289.685 741.758 289.858C741.603 290.029 741.137 290.506 740.305 291.026L731.825 277.458L723.345 263.89C719.234 266.459 716.436 270.019 714.537 273.058C712.566 276.212 710.964 279.777 709.612 283.447L724.625 288.978ZM731.825 277.458L740.7 290.771C739.86 291.331 739.348 291.498 739.592 291.403C739.754 291.34 740.192 291.185 741 290.962C742.629 290.513 745.071 289.975 748.487 289.381L745.745 273.618L743.004 257.855C739.059 258.541 735.502 259.283 732.49 260.114C729.911 260.826 726.165 262.002 722.95 264.145L731.825 277.458ZM745.745 273.618L748.817 289.32C755.361 288.04 761.118 287.458 766.145 287.458V271.458V255.458C758.692 255.458 750.85 256.316 742.673 257.916L745.745 273.618ZM766.145 271.458V287.458C778.651 287.458 791.255 288.362 803.962 290.177L806.225 274.338L808.488 258.499C794.315 256.474 780.199 255.458 766.145 255.458V271.458ZM806.225 274.338H790.225C790.225 276.195 789.932 280.251 789.132 287.13L805.025 288.978L820.918 290.826C821.718 283.945 822.225 278.241 822.225 274.338H806.225ZM805.025 288.978L789.137 287.087C788.753 290.314 788.409 292.764 788.111 294.519C787.962 295.395 787.842 295.997 787.756 296.376C787.653 296.829 787.661 296.692 787.828 296.23L802.865 301.698L817.902 307.166C818.76 304.805 819.291 302.048 819.659 299.877C820.081 297.392 820.497 294.362 820.913 290.869L805.025 288.978ZM802.865 301.698L804.919 285.83C791.013 284.031 779.288 283.058 769.985 283.058V299.058V315.058C777.323 315.058 787.517 315.845 800.812 317.566L802.865 301.698ZM769.985 299.058V283.058C767.583 283.058 765.305 283.123 763.279 283.296C761.618 283.439 758.765 283.747 755.967 284.797L761.585 299.778L767.203 314.759C766.691 314.951 766.291 315.062 766.061 315.12C765.822 315.181 765.663 315.21 765.611 315.22C765.521 315.235 765.631 315.212 766.012 315.18C766.785 315.113 768.067 315.058 769.985 315.058V299.058ZM761.585 299.778L754.43 285.467C750.696 287.334 748.647 290.101 747.792 291.383C746.797 292.876 746.16 294.298 745.77 295.276L760.625 301.218L775.481 307.16C775.41 307.338 775.093 308.12 774.418 309.133C773.883 309.935 772.154 312.382 768.74 314.089L761.585 299.778ZM760.625 301.218L746.314 294.063C744.43 297.831 744.145 301.518 744.145 303.858H760.145H776.145C776.145 304.029 776.135 304.515 776.007 305.22C775.88 305.917 775.598 307.048 774.936 308.373L760.625 301.218ZM760.145 303.858H744.145C744.145 309.684 746.248 317.183 753.43 321.971L762.305 308.658L771.18 295.345C772.998 296.557 774.42 298.271 775.276 300.172C776.064 301.924 776.145 303.318 776.145 303.858H760.145ZM762.305 308.658L752.482 321.288C755.345 323.514 758.727 324.828 760.763 325.564C763.271 326.471 766.24 327.35 769.513 328.211L773.585 312.738L777.657 297.265C774.851 296.526 772.899 295.925 771.647 295.472C771.351 295.365 771.124 295.277 770.958 295.209C770.877 295.176 770.815 295.149 770.772 295.13C770.75 295.121 770.734 295.114 770.723 295.109C770.713 295.104 770.707 295.101 770.708 295.101C770.708 295.101 770.715 295.105 770.727 295.111C770.739 295.117 770.758 295.127 770.784 295.14C770.833 295.166 770.915 295.21 771.024 295.274C771.221 295.389 771.621 295.634 772.128 296.028L762.305 308.658ZM773.585 312.738L769.145 328.109C775.883 330.056 781.347 331.993 785.652 333.877L792.065 319.218L798.478 304.559C792.543 301.963 785.687 299.58 778.026 297.367L773.585 312.738ZM792.065 319.218L785.816 333.947C788.757 335.195 791.316 337.05 793.597 339.711L805.745 329.298L817.893 318.885C812.494 312.586 805.934 307.721 798.314 304.489L792.065 319.218ZM805.745 329.298L793.81 339.954C794.751 341.008 795.745 342.751 795.745 346.578H811.745H827.745C827.745 336.325 824.74 326.548 817.68 318.642L805.745 329.298ZM876.476 347.778L860.496 348.577C860.496 348.591 860.497 348.605 860.498 348.619L876.476 347.778ZM877.916 353.538L866.602 364.852L877.916 353.538ZM889.676 355.218V371.218C889.833 371.218 889.989 371.216 890.146 371.211L889.676 355.218ZM897.836 354.978L913.562 352.029C912.11 344.287 905.239 338.753 897.365 338.985L897.836 354.978ZM899.996 381.618L905.527 396.632C911.817 394.314 915.996 388.321 915.996 381.618H899.996ZM886.556 384.738L883.995 368.944C883.972 368.948 883.948 368.952 883.925 368.956L886.556 384.738ZM844.316 378.978L834.04 391.242C834.159 391.342 834.28 391.44 834.401 391.536L844.316 378.978ZM835.436 297.138H851.436C851.436 288.301 844.272 281.138 835.436 281.138V297.138ZM817.436 297.138H801.436C801.436 305.975 808.599 313.138 817.436 313.138V297.138ZM817.436 275.298L815.949 259.367C807.724 260.135 801.436 267.037 801.436 275.298H817.436ZM835.436 273.618L836.923 289.549C842.855 288.995 847.988 285.191 850.245 279.676L835.436 273.618ZM846.236 247.218L845.341 231.243C839.179 231.588 833.764 235.447 831.427 241.16L846.236 247.218ZM876.236 245.538H892.236C892.236 241.139 890.425 236.934 887.229 233.912C884.032 230.89 879.733 229.317 875.341 229.563L876.236 245.538ZM876.236 273.618H860.236C860.236 282.455 867.399 289.618 876.236 289.618V273.618ZM901.676 273.618H917.676C917.676 264.781 910.512 257.618 901.676 257.618V273.618ZM901.676 297.138V313.138C910.512 313.138 917.676 305.975 917.676 297.138H901.676ZM876.236 297.138V281.138C867.399 281.138 860.236 288.301 860.236 297.138H876.236ZM876.236 338.658H860.236C860.236 341.832 860.324 345.14 860.496 348.577L876.476 347.778L892.456 346.979C892.308 344.016 892.236 341.244 892.236 338.658H876.236ZM876.476 347.778L860.498 348.619C860.606 350.68 860.849 353.042 861.433 355.379C861.918 357.315 863.134 361.383 866.602 364.852L877.916 353.538L889.229 342.224C890.686 343.681 891.469 345.1 891.853 345.915C892.249 346.758 892.42 347.385 892.478 347.617C892.582 348.034 892.505 347.916 892.454 346.937L876.476 347.778ZM877.916 353.538L866.602 364.852C869.445 367.695 872.631 368.922 874.221 369.452C876.087 370.074 877.917 370.421 879.433 370.637C882.481 371.073 886.002 371.218 889.676 371.218V355.218V339.218C888.208 339.218 886.991 339.187 886.002 339.135C884.997 339.082 884.338 339.013 883.958 338.959C883.515 338.895 883.734 338.892 884.34 339.094C884.665 339.202 885.281 339.429 886.053 339.844C886.803 340.248 887.992 340.987 889.229 342.224L877.916 353.538ZM889.676 355.218L890.146 371.211L898.306 370.971L897.836 354.978L897.365 338.985L889.205 339.225L889.676 355.218ZM897.836 354.978L882.11 357.927C883.324 364.402 883.996 372.259 883.996 381.618H899.996H915.996C915.996 370.817 915.228 360.914 913.562 352.029L897.836 354.978ZM899.996 381.618L894.464 366.605C892.879 367.188 889.601 368.035 883.995 368.944L886.556 384.738L889.117 400.532C895.35 399.521 901.032 398.288 905.527 396.632L899.996 381.618ZM886.556 384.738L883.925 368.956C878.945 369.786 874.308 370.178 869.996 370.178V386.178V402.178C876.244 402.178 882.647 401.61 889.186 400.52L886.556 384.738ZM869.996 386.178V370.178C861.061 370.178 856.504 368.215 854.23 366.42L844.316 378.978L834.401 391.536C844.288 399.341 856.85 402.178 869.996 402.178V386.178ZM844.316 378.978L854.591 366.714C853.395 365.711 851.436 363.328 851.436 356.178H835.436H819.436C819.436 369.508 823.397 382.325 834.04 391.242L844.316 378.978ZM835.436 356.178H851.436V297.138H835.436H819.436V356.178H835.436ZM835.436 297.138V281.138H817.436V297.138V313.138H835.436V297.138ZM817.436 297.138H833.436V275.298H817.436H801.436V297.138H817.436ZM817.436 275.298L818.923 291.229L836.923 289.549L835.436 273.618L833.949 257.687L815.949 259.367L817.436 275.298ZM835.436 273.618L850.245 279.676L861.044 253.276L846.236 247.218L831.427 241.16L820.627 267.56L835.436 273.618ZM846.236 247.218L847.13 263.193L877.13 261.513L876.236 245.538L875.341 229.563L845.341 231.243L846.236 247.218ZM876.236 245.538H860.236V273.618H876.236H892.236V245.538H876.236ZM876.236 273.618V289.618H901.676V273.618V257.618H876.236V273.618ZM901.676 273.618H885.676V297.138H901.676H917.676V273.618H901.676ZM901.676 297.138V281.138H876.236V297.138V313.138H901.676V297.138ZM876.236 297.138H860.236V338.658H876.236H892.236V297.138H876.236ZM979.709 384.018L964.202 387.956C966.004 395.051 972.39 400.018 979.709 400.018V384.018ZM975.87 368.898L991.377 364.96C989.794 358.725 984.631 354.045 978.272 353.079C971.913 352.114 965.593 355.05 962.23 360.533L975.87 368.898ZM918.75 378.018L908.015 389.883C908.113 389.972 908.213 390.06 908.314 390.146L918.75 378.018ZM914.43 335.058L901.821 325.208C901.807 325.226 901.792 325.245 901.778 325.263L914.43 335.058ZM930.75 324.258L926.354 308.874C926.276 308.896 926.197 308.919 926.119 308.943L930.75 324.258ZM972.27 319.938L972.543 335.936C981.272 335.786 988.27 328.668 988.27 319.938H972.27ZM970.83 303.138L960.834 315.632C961.196 315.921 961.569 316.194 961.954 316.451L970.83 303.138ZM951.87 302.658L952.536 318.644C952.668 318.639 952.801 318.631 952.934 318.623L951.87 302.658ZM920.669 305.298L904.842 307.643C906.103 316.151 913.865 322.141 922.415 321.202L920.669 305.298ZM917.789 277.458L914.538 261.792C906.732 263.412 901.309 270.532 901.823 278.488L917.789 277.458ZM944.43 273.138L946.347 289.023C946.436 289.012 946.526 289 946.616 288.988L944.43 273.138ZM998.19 277.698L989.238 290.96C989.315 291.011 989.392 291.063 989.47 291.113L998.19 277.698ZM1010.67 294.258L1026.08 289.957V289.957L1010.67 294.258ZM1013.31 320.418L997.311 320.176C997.311 320.22 997.31 320.265 997.31 320.309L1013.31 320.418ZM1013.07 355.698L997.07 355.589C997.069 355.761 997.07 355.933 997.075 356.105L1013.07 355.698ZM1013.79 384.018V400.018C1018.1 400.018 1022.23 398.276 1025.25 395.187C1028.26 392.098 1029.89 387.924 1029.78 383.611L1013.79 384.018ZM972.27 357.618L977.485 372.744C983.939 370.519 988.27 364.444 988.27 357.618H972.27ZM972.27 339.858H988.27C988.27 331.021 981.106 323.858 972.27 323.858V339.858ZM950.669 341.778L939.356 330.464V330.464L950.669 341.778ZM948.75 345.378L933.424 340.78C933.28 341.261 933.159 341.748 933.06 342.24L948.75 345.378ZM950.909 357.858L940.778 370.241H940.778L950.909 357.858ZM979.709 384.018L995.217 380.08L991.377 364.96L975.87 368.898L960.362 372.836L964.202 387.956L979.709 384.018ZM975.87 368.898L962.23 360.533C957.524 368.207 952.232 370.898 945.15 370.898V386.898V402.898C964.307 402.898 979.495 393.589 989.508 377.263L975.87 368.898ZM945.15 386.898V370.898C937.53 370.898 932.653 368.874 929.185 365.89L918.75 378.018L908.314 390.146C918.606 399.002 931.329 402.898 945.15 402.898V386.898ZM918.75 378.018L929.484 366.153C926.784 363.711 924.669 359.923 924.669 352.578H908.669H892.669C892.669 366.993 897.275 380.165 908.015 389.883L918.75 378.018ZM908.669 352.578H924.669C924.669 349.134 925.571 346.803 927.081 344.853L914.43 335.058L901.778 325.263C895.608 333.233 892.669 342.582 892.669 352.578H908.669ZM914.43 335.058L927.038 344.908C928.791 342.664 931.308 340.804 935.38 339.573L930.75 324.258L926.119 308.943C916.431 311.872 908.068 317.212 901.821 325.208L914.43 335.058ZM930.75 324.258L935.145 339.642C942.006 337.682 954.112 336.251 972.543 335.936L972.27 319.938L971.996 303.94C952.987 304.265 937.413 305.714 926.354 308.874L930.75 324.258ZM972.27 319.938H988.27C988.27 314.523 988.15 309.941 987.851 306.452C987.707 304.77 987.48 302.814 987.05 300.95C986.84 300.042 986.465 298.628 985.775 297.083C985.277 295.968 983.626 292.44 979.705 289.825L970.83 303.138L961.954 316.451C959.953 315.117 958.693 313.608 957.984 312.616C957.255 311.595 956.809 310.697 956.559 310.138C956.079 309.063 955.899 308.274 955.869 308.146C955.799 307.842 955.872 308.066 955.968 309.184C956.149 311.295 956.27 314.793 956.27 319.938H972.27ZM970.83 303.138L980.825 290.644C978.195 288.541 975.518 287.683 974.295 287.334C972.809 286.909 971.404 286.68 970.294 286.542C968.065 286.263 965.595 286.178 963.149 286.178V302.178V318.178C965.024 318.178 965.994 318.253 966.325 318.294C966.495 318.316 966.15 318.287 965.504 318.102C965.164 318.005 964.582 317.82 963.862 317.495C963.169 317.182 962.056 316.609 960.834 315.632L970.83 303.138ZM963.149 302.178V286.178C959.905 286.178 955.735 286.365 950.805 286.693L951.87 302.658L952.934 318.623C957.604 318.311 960.954 318.178 963.149 318.178V302.178ZM951.87 302.658L951.203 286.672C942.997 287.014 932.188 287.938 918.924 289.394L920.669 305.298L922.415 321.202C935.391 319.778 945.382 318.942 952.536 318.644L951.87 302.658ZM920.669 305.298L936.497 302.953C935.289 294.804 934.372 285.967 933.756 276.428L917.789 277.458L901.823 278.488C902.487 288.789 903.49 298.512 904.842 307.643L920.669 305.298ZM917.789 277.458L921.041 293.124C929.046 291.463 937.479 290.093 946.347 289.023L944.43 273.138L942.512 257.253C932.82 258.423 923.493 259.933 914.538 261.792L917.789 277.458ZM944.43 273.138L946.616 288.988C955.356 287.782 962.926 287.218 969.39 287.218V271.218V255.218C961.133 255.218 952.063 255.934 942.243 257.288L944.43 273.138ZM969.39 271.218V287.218C980.892 287.218 986.705 289.25 989.238 290.96L998.19 277.698L1007.14 264.436C996.874 257.506 983.487 255.218 969.39 255.218V271.218ZM998.19 277.698L989.47 291.113C992.848 293.309 994.461 295.701 995.258 298.559L1010.67 294.258L1026.08 289.957C1023.04 279.055 1016.33 270.407 1006.91 264.283L998.19 277.698ZM1010.67 294.258L995.258 298.559C996.62 303.437 997.458 310.491 997.311 320.176L1013.31 320.418L1029.31 320.66C1029.48 309.225 1028.56 298.839 1026.08 289.957L1010.67 294.258ZM1013.31 320.418L997.31 320.309L997.07 355.589L1013.07 355.698L1029.07 355.807L1029.31 320.527L1013.31 320.418ZM1013.07 355.698L997.075 356.105L997.795 384.425L1013.79 384.018L1029.78 383.611L1029.06 355.291L1013.07 355.698ZM1013.79 384.018V368.018H979.709V384.018V400.018H1013.79V384.018ZM959.07 360.018V376.018C965.291 376.018 971.462 374.821 977.485 372.744L972.27 357.618L967.054 342.492C963.797 343.615 961.168 344.018 959.07 344.018V360.018ZM972.27 357.618H988.27V339.858H972.27H956.27V357.618H972.27ZM972.27 339.858V323.858H970.349V339.858V355.858H972.27V339.858ZM970.349 339.858V323.858C964.249 323.858 959.045 324.019 954.996 324.414C953.007 324.608 950.849 324.899 948.814 325.397C947.701 325.67 943.088 326.732 939.356 330.464L950.669 341.778L961.983 353.092C960.135 354.94 958.33 355.763 957.727 356.023C956.973 356.347 956.468 356.468 956.425 356.479C956.35 356.497 956.812 356.388 958.103 356.262C960.614 356.017 964.61 355.858 970.349 355.858V339.858ZM950.669 341.778L939.356 330.464C936.002 333.818 934.329 337.763 933.424 340.78L948.75 345.378L964.075 349.976C964.073 349.983 964.049 350.06 963.995 350.195C963.941 350.33 963.85 350.54 963.707 350.807C963.429 351.328 962.898 352.177 961.983 353.092L950.669 341.778ZM948.75 345.378L933.06 342.24C932.56 344.739 932.27 347.316 932.27 349.938H948.27H964.27C964.27 349.68 964.299 349.217 964.439 348.516L948.75 345.378ZM948.27 349.938H932.27C932.27 355.37 933.383 364.191 940.778 370.241L950.909 357.858L961.041 345.475C962.977 347.059 963.807 348.833 964.108 349.738C964.375 350.538 964.27 350.743 964.27 349.938H948.27ZM950.909 357.858L940.778 370.241C946.695 375.083 953.823 376.018 959.07 376.018V360.018V344.018C958.213 344.018 958.051 343.928 958.364 344.011C958.703 344.1 959.784 344.446 961.041 345.475L950.909 357.858ZM1141.52 278.658H1157.52C1157.52 271.39 1152.62 265.035 1145.59 263.185L1141.52 278.658ZM1141.52 417.618L1142.17 433.605C1150.75 433.254 1157.52 426.2 1157.52 417.618H1141.52ZM1100.48 419.298H1084.48C1084.48 423.655 1086.26 427.824 1089.4 430.841C1092.54 433.858 1096.78 435.463 1101.13 435.285L1100.48 419.298ZM1104.08 366.258L1119.43 370.773C1121.41 364.054 1118.78 356.83 1112.96 352.945L1104.08 366.258ZM1103.36 365.778L1112.24 352.465C1108.52 349.987 1103.93 349.176 1099.59 350.228C1095.25 351.281 1091.54 354.102 1089.37 358.008L1103.36 365.778ZM1087.76 381.138L1094.33 395.729C1094.43 395.684 1094.53 395.638 1094.63 395.59L1087.76 381.138ZM1039.52 372.258L1027.37 382.671C1027.4 382.707 1027.43 382.743 1027.47 382.779L1039.52 372.258ZM1032.56 299.298L1047.84 304.056V304.056L1032.56 299.298ZM1043.6 280.338L1034.83 266.955C1034.8 266.978 1034.76 267.002 1034.72 267.025L1043.6 280.338ZM1062.56 273.618L1065.39 289.365V289.365L1062.56 273.618ZM1100.48 349.938L1104.81 365.34C1111.71 363.4 1116.48 357.106 1116.48 349.938H1100.48ZM1100.48 299.778H1116.48C1116.48 291.957 1110.83 285.282 1103.11 283.996L1100.48 299.778ZM1091.84 298.818L1090.07 314.72C1090.22 314.736 1090.37 314.751 1090.51 314.763L1091.84 298.818ZM1074.8 300.498L1088.26 309.15C1088.3 309.093 1088.33 309.036 1088.37 308.978L1074.8 300.498ZM1071.44 312.738L1087.28 315.001C1087.29 314.961 1087.29 314.921 1087.3 314.881L1071.44 312.738ZM1088.48 271.458V287.458C1104.09 287.458 1120.4 289.646 1137.45 294.131L1141.52 278.658L1145.59 263.185C1126.16 258.07 1107.11 255.458 1088.48 255.458V271.458ZM1141.52 278.658H1125.52V417.618H1141.52H1157.52V278.658H1141.52ZM1141.52 417.618L1140.87 401.631L1099.83 403.311L1100.48 419.298L1101.13 435.285L1142.17 433.605L1141.52 417.618ZM1100.48 419.298H1116.48V387.618H1100.48H1084.48V419.298H1100.48ZM1100.48 387.618H1116.48C1116.48 383.539 1117.3 378.003 1119.43 370.773L1104.08 366.258L1088.73 361.743C1086.06 370.833 1084.48 379.537 1084.48 387.618H1100.48ZM1104.08 366.258L1112.96 352.945L1112.24 352.465L1103.36 365.778L1094.48 379.091L1095.2 379.571L1104.08 366.258ZM1103.36 365.778L1089.37 358.008C1086.72 362.782 1083.81 365.299 1080.9 366.686L1087.76 381.138L1094.63 395.59C1104.51 390.897 1112 383.174 1117.35 373.548L1103.36 365.778ZM1087.76 381.138L1081.19 366.547C1076.35 368.726 1072.6 369.458 1069.76 369.458V385.458V401.458C1078.12 401.458 1086.37 399.31 1094.33 395.729L1087.76 381.138ZM1069.76 385.458V369.458C1061.54 369.458 1055.99 366.795 1051.57 361.737L1039.52 372.258L1027.47 382.779C1038.41 395.321 1053.02 401.458 1069.76 401.458V385.458ZM1039.52 372.258L1051.67 361.845C1047.48 356.962 1044 347.944 1044 331.938H1028H1012C1012 351.772 1016.2 369.634 1027.37 382.671L1039.52 372.258ZM1028 331.938H1044C1044 321.278 1045.35 312.035 1047.84 304.056L1032.56 299.298L1017.28 294.54C1013.69 306.081 1012 318.598 1012 331.938H1028ZM1032.56 299.298L1047.84 304.056C1049.13 299.908 1050.38 297.09 1051.43 295.289C1052.51 293.431 1053 293.301 1052.48 293.651L1043.6 280.338L1034.72 267.025C1025.54 273.146 1020.52 284.164 1017.28 294.54L1032.56 299.298ZM1043.6 280.338L1052.37 293.721C1054.58 292.275 1058.61 290.586 1065.39 289.365L1062.56 273.618L1059.73 257.871C1050.51 259.53 1041.9 262.321 1034.83 266.955L1043.6 280.338ZM1062.56 273.618L1065.39 289.365C1072.34 288.115 1080.02 287.458 1088.48 287.458V271.458V255.458C1078.38 255.458 1068.78 256.241 1059.73 257.871L1062.56 273.618ZM1087.04 352.098V368.098C1092.79 368.098 1098.78 367.037 1104.81 365.34L1100.48 349.938L1096.15 334.536C1091.94 335.719 1088.97 336.098 1087.04 336.098V352.098ZM1100.48 349.938H1116.48V299.778H1100.48H1084.48V349.938H1100.48ZM1100.48 299.778L1103.11 283.996C1100.52 283.564 1097.11 283.202 1093.17 282.873L1091.84 298.818L1090.51 314.763C1094.25 315.074 1096.6 315.352 1097.85 315.56L1100.48 299.778ZM1091.84 298.818L1093.61 282.916C1091.26 282.655 1088.37 282.578 1085.36 282.578V298.578V314.578C1088.11 314.578 1089.54 314.661 1090.07 314.72L1091.84 298.818ZM1085.36 298.578V282.578C1081.87 282.578 1078.33 282.743 1075.18 283.316C1073.62 283.6 1071.55 284.088 1069.41 285.037C1067.48 285.896 1063.83 287.858 1061.23 292.018L1074.8 300.498L1088.37 308.978C1087.23 310.802 1085.91 312.032 1084.88 312.807C1083.87 313.575 1082.97 314.029 1082.41 314.279C1081.35 314.748 1080.7 314.836 1080.9 314.8C1081.27 314.733 1082.61 314.578 1085.36 314.578V298.578ZM1074.8 300.498L1061.34 291.846C1057.83 297.315 1056.4 304.545 1055.58 310.595L1071.44 312.738L1087.3 314.881C1087.64 312.364 1088 310.611 1088.31 309.473C1088.46 308.918 1088.57 308.624 1088.61 308.53C1088.65 308.42 1088.56 308.679 1088.26 309.15L1074.8 300.498ZM1071.44 312.738L1055.6 310.475C1054.7 316.772 1054.24 322.969 1054.24 329.058H1070.24H1086.24C1086.24 324.587 1086.58 319.904 1087.28 315.001L1071.44 312.738ZM1070.24 329.058H1054.24C1054.24 338.247 1055.57 348.721 1061.66 356.601L1074.32 346.818L1086.98 337.035C1087.45 337.646 1087.19 337.638 1086.85 336.156C1086.52 334.712 1086.24 332.422 1086.24 329.058H1070.24ZM1074.32 346.818L1061.66 356.601C1068.27 365.15 1077.92 368.098 1087.04 368.098V352.098V336.098C1085.75 336.098 1085.42 335.896 1085.67 336.001C1085.81 336.057 1086.04 336.175 1086.32 336.381C1086.59 336.589 1086.81 336.82 1086.98 337.035L1074.32 346.818ZM1271.38 273.618H1287.38C1287.38 264.781 1280.22 257.618 1271.38 257.618V273.618ZM1271.38 384.018V400.018C1280.22 400.018 1287.38 392.855 1287.38 384.018H1271.38ZM1238.02 384.018L1222.49 387.851C1224.25 394.997 1230.66 400.018 1238.02 400.018V384.018ZM1233.46 365.538L1248.99 361.705C1247.55 355.838 1242.92 351.287 1237.03 349.94C1231.13 348.594 1224.99 350.681 1221.13 355.337L1233.46 365.538ZM1175.86 384.018L1170.95 399.245C1171 399.26 1171.04 399.275 1171.09 399.29L1175.86 384.018ZM1164.58 377.058L1152.2 387.19C1152.25 387.248 1152.29 387.306 1152.34 387.364L1164.58 377.058ZM1161.22 363.858L1145.29 365.307C1145.3 365.426 1145.31 365.545 1145.32 365.665L1161.22 363.858ZM1160.26 273.618V257.618C1151.42 257.618 1144.26 264.781 1144.26 273.618H1160.26ZM1201.3 273.618H1217.3C1217.3 264.781 1210.14 257.618 1201.3 257.618V273.618ZM1202.98 350.658L1216.09 341.483C1216.06 341.441 1216.03 341.4 1216 341.358L1202.98 350.658ZM1212.58 353.058V369.058C1212.91 369.058 1213.25 369.048 1213.58 369.027L1212.58 353.058ZM1216.42 352.818L1215.85 336.828C1215.71 336.833 1215.56 336.84 1215.42 336.849L1216.42 352.818ZM1230.34 349.698L1236.28 364.554C1242.36 362.124 1246.34 356.24 1246.34 349.698H1230.34ZM1230.34 273.618V257.618C1221.5 257.618 1214.34 264.781 1214.34 273.618H1230.34ZM1271.38 273.618H1255.38V384.018H1271.38H1287.38V273.618H1271.38ZM1271.38 384.018V368.018H1238.02V384.018V400.018H1271.38V384.018ZM1238.02 384.018L1253.55 380.185L1248.99 361.705L1233.46 365.538L1217.93 369.371L1222.49 387.851L1238.02 384.018ZM1233.46 365.538L1221.13 355.337C1212.21 366.118 1202.76 370.418 1192.18 370.418V386.418V402.418C1213.6 402.418 1231.67 392.798 1245.79 375.739L1233.46 365.538ZM1192.18 386.418V370.418C1187.92 370.418 1184.1 369.829 1180.63 368.746L1175.86 384.018L1171.09 399.29C1177.86 401.407 1184.92 402.418 1192.18 402.418V386.418ZM1175.86 384.018L1180.77 368.791C1177.8 367.831 1176.93 366.885 1176.82 366.752L1164.58 377.058L1152.34 387.364C1157.35 393.311 1164 397.005 1170.95 399.245L1175.86 384.018ZM1164.58 377.058L1176.96 366.926C1177.94 368.113 1178.31 369.039 1178.34 369.103C1178.4 369.247 1178.32 369.091 1178.17 368.491C1177.86 367.27 1177.48 365.202 1177.12 362.051L1161.22 363.858L1145.32 365.665C1145.77 369.554 1146.35 373.206 1147.16 376.385C1147.83 379.034 1149.15 383.464 1152.2 387.19L1164.58 377.058ZM1161.22 363.858L1177.16 362.409C1176.58 356.124 1176.26 346.002 1176.26 331.698H1160.26H1144.26C1144.26 346.194 1144.58 357.512 1145.29 365.307L1161.22 363.858ZM1160.26 331.698H1176.26V273.618H1160.26H1144.26V331.698H1160.26ZM1160.26 273.618V289.618H1201.3V273.618V257.618H1160.26V273.618ZM1201.3 273.618H1185.3V331.218H1201.3H1217.3V273.618H1201.3ZM1201.3 331.218H1185.3C1185.3 334.67 1185.39 338.636 1185.55 343.09L1201.54 342.498L1217.53 341.906C1217.37 337.72 1217.3 334.166 1217.3 331.218H1201.3ZM1201.54 342.498L1185.55 343.09C1185.65 345.624 1185.85 348.191 1186.26 350.559C1186.58 352.367 1187.37 356.335 1189.96 359.958L1202.98 350.658L1216 341.358C1216.56 342.138 1216.92 342.827 1217.16 343.314C1217.39 343.808 1217.54 344.206 1217.62 344.458C1217.78 344.936 1217.81 345.162 1217.78 344.997C1217.75 344.861 1217.71 344.54 1217.66 343.989C1217.61 343.449 1217.56 342.76 1217.53 341.906L1201.54 342.498ZM1202.98 350.658L1189.87 359.833C1193.73 365.342 1199.37 367.239 1202.34 367.98C1205.73 368.829 1209.31 369.058 1212.58 369.058V353.058V337.058C1210.57 337.058 1209.91 336.887 1210.1 336.936C1210.24 336.97 1210.97 337.158 1211.98 337.721C1213.02 338.296 1214.66 339.44 1216.09 341.483L1202.98 350.658ZM1212.58 353.058L1213.58 369.027L1217.42 368.787L1216.42 352.818L1215.42 336.849L1211.58 337.089L1212.58 353.058ZM1216.42 352.818L1216.99 368.808C1223.57 368.573 1230.03 367.055 1236.28 364.554L1230.34 349.698L1224.4 334.842C1221.05 336.181 1218.23 336.743 1215.85 336.828L1216.42 352.818ZM1230.34 349.698H1246.34V273.618H1230.34H1214.34V349.698H1230.34ZM1230.34 273.618V289.618H1271.38V273.618V257.618H1230.34V273.618ZM1380.34 354.018V338.018C1379.95 338.018 1379.56 338.032 1379.17 338.061L1380.34 354.018ZM1388.26 353.538L1404.09 351.232C1402.87 342.866 1395.36 336.891 1386.93 337.593L1388.26 353.538ZM1391.86 378.258L1398.64 392.752C1405.03 389.763 1408.71 382.937 1407.69 375.952L1391.86 378.258ZM1301.38 372.978L1290.35 384.573C1290.39 384.603 1290.42 384.633 1290.45 384.662L1301.38 372.978ZM1290.34 303.138L1274.95 298.742C1274.93 298.828 1274.91 298.913 1274.88 298.998L1290.34 303.138ZM1298.98 284.418L1287.41 273.37C1287.32 273.464 1287.23 273.559 1287.14 273.655L1298.98 284.418ZM1317.7 275.298L1322.02 290.703V290.703L1317.7 275.298ZM1377.22 279.138L1367.95 292.177L1367.95 292.177L1377.22 279.138ZM1391.38 300.498L1375.84 304.314C1375.85 304.336 1375.85 304.357 1375.86 304.379L1391.38 300.498ZM1394.74 336.738L1395.68 352.71C1404.14 352.213 1410.74 345.21 1410.74 336.738H1394.74ZM1328.74 337.698V321.698C1319.9 321.698 1312.74 328.861 1312.74 337.698H1328.74ZM1331.86 349.218L1319.44 359.307C1319.56 359.459 1319.69 359.608 1319.82 359.754L1331.86 349.218ZM1341.22 354.258L1338.08 369.947C1338.28 369.988 1338.49 370.024 1338.69 370.057L1341.22 354.258ZM1331.14 300.018L1338.29 314.329C1338.48 314.235 1338.67 314.138 1338.85 314.037L1331.14 300.018ZM1328.98 306.258L1344.84 308.327V308.327L1328.98 306.258ZM1328.02 318.738L1312.03 318.187C1311.88 322.523 1313.5 326.734 1316.51 329.855C1319.53 332.976 1323.68 334.738 1328.02 334.738V318.738ZM1356.82 318.498L1357.58 334.48C1366.11 334.074 1372.82 327.039 1372.82 318.498H1356.82ZM1353.46 302.178L1340.04 310.898C1340.14 311.051 1340.25 311.203 1340.35 311.353L1353.46 302.178ZM1358.02 355.218V371.218C1362.69 371.218 1370.69 370.771 1381.51 369.975L1380.34 354.018L1379.17 338.061C1368.23 338.865 1361.35 339.218 1358.02 339.218V355.218ZM1380.34 354.018V370.018C1382.53 370.018 1385.8 369.798 1389.59 369.483L1388.26 353.538L1386.93 337.593C1383.04 337.918 1381.02 338.018 1380.34 338.018V354.018ZM1388.26 353.538L1372.43 355.844L1376.03 380.564L1391.86 378.258L1407.69 375.952L1404.09 351.232L1388.26 353.538ZM1391.86 378.258L1385.08 363.764C1375.61 368.191 1362.16 370.898 1343.86 370.898V386.898V402.898C1364.91 402.898 1383.46 399.845 1398.64 392.752L1391.86 378.258ZM1343.86 386.898V370.898C1328.05 370.898 1318.35 366.941 1312.31 361.294L1301.38 372.978L1290.45 384.662C1304.25 397.575 1322.86 402.898 1343.86 402.898V386.898ZM1301.38 372.978L1312.4 361.383C1306.9 356.149 1302.74 347.068 1302.74 330.978H1286.74H1270.74C1270.74 352.328 1276.34 371.247 1290.35 384.573L1301.38 372.978ZM1286.74 330.978H1302.74C1302.74 322.727 1303.77 314.841 1305.79 307.278L1290.34 303.138L1274.88 298.998C1272.11 309.355 1270.74 320.029 1270.74 330.978H1286.74ZM1290.34 303.138L1305.72 307.534C1308.14 299.091 1310.21 295.852 1310.82 295.181L1298.98 284.418L1287.14 273.655C1281.35 280.024 1277.66 289.265 1274.95 298.742L1290.34 303.138ZM1298.98 284.418L1310.55 295.466C1310.49 295.531 1311.11 294.895 1313.19 293.882C1315.2 292.902 1318.08 291.81 1322.02 290.703L1317.7 275.298L1313.37 259.893C1303.66 262.621 1293.87 266.596 1287.41 273.37L1298.98 284.418ZM1317.7 275.298L1322.02 290.703C1329.82 288.515 1337.4 287.458 1344.82 287.458V271.458V255.458C1334.32 255.458 1323.82 256.961 1313.37 259.893L1317.7 275.298ZM1344.82 271.458V287.458C1357.81 287.458 1364.68 289.855 1367.95 292.177L1377.22 279.138L1386.49 266.099C1375.36 258.181 1360.63 255.458 1344.82 255.458V271.458ZM1377.22 279.138L1367.95 292.177C1371.81 294.926 1374.45 298.666 1375.84 304.314L1391.38 300.498L1406.92 296.682C1403.82 284.09 1397.03 273.59 1386.49 266.099L1377.22 279.138ZM1391.38 300.498L1375.86 304.379C1377.64 311.52 1378.74 322.122 1378.74 336.738H1394.74H1410.74C1410.74 320.954 1409.6 307.396 1406.9 296.617L1391.38 300.498ZM1394.74 336.738L1393.8 320.766C1383.22 321.388 1372.89 321.698 1362.82 321.698V337.698V353.698C1373.55 353.698 1384.5 353.368 1395.68 352.71L1394.74 336.738ZM1362.82 337.698V321.698H1328.74V337.698V353.698H1362.82V337.698ZM1328.74 337.698H1312.74C1312.74 344.571 1314.07 352.695 1319.44 359.307L1331.86 349.218L1344.28 339.129C1344.91 339.904 1345.02 340.433 1344.96 340.235C1344.9 340.004 1344.74 339.227 1344.74 337.698H1328.74ZM1331.86 349.218L1319.82 359.754C1324.81 365.463 1331.34 368.598 1338.08 369.947L1341.22 354.258L1344.36 338.569C1343.68 338.434 1343.44 338.296 1343.46 338.31C1343.48 338.318 1343.54 338.353 1343.63 338.424C1343.72 338.497 1343.82 338.585 1343.9 338.682L1331.86 349.218ZM1341.22 354.258L1338.69 370.057C1343.93 370.895 1350.51 371.218 1358.02 371.218V355.218V339.218C1351.12 339.218 1346.51 338.901 1343.75 338.459L1341.22 354.258ZM1331.14 300.018L1323.98 285.707C1317.39 289.003 1315.26 295.259 1314.76 296.704C1313.88 299.232 1313.41 301.896 1313.11 304.189L1328.98 306.258L1344.84 308.327C1345.03 306.94 1345.15 306.724 1345 307.172C1344.92 307.406 1344.6 308.306 1343.84 309.456C1343.13 310.547 1341.43 312.76 1338.29 314.329L1331.14 300.018ZM1328.98 306.258L1313.11 304.189C1312.55 308.479 1312.2 313.159 1312.03 318.187L1328.02 318.738L1344.01 319.289C1344.16 315.037 1344.44 311.397 1344.84 308.327L1328.98 306.258ZM1328.02 318.738V334.738H1340.5V318.738V302.738H1328.02V318.738ZM1340.5 318.738V334.738C1348.04 334.738 1353.81 334.659 1357.58 334.48L1356.82 318.498L1356.06 302.516C1353.11 302.657 1348 302.738 1340.5 302.738V318.738ZM1356.82 318.498H1372.82C1372.82 310.191 1371.79 300.46 1366.57 293.003L1353.46 302.178L1340.35 311.353C1339.81 310.58 1340.02 310.467 1340.31 311.884C1340.58 313.227 1340.82 315.363 1340.82 318.498H1356.82ZM1353.46 302.178L1366.87 293.458C1360.78 284.09 1350.83 281.378 1342.42 281.378V297.378V313.378C1343.52 313.378 1343.46 313.556 1342.76 313.251C1342.38 313.087 1341.88 312.809 1341.36 312.37C1340.82 311.926 1340.38 311.416 1340.04 310.898L1353.46 302.178ZM1342.42 297.378V281.378C1335.9 281.378 1329.39 282.72 1323.43 285.999L1331.14 300.018L1338.85 314.037C1339.29 313.796 1340.3 313.378 1342.42 313.378V297.378ZM1484.78 377.298L1475.75 364.093C1475.71 364.118 1475.68 364.143 1475.64 364.168L1484.78 377.298ZM1406.06 381.618L1390.14 380.026C1389.34 388.094 1394.69 395.491 1402.61 397.241L1406.06 381.618ZM1408.22 367.938L1392.57 364.642C1392.54 364.749 1392.52 364.856 1392.5 364.964L1408.22 367.938ZM1411.34 354.018L1413.97 338.236C1405.75 336.864 1397.84 342.045 1395.82 350.137L1411.34 354.018ZM1430.54 356.418L1429.1 372.352C1429.22 372.363 1429.34 372.373 1429.46 372.381L1430.54 356.418ZM1456.46 356.418L1463.62 370.729C1465.16 369.96 1466.56 368.948 1467.78 367.732L1456.46 356.418ZM1456.94 355.218L1442.09 349.276C1441.82 349.947 1441.6 350.636 1441.42 351.337L1456.94 355.218ZM1451.42 346.338L1455.74 330.931C1455.59 330.89 1455.45 330.852 1455.3 330.816L1451.42 346.338ZM1436.78 342.258L1432.43 357.653V357.653L1436.78 342.258ZM1415.9 329.298L1403.56 339.48C1403.65 339.592 1403.75 339.703 1403.84 339.812L1415.9 329.298ZM1411.34 288.978L1396.33 283.447V283.447L1411.34 288.978ZM1418.54 277.458L1427.02 291.026C1427.16 290.943 1427.29 290.858 1427.42 290.771L1418.54 277.458ZM1432.46 273.618L1435.21 289.381C1435.32 289.362 1435.43 289.342 1435.54 289.32L1432.46 273.618ZM1492.94 274.338H1508.94C1508.94 266.376 1503.09 259.625 1495.21 258.499L1492.94 274.338ZM1491.74 288.978L1507.63 290.869C1507.63 290.855 1507.64 290.84 1507.64 290.826L1491.74 288.978ZM1489.58 301.698L1487.53 317.566C1494.96 318.527 1502.06 314.206 1504.62 307.166L1489.58 301.698ZM1448.3 299.778L1442.69 284.797C1442.16 284.993 1441.65 285.217 1441.15 285.467L1448.3 299.778ZM1447.34 301.218L1461.65 308.373C1461.85 307.977 1462.03 307.572 1462.2 307.16L1447.34 301.218ZM1449.02 308.658L1458.85 296.028C1458.54 295.789 1458.22 295.561 1457.9 295.345L1449.02 308.658ZM1460.3 312.738L1464.74 297.367C1464.62 297.331 1464.5 297.297 1464.38 297.265L1460.3 312.738ZM1478.78 319.218L1472.37 333.877C1472.43 333.9 1472.48 333.924 1472.54 333.947L1478.78 319.218ZM1492.46 329.298L1480.32 339.711C1480.39 339.793 1480.46 339.874 1480.53 339.954L1492.46 329.298ZM1498.46 346.578H1482.46C1482.46 357.238 1479.27 361.682 1475.75 364.093L1484.78 377.298L1493.82 390.503C1508.54 380.434 1514.46 364.398 1514.46 346.578H1498.46ZM1484.78 377.298L1475.64 364.168C1470.43 367.795 1461.36 370.658 1446.38 370.658V386.658V402.658C1464.69 402.658 1481.22 399.281 1493.93 390.428L1484.78 377.298ZM1446.38 386.658V370.658C1436.18 370.658 1423.93 369.182 1409.52 365.995L1406.06 381.618L1402.61 397.241C1418.59 400.774 1433.23 402.658 1446.38 402.658V386.658ZM1406.06 381.618L1421.98 383.21C1422.23 380.713 1422.85 376.696 1423.95 370.912L1408.22 367.938L1392.5 364.964C1391.36 371.02 1390.53 376.123 1390.14 380.026L1406.06 381.618ZM1408.22 367.938L1423.88 371.234C1425.15 365.212 1426.14 360.804 1426.87 357.899L1411.34 354.018L1395.82 350.137C1394.95 353.632 1393.86 358.505 1392.57 364.642L1408.22 367.938ZM1411.34 354.018L1408.71 369.8C1414.94 370.837 1421.74 371.684 1429.1 372.352L1430.54 356.418L1431.99 340.484C1425.27 339.872 1419.27 339.119 1413.97 338.236L1411.34 354.018ZM1430.54 356.418L1429.46 372.381C1436.72 372.876 1443.11 373.138 1448.54 373.138V357.138V341.138C1444.06 341.138 1438.45 340.92 1431.63 340.455L1430.54 356.418ZM1448.54 357.138V373.138C1450.93 373.138 1453.21 373.075 1455.21 372.892C1456.43 372.781 1460.13 372.471 1463.62 370.729L1456.46 356.418L1449.31 342.107C1449.78 341.873 1450.19 341.699 1450.52 341.572C1450.85 341.444 1451.14 341.349 1451.37 341.28C1451.81 341.146 1452.13 341.075 1452.29 341.044C1452.46 341.01 1452.55 340.999 1452.53 341.001C1452.52 341.002 1452.45 341.011 1452.32 341.024C1452.03 341.05 1451.57 341.08 1450.92 341.103C1450.27 341.125 1449.48 341.138 1448.54 341.138V357.138ZM1456.46 356.418L1467.78 367.732C1470.22 365.29 1471.27 362.662 1471.56 361.94C1472.01 360.816 1472.29 359.794 1472.47 359.099L1456.94 355.218L1441.42 351.337C1441.44 351.282 1441.56 350.78 1441.85 350.056C1442 349.681 1442.27 349.059 1442.69 348.315C1443.08 347.627 1443.86 346.396 1445.15 345.104L1456.46 356.418ZM1456.94 355.218L1471.8 361.16C1472.82 358.617 1473.42 355.806 1473.42 352.818H1457.42H1441.42C1441.42 351.43 1441.71 350.219 1442.09 349.276L1456.94 355.218ZM1457.42 352.818H1473.42C1473.42 347.57 1471.65 342.234 1467.66 337.927C1463.99 333.962 1459.47 331.976 1455.74 330.931L1451.42 346.338L1447.11 361.745C1447.38 361.82 1445.86 361.474 1444.18 359.669C1442.2 357.522 1441.42 354.866 1441.42 352.818H1457.42ZM1451.42 346.338L1455.3 330.816C1454.33 330.573 1449.78 329.309 1441.14 326.863L1436.78 342.258L1432.43 357.653C1440.74 360.007 1445.96 361.463 1447.54 361.86L1451.42 346.338ZM1436.78 342.258L1441.14 326.863C1435.45 325.251 1431.23 322.53 1427.96 318.784L1415.9 329.298L1403.84 339.812C1411.46 348.546 1421.16 354.465 1432.43 357.653L1436.78 342.258ZM1415.9 329.298L1428.25 319.116C1425.65 315.974 1423.98 311.804 1423.98 305.538H1407.98H1391.98C1391.98 318.152 1395.59 329.822 1403.56 339.48L1415.9 329.298ZM1407.98 305.538H1423.98C1423.98 302.945 1424.58 299.332 1426.36 294.509L1411.34 288.978L1396.33 283.447C1393.63 290.784 1391.98 298.211 1391.98 305.538H1407.98ZM1411.34 288.978L1426.36 294.509C1427.25 292.099 1427.96 290.704 1428.39 290.018C1428.59 289.697 1428.63 289.685 1428.48 289.858C1428.32 290.029 1427.86 290.506 1427.02 291.026L1418.54 277.458L1410.06 263.89C1405.95 266.459 1403.16 270.019 1401.26 273.058C1399.28 276.212 1397.68 279.777 1396.33 283.447L1411.34 288.978ZM1418.54 277.458L1427.42 290.771C1426.58 291.331 1426.07 291.498 1426.31 291.403C1426.47 291.34 1426.91 291.185 1427.72 290.962C1429.35 290.513 1431.79 289.975 1435.21 289.381L1432.46 273.618L1429.72 257.855C1425.78 258.541 1422.22 259.283 1419.21 260.114C1416.63 260.826 1412.88 262.002 1409.67 264.145L1418.54 277.458ZM1432.46 273.618L1435.54 289.32C1442.08 288.04 1447.84 287.458 1452.86 287.458V271.458V255.458C1445.41 255.458 1437.57 256.316 1429.39 257.916L1432.46 273.618ZM1452.86 271.458V287.458C1465.37 287.458 1477.97 288.362 1490.68 290.177L1492.94 274.338L1495.21 258.499C1481.03 256.474 1466.92 255.458 1452.86 255.458V271.458ZM1492.94 274.338H1476.94C1476.94 276.195 1476.65 280.251 1475.85 287.13L1491.74 288.978L1507.64 290.826C1508.44 283.945 1508.94 278.241 1508.94 274.338H1492.94ZM1491.74 288.978L1475.86 287.087C1475.47 290.314 1475.13 292.764 1474.83 294.519C1474.68 295.395 1474.56 295.997 1474.47 296.376C1474.37 296.829 1474.38 296.692 1474.55 296.23L1489.58 301.698L1504.62 307.166C1505.48 304.805 1506.01 302.048 1506.38 299.877C1506.8 297.392 1507.22 294.362 1507.63 290.869L1491.74 288.978ZM1489.58 301.698L1491.64 285.83C1477.73 284.031 1466.01 283.058 1456.7 283.058V299.058V315.058C1464.04 315.058 1474.24 315.845 1487.53 317.566L1489.58 301.698ZM1456.7 299.058V283.058C1454.3 283.058 1452.02 283.123 1450 283.296C1448.34 283.439 1445.48 283.747 1442.69 284.797L1448.3 299.778L1453.92 314.759C1453.41 314.951 1453.01 315.062 1452.78 315.12C1452.54 315.181 1452.38 315.21 1452.33 315.22C1452.24 315.235 1452.35 315.212 1452.73 315.18C1453.5 315.113 1454.79 315.058 1456.7 315.058V299.058ZM1448.3 299.778L1441.15 285.467C1437.41 287.334 1435.37 290.101 1434.51 291.383C1433.52 292.876 1432.88 294.298 1432.49 295.276L1447.34 301.218L1462.2 307.16C1462.13 307.338 1461.81 308.12 1461.14 309.133C1460.6 309.935 1458.87 312.382 1455.46 314.089L1448.3 299.778ZM1447.34 301.218L1433.03 294.063C1431.15 297.831 1430.86 301.518 1430.86 303.858H1446.86H1462.86C1462.86 304.029 1462.85 304.515 1462.73 305.22C1462.6 305.917 1462.32 307.048 1461.65 308.373L1447.34 301.218ZM1446.86 303.858H1430.86C1430.86 309.684 1432.97 317.183 1440.15 321.971L1449.02 308.658L1457.9 295.345C1459.72 296.557 1461.14 298.271 1461.99 300.172C1462.78 301.924 1462.86 303.318 1462.86 303.858H1446.86ZM1449.02 308.658L1439.2 321.288C1442.06 323.514 1445.45 324.828 1447.48 325.564C1449.99 326.471 1452.96 327.35 1456.23 328.211L1460.3 312.738L1464.38 297.265C1461.57 296.526 1459.62 295.925 1458.37 295.472C1458.07 295.365 1457.84 295.277 1457.68 295.209C1457.6 295.176 1457.53 295.149 1457.49 295.13C1457.47 295.121 1457.45 295.114 1457.44 295.109C1457.43 295.104 1457.43 295.101 1457.43 295.101C1457.43 295.101 1457.43 295.105 1457.45 295.111C1457.46 295.117 1457.48 295.127 1457.5 295.14C1457.55 295.166 1457.63 295.21 1457.74 295.274C1457.94 295.389 1458.34 295.634 1458.85 296.028L1449.02 308.658ZM1460.3 312.738L1455.86 328.109C1462.6 330.056 1468.07 331.993 1472.37 333.877L1478.78 319.218L1485.2 304.559C1479.26 301.963 1472.41 299.58 1464.74 297.367L1460.3 312.738ZM1478.78 319.218L1472.54 333.947C1475.48 335.195 1478.04 337.05 1480.32 339.711L1492.46 329.298L1504.61 318.885C1499.21 312.586 1492.65 307.721 1485.03 304.489L1478.78 319.218ZM1492.46 329.298L1480.53 339.954C1481.47 341.008 1482.46 342.751 1482.46 346.578H1498.46H1514.46C1514.46 336.325 1511.46 326.548 1504.4 318.642L1492.46 329.298Z" fill="white" mask="url(#path-4-outside-1_59_307)"/>
</svg>
