<svg width="6000" height="952" viewBox="0 0 6000 952" fill="none" xmlns="http://www.w3.org/2000/svg">
<path d="M1033.47 616H938.553V335.922H1033.47V446.469C1036.21 441.13 1042.59 438.461 1052.62 438.461H1111.01V335.922H1205.74V616H1111.01V503.695C1109.45 506.82 1107.11 508.904 1103.98 509.945C1100.99 510.987 1096.95 511.508 1091.87 511.508H1033.47V616ZM1271.37 409.164C1255.48 409.164 1242.59 404.477 1232.69 395.102C1222.93 385.596 1218.04 374.008 1218.04 360.336C1218.04 346.664 1222.99 335.076 1232.89 325.57C1242.91 315.935 1255.74 311.117 1271.37 311.117C1286.86 311.117 1299.49 315.935 1309.26 325.57C1319.15 335.076 1324.1 346.664 1324.1 360.336C1324.1 374.138 1319.22 385.727 1309.45 395.102C1299.82 404.477 1287.12 409.164 1271.37 409.164ZM1318.44 616H1223.71V401.547H1226.83C1237.9 412.224 1252.75 417.562 1271.37 417.562C1289.59 417.562 1304.24 412.224 1315.31 401.547H1318.44V616ZM1460.62 680.844C1438.49 680.844 1419.15 679.151 1402.62 675.766C1386.21 672.38 1373.25 667.693 1363.75 661.703C1354.37 655.714 1347.41 649.008 1342.85 641.586C1338.42 634.164 1336.21 626.026 1336.21 617.172C1336.21 604.542 1341.03 594.646 1350.66 587.484C1360.3 580.323 1374.03 576.742 1391.87 576.742V573.227C1349.69 573.227 1328.59 561.898 1328.59 539.242C1328.59 528.044 1334.06 519.711 1345 514.242C1356.07 508.773 1371.17 506.039 1390.31 506.039C1401.64 506.039 1414.53 507.341 1428.98 509.945L1429.37 505.648C1415.7 505.128 1403.46 503.565 1392.65 500.961C1381.98 498.357 1373.25 495.102 1366.48 491.195C1359.71 487.289 1354.11 482.667 1349.69 477.328C1345.26 471.99 1342.13 466.586 1340.31 461.117C1338.62 455.518 1337.77 449.529 1337.77 443.148C1337.77 422.185 1348.06 404.997 1368.63 391.586C1389.2 378.044 1417.46 371.273 1453.4 371.273C1473.32 371.273 1492.85 374.789 1511.99 381.82C1531.26 388.721 1547.99 399.724 1562.19 414.828L1564.33 412.484C1558.47 402.719 1550.01 393.995 1538.94 386.312C1528.01 378.63 1515.83 372.51 1502.42 367.953C1489.01 363.266 1475.6 359.62 1462.19 357.016C1448.77 354.411 1435.43 352.719 1422.15 351.938V343.93L1515.9 311.117C1535.69 325.44 1551.25 343.148 1562.58 364.242C1574.03 385.206 1579.76 405.258 1579.76 424.398C1579.76 456.951 1569.28 481.495 1548.32 498.031C1527.49 514.568 1497.21 522.836 1457.5 522.836C1447.08 522.836 1436.93 522.706 1427.03 522.445C1417.13 522.185 1411.79 522.055 1411.01 522.055C1404.11 522.055 1399.03 522.641 1395.78 523.812C1392.65 524.984 1391.09 527.198 1391.09 530.453C1391.09 533.188 1392.52 535.01 1395.39 535.922C1398.25 536.833 1402.29 537.289 1407.5 537.289C1414.27 537.289 1430.61 535.076 1456.52 530.648C1482.56 526.221 1503.66 524.008 1519.8 524.008C1531.39 524.008 1541.55 525.57 1550.27 528.695C1559.13 531.69 1566.03 535.466 1570.97 540.023C1575.92 544.581 1579.89 550.115 1582.89 556.625C1585.88 563.005 1587.84 568.995 1588.75 574.594C1589.79 580.193 1590.31 586.117 1590.31 592.367C1590.31 599.268 1589.53 605.974 1587.97 612.484C1586.4 618.865 1583.87 625.505 1580.35 632.406C1576.83 639.307 1571.76 645.557 1565.12 651.156C1558.6 656.755 1550.73 661.833 1541.48 666.391C1532.37 670.948 1520.91 674.464 1507.11 676.938C1493.31 679.542 1477.81 680.844 1460.62 680.844ZM1455.94 476.742C1464.92 476.742 1471.95 475.115 1477.03 471.859C1482.11 468.474 1484.65 464.242 1484.65 459.164C1484.65 453.695 1482.11 449.333 1477.03 446.078C1471.95 442.823 1464.92 441.195 1455.94 441.195C1446.69 441.195 1439.53 442.823 1434.45 446.078C1429.5 449.333 1427.03 453.695 1427.03 459.164C1427.03 464.372 1429.57 468.604 1434.65 471.859C1439.72 475.115 1446.82 476.742 1455.94 476.742ZM1460.23 598.812C1475.86 598.812 1488.81 597.185 1499.1 593.93C1509.52 590.674 1514.72 585.466 1514.72 578.305C1514.72 569.32 1503.92 564.828 1482.3 564.828C1471.89 564.828 1456.52 566.065 1436.21 568.539C1415.9 571.013 1403.92 572.315 1400.27 572.445C1400.27 590.023 1420.26 598.812 1460.23 598.812ZM1695 616H1601.44V316H1696.17L1681.13 512.484H1685.04C1690.51 460.271 1699.69 423.682 1712.58 402.719C1725.6 381.755 1746.04 371.273 1773.9 371.273C1797.73 371.273 1816.03 379.802 1828.79 396.859C1841.55 413.917 1847.93 441.391 1847.93 479.281V616H1754.18V530.844C1754.18 524.464 1754.11 519.19 1753.98 515.023C1753.85 510.857 1753.53 506.169 1753.01 500.961C1752.49 495.622 1751.64 491.326 1750.47 488.07C1749.43 484.685 1747.99 481.495 1746.17 478.5C1744.35 475.375 1741.94 473.096 1738.94 471.664C1735.95 470.232 1732.5 469.516 1728.59 469.516C1723.64 469.516 1719.35 470.557 1715.7 472.641C1712.06 474.594 1709 477.719 1706.52 482.016C1704.05 486.182 1702.03 490.87 1700.47 496.078C1698.9 501.286 1697.73 507.862 1696.95 515.805C1696.17 523.617 1695.65 531.365 1695.39 539.047C1695.13 546.599 1695 555.714 1695 566.391V616ZM1958.28 616H1863.94V316H1958.28V616ZM2022.15 409.164C2006.26 409.164 1993.37 404.477 1983.47 395.102C1973.71 385.596 1968.83 374.008 1968.83 360.336C1968.83 346.664 1973.77 335.076 1983.67 325.57C1993.7 315.935 2006.52 311.117 2022.15 311.117C2037.64 311.117 2050.27 315.935 2060.04 325.57C2069.93 335.076 2074.88 346.664 2074.88 360.336C2074.88 374.138 2070 385.727 2060.23 395.102C2050.6 404.477 2037.9 409.164 2022.15 409.164ZM2069.22 616H1974.49V401.547H1977.62C1988.68 412.224 2003.53 417.562 2022.15 417.562C2040.38 417.562 2055.02 412.224 2066.09 401.547H2069.22V616ZM2211.4 680.844C2189.27 680.844 2169.93 679.151 2153.4 675.766C2136.99 672.38 2124.03 667.693 2114.53 661.703C2105.15 655.714 2098.19 649.008 2093.63 641.586C2089.2 634.164 2086.99 626.026 2086.99 617.172C2086.99 604.542 2091.81 594.646 2101.44 587.484C2111.08 580.323 2124.82 576.742 2142.65 576.742V573.227C2100.47 573.227 2079.37 561.898 2079.37 539.242C2079.37 528.044 2084.84 519.711 2095.78 514.242C2106.85 508.773 2121.95 506.039 2141.09 506.039C2152.42 506.039 2165.31 507.341 2179.76 509.945L2180.15 505.648C2166.48 505.128 2154.24 503.565 2143.44 500.961C2132.76 498.357 2124.03 495.102 2117.26 491.195C2110.49 487.289 2104.89 482.667 2100.47 477.328C2096.04 471.99 2092.91 466.586 2091.09 461.117C2089.4 455.518 2088.55 449.529 2088.55 443.148C2088.55 422.185 2098.84 404.997 2119.41 391.586C2139.99 378.044 2168.24 371.273 2204.18 371.273C2224.1 371.273 2243.63 374.789 2262.77 381.82C2282.04 388.721 2298.77 399.724 2312.97 414.828L2315.12 412.484C2309.26 402.719 2300.79 393.995 2289.72 386.312C2278.79 378.63 2266.61 372.51 2253.2 367.953C2239.79 363.266 2226.38 359.62 2212.97 357.016C2199.56 354.411 2186.21 352.719 2172.93 351.938V343.93L2266.68 311.117C2286.47 325.44 2302.03 343.148 2313.36 364.242C2324.82 385.206 2330.54 405.258 2330.54 424.398C2330.54 456.951 2320.06 481.495 2299.1 498.031C2278.27 514.568 2247.99 522.836 2208.28 522.836C2197.86 522.836 2187.71 522.706 2177.81 522.445C2167.91 522.185 2162.58 522.055 2161.79 522.055C2154.89 522.055 2149.82 522.641 2146.56 523.812C2143.44 524.984 2141.87 527.198 2141.87 530.453C2141.87 533.188 2143.31 535.01 2146.17 535.922C2149.03 536.833 2153.07 537.289 2158.28 537.289C2165.05 537.289 2181.39 535.076 2207.3 530.648C2233.34 526.221 2254.44 524.008 2270.58 524.008C2282.17 524.008 2292.33 525.57 2301.05 528.695C2309.91 531.69 2316.81 535.466 2321.76 540.023C2326.7 544.581 2330.68 550.115 2333.67 556.625C2336.66 563.005 2338.62 568.995 2339.53 574.594C2340.57 580.193 2341.09 586.117 2341.09 592.367C2341.09 599.268 2340.31 605.974 2338.75 612.484C2337.19 618.865 2334.65 625.505 2331.13 632.406C2327.62 639.307 2322.54 645.557 2315.9 651.156C2309.39 656.755 2301.51 661.833 2292.26 666.391C2283.15 670.948 2271.69 674.464 2257.89 676.938C2244.09 679.542 2228.59 680.844 2211.4 680.844ZM2206.72 476.742C2215.7 476.742 2222.73 475.115 2227.81 471.859C2232.89 468.474 2235.43 464.242 2235.43 459.164C2235.43 453.695 2232.89 449.333 2227.81 446.078C2222.73 442.823 2215.7 441.195 2206.72 441.195C2197.47 441.195 2190.31 442.823 2185.23 446.078C2180.28 449.333 2177.81 453.695 2177.81 459.164C2177.81 464.372 2180.35 468.604 2185.43 471.859C2190.51 475.115 2197.6 476.742 2206.72 476.742ZM2211.01 598.812C2226.64 598.812 2239.59 597.185 2249.88 593.93C2260.3 590.674 2265.51 585.466 2265.51 578.305C2265.51 569.32 2254.7 564.828 2233.08 564.828C2222.67 564.828 2207.3 566.065 2186.99 568.539C2166.68 571.013 2154.7 572.315 2151.05 572.445C2151.05 590.023 2171.04 598.812 2211.01 598.812ZM2445.78 616H2352.22V316H2446.95L2431.91 512.484H2435.82C2441.29 460.271 2450.47 423.682 2463.36 402.719C2476.38 381.755 2496.82 371.273 2524.69 371.273C2548.51 371.273 2566.81 379.802 2579.57 396.859C2592.33 413.917 2598.71 441.391 2598.71 479.281V616H2504.96V530.844C2504.96 524.464 2504.89 519.19 2504.76 515.023C2504.63 510.857 2504.31 506.169 2503.79 500.961C2503.27 495.622 2502.42 491.326 2501.25 488.07C2500.21 484.685 2498.77 481.495 2496.95 478.5C2495.13 475.375 2492.72 473.096 2489.72 471.664C2486.73 470.232 2483.28 469.516 2479.37 469.516C2474.43 469.516 2470.13 470.557 2466.48 472.641C2462.84 474.594 2459.78 477.719 2457.3 482.016C2454.83 486.182 2452.81 490.87 2451.25 496.078C2449.69 501.286 2448.51 507.862 2447.73 515.805C2446.95 523.617 2446.43 531.365 2446.17 539.047C2445.91 546.599 2445.78 555.714 2445.78 566.391V616ZM2770.78 600.766C2756.2 614.177 2736.73 620.883 2712.38 620.883C2688.03 620.883 2669.09 613.461 2655.54 598.617C2642 583.643 2635.23 563.852 2635.23 539.242V432.406H2609.65V378.891C2626.44 378.891 2638.75 375.701 2646.56 369.32C2654.5 362.81 2658.47 351.677 2658.47 335.922H2729.57V375.961H2770.78V440.023L2729.57 433.578V509.945C2729.57 518.799 2731.07 525.635 2734.06 530.453C2737.06 535.271 2742.26 537.68 2749.69 537.68C2756.07 537.68 2761.47 534.294 2765.9 527.523H2770.78V600.766ZM2882.89 620.883C2846.56 620.883 2814.46 613.917 2786.6 599.984V503.109H2792.65C2818.04 528.5 2849.1 541.195 2885.82 541.195C2893.11 541.195 2898.84 540.414 2903.01 538.852C2907.3 537.289 2909.45 535.141 2909.45 532.406C2909.45 530.583 2907.63 529.086 2903.98 527.914C2900.34 526.612 2895.52 525.57 2889.53 524.789C2883.67 524.008 2876.96 522.901 2869.41 521.469C2861.86 519.906 2854.11 518.214 2846.17 516.391C2838.23 514.568 2830.48 511.768 2822.93 507.992C2815.38 504.216 2808.6 499.854 2802.62 494.906C2796.76 489.828 2792 483.253 2788.36 475.18C2784.71 467.107 2782.89 457.927 2782.89 447.641C2782.89 435.141 2785.82 423.943 2791.68 414.047C2797.67 404.021 2805.68 395.948 2815.7 389.828C2825.73 383.708 2836.99 379.086 2849.49 375.961C2862.12 372.836 2875.53 371.273 2889.72 371.273C2923.71 371.273 2955.74 379.281 2985.82 395.297V480.453H2980.54C2968.83 470.167 2954.37 461.964 2937.19 455.844C2920 449.594 2902.62 446.469 2885.04 446.469C2868.24 446.469 2859.84 449.659 2859.84 456.039C2859.84 458.513 2862.38 460.596 2867.46 462.289C2872.67 463.852 2879.37 465.219 2887.58 466.391C2895.78 467.562 2904.83 468.93 2914.72 470.492C2924.75 472.055 2934.71 474.464 2944.61 477.719C2954.63 480.974 2963.75 484.945 2971.95 489.633C2980.15 494.32 2986.79 500.896 2991.87 509.359C2997.08 517.693 2999.69 527.393 2999.69 538.461C2999.69 557.211 2994.54 572.901 2984.26 585.531C2973.97 598.031 2960.3 607.081 2943.24 612.68C2926.18 618.148 2906.07 620.883 2882.89 620.883Z" fill="#542B83"/>
<rect x="472.592" y="326" width="300" height="300" fill="#542B83"/>
<mask id="mask0_81_240" style="mask-type:alpha" maskUnits="userSpaceOnUse" x="512" y="366" width="221" height="220">
<rect x="512.592" y="366" width="220" height="220" fill="#D9D9D9"/>
</mask>
<g mask="url(#mask0_81_240)">
<path d="M565.987 558.5L580.883 494.104L530.925 450.792L596.925 445.062L622.591 384.333L648.258 445.062L714.258 450.792L664.3 494.104L679.196 558.5L622.591 524.354L565.987 558.5Z" fill="white"/>
</g>
</svg>
