<svg width="1796" height="393" viewBox="0 0 1796 393" fill="none" xmlns="http://www.w3.org/2000/svg">
<mask id="path-1-outside-1_53_175" maskUnits="userSpaceOnUse" x="439.69" y="94" width="1356" height="271" fill="black">
<rect fill="white" x="439.69" y="94" width="1356" height="271"/>
<path d="M525.69 123C549.09 123 568.19 125.2 582.99 129.6C597.99 134 609.59 142.3 617.79 154.5C626.19 166.7 630.39 184.2 630.39 207C630.39 231.4 625.99 250 617.19 262.8C608.39 275.4 596.59 283.8 581.79 288C566.99 292 548.29 294 525.69 294H465.69V123H525.69ZM565.89 253.2C568.29 250.8 569.99 244.6 570.99 234.6C571.99 224.6 572.49 215.4 572.49 207C572.49 196.4 571.69 188 570.09 181.8C568.69 175.4 566.09 170.3 562.29 166.5C556.29 159.9 545.99 156.6 531.39 156.6C528.79 156.6 524.89 156.8 519.69 157.2V256.8C523.09 257.2 528.39 257.4 535.59 257.4C542.99 257.4 549.49 257.1 555.09 256.5C560.89 255.7 564.49 254.6 565.89 253.2ZM735.362 258C740.362 258 749.662 257.5 763.262 256.5C765.062 256.5 768.362 256.3 773.162 255.9L777.662 286.8C762.262 294 742.262 297.6 717.662 297.6C694.662 297.6 676.962 291.8 664.562 280.2C652.362 268.6 646.262 251.1 646.262 227.7C646.262 215.7 647.762 204.1 650.762 192.9C653.962 181.7 657.562 173.9 661.562 169.5C665.762 165.1 673.562 161.3 684.962 158.1C696.362 154.9 707.662 153.3 718.862 153.3C736.862 153.3 750.362 156.5 759.362 162.9C768.362 169.3 774.262 178.2 777.062 189.6C779.862 200.8 781.262 215.9 781.262 234.9C767.662 235.7 754.362 236.1 741.362 236.1H698.762C698.762 242.5 700.062 247.3 702.662 250.5C705.462 253.7 709.362 255.8 714.362 256.8C719.362 257.6 726.362 258 735.362 258ZM701.762 189C700.562 189.6 699.662 192.2 699.062 196.8C698.462 201.4 698.062 206.6 697.862 212.4H713.462C722.862 212.4 729.662 212.3 733.862 212.1C733.862 202.5 732.462 195.7 729.662 191.7C727.062 187.7 722.462 185.7 715.862 185.7C710.462 185.7 705.762 186.8 701.762 189ZM910.919 247.2C910.919 265 905.219 277.8 893.819 285.6C882.619 293.4 866.619 297.3 845.819 297.3C831.219 297.3 814.419 295.2 795.419 291C795.819 287 796.719 281.3 798.119 273.9C799.719 266.3 801.019 260.5 802.019 256.5C809.219 257.7 817.219 258.7 826.019 259.5C834.819 260.1 842.319 260.4 848.519 260.4C853.919 260.4 857.219 260.1 858.419 259.5C858.619 259.3 858.819 258.8 859.019 258C859.419 257 859.619 256 859.619 255C859.619 251 857.119 248.3 852.119 246.9C850.519 246.5 844.419 244.8 833.819 241.8C823.219 238.8 814.519 233.4 807.719 225.6C801.119 217.6 797.819 207.7 797.819 195.9C797.819 189.7 799.219 182.8 802.019 175.2C804.819 167.6 807.819 162.8 811.019 160.8C813.419 159.2 819.219 157.6 828.419 156C837.619 154.2 846.119 153.3 853.919 153.3C870.519 153.3 887.219 154.5 904.019 156.9C904.019 160.5 903.519 166.6 902.519 175.2C901.519 183.6 900.619 188.9 899.819 191.1C882.819 188.9 869.119 187.8 858.719 187.8C853.319 187.8 849.819 188.1 848.219 188.7C847.819 188.9 847.419 189.5 847.019 190.5C846.619 191.3 846.419 192.4 846.419 193.8C846.419 196.6 847.319 198.6 849.119 199.8C850.919 201.2 855.619 202.9 863.219 204.9C872.219 207.5 879.919 210.2 886.319 213C892.919 215.8 898.619 220 903.419 225.6C908.419 231.2 910.919 238.4 910.919 247.2ZM991.532 237.3C991.532 240.9 991.632 244.7 991.832 248.7C992.032 252.5 992.632 254.9 993.632 255.9C995.032 257.3 999.932 258 1008.33 258L1018.53 257.7C1020.33 267.3 1021.23 278.4 1021.23 291C1017.43 292.4 1011.83 293.7 1004.43 294.9C997.232 296.1 990.332 296.7 983.732 296.7C969.932 296.7 959.232 293.7 951.632 287.7C944.232 281.5 940.532 272 940.532 259.2V185.4H918.032V158.1L940.532 156L954.032 123L991.532 120.9V156H1023.33V185.4H991.532V237.3ZM1120.87 294L1116.07 275.1C1106.87 290.1 1094.07 297.6 1077.67 297.6C1064.27 297.6 1053.27 293.9 1044.67 286.5C1036.27 278.9 1032.07 268.3 1032.07 254.7C1032.07 246.3 1034.47 239 1039.27 232.8C1044.27 226.4 1051.07 221.9 1059.67 219.3C1070.87 216.1 1088.17 214.3 1111.57 213.9C1111.57 200.7 1110.97 193.7 1109.77 192.9C1108.77 192.1 1105.57 191.7 1100.17 191.7C1096.77 191.7 1092.07 191.9 1086.07 192.3C1076.47 192.7 1063.47 193.8 1047.07 195.6C1045.47 184.8 1044.27 173.2 1043.47 160.8C1054.07 158.6 1065.17 156.8 1076.77 155.4C1088.37 153.8 1098.77 153 1107.97 153C1123.97 153 1135.97 155.7 1143.97 161.1C1151.97 166.3 1157.17 173.2 1159.57 181.8C1161.97 190.4 1163.07 201.3 1162.87 214.5L1162.57 258.6L1163.47 294H1120.87ZM1095.07 264C1100.27 264 1105.77 263 1111.57 261V238.8H1109.17C1094.37 238.8 1086.17 239.6 1084.57 241.2C1083.57 242.2 1082.77 243.7 1082.17 245.7C1081.77 247.7 1081.57 249.6 1081.57 251.4C1081.57 256.2 1082.67 259.5 1084.87 261.3C1087.07 263.1 1090.47 264 1095.07 264ZM1256.84 153.3C1278.24 153.3 1300.34 156.3 1323.14 162.3V336L1271.84 338.1V298.5C1271.84 290.9 1273.34 282 1276.34 271.8L1275.44 271.2C1270.44 280.2 1263.94 286.6 1255.94 290.4C1247.94 294 1240.44 295.8 1233.44 295.8C1217.84 295.8 1205.24 290.3 1195.64 279.3C1186.04 268.1 1181.24 251.3 1181.24 228.9C1181.24 213.9 1183.14 200.3 1186.94 188.1C1190.74 175.9 1195.34 168 1200.74 164.4C1206.54 160.6 1214.44 157.8 1224.44 156C1234.44 154.2 1245.24 153.3 1256.84 153.3ZM1255.04 254.1C1259.84 254.1 1265.44 253.2 1271.84 251.4V188.7C1269.44 188.3 1265.84 187.9 1261.04 187.5C1259.24 187.3 1256.54 187.2 1252.94 187.2C1245.14 187.2 1240.74 188 1239.74 189.6C1237.94 192.4 1236.54 197.5 1235.54 204.9C1234.54 211.9 1234.04 218.7 1234.04 225.3C1234.04 235.7 1235.74 243.1 1239.14 247.5C1242.54 251.9 1247.84 254.1 1255.04 254.1ZM1485.46 156V294H1443.76L1438.06 270.9C1423.66 288.3 1406.46 297 1386.46 297C1379.26 297 1372.46 296 1366.06 294C1359.86 292 1355.16 289.1 1351.96 285.3C1350.16 283.1 1348.76 277.6 1347.76 268.8C1346.96 260 1346.56 246.6 1346.56 228.6V156H1397.86V228C1397.86 232 1397.96 236.7 1398.16 242.1C1398.36 247.5 1398.96 250.9 1399.96 252.3C1401.36 254.3 1405.36 255.3 1411.96 255.3L1416.76 255C1422.36 254.8 1428.16 253.5 1434.16 251.1V156H1485.46ZM1593.76 258C1598.76 258 1608.06 257.5 1621.66 256.5C1623.46 256.5 1626.76 256.3 1631.56 255.9L1636.06 286.8C1620.66 294 1600.66 297.6 1576.06 297.6C1553.06 297.6 1535.36 291.8 1522.96 280.2C1510.76 268.6 1504.66 251.1 1504.66 227.7C1504.66 215.7 1506.16 204.1 1509.16 192.9C1512.36 181.7 1515.96 173.9 1519.96 169.5C1524.16 165.1 1531.96 161.3 1543.36 158.1C1554.76 154.9 1566.06 153.3 1577.26 153.3C1595.26 153.3 1608.76 156.5 1617.76 162.9C1626.76 169.3 1632.66 178.2 1635.46 189.6C1638.26 200.8 1639.66 215.9 1639.66 234.9C1626.06 235.7 1612.76 236.1 1599.76 236.1H1557.16C1557.16 242.5 1558.46 247.3 1561.06 250.5C1563.86 253.7 1567.76 255.8 1572.76 256.8C1577.76 257.6 1584.76 258 1593.76 258ZM1560.16 189C1558.96 189.6 1558.06 192.2 1557.46 196.8C1556.86 201.4 1556.46 206.6 1556.26 212.4H1571.86C1581.26 212.4 1588.06 212.3 1592.26 212.1C1592.26 202.5 1590.86 195.7 1588.06 191.7C1585.46 187.7 1580.86 185.7 1574.26 185.7C1568.86 185.7 1564.16 186.8 1560.16 189ZM1769.32 247.2C1769.32 265 1763.62 277.8 1752.22 285.6C1741.02 293.4 1725.02 297.3 1704.22 297.3C1689.62 297.3 1672.82 295.2 1653.82 291C1654.22 287 1655.12 281.3 1656.52 273.9C1658.12 266.3 1659.42 260.5 1660.42 256.5C1667.62 257.7 1675.62 258.7 1684.42 259.5C1693.22 260.1 1700.72 260.4 1706.92 260.4C1712.32 260.4 1715.62 260.1 1716.82 259.5C1717.02 259.3 1717.22 258.8 1717.42 258C1717.82 257 1718.02 256 1718.02 255C1718.02 251 1715.52 248.3 1710.52 246.9C1708.92 246.5 1702.82 244.8 1692.22 241.8C1681.62 238.8 1672.92 233.4 1666.12 225.6C1659.52 217.6 1656.22 207.7 1656.22 195.9C1656.22 189.7 1657.62 182.8 1660.42 175.2C1663.22 167.6 1666.22 162.8 1669.42 160.8C1671.82 159.2 1677.62 157.6 1686.82 156C1696.02 154.2 1704.52 153.3 1712.32 153.3C1728.92 153.3 1745.62 154.5 1762.42 156.9C1762.42 160.5 1761.92 166.6 1760.92 175.2C1759.92 183.6 1759.02 188.9 1758.22 191.1C1741.22 188.9 1727.52 187.8 1717.12 187.8C1711.72 187.8 1708.22 188.1 1706.62 188.7C1706.22 188.9 1705.82 189.5 1705.42 190.5C1705.02 191.3 1704.82 192.4 1704.82 193.8C1704.82 196.6 1705.72 198.6 1707.52 199.8C1709.32 201.2 1714.02 202.9 1721.62 204.9C1730.62 207.5 1738.32 210.2 1744.72 213C1751.32 215.8 1757.02 220 1761.82 225.6C1766.82 231.2 1769.32 238.4 1769.32 247.2Z"/>
</mask>
<path d="M525.69 123C549.09 123 568.19 125.2 582.99 129.6C597.99 134 609.59 142.3 617.79 154.5C626.19 166.7 630.39 184.2 630.39 207C630.39 231.4 625.99 250 617.19 262.8C608.39 275.4 596.59 283.8 581.79 288C566.99 292 548.29 294 525.69 294H465.69V123H525.69ZM565.89 253.2C568.29 250.8 569.99 244.6 570.99 234.6C571.99 224.6 572.49 215.4 572.49 207C572.49 196.4 571.69 188 570.09 181.8C568.69 175.4 566.09 170.3 562.29 166.5C556.29 159.9 545.99 156.6 531.39 156.6C528.79 156.6 524.89 156.8 519.69 157.2V256.8C523.09 257.2 528.39 257.4 535.59 257.4C542.99 257.4 549.49 257.1 555.09 256.5C560.89 255.7 564.49 254.6 565.89 253.2ZM735.362 258C740.362 258 749.662 257.5 763.262 256.5C765.062 256.5 768.362 256.3 773.162 255.9L777.662 286.8C762.262 294 742.262 297.6 717.662 297.6C694.662 297.6 676.962 291.8 664.562 280.2C652.362 268.6 646.262 251.1 646.262 227.7C646.262 215.7 647.762 204.1 650.762 192.9C653.962 181.7 657.562 173.9 661.562 169.5C665.762 165.1 673.562 161.3 684.962 158.1C696.362 154.9 707.662 153.3 718.862 153.3C736.862 153.3 750.362 156.5 759.362 162.9C768.362 169.3 774.262 178.2 777.062 189.6C779.862 200.8 781.262 215.9 781.262 234.9C767.662 235.7 754.362 236.1 741.362 236.1H698.762C698.762 242.5 700.062 247.3 702.662 250.5C705.462 253.7 709.362 255.8 714.362 256.8C719.362 257.6 726.362 258 735.362 258ZM701.762 189C700.562 189.6 699.662 192.2 699.062 196.8C698.462 201.4 698.062 206.6 697.862 212.4H713.462C722.862 212.4 729.662 212.3 733.862 212.1C733.862 202.5 732.462 195.7 729.662 191.7C727.062 187.7 722.462 185.7 715.862 185.7C710.462 185.7 705.762 186.8 701.762 189ZM910.919 247.2C910.919 265 905.219 277.8 893.819 285.6C882.619 293.4 866.619 297.3 845.819 297.3C831.219 297.3 814.419 295.2 795.419 291C795.819 287 796.719 281.3 798.119 273.9C799.719 266.3 801.019 260.5 802.019 256.5C809.219 257.7 817.219 258.7 826.019 259.5C834.819 260.1 842.319 260.4 848.519 260.4C853.919 260.4 857.219 260.1 858.419 259.5C858.619 259.3 858.819 258.8 859.019 258C859.419 257 859.619 256 859.619 255C859.619 251 857.119 248.3 852.119 246.9C850.519 246.5 844.419 244.8 833.819 241.8C823.219 238.8 814.519 233.4 807.719 225.6C801.119 217.6 797.819 207.7 797.819 195.9C797.819 189.7 799.219 182.8 802.019 175.2C804.819 167.6 807.819 162.8 811.019 160.8C813.419 159.2 819.219 157.6 828.419 156C837.619 154.2 846.119 153.3 853.919 153.3C870.519 153.3 887.219 154.5 904.019 156.9C904.019 160.5 903.519 166.6 902.519 175.2C901.519 183.6 900.619 188.9 899.819 191.1C882.819 188.9 869.119 187.8 858.719 187.8C853.319 187.8 849.819 188.1 848.219 188.7C847.819 188.9 847.419 189.5 847.019 190.5C846.619 191.3 846.419 192.4 846.419 193.8C846.419 196.6 847.319 198.6 849.119 199.8C850.919 201.2 855.619 202.9 863.219 204.9C872.219 207.5 879.919 210.2 886.319 213C892.919 215.8 898.619 220 903.419 225.6C908.419 231.2 910.919 238.4 910.919 247.2ZM991.532 237.3C991.532 240.9 991.632 244.7 991.832 248.7C992.032 252.5 992.632 254.9 993.632 255.9C995.032 257.3 999.932 258 1008.33 258L1018.53 257.7C1020.33 267.3 1021.23 278.4 1021.23 291C1017.43 292.4 1011.83 293.7 1004.43 294.9C997.232 296.1 990.332 296.7 983.732 296.7C969.932 296.7 959.232 293.7 951.632 287.7C944.232 281.5 940.532 272 940.532 259.2V185.4H918.032V158.1L940.532 156L954.032 123L991.532 120.9V156H1023.33V185.4H991.532V237.3ZM1120.87 294L1116.07 275.1C1106.87 290.1 1094.07 297.6 1077.67 297.6C1064.27 297.6 1053.27 293.9 1044.67 286.5C1036.27 278.9 1032.07 268.3 1032.07 254.7C1032.07 246.3 1034.47 239 1039.27 232.8C1044.27 226.4 1051.07 221.9 1059.67 219.3C1070.87 216.1 1088.17 214.3 1111.57 213.9C1111.57 200.7 1110.97 193.7 1109.77 192.9C1108.77 192.1 1105.57 191.7 1100.17 191.7C1096.77 191.7 1092.07 191.9 1086.07 192.3C1076.47 192.7 1063.47 193.8 1047.07 195.6C1045.47 184.8 1044.27 173.2 1043.47 160.8C1054.07 158.6 1065.17 156.8 1076.77 155.4C1088.37 153.8 1098.77 153 1107.97 153C1123.97 153 1135.97 155.7 1143.97 161.1C1151.97 166.3 1157.17 173.2 1159.57 181.8C1161.97 190.4 1163.07 201.3 1162.87 214.5L1162.57 258.6L1163.47 294H1120.87ZM1095.07 264C1100.27 264 1105.77 263 1111.57 261V238.8H1109.17C1094.37 238.8 1086.17 239.6 1084.57 241.2C1083.57 242.2 1082.77 243.7 1082.17 245.7C1081.77 247.7 1081.57 249.6 1081.57 251.4C1081.57 256.2 1082.67 259.5 1084.87 261.3C1087.07 263.1 1090.47 264 1095.07 264ZM1256.84 153.3C1278.24 153.3 1300.34 156.3 1323.14 162.3V336L1271.84 338.1V298.5C1271.84 290.9 1273.34 282 1276.34 271.8L1275.44 271.2C1270.44 280.2 1263.94 286.6 1255.94 290.4C1247.94 294 1240.44 295.8 1233.44 295.8C1217.84 295.8 1205.24 290.3 1195.64 279.3C1186.04 268.1 1181.24 251.3 1181.24 228.9C1181.24 213.9 1183.14 200.3 1186.94 188.1C1190.74 175.9 1195.34 168 1200.74 164.4C1206.54 160.6 1214.44 157.8 1224.44 156C1234.44 154.2 1245.24 153.3 1256.84 153.3ZM1255.04 254.1C1259.84 254.1 1265.44 253.2 1271.84 251.4V188.7C1269.44 188.3 1265.84 187.9 1261.04 187.5C1259.24 187.3 1256.54 187.2 1252.94 187.2C1245.14 187.2 1240.74 188 1239.74 189.6C1237.94 192.4 1236.54 197.5 1235.54 204.9C1234.54 211.9 1234.04 218.7 1234.04 225.3C1234.04 235.7 1235.74 243.1 1239.14 247.5C1242.54 251.9 1247.84 254.1 1255.04 254.1ZM1485.46 156V294H1443.76L1438.06 270.9C1423.66 288.3 1406.46 297 1386.46 297C1379.26 297 1372.46 296 1366.06 294C1359.86 292 1355.16 289.1 1351.96 285.3C1350.16 283.1 1348.76 277.6 1347.76 268.8C1346.96 260 1346.56 246.6 1346.56 228.6V156H1397.86V228C1397.86 232 1397.96 236.7 1398.16 242.1C1398.36 247.5 1398.96 250.9 1399.96 252.3C1401.36 254.3 1405.36 255.3 1411.96 255.3L1416.76 255C1422.36 254.8 1428.16 253.5 1434.16 251.1V156H1485.46ZM1593.76 258C1598.76 258 1608.06 257.5 1621.66 256.5C1623.46 256.5 1626.76 256.3 1631.56 255.9L1636.06 286.8C1620.66 294 1600.66 297.6 1576.06 297.6C1553.06 297.6 1535.36 291.8 1522.96 280.2C1510.76 268.6 1504.66 251.1 1504.66 227.7C1504.66 215.7 1506.16 204.1 1509.16 192.9C1512.36 181.7 1515.96 173.9 1519.96 169.5C1524.16 165.1 1531.96 161.3 1543.36 158.1C1554.76 154.9 1566.06 153.3 1577.26 153.3C1595.26 153.3 1608.76 156.5 1617.76 162.9C1626.76 169.3 1632.66 178.2 1635.46 189.6C1638.26 200.8 1639.66 215.9 1639.66 234.9C1626.06 235.7 1612.76 236.1 1599.76 236.1H1557.16C1557.16 242.5 1558.46 247.3 1561.06 250.5C1563.86 253.7 1567.76 255.8 1572.76 256.8C1577.76 257.6 1584.76 258 1593.76 258ZM1560.16 189C1558.96 189.6 1558.06 192.2 1557.46 196.8C1556.86 201.4 1556.46 206.6 1556.26 212.4H1571.86C1581.26 212.4 1588.06 212.3 1592.26 212.1C1592.26 202.5 1590.86 195.7 1588.06 191.7C1585.46 187.7 1580.86 185.7 1574.26 185.7C1568.86 185.7 1564.16 186.8 1560.16 189ZM1769.32 247.2C1769.32 265 1763.62 277.8 1752.22 285.6C1741.02 293.4 1725.02 297.3 1704.22 297.3C1689.62 297.3 1672.82 295.2 1653.82 291C1654.22 287 1655.12 281.3 1656.52 273.9C1658.12 266.3 1659.42 260.5 1660.42 256.5C1667.62 257.7 1675.62 258.7 1684.42 259.5C1693.22 260.1 1700.72 260.4 1706.92 260.4C1712.32 260.4 1715.62 260.1 1716.82 259.5C1717.02 259.3 1717.22 258.8 1717.42 258C1717.82 257 1718.02 256 1718.02 255C1718.02 251 1715.52 248.3 1710.52 246.9C1708.92 246.5 1702.82 244.8 1692.22 241.8C1681.62 238.8 1672.92 233.4 1666.12 225.6C1659.52 217.6 1656.22 207.7 1656.22 195.9C1656.22 189.7 1657.62 182.8 1660.42 175.2C1663.22 167.6 1666.22 162.8 1669.42 160.8C1671.82 159.2 1677.62 157.6 1686.82 156C1696.02 154.2 1704.52 153.3 1712.32 153.3C1728.92 153.3 1745.62 154.5 1762.42 156.9C1762.42 160.5 1761.92 166.6 1760.92 175.2C1759.92 183.6 1759.02 188.9 1758.22 191.1C1741.22 188.9 1727.52 187.8 1717.12 187.8C1711.72 187.8 1708.22 188.1 1706.62 188.7C1706.22 188.9 1705.82 189.5 1705.42 190.5C1705.02 191.3 1704.82 192.4 1704.82 193.8C1704.82 196.6 1705.72 198.6 1707.52 199.8C1709.32 201.2 1714.02 202.9 1721.62 204.9C1730.62 207.5 1738.32 210.2 1744.72 213C1751.32 215.8 1757.02 220 1761.82 225.6C1766.82 231.2 1769.32 238.4 1769.32 247.2Z" fill="#0E21A0"/>
<path d="M582.99 129.6L575.581 154.522C575.611 154.531 575.642 154.54 575.672 154.549L582.99 129.6ZM617.79 154.5L596.212 169.004C596.266 169.084 596.321 169.165 596.376 169.245L617.79 154.5ZM617.19 262.8L638.506 277.687C638.543 277.635 638.579 277.582 638.616 277.53L617.19 262.8ZM581.79 288L588.574 313.099C588.679 313.071 588.784 313.042 588.889 313.012L581.79 288ZM465.69 294H439.69C439.69 308.359 451.331 320 465.69 320V294ZM465.69 123V97C451.331 97 439.69 108.641 439.69 123H465.69ZM565.89 253.2L547.506 234.815L547.506 234.815L565.89 253.2ZM570.99 234.6L545.119 232.013V232.013L570.99 234.6ZM570.09 181.8L544.691 187.356C544.76 187.671 544.835 187.985 544.915 188.297L570.09 181.8ZM562.29 166.5L543.052 183.989C543.329 184.295 543.614 184.593 543.906 184.885L562.29 166.5ZM519.69 157.2L517.696 131.277C504.15 132.319 493.69 143.614 493.69 157.2H519.69ZM519.69 256.8H493.69C493.69 269.984 503.559 281.081 516.653 282.622L519.69 256.8ZM555.09 256.5L557.86 282.352C558.122 282.324 558.383 282.292 558.643 282.256L555.09 256.5ZM525.69 123V149C547.733 149 564.084 151.104 575.581 154.522L582.99 129.6L590.4 104.678C572.297 99.296 550.448 97 525.69 97V123ZM582.99 129.6L575.672 154.549C585.244 157.356 591.624 162.179 596.212 169.004L617.79 154.5L639.369 139.996C627.556 122.421 610.737 110.644 590.309 104.651L582.99 129.6ZM617.79 154.5L596.376 169.245C600.577 175.346 604.39 186.82 604.39 207H630.39H656.39C656.39 181.58 651.804 158.054 639.205 139.755L617.79 154.5ZM630.39 207H604.39C604.39 228.915 600.328 241.434 595.765 248.07L617.19 262.8L638.616 277.53C651.653 258.566 656.39 233.885 656.39 207H630.39ZM617.19 262.8L595.875 247.913C590.509 255.595 583.734 260.422 574.692 262.988L581.79 288L588.889 313.012C609.447 307.178 626.272 295.205 638.506 277.687L617.19 262.8ZM581.79 288L575.007 262.901C563.195 266.093 546.974 268 525.69 268V294V320C549.607 320 570.786 317.907 588.574 313.099L581.79 288ZM525.69 294V268H465.69V294V320H525.69V294ZM465.69 294H491.69V123H465.69H439.69V294H465.69ZM465.69 123V149H525.69V123V97H465.69V123ZM565.89 253.2L584.275 271.585C590.415 265.445 592.889 257.822 594.04 253.625C595.426 248.568 596.288 242.926 596.861 237.187L570.99 234.6L545.119 232.013C544.914 234.068 544.689 235.755 544.463 237.113C544.234 238.489 544.027 239.378 543.891 239.875C543.742 240.419 543.758 240.196 544.09 239.499C544.268 239.125 544.589 238.505 545.099 237.737C545.607 236.973 546.385 235.936 547.506 234.815L565.89 253.2ZM570.99 234.6L596.861 237.187C597.931 226.488 598.49 216.412 598.49 207H572.49H546.49C546.49 214.388 546.05 222.712 545.119 232.013L570.99 234.6ZM572.49 207H598.49C598.49 195.438 597.653 184.554 595.266 175.303L570.09 181.8L544.915 188.297C545.728 191.446 546.49 197.362 546.49 207H572.49ZM570.09 181.8L595.49 176.244C593.261 166.055 588.695 156.135 580.675 148.115L562.29 166.5L543.906 184.885C543.756 184.735 543.784 184.704 543.927 184.984C544.084 185.293 544.399 186.021 544.691 187.356L570.09 181.8ZM562.29 166.5L581.529 149.011C568.219 134.369 548.804 130.6 531.39 130.6V156.6V182.6C536.875 182.6 540.266 183.237 542.133 183.835C543.862 184.389 543.709 184.712 543.052 183.989L562.29 166.5ZM531.39 156.6V130.6C527.754 130.6 523.041 130.865 517.696 131.277L519.69 157.2L521.685 183.123C526.74 182.735 529.827 182.6 531.39 182.6V156.6ZM519.69 157.2H493.69V256.8H519.69H545.69V157.2H519.69ZM519.69 256.8L516.653 282.622C521.652 283.21 528.227 283.4 535.59 283.4V257.4V231.4C528.554 231.4 524.529 231.19 522.728 230.978L519.69 256.8ZM535.59 257.4V283.4C543.647 283.4 551.107 283.076 557.86 282.352L555.09 256.5L552.321 230.648C547.874 231.124 542.334 231.4 535.59 231.4V257.4ZM555.09 256.5L558.643 282.256C562.25 281.759 566.101 281.052 569.738 279.94C572.561 279.077 578.915 276.944 584.275 271.585L565.89 253.2L547.506 234.815C549.761 232.56 551.87 231.404 552.8 230.939C553.828 230.425 554.499 230.223 554.543 230.21C554.58 230.198 553.731 230.441 551.538 230.744L555.09 256.5ZM763.262 256.5V230.5C762.626 230.5 761.99 230.523 761.356 230.57L763.262 256.5ZM773.162 255.9L798.891 252.153C796.911 238.557 784.695 228.849 771.003 229.99L773.162 255.9ZM777.662 286.8L788.674 310.353C799.064 305.495 805.044 294.403 803.391 283.053L777.662 286.8ZM664.562 280.2L646.647 299.042C646.698 299.091 646.749 299.139 646.8 299.187L664.562 280.2ZM650.762 192.9L625.763 185.757C625.723 185.895 625.685 186.034 625.648 186.173L650.762 192.9ZM661.562 169.5L642.755 151.548C642.609 151.7 642.466 151.854 642.324 152.011L661.562 169.5ZM684.962 158.1L691.989 183.132V183.132L684.962 158.1ZM759.362 162.9L744.295 184.089H744.295L759.362 162.9ZM777.062 189.6L751.813 195.802C751.821 195.836 751.83 195.871 751.839 195.906L777.062 189.6ZM781.262 234.9L782.789 260.855C796.532 260.047 807.262 248.666 807.262 234.9H781.262ZM698.762 236.1V210.1C684.403 210.1 672.762 221.741 672.762 236.1H698.762ZM702.662 250.5L682.483 266.895C682.683 267.141 682.887 267.383 683.095 267.621L702.662 250.5ZM714.362 256.8L709.263 282.295C709.593 282.361 709.923 282.42 710.255 282.473L714.362 256.8ZM701.762 189L713.39 212.255C713.694 212.103 713.995 211.945 714.292 211.782L701.762 189ZM699.062 196.8L724.844 200.163V200.163L699.062 196.8ZM697.862 212.4L671.878 211.504C671.635 218.551 674.264 225.394 679.163 230.465C684.063 235.536 690.811 238.4 697.862 238.4V212.4ZM733.862 212.1L735.099 238.071C748.962 237.41 759.862 225.979 759.862 212.1H733.862ZM729.662 191.7L707.863 205.87C708.025 206.119 708.192 206.366 708.362 206.61L729.662 191.7ZM735.362 258V284C741.452 284 751.659 283.423 765.169 282.43L763.262 256.5L761.356 230.57C747.665 231.577 739.273 232 735.362 232V258ZM763.262 256.5V282.5C766.291 282.5 770.608 282.203 775.322 281.81L773.162 255.9L771.003 229.99C768.719 230.18 766.903 230.313 765.514 230.398C764.823 230.439 764.283 230.466 763.875 230.482C763.673 230.49 763.52 230.495 763.41 230.497C763.298 230.5 763.252 230.5 763.262 230.5V256.5ZM773.162 255.9L747.434 259.647L751.934 290.547L777.662 286.8L803.391 283.053L798.891 252.153L773.162 255.9ZM777.662 286.8L766.651 263.247C755.884 268.281 740.029 271.6 717.662 271.6V297.6V323.6C744.496 323.6 768.641 319.719 788.674 310.353L777.662 286.8ZM717.662 297.6V271.6C698.88 271.6 688.414 266.909 682.324 261.213L664.562 280.2L646.8 299.187C665.511 316.691 690.445 323.6 717.662 323.6V297.6ZM664.562 280.2L682.478 261.358C677.194 256.333 672.262 246.826 672.262 227.7H646.262H620.262C620.262 255.374 627.531 280.867 646.647 299.042L664.562 280.2ZM646.262 227.7H672.262C672.262 217.892 673.485 208.557 675.877 199.627L650.762 192.9L625.648 186.173C622.04 199.643 620.262 213.508 620.262 227.7H646.262ZM650.762 192.9L675.762 200.043C677.115 195.308 678.386 191.892 679.469 189.546C680.607 187.081 681.185 186.567 680.801 186.989L661.562 169.5L642.324 152.011C634.116 161.039 629.203 173.717 625.763 185.757L650.762 192.9ZM661.562 169.5L680.37 187.452C679.638 188.219 679.739 187.801 681.95 186.724C684.047 185.702 687.288 184.452 691.989 183.132L684.962 158.1L677.936 133.068C665.567 136.54 652.004 141.859 642.755 151.548L661.562 169.5ZM684.962 158.1L691.989 183.132C701.233 180.538 710.17 179.3 718.862 179.3V153.3V127.3C705.155 127.3 691.492 129.262 677.936 133.068L684.962 158.1ZM718.862 153.3V179.3C734.569 179.3 741.687 182.234 744.295 184.089L759.362 162.9L774.43 141.711C759.038 130.766 739.156 127.3 718.862 127.3V153.3ZM759.362 162.9L744.295 184.089C747.877 186.636 750.398 190.043 751.813 195.802L777.062 189.6L802.312 183.398C798.126 166.357 788.848 151.964 774.43 141.711L759.362 162.9ZM777.062 189.6L751.839 195.906C753.9 204.15 755.262 216.849 755.262 234.9H781.262H807.262C807.262 214.951 805.825 197.45 802.286 183.294L777.062 189.6ZM781.262 234.9L779.736 208.945C766.62 209.716 753.829 210.1 741.362 210.1V236.1V262.1C754.895 262.1 768.705 261.684 782.789 260.855L781.262 234.9ZM741.362 236.1V210.1H698.762V236.1V262.1H741.362V236.1ZM698.762 236.1H672.762C672.762 245.349 674.533 257.11 682.483 266.895L702.662 250.5L722.841 234.105C724.255 235.845 724.725 237.304 724.833 237.703C724.926 238.047 724.762 237.625 724.762 236.1H698.762ZM702.662 250.5L683.095 267.621C690.372 275.937 699.804 280.403 709.263 282.295L714.362 256.8L719.461 231.305C719.113 231.235 719.384 231.244 720.014 231.583C720.687 231.945 721.496 232.54 722.229 233.379L702.662 250.5ZM714.362 256.8L710.255 282.473C717.27 283.596 725.868 284 735.362 284V258V232C726.856 232 721.455 231.604 718.47 231.127L714.362 256.8ZM701.762 189L690.135 165.745C679.604 171.011 676.296 180.936 675.618 182.895C674.331 186.613 673.677 190.403 673.281 193.437L699.062 196.8L724.844 200.163C725.048 198.597 725.144 198.787 724.757 199.905C724.557 200.481 723.961 202.101 722.656 204.09C721.414 205.982 718.58 209.66 713.39 212.255L701.762 189ZM699.062 196.8L673.281 193.437C672.551 199.028 672.099 205.074 671.878 211.504L697.862 212.4L723.847 213.296C724.025 208.126 724.373 203.772 724.844 200.163L699.062 196.8ZM697.862 212.4V238.4H713.462V212.4V186.4H697.862V212.4ZM713.462 212.4V238.4C722.899 238.4 730.232 238.302 735.099 238.071L733.862 212.1L732.626 186.129C729.092 186.298 722.825 186.4 713.462 186.4V212.4ZM733.862 212.1H759.862C759.862 201.481 758.605 187.708 750.962 176.79L729.662 191.7L708.362 206.61C707.672 205.623 707.361 204.889 707.268 204.649C707.174 204.407 707.234 204.498 707.346 205.043C707.586 206.204 707.862 208.445 707.862 212.1H733.862ZM729.662 191.7L751.462 177.53C742.346 163.506 727.557 159.7 715.862 159.7V185.7V211.7C716.668 211.7 715.724 211.839 713.895 211.044C711.771 210.12 709.489 208.372 707.863 205.87L729.662 191.7ZM715.862 185.7V159.7C706.884 159.7 697.718 161.551 689.232 166.218L701.762 189L714.292 211.782C714.101 211.887 714.037 211.882 714.212 211.841C714.406 211.795 714.925 211.7 715.862 211.7V185.7ZM893.819 285.6L879.137 264.142C879.078 264.182 879.019 264.223 878.96 264.264L893.819 285.6ZM795.419 291L769.548 288.413C768.236 301.524 776.941 313.543 789.807 316.387L795.419 291ZM798.119 273.9L772.676 268.544C772.64 268.718 772.605 268.892 772.572 269.067L798.119 273.9ZM802.019 256.5L806.293 230.854C792.922 228.625 780.083 237.043 776.795 250.194L802.019 256.5ZM826.019 259.5L823.665 285.393C823.86 285.411 824.055 285.426 824.25 285.44L826.019 259.5ZM858.419 259.5L870.046 282.755C872.546 281.505 874.827 279.861 876.803 277.885L858.419 259.5ZM859.019 258L834.878 248.344C834.442 249.435 834.08 250.554 833.795 251.694L859.019 258ZM852.119 246.9L859.129 221.863C858.895 221.797 858.66 221.735 858.424 221.676L852.119 246.9ZM833.819 241.8L826.738 266.817V266.817L833.819 241.8ZM807.719 225.6L787.663 242.146C787.813 242.328 787.965 242.508 788.12 242.686L807.719 225.6ZM802.019 175.2L777.622 166.212V166.212L802.019 175.2ZM811.019 160.8L824.799 182.848C825.015 182.713 825.229 182.575 825.441 182.433L811.019 160.8ZM828.419 156L832.873 181.616C833.053 181.584 833.232 181.551 833.411 181.516L828.419 156ZM904.019 156.9H930.019C930.019 143.961 920.504 132.991 907.695 131.161L904.019 156.9ZM902.519 175.2L928.336 178.274C928.339 178.25 928.342 178.227 928.345 178.203L902.519 175.2ZM899.819 191.1L896.482 216.885C908.553 218.447 920.093 211.425 924.253 199.985L899.819 191.1ZM848.219 188.7L839.089 164.355C838.238 164.675 837.404 165.038 836.591 165.445L848.219 188.7ZM847.019 190.5L870.274 202.127C870.596 201.483 870.891 200.825 871.159 200.156L847.019 190.5ZM849.119 199.8L865.081 179.277C864.581 178.888 864.068 178.518 863.541 178.167L849.119 199.8ZM863.219 204.9L870.435 179.921C870.236 179.864 870.036 179.809 869.835 179.756L863.219 204.9ZM886.319 213L875.897 236.82C875.986 236.859 876.075 236.897 876.164 236.935L886.319 213ZM903.419 225.6L883.678 242.521C883.792 242.654 883.907 242.786 884.024 242.916L903.419 225.6ZM910.919 247.2H884.919C884.919 259.183 881.442 262.565 879.137 264.142L893.819 285.6L908.5 307.058C928.995 293.035 936.919 270.817 936.919 247.2H910.919ZM893.819 285.6L878.96 264.264C873.858 267.817 863.913 271.3 845.819 271.3V297.3V323.3C869.324 323.3 891.379 318.983 908.677 306.936L893.819 285.6ZM845.819 297.3V271.3C833.61 271.3 818.756 269.531 801.03 265.613L795.419 291L789.807 316.387C810.081 320.869 828.827 323.3 845.819 323.3V297.3ZM795.419 291L821.29 293.587C821.575 290.729 822.307 285.911 823.665 278.733L798.119 273.9L772.572 269.067C771.13 276.689 770.062 283.271 769.548 288.413L795.419 291ZM798.119 273.9L823.561 279.256C825.141 271.749 826.362 266.327 827.242 262.806L802.019 256.5L776.795 250.194C775.675 254.673 774.296 260.851 772.676 268.544L798.119 273.9ZM802.019 256.5L797.744 282.146C805.697 283.472 814.35 284.546 823.665 285.393L826.019 259.5L828.372 233.607C820.087 232.854 812.74 231.928 806.293 230.854L802.019 256.5ZM826.019 259.5L824.25 285.44C833.415 286.065 841.54 286.4 848.519 286.4V260.4V234.4C843.097 234.4 836.222 234.135 827.787 233.56L826.019 259.5ZM848.519 260.4V286.4C851.582 286.4 854.634 286.319 857.397 286.068C858.885 285.933 864.564 285.496 870.046 282.755L858.419 259.5L846.791 236.245C848.302 235.489 849.562 235.062 850.3 234.837C851.081 234.6 851.686 234.467 852.026 234.399C852.671 234.27 852.959 234.257 852.69 234.282C852.472 234.302 852.021 234.334 851.279 234.359C850.551 234.384 849.637 234.4 848.519 234.4V260.4ZM858.419 259.5L876.803 277.885C880.741 273.947 882.42 269.73 882.859 268.631C883.56 266.879 883.99 265.315 884.242 264.306L859.019 258L833.795 251.694C833.847 251.485 834.077 250.571 834.578 249.319C834.836 248.673 835.288 247.63 835.994 246.394C836.648 245.251 837.92 243.229 840.034 241.115L858.419 259.5ZM859.019 258L883.159 267.656C884.692 263.823 885.619 259.555 885.619 255H859.619H833.619C833.619 252.445 834.145 250.176 834.878 248.344L859.019 258ZM859.619 255H885.619C885.619 247.071 882.926 238.904 876.821 232.31C871.23 226.271 864.444 223.351 859.129 221.863L852.119 246.9L845.108 271.937C844.794 271.849 841.757 270.979 838.666 267.64C835.061 263.746 833.619 258.929 833.619 255H859.619ZM852.119 246.9L858.424 221.676C858.427 221.677 858.392 221.668 858.311 221.647C858.233 221.627 858.128 221.599 857.992 221.563C857.72 221.491 857.365 221.395 856.916 221.272C856.018 221.028 854.826 220.698 853.323 220.279C850.323 219.443 846.186 218.279 840.899 216.783L833.819 241.8L826.738 266.817C837.074 269.743 843.712 271.598 845.813 272.124L852.119 246.9ZM833.819 241.8L840.899 216.783C834.824 215.063 830.584 212.263 827.317 208.514L807.719 225.6L788.12 242.686C798.453 254.537 811.613 262.537 826.738 266.817L833.819 241.8ZM807.719 225.6L827.774 209.054C825.542 206.348 823.819 202.542 823.819 195.9H797.819H771.819C771.819 212.858 776.695 228.852 787.663 242.146L807.719 225.6ZM797.819 195.9H823.819C823.819 193.546 824.368 189.745 826.415 184.188L802.019 175.2L777.622 166.212C774.069 175.855 771.819 185.854 771.819 195.9H797.819ZM802.019 175.2L826.415 184.188C826.907 182.855 827.342 181.82 827.707 181.041C828.076 180.253 828.324 179.829 828.417 179.68C828.517 179.518 828.358 179.807 827.869 180.343C827.383 180.875 826.39 181.853 824.799 182.848L811.019 160.8L797.239 138.752C791.039 142.627 786.957 147.902 784.321 152.12C781.568 156.525 779.398 161.389 777.622 166.212L802.019 175.2ZM811.019 160.8L825.441 182.433C824.597 182.996 823.927 183.347 823.562 183.526C823.181 183.714 822.945 183.807 822.908 183.821C822.864 183.838 823.205 183.706 824.083 183.464C825.859 182.974 828.704 182.341 832.873 181.616L828.419 156L823.964 130.384C818.933 131.259 814.278 132.226 810.254 133.336C806.933 134.252 801.461 135.924 796.596 139.167L811.019 160.8ZM828.419 156L833.411 181.516C841.284 179.976 848.09 179.3 853.919 179.3V153.3V127.3C844.148 127.3 833.953 128.424 823.426 130.484L828.419 156ZM853.919 153.3V179.3C869.261 179.3 884.732 180.409 900.342 182.639L904.019 156.9L907.695 131.161C889.705 128.591 871.776 127.3 853.919 127.3V153.3ZM904.019 156.9H878.019C878.019 158.838 877.692 163.599 876.693 172.197L902.519 175.2L928.345 178.203C929.345 169.601 930.019 162.162 930.019 156.9H904.019ZM902.519 175.2L876.701 172.126C876.227 176.111 875.81 179.065 875.461 181.122C875.286 182.148 875.156 182.787 875.081 183.121C874.977 183.577 875.051 183.13 875.384 182.215L899.819 191.1L924.253 199.985C925.528 196.479 926.263 192.561 926.727 189.828C927.277 186.585 927.811 182.689 928.336 178.274L902.519 175.2ZM899.819 191.1L903.155 165.315C885.659 163.051 870.715 161.8 858.719 161.8V187.8V213.8C867.522 213.8 879.978 214.749 896.482 216.885L899.819 191.1ZM858.719 187.8V161.8C855.625 161.8 852.592 161.883 849.823 162.12C847.65 162.306 843.397 162.74 839.089 164.355L848.219 188.7L857.348 213.045C856.456 213.379 855.737 213.581 855.285 213.695C854.818 213.813 854.474 213.879 854.293 213.911C853.956 213.97 853.908 213.961 854.264 213.93C854.592 213.902 855.125 213.868 855.901 213.841C856.668 213.816 857.602 213.8 858.719 213.8V187.8ZM848.219 188.7L836.591 165.445C830.584 168.448 827.314 172.885 825.985 174.878C824.428 177.214 823.454 179.405 822.878 180.844L847.019 190.5L871.159 200.156C870.984 200.595 870.409 201.986 869.252 203.722C868.323 205.115 865.453 209.152 859.846 211.955L848.219 188.7ZM847.019 190.5L823.763 178.872C820.822 184.755 820.419 190.418 820.419 193.8H846.419H872.419C872.419 194.289 872.388 195.265 872.149 196.576C871.913 197.873 871.41 199.854 870.274 202.127L847.019 190.5ZM846.419 193.8H820.419C820.419 202.428 823.566 214.013 834.696 221.433L849.119 199.8L863.541 178.167C866.764 180.316 869.278 183.341 870.804 186.731C872.219 189.877 872.419 192.502 872.419 193.8H846.419ZM849.119 199.8L833.156 220.323C837.538 223.731 842.546 225.633 845.15 226.575C848.521 227.794 852.422 228.944 856.602 230.044L863.219 204.9L869.835 179.756C866.415 178.856 864.166 178.156 862.837 177.675C862.179 177.437 862.021 177.351 862.205 177.439C862.31 177.489 862.61 177.635 863.044 177.889C863.458 178.131 864.189 178.583 865.081 179.277L849.119 199.8ZM863.219 204.9L856.003 229.879C864.253 232.262 870.822 234.599 875.897 236.82L886.319 213L896.74 189.18C889.016 185.801 880.185 182.738 870.435 179.921L863.219 204.9ZM886.319 213L876.164 236.935C878.962 238.122 881.412 239.877 883.678 242.521L903.419 225.6L923.159 208.679C915.826 200.123 906.875 193.478 896.473 189.065L886.319 213ZM903.419 225.6L884.024 242.916C884.053 242.948 884.919 243.622 884.919 247.2H910.919H936.919C936.919 233.178 932.784 219.452 922.813 208.284L903.419 225.6ZM991.832 248.7L965.864 249.998C965.865 250.021 965.867 250.044 965.868 250.067L991.832 248.7ZM1008.33 258V284C1008.59 284 1008.84 283.996 1009.1 283.989L1008.33 258ZM1018.53 257.7L1044.09 252.908C1041.73 240.327 1030.56 231.335 1017.77 231.711L1018.53 257.7ZM1021.23 291L1030.22 315.397C1040.44 311.631 1047.23 301.893 1047.23 291H1021.23ZM1004.43 294.9L1000.27 269.235C1000.23 269.241 1000.19 269.247 1000.16 269.254L1004.43 294.9ZM951.632 287.7L934.934 307.63C935.127 307.792 935.323 307.951 935.521 308.107L951.632 287.7ZM940.532 185.4H966.532C966.532 171.041 954.891 159.4 940.532 159.4V185.4ZM918.032 185.4H892.032C892.032 199.759 903.672 211.4 918.032 211.4V185.4ZM918.032 158.1L915.616 132.213C902.25 133.46 892.032 144.677 892.032 158.1H918.032ZM940.532 156L942.948 181.887C952.588 180.988 960.93 174.806 964.596 165.844L940.532 156ZM954.032 123L952.578 97.0406C942.564 97.6015 933.765 103.872 929.968 113.156L954.032 123ZM991.532 120.9H1017.53C1017.53 113.752 1014.59 106.919 1009.4 102.008C1004.2 97.0972 997.215 94.541 990.078 94.9407L991.532 120.9ZM991.532 156H965.532C965.532 170.359 977.172 182 991.532 182V156ZM1023.33 156H1049.33C1049.33 141.641 1037.69 130 1023.33 130V156ZM1023.33 185.4V211.4C1037.69 211.4 1049.33 199.759 1049.33 185.4H1023.33ZM991.532 185.4V159.4C977.172 159.4 965.532 171.041 965.532 185.4H991.532ZM991.532 237.3H965.532C965.532 241.378 965.645 245.613 965.864 249.998L991.832 248.7L1017.8 247.402C1017.62 243.787 1017.53 240.422 1017.53 237.3H991.532ZM991.832 248.7L965.868 250.067C966.014 252.846 966.349 256.219 967.208 259.656C967.905 262.443 969.761 268.798 975.247 274.285L993.632 255.9L1012.02 237.515C1014.46 239.957 1015.8 242.364 1016.48 243.817C1017.19 245.313 1017.52 246.487 1017.66 247.044C1017.91 248.081 1017.85 248.354 1017.8 247.333L991.832 248.7ZM993.632 255.9L975.247 274.285C979.763 278.8 984.768 280.702 987.116 281.485C989.912 282.417 992.583 282.914 994.68 283.214C998.898 283.816 1003.62 284 1008.33 284V258V232C1004.64 232 1002.72 231.834 1002.03 231.736C1001.68 231.686 1002.34 231.746 1003.56 232.153C1004.21 232.368 1005.31 232.779 1006.65 233.5C1007.95 234.203 1009.95 235.452 1012.02 237.515L993.632 255.9ZM1008.33 258L1009.1 283.989L1019.3 283.689L1018.53 257.7L1017.77 231.711L1007.57 232.011L1008.33 258ZM1018.53 257.7L992.977 262.492C994.41 270.134 995.232 279.572 995.232 291H1021.23H1047.23C1047.23 277.228 1046.25 264.466 1044.09 252.908L1018.53 257.7ZM1021.23 291L1012.24 266.603C1010.81 267.132 1007.16 268.118 1000.27 269.235L1004.43 294.9L1008.59 320.565C1016.5 319.282 1024.06 317.668 1030.22 315.397L1021.23 291ZM1004.43 294.9L1000.16 269.254C994.224 270.243 988.759 270.7 983.732 270.7V296.7V322.7C991.905 322.7 1000.24 321.957 1008.71 320.546L1004.43 294.9ZM983.732 296.7V270.7C973.354 270.7 969.157 268.41 967.743 267.293L951.632 287.7L935.521 308.107C949.306 318.99 966.51 322.7 983.732 322.7V296.7ZM951.632 287.7L968.33 267.77C968.171 267.638 967.889 267.4 967.534 266.489C967.113 265.407 966.532 263.165 966.532 259.2H940.532H914.532C914.532 277.021 919.858 294.998 934.934 307.63L951.632 287.7ZM940.532 259.2H966.532V185.4H940.532H914.532V259.2H940.532ZM940.532 185.4V159.4H918.032V185.4V211.4H940.532V185.4ZM918.032 185.4H944.032V158.1H918.032H892.032V185.4H918.032ZM918.032 158.1L920.448 183.987L942.948 181.887L940.532 156L938.116 130.113L915.616 132.213L918.032 158.1ZM940.532 156L964.596 165.844L978.096 132.844L954.032 123L929.968 113.156L916.468 146.156L940.532 156ZM954.032 123L955.486 148.959L992.986 146.859L991.532 120.9L990.078 94.9407L952.578 97.0406L954.032 123ZM991.532 120.9H965.532V156H991.532H1017.53V120.9H991.532ZM991.532 156V182H1023.33V156V130H991.532V156ZM1023.33 156H997.332V185.4H1023.33H1049.33V156H1023.33ZM1023.33 185.4V159.4H991.532V185.4V211.4H1023.33V185.4ZM991.532 185.4H965.532V237.3H991.532H1017.53V185.4H991.532ZM1120.87 294L1095.67 300.4C1098.6 311.928 1108.98 320 1120.87 320V294ZM1116.07 275.1L1141.27 268.7C1138.7 258.569 1130.31 250.964 1119.98 249.395C1109.64 247.825 1099.38 252.597 1093.91 261.506L1116.07 275.1ZM1044.67 286.5L1027.23 305.78C1027.39 305.925 1027.55 306.068 1027.72 306.208L1044.67 286.5ZM1039.27 232.8L1018.79 216.793C1018.76 216.823 1018.74 216.853 1018.72 216.883L1039.27 232.8ZM1059.67 219.3L1052.53 194.3C1052.4 194.337 1052.28 194.374 1052.15 194.413L1059.67 219.3ZM1111.57 213.9L1112.02 239.896C1126.2 239.654 1137.57 228.086 1137.57 213.9H1111.57ZM1109.77 192.9L1093.53 213.203C1094.12 213.672 1094.73 214.116 1095.35 214.533L1109.77 192.9ZM1086.07 192.3L1087.16 218.277C1087.37 218.268 1087.59 218.257 1087.8 218.242L1086.07 192.3ZM1047.07 195.6L1021.35 199.41C1023.4 213.237 1036.02 222.97 1049.91 221.445L1047.07 195.6ZM1043.47 160.8L1038.19 135.343C1025.51 137.975 1016.69 149.545 1017.53 162.474L1043.47 160.8ZM1076.77 155.4L1079.89 181.213C1080.04 181.195 1080.18 181.176 1080.33 181.156L1076.77 155.4ZM1143.97 161.1L1129.43 182.65C1129.55 182.734 1129.68 182.817 1129.8 182.9L1143.97 161.1ZM1159.57 181.8L1184.62 174.811V174.811L1159.57 181.8ZM1162.87 214.5L1136.88 214.106C1136.88 214.178 1136.88 214.251 1136.87 214.323L1162.87 214.5ZM1162.57 258.6L1136.57 258.423C1136.57 258.702 1136.58 258.982 1136.58 259.261L1162.57 258.6ZM1163.47 294V320C1170.48 320 1177.2 317.169 1182.09 312.15C1186.98 307.13 1189.64 300.347 1189.47 293.339L1163.47 294ZM1111.57 261L1120.05 285.58C1130.54 281.964 1137.57 272.093 1137.57 261H1111.57ZM1111.57 238.8H1137.57C1137.57 224.441 1125.93 212.8 1111.57 212.8V238.8ZM1084.57 241.2L1066.19 222.815L1066.19 222.815L1084.57 241.2ZM1082.17 245.7L1057.27 238.229C1057.04 239.01 1056.84 239.801 1056.68 240.601L1082.17 245.7ZM1084.87 261.3L1068.41 281.423V281.423L1084.87 261.3ZM1120.87 294L1146.07 287.6L1141.27 268.7L1116.07 275.1L1090.87 281.5L1095.67 300.4L1120.87 294ZM1116.07 275.1L1093.91 261.506C1089.02 269.477 1084.26 271.6 1077.67 271.6V297.6V323.6C1103.89 323.6 1124.73 310.723 1138.24 288.694L1116.07 275.1ZM1077.67 297.6V271.6C1069.31 271.6 1064.69 269.421 1061.63 266.792L1044.67 286.5L1027.72 306.208C1041.86 318.379 1059.24 323.6 1077.67 323.6V297.6ZM1044.67 286.5L1062.12 267.22C1060.25 265.531 1058.07 262.556 1058.07 254.7H1032.07H1006.07C1006.07 274.044 1012.3 292.269 1027.23 305.78L1044.67 286.5ZM1032.07 254.7H1058.07C1058.07 251.623 1058.82 250.025 1059.83 248.716L1039.27 232.8L1018.72 216.883C1010.13 227.975 1006.07 240.977 1006.07 254.7H1032.07ZM1039.27 232.8L1059.76 248.807C1061.11 247.08 1063.16 245.408 1067.2 244.188L1059.67 219.3L1052.15 194.413C1038.99 198.392 1027.44 205.72 1018.79 216.793L1039.27 232.8ZM1059.67 219.3L1066.82 244.3C1074.61 242.074 1089.09 240.288 1112.02 239.896L1111.57 213.9L1111.13 187.904C1087.26 188.312 1067.14 190.126 1052.53 194.3L1059.67 219.3ZM1111.57 213.9H1137.57C1137.57 207.081 1137.43 201.151 1137.03 196.53C1136.84 194.323 1136.53 191.552 1135.9 188.816C1135.59 187.487 1135.02 185.307 1133.93 182.884C1133.16 181.159 1130.52 175.485 1124.2 171.267L1109.77 192.9L1095.35 214.533C1092.08 212.351 1090.01 209.877 1088.83 208.235C1087.63 206.547 1086.88 205.051 1086.46 204.097C1085.64 202.262 1085.31 200.863 1085.23 200.509C1085.05 199.723 1085.11 199.677 1085.22 200.97C1085.42 203.349 1085.57 207.519 1085.57 213.9H1111.57ZM1109.77 192.9L1126.02 172.597C1121.82 169.239 1117.58 167.898 1115.75 167.375C1113.5 166.731 1111.41 166.396 1109.85 166.201C1106.71 165.808 1103.34 165.7 1100.17 165.7V191.7V217.7C1101.22 217.7 1102.02 217.72 1102.6 217.747C1103.21 217.775 1103.45 217.805 1103.4 217.799C1103.36 217.795 1103.19 217.772 1102.9 217.718C1102.62 217.666 1102.12 217.562 1101.47 217.375C1100.84 217.194 1099.82 216.87 1098.59 216.314C1097.41 215.78 1095.55 214.821 1093.53 213.203L1109.77 192.9ZM1100.17 191.7V165.7C1095.92 165.7 1090.56 165.943 1084.34 166.358L1086.07 192.3L1087.8 218.242C1093.59 217.857 1097.63 217.7 1100.17 217.7V191.7ZM1086.07 192.3L1084.99 166.323C1074.54 166.758 1060.87 167.929 1044.24 169.755L1047.07 195.6L1049.91 221.445C1066.08 219.671 1078.41 218.642 1087.16 218.277L1086.07 192.3ZM1047.07 195.6L1072.79 191.79C1071.31 181.787 1070.18 170.907 1069.42 159.126L1043.47 160.8L1017.53 162.474C1018.37 175.493 1019.64 187.813 1021.35 199.41L1047.07 195.6ZM1043.47 160.8L1048.76 186.257C1058.59 184.218 1068.96 182.532 1079.89 181.213L1076.77 155.4L1073.66 129.587C1061.39 131.068 1049.56 132.982 1038.19 135.343L1043.47 160.8ZM1076.77 155.4L1080.33 181.156C1091.05 179.677 1100.23 179 1107.97 179V153V127C1097.32 127 1085.7 127.923 1073.22 129.644L1076.77 155.4ZM1107.97 153V179C1121.86 179 1127.71 181.492 1129.43 182.65L1143.97 161.1L1158.52 139.55C1144.24 129.908 1126.08 127 1107.97 127V153ZM1143.97 161.1L1129.8 182.9C1132.89 184.908 1133.95 186.724 1134.53 188.789L1159.57 181.8L1184.62 174.811C1180.39 159.676 1171.05 147.692 1158.14 139.3L1143.97 161.1ZM1159.57 181.8L1134.53 188.789C1136.02 194.135 1137.06 202.328 1136.88 214.106L1162.87 214.5L1188.87 214.894C1189.09 200.272 1187.93 186.665 1184.62 174.811L1159.57 181.8ZM1162.87 214.5L1136.87 214.323L1136.57 258.423L1162.57 258.6L1188.57 258.777L1188.87 214.677L1162.87 214.5ZM1162.57 258.6L1136.58 259.261L1137.48 294.661L1163.47 294L1189.47 293.339L1188.57 257.939L1162.57 258.6ZM1163.47 294V268H1120.87V294V320H1163.47V294ZM1095.07 264V290C1103.62 290 1112 288.355 1120.05 285.58L1111.57 261L1103.1 236.42C1099.55 237.645 1096.92 238 1095.07 238V264ZM1111.57 261H1137.57V238.8H1111.57H1085.57V261H1111.57ZM1111.57 238.8V212.8H1109.17V238.8V264.8H1111.57V238.8ZM1109.17 238.8V212.8C1101.48 212.8 1094.75 213.001 1089.4 213.523C1086.78 213.778 1083.77 214.176 1080.83 214.896C1079.39 215.249 1072.13 216.871 1066.19 222.815L1084.57 241.2L1102.96 259.585C1101.33 261.216 1099.77 262.318 1098.63 263.021C1097.47 263.736 1096.47 264.214 1095.77 264.516C1094.42 265.097 1093.45 265.342 1093.2 265.404C1092.71 265.524 1092.97 265.422 1094.45 265.277C1097.3 264.999 1102.07 264.8 1109.17 264.8V238.8ZM1084.57 241.2L1066.19 222.815C1061.04 227.965 1058.56 233.926 1057.27 238.229L1082.17 245.7L1107.08 253.171C1106.99 253.462 1106.73 254.244 1106.17 255.31C1105.59 256.382 1104.6 257.948 1102.96 259.585L1084.57 241.2ZM1082.17 245.7L1056.68 240.601C1055.99 244.062 1055.57 247.679 1055.57 251.4H1081.57H1107.57C1107.57 251.521 1107.56 251.338 1107.67 250.799L1082.17 245.7ZM1081.57 251.4H1055.57C1055.57 258.786 1057.05 272.131 1068.41 281.423L1084.87 261.3L1101.34 241.177C1104.81 244.021 1106.41 247.287 1107.06 249.253C1107.66 251.048 1107.57 251.988 1107.57 251.4H1081.57ZM1084.87 261.3L1068.41 281.423C1077.37 288.751 1087.93 290 1095.07 290V264V238C1094.37 238 1094.71 237.921 1095.73 238.191C1096.79 238.471 1098.97 239.236 1101.34 241.177L1084.87 261.3ZM1323.14 162.3H1349.14C1349.14 150.489 1341.18 140.162 1329.75 137.156L1323.14 162.3ZM1323.14 336L1324.2 361.978C1338.13 361.408 1349.14 349.946 1349.14 336H1323.14ZM1271.84 338.1H1245.84C1245.84 345.18 1248.72 351.954 1253.83 356.857C1258.94 361.76 1265.83 364.368 1272.9 364.078L1271.84 338.1ZM1276.34 271.8L1301.28 279.136C1304.49 268.218 1300.23 256.48 1290.76 250.167L1276.34 271.8ZM1275.44 271.2L1289.86 249.567C1283.82 245.539 1276.37 244.221 1269.31 245.932C1262.26 247.643 1256.24 252.226 1252.71 258.573L1275.44 271.2ZM1255.94 290.4L1266.61 314.11C1266.77 314.037 1266.93 313.962 1267.09 313.885L1255.94 290.4ZM1195.64 279.3L1175.9 296.221C1175.95 296.279 1176 296.338 1176.05 296.396L1195.64 279.3ZM1186.94 188.1L1211.76 195.832V195.832L1186.94 188.1ZM1200.74 164.4L1186.49 142.652C1186.43 142.69 1186.37 142.728 1186.32 142.767L1200.74 164.4ZM1224.44 156L1229.04 181.589V181.589L1224.44 156ZM1271.84 251.4L1278.88 276.429C1290.09 273.275 1297.84 263.048 1297.84 251.4H1271.84ZM1271.84 188.7H1297.84C1297.84 175.99 1288.65 165.143 1276.11 163.054L1271.84 188.7ZM1261.04 187.5L1258.17 213.341C1258.4 213.367 1258.64 213.39 1258.88 213.41L1261.04 187.5ZM1239.74 189.6L1261.61 203.66C1261.67 203.567 1261.73 203.474 1261.79 203.38L1239.74 189.6ZM1235.54 204.9L1261.28 208.577C1261.29 208.512 1261.29 208.447 1261.3 208.382L1235.54 204.9ZM1256.84 153.3V179.3C1275.79 179.3 1295.66 181.955 1316.52 187.444L1323.14 162.3L1329.75 137.156C1305.01 130.645 1280.68 127.3 1256.84 127.3V153.3ZM1323.14 162.3H1297.14V336H1323.14H1349.14V162.3H1323.14ZM1323.14 336L1322.07 310.022L1270.77 312.122L1271.84 338.1L1272.9 364.078L1324.2 361.978L1323.14 336ZM1271.84 338.1H1297.84V298.5H1271.84H1245.84V338.1H1271.84ZM1271.84 298.5H1297.84C1297.84 294.152 1298.73 287.825 1301.28 279.136L1276.34 271.8L1251.39 264.464C1247.95 276.175 1245.84 287.648 1245.84 298.5H1271.84ZM1276.34 271.8L1290.76 250.167L1289.86 249.567L1275.44 271.2L1261.02 292.833L1261.92 293.433L1276.34 271.8ZM1275.44 271.2L1252.71 258.573C1249.9 263.631 1247.13 265.802 1244.78 266.915L1255.94 290.4L1267.09 313.885C1280.75 307.398 1290.98 296.769 1298.17 283.827L1275.44 271.2ZM1255.94 290.4L1245.27 266.69C1239.8 269.151 1235.95 269.8 1233.44 269.8V295.8V321.8C1244.92 321.8 1256.08 318.849 1266.61 314.11L1255.94 290.4ZM1233.44 295.8V269.8C1224.76 269.8 1219.52 267.122 1215.23 262.204L1195.64 279.3L1176.05 296.396C1190.96 313.478 1210.91 321.8 1233.44 321.8V295.8ZM1195.64 279.3L1215.38 262.379C1211.46 257.804 1207.24 248.189 1207.24 228.9H1181.24H1155.24C1155.24 254.411 1160.62 278.396 1175.9 296.221L1195.64 279.3ZM1181.24 228.9H1207.24C1207.24 216.078 1208.86 205.138 1211.76 195.832L1186.94 188.1L1162.11 180.368C1157.41 195.462 1155.24 211.722 1155.24 228.9H1181.24ZM1186.94 188.1L1211.76 195.832C1213.29 190.922 1214.69 187.85 1215.71 186.108C1216.77 184.274 1216.82 184.924 1215.16 186.033L1200.74 164.4L1186.32 142.767C1173.02 151.633 1166.23 167.167 1162.11 180.368L1186.94 188.1ZM1200.74 164.4L1214.99 186.148C1216.83 184.938 1221.02 183.033 1229.04 181.589L1224.44 156L1219.83 130.411C1207.86 132.567 1196.24 136.262 1186.49 142.652L1200.74 164.4ZM1224.44 156L1229.04 181.589C1237.33 180.098 1246.57 179.3 1256.84 179.3V153.3V127.3C1243.91 127.3 1231.55 128.302 1219.83 130.411L1224.44 156ZM1255.04 254.1V280.1C1262.93 280.1 1271 278.645 1278.88 276.429L1271.84 251.4L1264.8 226.371C1259.88 227.755 1256.74 228.1 1255.04 228.1V254.1ZM1271.84 251.4H1297.84V188.7H1271.84H1245.84V251.4H1271.84ZM1271.84 188.7L1276.11 163.054C1272.62 162.473 1268.16 162.004 1263.2 161.59L1261.04 187.5L1258.88 213.41C1263.51 213.796 1266.25 214.127 1267.56 214.346L1271.84 188.7ZM1261.04 187.5L1263.91 161.659C1260.63 161.294 1256.76 161.2 1252.94 161.2V187.2V213.2C1254.51 213.2 1255.76 213.222 1256.7 213.257C1257.17 213.274 1257.53 213.294 1257.79 213.311C1258.06 213.329 1258.17 213.342 1258.17 213.341L1261.04 187.5ZM1252.94 187.2V161.2C1248.44 161.2 1243.59 161.409 1239.14 162.219C1236.93 162.621 1233.83 163.339 1230.57 164.791C1227.63 166.096 1221.84 169.18 1217.69 175.82L1239.74 189.6L1261.79 203.38C1258.14 209.22 1253.27 211.604 1251.68 212.309C1249.77 213.161 1248.45 213.379 1248.44 213.381C1248.38 213.391 1249.63 213.2 1252.94 213.2V187.2ZM1239.74 189.6L1217.87 175.54C1212.69 183.588 1210.8 193.806 1209.77 201.418L1235.54 204.9L1261.3 208.382C1261.71 205.403 1262.11 203.491 1262.41 202.408C1262.55 201.888 1262.62 201.749 1262.56 201.892C1262.51 202.01 1262.24 202.683 1261.61 203.66L1239.74 189.6ZM1235.54 204.9L1209.8 201.223C1208.64 209.355 1208.04 217.386 1208.04 225.3H1234.04H1260.04C1260.04 220.014 1260.44 214.445 1261.28 208.577L1235.54 204.9ZM1234.04 225.3H1208.04C1208.04 237.112 1209.69 251.912 1218.56 263.398L1239.14 247.5L1259.71 231.602C1260.99 233.255 1260.95 234.128 1260.65 232.829C1260.37 231.593 1260.04 229.206 1260.04 225.3H1234.04ZM1239.14 247.5L1218.56 263.398C1228.28 275.97 1242.37 280.1 1255.04 280.1V254.1V228.1C1254.02 228.1 1254.43 227.937 1255.63 228.437C1257.02 229.014 1258.55 230.102 1259.71 231.602L1239.14 247.5ZM1485.46 156H1511.46C1511.46 141.641 1499.82 130 1485.46 130V156ZM1485.46 294V320C1499.82 320 1511.46 308.359 1511.46 294H1485.46ZM1443.76 294L1418.52 300.229C1421.39 311.841 1431.8 320 1443.76 320V294ZM1438.06 270.9L1463.31 264.671C1460.95 255.137 1453.43 247.742 1443.86 245.554C1434.28 243.366 1424.29 246.758 1418.03 254.323L1438.06 270.9ZM1366.06 294L1358.08 318.744C1358.16 318.769 1358.23 318.793 1358.31 318.816L1366.06 294ZM1351.96 285.3L1331.84 301.764C1331.92 301.859 1332 301.954 1332.08 302.048L1351.96 285.3ZM1347.76 268.8L1321.87 271.154C1321.89 271.348 1321.91 271.542 1321.93 271.736L1347.76 268.8ZM1346.56 156V130C1332.2 130 1320.56 141.641 1320.56 156H1346.56ZM1397.86 156H1423.86C1423.86 141.641 1412.22 130 1397.86 130V156ZM1399.96 252.3L1421.26 237.39C1421.22 237.322 1421.17 237.255 1421.12 237.188L1399.96 252.3ZM1411.96 255.3V281.3C1412.5 281.3 1413.04 281.283 1413.58 281.249L1411.96 255.3ZM1416.76 255L1415.84 229.017C1415.6 229.025 1415.37 229.036 1415.14 229.051L1416.76 255ZM1434.16 251.1L1443.82 275.24C1453.69 271.292 1460.16 261.732 1460.16 251.1H1434.16ZM1434.16 156V130C1419.8 130 1408.16 141.641 1408.16 156H1434.16ZM1485.46 156H1459.46V294H1485.46H1511.46V156H1485.46ZM1485.46 294V268H1443.76V294V320H1485.46V294ZM1443.76 294L1469.01 287.771L1463.31 264.671L1438.06 270.9L1412.82 277.129L1418.52 300.229L1443.76 294ZM1438.06 270.9L1418.03 254.323C1407.85 266.623 1397.66 271 1386.46 271V297V323C1415.27 323 1439.47 309.977 1458.09 287.477L1438.06 270.9ZM1386.46 297V271C1381.7 271 1377.53 270.343 1373.82 269.184L1366.06 294L1358.31 318.816C1367.4 321.657 1376.83 323 1386.46 323V297ZM1366.06 294L1374.05 269.256C1371.07 268.296 1371.07 267.63 1371.85 268.552L1351.96 285.3L1332.08 302.048C1339.25 310.57 1348.66 315.704 1358.08 318.744L1366.06 294ZM1351.96 285.3L1372.09 268.836C1373 269.948 1373.6 270.923 1373.97 271.582C1374.35 272.253 1374.58 272.771 1374.7 273.053C1374.91 273.577 1374.9 273.673 1374.76 273.111C1374.63 272.593 1374.44 271.74 1374.23 270.478C1374.02 269.231 1373.81 267.703 1373.6 265.864L1347.76 268.8L1321.93 271.736C1322.5 276.737 1323.26 281.598 1324.37 285.939C1325.25 289.418 1327.16 296.039 1331.84 301.764L1351.96 285.3ZM1347.76 268.8L1373.66 266.446C1372.97 258.873 1372.56 246.443 1372.56 228.6H1346.56H1320.56C1320.56 246.757 1320.96 261.127 1321.87 271.154L1347.76 268.8ZM1346.56 228.6H1372.56V156H1346.56H1320.56V228.6H1346.56ZM1346.56 156V182H1397.86V156V130H1346.56V156ZM1397.86 156H1371.86V228H1397.86H1423.86V156H1397.86ZM1397.86 228H1371.86C1371.86 232.41 1371.97 237.445 1372.18 243.062L1398.16 242.1L1424.15 241.138C1423.95 235.955 1423.86 231.59 1423.86 228H1397.86ZM1398.16 242.1L1372.18 243.062C1372.3 246.37 1372.57 249.881 1373.16 253.218C1373.59 255.647 1374.75 261.735 1378.81 267.412L1399.96 252.3L1421.12 237.188C1422.06 238.508 1422.7 239.689 1423.1 240.551C1423.52 241.425 1423.79 242.153 1423.95 242.653C1424.12 243.162 1424.23 243.55 1424.28 243.781C1424.34 244.016 1424.36 244.156 1424.37 244.182C1424.37 244.214 1424.33 243.985 1424.28 243.421C1424.23 242.872 1424.18 242.121 1424.15 241.138L1398.16 242.1ZM1399.96 252.3L1378.66 267.21C1384.72 275.861 1393.49 278.719 1397.71 279.774C1402.62 281.002 1407.64 281.3 1411.96 281.3V255.3V229.3C1409.68 229.3 1409.4 229.098 1410.32 229.326C1410.84 229.456 1412.28 229.857 1414.13 230.884C1416.01 231.931 1418.83 233.92 1421.26 237.39L1399.96 252.3ZM1411.96 255.3L1413.58 281.249L1418.38 280.949L1416.76 255L1415.14 229.051L1410.34 229.351L1411.96 255.3ZM1416.76 255L1417.69 280.983C1426.71 280.661 1435.46 278.585 1443.82 275.24L1434.16 251.1L1424.51 226.96C1420.87 228.415 1418.02 228.938 1415.84 229.017L1416.76 255ZM1434.16 251.1H1460.16V156H1434.16H1408.16V251.1H1434.16ZM1434.16 156V182H1485.46V156V130H1434.16V156ZM1621.66 256.5V230.5C1621.02 230.5 1620.39 230.523 1619.75 230.57L1621.66 256.5ZM1631.56 255.9L1657.29 252.153C1655.31 238.557 1643.09 228.849 1629.4 229.99L1631.56 255.9ZM1636.06 286.8L1647.07 310.353C1657.46 305.495 1663.44 294.403 1661.79 283.053L1636.06 286.8ZM1522.96 280.2L1505.05 299.042C1505.1 299.091 1505.15 299.139 1505.2 299.187L1522.96 280.2ZM1509.16 192.9L1484.16 185.757C1484.12 185.895 1484.08 186.034 1484.05 186.173L1509.16 192.9ZM1519.96 169.5L1501.15 151.548C1501.01 151.7 1500.86 151.854 1500.72 152.011L1519.96 169.5ZM1543.36 158.1L1550.39 183.132V183.132L1543.36 158.1ZM1617.76 162.9L1602.69 184.089V184.089L1617.76 162.9ZM1635.46 189.6L1610.21 195.802C1610.22 195.836 1610.23 195.871 1610.24 195.906L1635.46 189.6ZM1639.66 234.9L1641.19 260.855C1654.93 260.047 1665.66 248.666 1665.66 234.9H1639.66ZM1557.16 236.1V210.1C1542.8 210.1 1531.16 221.741 1531.16 236.1H1557.16ZM1561.06 250.5L1540.88 266.895C1541.08 267.141 1541.29 267.383 1541.49 267.621L1561.06 250.5ZM1572.76 256.8L1567.66 282.295C1567.99 282.361 1568.32 282.42 1568.65 282.473L1572.76 256.8ZM1560.16 189L1571.79 212.255C1572.09 212.103 1572.39 211.945 1572.69 211.782L1560.16 189ZM1557.46 196.8L1583.24 200.163V200.163L1557.46 196.8ZM1556.26 212.4L1530.28 211.504C1530.03 218.551 1532.66 225.394 1537.56 230.465C1542.46 235.536 1549.21 238.4 1556.26 238.4V212.4ZM1592.26 212.1L1593.5 238.071C1607.36 237.41 1618.26 225.979 1618.26 212.1H1592.26ZM1588.06 191.7L1566.26 205.87C1566.42 206.119 1566.59 206.366 1566.76 206.61L1588.06 191.7ZM1593.76 258V284C1599.85 284 1610.06 283.423 1623.57 282.43L1621.66 256.5L1619.75 230.57C1606.06 231.577 1597.67 232 1593.76 232V258ZM1621.66 256.5V282.5C1624.69 282.5 1629.01 282.203 1633.72 281.81L1631.56 255.9L1629.4 229.99C1627.12 230.18 1625.3 230.313 1623.91 230.398C1623.22 230.439 1622.68 230.466 1622.27 230.482C1622.07 230.49 1621.92 230.495 1621.81 230.497C1621.7 230.5 1621.65 230.5 1621.66 230.5V256.5ZM1631.56 255.9L1605.83 259.647L1610.33 290.547L1636.06 286.8L1661.79 283.053L1657.29 252.153L1631.56 255.9ZM1636.06 286.8L1625.05 263.247C1614.28 268.281 1598.43 271.6 1576.06 271.6V297.6V323.6C1602.89 323.6 1627.04 319.719 1647.07 310.353L1636.06 286.8ZM1576.06 297.6V271.6C1557.28 271.6 1546.81 266.909 1540.72 261.213L1522.96 280.2L1505.2 299.187C1523.91 316.691 1548.84 323.6 1576.06 323.6V297.6ZM1522.96 280.2L1540.88 261.358C1535.59 256.333 1530.66 246.826 1530.66 227.7H1504.66H1478.66C1478.66 255.374 1485.93 280.867 1505.05 299.042L1522.96 280.2ZM1504.66 227.7H1530.66C1530.66 217.892 1531.88 208.557 1534.28 199.627L1509.16 192.9L1484.05 186.173C1480.44 199.643 1478.66 213.508 1478.66 227.7H1504.66ZM1509.16 192.9L1534.16 200.043C1535.51 195.308 1536.78 191.892 1537.87 189.546C1539.01 187.081 1539.58 186.567 1539.2 186.989L1519.96 169.5L1500.72 152.011C1492.51 161.039 1487.6 173.717 1484.16 185.757L1509.16 192.9ZM1519.96 169.5L1538.77 187.452C1538.04 188.219 1538.14 187.801 1540.35 186.724C1542.45 185.702 1545.69 184.452 1550.39 183.132L1543.36 158.1L1536.33 133.068C1523.96 136.54 1510.4 141.859 1501.15 151.548L1519.96 169.5ZM1543.36 158.1L1550.39 183.132C1559.63 180.538 1568.57 179.3 1577.26 179.3V153.3V127.3C1563.55 127.3 1549.89 129.262 1536.33 133.068L1543.36 158.1ZM1577.26 153.3V179.3C1592.97 179.3 1600.09 182.234 1602.69 184.089L1617.76 162.9L1632.83 141.711C1617.44 130.766 1597.55 127.3 1577.26 127.3V153.3ZM1617.76 162.9L1602.69 184.089C1606.28 186.636 1608.8 190.043 1610.21 195.802L1635.46 189.6L1660.71 183.398C1656.52 166.357 1647.25 151.964 1632.83 141.711L1617.76 162.9ZM1635.46 189.6L1610.24 195.906C1612.3 204.15 1613.66 216.849 1613.66 234.9H1639.66H1665.66C1665.66 214.951 1664.22 197.45 1660.68 183.294L1635.46 189.6ZM1639.66 234.9L1638.13 208.945C1625.02 209.716 1612.23 210.1 1599.76 210.1V236.1V262.1C1613.29 262.1 1627.1 261.684 1641.19 260.855L1639.66 234.9ZM1599.76 236.1V210.1H1557.16V236.1V262.1H1599.76V236.1ZM1557.16 236.1H1531.16C1531.16 245.349 1532.93 257.11 1540.88 266.895L1561.06 250.5L1581.24 234.105C1582.65 235.845 1583.12 237.304 1583.23 237.703C1583.32 238.047 1583.16 237.625 1583.16 236.1H1557.16ZM1561.06 250.5L1541.49 267.621C1548.77 275.937 1558.2 280.403 1567.66 282.295L1572.76 256.8L1577.86 231.305C1577.51 231.235 1577.78 231.244 1578.41 231.583C1579.09 231.945 1579.89 232.54 1580.63 233.379L1561.06 250.5ZM1572.76 256.8L1568.65 282.473C1575.67 283.596 1584.27 284 1593.76 284V258V232C1585.25 232 1579.85 231.604 1576.87 231.127L1572.76 256.8ZM1560.16 189L1548.53 165.745C1538 171.011 1534.69 180.936 1534.02 182.895C1532.73 186.613 1532.07 190.403 1531.68 193.437L1557.46 196.8L1583.24 200.163C1583.45 198.597 1583.54 198.787 1583.16 199.905C1582.96 200.481 1582.36 202.101 1581.05 204.09C1579.81 205.982 1576.98 209.66 1571.79 212.255L1560.16 189ZM1557.46 196.8L1531.68 193.437C1530.95 199.028 1530.5 205.074 1530.28 211.504L1556.26 212.4L1582.25 213.296C1582.42 208.126 1582.77 203.772 1583.24 200.163L1557.46 196.8ZM1556.26 212.4V238.4H1571.86V212.4V186.4H1556.26V212.4ZM1571.86 212.4V238.4C1581.3 238.4 1588.63 238.302 1593.5 238.071L1592.26 212.1L1591.02 186.129C1587.49 186.298 1581.22 186.4 1571.86 186.4V212.4ZM1592.26 212.1H1618.26C1618.26 201.481 1617 187.708 1609.36 176.79L1588.06 191.7L1566.76 206.61C1566.07 205.623 1565.76 204.889 1565.67 204.649C1565.57 204.407 1565.63 204.498 1565.74 205.043C1565.98 206.204 1566.26 208.445 1566.26 212.1H1592.26ZM1588.06 191.7L1609.86 177.53C1600.74 163.506 1585.96 159.7 1574.26 159.7V185.7V211.7C1575.07 211.7 1574.12 211.839 1572.29 211.044C1570.17 210.12 1567.89 208.372 1566.26 205.87L1588.06 191.7ZM1574.26 185.7V159.7C1565.28 159.7 1556.12 161.551 1547.63 166.218L1560.16 189L1572.69 211.782C1572.5 211.887 1572.44 211.882 1572.61 211.841C1572.8 211.795 1573.32 211.7 1574.26 211.7V185.7ZM1752.22 285.6L1737.54 264.142C1737.48 264.182 1737.42 264.223 1737.36 264.264L1752.22 285.6ZM1653.82 291L1627.95 288.413C1626.63 301.524 1635.34 313.543 1648.21 316.387L1653.82 291ZM1656.52 273.9L1631.07 268.544C1631.04 268.718 1631 268.892 1630.97 269.067L1656.52 273.9ZM1660.42 256.5L1664.69 230.854C1651.32 228.625 1638.48 237.043 1635.19 250.194L1660.42 256.5ZM1684.42 259.5L1682.06 285.393C1682.26 285.411 1682.45 285.426 1682.65 285.44L1684.42 259.5ZM1716.82 259.5L1728.44 282.755C1730.94 281.505 1733.23 279.861 1735.2 277.885L1716.82 259.5ZM1717.42 258L1693.28 248.344C1692.84 249.435 1692.48 250.554 1692.19 251.694L1717.42 258ZM1710.52 246.9L1717.53 221.863C1717.29 221.797 1717.06 221.735 1716.82 221.676L1710.52 246.9ZM1692.22 241.8L1685.14 266.817V266.817L1692.22 241.8ZM1666.12 225.6L1646.06 242.146C1646.21 242.328 1646.36 242.508 1646.52 242.686L1666.12 225.6ZM1660.42 175.2L1636.02 166.212V166.212L1660.42 175.2ZM1669.42 160.8L1683.2 182.848C1683.41 182.713 1683.63 182.575 1683.84 182.433L1669.42 160.8ZM1686.82 156L1691.27 181.616C1691.45 181.584 1691.63 181.551 1691.81 181.516L1686.82 156ZM1762.42 156.9H1788.42C1788.42 143.961 1778.9 132.991 1766.09 131.161L1762.42 156.9ZM1760.92 175.2L1786.73 178.274C1786.74 178.25 1786.74 178.227 1786.74 178.203L1760.92 175.2ZM1758.22 191.1L1754.88 216.885C1766.95 218.447 1778.49 211.425 1782.65 199.985L1758.22 191.1ZM1706.62 188.7L1697.49 164.355C1696.64 164.675 1695.8 165.038 1694.99 165.445L1706.62 188.7ZM1705.42 190.5L1728.67 202.127C1728.99 201.483 1729.29 200.825 1729.56 200.156L1705.42 190.5ZM1707.52 199.8L1723.48 179.277C1722.98 178.888 1722.47 178.518 1721.94 178.167L1707.52 199.8ZM1721.62 204.9L1728.83 179.921C1728.63 179.864 1728.43 179.809 1728.23 179.756L1721.62 204.9ZM1744.72 213L1734.3 236.82C1734.38 236.859 1734.47 236.897 1734.56 236.935L1744.72 213ZM1761.82 225.6L1742.08 242.521C1742.19 242.654 1742.31 242.786 1742.42 242.916L1761.82 225.6ZM1769.32 247.2H1743.32C1743.32 259.183 1739.84 262.565 1737.54 264.142L1752.22 285.6L1766.9 307.058C1787.39 293.035 1795.32 270.817 1795.32 247.2H1769.32ZM1752.22 285.6L1737.36 264.264C1732.26 267.817 1722.31 271.3 1704.22 271.3V297.3V323.3C1727.72 323.3 1749.78 318.983 1767.08 306.936L1752.22 285.6ZM1704.22 297.3V271.3C1692.01 271.3 1677.15 269.531 1659.43 265.613L1653.82 291L1648.21 316.387C1668.48 320.869 1687.23 323.3 1704.22 323.3V297.3ZM1653.82 291L1679.69 293.587C1679.97 290.729 1680.71 285.911 1682.06 278.733L1656.52 273.9L1630.97 269.067C1629.53 276.689 1628.46 283.271 1627.95 288.413L1653.82 291ZM1656.52 273.9L1681.96 279.256C1683.54 271.749 1684.76 266.327 1685.64 262.806L1660.42 256.5L1635.19 250.194C1634.07 254.673 1632.69 260.851 1631.07 268.544L1656.52 273.9ZM1660.42 256.5L1656.14 282.146C1664.1 283.472 1672.75 284.546 1682.06 285.393L1684.42 259.5L1686.77 233.607C1678.49 232.854 1671.14 231.928 1664.69 230.854L1660.42 256.5ZM1684.42 259.5L1682.65 285.44C1691.81 286.065 1699.94 286.4 1706.92 286.4V260.4V234.4C1701.5 234.4 1694.62 234.135 1686.19 233.56L1684.42 259.5ZM1706.92 260.4V286.4C1709.98 286.4 1713.03 286.319 1715.8 286.068C1717.28 285.933 1722.96 285.496 1728.44 282.755L1716.82 259.5L1705.19 236.245C1706.7 235.489 1707.96 235.062 1708.7 234.837C1709.48 234.6 1710.08 234.467 1710.42 234.399C1711.07 234.27 1711.36 234.257 1711.09 234.282C1710.87 234.302 1710.42 234.334 1709.68 234.359C1708.95 234.384 1708.04 234.4 1706.92 234.4V260.4ZM1716.82 259.5L1735.2 277.885C1739.14 273.947 1740.82 269.73 1741.26 268.631C1741.96 266.879 1742.39 265.315 1742.64 264.306L1717.42 258L1692.19 251.694C1692.25 251.485 1692.48 250.571 1692.98 249.319C1693.23 248.673 1693.69 247.63 1694.39 246.394C1695.05 245.251 1696.32 243.229 1698.43 241.115L1716.82 259.5ZM1717.42 258L1741.56 267.656C1743.09 263.823 1744.02 259.555 1744.02 255H1718.02H1692.02C1692.02 252.445 1692.54 250.176 1693.28 248.344L1717.42 258ZM1718.02 255H1744.02C1744.02 247.071 1741.32 238.904 1735.22 232.31C1729.63 226.271 1722.84 223.351 1717.53 221.863L1710.52 246.9L1703.51 271.937C1703.19 271.849 1700.16 270.979 1697.06 267.64C1693.46 263.746 1692.02 258.929 1692.02 255H1718.02ZM1710.52 246.9L1716.82 221.676C1716.83 221.677 1716.79 221.668 1716.71 221.647C1716.63 221.627 1716.53 221.599 1716.39 221.563C1716.12 221.491 1715.76 221.395 1715.31 221.272C1714.42 221.028 1713.22 220.698 1711.72 220.279C1708.72 219.443 1704.58 218.279 1699.3 216.783L1692.22 241.8L1685.14 266.817C1695.47 269.743 1702.11 271.598 1704.21 272.124L1710.52 246.9ZM1692.22 241.8L1699.3 216.783C1693.22 215.063 1688.98 212.263 1685.72 208.514L1666.12 225.6L1646.52 242.686C1656.85 254.537 1670.01 262.537 1685.14 266.817L1692.22 241.8ZM1666.12 225.6L1686.17 209.054C1683.94 206.348 1682.22 202.542 1682.22 195.9H1656.22H1630.22C1630.22 212.858 1635.09 228.852 1646.06 242.146L1666.12 225.6ZM1656.22 195.9H1682.22C1682.22 193.546 1682.77 189.745 1684.81 184.188L1660.42 175.2L1636.02 166.212C1632.47 175.855 1630.22 185.854 1630.22 195.9H1656.22ZM1660.42 175.2L1684.81 184.188C1685.31 182.855 1685.74 181.82 1686.11 181.041C1686.47 180.253 1686.72 179.829 1686.81 179.68C1686.92 179.518 1686.76 179.807 1686.27 180.343C1685.78 180.875 1684.79 181.853 1683.2 182.848L1669.42 160.8L1655.64 138.752C1649.44 142.627 1645.36 147.902 1642.72 152.12C1639.97 156.525 1637.8 161.389 1636.02 166.212L1660.42 175.2ZM1669.42 160.8L1683.84 182.433C1683 182.996 1682.32 183.347 1681.96 183.526C1681.58 183.714 1681.34 183.807 1681.31 183.821C1681.26 183.838 1681.6 183.706 1682.48 183.464C1684.26 182.974 1687.1 182.341 1691.27 181.616L1686.82 156L1682.36 130.384C1677.33 131.259 1672.68 132.226 1668.65 133.336C1665.33 134.252 1659.86 135.924 1654.99 139.167L1669.42 160.8ZM1686.82 156L1691.81 181.516C1699.68 179.976 1706.49 179.3 1712.32 179.3V153.3V127.3C1702.55 127.3 1692.35 128.424 1681.82 130.484L1686.82 156ZM1712.32 153.3V179.3C1727.66 179.3 1743.13 180.409 1758.74 182.639L1762.42 156.9L1766.09 131.161C1748.1 128.591 1730.17 127.3 1712.32 127.3V153.3ZM1762.42 156.9H1736.42C1736.42 158.838 1736.09 163.599 1735.09 172.197L1760.92 175.2L1786.74 178.203C1787.74 169.601 1788.42 162.162 1788.42 156.9H1762.42ZM1760.92 175.2L1735.1 172.126C1734.62 176.111 1734.21 179.065 1733.86 181.122C1733.68 182.148 1733.55 182.787 1733.48 183.121C1733.38 183.577 1733.45 183.13 1733.78 182.215L1758.22 191.1L1782.65 199.985C1783.93 196.479 1784.66 192.561 1785.12 189.828C1785.68 186.585 1786.21 182.689 1786.73 178.274L1760.92 175.2ZM1758.22 191.1L1761.55 165.315C1744.06 163.051 1729.11 161.8 1717.12 161.8V187.8V213.8C1725.92 213.8 1738.38 214.749 1754.88 216.885L1758.22 191.1ZM1717.12 187.8V161.8C1714.02 161.8 1710.99 161.883 1708.22 162.12C1706.05 162.306 1701.8 162.74 1697.49 164.355L1706.62 188.7L1715.75 213.045C1714.85 213.379 1714.14 213.581 1713.68 213.695C1713.22 213.813 1712.87 213.879 1712.69 213.911C1712.35 213.97 1712.31 213.961 1712.66 213.93C1712.99 213.902 1713.52 213.868 1714.3 213.841C1715.07 213.816 1716 213.8 1717.12 213.8V187.8ZM1706.62 188.7L1694.99 165.445C1688.98 168.448 1685.71 172.885 1684.38 174.878C1682.83 177.214 1681.85 179.405 1681.28 180.844L1705.42 190.5L1729.56 200.156C1729.38 200.595 1728.81 201.986 1727.65 203.722C1726.72 205.115 1723.85 209.152 1718.24 211.955L1706.62 188.7ZM1705.42 190.5L1682.16 178.872C1679.22 184.755 1678.82 190.418 1678.82 193.8H1704.82H1730.82C1730.82 194.289 1730.79 195.265 1730.55 196.576C1730.31 197.873 1729.81 199.854 1728.67 202.127L1705.42 190.5ZM1704.82 193.8H1678.82C1678.82 202.428 1681.96 214.013 1693.09 221.433L1707.52 199.8L1721.94 178.167C1725.16 180.316 1727.68 183.341 1729.2 186.731C1730.62 189.877 1730.82 192.502 1730.82 193.8H1704.82ZM1707.52 199.8L1691.55 220.323C1695.94 223.731 1700.94 225.633 1703.55 226.575C1706.92 227.794 1710.82 228.944 1715 230.044L1721.62 204.9L1728.23 179.756C1724.81 178.856 1722.56 178.156 1721.24 177.675C1720.58 177.437 1720.42 177.351 1720.6 177.439C1720.71 177.489 1721.01 177.635 1721.44 177.889C1721.86 178.131 1722.59 178.583 1723.48 179.277L1707.52 199.8ZM1721.62 204.9L1714.4 229.879C1722.65 232.262 1729.22 234.599 1734.3 236.82L1744.72 213L1755.14 189.18C1747.41 185.801 1738.58 182.738 1728.83 179.921L1721.62 204.9ZM1744.72 213L1734.56 236.935C1737.36 238.122 1739.81 239.877 1742.08 242.521L1761.82 225.6L1781.56 208.679C1774.22 200.123 1765.27 193.478 1754.87 189.065L1744.72 213ZM1761.82 225.6L1742.42 242.916C1742.45 242.948 1743.32 243.622 1743.32 247.2H1769.32H1795.32C1795.32 233.178 1791.18 219.452 1781.21 208.284L1761.82 225.6Z" fill="white" mask="url(#path-1-outside-1_53_175)"/>
<mask id="mask0_53_175" style="mask-type:alpha" maskUnits="userSpaceOnUse" x="-9" y="30" width="353" height="353">
<rect x="4.25061" y="43.4399" width="326" height="326" fill="#D9D9D9" stroke="white" stroke-width="26" stroke-linejoin="round"/>
</mask>
<g mask="url(#mask0_53_175)">
<path d="M158.366 55.6989C163.44 50.945 171.392 51.0214 176.373 55.9283L214.453 93.4401H267.25C274.43 93.4401 280.25 99.2604 280.25 106.44V159.237L317.762 197.317C322.746 202.377 322.746 210.503 317.762 215.563L280.25 253.643V306.44C280.25 313.62 274.43 319.44 267.25 319.44H214.453L176.373 356.952C171.313 361.937 163.187 361.937 158.127 356.952L120.047 319.44H67.25C60.0703 319.44 54.25 313.62 54.25 306.44V253.643L16.7383 215.563C11.7536 210.503 11.7536 202.377 16.7383 197.317L54.25 159.237V106.44C54.25 99.2604 60.0703 93.4401 67.25 93.4401H120.047L158.127 55.9283L158.366 55.6989ZM162.671 191.48C160.788 195.956 156.568 199.009 151.728 199.398L139.845 200.351L148.882 208.172C152.532 211.331 154.131 216.253 153.035 220.954L150.362 232.419L160.506 226.264L160.897 226.036C164.974 223.752 169.979 223.828 173.994 226.264L184.137 232.419L181.465 220.954C180.369 216.253 181.968 211.331 185.618 208.172L194.654 200.351L182.772 199.398C177.932 199.009 173.712 195.956 171.829 191.48L167.25 180.593L162.671 191.48Z" fill="#0E21A0" stroke="white" stroke-width="26" stroke-linejoin="round"/>
</g>
</svg>
