<svg width="4000" height="513" viewBox="0 0 4000 513" fill="none" xmlns="http://www.w3.org/2000/svg">
<rect width="4000" height="512.5" fill="#190626"/>
<path d="M630.198 182.81C653.598 182.81 672.698 185.01 687.498 189.41C702.498 193.81 714.098 202.11 722.298 214.31C730.698 226.51 734.898 244.01 734.898 266.81C734.898 291.21 730.498 309.81 721.698 322.61C712.898 335.21 701.098 343.61 686.298 347.81C671.498 351.81 652.798 353.81 630.198 353.81H570.198V182.81H630.198ZM670.398 313.01C672.798 310.61 674.498 304.41 675.498 294.41C676.498 284.41 676.998 275.21 676.998 266.81C676.998 256.21 676.198 247.81 674.598 241.61C673.198 235.21 670.598 230.11 666.798 226.31C660.798 219.71 650.498 216.41 635.898 216.41C633.298 216.41 629.398 216.61 624.198 217.01V316.61C627.598 317.01 632.898 317.21 640.098 317.21C647.498 317.21 653.998 316.91 659.598 316.31C665.398 315.51 668.998 314.41 670.398 313.01ZM839.87 317.81C844.87 317.81 854.17 317.31 867.77 316.31C869.57 316.31 872.87 316.11 877.67 315.71L882.17 346.61C866.77 353.81 846.77 357.41 822.17 357.41C799.17 357.41 781.47 351.61 769.07 340.01C756.87 328.41 750.77 310.91 750.77 287.51C750.77 275.51 752.27 263.91 755.27 252.71C758.47 241.51 762.07 233.71 766.07 229.31C770.27 224.91 778.07 221.11 789.47 217.91C800.87 214.71 812.17 213.11 823.37 213.11C841.37 213.11 854.87 216.31 863.87 222.71C872.87 229.11 878.77 238.01 881.57 249.41C884.37 260.61 885.77 275.71 885.77 294.71C872.17 295.51 858.87 295.91 845.87 295.91H803.27C803.27 302.31 804.57 307.11 807.17 310.31C809.97 313.51 813.87 315.61 818.87 316.61C823.87 317.41 830.87 317.81 839.87 317.81ZM806.27 248.81C805.07 249.41 804.17 252.01 803.57 256.61C802.97 261.21 802.57 266.41 802.37 272.21H817.97C827.37 272.21 834.17 272.11 838.37 271.91C838.37 262.31 836.97 255.51 834.17 251.51C831.57 247.51 826.97 245.51 820.37 245.51C814.97 245.51 810.27 246.61 806.27 248.81ZM1015.43 307.01C1015.43 324.81 1009.73 337.61 998.326 345.41C987.126 353.21 971.126 357.11 950.326 357.11C935.726 357.11 918.926 355.01 899.926 350.81C900.326 346.81 901.226 341.11 902.626 333.71C904.226 326.11 905.526 320.31 906.526 316.31C913.726 317.51 921.726 318.51 930.526 319.31C939.326 319.91 946.826 320.21 953.026 320.21C958.426 320.21 961.726 319.91 962.926 319.31C963.126 319.11 963.326 318.61 963.526 317.81C963.926 316.81 964.126 315.81 964.126 314.81C964.126 310.81 961.626 308.11 956.626 306.71C955.026 306.31 948.926 304.61 938.326 301.61C927.726 298.61 919.026 293.21 912.226 285.41C905.626 277.41 902.326 267.51 902.326 255.71C902.326 249.51 903.726 242.61 906.526 235.01C909.326 227.41 912.326 222.61 915.526 220.61C917.926 219.01 923.726 217.41 932.926 215.81C942.126 214.01 950.626 213.11 958.426 213.11C975.026 213.11 991.726 214.31 1008.53 216.71C1008.53 220.31 1008.03 226.41 1007.03 235.01C1006.03 243.41 1005.13 248.71 1004.33 250.91C987.326 248.71 973.626 247.61 963.226 247.61C957.826 247.61 954.326 247.91 952.726 248.51C952.326 248.71 951.926 249.31 951.526 250.31C951.126 251.11 950.926 252.21 950.926 253.61C950.926 256.41 951.826 258.41 953.626 259.61C955.426 261.01 960.126 262.71 967.726 264.71C976.726 267.31 984.426 270.01 990.826 272.81C997.426 275.61 1003.13 279.81 1007.93 285.41C1012.93 291.01 1015.43 298.21 1015.43 307.01ZM1096.04 297.11C1096.04 300.71 1096.14 304.51 1096.34 308.51C1096.54 312.31 1097.14 314.71 1098.14 315.71C1099.54 317.11 1104.44 317.81 1112.84 317.81L1123.04 317.51C1124.84 327.11 1125.74 338.21 1125.74 350.81C1121.94 352.21 1116.34 353.51 1108.94 354.71C1101.74 355.91 1094.84 356.51 1088.24 356.51C1074.44 356.51 1063.74 353.51 1056.14 347.51C1048.74 341.31 1045.04 331.81 1045.04 319.01V245.21H1022.54V217.91L1045.04 215.81L1058.54 182.81L1096.04 180.71V215.81H1127.84V245.21H1096.04V297.11ZM1225.38 353.81L1220.58 334.91C1211.38 349.91 1198.58 357.41 1182.18 357.41C1168.78 357.41 1157.78 353.71 1149.18 346.31C1140.78 338.71 1136.58 328.11 1136.58 314.51C1136.58 306.11 1138.98 298.81 1143.78 292.61C1148.78 286.21 1155.58 281.71 1164.18 279.11C1175.38 275.91 1192.68 274.11 1216.08 273.71C1216.08 260.51 1215.48 253.51 1214.28 252.71C1213.28 251.91 1210.08 251.51 1204.68 251.51C1201.28 251.51 1196.58 251.71 1190.58 252.11C1180.98 252.51 1167.98 253.61 1151.58 255.41C1149.98 244.61 1148.78 233.01 1147.98 220.61C1158.58 218.41 1169.68 216.61 1181.28 215.21C1192.88 213.61 1203.28 212.81 1212.48 212.81C1228.48 212.81 1240.48 215.51 1248.48 220.91C1256.48 226.11 1261.68 233.01 1264.08 241.61C1266.48 250.21 1267.58 261.11 1267.38 274.31L1267.08 318.41L1267.98 353.81H1225.38ZM1199.58 323.81C1204.78 323.81 1210.28 322.81 1216.08 320.81V298.61H1213.68C1198.88 298.61 1190.68 299.41 1189.08 301.01C1188.08 302.01 1187.28 303.51 1186.68 305.51C1186.28 307.51 1186.08 309.41 1186.08 311.21C1186.08 316.01 1187.18 319.31 1189.38 321.11C1191.58 322.91 1194.98 323.81 1199.58 323.81ZM1361.34 213.11C1382.74 213.11 1404.84 216.11 1427.64 222.11V395.81L1376.34 397.91V358.31C1376.34 350.71 1377.84 341.81 1380.84 331.61L1379.94 331.01C1374.94 340.01 1368.44 346.41 1360.44 350.21C1352.44 353.81 1344.94 355.61 1337.94 355.61C1322.34 355.61 1309.74 350.11 1300.14 339.11C1290.54 327.91 1285.74 311.11 1285.74 288.71C1285.74 273.71 1287.64 260.11 1291.44 247.91C1295.24 235.71 1299.84 227.81 1305.24 224.21C1311.04 220.41 1318.94 217.61 1328.94 215.81C1338.94 214.01 1349.74 213.11 1361.34 213.11ZM1359.54 313.91C1364.34 313.91 1369.94 313.01 1376.34 311.21V248.51C1373.94 248.11 1370.34 247.71 1365.54 247.31C1363.74 247.11 1361.04 247.01 1357.44 247.01C1349.64 247.01 1345.24 247.81 1344.24 249.41C1342.44 252.21 1341.04 257.31 1340.04 264.71C1339.04 271.71 1338.54 278.51 1338.54 285.11C1338.54 295.51 1340.24 302.91 1343.64 307.31C1347.04 311.71 1352.34 313.91 1359.54 313.91ZM1589.97 215.81V353.81H1548.27L1542.57 330.71C1528.17 348.11 1510.97 356.81 1490.97 356.81C1483.77 356.81 1476.97 355.81 1470.57 353.81C1464.37 351.81 1459.67 348.91 1456.47 345.11C1454.67 342.91 1453.27 337.41 1452.27 328.61C1451.47 319.81 1451.07 306.41 1451.07 288.41V215.81H1502.37V287.81C1502.37 291.81 1502.47 296.51 1502.67 301.91C1502.87 307.31 1503.47 310.71 1504.47 312.11C1505.87 314.11 1509.87 315.11 1516.47 315.11L1521.27 314.81C1526.87 314.61 1532.67 313.31 1538.67 310.91V215.81H1589.97ZM1698.27 317.81C1703.27 317.81 1712.57 317.31 1726.17 316.31C1727.97 316.31 1731.27 316.11 1736.07 315.71L1740.57 346.61C1725.17 353.81 1705.17 357.41 1680.57 357.41C1657.57 357.41 1639.87 351.61 1627.47 340.01C1615.27 328.41 1609.17 310.91 1609.17 287.51C1609.17 275.51 1610.67 263.91 1613.67 252.71C1616.87 241.51 1620.47 233.71 1624.47 229.31C1628.67 224.91 1636.47 221.11 1647.87 217.91C1659.27 214.71 1670.57 213.11 1681.77 213.11C1699.77 213.11 1713.27 216.31 1722.27 222.71C1731.27 229.11 1737.17 238.01 1739.97 249.41C1742.77 260.61 1744.17 275.71 1744.17 294.71C1730.57 295.51 1717.27 295.91 1704.27 295.91H1661.67C1661.67 302.31 1662.97 307.11 1665.57 310.31C1668.37 313.51 1672.27 315.61 1677.27 316.61C1682.27 317.41 1689.27 317.81 1698.27 317.81ZM1664.67 248.81C1663.47 249.41 1662.57 252.01 1661.97 256.61C1661.37 261.21 1660.97 266.41 1660.77 272.21H1676.37C1685.77 272.21 1692.57 272.11 1696.77 271.91C1696.77 262.31 1695.37 255.51 1692.57 251.51C1689.97 247.51 1685.37 245.51 1678.77 245.51C1673.37 245.51 1668.67 246.61 1664.67 248.81ZM1873.82 307.01C1873.82 324.81 1868.12 337.61 1856.72 345.41C1845.52 353.21 1829.52 357.11 1808.72 357.11C1794.12 357.11 1777.32 355.01 1758.32 350.81C1758.72 346.81 1759.62 341.11 1761.02 333.71C1762.62 326.11 1763.92 320.31 1764.92 316.31C1772.12 317.51 1780.12 318.51 1788.92 319.31C1797.72 319.91 1805.22 320.21 1811.42 320.21C1816.82 320.21 1820.12 319.91 1821.32 319.31C1821.52 319.11 1821.72 318.61 1821.92 317.81C1822.32 316.81 1822.52 315.81 1822.52 314.81C1822.52 310.81 1820.02 308.11 1815.02 306.71C1813.42 306.31 1807.32 304.61 1796.72 301.61C1786.12 298.61 1777.42 293.21 1770.62 285.41C1764.02 277.41 1760.72 267.51 1760.72 255.71C1760.72 249.51 1762.12 242.61 1764.92 235.01C1767.72 227.41 1770.72 222.61 1773.92 220.61C1776.32 219.01 1782.12 217.41 1791.32 215.81C1800.52 214.01 1809.02 213.11 1816.82 213.11C1833.42 213.11 1850.12 214.31 1866.92 216.71C1866.92 220.31 1866.42 226.41 1865.42 235.01C1864.42 243.41 1863.52 248.71 1862.72 250.91C1845.72 248.71 1832.02 247.61 1821.62 247.61C1816.22 247.61 1812.72 247.91 1811.12 248.51C1810.72 248.71 1810.32 249.31 1809.92 250.31C1809.52 251.11 1809.32 252.21 1809.32 253.61C1809.32 256.41 1810.22 258.41 1812.02 259.61C1813.82 261.01 1818.52 262.71 1826.12 264.71C1835.12 267.31 1842.82 270.01 1849.22 272.81C1855.82 275.61 1861.52 279.81 1866.32 285.41C1871.32 291.01 1873.82 298.21 1873.82 307.01Z" fill="#0E21A0"/>
<mask id="mask0_53_175" style="mask-type:alpha" maskUnits="userSpaceOnUse" x="121" y="116" width="301" height="301">
<rect x="121.758" y="116.25" width="300" height="300" fill="#D9D9D9"/>
</mask>
<g mask="url(#mask0_53_175)">
<path d="M235.195 319.375L271.757 297.188L308.32 319.375L298.632 277.813L331.132 249.688L288.32 246.25L271.757 206.875L255.195 246.25L212.382 249.688L244.882 277.813L235.195 319.375ZM271.757 407.5L229.882 366.25H171.757V308.125L130.507 266.25L171.757 224.375V166.25H229.882L271.757 125L313.632 166.25H371.757V224.375L413.007 266.25L371.757 308.125V366.25H313.632L271.757 407.5Z" fill="#0E21A0"/>
</g>
</svg>
