<svg width="4000" height="651" viewBox="0 0 4000 651" fill="none" xmlns="http://www.w3.org/2000/svg">
<rect width="4000" height="651" fill="#2C2C2C" fill-opacity="0.1"/>
<mask id="path-1-outside-1_59_307" maskUnits="userSpaceOnUse" x="439.563" y="217.5" width="1075" height="207" fill="black">
<rect fill="white" x="439.563" y="217.5" width="1075" height="207"/>
<path d="M503.563 235.7C522.283 235.7 537.563 237.46 549.403 240.98C561.403 244.5 570.683 251.14 577.243 260.9C583.963 270.66 587.323 284.66 587.323 302.9C587.323 322.42 583.803 337.3 576.763 347.54C569.723 357.62 560.283 364.34 548.443 367.7C536.603 370.9 521.643 372.5 503.563 372.5H455.563V235.7H503.563ZM535.723 339.86C537.643 337.94 539.003 332.98 539.803 324.98C540.603 316.98 541.003 309.62 541.003 302.9C541.003 294.42 540.363 287.7 539.083 282.74C537.963 277.62 535.883 273.54 532.843 270.5C528.043 265.22 519.803 262.58 508.123 262.58C506.043 262.58 502.923 262.74 498.763 263.06V342.74C501.483 343.06 505.723 343.22 511.483 343.22C517.403 343.22 522.603 342.98 527.083 342.5C531.723 341.86 534.603 340.98 535.723 339.86ZM671.3 343.7C675.3 343.7 682.74 343.3 693.62 342.5C695.06 342.5 697.7 342.34 701.54 342.02L705.14 366.74C692.82 372.5 676.82 375.38 657.14 375.38C638.74 375.38 624.58 370.74 614.66 361.46C604.9 352.18 600.02 338.18 600.02 319.46C600.02 309.86 601.22 300.58 603.62 291.62C606.18 282.66 609.06 276.42 612.26 272.9C615.62 269.38 621.86 266.34 630.98 263.78C640.1 261.22 649.14 259.94 658.1 259.94C672.5 259.94 683.3 262.5 690.5 267.62C697.7 272.74 702.42 279.86 704.66 288.98C706.9 297.94 708.02 310.02 708.02 325.22C697.14 325.86 686.5 326.18 676.1 326.18H642.02C642.02 331.3 643.06 335.14 645.14 337.7C647.38 340.26 650.5 341.94 654.5 342.74C658.5 343.38 664.1 343.7 671.3 343.7ZM644.42 288.5C643.46 288.98 642.74 291.06 642.26 294.74C641.78 298.42 641.46 302.58 641.3 307.22H653.78C661.3 307.22 666.74 307.14 670.1 306.98C670.1 299.3 668.98 293.86 666.74 290.66C664.66 287.46 660.98 285.86 655.7 285.86C651.38 285.86 647.62 286.74 644.42 288.5ZM811.745 335.06C811.745 349.3 807.185 359.54 798.065 365.78C789.105 372.02 776.305 375.14 759.665 375.14C747.985 375.14 734.545 373.46 719.345 370.1C719.665 366.9 720.385 362.34 721.505 356.42C722.785 350.34 723.825 345.7 724.625 342.5C730.385 343.46 736.785 344.26 743.825 344.9C750.865 345.38 756.865 345.62 761.825 345.62C766.145 345.62 768.785 345.38 769.745 344.9C769.905 344.74 770.065 344.34 770.225 343.7C770.545 342.9 770.705 342.1 770.705 341.3C770.705 338.1 768.705 335.94 764.705 334.82C763.425 334.5 758.545 333.14 750.065 330.74C741.585 328.34 734.625 324.02 729.185 317.78C723.905 311.38 721.265 303.46 721.265 294.02C721.265 289.06 722.385 283.54 724.625 277.46C726.865 271.38 729.265 267.54 731.825 265.94C733.745 264.66 738.385 263.38 745.745 262.1C753.105 260.66 759.905 259.94 766.145 259.94C779.425 259.94 792.785 260.9 806.225 262.82C806.225 265.7 805.825 270.58 805.025 277.46C804.225 284.18 803.505 288.42 802.865 290.18C789.265 288.42 778.305 287.54 769.985 287.54C765.665 287.54 762.865 287.78 761.585 288.26C761.265 288.42 760.945 288.9 760.625 289.7C760.305 290.34 760.145 291.22 760.145 292.34C760.145 294.58 760.865 296.18 762.305 297.14C763.745 298.26 767.505 299.62 773.585 301.22C780.785 303.3 786.945 305.46 792.065 307.7C797.345 309.94 801.905 313.3 805.745 317.78C809.745 322.26 811.745 328.02 811.745 335.06ZM876.236 327.14C876.236 330.02 876.316 333.06 876.476 336.26C876.636 339.3 877.116 341.22 877.916 342.02C879.036 343.14 882.956 343.7 889.676 343.7L897.836 343.46C899.276 351.14 899.996 360.02 899.996 370.1C896.956 371.22 892.476 372.26 886.556 373.22C880.796 374.18 875.276 374.66 869.996 374.66C858.956 374.66 850.396 372.26 844.316 367.46C838.396 362.5 835.436 354.9 835.436 344.66V285.62H817.436V263.78L835.436 262.1L846.236 235.7L876.236 234.02V262.1H901.676V285.62H876.236V327.14ZM979.71 372.5L975.87 357.38C968.51 369.38 958.27 375.38 945.149 375.38C934.429 375.38 925.629 372.42 918.749 366.5C912.029 360.42 908.669 351.94 908.669 341.06C908.669 334.34 910.589 328.5 914.429 323.54C918.429 318.42 923.869 314.82 930.749 312.74C939.709 310.18 953.549 308.74 972.269 308.42C972.269 297.86 971.79 292.26 970.83 291.62C970.029 290.98 967.469 290.66 963.149 290.66C960.43 290.66 956.67 290.82 951.87 291.14C944.189 291.46 933.789 292.34 920.669 293.78C919.389 285.14 918.429 275.86 917.789 265.94C926.269 264.18 935.149 262.74 944.43 261.62C953.709 260.34 962.03 259.7 969.39 259.7C982.19 259.7 991.79 261.86 998.19 266.18C1004.59 270.34 1008.75 275.86 1010.67 282.74C1012.59 289.62 1013.47 298.34 1013.31 308.9L1013.07 344.18L1013.79 372.5H979.71ZM959.07 348.5C963.23 348.5 967.63 347.7 972.269 346.1V328.34H970.35C958.51 328.34 951.949 328.98 950.669 330.26C949.869 331.06 949.229 332.26 948.749 333.86C948.429 335.46 948.27 336.98 948.27 338.42C948.27 342.26 949.15 344.9 950.909 346.34C952.67 347.78 955.39 348.5 959.07 348.5ZM1088.48 259.94C1105.6 259.94 1123.28 262.34 1141.52 267.14V406.1L1100.48 407.78V376.1C1100.48 370.02 1101.68 362.9 1104.08 354.74L1103.36 354.26C1099.36 361.46 1094.16 366.58 1087.76 369.62C1081.36 372.5 1075.36 373.94 1069.76 373.94C1057.28 373.94 1047.2 369.54 1039.52 360.74C1031.84 351.78 1028 338.34 1028 320.42C1028 308.42 1029.52 297.54 1032.56 287.78C1035.6 278.02 1039.28 271.7 1043.6 268.82C1048.24 265.78 1054.56 263.54 1062.56 262.1C1070.56 260.66 1079.2 259.94 1088.48 259.94ZM1087.04 340.58C1090.88 340.58 1095.36 339.86 1100.48 338.42V288.26C1098.56 287.94 1095.68 287.62 1091.84 287.3C1090.4 287.14 1088.24 287.06 1085.36 287.06C1079.12 287.06 1075.6 287.7 1074.8 288.98C1073.36 291.22 1072.24 295.3 1071.44 301.22C1070.64 306.82 1070.24 312.26 1070.24 317.54C1070.24 325.86 1071.6 331.78 1074.32 335.3C1077.04 338.82 1081.28 340.58 1087.04 340.58ZM1271.38 262.1V372.5H1238.02L1233.46 354.02C1221.94 367.94 1208.18 374.9 1192.18 374.9C1186.42 374.9 1180.98 374.1 1175.86 372.5C1170.9 370.9 1167.14 368.58 1164.58 365.54C1163.14 363.78 1162.02 359.38 1161.22 352.34C1160.58 345.3 1160.26 334.58 1160.26 320.18V262.1H1201.3V319.7C1201.3 322.9 1201.38 326.66 1201.54 330.98C1201.7 335.3 1202.18 338.02 1202.98 339.14C1204.1 340.74 1207.3 341.54 1212.58 341.54L1216.42 341.3C1220.9 341.14 1225.54 340.1 1230.34 338.18V262.1H1271.38ZM1358.02 343.7C1362.02 343.7 1369.46 343.3 1380.34 342.5C1381.78 342.5 1384.42 342.34 1388.26 342.02L1391.86 366.74C1379.54 372.5 1363.54 375.38 1343.86 375.38C1325.46 375.38 1311.3 370.74 1301.38 361.46C1291.62 352.18 1286.74 338.18 1286.74 319.46C1286.74 309.86 1287.94 300.58 1290.34 291.62C1292.9 282.66 1295.78 276.42 1298.98 272.9C1302.34 269.38 1308.58 266.34 1317.7 263.78C1326.82 261.22 1335.86 259.94 1344.82 259.94C1359.22 259.94 1370.02 262.5 1377.22 267.62C1384.42 272.74 1389.14 279.86 1391.38 288.98C1393.62 297.94 1394.74 310.02 1394.74 325.22C1383.86 325.86 1373.22 326.18 1362.82 326.18H1328.74C1328.74 331.3 1329.78 335.14 1331.86 337.7C1334.1 340.26 1337.22 341.94 1341.22 342.74C1345.22 343.38 1350.82 343.7 1358.02 343.7ZM1331.14 288.5C1330.18 288.98 1329.46 291.06 1328.98 294.74C1328.5 298.42 1328.18 302.58 1328.02 307.22H1340.5C1348.02 307.22 1353.46 307.14 1356.82 306.98C1356.82 299.3 1355.7 293.86 1353.46 290.66C1351.38 287.46 1347.7 285.86 1342.42 285.86C1338.1 285.86 1334.34 286.74 1331.14 288.5ZM1498.46 335.06C1498.46 349.3 1493.9 359.54 1484.78 365.78C1475.82 372.02 1463.02 375.14 1446.38 375.14C1434.7 375.14 1421.26 373.46 1406.06 370.1C1406.38 366.9 1407.1 362.34 1408.22 356.42C1409.5 350.34 1410.54 345.7 1411.34 342.5C1417.1 343.46 1423.5 344.26 1430.54 344.9C1437.58 345.38 1443.58 345.62 1448.54 345.62C1452.86 345.62 1455.5 345.38 1456.46 344.9C1456.62 344.74 1456.78 344.34 1456.94 343.7C1457.26 342.9 1457.42 342.1 1457.42 341.3C1457.42 338.1 1455.42 335.94 1451.42 334.82C1450.14 334.5 1445.26 333.14 1436.78 330.74C1428.3 328.34 1421.34 324.02 1415.9 317.78C1410.62 311.38 1407.98 303.46 1407.98 294.02C1407.98 289.06 1409.1 283.54 1411.34 277.46C1413.58 271.38 1415.98 267.54 1418.54 265.94C1420.46 264.66 1425.1 263.38 1432.46 262.1C1439.82 260.66 1446.62 259.94 1452.86 259.94C1466.14 259.94 1479.5 260.9 1492.94 262.82C1492.94 265.7 1492.54 270.58 1491.74 277.46C1490.94 284.18 1490.22 288.42 1489.58 290.18C1475.98 288.42 1465.02 287.54 1456.7 287.54C1452.38 287.54 1449.58 287.78 1448.3 288.26C1447.98 288.42 1447.66 288.9 1447.34 289.7C1447.02 290.34 1446.86 291.22 1446.86 292.34C1446.86 294.58 1447.58 296.18 1449.02 297.14C1450.46 298.26 1454.22 299.62 1460.3 301.22C1467.5 303.3 1473.66 305.46 1478.78 307.7C1484.06 309.94 1488.62 313.3 1492.46 317.78C1496.46 322.26 1498.46 328.02 1498.46 335.06Z"/>
</mask>
<path d="M503.563 235.7C522.283 235.7 537.563 237.46 549.403 240.98C561.403 244.5 570.683 251.14 577.243 260.9C583.963 270.66 587.323 284.66 587.323 302.9C587.323 322.42 583.803 337.3 576.763 347.54C569.723 357.62 560.283 364.34 548.443 367.7C536.603 370.9 521.643 372.5 503.563 372.5H455.563V235.7H503.563ZM535.723 339.86C537.643 337.94 539.003 332.98 539.803 324.98C540.603 316.98 541.003 309.62 541.003 302.9C541.003 294.42 540.363 287.7 539.083 282.74C537.963 277.62 535.883 273.54 532.843 270.5C528.043 265.22 519.803 262.58 508.123 262.58C506.043 262.58 502.923 262.74 498.763 263.06V342.74C501.483 343.06 505.723 343.22 511.483 343.22C517.403 343.22 522.603 342.98 527.083 342.5C531.723 341.86 534.603 340.98 535.723 339.86ZM671.3 343.7C675.3 343.7 682.74 343.3 693.62 342.5C695.06 342.5 697.7 342.34 701.54 342.02L705.14 366.74C692.82 372.5 676.82 375.38 657.14 375.38C638.74 375.38 624.58 370.74 614.66 361.46C604.9 352.18 600.02 338.18 600.02 319.46C600.02 309.86 601.22 300.58 603.62 291.62C606.18 282.66 609.06 276.42 612.26 272.9C615.62 269.38 621.86 266.34 630.98 263.78C640.1 261.22 649.14 259.94 658.1 259.94C672.5 259.94 683.3 262.5 690.5 267.62C697.7 272.74 702.42 279.86 704.66 288.98C706.9 297.94 708.02 310.02 708.02 325.22C697.14 325.86 686.5 326.18 676.1 326.18H642.02C642.02 331.3 643.06 335.14 645.14 337.7C647.38 340.26 650.5 341.94 654.5 342.74C658.5 343.38 664.1 343.7 671.3 343.7ZM644.42 288.5C643.46 288.98 642.74 291.06 642.26 294.74C641.78 298.42 641.46 302.58 641.3 307.22H653.78C661.3 307.22 666.74 307.14 670.1 306.98C670.1 299.3 668.98 293.86 666.74 290.66C664.66 287.46 660.98 285.86 655.7 285.86C651.38 285.86 647.62 286.74 644.42 288.5ZM811.745 335.06C811.745 349.3 807.185 359.54 798.065 365.78C789.105 372.02 776.305 375.14 759.665 375.14C747.985 375.14 734.545 373.46 719.345 370.1C719.665 366.9 720.385 362.34 721.505 356.42C722.785 350.34 723.825 345.7 724.625 342.5C730.385 343.46 736.785 344.26 743.825 344.9C750.865 345.38 756.865 345.62 761.825 345.62C766.145 345.62 768.785 345.38 769.745 344.9C769.905 344.74 770.065 344.34 770.225 343.7C770.545 342.9 770.705 342.1 770.705 341.3C770.705 338.1 768.705 335.94 764.705 334.82C763.425 334.5 758.545 333.14 750.065 330.74C741.585 328.34 734.625 324.02 729.185 317.78C723.905 311.38 721.265 303.46 721.265 294.02C721.265 289.06 722.385 283.54 724.625 277.46C726.865 271.38 729.265 267.54 731.825 265.94C733.745 264.66 738.385 263.38 745.745 262.1C753.105 260.66 759.905 259.94 766.145 259.94C779.425 259.94 792.785 260.9 806.225 262.82C806.225 265.7 805.825 270.58 805.025 277.46C804.225 284.18 803.505 288.42 802.865 290.18C789.265 288.42 778.305 287.54 769.985 287.54C765.665 287.54 762.865 287.78 761.585 288.26C761.265 288.42 760.945 288.9 760.625 289.7C760.305 290.34 760.145 291.22 760.145 292.34C760.145 294.58 760.865 296.18 762.305 297.14C763.745 298.26 767.505 299.62 773.585 301.22C780.785 303.3 786.945 305.46 792.065 307.7C797.345 309.94 801.905 313.3 805.745 317.78C809.745 322.26 811.745 328.02 811.745 335.06ZM876.236 327.14C876.236 330.02 876.316 333.06 876.476 336.26C876.636 339.3 877.116 341.22 877.916 342.02C879.036 343.14 882.956 343.7 889.676 343.7L897.836 343.46C899.276 351.14 899.996 360.02 899.996 370.1C896.956 371.22 892.476 372.26 886.556 373.22C880.796 374.18 875.276 374.66 869.996 374.66C858.956 374.66 850.396 372.26 844.316 367.46C838.396 362.5 835.436 354.9 835.436 344.66V285.62H817.436V263.78L835.436 262.1L846.236 235.7L876.236 234.02V262.1H901.676V285.62H876.236V327.14ZM979.71 372.5L975.87 357.38C968.51 369.38 958.27 375.38 945.149 375.38C934.429 375.38 925.629 372.42 918.749 366.5C912.029 360.42 908.669 351.94 908.669 341.06C908.669 334.34 910.589 328.5 914.429 323.54C918.429 318.42 923.869 314.82 930.749 312.74C939.709 310.18 953.549 308.74 972.269 308.42C972.269 297.86 971.79 292.26 970.83 291.62C970.029 290.98 967.469 290.66 963.149 290.66C960.43 290.66 956.67 290.82 951.87 291.14C944.189 291.46 933.789 292.34 920.669 293.78C919.389 285.14 918.429 275.86 917.789 265.94C926.269 264.18 935.149 262.74 944.43 261.62C953.709 260.34 962.03 259.7 969.39 259.7C982.19 259.7 991.79 261.86 998.19 266.18C1004.59 270.34 1008.75 275.86 1010.67 282.74C1012.59 289.62 1013.47 298.34 1013.31 308.9L1013.07 344.18L1013.79 372.5H979.71ZM959.07 348.5C963.23 348.5 967.63 347.7 972.269 346.1V328.34H970.35C958.51 328.34 951.949 328.98 950.669 330.26C949.869 331.06 949.229 332.26 948.749 333.86C948.429 335.46 948.27 336.98 948.27 338.42C948.27 342.26 949.15 344.9 950.909 346.34C952.67 347.78 955.39 348.5 959.07 348.5ZM1088.48 259.94C1105.6 259.94 1123.28 262.34 1141.52 267.14V406.1L1100.48 407.78V376.1C1100.48 370.02 1101.68 362.9 1104.08 354.74L1103.36 354.26C1099.36 361.46 1094.16 366.58 1087.76 369.62C1081.36 372.5 1075.36 373.94 1069.76 373.94C1057.28 373.94 1047.2 369.54 1039.52 360.74C1031.84 351.78 1028 338.34 1028 320.42C1028 308.42 1029.52 297.54 1032.56 287.78C1035.6 278.02 1039.28 271.7 1043.6 268.82C1048.24 265.78 1054.56 263.54 1062.56 262.1C1070.56 260.66 1079.2 259.94 1088.48 259.94ZM1087.04 340.58C1090.88 340.58 1095.36 339.86 1100.48 338.42V288.26C1098.56 287.94 1095.68 287.62 1091.84 287.3C1090.4 287.14 1088.24 287.06 1085.36 287.06C1079.12 287.06 1075.6 287.7 1074.8 288.98C1073.36 291.22 1072.24 295.3 1071.44 301.22C1070.64 306.82 1070.24 312.26 1070.24 317.54C1070.24 325.86 1071.6 331.78 1074.32 335.3C1077.04 338.82 1081.28 340.58 1087.04 340.58ZM1271.38 262.1V372.5H1238.02L1233.46 354.02C1221.94 367.94 1208.18 374.9 1192.18 374.9C1186.42 374.9 1180.98 374.1 1175.86 372.5C1170.9 370.9 1167.14 368.58 1164.58 365.54C1163.14 363.78 1162.02 359.38 1161.22 352.34C1160.58 345.3 1160.26 334.58 1160.26 320.18V262.1H1201.3V319.7C1201.3 322.9 1201.38 326.66 1201.54 330.98C1201.7 335.3 1202.18 338.02 1202.98 339.14C1204.1 340.74 1207.3 341.54 1212.58 341.54L1216.42 341.3C1220.9 341.14 1225.54 340.1 1230.34 338.18V262.1H1271.38ZM1358.02 343.7C1362.02 343.7 1369.46 343.3 1380.34 342.5C1381.78 342.5 1384.42 342.34 1388.26 342.02L1391.86 366.74C1379.54 372.5 1363.54 375.38 1343.86 375.38C1325.46 375.38 1311.3 370.74 1301.38 361.46C1291.62 352.18 1286.74 338.18 1286.74 319.46C1286.74 309.86 1287.94 300.58 1290.34 291.62C1292.9 282.66 1295.78 276.42 1298.98 272.9C1302.34 269.38 1308.58 266.34 1317.7 263.78C1326.82 261.22 1335.86 259.94 1344.82 259.94C1359.22 259.94 1370.02 262.5 1377.22 267.62C1384.42 272.74 1389.14 279.86 1391.38 288.98C1393.62 297.94 1394.74 310.02 1394.74 325.22C1383.86 325.86 1373.22 326.18 1362.82 326.18H1328.74C1328.74 331.3 1329.78 335.14 1331.86 337.7C1334.1 340.26 1337.22 341.94 1341.22 342.74C1345.22 343.38 1350.82 343.7 1358.02 343.7ZM1331.14 288.5C1330.18 288.98 1329.46 291.06 1328.98 294.74C1328.5 298.42 1328.18 302.58 1328.02 307.22H1340.5C1348.02 307.22 1353.46 307.14 1356.82 306.98C1356.82 299.3 1355.7 293.86 1353.46 290.66C1351.38 287.46 1347.7 285.86 1342.42 285.86C1338.1 285.86 1334.34 286.74 1331.14 288.5ZM1498.46 335.06C1498.46 349.3 1493.9 359.54 1484.78 365.78C1475.82 372.02 1463.02 375.14 1446.38 375.14C1434.7 375.14 1421.26 373.46 1406.06 370.1C1406.38 366.9 1407.1 362.34 1408.22 356.42C1409.5 350.34 1410.54 345.7 1411.34 342.5C1417.1 343.46 1423.5 344.26 1430.54 344.9C1437.58 345.38 1443.58 345.62 1448.54 345.62C1452.86 345.62 1455.5 345.38 1456.46 344.9C1456.62 344.74 1456.78 344.34 1456.94 343.7C1457.26 342.9 1457.42 342.1 1457.42 341.3C1457.42 338.1 1455.42 335.94 1451.42 334.82C1450.14 334.5 1445.26 333.14 1436.78 330.74C1428.3 328.34 1421.34 324.02 1415.9 317.78C1410.62 311.38 1407.98 303.46 1407.98 294.02C1407.98 289.06 1409.1 283.54 1411.34 277.46C1413.58 271.38 1415.98 267.54 1418.54 265.94C1420.46 264.66 1425.1 263.38 1432.46 262.1C1439.82 260.66 1446.62 259.94 1452.86 259.94C1466.14 259.94 1479.5 260.9 1492.94 262.82C1492.94 265.7 1492.54 270.58 1491.74 277.46C1490.94 284.18 1490.22 288.42 1489.58 290.18C1475.98 288.42 1465.02 287.54 1456.7 287.54C1452.38 287.54 1449.58 287.78 1448.3 288.26C1447.98 288.42 1447.66 288.9 1447.34 289.7C1447.02 290.34 1446.86 291.22 1446.86 292.34C1446.86 294.58 1447.58 296.18 1449.02 297.14C1450.46 298.26 1454.22 299.62 1460.3 301.22C1467.5 303.3 1473.66 305.46 1478.78 307.7C1484.06 309.94 1488.62 313.3 1492.46 317.78C1496.46 322.26 1498.46 328.02 1498.46 335.06Z" fill="#0E21A0"/>
<path d="M549.403 240.98L544.843 256.317C544.862 256.322 544.88 256.328 544.899 256.333L549.403 240.98ZM577.243 260.9L563.963 269.825C563.997 269.875 564.03 269.924 564.064 269.974L577.243 260.9ZM576.763 347.54L589.88 356.701C589.903 356.669 589.925 356.637 589.947 356.604L576.763 347.54ZM548.443 367.7L552.617 383.146C552.682 383.128 552.746 383.11 552.811 383.092L548.443 367.7ZM455.563 372.5H439.563C439.563 381.337 446.726 388.5 455.563 388.5V372.5ZM455.563 235.7V219.7C446.726 219.7 439.563 226.863 439.563 235.7H455.563ZM535.723 339.86L524.409 328.546L524.409 328.546L535.723 339.86ZM539.803 324.98L523.882 323.388V323.388L539.803 324.98ZM539.083 282.74L523.452 286.159C523.495 286.353 523.541 286.546 523.59 286.738L539.083 282.74ZM532.843 270.5L521.004 281.263C521.174 281.451 521.349 281.634 521.529 281.814L532.843 270.5ZM498.763 263.06L497.535 247.107C489.2 247.748 482.763 254.699 482.763 263.06H498.763ZM498.763 342.74H482.763C482.763 350.853 488.835 357.682 496.893 358.63L498.763 342.74ZM527.083 342.5L528.787 358.409C528.948 358.392 529.109 358.372 529.269 358.35L527.083 342.5ZM503.563 235.7V251.7C521.447 251.7 535.036 253.401 544.843 256.317L549.403 240.98L553.962 225.643C540.089 221.519 523.118 219.7 503.563 219.7V235.7ZM549.403 240.98L544.899 256.333C553.558 258.873 559.627 263.373 563.963 269.825L577.243 260.9L590.522 251.975C581.739 238.907 569.247 230.127 553.906 225.627L549.403 240.98ZM577.243 260.9L564.064 269.974C568.2 275.981 571.323 286.272 571.323 302.9H587.323H603.323C603.323 283.048 599.725 265.339 590.421 251.826L577.243 260.9ZM587.323 302.9H571.323C571.323 320.891 568.01 332.029 563.578 338.476L576.763 347.54L589.947 356.604C599.595 342.571 603.323 323.949 603.323 302.9H587.323ZM576.763 347.54L563.645 338.379C558.719 345.432 552.371 349.953 544.075 352.308L548.443 367.7L552.811 383.092C568.194 378.727 580.726 369.808 589.88 356.701L576.763 347.54ZM548.443 367.7L544.268 352.254C534.267 354.957 520.833 356.5 503.563 356.5V372.5V388.5C522.453 388.5 538.938 386.843 552.617 383.146L548.443 367.7ZM503.563 372.5V356.5H455.563V372.5V388.5H503.563V372.5ZM455.563 372.5H471.563V235.7H455.563H439.563V372.5H455.563ZM455.563 235.7V251.7H503.563V235.7V219.7H455.563V235.7ZM535.723 339.86L547.036 351.174C551.036 347.174 552.748 342.086 553.613 338.931C554.623 335.247 555.278 331.027 555.723 326.572L539.803 324.98L523.882 323.388C523.527 326.933 523.102 329.193 522.752 330.469C522.582 331.09 522.505 331.195 522.615 330.965C522.697 330.792 523.197 329.758 524.409 328.546L535.723 339.86ZM539.803 324.98L555.723 326.572C556.566 318.142 557.003 310.243 557.003 302.9H541.003H525.003C525.003 308.997 524.639 315.818 523.882 323.388L539.803 324.98ZM541.003 302.9H557.003C557.003 293.828 556.34 285.58 554.575 278.742L539.083 282.74L523.59 286.738C524.386 289.82 525.003 295.012 525.003 302.9H541.003ZM539.083 282.74L554.713 279.321C553.083 271.869 549.793 264.823 544.156 259.186L532.843 270.5L521.529 281.814C521.972 282.257 522.842 283.371 523.452 286.159L539.083 282.74ZM532.843 270.5L544.682 259.737C535.383 249.509 521.534 246.58 508.123 246.58V262.58V278.58C518.071 278.58 520.702 280.931 521.004 281.263L532.843 270.5ZM508.123 262.58V246.58C505.405 246.58 501.784 246.78 497.535 247.107L498.763 263.06L499.99 279.013C504.061 278.7 506.681 278.58 508.123 278.58V262.58ZM498.763 263.06H482.763V342.74H498.763H514.763V263.06H498.763ZM498.763 342.74L496.893 358.63C500.597 359.066 505.622 359.22 511.483 359.22V343.22V327.22C505.823 327.22 502.368 327.054 500.632 326.85L498.763 342.74ZM511.483 343.22V359.22C517.807 359.22 523.598 358.965 528.787 358.409L527.083 342.5L525.378 326.591C521.608 326.995 516.999 327.22 511.483 327.22V343.22ZM527.083 342.5L529.269 358.35C532.024 357.97 534.827 357.447 537.398 356.662C539.468 356.029 543.609 354.601 547.036 351.174L535.723 339.86L524.409 328.546C525.1 327.855 525.743 327.364 526.228 327.035C526.716 326.703 527.125 326.48 527.397 326.344C527.914 326.086 528.186 326.016 528.047 326.058C527.935 326.093 527.625 326.179 527.063 326.292C526.51 326.404 525.796 326.526 524.896 326.65L527.083 342.5ZM693.62 342.5V326.5C693.229 326.5 692.837 326.514 692.447 326.543L693.62 342.5ZM701.54 342.02L717.373 339.714C716.155 331.348 708.637 325.373 700.211 326.075L701.54 342.02ZM705.14 366.74L711.917 381.234C718.311 378.245 721.99 371.419 720.973 364.434L705.14 366.74ZM614.66 361.46L603.635 373.055C603.667 373.085 603.698 373.115 603.73 373.144L614.66 361.46ZM603.62 291.62L588.236 287.224C588.211 287.31 588.188 287.395 588.165 287.48L603.62 291.62ZM612.26 272.9L600.686 261.852C600.597 261.946 600.508 262.041 600.421 262.137L612.26 272.9ZM630.98 263.78L635.304 279.185V279.185L630.98 263.78ZM690.5 267.62L681.228 280.659L681.228 280.659L690.5 267.62ZM704.66 288.98L689.122 292.796C689.127 292.818 689.133 292.839 689.138 292.861L704.66 288.98ZM708.02 325.22L708.96 341.192C717.417 340.695 724.02 333.692 724.02 325.22H708.02ZM642.02 326.18V310.18C633.184 310.18 626.02 317.343 626.02 326.18H642.02ZM645.14 337.7L632.722 347.789C632.845 347.941 632.971 348.09 633.099 348.236L645.14 337.7ZM654.5 342.74L651.362 358.429C651.565 358.47 651.768 358.506 651.972 358.539L654.5 342.74ZM644.42 288.5L651.576 302.811C651.763 302.717 651.948 302.62 652.131 302.519L644.42 288.5ZM642.26 294.74L658.126 296.809V296.809L642.26 294.74ZM641.3 307.22L625.31 306.669C625.16 311.005 626.778 315.216 629.793 318.337C632.808 321.458 636.961 323.22 641.3 323.22V307.22ZM670.1 306.98L670.861 322.962C679.392 322.556 686.1 315.521 686.1 306.98H670.1ZM666.74 290.66L653.325 299.38C653.425 299.533 653.527 299.685 653.632 299.835L666.74 290.66ZM671.3 343.7V359.7C675.971 359.7 683.969 359.253 694.793 358.457L693.62 342.5L692.447 326.543C681.511 327.347 674.63 327.7 671.3 327.7V343.7ZM693.62 342.5V358.5C695.816 358.5 699.082 358.28 702.869 357.965L701.54 342.02L700.211 326.075C696.318 326.4 694.304 326.5 693.62 326.5V342.5ZM701.54 342.02L685.707 344.326L689.307 369.046L705.14 366.74L720.973 364.434L717.373 339.714L701.54 342.02ZM705.14 366.74L698.364 352.246C688.895 356.673 675.446 359.38 657.14 359.38V375.38V391.38C678.194 391.38 696.745 388.327 711.917 381.234L705.14 366.74ZM657.14 375.38V359.38C641.336 359.38 631.627 355.423 625.591 349.776L614.66 361.46L603.73 373.144C617.533 386.057 636.145 391.38 657.14 391.38V375.38ZM614.66 361.46L625.685 349.865C620.181 344.631 616.02 335.55 616.02 319.46H600.02H584.02C584.02 340.81 589.619 359.729 603.635 373.055L614.66 361.46ZM600.02 319.46H616.02C616.02 311.209 617.049 303.323 619.075 295.76L603.62 291.62L588.165 287.48C585.391 297.837 584.02 308.511 584.02 319.46H600.02ZM603.62 291.62L619.005 296.016C621.417 287.573 623.489 284.334 624.099 283.663L612.26 272.9L600.421 262.137C594.632 268.506 590.943 277.747 588.236 287.224L603.62 291.62ZM612.26 272.9L623.834 283.948C623.771 284.013 624.387 283.377 626.468 282.364C628.479 281.384 631.359 280.292 635.304 279.185L630.98 263.78L626.656 248.375C616.94 251.103 607.153 255.078 600.686 261.852L612.26 272.9ZM630.98 263.78L635.304 279.185C643.097 276.997 650.683 275.94 658.1 275.94V259.94V243.94C647.597 243.94 637.103 245.443 626.656 248.375L630.98 263.78ZM658.1 259.94V275.94C671.089 275.94 677.961 278.337 681.228 280.659L690.5 267.62L699.773 254.581C688.639 246.663 673.911 243.94 658.1 243.94V259.94ZM690.5 267.62L681.228 280.659C685.094 283.408 687.735 287.148 689.122 292.796L704.66 288.98L720.198 285.164C717.106 272.572 710.307 262.072 699.772 254.581L690.5 267.62ZM704.66 288.98L689.138 292.861C690.923 300.002 692.02 310.604 692.02 325.22H708.02H724.02C724.02 309.436 722.877 295.878 720.182 285.099L704.66 288.98ZM708.02 325.22L707.081 309.248C696.499 309.87 686.172 310.18 676.1 310.18V326.18V342.18C686.828 342.18 697.782 341.85 708.96 341.192L708.02 325.22ZM676.1 326.18V310.18H642.02V326.18V342.18H676.1V326.18ZM642.02 326.18H626.02C626.02 333.053 627.35 341.177 632.722 347.789L645.14 337.7L657.558 327.611C658.188 328.386 658.297 328.915 658.244 328.717C658.181 328.486 658.02 327.709 658.02 326.18H642.02ZM645.14 337.7L633.099 348.236C638.094 353.945 644.618 357.08 651.362 358.429L654.5 342.74L657.638 327.051C656.962 326.915 656.718 326.778 656.746 326.792C656.759 326.8 656.821 326.835 656.912 326.906C657.003 326.979 657.096 327.067 657.181 327.164L645.14 337.7ZM654.5 342.74L651.972 358.539C657.213 359.377 663.796 359.7 671.3 359.7V343.7V327.7C664.404 327.7 659.788 327.383 657.028 326.941L654.5 342.74ZM644.42 288.5L637.265 274.189C630.673 277.485 628.541 283.741 628.04 285.186C627.165 287.714 626.693 290.378 626.395 292.671L642.26 294.74L658.126 296.809C658.307 295.422 658.435 295.206 658.28 295.654C658.199 295.888 657.877 296.788 657.122 297.938C656.406 299.029 654.714 301.242 651.576 302.811L644.42 288.5ZM642.26 294.74L626.395 292.671C625.835 296.961 625.483 301.641 625.31 306.669L641.3 307.22L657.291 307.771C657.437 303.519 657.725 299.879 658.126 296.809L642.26 294.74ZM641.3 307.22V323.22H653.78V307.22V291.22H641.3V307.22ZM653.78 307.22V323.22C661.323 323.22 667.091 323.141 670.861 322.962L670.1 306.98L669.339 290.998C666.389 291.139 661.277 291.22 653.78 291.22V307.22ZM670.1 306.98H686.1C686.1 298.673 685.068 288.942 679.848 281.485L666.74 290.66L653.632 299.835C653.091 299.062 653.297 298.949 653.589 300.366C653.865 301.709 654.1 303.845 654.1 306.98H670.1ZM666.74 290.66L680.155 281.94C674.066 272.572 664.115 269.86 655.7 269.86V285.86V301.86C656.805 301.86 656.741 302.038 656.041 301.733C655.664 301.569 655.165 301.291 654.637 300.852C654.105 300.408 653.662 299.898 653.325 299.38L666.74 290.66ZM655.7 285.86V269.86C649.178 269.86 642.67 271.202 636.709 274.481L644.42 288.5L652.131 302.519C652.571 302.278 653.582 301.86 655.7 301.86V285.86ZM798.065 365.78L789.03 352.575C788.994 352.6 788.957 352.625 788.921 352.65L798.065 365.78ZM719.345 370.1L703.425 368.508C702.618 376.576 707.974 383.973 715.892 385.723L719.345 370.1ZM721.505 356.42L705.848 353.124C705.826 353.231 705.804 353.338 705.784 353.446L721.505 356.42ZM724.625 342.5L727.255 326.718C719.027 325.346 711.126 330.527 709.103 338.619L724.625 342.5ZM743.825 344.9L742.377 360.834C742.496 360.845 742.617 360.855 742.737 360.863L743.825 344.9ZM769.745 344.9L776.901 359.211C778.439 358.442 779.843 357.43 781.059 356.214L769.745 344.9ZM770.225 343.7L755.37 337.758C755.101 338.429 754.878 339.118 754.703 339.819L770.225 343.7ZM764.705 334.82L769.019 319.413C768.875 319.372 768.731 319.334 768.586 319.298L764.705 334.82ZM750.065 330.74L745.708 346.135V346.135L750.065 330.74ZM729.185 317.78L716.843 327.962C716.936 328.074 717.029 328.185 717.125 328.294L729.185 317.78ZM724.625 277.46L709.612 271.929V271.929L724.625 277.46ZM731.825 265.94L740.305 279.508C740.438 279.425 740.57 279.34 740.7 279.253L731.825 265.94ZM745.745 262.1L748.487 277.863C748.597 277.844 748.707 277.824 748.817 277.802L745.745 262.1ZM806.225 262.82H822.225C822.225 254.858 816.37 248.107 808.488 246.981L806.225 262.82ZM805.025 277.46L820.913 279.351C820.915 279.337 820.916 279.322 820.918 279.308L805.025 277.46ZM802.865 290.18L800.812 306.048C808.24 307.009 815.342 302.688 817.902 295.648L802.865 290.18ZM761.585 288.26L755.967 273.279C755.443 273.475 754.93 273.699 754.43 273.949L761.585 288.26ZM760.625 289.7L774.936 296.855C775.134 296.459 775.316 296.054 775.481 295.642L760.625 289.7ZM762.305 297.14L772.128 284.51C771.821 284.271 771.505 284.043 771.18 283.827L762.305 297.14ZM773.585 301.22L778.026 285.849C777.903 285.813 777.78 285.779 777.657 285.747L773.585 301.22ZM792.065 307.7L785.652 322.359C785.707 322.382 785.761 322.406 785.816 322.429L792.065 307.7ZM805.745 317.78L793.597 328.193C793.667 328.275 793.738 328.356 793.81 328.436L805.745 317.78ZM811.745 335.06H795.745C795.745 345.72 792.553 350.164 789.03 352.575L798.065 365.78L807.1 378.985C821.817 368.916 827.745 352.88 827.745 335.06H811.745ZM798.065 365.78L788.921 352.65C783.714 356.277 774.64 359.14 759.665 359.14V375.14V391.14C777.97 391.14 794.496 387.763 807.209 378.91L798.065 365.78ZM759.665 375.14V359.14C749.457 359.14 737.214 357.664 722.799 354.477L719.345 370.1L715.892 385.723C731.876 389.256 746.513 391.14 759.665 391.14V375.14ZM719.345 370.1L735.266 371.692C735.515 369.195 736.132 365.178 737.226 359.394L721.505 356.42L705.784 353.446C704.638 359.502 703.815 364.605 703.425 368.508L719.345 370.1ZM721.505 356.42L737.162 359.716C738.43 353.693 739.421 349.286 740.147 346.381L724.625 342.5L709.103 338.619C708.229 342.114 707.14 346.987 705.848 353.124L721.505 356.42ZM724.625 342.5L721.995 358.282C728.218 359.319 735.02 360.166 742.377 360.834L743.825 344.9L745.274 328.966C738.55 328.354 732.552 327.601 727.255 326.718L724.625 342.5ZM743.825 344.9L742.737 360.863C750.001 361.358 756.386 361.62 761.825 361.62V345.62V329.62C757.344 329.62 751.729 329.402 744.914 328.937L743.825 344.9ZM761.825 345.62V361.62C764.209 361.62 766.489 361.557 768.494 361.374C769.714 361.263 773.416 360.953 776.901 359.211L769.745 344.9L762.59 330.589C763.059 330.355 763.472 330.18 763.802 330.054C764.134 329.926 764.421 329.831 764.648 329.762C765.089 329.628 765.415 329.557 765.572 329.526C765.739 329.492 765.827 329.481 765.814 329.483C765.804 329.484 765.735 329.493 765.597 329.506C765.31 329.532 764.856 329.562 764.199 329.585C763.55 329.607 762.763 329.62 761.825 329.62V345.62ZM769.745 344.9L781.059 356.214C783.5 353.772 784.552 351.144 784.841 350.422C785.291 349.298 785.574 348.276 785.747 347.581L770.225 343.7L754.703 339.819C754.717 339.764 754.84 339.262 755.13 338.538C755.279 338.163 755.548 337.541 755.973 336.797C756.366 336.109 757.14 334.878 758.431 333.586L769.745 344.9ZM770.225 343.7L785.081 349.642C786.098 347.099 786.705 344.288 786.705 341.3H770.705H754.705C754.705 339.912 754.992 338.701 755.37 337.758L770.225 343.7ZM770.705 341.3H786.705C786.705 336.052 784.933 330.716 780.945 326.409C777.274 322.444 772.751 320.458 769.019 319.413L764.705 334.82L760.391 350.227C760.659 350.302 759.137 349.956 757.465 348.151C755.477 346.004 754.705 343.348 754.705 341.3H770.705ZM764.705 334.82L768.586 319.298C767.614 319.055 763.065 317.791 754.422 315.345L750.065 330.74L745.708 346.135C754.026 348.489 759.236 349.945 760.825 350.342L764.705 334.82ZM750.065 330.74L754.422 315.345C748.727 313.733 744.512 311.012 741.245 307.266L729.185 317.78L717.125 328.294C724.739 337.028 734.443 342.947 745.708 346.135L750.065 330.74ZM729.185 317.78L741.527 307.598C738.935 304.456 737.265 300.286 737.265 294.02H721.265H705.265C705.265 306.634 708.875 318.304 716.843 327.962L729.185 317.78ZM721.265 294.02H737.265C737.265 291.427 737.862 287.814 739.639 282.991L724.625 277.46L709.612 271.929C706.908 279.266 705.265 286.693 705.265 294.02H721.265ZM724.625 277.46L739.639 282.991C740.527 280.581 741.244 279.186 741.673 278.5C741.874 278.179 741.916 278.167 741.758 278.34C741.603 278.511 741.137 278.988 740.305 279.508L731.825 265.94L723.345 252.372C719.234 254.941 716.436 258.501 714.537 261.54C712.566 264.694 710.964 268.259 709.612 271.929L724.625 277.46ZM731.825 265.94L740.7 279.253C739.86 279.813 739.348 279.98 739.592 279.885C739.754 279.822 740.192 279.667 741 279.444C742.629 278.995 745.071 278.457 748.487 277.863L745.745 262.1L743.004 246.337C739.059 247.023 735.502 247.765 732.49 248.596C729.911 249.308 726.165 250.484 722.95 252.627L731.825 265.94ZM745.745 262.1L748.817 277.802C755.361 276.522 761.118 275.94 766.145 275.94V259.94V243.94C758.692 243.94 750.85 244.798 742.673 246.398L745.745 262.1ZM766.145 259.94V275.94C778.651 275.94 791.255 276.844 803.962 278.659L806.225 262.82L808.488 246.981C794.315 244.956 780.199 243.94 766.145 243.94V259.94ZM806.225 262.82H790.225C790.225 264.677 789.932 268.733 789.132 275.612L805.025 277.46L820.918 279.308C821.718 272.427 822.225 266.723 822.225 262.82H806.225ZM805.025 277.46L789.137 275.569C788.753 278.796 788.409 281.246 788.111 283.001C787.962 283.877 787.842 284.479 787.756 284.858C787.653 285.311 787.661 285.174 787.828 284.712L802.865 290.18L817.902 295.648C818.76 293.287 819.291 290.53 819.659 288.359C820.081 285.874 820.497 282.844 820.913 279.351L805.025 277.46ZM802.865 290.18L804.919 274.312C791.013 272.513 779.288 271.54 769.985 271.54V287.54V303.54C777.323 303.54 787.517 304.327 800.812 306.048L802.865 290.18ZM769.985 287.54V271.54C767.583 271.54 765.305 271.605 763.279 271.778C761.618 271.921 758.765 272.229 755.967 273.279L761.585 288.26L767.203 303.241C766.691 303.433 766.291 303.544 766.061 303.602C765.822 303.663 765.663 303.692 765.611 303.702C765.521 303.717 765.631 303.694 766.012 303.662C766.785 303.595 768.067 303.54 769.985 303.54V287.54ZM761.585 288.26L754.43 273.949C750.696 275.816 748.647 278.583 747.792 279.865C746.797 281.358 746.16 282.78 745.77 283.758L760.625 289.7L775.481 295.642C775.41 295.82 775.093 296.602 774.418 297.615C773.883 298.417 772.154 300.864 768.74 302.571L761.585 288.26ZM760.625 289.7L746.314 282.545C744.43 286.313 744.145 290 744.145 292.34H760.145H776.145C776.145 292.511 776.135 292.997 776.007 293.702C775.88 294.399 775.598 295.53 774.936 296.855L760.625 289.7ZM760.145 292.34H744.145C744.145 298.166 746.248 305.665 753.43 310.453L762.305 297.14L771.18 283.827C772.998 285.039 774.42 286.753 775.276 288.654C776.064 290.406 776.145 291.8 776.145 292.34H760.145ZM762.305 297.14L752.482 309.77C755.345 311.996 758.727 313.31 760.763 314.046C763.271 314.953 766.24 315.832 769.513 316.693L773.585 301.22L777.657 285.747C774.851 285.008 772.899 284.407 771.647 283.954C771.351 283.847 771.124 283.759 770.958 283.691C770.877 283.658 770.815 283.631 770.772 283.612C770.75 283.603 770.734 283.596 770.723 283.591C770.713 283.586 770.707 283.583 770.708 283.583C770.708 283.583 770.715 283.587 770.727 283.593C770.739 283.599 770.758 283.609 770.784 283.622C770.833 283.648 770.915 283.692 771.024 283.756C771.221 283.871 771.621 284.116 772.128 284.51L762.305 297.14ZM773.585 301.22L769.145 316.591C775.883 318.538 781.347 320.475 785.652 322.359L792.065 307.7L798.478 293.041C792.543 290.445 785.687 288.062 778.026 285.849L773.585 301.22ZM792.065 307.7L785.816 322.429C788.757 323.677 791.316 325.532 793.597 328.193L805.745 317.78L817.893 307.367C812.494 301.068 805.934 296.203 798.314 292.971L792.065 307.7ZM805.745 317.78L793.81 328.436C794.751 329.49 795.745 331.233 795.745 335.06H811.745H827.745C827.745 324.807 824.74 315.03 817.68 307.124L805.745 317.78ZM876.476 336.26L860.496 337.059C860.496 337.073 860.497 337.087 860.498 337.101L876.476 336.26ZM877.916 342.02L866.602 353.334L877.916 342.02ZM889.676 343.7V359.7C889.833 359.7 889.989 359.698 890.146 359.693L889.676 343.7ZM897.836 343.46L913.562 340.511C912.11 332.769 905.239 327.235 897.365 327.467L897.836 343.46ZM899.996 370.1L905.527 385.113C911.817 382.796 915.996 376.803 915.996 370.1H899.996ZM886.556 373.22L883.995 357.426C883.972 357.43 883.948 357.434 883.925 357.438L886.556 373.22ZM844.316 367.46L834.04 379.724C834.159 379.824 834.28 379.922 834.401 380.018L844.316 367.46ZM835.436 285.62H851.436C851.436 276.783 844.272 269.62 835.436 269.62V285.62ZM817.436 285.62H801.436C801.436 294.457 808.599 301.62 817.436 301.62V285.62ZM817.436 263.78L815.949 247.849C807.724 248.617 801.436 255.519 801.436 263.78H817.436ZM835.436 262.1L836.923 278.031C842.855 277.477 847.988 273.673 850.245 268.158L835.436 262.1ZM846.236 235.7L845.341 219.725C839.179 220.07 833.764 223.929 831.427 229.642L846.236 235.7ZM876.236 234.02H892.236C892.236 229.621 890.425 225.416 887.229 222.394C884.032 219.372 879.733 217.799 875.341 218.045L876.236 234.02ZM876.236 262.1H860.236C860.236 270.937 867.399 278.1 876.236 278.1V262.1ZM901.676 262.1H917.676C917.676 253.263 910.512 246.1 901.676 246.1V262.1ZM901.676 285.62V301.62C910.512 301.62 917.676 294.457 917.676 285.62H901.676ZM876.236 285.62V269.62C867.399 269.62 860.236 276.783 860.236 285.62H876.236ZM876.236 327.14H860.236C860.236 330.314 860.324 333.622 860.496 337.059L876.476 336.26L892.456 335.461C892.308 332.498 892.236 329.726 892.236 327.14H876.236ZM876.476 336.26L860.498 337.101C860.606 339.162 860.849 341.524 861.433 343.861C861.918 345.797 863.134 349.865 866.602 353.334L877.916 342.02L889.229 330.706C890.686 332.163 891.469 333.582 891.853 334.397C892.249 335.24 892.42 335.867 892.478 336.099C892.582 336.516 892.505 336.398 892.454 335.419L876.476 336.26ZM877.916 342.02L866.602 353.334C869.445 356.177 872.631 357.404 874.221 357.934C876.087 358.556 877.917 358.903 879.433 359.119C882.481 359.555 886.002 359.7 889.676 359.7V343.7V327.7C888.208 327.7 886.991 327.669 886.002 327.617C884.997 327.564 884.338 327.495 883.958 327.441C883.515 327.377 883.734 327.374 884.34 327.576C884.665 327.684 885.281 327.911 886.053 328.326C886.803 328.73 887.992 329.469 889.229 330.706L877.916 342.02ZM889.676 343.7L890.146 359.693L898.306 359.453L897.836 343.46L897.365 327.467L889.205 327.707L889.676 343.7ZM897.836 343.46L882.11 346.409C883.324 352.884 883.996 360.741 883.996 370.1H899.996H915.996C915.996 359.299 915.228 349.396 913.562 340.511L897.836 343.46ZM899.996 370.1L894.464 355.087C892.879 355.67 889.601 356.517 883.995 357.426L886.556 373.22L889.117 389.014C895.35 388.003 901.032 386.77 905.527 385.113L899.996 370.1ZM886.556 373.22L883.925 357.438C878.945 358.268 874.308 358.66 869.996 358.66V374.66V390.66C876.244 390.66 882.647 390.092 889.186 389.002L886.556 373.22ZM869.996 374.66V358.66C861.061 358.66 856.504 356.697 854.23 354.902L844.316 367.46L834.401 380.018C844.288 387.823 856.85 390.66 869.996 390.66V374.66ZM844.316 367.46L854.591 355.196C853.395 354.193 851.436 351.81 851.436 344.66H835.436H819.436C819.436 357.99 823.397 370.807 834.04 379.724L844.316 367.46ZM835.436 344.66H851.436V285.62H835.436H819.436V344.66H835.436ZM835.436 285.62V269.62H817.436V285.62V301.62H835.436V285.62ZM817.436 285.62H833.436V263.78H817.436H801.436V285.62H817.436ZM817.436 263.78L818.923 279.711L836.923 278.031L835.436 262.1L833.949 246.169L815.949 247.849L817.436 263.78ZM835.436 262.1L850.245 268.158L861.044 241.758L846.236 235.7L831.427 229.642L820.627 256.042L835.436 262.1ZM846.236 235.7L847.13 251.675L877.13 249.995L876.236 234.02L875.341 218.045L845.341 219.725L846.236 235.7ZM876.236 234.02H860.236V262.1H876.236H892.236V234.02H876.236ZM876.236 262.1V278.1H901.676V262.1V246.1H876.236V262.1ZM901.676 262.1H885.676V285.62H901.676H917.676V262.1H901.676ZM901.676 285.62V269.62H876.236V285.62V301.62H901.676V285.62ZM876.236 285.62H860.236V327.14H876.236H892.236V285.62H876.236ZM979.709 372.5L964.202 376.438C966.004 383.533 972.39 388.5 979.709 388.5V372.5ZM975.87 357.38L991.377 353.442C989.794 347.207 984.631 342.527 978.272 341.561C971.913 340.596 965.593 343.532 962.23 349.015L975.87 357.38ZM918.75 366.5L908.015 378.365C908.113 378.454 908.213 378.542 908.314 378.628L918.75 366.5ZM914.43 323.54L901.821 313.69C901.807 313.708 901.792 313.727 901.778 313.745L914.43 323.54ZM930.75 312.74L926.354 297.356C926.276 297.378 926.197 297.401 926.119 297.425L930.75 312.74ZM972.27 308.42L972.543 324.418C981.272 324.268 988.27 317.15 988.27 308.42H972.27ZM970.83 291.62L960.834 304.114C961.196 304.403 961.569 304.676 961.954 304.933L970.83 291.62ZM951.87 291.14L952.536 307.126C952.668 307.121 952.801 307.113 952.934 307.105L951.87 291.14ZM920.669 293.78L904.842 296.125C906.103 304.633 913.865 310.623 922.415 309.684L920.669 293.78ZM917.789 265.94L914.538 250.274C906.732 251.894 901.309 259.014 901.823 266.97L917.789 265.94ZM944.43 261.62L946.347 277.505C946.436 277.494 946.526 277.482 946.616 277.47L944.43 261.62ZM998.19 266.18L989.238 279.442C989.315 279.493 989.392 279.545 989.47 279.595L998.19 266.18ZM1010.67 282.74L1026.08 278.439V278.439L1010.67 282.74ZM1013.31 308.9L997.311 308.658C997.311 308.702 997.31 308.747 997.31 308.791L1013.31 308.9ZM1013.07 344.18L997.07 344.071C997.069 344.243 997.07 344.415 997.075 344.587L1013.07 344.18ZM1013.79 372.5V388.5C1018.1 388.5 1022.23 386.758 1025.25 383.669C1028.26 380.58 1029.89 376.406 1029.78 372.093L1013.79 372.5ZM972.27 346.1L977.485 361.226C983.939 359.001 988.27 352.926 988.27 346.1H972.27ZM972.27 328.34H988.27C988.27 319.503 981.106 312.34 972.27 312.34V328.34ZM950.669 330.26L939.356 318.946V318.946L950.669 330.26ZM948.75 333.86L933.424 329.262C933.28 329.743 933.159 330.23 933.06 330.722L948.75 333.86ZM950.909 346.34L940.778 358.723H940.778L950.909 346.34ZM979.709 372.5L995.217 368.562L991.377 353.442L975.87 357.38L960.362 361.318L964.202 376.438L979.709 372.5ZM975.87 357.38L962.23 349.015C957.524 356.689 952.232 359.38 945.15 359.38V375.38V391.38C964.307 391.38 979.495 382.071 989.508 365.745L975.87 357.38ZM945.15 375.38V359.38C937.53 359.38 932.653 357.356 929.185 354.372L918.75 366.5L908.314 378.628C918.606 387.484 931.329 391.38 945.15 391.38V375.38ZM918.75 366.5L929.484 354.635C926.784 352.193 924.669 348.405 924.669 341.06H908.669H892.669C892.669 355.475 897.275 368.647 908.015 378.365L918.75 366.5ZM908.669 341.06H924.669C924.669 337.616 925.571 335.285 927.081 333.335L914.43 323.54L901.778 313.745C895.608 321.715 892.669 331.064 892.669 341.06H908.669ZM914.43 323.54L927.038 333.39C928.791 331.146 931.308 329.286 935.38 328.055L930.75 312.74L926.119 297.425C916.431 300.354 908.068 305.694 901.821 313.69L914.43 323.54ZM930.75 312.74L935.145 328.124C942.006 326.164 954.112 324.733 972.543 324.418L972.27 308.42L971.996 292.422C952.987 292.747 937.413 294.196 926.354 297.356L930.75 312.74ZM972.27 308.42H988.27C988.27 303.005 988.15 298.423 987.851 294.934C987.707 293.252 987.48 291.296 987.05 289.432C986.84 288.524 986.465 287.11 985.775 285.565C985.277 284.45 983.626 280.922 979.705 278.307L970.83 291.62L961.954 304.933C959.953 303.599 958.693 302.09 957.984 301.098C957.255 300.077 956.809 299.179 956.559 298.62C956.079 297.545 955.899 296.756 955.869 296.628C955.799 296.324 955.872 296.548 955.968 297.666C956.149 299.777 956.27 303.275 956.27 308.42H972.27ZM970.83 291.62L980.825 279.126C978.195 277.023 975.518 276.165 974.295 275.816C972.809 275.391 971.404 275.162 970.294 275.024C968.065 274.745 965.595 274.66 963.149 274.66V290.66V306.66C965.024 306.66 965.994 306.735 966.325 306.776C966.495 306.798 966.15 306.769 965.504 306.584C965.164 306.487 964.582 306.302 963.862 305.977C963.169 305.664 962.056 305.091 960.834 304.114L970.83 291.62ZM963.149 290.66V274.66C959.905 274.66 955.735 274.847 950.805 275.175L951.87 291.14L952.934 307.105C957.604 306.793 960.954 306.66 963.149 306.66V290.66ZM951.87 291.14L951.203 275.154C942.997 275.496 932.188 276.42 918.924 277.876L920.669 293.78L922.415 309.684C935.391 308.26 945.382 307.424 952.536 307.126L951.87 291.14ZM920.669 293.78L936.497 291.435C935.289 283.286 934.372 274.449 933.756 264.91L917.789 265.94L901.823 266.97C902.487 277.271 903.49 286.994 904.842 296.125L920.669 293.78ZM917.789 265.94L921.041 281.606C929.046 279.945 937.479 278.575 946.347 277.505L944.43 261.62L942.512 245.735C932.82 246.905 923.493 248.415 914.538 250.274L917.789 265.94ZM944.43 261.62L946.616 277.47C955.356 276.264 962.926 275.7 969.39 275.7V259.7V243.7C961.133 243.7 952.063 244.416 942.243 245.77L944.43 261.62ZM969.39 259.7V275.7C980.892 275.7 986.705 277.732 989.238 279.442L998.19 266.18L1007.14 252.918C996.874 245.988 983.487 243.7 969.39 243.7V259.7ZM998.19 266.18L989.47 279.595C992.848 281.791 994.461 284.183 995.258 287.041L1010.67 282.74L1026.08 278.439C1023.04 267.537 1016.33 258.889 1006.91 252.765L998.19 266.18ZM1010.67 282.74L995.258 287.041C996.62 291.919 997.458 298.973 997.311 308.658L1013.31 308.9L1029.31 309.142C1029.48 297.707 1028.56 287.321 1026.08 278.439L1010.67 282.74ZM1013.31 308.9L997.31 308.791L997.07 344.071L1013.07 344.18L1029.07 344.289L1029.31 309.009L1013.31 308.9ZM1013.07 344.18L997.075 344.587L997.795 372.907L1013.79 372.5L1029.78 372.093L1029.06 343.773L1013.07 344.18ZM1013.79 372.5V356.5H979.709V372.5V388.5H1013.79V372.5ZM959.07 348.5V364.5C965.291 364.5 971.462 363.303 977.485 361.226L972.27 346.1L967.054 330.974C963.797 332.097 961.168 332.5 959.07 332.5V348.5ZM972.27 346.1H988.27V328.34H972.27H956.27V346.1H972.27ZM972.27 328.34V312.34H970.349V328.34V344.34H972.27V328.34ZM970.349 328.34V312.34C964.249 312.34 959.045 312.501 954.996 312.896C953.007 313.09 950.849 313.381 948.814 313.879C947.701 314.152 943.088 315.214 939.356 318.946L950.669 330.26L961.983 341.574C960.135 343.422 958.33 344.245 957.727 344.505C956.973 344.829 956.468 344.95 956.425 344.961C956.35 344.979 956.812 344.87 958.103 344.744C960.614 344.499 964.61 344.34 970.349 344.34V328.34ZM950.669 330.26L939.356 318.946C936.002 322.3 934.329 326.245 933.424 329.262L948.75 333.86L964.075 338.458C964.073 338.465 964.049 338.542 963.995 338.677C963.941 338.812 963.85 339.022 963.707 339.289C963.429 339.81 962.898 340.659 961.983 341.574L950.669 330.26ZM948.75 333.86L933.06 330.722C932.56 333.221 932.27 335.798 932.27 338.42H948.27H964.27C964.27 338.162 964.299 337.699 964.439 336.998L948.75 333.86ZM948.27 338.42H932.27C932.27 343.852 933.383 352.673 940.778 358.723L950.909 346.34L961.041 333.957C962.977 335.54 963.807 337.315 964.108 338.22C964.375 339.02 964.27 339.225 964.27 338.42H948.27ZM950.909 346.34L940.778 358.723C946.695 363.565 953.823 364.5 959.07 364.5V348.5V332.5C958.213 332.5 958.051 332.41 958.364 332.493C958.703 332.582 959.784 332.928 961.041 333.957L950.909 346.34ZM1141.52 267.14H1157.52C1157.52 259.872 1152.62 253.517 1145.59 251.667L1141.52 267.14ZM1141.52 406.1L1142.17 422.087C1150.75 421.736 1157.52 414.682 1157.52 406.1H1141.52ZM1100.48 407.78H1084.48C1084.48 412.137 1086.26 416.306 1089.4 419.323C1092.54 422.34 1096.78 423.945 1101.13 423.767L1100.48 407.78ZM1104.08 354.74L1119.43 359.255C1121.41 352.536 1118.78 345.312 1112.96 341.427L1104.08 354.74ZM1103.36 354.26L1112.24 340.947C1108.52 338.469 1103.93 337.658 1099.59 338.71C1095.25 339.763 1091.54 342.584 1089.37 346.49L1103.36 354.26ZM1087.76 369.62L1094.33 384.211C1094.43 384.166 1094.53 384.12 1094.63 384.072L1087.76 369.62ZM1039.52 360.74L1027.37 371.153C1027.4 371.189 1027.43 371.225 1027.47 371.261L1039.52 360.74ZM1032.56 287.78L1047.84 292.538V292.538L1032.56 287.78ZM1043.6 268.82L1034.83 255.437C1034.8 255.46 1034.76 255.484 1034.72 255.507L1043.6 268.82ZM1062.56 262.1L1065.39 277.847V277.847L1062.56 262.1ZM1100.48 338.42L1104.81 353.822C1111.71 351.882 1116.48 345.588 1116.48 338.42H1100.48ZM1100.48 288.26H1116.48C1116.48 280.439 1110.83 273.764 1103.11 272.478L1100.48 288.26ZM1091.84 287.3L1090.07 303.202C1090.22 303.218 1090.37 303.233 1090.51 303.245L1091.84 287.3ZM1074.8 288.98L1088.26 297.632C1088.3 297.575 1088.33 297.518 1088.37 297.46L1074.8 288.98ZM1071.44 301.22L1087.28 303.483C1087.29 303.443 1087.29 303.403 1087.3 303.363L1071.44 301.22ZM1088.48 259.94V275.94C1104.09 275.94 1120.4 278.128 1137.45 282.613L1141.52 267.14L1145.59 251.667C1126.16 246.552 1107.11 243.94 1088.48 243.94V259.94ZM1141.52 267.14H1125.52V406.1H1141.52H1157.52V267.14H1141.52ZM1141.52 406.1L1140.87 390.113L1099.83 391.793L1100.48 407.78L1101.13 423.767L1142.17 422.087L1141.52 406.1ZM1100.48 407.78H1116.48V376.1H1100.48H1084.48V407.78H1100.48ZM1100.48 376.1H1116.48C1116.48 372.021 1117.3 366.485 1119.43 359.255L1104.08 354.74L1088.73 350.225C1086.06 359.315 1084.48 368.019 1084.48 376.1H1100.48ZM1104.08 354.74L1112.96 341.427L1112.24 340.947L1103.36 354.26L1094.48 367.573L1095.2 368.053L1104.08 354.74ZM1103.36 354.26L1089.37 346.49C1086.72 351.264 1083.81 353.781 1080.9 355.168L1087.76 369.62L1094.63 384.072C1104.51 379.379 1112 371.656 1117.35 362.03L1103.36 354.26ZM1087.76 369.62L1081.19 355.029C1076.35 357.208 1072.6 357.94 1069.76 357.94V373.94V389.94C1078.12 389.94 1086.37 387.792 1094.33 384.211L1087.76 369.62ZM1069.76 373.94V357.94C1061.54 357.94 1055.99 355.277 1051.57 350.219L1039.52 360.74L1027.47 371.261C1038.41 383.803 1053.02 389.94 1069.76 389.94V373.94ZM1039.52 360.74L1051.67 350.327C1047.48 345.444 1044 336.426 1044 320.42H1028H1012C1012 340.254 1016.2 358.116 1027.37 371.153L1039.52 360.74ZM1028 320.42H1044C1044 309.76 1045.35 300.517 1047.84 292.538L1032.56 287.78L1017.28 283.022C1013.69 294.563 1012 307.08 1012 320.42H1028ZM1032.56 287.78L1047.84 292.538C1049.13 288.39 1050.38 285.572 1051.43 283.771C1052.51 281.913 1053 281.783 1052.48 282.133L1043.6 268.82L1034.72 255.507C1025.54 261.628 1020.52 272.646 1017.28 283.022L1032.56 287.78ZM1043.6 268.82L1052.37 282.203C1054.58 280.757 1058.61 279.068 1065.39 277.847L1062.56 262.1L1059.73 246.353C1050.51 248.012 1041.9 250.803 1034.83 255.437L1043.6 268.82ZM1062.56 262.1L1065.39 277.847C1072.34 276.597 1080.02 275.94 1088.48 275.94V259.94V243.94C1078.38 243.94 1068.78 244.723 1059.73 246.353L1062.56 262.1ZM1087.04 340.58V356.58C1092.79 356.58 1098.78 355.519 1104.81 353.822L1100.48 338.42L1096.15 323.018C1091.94 324.201 1088.97 324.58 1087.04 324.58V340.58ZM1100.48 338.42H1116.48V288.26H1100.48H1084.48V338.42H1100.48ZM1100.48 288.26L1103.11 272.478C1100.52 272.046 1097.11 271.684 1093.17 271.355L1091.84 287.3L1090.51 303.245C1094.25 303.556 1096.6 303.834 1097.85 304.042L1100.48 288.26ZM1091.84 287.3L1093.61 271.398C1091.26 271.137 1088.37 271.06 1085.36 271.06V287.06V303.06C1088.11 303.06 1089.54 303.143 1090.07 303.202L1091.84 287.3ZM1085.36 287.06V271.06C1081.87 271.06 1078.33 271.225 1075.18 271.798C1073.62 272.082 1071.55 272.57 1069.41 273.519C1067.48 274.378 1063.83 276.34 1061.23 280.5L1074.8 288.98L1088.37 297.46C1087.23 299.284 1085.91 300.514 1084.88 301.289C1083.87 302.057 1082.97 302.511 1082.41 302.761C1081.35 303.23 1080.7 303.318 1080.9 303.282C1081.27 303.215 1082.61 303.06 1085.36 303.06V287.06ZM1074.8 288.98L1061.34 280.328C1057.83 285.797 1056.4 293.027 1055.58 299.077L1071.44 301.22L1087.3 303.363C1087.64 300.846 1088 299.093 1088.31 297.955C1088.46 297.4 1088.57 297.106 1088.61 297.012C1088.65 296.902 1088.56 297.161 1088.26 297.632L1074.8 288.98ZM1071.44 301.22L1055.6 298.957C1054.7 305.254 1054.24 311.451 1054.24 317.54H1070.24H1086.24C1086.24 313.069 1086.58 308.386 1087.28 303.483L1071.44 301.22ZM1070.24 317.54H1054.24C1054.24 326.729 1055.57 337.203 1061.66 345.083L1074.32 335.3L1086.98 325.517C1087.45 326.128 1087.19 326.12 1086.85 324.638C1086.52 323.194 1086.24 320.904 1086.24 317.54H1070.24ZM1074.32 335.3L1061.66 345.083C1068.27 353.632 1077.92 356.58 1087.04 356.58V340.58V324.58C1085.75 324.58 1085.42 324.378 1085.67 324.483C1085.81 324.539 1086.04 324.657 1086.32 324.863C1086.59 325.071 1086.81 325.302 1086.98 325.517L1074.32 335.3ZM1271.38 262.1H1287.38C1287.38 253.263 1280.22 246.1 1271.38 246.1V262.1ZM1271.38 372.5V388.5C1280.22 388.5 1287.38 381.337 1287.38 372.5H1271.38ZM1238.02 372.5L1222.49 376.333C1224.25 383.479 1230.66 388.5 1238.02 388.5V372.5ZM1233.46 354.02L1248.99 350.187C1247.55 344.32 1242.92 339.769 1237.03 338.422C1231.13 337.076 1224.99 339.163 1221.13 343.819L1233.46 354.02ZM1175.86 372.5L1170.95 387.727C1171 387.742 1171.04 387.757 1171.09 387.772L1175.86 372.5ZM1164.58 365.54L1152.2 375.672C1152.25 375.73 1152.29 375.788 1152.34 375.846L1164.58 365.54ZM1161.22 352.34L1145.29 353.789C1145.3 353.908 1145.31 354.027 1145.32 354.147L1161.22 352.34ZM1160.26 262.1V246.1C1151.42 246.1 1144.26 253.263 1144.26 262.1H1160.26ZM1201.3 262.1H1217.3C1217.3 253.263 1210.14 246.1 1201.3 246.1V262.1ZM1202.98 339.14L1216.09 329.965C1216.06 329.923 1216.03 329.882 1216 329.84L1202.98 339.14ZM1212.58 341.54V357.54C1212.91 357.54 1213.25 357.53 1213.58 357.509L1212.58 341.54ZM1216.42 341.3L1215.85 325.31C1215.71 325.315 1215.56 325.322 1215.42 325.331L1216.42 341.3ZM1230.34 338.18L1236.28 353.036C1242.36 350.606 1246.34 344.722 1246.34 338.18H1230.34ZM1230.34 262.1V246.1C1221.5 246.1 1214.34 253.263 1214.34 262.1H1230.34ZM1271.38 262.1H1255.38V372.5H1271.38H1287.38V262.1H1271.38ZM1271.38 372.5V356.5H1238.02V372.5V388.5H1271.38V372.5ZM1238.02 372.5L1253.55 368.667L1248.99 350.187L1233.46 354.02L1217.93 357.853L1222.49 376.333L1238.02 372.5ZM1233.46 354.02L1221.13 343.819C1212.21 354.6 1202.76 358.9 1192.18 358.9V374.9V390.9C1213.6 390.9 1231.67 381.28 1245.79 364.221L1233.46 354.02ZM1192.18 374.9V358.9C1187.92 358.9 1184.1 358.311 1180.63 357.228L1175.86 372.5L1171.09 387.772C1177.86 389.889 1184.92 390.9 1192.18 390.9V374.9ZM1175.86 372.5L1180.77 357.273C1177.8 356.313 1176.93 355.367 1176.82 355.234L1164.58 365.54L1152.34 375.846C1157.35 381.793 1164 385.487 1170.95 387.727L1175.86 372.5ZM1164.58 365.54L1176.96 355.408C1177.94 356.595 1178.31 357.521 1178.34 357.585C1178.4 357.729 1178.32 357.573 1178.17 356.973C1177.86 355.752 1177.48 353.684 1177.12 350.533L1161.22 352.34L1145.32 354.147C1145.77 358.036 1146.35 361.688 1147.16 364.867C1147.83 367.516 1149.15 371.946 1152.2 375.672L1164.58 365.54ZM1161.22 352.34L1177.16 350.891C1176.58 344.606 1176.26 334.484 1176.26 320.18H1160.26H1144.26C1144.26 334.676 1144.58 345.994 1145.29 353.789L1161.22 352.34ZM1160.26 320.18H1176.26V262.1H1160.26H1144.26V320.18H1160.26ZM1160.26 262.1V278.1H1201.3V262.1V246.1H1160.26V262.1ZM1201.3 262.1H1185.3V319.7H1201.3H1217.3V262.1H1201.3ZM1201.3 319.7H1185.3C1185.3 323.152 1185.39 327.118 1185.55 331.572L1201.54 330.98L1217.53 330.388C1217.37 326.202 1217.3 322.648 1217.3 319.7H1201.3ZM1201.54 330.98L1185.55 331.572C1185.65 334.106 1185.85 336.673 1186.26 339.041C1186.58 340.849 1187.37 344.817 1189.96 348.44L1202.98 339.14L1216 329.84C1216.56 330.62 1216.92 331.309 1217.16 331.796C1217.39 332.29 1217.54 332.688 1217.62 332.94C1217.78 333.418 1217.81 333.644 1217.78 333.479C1217.75 333.343 1217.71 333.022 1217.66 332.471C1217.61 331.931 1217.56 331.242 1217.53 330.388L1201.54 330.98ZM1202.98 339.14L1189.87 348.315C1193.73 353.824 1199.37 355.721 1202.34 356.462C1205.73 357.311 1209.31 357.54 1212.58 357.54V341.54V325.54C1210.57 325.54 1209.91 325.369 1210.1 325.418C1210.24 325.452 1210.97 325.64 1211.98 326.203C1213.02 326.778 1214.66 327.922 1216.09 329.965L1202.98 339.14ZM1212.58 341.54L1213.58 357.509L1217.42 357.269L1216.42 341.3L1215.42 325.331L1211.58 325.571L1212.58 341.54ZM1216.42 341.3L1216.99 357.29C1223.57 357.055 1230.03 355.537 1236.28 353.036L1230.34 338.18L1224.4 323.324C1221.05 324.663 1218.23 325.225 1215.85 325.31L1216.42 341.3ZM1230.34 338.18H1246.34V262.1H1230.34H1214.34V338.18H1230.34ZM1230.34 262.1V278.1H1271.38V262.1V246.1H1230.34V262.1ZM1380.34 342.5V326.5C1379.95 326.5 1379.56 326.514 1379.17 326.543L1380.34 342.5ZM1388.26 342.02L1404.09 339.714C1402.87 331.348 1395.36 325.373 1386.93 326.075L1388.26 342.02ZM1391.86 366.74L1398.64 381.234C1405.03 378.245 1408.71 371.419 1407.69 364.434L1391.86 366.74ZM1301.38 361.46L1290.35 373.055C1290.39 373.085 1290.42 373.115 1290.45 373.144L1301.38 361.46ZM1290.34 291.62L1274.95 287.224C1274.93 287.31 1274.91 287.395 1274.88 287.48L1290.34 291.62ZM1298.98 272.9L1287.41 261.852C1287.32 261.946 1287.23 262.041 1287.14 262.137L1298.98 272.9ZM1317.7 263.78L1322.02 279.185V279.185L1317.7 263.78ZM1377.22 267.62L1367.95 280.659L1367.95 280.659L1377.22 267.62ZM1391.38 288.98L1375.84 292.796C1375.85 292.818 1375.85 292.839 1375.86 292.861L1391.38 288.98ZM1394.74 325.22L1395.68 341.192C1404.14 340.695 1410.74 333.692 1410.74 325.22H1394.74ZM1328.74 326.18V310.18C1319.9 310.18 1312.74 317.343 1312.74 326.18H1328.74ZM1331.86 337.7L1319.44 347.789C1319.56 347.941 1319.69 348.09 1319.82 348.236L1331.86 337.7ZM1341.22 342.74L1338.08 358.429C1338.28 358.47 1338.49 358.506 1338.69 358.539L1341.22 342.74ZM1331.14 288.5L1338.29 302.811C1338.48 302.717 1338.67 302.62 1338.85 302.519L1331.14 288.5ZM1328.98 294.74L1344.84 296.809V296.809L1328.98 294.74ZM1328.02 307.22L1312.03 306.669C1311.88 311.005 1313.5 315.216 1316.51 318.337C1319.53 321.458 1323.68 323.22 1328.02 323.22V307.22ZM1356.82 306.98L1357.58 322.962C1366.11 322.556 1372.82 315.521 1372.82 306.98H1356.82ZM1353.46 290.66L1340.04 299.38C1340.14 299.533 1340.25 299.685 1340.35 299.835L1353.46 290.66ZM1358.02 343.7V359.7C1362.69 359.7 1370.69 359.253 1381.51 358.457L1380.34 342.5L1379.17 326.543C1368.23 327.347 1361.35 327.7 1358.02 327.7V343.7ZM1380.34 342.5V358.5C1382.53 358.5 1385.8 358.28 1389.59 357.965L1388.26 342.02L1386.93 326.075C1383.04 326.4 1381.02 326.5 1380.34 326.5V342.5ZM1388.26 342.02L1372.43 344.326L1376.03 369.046L1391.86 366.74L1407.69 364.434L1404.09 339.714L1388.26 342.02ZM1391.86 366.74L1385.08 352.246C1375.61 356.673 1362.16 359.38 1343.86 359.38V375.38V391.38C1364.91 391.38 1383.46 388.327 1398.64 381.234L1391.86 366.74ZM1343.86 375.38V359.38C1328.05 359.38 1318.35 355.423 1312.31 349.776L1301.38 361.46L1290.45 373.144C1304.25 386.057 1322.86 391.38 1343.86 391.38V375.38ZM1301.38 361.46L1312.4 349.865C1306.9 344.631 1302.74 335.55 1302.74 319.46H1286.74H1270.74C1270.74 340.81 1276.34 359.729 1290.35 373.055L1301.38 361.46ZM1286.74 319.46H1302.74C1302.74 311.209 1303.77 303.323 1305.79 295.76L1290.34 291.62L1274.88 287.48C1272.11 297.837 1270.74 308.511 1270.74 319.46H1286.74ZM1290.34 291.62L1305.72 296.016C1308.14 287.573 1310.21 284.334 1310.82 283.663L1298.98 272.9L1287.14 262.137C1281.35 268.506 1277.66 277.747 1274.95 287.224L1290.34 291.62ZM1298.98 272.9L1310.55 283.948C1310.49 284.013 1311.11 283.377 1313.19 282.364C1315.2 281.384 1318.08 280.292 1322.02 279.185L1317.7 263.78L1313.37 248.375C1303.66 251.103 1293.87 255.078 1287.41 261.852L1298.98 272.9ZM1317.7 263.78L1322.02 279.185C1329.82 276.997 1337.4 275.94 1344.82 275.94V259.94V243.94C1334.32 243.94 1323.82 245.443 1313.37 248.375L1317.7 263.78ZM1344.82 259.94V275.94C1357.81 275.94 1364.68 278.337 1367.95 280.659L1377.22 267.62L1386.49 254.581C1375.36 246.663 1360.63 243.94 1344.82 243.94V259.94ZM1377.22 267.62L1367.95 280.659C1371.81 283.408 1374.45 287.148 1375.84 292.796L1391.38 288.98L1406.92 285.164C1403.82 272.572 1397.03 262.072 1386.49 254.581L1377.22 267.62ZM1391.38 288.98L1375.86 292.861C1377.64 300.002 1378.74 310.604 1378.74 325.22H1394.74H1410.74C1410.74 309.436 1409.6 295.878 1406.9 285.099L1391.38 288.98ZM1394.74 325.22L1393.8 309.248C1383.22 309.87 1372.89 310.18 1362.82 310.18V326.18V342.18C1373.55 342.18 1384.5 341.85 1395.68 341.192L1394.74 325.22ZM1362.82 326.18V310.18H1328.74V326.18V342.18H1362.82V326.18ZM1328.74 326.18H1312.74C1312.74 333.053 1314.07 341.177 1319.44 347.789L1331.86 337.7L1344.28 327.611C1344.91 328.386 1345.02 328.915 1344.96 328.717C1344.9 328.486 1344.74 327.709 1344.74 326.18H1328.74ZM1331.86 337.7L1319.82 348.236C1324.81 353.945 1331.34 357.08 1338.08 358.429L1341.22 342.74L1344.36 327.051C1343.68 326.915 1343.44 326.778 1343.46 326.792C1343.48 326.8 1343.54 326.835 1343.63 326.906C1343.72 326.979 1343.82 327.067 1343.9 327.164L1331.86 337.7ZM1341.22 342.74L1338.69 358.539C1343.93 359.377 1350.51 359.7 1358.02 359.7V343.7V327.7C1351.12 327.7 1346.51 327.383 1343.75 326.941L1341.22 342.74ZM1331.14 288.5L1323.98 274.189C1317.39 277.485 1315.26 283.741 1314.76 285.186C1313.88 287.714 1313.41 290.378 1313.11 292.671L1328.98 294.74L1344.84 296.809C1345.03 295.422 1345.15 295.206 1345 295.654C1344.92 295.888 1344.6 296.788 1343.84 297.938C1343.13 299.029 1341.43 301.242 1338.29 302.811L1331.14 288.5ZM1328.98 294.74L1313.11 292.671C1312.55 296.961 1312.2 301.641 1312.03 306.669L1328.02 307.22L1344.01 307.771C1344.16 303.519 1344.44 299.879 1344.84 296.809L1328.98 294.74ZM1328.02 307.22V323.22H1340.5V307.22V291.22H1328.02V307.22ZM1340.5 307.22V323.22C1348.04 323.22 1353.81 323.141 1357.58 322.962L1356.82 306.98L1356.06 290.998C1353.11 291.139 1348 291.22 1340.5 291.22V307.22ZM1356.82 306.98H1372.82C1372.82 298.673 1371.79 288.942 1366.57 281.485L1353.46 290.66L1340.35 299.835C1339.81 299.062 1340.02 298.949 1340.31 300.366C1340.58 301.709 1340.82 303.845 1340.82 306.98H1356.82ZM1353.46 290.66L1366.87 281.94C1360.78 272.572 1350.83 269.86 1342.42 269.86V285.86V301.86C1343.52 301.86 1343.46 302.038 1342.76 301.733C1342.38 301.569 1341.88 301.291 1341.36 300.852C1340.82 300.408 1340.38 299.898 1340.04 299.38L1353.46 290.66ZM1342.42 285.86V269.86C1335.9 269.86 1329.39 271.202 1323.43 274.481L1331.14 288.5L1338.85 302.519C1339.29 302.278 1340.3 301.86 1342.42 301.86V285.86ZM1484.78 365.78L1475.75 352.575C1475.71 352.6 1475.68 352.625 1475.64 352.65L1484.78 365.78ZM1406.06 370.1L1390.14 368.508C1389.34 376.576 1394.69 383.973 1402.61 385.723L1406.06 370.1ZM1408.22 356.42L1392.57 353.124C1392.54 353.231 1392.52 353.338 1392.5 353.446L1408.22 356.42ZM1411.34 342.5L1413.97 326.718C1405.75 325.346 1397.84 330.527 1395.82 338.619L1411.34 342.5ZM1430.54 344.9L1429.1 360.834C1429.22 360.845 1429.34 360.855 1429.46 360.863L1430.54 344.9ZM1456.46 344.9L1463.62 359.211C1465.16 358.442 1466.56 357.43 1467.78 356.214L1456.46 344.9ZM1456.94 343.7L1442.09 337.758C1441.82 338.429 1441.6 339.118 1441.42 339.819L1456.94 343.7ZM1451.42 334.82L1455.74 319.413C1455.59 319.372 1455.45 319.334 1455.3 319.298L1451.42 334.82ZM1436.78 330.74L1432.43 346.135V346.135L1436.78 330.74ZM1415.9 317.78L1403.56 327.962C1403.65 328.074 1403.75 328.185 1403.84 328.294L1415.9 317.78ZM1411.34 277.46L1396.33 271.929V271.929L1411.34 277.46ZM1418.54 265.94L1427.02 279.508C1427.16 279.425 1427.29 279.34 1427.42 279.253L1418.54 265.94ZM1432.46 262.1L1435.21 277.863C1435.32 277.844 1435.43 277.824 1435.54 277.802L1432.46 262.1ZM1492.94 262.82H1508.94C1508.94 254.858 1503.09 248.107 1495.21 246.981L1492.94 262.82ZM1491.74 277.46L1507.63 279.351C1507.63 279.337 1507.64 279.322 1507.64 279.308L1491.74 277.46ZM1489.58 290.18L1487.53 306.048C1494.96 307.009 1502.06 302.688 1504.62 295.648L1489.58 290.18ZM1448.3 288.26L1442.69 273.279C1442.16 273.475 1441.65 273.699 1441.15 273.949L1448.3 288.26ZM1447.34 289.7L1461.65 296.855C1461.85 296.459 1462.03 296.054 1462.2 295.642L1447.34 289.7ZM1449.02 297.14L1458.85 284.51C1458.54 284.271 1458.22 284.043 1457.9 283.827L1449.02 297.14ZM1460.3 301.22L1464.74 285.849C1464.62 285.813 1464.5 285.779 1464.38 285.747L1460.3 301.22ZM1478.78 307.7L1472.37 322.359C1472.43 322.382 1472.48 322.406 1472.54 322.429L1478.78 307.7ZM1492.46 317.78L1480.32 328.193C1480.39 328.275 1480.46 328.356 1480.53 328.436L1492.46 317.78ZM1498.46 335.06H1482.46C1482.46 345.72 1479.27 350.164 1475.75 352.575L1484.78 365.78L1493.82 378.985C1508.54 368.916 1514.46 352.88 1514.46 335.06H1498.46ZM1484.78 365.78L1475.64 352.65C1470.43 356.277 1461.36 359.14 1446.38 359.14V375.14V391.14C1464.69 391.14 1481.22 387.763 1493.93 378.91L1484.78 365.78ZM1446.38 375.14V359.14C1436.18 359.14 1423.93 357.664 1409.52 354.477L1406.06 370.1L1402.61 385.723C1418.59 389.256 1433.23 391.14 1446.38 391.14V375.14ZM1406.06 370.1L1421.98 371.692C1422.23 369.195 1422.85 365.178 1423.95 359.394L1408.22 356.42L1392.5 353.446C1391.36 359.502 1390.53 364.605 1390.14 368.508L1406.06 370.1ZM1408.22 356.42L1423.88 359.716C1425.15 353.693 1426.14 349.286 1426.87 346.381L1411.34 342.5L1395.82 338.619C1394.95 342.114 1393.86 346.987 1392.57 353.124L1408.22 356.42ZM1411.34 342.5L1408.71 358.282C1414.94 359.319 1421.74 360.166 1429.1 360.834L1430.54 344.9L1431.99 328.966C1425.27 328.354 1419.27 327.601 1413.97 326.718L1411.34 342.5ZM1430.54 344.9L1429.46 360.863C1436.72 361.358 1443.11 361.62 1448.54 361.62V345.62V329.62C1444.06 329.62 1438.45 329.402 1431.63 328.937L1430.54 344.9ZM1448.54 345.62V361.62C1450.93 361.62 1453.21 361.557 1455.21 361.374C1456.43 361.263 1460.13 360.953 1463.62 359.211L1456.46 344.9L1449.31 330.589C1449.78 330.355 1450.19 330.18 1450.52 330.054C1450.85 329.926 1451.14 329.831 1451.37 329.762C1451.81 329.628 1452.13 329.557 1452.29 329.526C1452.46 329.492 1452.55 329.481 1452.53 329.483C1452.52 329.484 1452.45 329.493 1452.32 329.506C1452.03 329.532 1451.57 329.562 1450.92 329.585C1450.27 329.607 1449.48 329.62 1448.54 329.62V345.62ZM1456.46 344.9L1467.78 356.214C1470.22 353.772 1471.27 351.144 1471.56 350.422C1472.01 349.298 1472.29 348.276 1472.47 347.581L1456.94 343.7L1441.42 339.819C1441.44 339.764 1441.56 339.262 1441.85 338.538C1442 338.163 1442.27 337.541 1442.69 336.797C1443.08 336.109 1443.86 334.878 1445.15 333.586L1456.46 344.9ZM1456.94 343.7L1471.8 349.642C1472.82 347.099 1473.42 344.288 1473.42 341.3H1457.42H1441.42C1441.42 339.912 1441.71 338.701 1442.09 337.758L1456.94 343.7ZM1457.42 341.3H1473.42C1473.42 336.052 1471.65 330.716 1467.66 326.409C1463.99 322.444 1459.47 320.458 1455.74 319.413L1451.42 334.82L1447.11 350.227C1447.38 350.302 1445.86 349.956 1444.18 348.151C1442.2 346.004 1441.42 343.348 1441.42 341.3H1457.42ZM1451.42 334.82L1455.3 319.298C1454.33 319.055 1449.78 317.791 1441.14 315.345L1436.78 330.74L1432.43 346.135C1440.74 348.489 1445.96 349.945 1447.54 350.342L1451.42 334.82ZM1436.78 330.74L1441.14 315.345C1435.45 313.733 1431.23 311.012 1427.96 307.266L1415.9 317.78L1403.84 328.294C1411.46 337.028 1421.16 342.947 1432.43 346.135L1436.78 330.74ZM1415.9 317.78L1428.25 307.598C1425.65 304.456 1423.98 300.286 1423.98 294.02H1407.98H1391.98C1391.98 306.634 1395.59 318.304 1403.56 327.962L1415.9 317.78ZM1407.98 294.02H1423.98C1423.98 291.427 1424.58 287.814 1426.36 282.991L1411.34 277.46L1396.33 271.929C1393.63 279.266 1391.98 286.693 1391.98 294.02H1407.98ZM1411.34 277.46L1426.36 282.991C1427.25 280.581 1427.96 279.186 1428.39 278.5C1428.59 278.179 1428.63 278.167 1428.48 278.34C1428.32 278.511 1427.86 278.988 1427.02 279.508L1418.54 265.94L1410.06 252.372C1405.95 254.941 1403.16 258.501 1401.26 261.54C1399.28 264.694 1397.68 268.259 1396.33 271.929L1411.34 277.46ZM1418.54 265.94L1427.42 279.253C1426.58 279.813 1426.07 279.98 1426.31 279.885C1426.47 279.822 1426.91 279.667 1427.72 279.444C1429.35 278.995 1431.79 278.457 1435.21 277.863L1432.46 262.1L1429.72 246.337C1425.78 247.023 1422.22 247.765 1419.21 248.596C1416.63 249.308 1412.88 250.484 1409.67 252.627L1418.54 265.94ZM1432.46 262.1L1435.54 277.802C1442.08 276.522 1447.84 275.94 1452.86 275.94V259.94V243.94C1445.41 243.94 1437.57 244.798 1429.39 246.398L1432.46 262.1ZM1452.86 259.94V275.94C1465.37 275.94 1477.97 276.844 1490.68 278.659L1492.94 262.82L1495.21 246.981C1481.03 244.956 1466.92 243.94 1452.86 243.94V259.94ZM1492.94 262.82H1476.94C1476.94 264.677 1476.65 268.733 1475.85 275.612L1491.74 277.46L1507.64 279.308C1508.44 272.427 1508.94 266.723 1508.94 262.82H1492.94ZM1491.74 277.46L1475.86 275.569C1475.47 278.796 1475.13 281.246 1474.83 283.001C1474.68 283.877 1474.56 284.479 1474.47 284.858C1474.37 285.311 1474.38 285.174 1474.55 284.712L1489.58 290.18L1504.62 295.648C1505.48 293.287 1506.01 290.53 1506.38 288.359C1506.8 285.874 1507.22 282.844 1507.63 279.351L1491.74 277.46ZM1489.58 290.18L1491.64 274.312C1477.73 272.513 1466.01 271.54 1456.7 271.54V287.54V303.54C1464.04 303.54 1474.24 304.327 1487.53 306.048L1489.58 290.18ZM1456.7 287.54V271.54C1454.3 271.54 1452.02 271.605 1450 271.778C1448.34 271.921 1445.48 272.229 1442.69 273.279L1448.3 288.26L1453.92 303.241C1453.41 303.433 1453.01 303.544 1452.78 303.602C1452.54 303.663 1452.38 303.692 1452.33 303.702C1452.24 303.717 1452.35 303.694 1452.73 303.662C1453.5 303.595 1454.79 303.54 1456.7 303.54V287.54ZM1448.3 288.26L1441.15 273.949C1437.41 275.816 1435.37 278.583 1434.51 279.865C1433.52 281.358 1432.88 282.78 1432.49 283.758L1447.34 289.7L1462.2 295.642C1462.13 295.82 1461.81 296.602 1461.14 297.615C1460.6 298.417 1458.87 300.864 1455.46 302.571L1448.3 288.26ZM1447.34 289.7L1433.03 282.545C1431.15 286.313 1430.86 290 1430.86 292.34H1446.86H1462.86C1462.86 292.511 1462.85 292.997 1462.73 293.702C1462.6 294.399 1462.32 295.53 1461.65 296.855L1447.34 289.7ZM1446.86 292.34H1430.86C1430.86 298.166 1432.97 305.665 1440.15 310.453L1449.02 297.14L1457.9 283.827C1459.72 285.039 1461.14 286.753 1461.99 288.654C1462.78 290.406 1462.86 291.8 1462.86 292.34H1446.86ZM1449.02 297.14L1439.2 309.77C1442.06 311.996 1445.45 313.31 1447.48 314.046C1449.99 314.953 1452.96 315.832 1456.23 316.693L1460.3 301.22L1464.38 285.747C1461.57 285.008 1459.62 284.407 1458.37 283.954C1458.07 283.847 1457.84 283.759 1457.68 283.691C1457.6 283.658 1457.53 283.631 1457.49 283.612C1457.47 283.603 1457.45 283.596 1457.44 283.591C1457.43 283.586 1457.43 283.583 1457.43 283.583C1457.43 283.583 1457.43 283.587 1457.45 283.593C1457.46 283.599 1457.48 283.609 1457.5 283.622C1457.55 283.648 1457.63 283.692 1457.74 283.756C1457.94 283.871 1458.34 284.116 1458.85 284.51L1449.02 297.14ZM1460.3 301.22L1455.86 316.591C1462.6 318.538 1468.07 320.475 1472.37 322.359L1478.78 307.7L1485.2 293.041C1479.26 290.445 1472.41 288.062 1464.74 285.849L1460.3 301.22ZM1478.78 307.7L1472.54 322.429C1475.48 323.677 1478.04 325.532 1480.32 328.193L1492.46 317.78L1504.61 307.367C1499.21 301.068 1492.65 296.203 1485.03 292.971L1478.78 307.7ZM1492.46 317.78L1480.53 328.436C1481.47 329.49 1482.46 331.233 1482.46 335.06H1498.46H1514.46C1514.46 324.807 1511.46 315.03 1504.4 307.124L1492.46 317.78Z" fill="white" mask="url(#path-1-outside-1_59_307)"/>
<mask id="mask0_59_307" style="mask-type:alpha" maskUnits="userSpaceOnUse" x="122" y="189" width="273" height="273">
<rect x="130.204" y="197.5" width="256" height="256" fill="#D9D9D9" stroke="white" stroke-width="16" stroke-linejoin="round"/>
</mask>
<g mask="url(#mask0_59_307)">
<path d="M258.205 217.5C261.42 217.5 264.322 219.425 265.574 222.386L291.698 284.196L358.896 290.03C362.097 290.308 364.822 292.474 365.814 295.53C366.806 298.587 365.873 301.94 363.445 304.045L312.584 348.14L314.797 357.709C315.024 357.407 315.273 357.117 315.547 356.843L329.547 342.843C332.672 339.719 337.738 339.719 340.862 342.843L370.862 372.843C373.986 375.967 373.986 381.033 370.862 384.157L356.862 398.157C355.362 399.658 353.326 400.5 351.205 400.5C349.083 400.5 347.048 399.658 345.547 398.157L317.715 370.325L327.749 413.697C328.473 416.828 327.254 420.089 324.653 421.976C322.052 423.863 318.574 424.01 315.823 422.351L258.205 387.593L200.587 422.351C197.835 424.01 194.357 423.863 191.756 421.976C189.156 420.089 187.937 416.828 188.661 413.697L198.693 370.325L170.862 398.157C169.362 399.658 167.326 400.5 165.205 400.5C163.083 400.5 161.048 399.658 159.547 398.157L145.547 384.157C142.423 381.033 142.423 375.967 145.547 372.843L175.547 342.843C178.672 339.719 183.738 339.719 186.862 342.843L200.862 356.843C201.134 357.115 201.383 357.405 201.611 357.709L203.825 348.14L152.964 304.045C150.537 301.94 149.603 298.587 150.595 295.53C151.587 292.474 154.312 290.308 157.513 290.03L224.711 284.196L250.836 222.386C252.087 219.425 254.99 217.5 258.205 217.5ZM179.846 222.56C182.987 219.722 187.835 219.816 190.862 222.843L220.862 252.843C223.986 255.967 223.986 261.033 220.862 264.157L206.862 278.157C205.362 279.658 203.326 280.5 201.205 280.5C199.083 280.5 197.048 279.658 195.547 278.157L165.547 248.157C162.423 245.033 162.423 239.967 165.547 236.843L179.547 222.843L179.846 222.56ZM331.205 220.5C333.326 220.5 335.362 221.342 336.862 222.843L350.862 236.843C353.986 239.967 353.986 245.033 350.862 248.157L320.862 278.157C319.362 279.658 317.326 280.5 315.205 280.5C313.083 280.5 311.048 279.658 309.547 278.157L295.547 264.157C292.423 261.033 292.423 255.967 295.547 252.843L325.547 222.843L325.836 222.569C327.303 221.241 329.216 220.5 331.205 220.5Z" fill="#0E21A0" stroke="white" stroke-width="16" stroke-linejoin="round"/>
</g>
</svg>
