<svg width="299" height="60" viewBox="0 0 299 60" fill="none" xmlns="http://www.w3.org/2000/svg">
<rect width="299" height="60" fill="#5C5BDA"/>
<rect width="60" height="60" fill="#6665D2"/>
<path d="M80.643 14H110.043V33.4C110.043 34.8667 109.763 36.24 109.203 37.52C108.643 38.8 107.883 39.92 106.923 40.88C105.963 41.84 104.83 42.6 103.523 43.16C102.243 43.72 100.87 44 99.403 44H80.643V36.92H85.283V21.08H80.643V14ZM102.963 21.08H92.363V36.92H99.403C99.883 36.92 100.336 36.8267 100.763 36.64C101.216 36.4533 101.603 36.2 101.923 35.88C102.243 35.56 102.496 35.1867 102.683 34.76C102.87 34.3333 102.963 33.88 102.963 33.4V21.08ZM112.479 14H126.999V21.08H123.279V36.92H126.999V44H112.479V36.92H116.199V21.08H112.479V14ZM147.173 10.12H154.253V21.08H137.293V25.48H154.253V34.16C154.253 35.52 153.987 36.8 153.453 38C152.947 39.2 152.253 40.24 151.373 41.12C150.493 42 149.453 42.7067 148.253 43.24C147.08 43.7467 145.813 44 144.453 44H130.213V36.92H144.453C145.2 36.92 145.84 36.6533 146.373 36.12C146.907 35.5867 147.173 34.9333 147.173 34.16V32.52H130.213V14H147.173V10.12ZM156.229 14H185.589V21.08H167.949V33.4C167.949 34.36 168.282 35.1867 168.949 35.88C169.642 36.5733 170.482 36.92 171.469 36.92H185.589V44H171.469C170.002 44 168.629 43.72 167.349 43.16C166.069 42.6 164.949 41.84 163.989 40.88C163.029 39.92 162.269 38.8 161.709 37.52C161.149 36.24 160.869 34.8667 160.869 33.4V21.08H156.229V14ZM208.676 14C209.823 14 210.889 14.2267 211.876 14.68C212.889 15.1067 213.769 15.6933 214.516 16.44C215.263 17.1867 215.849 18.0667 216.276 19.08C216.729 20.0667 216.956 21.12 216.956 22.24V44H200.436C199.316 44 198.249 43.7867 197.236 43.36C196.249 42.9067 195.383 42.3067 194.636 41.56C193.889 40.8133 193.289 39.9467 192.836 38.96C192.409 37.9467 192.196 36.88 192.196 35.76V21.08H187.596V14H208.676ZM209.876 22.24C209.876 21.92 209.756 21.6533 209.516 21.44C209.276 21.2 208.996 21.08 208.676 21.08H199.276V35.76C199.276 36.08 199.383 36.36 199.596 36.6C199.836 36.8133 200.116 36.92 200.436 36.92H209.876V22.24ZM241.693 33.28C242.093 34.48 242.813 35.4667 243.853 36.24C244.893 37.0133 246.093 37.4 247.453 37.4H247.933V44.48H247.453C245.986 44.48 244.586 44.2533 243.253 43.8C241.919 43.3467 240.706 42.72 239.613 41.92C238.519 41.0933 237.559 40.12 236.733 39C235.933 37.88 235.319 36.6533 234.893 35.32H230.253V44H223.173V21.08H218.573V14H246.693V23.8C246.693 25.7733 246.239 27.5867 245.333 29.24C244.426 30.8933 243.213 32.24 241.693 33.28ZM230.253 28.24H235.173C235.786 28.24 236.359 28.12 236.893 27.88C237.426 27.64 237.893 27.32 238.293 26.92C238.693 26.52 239.013 26.0533 239.253 25.52C239.493 24.9867 239.613 24.4133 239.613 23.8V21.08H230.253V28.24ZM249.94 14H279.34V33.4C279.34 34.8667 279.06 36.24 278.5 37.52C277.94 38.8 277.18 39.92 276.22 40.88C275.26 41.84 274.127 42.6 272.82 43.16C271.54 43.72 270.167 44 268.7 44H249.94V36.92H254.58V21.08H249.94V14ZM272.26 21.08H261.66V36.92H268.7C269.18 36.92 269.633 36.8267 270.06 36.64C270.513 36.4533 270.9 36.2 271.22 35.88C271.54 35.56 271.793 35.1867 271.98 34.76C272.167 34.3333 272.26 33.88 272.26 33.4V21.08Z" fill="white"/>
<path d="M24.3685 18C23.2846 18 20.0167 19.2873 19.4305 19.5446C18.8442 19.8018 18.1935 20.6049 17.4551 21.9304C16.7157 23.2558 16.1224 24.8052 15.1583 27.0844C14.1953 29.3636 13.9707 33.7576 14.0029 35.0987C14.0352 36.4398 14.1933 37.4874 15.6086 38.2807C17.0229 39.0731 18.274 39.9026 19.5906 40.4014C20.9082 40.9003 21.8068 41.2593 22.4172 40.7604C23.0277 40.2616 23.4296 39.388 23.4296 39.388C23.4296 39.388 24.0078 38.6084 22.9159 38.1409C21.8239 37.6723 21.2779 37.3446 21.3253 36.8614C21.3736 36.3782 21.4532 36.1131 21.7262 36.1757C21.9992 36.2383 22.6429 37.3603 25.1159 37.8748C27.5889 38.3893 29.9995 38.312 29.9995 38.312C29.9995 38.312 32.4111 38.3903 34.8841 37.8748C37.3571 37.3603 37.9998 36.2383 38.2728 36.1757C38.5458 36.1131 38.6254 36.3782 38.6737 36.8604C38.7221 37.3446 38.1761 37.6723 37.0841 38.1409C35.9922 38.6084 36.5704 39.388 36.5704 39.388C36.5704 39.388 36.9723 40.2606 37.5828 40.7604C38.1922 41.2593 39.0918 40.9003 40.4083 40.4014C41.7249 39.9026 42.9771 39.074 44.3914 38.2807C45.8067 37.4874 45.9648 36.4398 45.9971 35.0987C46.0293 33.7586 45.8047 29.3636 44.8406 27.0844C43.8776 24.8052 43.2833 23.2558 42.5439 21.9304C41.8065 20.6049 41.1548 19.8018 40.5695 19.5436C39.9833 19.2873 36.7144 18 35.6305 18C34.5466 18 34.2263 18.7336 34.2263 18.7336L33.8485 19.5446C33.8485 19.5446 31.31 19.076 30.0166 19.075C28.7232 19.075 26.1515 19.5446 26.1515 19.5446L25.7737 18.7327C25.7737 18.7327 25.4534 18 24.3685 18ZM24.4863 27.731H24.5266C26.1071 27.731 27.3875 29.074 27.3875 30.7301C27.3875 32.3872 26.1071 33.7292 24.5266 33.7292C22.9461 33.7292 21.6658 32.3872 21.6658 30.7301C21.6648 29.0897 22.9219 27.7535 24.4863 27.731ZM35.4734 27.731H35.5137C37.0781 27.7535 38.3342 29.0907 38.3342 30.7301C38.3342 32.3872 37.0539 33.7292 35.4734 33.7292C33.8919 33.7292 32.6125 32.3872 32.6125 30.7301C32.6125 29.074 33.8919 27.731 35.4734 27.731Z" fill="white"/>
</svg>
