<svg width="4000" height="651" viewBox="0 0 4000 651" fill="none" xmlns="http://www.w3.org/2000/svg">
<rect width="4000" height="651" fill="#2C2C2C" fill-opacity="0.1"/>
<mask id="path-1-outside-1_59_334" maskUnits="userSpaceOnUse" x="437.563" y="194.5" width="1655" height="230" fill="black">
<rect fill="white" x="437.563" y="194.5" width="1655" height="230"/>
<path d="M454.363 235.7H553.963V264.5H497.563V289.46H545.083V315.38H497.563V343.22H553.723V372.5H454.363V235.7ZM742.681 269.78C745.241 273.62 746.521 288.5 746.521 314.42V372.5H705.481V318.5V305.54C705.481 299.62 704.921 296.1 703.801 294.98C702.521 293.7 699.801 293.06 695.641 293.06L692.761 293.3C687.801 293.62 683.081 294.74 678.601 296.66C678.761 300.02 678.841 305.94 678.841 314.42V372.5H637.801V318.5V304.1C637.801 299.14 637.241 296.1 636.121 294.98C634.841 293.7 632.121 293.06 627.961 293.06L625.081 293.3C620.601 293.46 615.961 294.5 611.161 296.42V372.5H570.121V262.1H603.481L607.801 280.1C613.081 273.06 619.161 267.94 626.041 264.74C632.921 261.38 639.881 259.7 646.921 259.7C652.841 259.7 658.441 260.58 663.721 262.34C669.161 264.1 672.921 266.58 675.001 269.78C675.961 271.22 676.761 273.86 677.401 277.7C682.521 271.46 688.361 266.9 694.921 264.02C701.481 261.14 708.041 259.7 714.601 259.7C720.521 259.7 726.121 260.58 731.401 262.34C736.841 264.1 740.601 266.58 742.681 269.78ZM883.044 342.5H843.204L836.004 372.5H791.844L836.004 235.7H892.404L934.644 372.5H890.244L883.044 342.5ZM862.884 265.22L848.724 315.86H877.284L863.844 265.22H862.884ZM1020.26 259.7C1031.78 259.7 1040.9 263.54 1047.62 271.22C1054.5 278.74 1057.94 291.94 1057.94 310.82C1057.94 324.9 1056.58 336.42 1053.86 345.38C1051.14 354.18 1048.02 360.02 1044.5 362.9C1040.98 365.78 1034.82 368.1 1026.02 369.86C1017.38 371.62 1008.42 372.5 999.138 372.5C996.418 372.5 991.858 372.34 985.458 372.02V406.1L944.418 407.78V262.1H978.018L982.098 279.14C986.258 273.22 991.538 268.5 997.938 264.98C1004.5 261.46 1011.94 259.7 1020.26 259.7ZM1010.66 343.22C1012.42 341.94 1013.7 338.34 1014.5 332.42C1015.3 326.34 1015.7 320.58 1015.7 315.14C1015.7 306.18 1014.58 299.54 1012.34 295.22C1010.1 290.9 1005.62 288.74 998.898 288.74C994.098 288.74 989.618 289.22 985.458 290.18V343.46L992.178 344.18C994.258 344.34 997.218 344.42 1001.06 344.42C1006.5 344.42 1009.7 344.02 1010.66 343.22ZM1142.43 259.7C1144.51 259.7 1146.67 259.94 1148.91 260.42C1151.31 260.9 1153.07 261.46 1154.19 262.1C1154.19 265.62 1153.79 271.46 1152.99 279.62C1152.19 287.62 1151.47 293.3 1150.83 296.66C1149.23 296.5 1146.27 296.42 1141.95 296.42C1131.87 296.42 1122.91 296.98 1115.07 298.1V372.5H1074.03V262.1H1108.35L1113.15 279.86H1113.39C1118.03 273.78 1122.99 268.9 1128.27 265.22C1133.55 261.54 1138.27 259.7 1142.43 259.7ZM1231.93 343.7C1235.93 343.7 1243.37 343.3 1254.25 342.5C1255.69 342.5 1258.33 342.34 1262.17 342.02L1265.77 366.74C1253.45 372.5 1237.45 375.38 1217.77 375.38C1199.37 375.38 1185.21 370.74 1175.29 361.46C1165.53 352.18 1160.65 338.18 1160.65 319.46C1160.65 309.86 1161.85 300.58 1164.25 291.62C1166.81 282.66 1169.69 276.42 1172.89 272.9C1176.25 269.38 1182.49 266.34 1191.61 263.78C1200.73 261.22 1209.77 259.94 1218.73 259.94C1233.13 259.94 1243.93 262.5 1251.13 267.62C1258.33 272.74 1263.05 279.86 1265.29 288.98C1267.53 297.94 1268.65 310.02 1268.65 325.22C1257.77 325.86 1247.13 326.18 1236.73 326.18H1202.65C1202.65 331.3 1203.69 335.14 1205.77 337.7C1208.01 340.26 1211.13 341.94 1215.13 342.74C1219.13 343.38 1224.73 343.7 1231.93 343.7ZM1205.05 288.5C1204.09 288.98 1203.37 291.06 1202.89 294.74C1202.41 298.42 1202.09 302.58 1201.93 307.22H1214.41C1221.93 307.22 1227.37 307.14 1230.73 306.98C1230.73 299.3 1229.61 293.86 1227.37 290.66C1225.29 287.46 1221.61 285.86 1216.33 285.86C1212.01 285.86 1208.25 286.74 1205.05 288.5ZM1389.89 269.06C1391.33 270.82 1392.37 275.22 1393.01 282.26C1393.81 289.3 1394.21 300.02 1394.21 314.42V372.5H1353.17V314.9V305.06C1353.17 299.94 1352.77 296.74 1351.97 295.46C1350.69 293.86 1347.73 293.06 1343.09 293.06C1340.85 293.06 1339.17 293.14 1338.05 293.3C1333.57 293.46 1328.93 294.5 1324.13 296.42V372.5H1283.09V262.1H1316.45L1321.01 280.58C1332.53 266.66 1346.29 259.7 1362.29 259.7C1368.05 259.7 1373.41 260.5 1378.37 262.1C1383.49 263.7 1387.33 266.02 1389.89 269.06ZM1523.09 226.82V372.5H1489.25L1485.89 354.02C1482.69 360.26 1477.97 365.22 1471.73 368.9C1465.49 372.58 1458.45 374.42 1450.61 374.42C1438.13 374.42 1428.13 369.94 1420.61 360.98C1413.25 352.02 1409.57 338.58 1409.57 320.66C1409.57 307.06 1411.17 295.86 1414.37 287.06C1417.57 278.26 1421.33 271.94 1425.65 268.1C1428.37 265.7 1433.89 263.7 1442.21 262.1C1450.69 260.5 1458.21 259.7 1464.77 259.7C1470.53 259.7 1476.45 260.26 1482.53 261.38C1482.05 253.7 1481.81 249.46 1481.81 248.66V228.5L1523.09 226.82ZM1468.61 342.26C1472.93 342.26 1477.41 341.54 1482.05 340.1V288.02C1477.41 287.38 1472.29 287.06 1466.69 287.06C1461.89 287.06 1458.85 287.46 1457.57 288.26C1455.81 289.54 1454.37 293.22 1453.25 299.3C1452.29 305.22 1451.81 311.46 1451.81 318.02C1451.81 327.78 1453.25 334.26 1456.13 337.46C1459.17 340.66 1463.33 342.26 1468.61 342.26ZM1564.14 248.42C1558.7 248.42 1553.98 246.58 1549.98 242.9C1546.14 239.22 1544.22 234.82 1544.22 229.7C1544.22 224.58 1546.14 220.18 1549.98 216.5C1553.98 212.82 1558.7 210.98 1564.14 210.98C1569.58 210.98 1574.22 212.82 1578.06 216.5C1581.9 220.18 1583.82 224.58 1583.82 229.7C1583.82 234.82 1581.9 239.22 1578.06 242.9C1574.22 246.58 1569.58 248.42 1564.14 248.42ZM1543.5 262.1H1584.54V372.5H1543.5V262.1ZM1700.65 345.62V372.5H1601.53V344.9L1654.81 288.26H1602.97V262.1H1699.45V289.46L1646.41 345.62H1700.65ZM1782.68 372.5L1778.84 357.38C1771.48 369.38 1761.24 375.38 1748.12 375.38C1737.4 375.38 1728.6 372.42 1721.72 366.5C1715 360.42 1711.64 351.94 1711.64 341.06C1711.64 334.34 1713.56 328.5 1717.4 323.54C1721.4 318.42 1726.84 314.82 1733.72 312.74C1742.68 310.18 1756.52 308.74 1775.24 308.42C1775.24 297.86 1774.76 292.26 1773.8 291.62C1773 290.98 1770.44 290.66 1766.12 290.66C1763.4 290.66 1759.64 290.82 1754.84 291.14C1747.16 291.46 1736.76 292.34 1723.64 293.78C1722.36 285.14 1721.4 275.86 1720.76 265.94C1729.24 264.18 1738.12 262.74 1747.4 261.62C1756.68 260.34 1765 259.7 1772.36 259.7C1785.16 259.7 1794.76 261.86 1801.16 266.18C1807.56 270.34 1811.72 275.86 1813.64 282.74C1815.56 289.62 1816.44 298.34 1816.28 308.9L1816.04 344.18L1816.76 372.5H1782.68ZM1762.04 348.5C1766.2 348.5 1770.6 347.7 1775.24 346.1V328.34H1773.32C1761.48 328.34 1754.92 328.98 1753.64 330.26C1752.84 331.06 1752.2 332.26 1751.72 333.86C1751.4 335.46 1751.24 336.98 1751.24 338.42C1751.24 342.26 1752.12 344.9 1753.88 346.34C1755.64 347.78 1758.36 348.5 1762.04 348.5ZM1944.73 226.82V372.5H1910.89L1907.53 354.02C1904.33 360.26 1899.61 365.22 1893.37 368.9C1887.13 372.58 1880.09 374.42 1872.25 374.42C1859.77 374.42 1849.77 369.94 1842.25 360.98C1834.89 352.02 1831.21 338.58 1831.21 320.66C1831.21 307.06 1832.81 295.86 1836.01 287.06C1839.21 278.26 1842.97 271.94 1847.29 268.1C1850.01 265.7 1855.53 263.7 1863.85 262.1C1872.33 260.5 1879.85 259.7 1886.41 259.7C1892.17 259.7 1898.09 260.26 1904.17 261.38C1903.69 253.7 1903.45 249.46 1903.45 248.66V228.5L1944.73 226.82ZM1890.25 342.26C1894.57 342.26 1899.05 341.54 1903.69 340.1V288.02C1899.05 287.38 1893.93 287.06 1888.33 287.06C1883.53 287.06 1880.49 287.46 1879.21 288.26C1877.45 289.54 1876.01 293.22 1874.89 299.3C1873.93 305.22 1873.45 311.46 1873.45 318.02C1873.45 327.78 1874.89 334.26 1877.77 337.46C1880.81 340.66 1884.97 342.26 1890.25 342.26ZM2017.7 375.62C1998.5 375.62 1984.1 371.14 1974.5 362.18C1965.06 353.06 1960.34 338.74 1960.34 319.22C1960.34 308.5 1961.3 299.14 1963.22 291.14C1965.3 282.98 1967.78 277.3 1970.66 274.1C1974.34 269.94 1981.06 266.5 1990.82 263.78C2000.74 261.06 2010.02 259.7 2018.66 259.7C2039.3 259.7 2054.02 264.1 2062.82 272.9C2071.62 281.7 2076.02 295.78 2076.02 315.14C2076.02 335.94 2071.3 351.22 2061.86 360.98C2052.42 370.74 2037.7 375.62 2017.7 375.62ZM2018.42 347.54C2024.66 347.54 2028.74 345.38 2030.66 341.06C2032.58 336.58 2033.54 328.74 2033.54 317.54C2033.54 309.7 2033.14 303.7 2032.34 299.54C2031.54 295.22 2030.02 292.1 2027.78 290.18C2025.7 288.1 2022.42 287.06 2017.94 287.06C2011.54 287.06 2007.86 287.62 2006.9 288.74C2005.62 289.86 2004.58 293.38 2003.78 299.3C2002.98 305.22 2002.58 311.38 2002.58 317.78C2002.58 328.66 2003.62 336.34 2005.7 340.82C2007.94 345.3 2012.18 347.54 2018.42 347.54Z"/>
</mask>
<path d="M454.363 235.7H553.963V264.5H497.563V289.46H545.083V315.38H497.563V343.22H553.723V372.5H454.363V235.7ZM742.681 269.78C745.241 273.62 746.521 288.5 746.521 314.42V372.5H705.481V318.5V305.54C705.481 299.62 704.921 296.1 703.801 294.98C702.521 293.7 699.801 293.06 695.641 293.06L692.761 293.3C687.801 293.62 683.081 294.74 678.601 296.66C678.761 300.02 678.841 305.94 678.841 314.42V372.5H637.801V318.5V304.1C637.801 299.14 637.241 296.1 636.121 294.98C634.841 293.7 632.121 293.06 627.961 293.06L625.081 293.3C620.601 293.46 615.961 294.5 611.161 296.42V372.5H570.121V262.1H603.481L607.801 280.1C613.081 273.06 619.161 267.94 626.041 264.74C632.921 261.38 639.881 259.7 646.921 259.7C652.841 259.7 658.441 260.58 663.721 262.34C669.161 264.1 672.921 266.58 675.001 269.78C675.961 271.22 676.761 273.86 677.401 277.7C682.521 271.46 688.361 266.9 694.921 264.02C701.481 261.14 708.041 259.7 714.601 259.7C720.521 259.7 726.121 260.58 731.401 262.34C736.841 264.1 740.601 266.58 742.681 269.78ZM883.044 342.5H843.204L836.004 372.5H791.844L836.004 235.7H892.404L934.644 372.5H890.244L883.044 342.5ZM862.884 265.22L848.724 315.86H877.284L863.844 265.22H862.884ZM1020.26 259.7C1031.78 259.7 1040.9 263.54 1047.62 271.22C1054.5 278.74 1057.94 291.94 1057.94 310.82C1057.94 324.9 1056.58 336.42 1053.86 345.38C1051.14 354.18 1048.02 360.02 1044.5 362.9C1040.98 365.78 1034.82 368.1 1026.02 369.86C1017.38 371.62 1008.42 372.5 999.138 372.5C996.418 372.5 991.858 372.34 985.458 372.02V406.1L944.418 407.78V262.1H978.018L982.098 279.14C986.258 273.22 991.538 268.5 997.938 264.98C1004.5 261.46 1011.94 259.7 1020.26 259.7ZM1010.66 343.22C1012.42 341.94 1013.7 338.34 1014.5 332.42C1015.3 326.34 1015.7 320.58 1015.7 315.14C1015.7 306.18 1014.58 299.54 1012.34 295.22C1010.1 290.9 1005.62 288.74 998.898 288.74C994.098 288.74 989.618 289.22 985.458 290.18V343.46L992.178 344.18C994.258 344.34 997.218 344.42 1001.06 344.42C1006.5 344.42 1009.7 344.02 1010.66 343.22ZM1142.43 259.7C1144.51 259.7 1146.67 259.94 1148.91 260.42C1151.31 260.9 1153.07 261.46 1154.19 262.1C1154.19 265.62 1153.79 271.46 1152.99 279.62C1152.19 287.62 1151.47 293.3 1150.83 296.66C1149.23 296.5 1146.27 296.42 1141.95 296.42C1131.87 296.42 1122.91 296.98 1115.07 298.1V372.5H1074.03V262.1H1108.35L1113.15 279.86H1113.39C1118.03 273.78 1122.99 268.9 1128.27 265.22C1133.55 261.54 1138.27 259.7 1142.43 259.7ZM1231.93 343.7C1235.93 343.7 1243.37 343.3 1254.25 342.5C1255.69 342.5 1258.33 342.34 1262.17 342.02L1265.77 366.74C1253.45 372.5 1237.45 375.38 1217.77 375.38C1199.37 375.38 1185.21 370.74 1175.29 361.46C1165.53 352.18 1160.65 338.18 1160.65 319.46C1160.65 309.86 1161.85 300.58 1164.25 291.62C1166.81 282.66 1169.69 276.42 1172.89 272.9C1176.25 269.38 1182.49 266.34 1191.61 263.78C1200.73 261.22 1209.77 259.94 1218.73 259.94C1233.13 259.94 1243.93 262.5 1251.13 267.62C1258.33 272.74 1263.05 279.86 1265.29 288.98C1267.53 297.94 1268.65 310.02 1268.65 325.22C1257.77 325.86 1247.13 326.18 1236.73 326.18H1202.65C1202.65 331.3 1203.69 335.14 1205.77 337.7C1208.01 340.26 1211.13 341.94 1215.13 342.74C1219.13 343.38 1224.73 343.7 1231.93 343.7ZM1205.05 288.5C1204.09 288.98 1203.37 291.06 1202.89 294.74C1202.41 298.42 1202.09 302.58 1201.93 307.22H1214.41C1221.93 307.22 1227.37 307.14 1230.73 306.98C1230.73 299.3 1229.61 293.86 1227.37 290.66C1225.29 287.46 1221.61 285.86 1216.33 285.86C1212.01 285.86 1208.25 286.74 1205.05 288.5ZM1389.89 269.06C1391.33 270.82 1392.37 275.22 1393.01 282.26C1393.81 289.3 1394.21 300.02 1394.21 314.42V372.5H1353.17V314.9V305.06C1353.17 299.94 1352.77 296.74 1351.97 295.46C1350.69 293.86 1347.73 293.06 1343.09 293.06C1340.85 293.06 1339.17 293.14 1338.05 293.3C1333.57 293.46 1328.93 294.5 1324.13 296.42V372.5H1283.09V262.1H1316.45L1321.01 280.58C1332.53 266.66 1346.29 259.7 1362.29 259.7C1368.05 259.7 1373.41 260.5 1378.37 262.1C1383.49 263.7 1387.33 266.02 1389.89 269.06ZM1523.09 226.82V372.5H1489.25L1485.89 354.02C1482.69 360.26 1477.97 365.22 1471.73 368.9C1465.49 372.58 1458.45 374.42 1450.61 374.42C1438.13 374.42 1428.13 369.94 1420.61 360.98C1413.25 352.02 1409.57 338.58 1409.57 320.66C1409.57 307.06 1411.17 295.86 1414.37 287.06C1417.57 278.26 1421.33 271.94 1425.65 268.1C1428.37 265.7 1433.89 263.7 1442.21 262.1C1450.69 260.5 1458.21 259.7 1464.77 259.7C1470.53 259.7 1476.45 260.26 1482.53 261.38C1482.05 253.7 1481.81 249.46 1481.81 248.66V228.5L1523.09 226.82ZM1468.61 342.26C1472.93 342.26 1477.41 341.54 1482.05 340.1V288.02C1477.41 287.38 1472.29 287.06 1466.69 287.06C1461.89 287.06 1458.85 287.46 1457.57 288.26C1455.81 289.54 1454.37 293.22 1453.25 299.3C1452.29 305.22 1451.81 311.46 1451.81 318.02C1451.81 327.78 1453.25 334.26 1456.13 337.46C1459.17 340.66 1463.33 342.26 1468.61 342.26ZM1564.14 248.42C1558.7 248.42 1553.98 246.58 1549.98 242.9C1546.14 239.22 1544.22 234.82 1544.22 229.7C1544.22 224.58 1546.14 220.18 1549.98 216.5C1553.98 212.82 1558.7 210.98 1564.14 210.98C1569.58 210.98 1574.22 212.82 1578.06 216.5C1581.9 220.18 1583.82 224.58 1583.82 229.7C1583.82 234.82 1581.9 239.22 1578.06 242.9C1574.22 246.58 1569.58 248.42 1564.14 248.42ZM1543.5 262.1H1584.54V372.5H1543.5V262.1ZM1700.65 345.62V372.5H1601.53V344.9L1654.81 288.26H1602.97V262.1H1699.45V289.46L1646.41 345.62H1700.65ZM1782.68 372.5L1778.84 357.38C1771.48 369.38 1761.24 375.38 1748.12 375.38C1737.4 375.38 1728.6 372.42 1721.72 366.5C1715 360.42 1711.64 351.94 1711.64 341.06C1711.64 334.34 1713.56 328.5 1717.4 323.54C1721.4 318.42 1726.84 314.82 1733.72 312.74C1742.68 310.18 1756.52 308.74 1775.24 308.42C1775.24 297.86 1774.76 292.26 1773.8 291.62C1773 290.98 1770.44 290.66 1766.12 290.66C1763.4 290.66 1759.64 290.82 1754.84 291.14C1747.16 291.46 1736.76 292.34 1723.64 293.78C1722.36 285.14 1721.4 275.86 1720.76 265.94C1729.24 264.18 1738.12 262.74 1747.4 261.62C1756.68 260.34 1765 259.7 1772.36 259.7C1785.16 259.7 1794.76 261.86 1801.16 266.18C1807.56 270.34 1811.72 275.86 1813.64 282.74C1815.56 289.62 1816.44 298.34 1816.28 308.9L1816.04 344.18L1816.76 372.5H1782.68ZM1762.04 348.5C1766.2 348.5 1770.6 347.7 1775.24 346.1V328.34H1773.32C1761.48 328.34 1754.92 328.98 1753.64 330.26C1752.84 331.06 1752.2 332.26 1751.72 333.86C1751.4 335.46 1751.24 336.98 1751.24 338.42C1751.24 342.26 1752.12 344.9 1753.88 346.34C1755.64 347.78 1758.36 348.5 1762.04 348.5ZM1944.73 226.82V372.5H1910.89L1907.53 354.02C1904.33 360.26 1899.61 365.22 1893.37 368.9C1887.13 372.58 1880.09 374.42 1872.25 374.42C1859.77 374.42 1849.77 369.94 1842.25 360.98C1834.89 352.02 1831.21 338.58 1831.21 320.66C1831.21 307.06 1832.81 295.86 1836.01 287.06C1839.21 278.26 1842.97 271.94 1847.29 268.1C1850.01 265.7 1855.53 263.7 1863.85 262.1C1872.33 260.5 1879.85 259.7 1886.41 259.7C1892.17 259.7 1898.09 260.26 1904.17 261.38C1903.69 253.7 1903.45 249.46 1903.45 248.66V228.5L1944.73 226.82ZM1890.25 342.26C1894.57 342.26 1899.05 341.54 1903.69 340.1V288.02C1899.05 287.38 1893.93 287.06 1888.33 287.06C1883.53 287.06 1880.49 287.46 1879.21 288.26C1877.45 289.54 1876.01 293.22 1874.89 299.3C1873.93 305.22 1873.45 311.46 1873.45 318.02C1873.45 327.78 1874.89 334.26 1877.77 337.46C1880.81 340.66 1884.97 342.26 1890.25 342.26ZM2017.7 375.62C1998.5 375.62 1984.1 371.14 1974.5 362.18C1965.06 353.06 1960.34 338.74 1960.34 319.22C1960.34 308.5 1961.3 299.14 1963.22 291.14C1965.3 282.98 1967.78 277.3 1970.66 274.1C1974.34 269.94 1981.06 266.5 1990.82 263.78C2000.74 261.06 2010.02 259.7 2018.66 259.7C2039.3 259.7 2054.02 264.1 2062.82 272.9C2071.62 281.7 2076.02 295.78 2076.02 315.14C2076.02 335.94 2071.3 351.22 2061.86 360.98C2052.42 370.74 2037.7 375.62 2017.7 375.62ZM2018.42 347.54C2024.66 347.54 2028.74 345.38 2030.66 341.06C2032.58 336.58 2033.54 328.74 2033.54 317.54C2033.54 309.7 2033.14 303.7 2032.34 299.54C2031.54 295.22 2030.02 292.1 2027.78 290.18C2025.7 288.1 2022.42 287.06 2017.94 287.06C2011.54 287.06 2007.86 287.62 2006.9 288.74C2005.62 289.86 2004.58 293.38 2003.78 299.3C2002.98 305.22 2002.58 311.38 2002.58 317.78C2002.58 328.66 2003.62 336.34 2005.7 340.82C2007.94 345.3 2012.18 347.54 2018.42 347.54Z" fill="#F375C2"/>
<path d="M454.363 235.7V219.7C445.526 219.7 438.363 226.863 438.363 235.7H454.363ZM553.963 235.7H569.963C569.963 226.863 562.799 219.7 553.963 219.7V235.7ZM553.963 264.5V280.5C562.799 280.5 569.963 273.337 569.963 264.5H553.963ZM497.563 264.5V248.5C488.726 248.5 481.563 255.663 481.563 264.5H497.563ZM497.563 289.46H481.563C481.563 298.297 488.726 305.46 497.563 305.46V289.46ZM545.083 289.46H561.083C561.083 280.623 553.919 273.46 545.083 273.46V289.46ZM545.083 315.38V331.38C553.919 331.38 561.083 324.217 561.083 315.38H545.083ZM497.563 315.38V299.38C488.726 299.38 481.563 306.543 481.563 315.38H497.563ZM497.563 343.22H481.563C481.563 352.057 488.726 359.22 497.563 359.22V343.22ZM553.723 343.22H569.723C569.723 334.383 562.559 327.22 553.723 327.22V343.22ZM553.723 372.5V388.5C562.559 388.5 569.723 381.337 569.723 372.5H553.723ZM454.363 372.5H438.363C438.363 381.337 445.526 388.5 454.363 388.5V372.5ZM454.363 235.7V251.7H553.963V235.7V219.7H454.363V235.7ZM553.963 235.7H537.963V264.5H553.963H569.963V235.7H553.963ZM553.963 264.5V248.5H497.563V264.5V280.5H553.963V264.5ZM497.563 264.5H481.563V289.46H497.563H513.563V264.5H497.563ZM497.563 289.46V305.46H545.083V289.46V273.46H497.563V289.46ZM545.083 289.46H529.083V315.38H545.083H561.083V289.46H545.083ZM545.083 315.38V299.38H497.563V315.38V331.38H545.083V315.38ZM497.563 315.38H481.563V343.22H497.563H513.563V315.38H497.563ZM497.563 343.22V359.22H553.723V343.22V327.22H497.563V343.22ZM553.723 343.22H537.723V372.5H553.723H569.723V343.22H553.723ZM553.723 372.5V356.5H454.363V372.5V388.5H553.723V372.5ZM454.363 372.5H470.363V235.7H454.363H438.363V372.5H454.363ZM742.681 269.78L729.266 278.5C729.3 278.552 729.334 278.604 729.369 278.655L742.681 269.78ZM746.521 372.5V388.5C755.358 388.5 762.521 381.337 762.521 372.5H746.521ZM705.481 372.5H689.481C689.481 381.337 696.645 388.5 705.481 388.5V372.5ZM703.801 294.98L715.115 283.666V283.666L703.801 294.98ZM695.641 293.06V277.06C695.198 277.06 694.755 277.078 694.313 277.115L695.641 293.06ZM692.761 293.3L693.792 309.267C693.891 309.26 693.991 309.253 694.09 309.245L692.761 293.3ZM678.601 296.66L672.299 281.954C666.161 284.584 662.302 290.751 662.619 297.421L678.601 296.66ZM678.841 372.5V388.5C687.678 388.5 694.841 381.337 694.841 372.5H678.841ZM637.801 372.5H621.801C621.801 381.337 628.965 388.5 637.801 388.5V372.5ZM636.121 294.98L624.808 306.294L624.808 306.294L636.121 294.98ZM627.961 293.06V277.06C627.518 277.06 627.075 277.078 626.633 277.115L627.961 293.06ZM625.081 293.3L625.652 309.29C625.905 309.281 626.158 309.266 626.41 309.245L625.081 293.3ZM611.161 296.42L605.219 281.564C599.145 283.994 595.161 289.878 595.161 296.42H611.161ZM611.161 372.5V388.5C619.998 388.5 627.161 381.337 627.161 372.5H611.161ZM570.121 372.5H554.121C554.121 381.337 561.285 388.5 570.121 388.5V372.5ZM570.121 262.1V246.1C561.285 246.1 554.121 253.263 554.121 262.1H570.121ZM603.481 262.1L619.04 258.366C617.313 251.172 610.88 246.1 603.481 246.1V262.1ZM607.801 280.1L592.243 283.834C593.69 289.862 598.489 294.512 604.56 295.768C610.631 297.024 616.882 294.66 620.601 289.7L607.801 280.1ZM626.041 264.74L632.789 279.248C632.881 279.205 632.972 279.161 633.063 279.117L626.041 264.74ZM663.721 262.34L658.662 277.519C658.707 277.534 658.751 277.549 658.796 277.563L663.721 262.34ZM675.001 269.78L661.586 278.5C661.62 278.552 661.654 278.604 661.689 278.655L675.001 269.78ZM677.401 277.7L661.619 280.33C662.651 286.522 667.208 291.538 673.273 293.158C679.337 294.778 685.789 292.702 689.771 287.849L677.401 277.7ZM731.401 262.34L726.342 277.519C726.387 277.534 726.431 277.549 726.476 277.563L731.401 262.34ZM742.681 269.78L729.369 278.655C728.188 276.884 728.274 275.928 728.688 277.945C728.994 279.437 729.327 281.788 729.62 285.191C730.203 291.963 730.521 301.638 730.521 314.42H746.521H762.521C762.521 301.282 762.2 290.557 761.503 282.449C761.155 278.412 760.689 274.703 760.035 271.515C759.489 268.851 758.455 264.596 755.994 260.905L742.681 269.78ZM746.521 314.42H730.521V372.5H746.521H762.521V314.42H746.521ZM746.521 372.5V356.5H705.481V372.5V388.5H746.521V372.5ZM705.481 372.5H721.481V318.5H705.481H689.481V372.5H705.481ZM705.481 318.5H721.481V305.54H705.481H689.481V318.5H705.481ZM705.481 305.54H721.481C721.481 302.21 721.333 298.901 720.863 295.946C720.627 294.466 720.25 292.671 719.581 290.823C718.972 289.142 717.721 286.272 715.115 283.666L703.801 294.98L692.488 306.294C691.403 305.209 690.71 304.165 690.293 303.433C689.871 302.693 689.625 302.084 689.492 301.717C689.243 301.029 689.216 300.694 689.26 300.974C689.296 301.199 689.356 301.684 689.404 302.497C689.452 303.295 689.481 304.301 689.481 305.54H705.481ZM703.801 294.98L715.115 283.666C711.521 280.072 707.272 278.626 704.466 277.965C701.475 277.262 698.418 277.06 695.641 277.06V293.06V309.06C697.025 309.06 697.407 309.178 697.137 309.115C696.968 309.075 696.417 308.934 695.648 308.564C694.874 308.193 693.696 307.502 692.488 306.294L703.801 294.98ZM695.641 293.06L694.313 277.115L691.433 277.355L692.761 293.3L694.09 309.245L696.97 309.005L695.641 293.06ZM692.761 293.3L691.731 277.333C684.991 277.768 678.485 279.302 672.299 281.954L678.601 296.66L684.904 311.366C687.678 310.178 690.611 309.472 693.792 309.267L692.761 293.3ZM678.601 296.66L662.619 297.421C662.759 300.356 662.841 305.927 662.841 314.42H678.841H694.841C694.841 305.953 694.764 299.684 694.583 295.899L678.601 296.66ZM678.841 314.42H662.841V372.5H678.841H694.841V314.42H678.841ZM678.841 372.5V356.5H637.801V372.5V388.5H678.841V372.5ZM637.801 372.5H653.801V318.5H637.801H621.801V372.5H637.801ZM637.801 318.5H653.801V304.1H637.801H621.801V318.5H637.801ZM637.801 304.1H653.801C653.801 301.155 653.645 298.072 653.117 295.201C652.718 293.039 651.611 287.842 647.435 283.666L636.121 294.98L624.808 306.294C623.075 304.561 622.305 302.876 622.021 302.171C621.854 301.76 621.76 301.446 621.712 301.27C621.686 301.177 621.67 301.108 621.66 301.065C621.655 301.043 621.652 301.026 621.649 301.015C621.647 301.004 621.646 300.999 621.646 300.999C621.646 300.998 621.647 301.003 621.649 301.013C621.65 301.023 621.653 301.037 621.655 301.057C621.661 301.095 621.669 301.151 621.678 301.226C621.696 301.376 621.716 301.584 621.735 301.857C621.774 302.411 621.801 303.15 621.801 304.1H637.801ZM636.121 294.98L647.435 283.666C643.841 280.072 639.592 278.626 636.786 277.965C633.795 277.262 630.738 277.06 627.961 277.06V293.06V309.06C629.345 309.06 629.727 309.178 629.457 309.115C629.288 309.075 628.737 308.934 627.968 308.564C627.194 308.193 626.016 307.502 624.808 306.294L636.121 294.98ZM627.961 293.06L626.633 277.115L623.753 277.355L625.081 293.3L626.41 309.245L629.29 309.005L627.961 293.06ZM625.081 293.3L624.51 277.31C617.929 277.545 611.473 279.063 605.219 281.564L611.161 296.42L617.104 311.276C620.45 309.937 623.273 309.375 625.652 309.29L625.081 293.3ZM611.161 296.42H595.161V372.5H611.161H627.161V296.42H611.161ZM611.161 372.5V356.5H570.121V372.5V388.5H611.161V372.5ZM570.121 372.5H586.121V262.1H570.121H554.121V372.5H570.121ZM570.121 262.1V278.1H603.481V262.1V246.1H570.121V262.1ZM603.481 262.1L587.923 265.834L592.243 283.834L607.801 280.1L623.36 276.366L619.04 258.366L603.481 262.1ZM607.801 280.1L620.601 289.7C624.553 284.431 628.657 281.17 632.789 279.248L626.041 264.74L619.294 250.232C609.666 254.71 601.609 261.689 595.001 270.5L607.801 280.1ZM626.041 264.74L633.063 279.117C637.951 276.73 642.523 275.7 646.921 275.7V259.7V243.7C637.24 243.7 627.892 246.03 619.02 250.363L626.041 264.74ZM646.921 259.7V275.7C651.232 275.7 655.114 276.336 658.662 277.519L663.721 262.34L668.781 247.161C661.768 244.824 654.451 243.7 646.921 243.7V259.7ZM663.721 262.34L658.796 277.563C660.493 278.112 661.409 278.611 661.812 278.876C662.181 279.12 661.942 279.048 661.586 278.5L675.001 269.78L688.416 261.06C683.553 253.578 675.909 249.466 668.647 247.117L663.721 262.34ZM675.001 269.78L661.689 278.655C661.268 278.024 661.061 277.563 661 277.422C660.932 277.266 660.944 277.266 661.009 277.48C661.147 277.935 661.37 278.837 661.619 280.33L677.401 277.7L693.184 275.07C692.523 271.107 691.334 265.435 688.314 260.905L675.001 269.78ZM677.401 277.7L689.771 287.849C693.498 283.307 697.377 280.416 701.353 278.67L694.921 264.02L688.49 249.37C679.346 253.384 671.545 259.613 665.032 267.551L677.401 277.7ZM694.921 264.02L701.353 278.67C706.074 276.598 710.453 275.7 714.601 275.7V259.7V243.7C705.63 243.7 696.889 245.682 688.49 249.37L694.921 264.02ZM714.601 259.7V275.7C718.912 275.7 722.794 276.336 726.342 277.519L731.401 262.34L736.461 247.161C729.448 244.824 722.131 243.7 714.601 243.7V259.7ZM731.401 262.34L726.476 277.563C728.173 278.112 729.089 278.611 729.492 278.876C729.861 279.12 729.622 279.048 729.266 278.5L742.681 269.78L756.096 261.06C751.233 253.578 743.589 249.466 736.327 247.117L731.401 262.34ZM883.044 342.5L898.602 338.766C896.876 331.572 890.442 326.5 883.044 326.5V342.5ZM843.204 342.5V326.5C835.806 326.5 829.372 331.572 827.646 338.766L843.204 342.5ZM836.004 372.5V388.5C843.402 388.5 849.836 383.428 851.562 376.234L836.004 372.5ZM791.844 372.5L776.618 367.585C775.046 372.454 775.897 377.781 778.909 381.917C781.92 386.053 786.728 388.5 791.844 388.5V372.5ZM836.004 235.7V219.7C829.061 219.7 822.91 224.178 820.778 230.785L836.004 235.7ZM892.404 235.7L907.692 230.98C905.621 224.274 899.422 219.7 892.404 219.7V235.7ZM934.644 372.5V388.5C939.724 388.5 944.503 386.087 947.519 381.999C950.535 377.911 951.431 372.634 949.932 367.78L934.644 372.5ZM890.244 372.5L874.686 376.234C876.412 383.428 882.846 388.5 890.244 388.5V372.5ZM862.884 265.22V249.22C855.707 249.22 849.408 253.999 847.475 260.911L862.884 265.22ZM848.724 315.86L833.315 311.551C831.967 316.371 832.952 321.544 835.978 325.531C839.003 329.518 843.719 331.86 848.724 331.86V315.86ZM877.284 315.86V331.86C882.251 331.86 886.937 329.553 889.966 325.615C892.995 321.678 894.023 316.557 892.748 311.756L877.284 315.86ZM863.844 265.22L879.308 261.116C877.447 254.103 871.1 249.22 863.844 249.22V265.22ZM883.044 342.5V326.5H843.204V342.5V358.5H883.044V342.5ZM843.204 342.5L827.646 338.766L820.446 368.766L836.004 372.5L851.562 376.234L858.762 346.234L843.204 342.5ZM836.004 372.5V356.5H791.844V372.5V388.5H836.004V372.5ZM791.844 372.5L807.07 377.415L851.23 240.615L836.004 235.7L820.778 230.785L776.618 367.585L791.844 372.5ZM836.004 235.7V251.7H892.404V235.7V219.7H836.004V235.7ZM892.404 235.7L877.116 240.42L919.356 377.22L934.644 372.5L949.932 367.78L907.692 230.98L892.404 235.7ZM934.644 372.5V356.5H890.244V372.5V388.5H934.644V372.5ZM890.244 372.5L905.802 368.766L898.602 338.766L883.044 342.5L867.486 346.234L874.686 376.234L890.244 372.5ZM862.884 265.22L847.475 260.911L833.315 311.551L848.724 315.86L864.133 320.169L878.293 269.529L862.884 265.22ZM848.724 315.86V331.86H877.284V315.86V299.86H848.724V315.86ZM877.284 315.86L892.748 311.756L879.308 261.116L863.844 265.22L848.379 269.324L861.819 319.964L877.284 315.86ZM863.844 265.22V249.22H862.884V265.22V281.22H863.844V265.22ZM1047.62 271.22L1035.58 281.756C1035.65 281.845 1035.73 281.933 1035.81 282.02L1047.62 271.22ZM1053.86 345.38L1069.14 350.105C1069.15 350.079 1069.16 350.053 1069.17 350.028L1053.86 345.38ZM1044.5 362.9L1054.63 375.283V375.283L1044.5 362.9ZM1026.02 369.86L1022.88 354.171C1022.86 354.174 1022.84 354.178 1022.82 354.182L1026.02 369.86ZM985.458 372.02L986.257 356.04C981.881 355.821 977.606 357.407 974.431 360.427C971.256 363.448 969.458 367.638 969.458 372.02H985.458ZM985.458 406.1L986.113 422.087C994.688 421.736 1001.46 414.682 1001.46 406.1H985.458ZM944.418 407.78H928.418C928.418 412.137 930.195 416.306 933.338 419.323C936.482 422.34 940.719 423.945 945.073 423.767L944.418 407.78ZM944.418 262.1V246.1C935.582 246.1 928.418 253.263 928.418 262.1H944.418ZM978.018 262.1L993.578 258.374C991.855 251.176 985.42 246.1 978.018 246.1V262.1ZM982.098 279.14L966.538 282.866C968.003 288.984 972.917 293.675 979.096 294.856C985.275 296.036 991.572 293.486 995.189 288.339L982.098 279.14ZM997.938 264.98L990.373 250.881C990.324 250.908 990.276 250.934 990.228 250.961L997.938 264.98ZM1010.66 343.22L1001.25 330.28C1000.96 330.487 1000.69 330.703 1000.42 330.928L1010.66 343.22ZM1014.5 332.42L1030.35 334.563C1030.36 334.544 1030.36 334.526 1030.36 334.507L1014.5 332.42ZM1012.34 295.22L998.134 302.585V302.585L1012.34 295.22ZM985.458 290.18L981.861 274.59C974.601 276.265 969.458 282.729 969.458 290.18H985.458ZM985.458 343.46H969.458C969.458 351.637 975.623 358.498 983.754 359.369L985.458 343.46ZM992.178 344.18L990.474 360.089C990.633 360.106 990.792 360.121 990.951 360.133L992.178 344.18ZM1020.26 259.7V275.7C1027.83 275.7 1032.31 278.018 1035.58 281.756L1047.62 271.22L1059.66 260.684C1049.49 249.062 1035.73 243.7 1020.26 243.7V259.7ZM1047.62 271.22L1035.81 282.02C1038.48 284.934 1041.94 292.906 1041.94 310.82H1057.94H1073.94C1073.94 290.974 1070.52 272.546 1059.42 260.42L1047.62 271.22ZM1057.94 310.82H1041.94C1041.94 324.034 1040.64 333.833 1038.55 340.732L1053.86 345.38L1069.17 350.028C1072.51 339.007 1073.94 325.766 1073.94 310.82H1057.94ZM1053.86 345.38L1038.57 340.655C1037.41 344.428 1036.3 347.071 1035.37 348.821C1034.39 350.656 1033.93 350.876 1034.37 350.517L1044.5 362.9L1054.63 375.283C1062.04 369.221 1066.28 359.381 1069.14 350.105L1053.86 345.38ZM1044.5 362.9L1034.37 350.517C1034.41 350.482 1033.71 351.031 1031.6 351.827C1029.56 352.593 1026.71 353.404 1022.88 354.171L1026.02 369.86L1029.16 385.549C1038.48 383.684 1047.93 380.767 1054.63 375.283L1044.5 362.9ZM1026.02 369.86L1022.82 354.182C1015.29 355.717 1007.4 356.5 999.138 356.5V372.5V388.5C1009.43 388.5 1019.47 387.523 1029.21 385.538L1026.02 369.86ZM999.138 372.5V356.5C996.857 356.5 992.65 356.36 986.257 356.04L985.458 372.02L984.659 388C991.067 388.32 995.98 388.5 999.138 388.5V372.5ZM985.458 372.02H969.458V406.1H985.458H1001.46V372.02H985.458ZM985.458 406.1L984.804 390.113L943.764 391.793L944.418 407.78L945.073 423.767L986.113 422.087L985.458 406.1ZM944.418 407.78H960.418V262.1H944.418H928.418V407.78H944.418ZM944.418 262.1V278.1H978.018V262.1V246.1H944.418V262.1ZM978.018 262.1L962.458 265.826L966.538 282.866L982.098 279.14L997.658 275.414L993.578 258.374L978.018 262.1ZM982.098 279.14L995.189 288.339C997.933 284.435 1001.37 281.355 1005.65 278.999L997.938 264.98L990.228 250.961C981.711 255.645 974.583 262.005 969.007 269.941L982.098 279.14ZM997.938 264.98L1005.5 279.079C1009.47 276.948 1014.26 275.7 1020.26 275.7V259.7V243.7C1009.61 243.7 999.522 245.972 990.373 250.881L997.938 264.98ZM1010.66 343.22L1020.07 356.16C1024.88 352.663 1027.01 347.737 1028.01 344.92C1029.17 341.666 1029.88 338.08 1030.35 334.563L1014.5 332.42L998.642 330.277C998.488 331.422 998.327 332.322 998.177 333.01C998.024 333.71 997.905 334.081 997.863 334.2C997.811 334.347 997.918 333.99 998.308 333.365C998.686 332.759 999.582 331.492 1001.25 330.28L1010.66 343.22ZM1014.5 332.42L1030.36 334.507C1031.24 327.821 1031.7 321.359 1031.7 315.14H1015.7H999.698C999.698 319.801 999.355 324.859 998.635 330.333L1014.5 332.42ZM1015.7 315.14H1031.7C1031.7 305.432 1030.58 295.647 1026.54 287.855L1012.34 295.22L998.134 302.585C998.574 303.433 999.698 306.928 999.698 315.14H1015.7ZM1012.34 295.22L1026.54 287.855C1020.53 276.256 1008.98 272.74 998.898 272.74V288.74V304.74C1000.65 304.74 1000.9 305.037 1000.35 304.772C1000.04 304.623 999.593 304.347 999.132 303.903C998.668 303.455 998.34 302.982 998.134 302.585L1012.34 295.22ZM998.898 288.74V272.74C993.035 272.74 987.336 273.326 981.861 274.59L985.458 290.18L989.056 305.77C991.901 305.114 995.162 304.74 998.898 304.74V288.74ZM985.458 290.18H969.458V343.46H985.458H1001.46V290.18H985.458ZM985.458 343.46L983.754 359.369L990.474 360.089L992.178 344.18L993.883 328.271L987.163 327.551L985.458 343.46ZM992.178 344.18L990.951 360.133C993.646 360.34 997.087 360.42 1001.06 360.42V344.42V328.42C997.349 328.42 994.871 328.34 993.405 328.227L992.178 344.18ZM1001.06 344.42V360.42C1004.06 360.42 1006.97 360.316 1009.52 359.996C1010.79 359.838 1012.34 359.582 1013.95 359.118C1015.27 358.739 1018.14 357.809 1020.9 355.512L1010.66 343.22L1000.42 330.928C1001.67 329.883 1002.82 329.284 1003.5 328.968C1004.22 328.638 1004.78 328.459 1005.08 328.372C1005.65 328.208 1005.88 328.202 1005.55 328.244C1005.28 328.278 1004.77 328.325 1003.98 328.362C1003.2 328.398 1002.23 328.42 1001.06 328.42V344.42ZM1148.91 260.42L1145.56 276.065C1145.63 276.08 1145.7 276.095 1145.77 276.109L1148.91 260.42ZM1154.19 262.1H1170.19C1170.19 256.358 1167.11 251.057 1162.13 248.208L1154.19 262.1ZM1152.99 279.62L1168.91 281.212C1168.91 281.202 1168.91 281.191 1168.91 281.181L1152.99 279.62ZM1150.83 296.66L1149.24 312.581C1157.48 313.405 1164.99 307.796 1166.55 299.654L1150.83 296.66ZM1115.07 298.1L1112.8 282.261C1104.92 283.387 1099.07 290.138 1099.07 298.1H1115.07ZM1115.07 372.5V388.5C1123.9 388.5 1131.07 381.337 1131.07 372.5H1115.07ZM1074.03 372.5H1058.03C1058.03 381.337 1065.19 388.5 1074.03 388.5V372.5ZM1074.03 262.1V246.1C1065.19 246.1 1058.03 253.263 1058.03 262.1H1074.03ZM1108.35 262.1L1123.79 257.925C1121.91 250.947 1115.58 246.1 1108.35 246.1V262.1ZM1113.15 279.86L1097.7 284.035C1099.59 291.013 1105.92 295.86 1113.15 295.86V279.86ZM1113.39 279.86V295.86C1118.38 295.86 1123.08 293.533 1126.11 289.567L1113.39 279.86ZM1128.27 265.22L1137.42 278.346V278.346L1128.27 265.22ZM1142.43 259.7V275.7C1143.27 275.7 1144.31 275.797 1145.56 276.065L1148.91 260.42L1152.26 244.775C1149.03 244.083 1145.74 243.7 1142.43 243.7V259.7ZM1148.91 260.42L1145.77 276.109C1146.15 276.186 1146.46 276.257 1146.71 276.317C1146.95 276.378 1147.1 276.423 1147.18 276.447C1147.25 276.471 1147.21 276.461 1147.07 276.404C1146.94 276.35 1146.65 276.221 1146.25 275.992L1154.19 262.1L1162.13 248.208C1158.72 246.26 1154.9 245.302 1152.05 244.731L1148.91 260.42ZM1154.19 262.1H1138.19C1138.19 264.765 1137.86 269.92 1137.06 278.059L1152.99 279.62L1168.91 281.181C1169.71 273 1170.19 266.475 1170.19 262.1H1154.19ZM1152.99 279.62L1137.07 278.028C1136.27 286.014 1135.6 291.069 1135.11 293.666L1150.83 296.66L1166.55 299.654C1167.33 295.531 1168.11 289.226 1168.91 281.212L1152.99 279.62ZM1150.83 296.66L1152.42 280.739C1149.92 280.489 1146.2 280.42 1141.95 280.42V296.42V312.42C1146.33 312.42 1148.54 312.511 1149.24 312.581L1150.83 296.66ZM1141.95 296.42V280.42C1131.3 280.42 1121.56 281.009 1112.8 282.261L1115.07 298.1L1117.33 313.939C1124.25 312.951 1132.43 312.42 1141.95 312.42V296.42ZM1115.07 298.1H1099.07V372.5H1115.07H1131.07V298.1H1115.07ZM1115.07 372.5V356.5H1074.03V372.5V388.5H1115.07V372.5ZM1074.03 372.5H1090.03V262.1H1074.03H1058.03V372.5H1074.03ZM1074.03 262.1V278.1H1108.35V262.1V246.1H1074.03V262.1ZM1108.35 262.1L1092.9 266.275L1097.7 284.035L1113.15 279.86L1128.59 275.685L1123.79 257.925L1108.35 262.1ZM1113.15 279.86V295.86H1113.39V279.86V263.86H1113.15V279.86ZM1113.39 279.86L1126.11 289.567C1129.92 284.564 1133.72 280.919 1137.42 278.346L1128.27 265.22L1119.12 252.094C1112.25 256.881 1106.13 262.996 1100.67 270.153L1113.39 279.86ZM1128.27 265.22L1137.42 278.346C1139.28 277.045 1140.66 276.344 1141.58 275.987C1142.48 275.637 1142.72 275.7 1142.43 275.7V259.7V243.7C1133.65 243.7 1125.72 247.496 1119.12 252.094L1128.27 265.22ZM1254.25 342.5V326.5C1253.85 326.5 1253.46 326.514 1253.07 326.543L1254.25 342.5ZM1262.17 342.02L1278 339.714C1276.78 331.348 1269.26 325.373 1260.84 326.075L1262.17 342.02ZM1265.77 366.74L1272.54 381.234C1278.94 378.245 1282.62 371.419 1281.6 364.434L1265.77 366.74ZM1175.29 361.46L1164.26 373.055C1164.29 373.085 1164.32 373.115 1164.35 373.144L1175.29 361.46ZM1164.25 291.62L1148.86 287.224C1148.84 287.31 1148.81 287.395 1148.79 287.48L1164.25 291.62ZM1172.89 272.9L1161.31 261.852C1161.22 261.946 1161.13 262.041 1161.05 262.137L1172.89 272.9ZM1191.61 263.78L1195.93 279.185V279.185L1191.61 263.78ZM1251.13 267.62L1241.85 280.659L1241.85 280.659L1251.13 267.62ZM1265.29 288.98L1249.75 292.796C1249.75 292.818 1249.76 292.839 1249.76 292.861L1265.29 288.98ZM1268.65 325.22L1269.58 341.192C1278.04 340.695 1284.65 333.692 1284.65 325.22H1268.65ZM1202.65 326.18V310.18C1193.81 310.18 1186.65 317.343 1186.65 326.18H1202.65ZM1205.77 337.7L1193.35 347.789C1193.47 347.941 1193.6 348.09 1193.72 348.236L1205.77 337.7ZM1215.13 342.74L1211.99 358.429C1212.19 358.47 1212.39 358.506 1212.6 358.539L1215.13 342.74ZM1205.05 288.5L1212.2 302.811C1212.39 302.717 1212.57 302.62 1212.76 302.519L1205.05 288.5ZM1202.89 294.74L1218.75 296.809V296.809L1202.89 294.74ZM1201.93 307.22L1185.93 306.669C1185.79 311.005 1187.4 315.216 1190.42 318.337C1193.43 321.458 1197.59 323.22 1201.93 323.22V307.22ZM1230.73 306.98L1231.49 322.962C1240.02 322.556 1246.73 315.521 1246.73 306.98H1230.73ZM1227.37 290.66L1213.95 299.38C1214.05 299.533 1214.15 299.685 1214.26 299.835L1227.37 290.66ZM1231.93 343.7V359.7C1236.6 359.7 1244.59 359.253 1255.42 358.457L1254.25 342.5L1253.07 326.543C1242.14 327.347 1235.25 327.7 1231.93 327.7V343.7ZM1254.25 342.5V358.5C1256.44 358.5 1259.71 358.28 1263.49 357.965L1262.17 342.02L1260.84 326.075C1256.94 326.4 1254.93 326.5 1254.25 326.5V342.5ZM1262.17 342.02L1246.33 344.326L1249.93 369.046L1265.77 366.74L1281.6 364.434L1278 339.714L1262.17 342.02ZM1265.77 366.74L1258.99 352.246C1249.52 356.673 1236.07 359.38 1217.77 359.38V375.38V391.38C1238.82 391.38 1257.37 388.327 1272.54 381.234L1265.77 366.74ZM1217.77 375.38V359.38C1201.96 359.38 1192.25 355.423 1186.22 349.776L1175.29 361.46L1164.35 373.144C1178.16 386.057 1196.77 391.38 1217.77 391.38V375.38ZM1175.29 361.46L1186.31 349.865C1180.81 344.631 1176.65 335.55 1176.65 319.46H1160.65H1144.65C1144.65 340.81 1150.24 359.729 1164.26 373.055L1175.29 361.46ZM1160.65 319.46H1176.65C1176.65 311.209 1177.67 303.323 1179.7 295.76L1164.25 291.62L1148.79 287.48C1146.02 297.837 1144.65 308.511 1144.65 319.46H1160.65ZM1164.25 291.62L1179.63 296.016C1182.04 287.573 1184.11 284.334 1184.72 283.663L1172.89 272.9L1161.05 262.137C1155.26 268.506 1151.57 277.747 1148.86 287.224L1164.25 291.62ZM1172.89 272.9L1184.46 283.948C1184.4 284.013 1185.01 283.377 1187.09 282.364C1189.1 281.384 1191.98 280.292 1195.93 279.185L1191.61 263.78L1187.28 248.375C1177.56 251.103 1167.78 255.078 1161.31 261.852L1172.89 272.9ZM1191.61 263.78L1195.93 279.185C1203.72 276.997 1211.31 275.94 1218.73 275.94V259.94V243.94C1208.22 243.94 1197.73 245.443 1187.28 248.375L1191.61 263.78ZM1218.73 259.94V275.94C1231.71 275.94 1238.59 278.337 1241.85 280.659L1251.13 267.62L1260.4 254.581C1249.26 246.663 1234.54 243.94 1218.73 243.94V259.94ZM1251.13 267.62L1241.85 280.659C1245.72 283.408 1248.36 287.148 1249.75 292.796L1265.29 288.98L1280.82 285.164C1277.73 272.572 1270.93 262.072 1260.4 254.581L1251.13 267.62ZM1265.29 288.98L1249.76 292.861C1251.55 300.002 1252.65 310.604 1252.65 325.22H1268.65H1284.65C1284.65 309.436 1283.5 295.878 1280.81 285.099L1265.29 288.98ZM1268.65 325.22L1267.71 309.248C1257.12 309.87 1246.8 310.18 1236.73 310.18V326.18V342.18C1247.45 342.18 1258.41 341.85 1269.58 341.192L1268.65 325.22ZM1236.73 326.18V310.18H1202.65V326.18V342.18H1236.73V326.18ZM1202.65 326.18H1186.65C1186.65 333.053 1187.97 341.177 1193.35 347.789L1205.77 337.7L1218.18 327.611C1218.81 328.386 1218.92 328.915 1218.87 328.717C1218.81 328.486 1218.65 327.709 1218.65 326.18H1202.65ZM1205.77 337.7L1193.72 348.236C1198.72 353.945 1205.24 357.08 1211.99 358.429L1215.13 342.74L1218.26 327.051C1217.59 326.915 1217.34 326.778 1217.37 326.792C1217.38 326.8 1217.45 326.835 1217.54 326.906C1217.63 326.979 1217.72 327.067 1217.81 327.164L1205.77 337.7ZM1215.13 342.74L1212.6 358.539C1217.84 359.377 1224.42 359.7 1231.93 359.7V343.7V327.7C1225.03 327.7 1220.41 327.383 1217.65 326.941L1215.13 342.74ZM1205.05 288.5L1197.89 274.189C1191.3 277.485 1189.17 283.741 1188.67 285.186C1187.79 287.714 1187.32 290.378 1187.02 292.671L1202.89 294.74L1218.75 296.809C1218.93 295.422 1219.06 295.206 1218.9 295.654C1218.82 295.888 1218.5 296.788 1217.75 297.938C1217.03 299.029 1215.34 301.242 1212.2 302.811L1205.05 288.5ZM1202.89 294.74L1187.02 292.671C1186.46 296.961 1186.11 301.641 1185.93 306.669L1201.93 307.22L1217.92 307.771C1218.06 303.519 1218.35 299.879 1218.75 296.809L1202.89 294.74ZM1201.93 307.22V323.22H1214.41V307.22V291.22H1201.93V307.22ZM1214.41 307.22V323.22C1221.95 323.22 1227.72 323.141 1231.49 322.962L1230.73 306.98L1229.96 290.998C1227.01 291.139 1221.9 291.22 1214.41 291.22V307.22ZM1230.73 306.98H1246.73C1246.73 298.673 1245.69 288.942 1240.47 281.485L1227.37 290.66L1214.26 299.835C1213.72 299.062 1213.92 298.949 1214.21 300.366C1214.49 301.709 1214.73 303.845 1214.73 306.98H1230.73ZM1227.37 290.66L1240.78 281.94C1234.69 272.572 1224.74 269.86 1216.33 269.86V285.86V301.86C1217.43 301.86 1217.37 302.038 1216.67 301.733C1216.29 301.569 1215.79 301.291 1215.26 300.852C1214.73 300.408 1214.29 299.898 1213.95 299.38L1227.37 290.66ZM1216.33 285.86V269.86C1209.8 269.86 1203.29 271.202 1197.33 274.481L1205.05 288.5L1212.76 302.519C1213.2 302.278 1214.21 301.86 1216.33 301.86V285.86ZM1389.89 269.06L1402.27 258.928C1402.23 258.87 1402.18 258.812 1402.13 258.754L1389.89 269.06ZM1393.01 282.26L1377.08 283.709C1377.09 283.828 1377.1 283.947 1377.11 284.067L1393.01 282.26ZM1394.21 372.5V388.5C1403.05 388.5 1410.21 381.337 1410.21 372.5H1394.21ZM1353.17 372.5H1337.17C1337.17 381.337 1344.33 388.5 1353.17 388.5V372.5ZM1351.97 295.46L1365.54 286.98C1365.21 286.455 1364.85 285.949 1364.46 285.465L1351.97 295.46ZM1338.05 293.3L1338.62 309.29C1339.19 309.27 1339.75 309.219 1340.31 309.139L1338.05 293.3ZM1324.13 296.42L1318.19 281.564C1312.11 283.994 1308.13 289.878 1308.13 296.42H1324.13ZM1324.13 372.5V388.5C1332.97 388.5 1340.13 381.337 1340.13 372.5H1324.13ZM1283.09 372.5H1267.09C1267.09 381.337 1274.25 388.5 1283.09 388.5V372.5ZM1283.09 262.1V246.1C1274.25 246.1 1267.09 253.263 1267.09 262.1H1283.09ZM1316.45 262.1L1331.98 258.267C1330.22 251.121 1323.81 246.1 1316.45 246.1V262.1ZM1321.01 280.58L1305.48 284.413C1306.92 290.28 1311.55 294.831 1317.44 296.178C1323.34 297.524 1329.48 295.437 1333.34 290.781L1321.01 280.58ZM1378.37 262.1L1373.46 277.327C1373.5 277.342 1373.55 277.357 1373.6 277.372L1378.37 262.1ZM1389.89 269.06L1377.51 279.192C1376.49 277.947 1376.1 276.958 1376.05 276.85C1375.98 276.663 1376.04 276.784 1376.18 277.36C1376.46 278.538 1376.79 280.572 1377.08 283.709L1393.01 282.26L1408.94 280.811C1408.59 276.908 1408.08 273.223 1407.32 270C1406.69 267.324 1405.41 262.765 1402.27 258.928L1389.89 269.06ZM1393.01 282.26L1377.11 284.067C1377.81 290.167 1378.21 300.142 1378.21 314.42H1394.21H1410.21C1410.21 299.898 1409.81 288.433 1408.91 280.453L1393.01 282.26ZM1394.21 314.42H1378.21V372.5H1394.21H1410.21V314.42H1394.21ZM1394.21 372.5V356.5H1353.17V372.5V388.5H1394.21V372.5ZM1353.17 372.5H1369.17V314.9H1353.17H1337.17V372.5H1353.17ZM1353.17 314.9H1369.17V305.06H1353.17H1337.17V314.9H1353.17ZM1353.17 305.06H1369.17C1369.17 302.173 1369.06 299.36 1368.75 296.835C1368.51 294.968 1367.93 290.801 1365.54 286.98L1351.97 295.46L1338.4 303.94C1337.88 303.11 1337.57 302.401 1337.38 301.943C1337.2 301.473 1337.09 301.114 1337.04 300.92C1336.94 300.559 1336.95 300.474 1336.99 300.805C1337.03 301.104 1337.08 301.605 1337.11 302.348C1337.15 303.082 1337.17 303.981 1337.17 305.06H1353.17ZM1351.97 295.46L1364.46 285.465C1360.88 280.986 1356.18 279.083 1352.96 278.214C1349.62 277.31 1346.18 277.06 1343.09 277.06V293.06V309.06C1344.64 309.06 1345 309.21 1344.62 309.106C1344.36 309.037 1341.78 308.334 1339.48 305.455L1351.97 295.46ZM1343.09 293.06V277.06C1340.67 277.06 1338.07 277.135 1335.79 277.461L1338.05 293.3L1340.31 309.139C1340.2 309.156 1340.36 309.128 1340.91 309.102C1341.43 309.077 1342.15 309.06 1343.09 309.06V293.06ZM1338.05 293.3L1337.48 277.31C1330.9 277.545 1324.44 279.063 1318.19 281.564L1324.13 296.42L1330.07 311.276C1333.42 309.937 1336.24 309.375 1338.62 309.29L1338.05 293.3ZM1324.13 296.42H1308.13V372.5H1324.13H1340.13V296.42H1324.13ZM1324.13 372.5V356.5H1283.09V372.5V388.5H1324.13V372.5ZM1283.09 372.5H1299.09V262.1H1283.09H1267.09V372.5H1283.09ZM1283.09 262.1V278.1H1316.45V262.1V246.1H1283.09V262.1ZM1316.45 262.1L1300.92 265.933L1305.48 284.413L1321.01 280.58L1336.54 276.747L1331.98 258.267L1316.45 262.1ZM1321.01 280.58L1333.34 290.781C1342.26 280 1351.71 275.7 1362.29 275.7V259.7V243.7C1340.87 243.7 1322.8 253.32 1308.68 270.379L1321.01 280.58ZM1362.29 259.7V275.7C1366.56 275.7 1370.24 276.29 1373.46 277.327L1378.37 262.1L1383.28 246.873C1376.58 244.71 1369.54 243.7 1362.29 243.7V259.7ZM1378.37 262.1L1373.6 277.372C1376.8 278.371 1377.63 279.342 1377.65 279.366L1389.89 269.06L1402.13 258.754C1397.03 252.698 1390.18 249.029 1383.14 246.828L1378.37 262.1ZM1523.09 226.82H1539.09C1539.09 222.464 1537.31 218.296 1534.17 215.279C1531.03 212.261 1526.79 210.656 1522.44 210.833L1523.09 226.82ZM1523.09 372.5V388.5C1531.92 388.5 1539.09 381.337 1539.09 372.5H1523.09ZM1489.25 372.5L1473.51 375.362C1474.89 382.97 1481.52 388.5 1489.25 388.5V372.5ZM1485.89 354.02L1501.63 351.158C1500.4 344.412 1495.01 339.197 1488.23 338.193C1481.45 337.188 1474.78 340.618 1471.65 346.719L1485.89 354.02ZM1471.73 368.9L1479.86 382.682H1479.86L1471.73 368.9ZM1420.61 360.98L1408.24 371.136C1408.28 371.179 1408.32 371.223 1408.35 371.266L1420.61 360.98ZM1414.37 287.06L1429.4 292.528V292.528L1414.37 287.06ZM1425.65 268.1L1415.06 256.103C1415.05 256.116 1415.03 256.128 1415.02 256.141L1425.65 268.1ZM1442.21 262.1L1439.24 246.377C1439.22 246.381 1439.21 246.384 1439.19 246.388L1442.21 262.1ZM1482.53 261.38L1479.63 277.115C1484.47 278.008 1489.46 276.619 1493.14 273.35C1496.83 270.082 1498.8 265.298 1498.5 260.382L1482.53 261.38ZM1481.81 228.5L1481.16 212.513C1472.58 212.862 1465.81 219.917 1465.81 228.5H1481.81ZM1482.05 340.1L1486.79 355.381C1493.49 353.303 1498.05 347.11 1498.05 340.1H1482.05ZM1482.05 288.02H1498.05C1498.05 280.028 1492.15 273.262 1484.23 272.17L1482.05 288.02ZM1457.57 288.26L1449.09 274.692C1448.77 274.89 1448.46 275.1 1448.16 275.32L1457.57 288.26ZM1453.25 299.3L1437.51 296.401C1437.49 296.514 1437.47 296.626 1437.45 296.739L1453.25 299.3ZM1456.13 337.46L1444.24 348.163C1444.33 348.27 1444.43 348.376 1444.53 348.48L1456.13 337.46ZM1523.09 226.82H1507.09V372.5H1523.09H1539.09V226.82H1523.09ZM1523.09 372.5V356.5H1489.25V372.5V388.5H1523.09V372.5ZM1489.25 372.5L1504.99 369.638L1501.63 351.158L1485.89 354.02L1470.15 356.882L1473.51 375.362L1489.25 372.5ZM1485.89 354.02L1471.65 346.719C1469.88 350.172 1467.32 352.923 1463.6 355.118L1471.73 368.9L1479.86 382.682C1488.61 377.517 1495.5 370.348 1500.13 361.321L1485.89 354.02ZM1471.73 368.9L1463.6 355.118C1460.02 357.227 1455.83 358.42 1450.61 358.42V374.42V390.42C1461.06 390.42 1470.95 387.933 1479.86 382.682L1471.73 368.9ZM1450.61 374.42V358.42C1442.5 358.42 1437.12 355.764 1432.86 350.694L1420.61 360.98L1408.35 371.266C1419.14 384.116 1433.76 390.42 1450.61 390.42V374.42ZM1420.61 360.98L1432.97 350.824C1428.95 345.923 1425.57 336.795 1425.57 320.66H1409.57H1393.57C1393.57 340.365 1397.55 358.117 1408.24 371.136L1420.61 360.98ZM1409.57 320.66H1425.57C1425.57 308.156 1427.06 298.975 1429.4 292.528L1414.37 287.06L1399.33 281.592C1395.28 292.745 1393.57 305.964 1393.57 320.66H1409.57ZM1414.37 287.06L1429.4 292.528C1432.2 284.842 1434.81 281.364 1436.28 280.059L1425.65 268.1L1415.02 256.141C1407.85 262.516 1402.94 271.678 1399.33 281.592L1414.37 287.06ZM1425.65 268.1L1436.23 280.097C1435.45 280.794 1435.38 280.53 1437.28 279.843C1438.99 279.224 1441.57 278.516 1445.23 277.812L1442.21 262.1L1439.19 246.388C1434.53 247.284 1430.19 248.376 1426.38 249.757C1422.75 251.07 1418.57 253.006 1415.06 256.103L1425.65 268.1ZM1442.21 262.1L1445.17 277.823C1452.96 276.353 1459.46 275.7 1464.77 275.7V259.7V243.7C1456.96 243.7 1448.41 244.647 1439.24 246.377L1442.21 262.1ZM1464.77 259.7V275.7C1469.49 275.7 1474.44 276.159 1479.63 277.115L1482.53 261.38L1485.43 245.645C1478.46 244.361 1471.57 243.7 1464.77 243.7V259.7ZM1482.53 261.38L1498.5 260.382C1498.26 256.553 1498.08 253.609 1497.96 251.536C1497.9 250.496 1497.86 249.705 1497.84 249.144C1497.8 248.436 1497.81 248.411 1497.81 248.66H1481.81H1465.81C1465.81 250.114 1466.11 255.124 1466.56 262.378L1482.53 261.38ZM1481.81 248.66H1497.81V228.5H1481.81H1465.81V248.66H1481.81ZM1481.81 228.5L1482.46 244.487L1523.74 242.807L1523.09 226.82L1522.44 210.833L1481.16 212.513L1481.81 228.5ZM1468.61 342.26V358.26C1474.72 358.26 1480.8 357.239 1486.79 355.381L1482.05 340.1L1477.31 324.819C1474.01 325.841 1471.13 326.26 1468.61 326.26V342.26ZM1482.05 340.1H1498.05V288.02H1482.05H1466.05V340.1H1482.05ZM1482.05 288.02L1484.23 272.17C1478.75 271.413 1472.88 271.06 1466.69 271.06V287.06V303.06C1471.69 303.06 1476.07 303.347 1479.86 303.87L1482.05 288.02ZM1466.69 287.06V271.06C1463.93 271.06 1461.21 271.17 1458.72 271.497C1456.8 271.75 1452.8 272.37 1449.09 274.692L1457.57 288.26L1466.05 301.828C1465.28 302.311 1464.61 302.615 1464.16 302.798C1463.7 302.985 1463.35 303.094 1463.14 303.151C1462.75 303.259 1462.63 303.259 1462.9 303.223C1463.14 303.192 1463.57 303.148 1464.23 303.114C1464.89 303.081 1465.7 303.06 1466.69 303.06V287.06ZM1457.57 288.26L1448.16 275.32C1443.51 278.701 1441.32 283.465 1440.27 286.15C1439.03 289.312 1438.17 292.852 1437.51 296.401L1453.25 299.3L1468.98 302.199C1469.21 300.986 1469.42 300.012 1469.62 299.249C1469.83 298.475 1469.99 298.019 1470.07 297.81C1470.16 297.573 1470.09 297.824 1469.75 298.344C1469.58 298.62 1469.28 299.033 1468.85 299.514C1468.42 299.996 1467.81 300.597 1466.98 301.2L1457.57 288.26ZM1453.25 299.3L1437.45 296.739C1436.35 303.58 1435.81 310.681 1435.81 318.02H1451.81H1467.81C1467.81 312.239 1468.23 306.86 1469.04 301.861L1453.25 299.3ZM1451.81 318.02H1435.81C1435.81 323.576 1436.21 328.895 1437.27 333.671C1438.29 338.269 1440.21 343.694 1444.24 348.163L1456.13 337.46L1468.02 326.757C1469.16 328.026 1468.93 328.611 1468.51 326.729C1468.13 325.025 1467.81 322.224 1467.81 318.02H1451.81ZM1456.13 337.46L1444.53 348.48C1451.17 355.476 1459.87 358.26 1468.61 358.26V342.26V326.26C1467.58 326.26 1467.21 326.104 1467.27 326.126C1467.3 326.137 1467.38 326.174 1467.49 326.247C1467.6 326.321 1467.68 326.394 1467.73 326.44L1456.13 337.46ZM1549.98 242.9L1538.91 254.452C1538.99 254.527 1539.06 254.601 1539.14 254.675L1549.98 242.9ZM1549.98 216.5L1539.14 204.725C1539.06 204.799 1538.99 204.873 1538.91 204.948L1549.98 216.5ZM1578.06 242.9L1589.13 254.452L1578.06 242.9ZM1543.5 262.1V246.1C1534.66 246.1 1527.5 253.263 1527.5 262.1H1543.5ZM1584.54 262.1H1600.54C1600.54 253.263 1593.37 246.1 1584.54 246.1V262.1ZM1584.54 372.5V388.5C1593.37 388.5 1600.54 381.337 1600.54 372.5H1584.54ZM1543.5 372.5H1527.5C1527.5 381.337 1534.66 388.5 1543.5 388.5V372.5ZM1564.14 248.42V232.42C1562.71 232.42 1561.85 232.085 1560.81 231.125L1549.98 242.9L1539.14 254.675C1546.1 261.075 1554.69 264.42 1564.14 264.42V248.42ZM1549.98 242.9L1561.05 231.348C1560.49 230.813 1560.35 230.504 1560.32 230.441C1560.3 230.391 1560.22 230.207 1560.22 229.7H1544.22H1528.22C1528.22 239.368 1532.06 247.886 1538.91 254.452L1549.98 242.9ZM1544.22 229.7H1560.22C1560.22 229.193 1560.3 229.009 1560.32 228.959C1560.35 228.896 1560.49 228.587 1561.05 228.052L1549.98 216.5L1538.91 204.948C1532.06 211.514 1528.22 220.032 1528.22 229.7H1544.22ZM1549.98 216.5L1560.81 228.275C1561.85 227.315 1562.71 226.98 1564.14 226.98V210.98V194.98C1554.69 194.98 1546.1 198.325 1539.14 204.725L1549.98 216.5ZM1564.14 210.98V226.98C1565.56 226.98 1566.2 227.298 1566.99 228.052L1578.06 216.5L1589.13 204.948C1582.23 198.342 1573.6 194.98 1564.14 194.98V210.98ZM1578.06 216.5L1566.99 228.052C1567.55 228.587 1567.69 228.896 1567.71 228.959C1567.73 229.009 1567.82 229.193 1567.82 229.7H1583.82H1599.82C1599.82 220.032 1595.98 211.514 1589.13 204.948L1578.06 216.5ZM1583.82 229.7H1567.82C1567.82 230.207 1567.73 230.391 1567.71 230.441C1567.69 230.504 1567.55 230.813 1566.99 231.348L1578.06 242.9L1589.13 254.452C1595.98 247.886 1599.82 239.368 1599.82 229.7H1583.82ZM1578.06 242.9L1566.99 231.348C1566.2 232.102 1565.56 232.42 1564.14 232.42V248.42V264.42C1573.6 264.42 1582.23 261.058 1589.13 254.452L1578.06 242.9ZM1543.5 262.1V278.1H1584.54V262.1V246.1H1543.5V262.1ZM1584.54 262.1H1568.54V372.5H1584.54H1600.54V262.1H1584.54ZM1584.54 372.5V356.5H1543.5V372.5V388.5H1584.54V372.5ZM1543.5 372.5H1559.5V262.1H1543.5H1527.5V372.5H1543.5ZM1700.65 345.62H1716.65C1716.65 336.783 1709.48 329.62 1700.65 329.62V345.62ZM1700.65 372.5V388.5C1709.48 388.5 1716.65 381.337 1716.65 372.5H1700.65ZM1601.53 372.5H1585.53C1585.53 381.337 1592.69 388.5 1601.53 388.5V372.5ZM1601.53 344.9L1589.87 333.937C1587.08 336.905 1585.53 340.826 1585.53 344.9H1601.53ZM1654.81 288.26L1666.46 299.223C1670.83 294.574 1672.03 287.771 1669.49 281.912C1666.96 276.053 1661.19 272.26 1654.81 272.26V288.26ZM1602.97 288.26H1586.97C1586.97 297.097 1594.13 304.26 1602.97 304.26V288.26ZM1602.97 262.1V246.1C1594.13 246.1 1586.97 253.263 1586.97 262.1H1602.97ZM1699.45 262.1H1715.45C1715.45 253.263 1708.28 246.1 1699.45 246.1V262.1ZM1699.45 289.46L1711.08 300.446C1713.88 297.476 1715.45 293.545 1715.45 289.46H1699.45ZM1646.41 345.62L1634.77 334.634C1630.39 339.278 1629.19 346.087 1631.71 351.953C1634.24 357.82 1640.02 361.62 1646.41 361.62V345.62ZM1700.65 345.62H1684.65V372.5H1700.65H1716.65V345.62H1700.65ZM1700.65 372.5V356.5H1601.53V372.5V388.5H1700.65V372.5ZM1601.53 372.5H1617.53V344.9H1601.53H1585.53V372.5H1601.53ZM1601.53 344.9L1613.18 355.863L1666.46 299.223L1654.81 288.26L1643.15 277.297L1589.87 333.937L1601.53 344.9ZM1654.81 288.26V272.26H1602.97V288.26V304.26H1654.81V288.26ZM1602.97 288.26H1618.97V262.1H1602.97H1586.97V288.26H1602.97ZM1602.97 262.1V278.1H1699.45V262.1V246.1H1602.97V262.1ZM1699.45 262.1H1683.45V289.46H1699.45H1715.45V262.1H1699.45ZM1699.45 289.46L1687.81 278.474L1634.77 334.634L1646.41 345.62L1658.04 356.606L1711.08 300.446L1699.45 289.46ZM1646.41 345.62V361.62H1700.65V345.62V329.62H1646.41V345.62ZM1782.68 372.5L1767.17 376.438C1768.97 383.533 1775.36 388.5 1782.68 388.5V372.5ZM1778.84 357.38L1794.35 353.442C1792.76 347.207 1787.6 342.527 1781.24 341.561C1774.88 340.596 1768.56 343.532 1765.2 349.015L1778.84 357.38ZM1721.72 366.5L1710.98 378.365C1711.08 378.454 1711.18 378.542 1711.28 378.628L1721.72 366.5ZM1717.4 323.54L1704.79 313.69C1704.78 313.708 1704.76 313.727 1704.75 313.745L1717.4 323.54ZM1733.72 312.74L1729.32 297.356C1729.24 297.378 1729.17 297.401 1729.09 297.425L1733.72 312.74ZM1775.24 308.42L1775.51 324.418C1784.24 324.268 1791.24 317.15 1791.24 308.42H1775.24ZM1773.8 291.62L1763.8 304.114C1764.16 304.403 1764.54 304.676 1764.92 304.933L1773.8 291.62ZM1754.84 291.14L1755.5 307.126C1755.64 307.121 1755.77 307.113 1755.9 307.105L1754.84 291.14ZM1723.64 293.78L1707.81 296.125C1709.07 304.633 1716.83 310.623 1725.38 309.684L1723.64 293.78ZM1720.76 265.94L1717.51 250.274C1709.7 251.894 1704.28 259.014 1704.79 266.97L1720.76 265.94ZM1747.4 261.62L1749.32 277.505C1749.41 277.494 1749.49 277.482 1749.58 277.47L1747.4 261.62ZM1801.16 266.18L1792.21 279.442C1792.28 279.493 1792.36 279.545 1792.44 279.595L1801.16 266.18ZM1813.64 282.74L1829.05 278.439V278.439L1813.64 282.74ZM1816.28 308.9L1800.28 308.658C1800.28 308.702 1800.28 308.747 1800.28 308.791L1816.28 308.9ZM1816.04 344.18L1800.04 344.071C1800.04 344.243 1800.04 344.415 1800.04 344.587L1816.04 344.18ZM1816.76 372.5V388.5C1821.07 388.5 1825.2 386.758 1828.21 383.669C1831.23 380.58 1832.86 376.406 1832.75 372.093L1816.76 372.5ZM1775.24 346.1L1780.45 361.226C1786.91 359.001 1791.24 352.926 1791.24 346.1H1775.24ZM1775.24 328.34H1791.24C1791.24 319.503 1784.07 312.34 1775.24 312.34V328.34ZM1753.64 330.26L1742.32 318.946V318.946L1753.64 330.26ZM1751.72 333.86L1736.39 329.262C1736.25 329.743 1736.13 330.23 1736.03 330.722L1751.72 333.86ZM1753.88 346.34L1743.75 358.723V358.723L1753.88 346.34ZM1782.68 372.5L1798.19 368.562L1794.35 353.442L1778.84 357.38L1763.33 361.318L1767.17 376.438L1782.68 372.5ZM1778.84 357.38L1765.2 349.015C1760.49 356.689 1755.2 359.38 1748.12 359.38V375.38V391.38C1767.28 391.38 1782.46 382.071 1792.48 365.745L1778.84 357.38ZM1748.12 375.38V359.38C1740.5 359.38 1735.62 357.356 1732.15 354.372L1721.72 366.5L1711.28 378.628C1721.57 387.484 1734.3 391.38 1748.12 391.38V375.38ZM1721.72 366.5L1732.45 354.635C1729.75 352.193 1727.64 348.405 1727.64 341.06H1711.64H1695.64C1695.64 355.475 1700.24 368.647 1710.98 378.365L1721.72 366.5ZM1711.64 341.06H1727.64C1727.64 337.616 1728.54 335.285 1730.05 333.335L1717.4 323.54L1704.75 313.745C1698.58 321.715 1695.64 331.064 1695.64 341.06H1711.64ZM1717.4 323.54L1730.01 333.39C1731.76 331.146 1734.28 329.286 1738.35 328.055L1733.72 312.74L1729.09 297.425C1719.4 300.354 1711.04 305.694 1704.79 313.69L1717.4 323.54ZM1733.72 312.74L1738.11 328.124C1744.97 326.164 1757.08 324.733 1775.51 324.418L1775.24 308.42L1774.96 292.422C1755.96 292.747 1740.38 294.196 1729.32 297.356L1733.72 312.74ZM1775.24 308.42H1791.24C1791.24 303.005 1791.12 298.423 1790.82 294.934C1790.68 293.252 1790.45 291.296 1790.02 289.432C1789.81 288.524 1789.43 287.11 1788.74 285.565C1788.25 284.45 1786.6 280.922 1782.67 278.307L1773.8 291.62L1764.92 304.933C1762.92 303.599 1761.66 302.09 1760.95 301.098C1760.22 300.077 1759.78 299.179 1759.53 298.62C1759.05 297.545 1758.87 296.756 1758.84 296.628C1758.77 296.324 1758.84 296.548 1758.94 297.666C1759.12 299.777 1759.24 303.275 1759.24 308.42H1775.24ZM1773.8 291.62L1783.79 279.126C1781.16 277.023 1778.49 276.165 1777.26 275.816C1775.78 275.391 1774.37 275.162 1773.26 275.024C1771.03 274.745 1768.56 274.66 1766.12 274.66V290.66V306.66C1767.99 306.66 1768.96 306.735 1769.29 306.776C1769.46 306.798 1769.12 306.769 1768.47 306.584C1768.13 306.487 1767.55 306.302 1766.83 305.977C1766.14 305.664 1765.02 305.091 1763.8 304.114L1773.8 291.62ZM1766.12 290.66V274.66C1762.87 274.66 1758.7 274.847 1753.77 275.175L1754.84 291.14L1755.9 307.105C1760.57 306.793 1763.92 306.66 1766.12 306.66V290.66ZM1754.84 291.14L1754.17 275.154C1745.97 275.496 1735.16 276.42 1721.89 277.876L1723.64 293.78L1725.38 309.684C1738.36 308.26 1748.35 307.424 1755.5 307.126L1754.84 291.14ZM1723.64 293.78L1739.47 291.435C1738.26 283.286 1737.34 274.449 1736.73 264.91L1720.76 265.94L1704.79 266.97C1705.46 277.271 1706.46 286.994 1707.81 296.125L1723.64 293.78ZM1720.76 265.94L1724.01 281.606C1732.02 279.945 1740.45 278.575 1749.32 277.505L1747.4 261.62L1745.48 245.735C1735.79 246.905 1726.46 248.415 1717.51 250.274L1720.76 265.94ZM1747.4 261.62L1749.58 277.47C1758.32 276.264 1765.9 275.7 1772.36 275.7V259.7V243.7C1764.1 243.7 1755.03 244.416 1745.21 245.77L1747.4 261.62ZM1772.36 259.7V275.7C1783.86 275.7 1789.67 277.732 1792.21 279.442L1801.16 266.18L1810.11 252.918C1799.84 245.988 1786.46 243.7 1772.36 243.7V259.7ZM1801.16 266.18L1792.44 279.595C1795.82 281.791 1797.43 284.183 1798.23 287.041L1813.64 282.74L1829.05 278.439C1826.01 267.537 1819.3 258.889 1809.88 252.765L1801.16 266.18ZM1813.64 282.74L1798.23 287.041C1799.59 291.919 1800.43 298.973 1800.28 308.658L1816.28 308.9L1832.28 309.142C1832.45 297.707 1831.53 287.321 1829.05 278.439L1813.64 282.74ZM1816.28 308.9L1800.28 308.791L1800.04 344.071L1816.04 344.18L1832.04 344.289L1832.28 309.009L1816.28 308.9ZM1816.04 344.18L1800.04 344.587L1800.76 372.907L1816.76 372.5L1832.75 372.093L1832.03 343.773L1816.04 344.18ZM1816.76 372.5V356.5H1782.68V372.5V388.5H1816.76V372.5ZM1762.04 348.5V364.5C1768.26 364.5 1774.43 363.303 1780.45 361.226L1775.24 346.1L1770.02 330.974C1766.77 332.097 1764.14 332.5 1762.04 332.5V348.5ZM1775.24 346.1H1791.24V328.34H1775.24H1759.24V346.1H1775.24ZM1775.24 328.34V312.34H1773.32V328.34V344.34H1775.24V328.34ZM1773.32 328.34V312.34C1767.22 312.34 1762.01 312.501 1757.96 312.896C1755.98 313.09 1753.82 313.381 1751.78 313.879C1750.67 314.152 1746.06 315.214 1742.32 318.946L1753.64 330.26L1764.95 341.574C1763.1 343.422 1761.3 344.245 1760.7 344.505C1759.94 344.829 1759.44 344.95 1759.39 344.961C1759.32 344.979 1759.78 344.87 1761.07 344.744C1763.58 344.499 1767.58 344.34 1773.32 344.34V328.34ZM1753.64 330.26L1742.32 318.946C1738.97 322.3 1737.3 326.245 1736.39 329.262L1751.72 333.86L1767.04 338.458C1767.04 338.465 1767.02 338.542 1766.96 338.677C1766.91 338.812 1766.82 339.022 1766.68 339.289C1766.4 339.81 1765.87 340.659 1764.95 341.574L1753.64 330.26ZM1751.72 333.86L1736.03 330.722C1735.53 333.221 1735.24 335.798 1735.24 338.42H1751.24H1767.24C1767.24 338.162 1767.27 337.699 1767.41 336.998L1751.72 333.86ZM1751.24 338.42H1735.24C1735.24 343.852 1736.35 352.673 1743.75 358.723L1753.88 346.34L1764.01 333.957C1765.95 335.54 1766.78 337.315 1767.08 338.22C1767.34 339.02 1767.24 339.225 1767.24 338.42H1751.24ZM1753.88 346.34L1743.75 358.723C1749.66 363.565 1756.79 364.5 1762.04 364.5V348.5V332.5C1761.18 332.5 1761.02 332.41 1761.33 332.493C1761.67 332.582 1762.75 332.928 1764.01 333.957L1753.88 346.34ZM1944.73 226.82H1960.73C1960.73 222.464 1958.95 218.296 1955.81 215.279C1952.67 212.261 1948.43 210.656 1944.08 210.833L1944.73 226.82ZM1944.73 372.5V388.5C1953.57 388.5 1960.73 381.337 1960.73 372.5H1944.73ZM1910.89 372.5L1895.15 375.362C1896.53 382.97 1903.16 388.5 1910.89 388.5V372.5ZM1907.53 354.02L1923.27 351.158C1922.04 344.412 1916.66 339.197 1909.87 338.193C1903.09 337.188 1896.42 340.618 1893.29 346.719L1907.53 354.02ZM1893.37 368.9L1901.5 382.682H1901.5L1893.37 368.9ZM1842.25 360.98L1829.89 371.136C1829.92 371.179 1829.96 371.223 1829.99 371.266L1842.25 360.98ZM1836.01 287.06L1851.05 292.528V292.528L1836.01 287.06ZM1847.29 268.1L1836.7 256.103C1836.69 256.116 1836.67 256.128 1836.66 256.141L1847.29 268.1ZM1863.85 262.1L1860.88 246.377C1860.86 246.381 1860.85 246.384 1860.83 246.388L1863.85 262.1ZM1904.17 261.38L1901.27 277.115C1906.11 278.008 1911.1 276.619 1914.79 273.35C1918.47 270.082 1920.44 265.298 1920.14 260.382L1904.17 261.38ZM1903.45 228.5L1902.8 212.513C1894.22 212.862 1887.45 219.917 1887.45 228.5H1903.45ZM1903.69 340.1L1908.43 355.381C1915.13 353.303 1919.69 347.11 1919.69 340.1H1903.69ZM1903.69 288.02H1919.69C1919.69 280.028 1913.79 273.262 1905.88 272.17L1903.69 288.02ZM1879.21 288.26L1870.73 274.692C1870.41 274.89 1870.1 275.1 1869.8 275.32L1879.21 288.26ZM1874.89 299.3L1859.15 296.401C1859.13 296.514 1859.11 296.626 1859.1 296.739L1874.89 299.3ZM1877.77 337.46L1865.88 348.163C1865.97 348.27 1866.07 348.376 1866.17 348.48L1877.77 337.46ZM1944.73 226.82H1928.73V372.5H1944.73H1960.73V226.82H1944.73ZM1944.73 372.5V356.5H1910.89V372.5V388.5H1944.73V372.5ZM1910.89 372.5L1926.63 369.638L1923.27 351.158L1907.53 354.02L1891.79 356.882L1895.15 375.362L1910.89 372.5ZM1907.53 354.02L1893.29 346.719C1891.52 350.172 1888.96 352.923 1885.24 355.118L1893.37 368.9L1901.5 382.682C1910.25 377.517 1917.14 370.348 1921.77 361.321L1907.53 354.02ZM1893.37 368.9L1885.24 355.118C1881.66 357.227 1877.47 358.42 1872.25 358.42V374.42V390.42C1882.7 390.42 1892.59 387.933 1901.5 382.682L1893.37 368.9ZM1872.25 374.42V358.42C1864.14 358.42 1858.76 355.764 1854.5 350.694L1842.25 360.98L1829.99 371.266C1840.78 384.116 1855.4 390.42 1872.25 390.42V374.42ZM1842.25 360.98L1854.61 350.824C1850.59 345.923 1847.21 336.795 1847.21 320.66H1831.21H1815.21C1815.21 340.365 1819.19 358.117 1829.89 371.136L1842.25 360.98ZM1831.21 320.66H1847.21C1847.21 308.156 1848.7 298.975 1851.05 292.528L1836.01 287.06L1820.97 281.592C1816.92 292.745 1815.21 305.964 1815.21 320.66H1831.21ZM1836.01 287.06L1851.05 292.528C1853.84 284.842 1856.45 281.364 1857.92 280.059L1847.29 268.1L1836.66 256.141C1829.49 262.516 1824.58 271.678 1820.97 281.592L1836.01 287.06ZM1847.29 268.1L1857.87 280.097C1857.09 280.794 1857.02 280.53 1858.92 279.843C1860.63 279.224 1863.21 278.516 1866.87 277.812L1863.85 262.1L1860.83 246.388C1856.17 247.284 1851.83 248.376 1848.02 249.757C1844.39 251.07 1840.21 253.006 1836.7 256.103L1847.29 268.1ZM1863.85 262.1L1866.82 277.823C1874.6 276.353 1881.1 275.7 1886.41 275.7V259.7V243.7C1878.6 243.7 1870.05 244.647 1860.88 246.377L1863.85 262.1ZM1886.41 259.7V275.7C1891.13 275.7 1896.08 276.159 1901.27 277.115L1904.17 261.38L1907.07 245.645C1900.1 244.361 1893.21 243.7 1886.41 243.7V259.7ZM1904.17 261.38L1920.14 260.382C1919.9 256.553 1919.72 253.609 1919.6 251.536C1919.54 250.496 1919.5 249.705 1919.48 249.144C1919.44 248.436 1919.45 248.411 1919.45 248.66H1903.45H1887.45C1887.45 250.114 1887.75 255.124 1888.2 262.378L1904.17 261.38ZM1903.45 248.66H1919.45V228.5H1903.45H1887.45V248.66H1903.45ZM1903.45 228.5L1904.1 244.487L1945.38 242.807L1944.73 226.82L1944.08 210.833L1902.8 212.513L1903.45 228.5ZM1890.25 342.26V358.26C1896.36 358.26 1902.44 357.239 1908.43 355.381L1903.69 340.1L1898.95 324.819C1895.65 325.841 1892.77 326.26 1890.25 326.26V342.26ZM1903.69 340.1H1919.69V288.02H1903.69H1887.69V340.1H1903.69ZM1903.69 288.02L1905.88 272.17C1900.39 271.413 1894.52 271.06 1888.33 271.06V287.06V303.06C1893.33 303.06 1897.71 303.347 1901.5 303.87L1903.69 288.02ZM1888.33 287.06V271.06C1885.57 271.06 1882.85 271.17 1880.36 271.497C1878.44 271.75 1874.44 272.37 1870.73 274.692L1879.21 288.26L1887.69 301.828C1886.92 302.311 1886.25 302.615 1885.8 302.798C1885.34 302.985 1884.99 303.094 1884.78 303.151C1884.39 303.259 1884.27 303.259 1884.54 303.223C1884.78 303.192 1885.21 303.148 1885.87 303.114C1886.53 303.081 1887.34 303.06 1888.33 303.06V287.06ZM1879.21 288.26L1869.8 275.32C1865.15 278.701 1862.96 283.465 1861.91 286.15C1860.67 289.312 1859.81 292.852 1859.15 296.401L1874.89 299.3L1890.62 302.199C1890.85 300.986 1891.07 300.012 1891.27 299.249C1891.47 298.475 1891.63 298.019 1891.71 297.81C1891.8 297.573 1891.73 297.824 1891.39 298.344C1891.22 298.62 1890.92 299.033 1890.49 299.514C1890.06 299.996 1889.45 300.597 1888.62 301.2L1879.21 288.26ZM1874.89 299.3L1859.1 296.739C1857.99 303.58 1857.45 310.681 1857.45 318.02H1873.45H1889.45C1889.45 312.239 1889.87 306.86 1890.68 301.861L1874.89 299.3ZM1873.45 318.02H1857.45C1857.45 323.576 1857.85 328.895 1858.91 333.671C1859.93 338.269 1861.85 343.694 1865.88 348.163L1877.77 337.46L1889.66 326.757C1890.8 328.026 1890.57 328.611 1890.15 326.729C1889.77 325.025 1889.45 322.224 1889.45 318.02H1873.45ZM1877.77 337.46L1866.17 348.48C1872.82 355.476 1881.51 358.26 1890.25 358.26V342.26V326.26C1889.22 326.26 1888.86 326.104 1888.91 326.126C1888.94 326.137 1889.02 326.174 1889.13 326.247C1889.24 326.321 1889.33 326.394 1889.37 326.44L1877.77 337.46ZM1974.5 362.18L1963.38 373.687C1963.45 373.751 1963.51 373.814 1963.58 373.877L1974.5 362.18ZM1963.22 291.14L1947.71 287.188C1947.7 287.26 1947.68 287.333 1947.66 287.406L1963.22 291.14ZM1970.66 274.1L1982.55 284.803C1982.58 284.769 1982.61 284.735 1982.64 284.701L1970.66 274.1ZM1990.82 263.78L1986.59 248.35C1986.57 248.355 1986.54 248.361 1986.52 248.367L1990.82 263.78ZM2061.86 360.98L2073.36 372.104V372.104L2061.86 360.98ZM2030.66 341.06L2045.28 347.558C2045.31 347.493 2045.34 347.428 2045.36 347.363L2030.66 341.06ZM2032.34 299.54L2016.61 302.453C2016.61 302.49 2016.62 302.526 2016.63 302.562L2032.34 299.54ZM2027.78 290.18L2016.46 301.494C2016.75 301.783 2017.05 302.062 2017.37 302.328L2027.78 290.18ZM2006.9 288.74L2017.43 300.781C2018.01 300.278 2018.55 299.733 2019.05 299.153L2006.9 288.74ZM2003.78 299.3L2019.63 301.443V301.443L2003.78 299.3ZM2005.7 340.82L1991.19 347.558C1991.25 347.698 1991.32 347.837 1991.39 347.975L2005.7 340.82ZM2017.7 375.62V359.62C2000.7 359.62 1990.93 355.632 1985.42 350.483L1974.5 362.18L1963.58 373.877C1977.26 386.648 1996.3 391.62 2017.7 391.62V375.62ZM1974.5 362.18L1985.62 350.673C1980.54 345.771 1976.34 336.508 1976.34 319.22H1960.34H1944.34C1944.34 340.972 1949.58 360.349 1963.38 373.687L1974.5 362.18ZM1960.34 319.22H1976.34C1976.34 309.401 1977.22 301.347 1978.78 294.874L1963.22 291.14L1947.66 287.406C1945.37 296.933 1944.34 307.599 1944.34 319.22H1960.34ZM1963.22 291.14L1978.72 295.092C1979.62 291.575 1980.51 288.986 1981.3 287.162C1982.13 285.265 1982.64 284.701 1982.55 284.803L1970.66 274.1L1958.77 263.397C1953.17 269.61 1949.93 278.483 1947.71 287.188L1963.22 291.14ZM1970.66 274.1L1982.64 284.701C1983.19 284.076 1986.22 281.672 1995.11 279.193L1990.82 263.78L1986.52 248.367C1975.9 251.328 1965.48 255.804 1958.67 263.499L1970.66 274.1ZM1990.82 263.78L1995.05 279.21C2003.84 276.799 2011.69 275.7 2018.66 275.7V259.7V243.7C2008.35 243.7 1997.63 245.321 1986.59 248.35L1990.82 263.78ZM2018.66 259.7V275.7C2037.7 275.7 2047.17 279.875 2051.5 284.214L2062.82 272.9L2074.13 261.586C2060.87 248.325 2040.89 243.7 2018.66 243.7V259.7ZM2062.82 272.9L2051.5 284.214C2056 288.708 2060.02 297.728 2060.02 315.14H2076.02H2092.02C2092.02 293.832 2087.24 274.692 2074.13 261.586L2062.82 272.9ZM2076.02 315.14H2060.02C2060.02 333.941 2055.7 344.334 2050.36 349.856L2061.86 360.98L2073.36 372.104C2086.9 358.106 2092.02 337.939 2092.02 315.14H2076.02ZM2061.86 360.98L2050.36 349.856C2045.11 355.282 2035.41 359.62 2017.7 359.62V375.62V391.62C2039.98 391.62 2059.73 386.198 2073.36 372.104L2061.86 360.98ZM2018.42 347.54V363.54C2023.27 363.54 2028.63 362.715 2033.64 360.061C2038.93 357.261 2042.9 352.908 2045.28 347.558L2030.66 341.06L2016.04 334.562C2016.22 334.15 2016.55 333.592 2017.07 333.024C2017.6 332.453 2018.17 332.043 2018.67 331.779C2019.61 331.285 2019.81 331.54 2018.42 331.54V347.54ZM2030.66 341.06L2045.36 347.363C2048.69 339.596 2049.54 328.809 2049.54 317.54H2033.54H2017.54C2017.54 328.671 2016.46 333.564 2015.95 334.757L2030.66 341.06ZM2033.54 317.54H2049.54C2049.54 309.386 2049.14 302.183 2048.05 296.518L2032.34 299.54L2016.63 302.562C2017.14 305.217 2017.54 310.014 2017.54 317.54H2033.54ZM2032.34 299.54L2048.07 296.627C2046.92 290.403 2044.28 283.251 2038.19 278.032L2027.78 290.18L2017.37 302.328C2016.56 301.636 2016.25 301.032 2016.21 300.967C2016.2 300.941 2016.25 301.036 2016.33 301.288C2016.41 301.54 2016.51 301.921 2016.61 302.453L2032.34 299.54ZM2027.78 290.18L2039.09 278.866C2032.76 272.533 2024.48 271.06 2017.94 271.06V287.06V303.06C2019 303.06 2019.24 303.191 2018.92 303.092C2018.53 302.968 2017.52 302.551 2016.46 301.494L2027.78 290.18ZM2017.94 287.06V271.06C2014.42 271.06 2010.97 271.205 2007.97 271.662C2006.48 271.889 2004.61 272.263 2002.68 272.961C2001.05 273.552 1997.62 274.983 1994.75 278.327L2006.9 288.74L2019.05 299.153C2017.76 300.648 2016.46 301.564 2015.59 302.081C2014.71 302.608 2013.98 302.901 2013.58 303.049C2012.81 303.327 2012.44 303.351 2012.79 303.298C2013.06 303.256 2013.62 303.191 2014.54 303.14C2015.43 303.09 2016.56 303.06 2017.94 303.06V287.06ZM2006.9 288.74L1996.36 276.699C1992 280.52 1990.41 285.684 1989.81 287.686C1988.96 290.56 1988.37 293.823 1987.92 297.157L2003.78 299.3L2019.63 301.443C2019.8 300.2 2019.97 299.184 2020.13 298.371C2020.29 297.545 2020.42 297.027 2020.5 296.754C2020.6 296.437 2020.56 296.658 2020.29 297.185C2020.15 297.468 2019.89 297.946 2019.48 298.529C2019.07 299.104 2018.41 299.926 2017.43 300.781L2006.9 288.74ZM2003.78 299.3L1987.92 297.157C1987.02 303.836 1986.58 310.714 1986.58 317.78H2002.58H2018.58C2018.58 312.046 2018.94 306.604 2019.63 301.443L2003.78 299.3ZM2002.58 317.78H1986.58C1986.58 328.843 1987.51 339.636 1991.19 347.558L2005.7 340.82L2020.21 334.082C2020.21 334.082 2020.21 334.076 2020.2 334.063C2020.2 334.05 2020.19 334.031 2020.18 334.005C2020.16 333.954 2020.13 333.878 2020.09 333.776C2020.02 333.569 2019.93 333.276 2019.83 332.884C2019.63 332.086 2019.41 330.993 2019.21 329.553C2018.82 326.644 2018.58 322.764 2018.58 317.78H2002.58ZM2005.7 340.82L1991.39 347.975C1997.05 359.307 2007.9 363.54 2018.42 363.54V347.54V331.54C2017.14 331.54 2017.26 331.305 2018.03 331.713C2018.43 331.924 2018.87 332.239 2019.27 332.654C2019.67 333.064 2019.9 333.44 2020.01 333.665L2005.7 340.82Z" fill="white" mask="url(#path-1-outside-1_59_334)"/>
<mask id="mask0_59_334" style="mask-type:alpha" maskUnits="userSpaceOnUse" x="122" y="189" width="273" height="273">
<rect x="130.204" y="197.5" width="256" height="256" fill="#D9D9D9" stroke="white" stroke-width="16" stroke-linejoin="round"/>
</mask>
<g mask="url(#mask0_59_334)">
<path d="M258.455 393.495C258.288 393.5 258.12 393.5 257.952 393.495L258.204 393.633L258.455 393.495ZM258.455 353.495C258.288 353.5 258.12 353.5 257.952 353.495L258.204 353.633L258.455 353.495ZM276.204 267.5H349.954C351.298 267.5 352.621 267.839 353.799 268.484L372.049 278.484C374.614 279.89 376.207 282.583 376.204 285.508C376.201 288.433 374.603 291.123 372.035 292.523L341.367 309.251C342.719 309.236 344.074 309.564 345.297 310.233L366.297 321.733C368.863 323.139 370.458 325.834 370.454 328.76C370.451 331.686 368.85 334.377 366.279 335.776L341.526 349.251C342.825 349.263 344.122 349.59 345.297 350.233L366.297 361.733C368.863 363.139 370.458 365.834 370.454 368.76C370.451 371.686 368.85 374.377 366.279 375.776L262.029 432.526C259.645 433.825 256.764 433.825 254.379 432.526L150.129 375.776C147.559 374.377 145.958 371.686 145.954 368.76C145.951 365.834 147.545 363.139 150.111 361.733L171.111 350.233L171.337 350.114C172.452 349.549 173.666 349.262 174.882 349.251L150.129 335.776C147.559 334.377 145.958 331.686 145.954 328.76C145.951 325.834 147.545 323.139 150.111 321.733L171.111 310.233L171.337 310.114C172.5 309.525 173.772 309.237 175.041 309.251L144.373 292.523C141.803 291.122 140.204 288.428 140.204 285.5C140.204 282.572 141.803 279.878 144.373 278.477L254.373 218.477L254.6 218.358C256.951 217.172 259.743 217.216 262.06 218.49L272.06 223.99C274.616 225.396 276.204 228.082 276.204 231V267.5Z" fill="#F375C2" stroke="white" stroke-width="16" stroke-linejoin="round"/>
</g>
</svg>
