<svg width="2518" height="375" viewBox="0 0 2518 375" fill="none" xmlns="http://www.w3.org/2000/svg">
<mask id="path-1-outside-1_53_208" maskUnits="userSpaceOnUse" x="437.94" y="66" width="2080" height="299" fill="black">
<rect fill="white" x="437.94" y="66" width="2080" height="299"/>
<path d="M464.44 123H588.94V159H518.44V190.2H577.84V222.6H518.44V257.4H588.64V294H464.44V123ZM824.838 165.6C828.038 170.4 829.638 189 829.638 221.4V294H778.338V226.5V210.3C778.338 202.9 777.638 198.5 776.238 197.1C774.638 195.5 771.238 194.7 766.038 194.7L762.438 195C756.238 195.4 750.338 196.8 744.738 199.2C744.938 203.4 745.038 210.8 745.038 221.4V294H693.738V226.5V208.5C693.738 202.3 693.038 198.5 691.638 197.1C690.038 195.5 686.638 194.7 681.438 194.7L677.838 195C672.238 195.2 666.438 196.5 660.438 198.9V294H609.138V156H650.838L656.238 178.5C662.838 169.7 670.438 163.3 679.038 159.3C687.638 155.1 696.338 153 705.138 153C712.538 153 719.538 154.1 726.138 156.3C732.938 158.5 737.638 161.6 740.238 165.6C741.438 167.4 742.438 170.7 743.238 175.5C749.638 167.7 756.938 162 765.138 158.4C773.338 154.8 781.538 153 789.738 153C797.138 153 804.138 154.1 810.738 156.3C817.538 158.5 822.238 161.6 824.838 165.6ZM1000.29 256.5H950.491L941.491 294H886.291L941.491 123H1011.99L1064.79 294H1009.29L1000.29 256.5ZM975.091 159.9L957.391 223.2H993.091L976.291 159.9H975.091ZM1171.81 153C1186.21 153 1197.61 157.8 1206.01 167.4C1214.61 176.8 1218.91 193.3 1218.91 216.9C1218.91 234.5 1217.21 248.9 1213.81 260.1C1210.41 271.1 1206.51 278.4 1202.11 282C1197.71 285.6 1190.01 288.5 1179.01 290.7C1168.21 292.9 1157.01 294 1145.41 294C1142.01 294 1136.31 293.8 1128.31 293.4V336L1077.01 338.1V156H1119.01L1124.11 177.3C1129.31 169.9 1135.91 164 1143.91 159.6C1152.11 155.2 1161.41 153 1171.81 153ZM1159.81 257.4C1162.01 255.8 1163.61 251.3 1164.61 243.9C1165.61 236.3 1166.11 229.1 1166.11 222.3C1166.11 211.1 1164.71 202.8 1161.91 197.4C1159.11 192 1153.51 189.3 1145.11 189.3C1139.11 189.3 1133.51 189.9 1128.31 191.1V257.7L1136.71 258.6C1139.31 258.8 1143.01 258.9 1147.81 258.9C1154.61 258.9 1158.61 258.4 1159.81 257.4ZM1324.52 153C1327.12 153 1329.82 153.3 1332.62 153.9C1335.62 154.5 1337.82 155.2 1339.22 156C1339.22 160.4 1338.72 167.7 1337.72 177.9C1336.72 187.9 1335.82 195 1335.02 199.2C1333.02 199 1329.32 198.9 1323.92 198.9C1311.32 198.9 1300.12 199.6 1290.32 201V294H1239.02V156H1281.92L1287.92 178.2H1288.22C1294.02 170.6 1300.22 164.5 1306.82 159.9C1313.42 155.3 1319.32 153 1324.52 153ZM1436.39 258C1441.39 258 1450.69 257.5 1464.29 256.5C1466.09 256.5 1469.39 256.3 1474.19 255.9L1478.69 286.8C1463.29 294 1443.29 297.6 1418.69 297.6C1395.69 297.6 1377.99 291.8 1365.59 280.2C1353.39 268.6 1347.29 251.1 1347.29 227.7C1347.29 215.7 1348.79 204.1 1351.79 192.9C1354.99 181.7 1358.59 173.9 1362.59 169.5C1366.79 165.1 1374.59 161.3 1385.99 158.1C1397.39 154.9 1408.69 153.3 1419.89 153.3C1437.89 153.3 1451.39 156.5 1460.39 162.9C1469.39 169.3 1475.29 178.2 1478.09 189.6C1480.89 200.8 1482.29 215.9 1482.29 234.9C1468.69 235.7 1455.39 236.1 1442.39 236.1H1399.79C1399.79 242.5 1401.09 247.3 1403.69 250.5C1406.49 253.7 1410.39 255.8 1415.39 256.8C1420.39 257.6 1427.39 258 1436.39 258ZM1402.79 189C1401.59 189.6 1400.69 192.2 1400.09 196.8C1399.49 201.4 1399.09 206.6 1398.89 212.4H1414.49C1423.89 212.4 1430.69 212.3 1434.89 212.1C1434.89 202.5 1433.49 195.7 1430.69 191.7C1428.09 187.7 1423.49 185.7 1416.89 185.7C1411.49 185.7 1406.79 186.8 1402.79 189ZM1633.85 164.7C1635.65 166.9 1636.95 172.4 1637.75 181.2C1638.75 190 1639.25 203.4 1639.25 221.4V294H1587.95V222V209.7C1587.95 203.3 1587.45 199.3 1586.45 197.7C1584.85 195.7 1581.15 194.7 1575.35 194.7C1572.55 194.7 1570.45 194.8 1569.05 195C1563.45 195.2 1557.65 196.5 1551.65 198.9V294H1500.35V156H1542.05L1547.75 179.1C1562.15 161.7 1579.35 153 1599.35 153C1606.55 153 1613.25 154 1619.45 156C1625.85 158 1630.65 160.9 1633.85 164.7ZM1800.35 111.9V294H1758.05L1753.85 270.9C1749.85 278.7 1743.95 284.9 1736.15 289.5C1728.35 294.1 1719.55 296.4 1709.75 296.4C1694.15 296.4 1681.65 290.8 1672.25 279.6C1663.05 268.4 1658.45 251.6 1658.45 229.2C1658.45 212.2 1660.45 198.2 1664.45 187.2C1668.45 176.2 1673.15 168.3 1678.55 163.5C1681.95 160.5 1688.85 158 1699.25 156C1709.85 154 1719.25 153 1727.45 153C1734.65 153 1742.05 153.7 1749.65 155.1C1749.05 145.5 1748.75 140.2 1748.75 139.2V114L1800.35 111.9ZM1732.25 256.2C1737.65 256.2 1743.25 255.3 1749.05 253.5V188.4C1743.25 187.6 1736.85 187.2 1729.85 187.2C1723.85 187.2 1720.05 187.7 1718.45 188.7C1716.25 190.3 1714.45 194.9 1713.05 202.5C1711.85 209.9 1711.25 217.7 1711.25 225.9C1711.25 238.1 1713.05 246.2 1716.65 250.2C1720.45 254.2 1725.65 256.2 1732.25 256.2ZM1851.66 138.9C1844.86 138.9 1838.96 136.6 1833.96 132C1829.16 127.4 1826.76 121.9 1826.76 115.5C1826.76 109.1 1829.16 103.6 1833.96 99C1838.96 94.4 1844.86 92.1 1851.66 92.1C1858.46 92.1 1864.26 94.4 1869.06 99C1873.86 103.6 1876.26 109.1 1876.26 115.5C1876.26 121.9 1873.86 127.4 1869.06 132C1864.26 136.6 1858.46 138.9 1851.66 138.9ZM1825.86 156H1877.16V294H1825.86V156ZM2022.3 260.4V294H1898.4V259.5L1965 188.7H1900.2V156H2020.8V190.2L1954.5 260.4H2022.3ZM2124.83 294L2120.03 275.1C2110.83 290.1 2098.03 297.6 2081.63 297.6C2068.23 297.6 2057.23 293.9 2048.63 286.5C2040.23 278.9 2036.03 268.3 2036.03 254.7C2036.03 246.3 2038.43 239 2043.23 232.8C2048.23 226.4 2055.03 221.9 2063.63 219.3C2074.83 216.1 2092.13 214.3 2115.53 213.9C2115.53 200.7 2114.93 193.7 2113.73 192.9C2112.73 192.1 2109.53 191.7 2104.13 191.7C2100.73 191.7 2096.03 191.9 2090.03 192.3C2080.43 192.7 2067.43 193.8 2051.03 195.6C2049.43 184.8 2048.23 173.2 2047.43 160.8C2058.03 158.6 2069.13 156.8 2080.73 155.4C2092.33 153.8 2102.73 153 2111.93 153C2127.93 153 2139.93 155.7 2147.93 161.1C2155.93 166.3 2161.13 173.2 2163.53 181.8C2165.93 190.4 2167.03 201.3 2166.83 214.5L2166.53 258.6L2167.43 294H2124.83ZM2099.03 264C2104.23 264 2109.73 263 2115.53 261V238.8H2113.13C2098.33 238.8 2090.13 239.6 2088.53 241.2C2087.53 242.2 2086.73 243.7 2086.13 245.7C2085.73 247.7 2085.53 249.6 2085.53 251.4C2085.53 256.2 2086.63 259.5 2088.83 261.3C2091.03 263.1 2094.43 264 2099.03 264ZM2327.4 111.9V294H2285.1L2280.9 270.9C2276.9 278.7 2271 284.9 2263.2 289.5C2255.4 294.1 2246.6 296.4 2236.8 296.4C2221.2 296.4 2208.7 290.8 2199.3 279.6C2190.1 268.4 2185.5 251.6 2185.5 229.2C2185.5 212.2 2187.5 198.2 2191.5 187.2C2195.5 176.2 2200.2 168.3 2205.6 163.5C2209 160.5 2215.9 158 2226.3 156C2236.9 154 2246.3 153 2254.5 153C2261.7 153 2269.1 153.7 2276.7 155.1C2276.1 145.5 2275.8 140.2 2275.8 139.2V114L2327.4 111.9ZM2259.3 256.2C2264.7 256.2 2270.3 255.3 2276.1 253.5V188.4C2270.3 187.6 2263.9 187.2 2256.9 187.2C2250.9 187.2 2247.1 187.7 2245.5 188.7C2243.3 190.3 2241.5 194.9 2240.1 202.5C2238.9 209.9 2238.3 217.7 2238.3 225.9C2238.3 238.1 2240.1 246.2 2243.7 250.2C2247.5 254.2 2252.7 256.2 2259.3 256.2ZM2418.61 297.9C2394.61 297.9 2376.61 292.3 2364.61 281.1C2352.81 269.7 2346.91 251.8 2346.91 227.4C2346.91 214 2348.11 202.3 2350.51 192.3C2353.11 182.1 2356.21 175 2359.81 171C2364.41 165.8 2372.81 161.5 2385.01 158.1C2397.41 154.7 2409.01 153 2419.81 153C2445.61 153 2464.01 158.5 2475.01 169.5C2486.01 180.5 2491.51 198.1 2491.51 222.3C2491.51 248.3 2485.61 267.4 2473.81 279.6C2462.01 291.8 2443.61 297.9 2418.61 297.9ZM2419.51 262.8C2427.31 262.8 2432.41 260.1 2434.81 254.7C2437.21 249.1 2438.41 239.3 2438.41 225.3C2438.41 215.5 2437.91 208 2436.91 202.8C2435.91 197.4 2434.01 193.5 2431.21 191.1C2428.61 188.5 2424.51 187.2 2418.91 187.2C2410.91 187.2 2406.31 187.9 2405.11 189.3C2403.51 190.7 2402.21 195.1 2401.21 202.5C2400.21 209.9 2399.71 217.6 2399.71 225.6C2399.71 239.2 2401.01 248.8 2403.61 254.4C2406.41 260 2411.71 262.8 2419.51 262.8Z"/>
</mask>
<path d="M464.44 123H588.94V159H518.44V190.2H577.84V222.6H518.44V257.4H588.64V294H464.44V123ZM824.838 165.6C828.038 170.4 829.638 189 829.638 221.4V294H778.338V226.5V210.3C778.338 202.9 777.638 198.5 776.238 197.1C774.638 195.5 771.238 194.7 766.038 194.7L762.438 195C756.238 195.4 750.338 196.8 744.738 199.2C744.938 203.4 745.038 210.8 745.038 221.4V294H693.738V226.5V208.5C693.738 202.3 693.038 198.5 691.638 197.1C690.038 195.5 686.638 194.7 681.438 194.7L677.838 195C672.238 195.2 666.438 196.5 660.438 198.9V294H609.138V156H650.838L656.238 178.5C662.838 169.7 670.438 163.3 679.038 159.3C687.638 155.1 696.338 153 705.138 153C712.538 153 719.538 154.1 726.138 156.3C732.938 158.5 737.638 161.6 740.238 165.6C741.438 167.4 742.438 170.7 743.238 175.5C749.638 167.7 756.938 162 765.138 158.4C773.338 154.8 781.538 153 789.738 153C797.138 153 804.138 154.1 810.738 156.3C817.538 158.5 822.238 161.6 824.838 165.6ZM1000.29 256.5H950.491L941.491 294H886.291L941.491 123H1011.99L1064.79 294H1009.29L1000.29 256.5ZM975.091 159.9L957.391 223.2H993.091L976.291 159.9H975.091ZM1171.81 153C1186.21 153 1197.61 157.8 1206.01 167.4C1214.61 176.8 1218.91 193.3 1218.91 216.9C1218.91 234.5 1217.21 248.9 1213.81 260.1C1210.41 271.1 1206.51 278.4 1202.11 282C1197.71 285.6 1190.01 288.5 1179.01 290.7C1168.21 292.9 1157.01 294 1145.41 294C1142.01 294 1136.31 293.8 1128.31 293.4V336L1077.01 338.1V156H1119.01L1124.11 177.3C1129.31 169.9 1135.91 164 1143.91 159.6C1152.11 155.2 1161.41 153 1171.81 153ZM1159.81 257.4C1162.01 255.8 1163.61 251.3 1164.61 243.9C1165.61 236.3 1166.11 229.1 1166.11 222.3C1166.11 211.1 1164.71 202.8 1161.91 197.4C1159.11 192 1153.51 189.3 1145.11 189.3C1139.11 189.3 1133.51 189.9 1128.31 191.1V257.7L1136.71 258.6C1139.31 258.8 1143.01 258.9 1147.81 258.9C1154.61 258.9 1158.61 258.4 1159.81 257.4ZM1324.52 153C1327.12 153 1329.82 153.3 1332.62 153.9C1335.62 154.5 1337.82 155.2 1339.22 156C1339.22 160.4 1338.72 167.7 1337.72 177.9C1336.72 187.9 1335.82 195 1335.02 199.2C1333.02 199 1329.32 198.9 1323.92 198.9C1311.32 198.9 1300.12 199.6 1290.32 201V294H1239.02V156H1281.92L1287.92 178.2H1288.22C1294.02 170.6 1300.22 164.5 1306.82 159.9C1313.42 155.3 1319.32 153 1324.52 153ZM1436.39 258C1441.39 258 1450.69 257.5 1464.29 256.5C1466.09 256.5 1469.39 256.3 1474.19 255.9L1478.69 286.8C1463.29 294 1443.29 297.6 1418.69 297.6C1395.69 297.6 1377.99 291.8 1365.59 280.2C1353.39 268.6 1347.29 251.1 1347.29 227.7C1347.29 215.7 1348.79 204.1 1351.79 192.9C1354.99 181.7 1358.59 173.9 1362.59 169.5C1366.79 165.1 1374.59 161.3 1385.99 158.1C1397.39 154.9 1408.69 153.3 1419.89 153.3C1437.89 153.3 1451.39 156.5 1460.39 162.9C1469.39 169.3 1475.29 178.2 1478.09 189.6C1480.89 200.8 1482.29 215.9 1482.29 234.9C1468.69 235.7 1455.39 236.1 1442.39 236.1H1399.79C1399.79 242.5 1401.09 247.3 1403.69 250.5C1406.49 253.7 1410.39 255.8 1415.39 256.8C1420.39 257.6 1427.39 258 1436.39 258ZM1402.79 189C1401.59 189.6 1400.69 192.2 1400.09 196.8C1399.49 201.4 1399.09 206.6 1398.89 212.4H1414.49C1423.89 212.4 1430.69 212.3 1434.89 212.1C1434.89 202.5 1433.49 195.7 1430.69 191.7C1428.09 187.7 1423.49 185.7 1416.89 185.7C1411.49 185.7 1406.79 186.8 1402.79 189ZM1633.85 164.7C1635.65 166.9 1636.95 172.4 1637.75 181.2C1638.75 190 1639.25 203.4 1639.25 221.4V294H1587.95V222V209.7C1587.95 203.3 1587.45 199.3 1586.45 197.7C1584.85 195.7 1581.15 194.7 1575.35 194.7C1572.55 194.7 1570.45 194.8 1569.05 195C1563.45 195.2 1557.65 196.5 1551.65 198.9V294H1500.35V156H1542.05L1547.75 179.1C1562.15 161.7 1579.35 153 1599.35 153C1606.55 153 1613.25 154 1619.45 156C1625.85 158 1630.65 160.9 1633.85 164.7ZM1800.35 111.9V294H1758.05L1753.85 270.9C1749.85 278.7 1743.95 284.9 1736.15 289.5C1728.35 294.1 1719.55 296.4 1709.75 296.4C1694.15 296.4 1681.65 290.8 1672.25 279.6C1663.05 268.4 1658.45 251.6 1658.45 229.2C1658.45 212.2 1660.45 198.2 1664.45 187.2C1668.45 176.2 1673.15 168.3 1678.55 163.5C1681.95 160.5 1688.85 158 1699.25 156C1709.85 154 1719.25 153 1727.45 153C1734.65 153 1742.05 153.7 1749.65 155.1C1749.05 145.5 1748.75 140.2 1748.75 139.2V114L1800.35 111.9ZM1732.25 256.2C1737.65 256.2 1743.25 255.3 1749.05 253.5V188.4C1743.25 187.6 1736.85 187.2 1729.85 187.2C1723.85 187.2 1720.05 187.7 1718.45 188.7C1716.25 190.3 1714.45 194.9 1713.05 202.5C1711.85 209.9 1711.25 217.7 1711.25 225.9C1711.25 238.1 1713.05 246.2 1716.65 250.2C1720.45 254.2 1725.65 256.2 1732.25 256.2ZM1851.66 138.9C1844.86 138.9 1838.96 136.6 1833.96 132C1829.16 127.4 1826.76 121.9 1826.76 115.5C1826.76 109.1 1829.16 103.6 1833.96 99C1838.96 94.4 1844.86 92.1 1851.66 92.1C1858.46 92.1 1864.26 94.4 1869.06 99C1873.86 103.6 1876.26 109.1 1876.26 115.5C1876.26 121.9 1873.86 127.4 1869.06 132C1864.26 136.6 1858.46 138.9 1851.66 138.9ZM1825.86 156H1877.16V294H1825.86V156ZM2022.3 260.4V294H1898.4V259.5L1965 188.7H1900.2V156H2020.8V190.2L1954.5 260.4H2022.3ZM2124.83 294L2120.03 275.1C2110.83 290.1 2098.03 297.6 2081.63 297.6C2068.23 297.6 2057.23 293.9 2048.63 286.5C2040.23 278.9 2036.03 268.3 2036.03 254.7C2036.03 246.3 2038.43 239 2043.23 232.8C2048.23 226.4 2055.03 221.9 2063.63 219.3C2074.83 216.1 2092.13 214.3 2115.53 213.9C2115.53 200.7 2114.93 193.7 2113.73 192.9C2112.73 192.1 2109.53 191.7 2104.13 191.7C2100.73 191.7 2096.03 191.9 2090.03 192.3C2080.43 192.7 2067.43 193.8 2051.03 195.6C2049.43 184.8 2048.23 173.2 2047.43 160.8C2058.03 158.6 2069.13 156.8 2080.73 155.4C2092.33 153.8 2102.73 153 2111.93 153C2127.93 153 2139.93 155.7 2147.93 161.1C2155.93 166.3 2161.13 173.2 2163.53 181.8C2165.93 190.4 2167.03 201.3 2166.83 214.5L2166.53 258.6L2167.43 294H2124.83ZM2099.03 264C2104.23 264 2109.73 263 2115.53 261V238.8H2113.13C2098.33 238.8 2090.13 239.6 2088.53 241.2C2087.53 242.2 2086.73 243.7 2086.13 245.7C2085.73 247.7 2085.53 249.6 2085.53 251.4C2085.53 256.2 2086.63 259.5 2088.83 261.3C2091.03 263.1 2094.43 264 2099.03 264ZM2327.4 111.9V294H2285.1L2280.9 270.9C2276.9 278.7 2271 284.9 2263.2 289.5C2255.4 294.1 2246.6 296.4 2236.8 296.4C2221.2 296.4 2208.7 290.8 2199.3 279.6C2190.1 268.4 2185.5 251.6 2185.5 229.2C2185.5 212.2 2187.5 198.2 2191.5 187.2C2195.5 176.2 2200.2 168.3 2205.6 163.5C2209 160.5 2215.9 158 2226.3 156C2236.9 154 2246.3 153 2254.5 153C2261.7 153 2269.1 153.7 2276.7 155.1C2276.1 145.5 2275.8 140.2 2275.8 139.2V114L2327.4 111.9ZM2259.3 256.2C2264.7 256.2 2270.3 255.3 2276.1 253.5V188.4C2270.3 187.6 2263.9 187.2 2256.9 187.2C2250.9 187.2 2247.1 187.7 2245.5 188.7C2243.3 190.3 2241.5 194.9 2240.1 202.5C2238.9 209.9 2238.3 217.7 2238.3 225.9C2238.3 238.1 2240.1 246.2 2243.7 250.2C2247.5 254.2 2252.7 256.2 2259.3 256.2ZM2418.61 297.9C2394.61 297.9 2376.61 292.3 2364.61 281.1C2352.81 269.7 2346.91 251.8 2346.91 227.4C2346.91 214 2348.11 202.3 2350.51 192.3C2353.11 182.1 2356.21 175 2359.81 171C2364.41 165.8 2372.81 161.5 2385.01 158.1C2397.41 154.7 2409.01 153 2419.81 153C2445.61 153 2464.01 158.5 2475.01 169.5C2486.01 180.5 2491.51 198.1 2491.51 222.3C2491.51 248.3 2485.61 267.4 2473.81 279.6C2462.01 291.8 2443.61 297.9 2418.61 297.9ZM2419.51 262.8C2427.31 262.8 2432.41 260.1 2434.81 254.7C2437.21 249.1 2438.41 239.3 2438.41 225.3C2438.41 215.5 2437.91 208 2436.91 202.8C2435.91 197.4 2434.01 193.5 2431.21 191.1C2428.61 188.5 2424.51 187.2 2418.91 187.2C2410.91 187.2 2406.31 187.9 2405.11 189.3C2403.51 190.7 2402.21 195.1 2401.21 202.5C2400.21 209.9 2399.71 217.6 2399.71 225.6C2399.71 239.2 2401.01 248.8 2403.61 254.4C2406.41 260 2411.71 262.8 2419.51 262.8Z" fill="#F375C2"/>
<path d="M464.44 123V97C450.08 97 438.44 108.641 438.44 123H464.44ZM588.94 123H614.94C614.94 108.641 603.299 97 588.94 97V123ZM588.94 159V185C603.299 185 614.94 173.359 614.94 159H588.94ZM518.44 159V133C504.08 133 492.44 144.641 492.44 159H518.44ZM518.44 190.2H492.44C492.44 204.559 504.08 216.2 518.44 216.2V190.2ZM577.84 190.2H603.84C603.84 175.841 592.199 164.2 577.84 164.2V190.2ZM577.84 222.6V248.6C592.199 248.6 603.84 236.959 603.84 222.6H577.84ZM518.44 222.6V196.6C504.08 196.6 492.44 208.241 492.44 222.6H518.44ZM518.44 257.4H492.44C492.44 271.759 504.08 283.4 518.44 283.4V257.4ZM588.64 257.4H614.64C614.64 243.041 602.999 231.4 588.64 231.4V257.4ZM588.64 294V320C602.999 320 614.64 308.359 614.64 294H588.64ZM464.44 294H438.44C438.44 308.359 450.08 320 464.44 320V294ZM464.44 123V149H588.94V123V97H464.44V123ZM588.94 123H562.94V159H588.94H614.94V123H588.94ZM588.94 159V133H518.44V159V185H588.94V159ZM518.44 159H492.44V190.2H518.44H544.44V159H518.44ZM518.44 190.2V216.2H577.84V190.2V164.2H518.44V190.2ZM577.84 190.2H551.84V222.6H577.84H603.84V190.2H577.84ZM577.84 222.6V196.6H518.44V222.6V248.6H577.84V222.6ZM518.44 222.6H492.44V257.4H518.44H544.44V222.6H518.44ZM518.44 257.4V283.4H588.64V257.4V231.4H518.44V257.4ZM588.64 257.4H562.64V294H588.64H614.64V257.4H588.64ZM588.64 294V268H464.44V294V320H588.64V294ZM464.44 294H490.44V123H464.44H438.44V294H464.44ZM824.838 165.6L803.039 179.77C803.094 179.854 803.149 179.938 803.205 180.022L824.838 165.6ZM829.638 294V320C843.998 320 855.638 308.359 855.638 294H829.638ZM778.338 294H752.338C752.338 308.359 763.979 320 778.338 320V294ZM776.238 197.1L794.623 178.715L794.623 178.715L776.238 197.1ZM766.038 194.7V168.7C765.318 168.7 764.597 168.73 763.879 168.79L766.038 194.7ZM762.438 195L764.112 220.946C764.274 220.936 764.436 220.924 764.597 220.91L762.438 195ZM744.738 199.2L734.496 175.302C724.522 179.577 718.252 189.597 718.768 200.437L744.738 199.2ZM745.038 294V320C759.398 320 771.038 308.359 771.038 294H745.038ZM693.738 294H667.738C667.738 308.359 679.379 320 693.738 320V294ZM691.638 197.1L673.253 215.485L673.253 215.485L691.638 197.1ZM681.438 194.7V168.7C680.718 168.7 679.997 168.73 679.279 168.79L681.438 194.7ZM677.838 195L678.766 220.983C679.177 220.969 679.588 220.944 679.997 220.91L677.838 195ZM660.438 198.9L650.782 174.76C640.911 178.708 634.438 188.268 634.438 198.9H660.438ZM660.438 294V320C674.798 320 686.438 308.359 686.438 294H660.438ZM609.138 294H583.138C583.138 308.359 594.779 320 609.138 320V294ZM609.138 156V130C594.779 130 583.138 141.641 583.138 156H609.138ZM650.838 156L676.12 149.932C673.315 138.242 662.86 130 650.838 130V156ZM656.238 178.5L630.956 184.568C633.307 194.364 641.106 201.92 650.972 203.961C660.837 206.002 670.994 202.16 677.038 194.1L656.238 178.5ZM679.038 159.3L690.003 182.875C690.152 182.805 690.3 182.735 690.448 182.663L679.038 159.3ZM726.138 156.3L717.916 180.966C717.989 180.99 718.062 181.014 718.135 181.038L726.138 156.3ZM740.238 165.6L718.439 179.77C718.494 179.854 718.549 179.938 718.605 180.022L740.238 165.6ZM743.238 175.5L717.592 179.774C719.269 189.836 726.674 197.987 736.529 200.62C746.384 203.252 756.868 199.878 763.338 191.992L743.238 175.5ZM810.738 156.3L802.516 180.966C802.589 180.99 802.662 181.014 802.735 181.038L810.738 156.3ZM824.838 165.6L803.205 180.022C801.046 176.784 800.976 174.613 801.469 177.012C801.786 178.56 802.178 181.243 802.534 185.378C803.24 193.592 803.638 205.489 803.638 221.4H829.638H855.638C855.638 204.911 855.236 191.308 854.343 180.922C853.898 175.757 853.29 170.865 852.408 166.563C851.7 163.112 850.23 156.816 846.472 151.178L824.838 165.6ZM829.638 221.4H803.638V294H829.638H855.638V221.4H829.638ZM829.638 294V268H778.338V294V320H829.638V294ZM778.338 294H804.338V226.5H778.338H752.338V294H778.338ZM778.338 226.5H804.338V210.3H778.338H752.338V226.5H778.338ZM778.338 210.3H804.338C804.338 205.999 804.149 201.507 803.49 197.365C803.16 195.29 802.613 192.647 801.604 189.861C800.694 187.348 798.753 182.845 794.623 178.715L776.238 197.1L757.853 215.485C756.038 213.669 754.863 211.906 754.14 210.637C753.409 209.353 752.965 208.268 752.71 207.564C752.449 206.842 752.305 206.296 752.234 206.002C752.197 205.845 752.172 205.726 752.158 205.652C752.143 205.578 752.137 205.538 752.136 205.535C752.136 205.535 752.153 205.643 752.177 205.877C752.201 206.109 752.228 206.431 752.253 206.852C752.303 207.706 752.338 208.842 752.338 210.3H778.338ZM776.238 197.1L794.623 178.715C789.023 173.115 782.493 170.944 778.443 169.991C774.093 168.968 769.77 168.7 766.038 168.7V194.7V220.7C767.507 220.7 767.483 220.832 766.533 220.609C766.003 220.484 764.887 220.18 763.45 219.49C762.004 218.796 759.937 217.568 757.854 215.485L776.238 197.1ZM766.038 194.7L763.879 168.79L760.279 169.09L762.438 195L764.597 220.91L768.197 220.61L766.038 194.7ZM762.438 195L760.764 169.054C751.672 169.641 742.869 171.714 734.496 175.302L744.738 199.2L754.98 223.098C757.807 221.886 760.805 221.159 764.112 220.946L762.438 195ZM744.738 199.2L718.768 200.437C718.935 203.946 719.038 210.779 719.038 221.4H745.038H771.038C771.038 210.821 770.942 202.854 770.709 197.963L744.738 199.2ZM745.038 221.4H719.038V294H745.038H771.038V221.4H745.038ZM745.038 294V268H693.738V294V320H745.038V294ZM693.738 294H719.738V226.5H693.738H667.738V294H693.738ZM693.738 226.5H719.738V208.5H693.738H667.738V226.5H693.738ZM693.738 208.5H719.738C719.738 204.644 719.537 200.385 718.783 196.29C718.241 193.345 716.598 185.29 710.023 178.715L691.638 197.1L673.253 215.485C670.333 212.564 668.99 209.676 668.449 208.336C667.863 206.886 667.676 205.886 667.643 205.71C667.589 205.415 667.738 206.156 667.738 208.5H693.738ZM691.638 197.1L710.023 178.715C704.423 173.115 697.893 170.944 693.843 169.991C689.493 168.968 685.17 168.7 681.438 168.7V194.7V220.7C682.907 220.7 682.883 220.832 681.933 220.609C681.403 220.484 680.287 220.18 678.85 219.49C677.404 218.796 675.337 217.568 673.253 215.485L691.638 197.1ZM681.438 194.7L679.279 168.79L675.679 169.09L677.838 195L679.997 220.91L683.597 220.61L681.438 194.7ZM677.838 195L676.91 169.017C667.896 169.338 659.144 171.415 650.782 174.76L660.438 198.9L670.094 223.04C673.732 221.585 676.58 221.061 678.766 220.983L677.838 195ZM660.438 198.9H634.438V294H660.438H686.438V198.9H660.438ZM660.438 294V268H609.138V294V320H660.438V294ZM609.138 294H635.138V156H609.138H583.138V294H609.138ZM609.138 156V182H650.838V156V130H609.138V156ZM650.838 156L625.556 162.068L630.956 184.568L656.238 178.5L681.52 172.432L676.12 149.932L650.838 156ZM656.238 178.5L677.038 194.1C681.48 188.178 685.868 184.798 690.003 182.875L679.038 159.3L668.073 135.725C655.008 141.802 644.196 151.222 635.438 162.9L656.238 178.5ZM679.038 159.3L690.448 182.663C695.811 180.043 700.63 179 705.138 179V153V127C692.046 127 679.465 130.157 667.629 135.937L679.038 159.3ZM705.138 153V179C709.922 179 714.132 179.704 717.916 180.966L726.138 156.3L734.36 131.634C724.945 128.496 715.154 127 705.138 127V153ZM726.138 156.3L718.135 181.038C718.976 181.31 719.571 181.552 719.962 181.732C720.353 181.912 720.492 182.009 720.448 181.979C720.342 181.909 719.407 181.26 718.439 179.77L740.238 165.6L762.038 151.43C754.914 140.471 743.902 134.72 734.142 131.562L726.138 156.3ZM740.238 165.6L718.605 180.022C718.205 179.423 717.907 178.902 717.694 178.498C717.48 178.093 717.328 177.762 717.227 177.53C717.035 177.084 716.975 176.864 717.006 176.965C717.032 177.053 717.11 177.325 717.22 177.821C717.329 178.312 717.456 178.956 717.592 179.774L743.238 175.5L768.885 171.226C768.051 166.226 766.419 157.999 761.872 151.178L740.238 165.6ZM743.238 175.5L763.338 191.992C767.474 186.951 771.588 183.964 775.59 182.207L765.138 158.4L754.687 134.593C742.288 140.036 731.802 148.449 723.138 159.008L743.238 175.5ZM765.138 158.4L775.59 182.207C780.802 179.919 785.457 179 789.738 179V153V127C777.62 127 765.875 129.681 754.687 134.593L765.138 158.4ZM789.738 153V179C794.522 179 798.732 179.704 802.516 180.966L810.738 156.3L818.96 131.634C809.545 128.496 799.754 127 789.738 127V153ZM810.738 156.3L802.735 181.038C803.576 181.31 804.171 181.552 804.562 181.732C804.953 181.912 805.092 182.009 805.048 181.979C804.942 181.909 804.007 181.26 803.039 179.77L824.838 165.6L846.638 151.43C839.514 140.471 828.503 134.72 818.742 131.562L810.738 156.3ZM1000.29 256.5L1025.57 250.432C1022.77 238.742 1012.31 230.5 1000.29 230.5V256.5ZM950.491 256.5V230.5C938.469 230.5 928.015 238.742 925.209 250.432L950.491 256.5ZM941.491 294V320C953.513 320 963.968 311.758 966.773 300.068L941.491 294ZM886.291 294L861.549 286.013C858.995 293.925 860.378 302.581 865.272 309.303C870.165 316.024 877.977 320 886.291 320V294ZM941.491 123V97C930.209 97 920.214 104.276 916.749 115.013L941.491 123ZM1011.99 123L1036.83 115.329C1033.47 104.432 1023.4 97 1011.99 97V123ZM1064.79 294V320C1073.05 320 1080.81 316.079 1085.71 309.436C1090.61 302.793 1092.07 294.217 1089.63 286.329L1064.79 294ZM1009.29 294L984.009 300.068C986.815 311.758 997.269 320 1009.29 320V294ZM975.091 159.9V133.9C963.428 133.9 953.193 141.666 950.052 152.898L975.091 159.9ZM957.391 223.2L932.352 216.198C930.162 224.031 931.763 232.437 936.679 238.916C941.594 245.395 949.259 249.2 957.391 249.2V223.2ZM993.091 223.2V249.2C1001.16 249.2 1008.78 245.451 1013.7 239.052C1018.62 232.654 1020.29 224.333 1018.22 216.53L993.091 223.2ZM976.291 159.9L1001.42 153.23C998.397 141.834 988.082 133.9 976.291 133.9V159.9ZM1000.29 256.5V230.5H950.491V256.5V282.5H1000.29V256.5ZM950.491 256.5L925.209 250.432L916.209 287.932L941.491 294L966.773 300.068L975.773 262.568L950.491 256.5ZM941.491 294V268H886.291V294V320H941.491V294ZM886.291 294L911.034 301.987L966.234 130.987L941.491 123L916.749 115.013L861.549 286.013L886.291 294ZM941.491 123V149H1011.99V123V97H941.491V123ZM1011.99 123L987.149 130.671L1039.95 301.671L1064.79 294L1089.63 286.329L1036.83 115.329L1011.99 123ZM1064.79 294V268H1009.29V294V320H1064.79V294ZM1009.29 294L1034.57 287.932L1025.57 250.432L1000.29 256.5L975.009 262.568L984.009 300.068L1009.29 294ZM975.091 159.9L950.052 152.898L932.352 216.198L957.391 223.2L982.431 230.202L1000.13 166.902L975.091 159.9ZM957.391 223.2V249.2H993.091V223.2V197.2H957.391V223.2ZM993.091 223.2L1018.22 216.53L1001.42 153.23L976.291 159.9L951.161 166.57L967.961 229.87L993.091 223.2ZM976.291 159.9V133.9H975.091V159.9V185.9H976.291V159.9ZM1206.01 167.4L1186.44 184.521C1186.57 184.666 1186.7 184.809 1186.83 184.95L1206.01 167.4ZM1213.81 260.1L1238.65 267.778C1238.66 267.736 1238.68 267.694 1238.69 267.653L1213.81 260.1ZM1202.11 282L1218.57 302.123V302.123L1202.11 282ZM1179.01 290.7L1173.91 265.205C1173.88 265.211 1173.85 265.217 1173.82 265.223L1179.01 290.7ZM1128.31 293.4L1129.61 267.432C1122.5 267.077 1115.55 269.654 1110.39 274.562C1105.23 279.47 1102.31 286.279 1102.31 293.4H1128.31ZM1128.31 336L1129.37 361.978C1143.31 361.408 1154.31 349.946 1154.31 336H1128.31ZM1077.01 338.1H1051.01C1051.01 345.18 1053.9 351.954 1059 356.857C1064.11 361.76 1071 364.368 1078.07 364.078L1077.01 338.1ZM1077.01 156V130C1062.65 130 1051.01 141.641 1051.01 156H1077.01ZM1119.01 156L1144.29 149.946C1141.49 138.249 1131.04 130 1119.01 130V156ZM1124.11 177.3L1098.82 183.354C1101.2 193.296 1109.19 200.92 1119.23 202.838C1129.27 204.756 1139.5 200.613 1145.38 192.249L1124.11 177.3ZM1143.91 159.6L1131.62 136.69C1131.54 136.732 1131.46 136.775 1131.38 136.818L1143.91 159.6ZM1159.81 257.4L1144.52 236.373C1144.05 236.709 1143.6 237.06 1143.16 237.426L1159.81 257.4ZM1164.61 243.9L1190.38 247.382C1190.38 247.352 1190.38 247.322 1190.39 247.292L1164.61 243.9ZM1161.91 197.4L1138.83 209.368V209.368L1161.91 197.4ZM1128.31 191.1L1122.46 165.766C1110.67 168.488 1102.31 178.993 1102.31 191.1H1128.31ZM1128.31 257.7H1102.31C1102.31 270.987 1112.33 282.137 1125.54 283.552L1128.31 257.7ZM1136.71 258.6L1133.94 284.452C1134.2 284.48 1134.46 284.504 1134.72 284.523L1136.71 258.6ZM1171.81 153V179C1179.79 179 1183.65 181.326 1186.44 184.521L1206.01 167.4L1225.58 150.279C1211.57 134.274 1192.63 127 1171.81 127V153ZM1206.01 167.4L1186.83 184.95C1188.58 186.865 1192.91 194.87 1192.91 216.9H1218.91H1244.91C1244.91 191.73 1240.64 166.735 1225.19 149.85L1206.01 167.4ZM1218.91 216.9H1192.91C1192.91 233.092 1191.31 244.696 1188.93 252.547L1213.81 260.1L1238.69 267.653C1243.1 253.104 1244.91 235.908 1244.91 216.9H1218.91ZM1213.81 260.1L1188.97 252.422C1187.58 256.904 1186.34 259.825 1185.4 261.573C1184.39 263.461 1184.27 263.001 1185.65 261.877L1202.11 282L1218.57 302.123C1229.29 293.352 1235.01 279.552 1238.65 267.778L1213.81 260.1ZM1202.11 282L1185.65 261.877C1186.37 261.28 1186.15 261.685 1183.87 262.543C1181.72 263.354 1178.49 264.29 1173.91 265.205L1179.01 290.7L1184.11 316.195C1195.97 313.823 1209 309.955 1218.57 302.123L1202.11 282ZM1179.01 290.7L1173.82 265.223C1164.81 267.058 1155.36 268 1145.41 268V294V320C1158.66 320 1171.6 318.742 1184.2 316.177L1179.01 290.7ZM1145.41 294V268C1142.72 268 1137.6 267.832 1129.61 267.432L1128.31 293.4L1127.01 319.368C1135.02 319.768 1141.3 320 1145.41 320V294ZM1128.31 293.4H1102.31V336H1128.31H1154.31V293.4H1128.31ZM1128.31 336L1127.25 310.022L1075.95 312.122L1077.01 338.1L1078.07 364.078L1129.37 361.978L1128.31 336ZM1077.01 338.1H1103.01V156H1077.01H1051.01V338.1H1077.01ZM1077.01 156V182H1119.01V156V130H1077.01V156ZM1119.01 156L1093.72 162.054L1098.82 183.354L1124.11 177.3L1149.39 171.246L1144.29 149.946L1119.01 156ZM1124.11 177.3L1145.38 192.249C1148.28 188.124 1151.88 184.89 1156.44 182.382L1143.91 159.6L1131.38 136.818C1119.94 143.11 1110.34 151.676 1102.84 162.351L1124.11 177.3ZM1143.91 159.6L1156.2 182.51C1160.2 180.368 1165.19 179 1171.81 179V153V127C1157.63 127 1144.02 130.032 1131.62 136.69L1143.91 159.6ZM1159.81 257.4L1175.1 278.427C1182.58 272.985 1185.77 265.437 1187.16 261.535C1188.8 256.923 1189.75 251.987 1190.38 247.382L1164.61 243.9L1138.84 240.418C1138.47 243.212 1138.12 244.227 1138.16 244.115C1138.2 244.016 1138.5 243.154 1139.28 241.909C1140.03 240.695 1141.64 238.462 1144.52 236.373L1159.81 257.4ZM1164.61 243.9L1190.39 247.292C1191.52 238.706 1192.11 230.366 1192.11 222.3H1166.11H1140.11C1140.11 227.834 1139.7 233.894 1138.83 240.508L1164.61 243.9ZM1166.11 222.3H1192.11C1192.11 209.884 1190.72 196.474 1184.99 185.432L1161.91 197.4L1138.83 209.368C1138.61 208.945 1139.01 209.571 1139.42 211.999C1139.82 214.342 1140.11 217.707 1140.11 222.3H1166.11ZM1161.91 197.4L1184.99 185.432C1176.06 168.203 1158.98 163.3 1145.11 163.3V189.3V215.3C1146.7 215.3 1146.05 215.581 1144.32 214.745C1143.39 214.299 1142.3 213.599 1141.24 212.572C1140.17 211.541 1139.37 210.418 1138.83 209.368L1161.91 197.4ZM1145.11 189.3V163.3C1137.38 163.3 1129.8 164.073 1122.46 165.766L1128.31 191.1L1134.16 216.434C1137.22 215.727 1140.84 215.3 1145.11 215.3V189.3ZM1128.31 191.1H1102.31V257.7H1128.31H1154.31V191.1H1128.31ZM1128.31 257.7L1125.54 283.552L1133.94 284.452L1136.71 258.6L1139.48 232.748L1131.08 231.848L1128.31 257.7ZM1136.71 258.6L1134.72 284.523C1138.31 284.8 1142.8 284.9 1147.81 284.9V258.9V232.9C1143.22 232.9 1140.31 232.8 1138.7 232.677L1136.71 258.6ZM1147.81 258.9V284.9C1151.66 284.9 1155.59 284.768 1159.13 284.324C1160.9 284.104 1163.17 283.735 1165.59 283.038C1167.53 282.478 1172.06 281.032 1176.45 277.374L1159.81 257.4L1143.16 237.426C1145.25 235.691 1147.17 234.681 1148.35 234.136C1149.59 233.567 1150.59 233.244 1151.18 233.075C1152.3 232.752 1152.92 232.696 1152.68 232.726C1152.23 232.782 1150.75 232.9 1147.81 232.9V258.9ZM1332.62 153.9L1327.17 179.323C1327.29 179.348 1327.41 179.372 1327.52 179.395L1332.62 153.9ZM1339.22 156H1365.22C1365.22 146.67 1360.22 138.055 1352.12 133.426L1339.22 156ZM1337.72 177.9L1363.59 180.487C1363.59 180.47 1363.6 180.454 1363.6 180.437L1337.72 177.9ZM1335.02 199.2L1332.43 225.071C1345.84 226.411 1358.04 217.295 1360.56 204.065L1335.02 199.2ZM1290.32 201L1286.64 175.261C1273.84 177.091 1264.32 188.061 1264.32 201H1290.32ZM1290.32 294V320C1304.68 320 1316.32 308.359 1316.32 294H1290.32ZM1239.02 294H1213.02C1213.02 308.359 1224.66 320 1239.02 320V294ZM1239.02 156V130C1224.66 130 1213.02 141.641 1213.02 156H1239.02ZM1281.92 156L1307.02 149.216C1303.96 137.876 1293.67 130 1281.92 130V156ZM1287.92 178.2L1262.82 184.984C1265.89 196.324 1276.17 204.2 1287.92 204.2V178.2ZM1288.22 178.2V204.2C1296.33 204.2 1303.97 200.418 1308.89 193.973L1288.22 178.2ZM1306.82 159.9L1321.69 181.23V181.23L1306.82 159.9ZM1324.52 153V179C1325.12 179 1325.99 179.068 1327.17 179.323L1332.62 153.9L1338.07 128.477C1333.66 127.532 1329.13 127 1324.52 127V153ZM1332.62 153.9L1327.52 179.395C1328.36 179.563 1328.69 179.668 1328.64 179.651C1328.6 179.638 1328.38 179.567 1328.02 179.419C1327.67 179.274 1327.08 179.006 1326.32 178.574L1339.22 156L1352.12 133.426C1347 130.5 1341.46 129.154 1337.72 128.405L1332.62 153.9ZM1339.22 156H1313.22C1313.22 159.011 1312.84 165.197 1311.85 175.363L1337.72 177.9L1363.6 180.437C1364.6 170.203 1365.22 161.789 1365.22 156H1339.22ZM1337.72 177.9L1311.85 175.313C1310.85 185.29 1310.04 191.375 1309.48 194.335L1335.02 199.2L1360.56 204.065C1361.6 198.625 1362.59 190.51 1363.59 180.487L1337.72 177.9ZM1335.02 199.2L1337.61 173.329C1334.14 172.982 1329.21 172.9 1323.92 172.9V198.9V224.9C1326.48 224.9 1328.51 224.924 1330.04 224.966C1330.81 224.986 1331.4 225.01 1331.84 225.033C1332.29 225.057 1332.47 225.074 1332.43 225.071L1335.02 199.2ZM1323.92 198.9V172.9C1310.41 172.9 1297.94 173.648 1286.64 175.261L1290.32 201L1294 226.739C1302.3 225.552 1312.24 224.9 1323.92 224.9V198.9ZM1290.32 201H1264.32V294H1290.32H1316.32V201H1290.32ZM1290.32 294V268H1239.02V294V320H1290.32V294ZM1239.02 294H1265.02V156H1239.02H1213.02V294H1239.02ZM1239.02 156V182H1281.92V156V130H1239.02V156ZM1281.92 156L1256.82 162.784L1262.82 184.984L1287.92 178.2L1313.02 171.416L1307.02 149.216L1281.92 156ZM1287.92 178.2V204.2H1288.22V178.2V152.2H1287.92V178.2ZM1288.22 178.2L1308.89 193.973C1313.35 188.124 1317.67 184.031 1321.69 181.23L1306.82 159.9L1291.95 138.57C1282.77 144.969 1274.69 153.076 1267.55 162.426L1288.22 178.2ZM1306.82 159.9L1321.69 181.23C1323.73 179.806 1325.04 179.183 1325.64 178.949C1326.22 178.725 1325.77 179 1324.52 179V153V127C1311.82 127 1300.69 132.478 1291.95 138.57L1306.82 159.9ZM1464.29 256.5V230.5C1463.66 230.5 1463.02 230.523 1462.39 230.57L1464.29 256.5ZM1474.19 255.9L1499.92 252.153C1497.94 238.557 1485.73 228.849 1472.03 229.99L1474.19 255.9ZM1478.69 286.8L1489.7 310.353C1500.09 305.495 1506.07 294.403 1504.42 283.053L1478.69 286.8ZM1365.59 280.2L1347.68 299.042C1347.73 299.091 1347.78 299.139 1347.83 299.187L1365.59 280.2ZM1351.79 192.9L1326.79 185.757C1326.75 185.895 1326.72 186.034 1326.68 186.173L1351.79 192.9ZM1362.59 169.5L1343.79 151.548C1343.64 151.7 1343.5 151.854 1343.35 152.011L1362.59 169.5ZM1385.99 158.1L1393.02 183.132V183.132L1385.99 158.1ZM1460.39 162.9L1445.33 184.089V184.089L1460.39 162.9ZM1478.09 189.6L1452.84 195.802C1452.85 195.836 1452.86 195.871 1452.87 195.906L1478.09 189.6ZM1482.29 234.9L1483.82 260.855C1497.56 260.047 1508.29 248.666 1508.29 234.9H1482.29ZM1399.79 236.1V210.1C1385.43 210.1 1373.79 221.741 1373.79 236.1H1399.79ZM1403.69 250.5L1383.51 266.895C1383.71 267.141 1383.92 267.383 1384.13 267.621L1403.69 250.5ZM1415.39 256.8L1410.29 282.295C1410.62 282.361 1410.95 282.42 1411.29 282.473L1415.39 256.8ZM1402.79 189L1414.42 212.255C1414.72 212.103 1415.03 211.945 1415.32 211.782L1402.79 189ZM1400.09 196.8L1425.87 200.163V200.163L1400.09 196.8ZM1398.89 212.4L1372.91 211.504C1372.67 218.551 1375.29 225.394 1380.19 230.465C1385.09 235.536 1391.84 238.4 1398.89 238.4V212.4ZM1434.89 212.1L1436.13 238.071C1449.99 237.41 1460.89 225.979 1460.89 212.1H1434.89ZM1430.69 191.7L1408.89 205.87C1409.06 206.119 1409.22 206.366 1409.39 206.61L1430.69 191.7ZM1436.39 258V284C1442.48 284 1452.69 283.423 1466.2 282.43L1464.29 256.5L1462.39 230.57C1448.7 231.577 1440.3 232 1436.39 232V258ZM1464.29 256.5V282.5C1467.32 282.5 1471.64 282.203 1476.35 281.81L1474.19 255.9L1472.03 229.99C1469.75 230.18 1467.93 230.313 1466.55 230.398C1465.85 230.439 1465.31 230.466 1464.91 230.482C1464.7 230.49 1464.55 230.495 1464.44 230.497C1464.33 230.5 1464.28 230.5 1464.29 230.5V256.5ZM1474.19 255.9L1448.46 259.647L1452.96 290.547L1478.69 286.8L1504.42 283.053L1499.92 252.153L1474.19 255.9ZM1478.69 286.8L1467.68 263.247C1456.91 268.281 1441.06 271.6 1418.69 271.6V297.6V323.6C1445.53 323.6 1469.67 319.719 1489.7 310.353L1478.69 286.8ZM1418.69 297.6V271.6C1399.91 271.6 1389.44 266.909 1383.36 261.213L1365.59 280.2L1347.83 299.187C1366.54 316.691 1391.48 323.6 1418.69 323.6V297.6ZM1365.59 280.2L1383.51 261.358C1378.22 256.333 1373.29 246.826 1373.29 227.7H1347.29H1321.29C1321.29 255.374 1328.56 280.867 1347.68 299.042L1365.59 280.2ZM1347.29 227.7H1373.29C1373.29 217.892 1374.52 208.557 1376.91 199.627L1351.79 192.9L1326.68 186.173C1323.07 199.643 1321.29 213.508 1321.29 227.7H1347.29ZM1351.79 192.9L1376.79 200.043C1378.15 195.308 1379.42 191.892 1380.5 189.546C1381.64 187.081 1382.22 186.567 1381.83 186.989L1362.59 169.5L1343.35 152.011C1335.15 161.039 1330.23 173.717 1326.79 185.757L1351.79 192.9ZM1362.59 169.5L1381.4 187.452C1380.67 188.219 1380.77 187.801 1382.98 186.724C1385.08 185.702 1388.32 184.452 1393.02 183.132L1385.99 158.1L1378.97 133.068C1366.6 136.54 1353.03 141.859 1343.79 151.548L1362.59 169.5ZM1385.99 158.1L1393.02 183.132C1402.26 180.538 1411.2 179.3 1419.89 179.3V153.3V127.3C1406.19 127.3 1392.52 129.262 1378.97 133.068L1385.99 158.1ZM1419.89 153.3V179.3C1435.6 179.3 1442.72 182.234 1445.33 184.089L1460.39 162.9L1475.46 141.711C1460.07 130.766 1440.19 127.3 1419.89 127.3V153.3ZM1460.39 162.9L1445.33 184.089C1448.91 186.636 1451.43 190.043 1452.84 195.802L1478.09 189.6L1503.34 183.398C1499.16 166.357 1489.88 151.964 1475.46 141.711L1460.39 162.9ZM1478.09 189.6L1452.87 195.906C1454.93 204.15 1456.29 216.849 1456.29 234.9H1482.29H1508.29C1508.29 214.951 1506.86 197.45 1503.32 183.294L1478.09 189.6ZM1482.29 234.9L1480.77 208.945C1467.65 209.716 1454.86 210.1 1442.39 210.1V236.1V262.1C1455.93 262.1 1469.74 261.684 1483.82 260.855L1482.29 234.9ZM1442.39 236.1V210.1H1399.79V236.1V262.1H1442.39V236.1ZM1399.79 236.1H1373.79C1373.79 245.349 1375.56 257.11 1383.51 266.895L1403.69 250.5L1423.87 234.105C1425.29 235.845 1425.76 237.304 1425.86 237.703C1425.96 238.047 1425.79 237.625 1425.79 236.1H1399.79ZM1403.69 250.5L1384.13 267.621C1391.4 275.937 1400.83 280.403 1410.29 282.295L1415.39 256.8L1420.49 231.305C1420.14 231.235 1420.41 231.244 1421.04 231.583C1421.72 231.945 1422.53 232.54 1423.26 233.379L1403.69 250.5ZM1415.39 256.8L1411.29 282.473C1418.3 283.596 1426.9 284 1436.39 284V258V232C1427.89 232 1422.49 231.604 1419.5 231.127L1415.39 256.8ZM1402.79 189L1391.17 165.745C1380.63 171.011 1377.33 180.936 1376.65 182.895C1375.36 186.613 1374.71 190.403 1374.31 193.437L1400.09 196.8L1425.87 200.163C1426.08 198.597 1426.17 198.787 1425.79 199.905C1425.59 200.481 1424.99 202.101 1423.69 204.09C1422.45 205.982 1419.61 209.66 1414.42 212.255L1402.79 189ZM1400.09 196.8L1374.31 193.437C1373.58 199.028 1373.13 205.074 1372.91 211.504L1398.89 212.4L1424.88 213.296C1425.06 208.126 1425.4 203.772 1425.87 200.163L1400.09 196.8ZM1398.89 212.4V238.4H1414.49V212.4V186.4H1398.89V212.4ZM1414.49 212.4V238.4C1423.93 238.4 1431.26 238.302 1436.13 238.071L1434.89 212.1L1433.66 186.129C1430.12 186.298 1423.86 186.4 1414.49 186.4V212.4ZM1434.89 212.1H1460.89C1460.89 201.481 1459.64 187.708 1451.99 176.79L1430.69 191.7L1409.39 206.61C1408.7 205.623 1408.39 204.889 1408.3 204.649C1408.2 204.407 1408.26 204.498 1408.38 205.043C1408.62 206.204 1408.89 208.445 1408.89 212.1H1434.89ZM1430.69 191.7L1452.49 177.53C1443.38 163.506 1428.59 159.7 1416.89 159.7V185.7V211.7C1417.7 211.7 1416.76 211.839 1414.93 211.044C1412.8 210.12 1410.52 208.372 1408.89 205.87L1430.69 191.7ZM1416.89 185.7V159.7C1407.91 159.7 1398.75 161.551 1390.26 166.218L1402.79 189L1415.32 211.782C1415.13 211.887 1415.07 211.882 1415.24 211.841C1415.44 211.795 1415.96 211.7 1416.89 211.7V185.7ZM1633.85 164.7L1653.97 148.236C1653.89 148.141 1653.82 148.046 1653.74 147.952L1633.85 164.7ZM1637.75 181.2L1611.86 183.554C1611.87 183.748 1611.89 183.942 1611.92 184.136L1637.75 181.2ZM1639.25 294V320C1653.61 320 1665.25 308.359 1665.25 294H1639.25ZM1587.95 294H1561.95C1561.95 308.359 1573.59 320 1587.95 320V294ZM1586.45 197.7L1608.5 183.92C1607.96 183.066 1607.38 182.244 1606.75 181.458L1586.45 197.7ZM1569.05 195L1569.98 220.983C1570.9 220.951 1571.81 220.869 1572.73 220.739L1569.05 195ZM1551.65 198.9L1541.99 174.76C1532.12 178.708 1525.65 188.268 1525.65 198.9H1551.65ZM1551.65 294V320C1566.01 320 1577.65 308.359 1577.65 294H1551.65ZM1500.35 294H1474.35C1474.35 308.359 1485.99 320 1500.35 320V294ZM1500.35 156V130C1485.99 130 1474.35 141.641 1474.35 156H1500.35ZM1542.05 156L1567.29 149.771C1564.43 138.159 1554.01 130 1542.05 130V156ZM1547.75 179.1L1522.51 185.329C1524.86 194.863 1532.38 202.258 1541.96 204.446C1551.53 206.634 1561.52 203.242 1567.78 195.677L1547.75 179.1ZM1619.45 156L1611.47 180.744C1611.54 180.769 1611.62 180.793 1611.69 180.816L1619.45 156ZM1633.85 164.7L1613.73 181.164C1612.78 180.005 1612.15 178.981 1611.76 178.274C1611.36 177.558 1611.12 176.998 1610.99 176.679C1610.75 176.086 1610.75 175.931 1610.87 176.456C1610.98 176.935 1611.15 177.757 1611.33 178.996C1611.51 180.221 1611.69 181.73 1611.86 183.554L1637.75 181.2L1663.64 178.846C1663.19 173.823 1662.52 168.907 1661.48 164.494C1660.64 160.972 1658.8 154.141 1653.97 148.236L1633.85 164.7ZM1637.75 181.2L1611.92 184.136C1612.74 191.409 1613.25 203.598 1613.25 221.4H1639.25H1665.25C1665.25 203.202 1664.76 188.591 1663.58 178.264L1637.75 181.2ZM1639.25 221.4H1613.25V294H1639.25H1665.25V221.4H1639.25ZM1639.25 294V268H1587.95V294V320H1639.25V294ZM1587.95 294H1613.95V222H1587.95H1561.95V294H1587.95ZM1587.95 222H1613.95V209.7H1587.95H1561.95V222H1587.95ZM1587.95 209.7H1613.95C1613.95 205.969 1613.81 202.177 1613.37 198.675C1613.07 196.24 1612.23 189.889 1608.5 183.92L1586.45 197.7L1564.4 211.48C1563.52 210.072 1562.97 208.849 1562.64 208.021C1562.3 207.174 1562.1 206.498 1561.99 206.077C1561.78 205.28 1561.75 204.887 1561.78 205.125C1561.8 205.312 1561.85 205.78 1561.89 206.599C1561.92 207.401 1561.95 208.426 1561.95 209.7H1587.95ZM1586.45 197.7L1606.75 181.458C1601.17 174.48 1593.93 171.613 1589.26 170.351C1584.37 169.031 1579.5 168.7 1575.35 168.7V194.7V220.7C1577 220.7 1576.87 220.869 1575.69 220.549C1574.72 220.287 1570.13 218.92 1566.15 213.942L1586.45 197.7ZM1575.35 194.7V168.7C1572.26 168.7 1568.66 168.791 1565.37 169.261L1569.05 195L1572.73 220.739C1572.33 220.795 1572.33 220.773 1572.91 220.746C1573.44 220.72 1574.24 220.7 1575.35 220.7V194.7ZM1569.05 195L1568.12 169.017C1559.11 169.338 1550.36 171.415 1541.99 174.76L1551.65 198.9L1561.31 223.04C1564.94 221.585 1567.79 221.061 1569.98 220.983L1569.05 195ZM1551.65 198.9H1525.65V294H1551.65H1577.65V198.9H1551.65ZM1551.65 294V268H1500.35V294V320H1551.65V294ZM1500.35 294H1526.35V156H1500.35H1474.35V294H1500.35ZM1500.35 156V182H1542.05V156V130H1500.35V156ZM1542.05 156L1516.81 162.229L1522.51 185.329L1547.75 179.1L1572.99 172.871L1567.29 149.771L1542.05 156ZM1547.75 179.1L1567.78 195.677C1577.96 183.377 1588.16 179 1599.35 179V153V127C1570.54 127 1546.34 140.023 1527.72 162.523L1547.75 179.1ZM1599.35 153V179C1604.12 179 1608.1 179.659 1611.47 180.744L1619.45 156L1627.43 131.256C1618.4 128.341 1608.98 127 1599.35 127V153ZM1619.45 156L1611.69 180.816C1614.97 181.84 1614.89 182.548 1613.96 181.448L1633.85 164.7L1653.74 147.952C1646.41 139.252 1636.73 134.16 1627.2 131.184L1619.45 156ZM1800.35 111.9H1826.35C1826.35 104.821 1823.46 98.0479 1818.35 93.1451C1813.25 88.2423 1806.36 85.6336 1799.29 85.9215L1800.35 111.9ZM1800.35 294V320C1814.71 320 1826.35 308.359 1826.35 294H1800.35ZM1758.05 294L1732.47 298.651C1734.71 311.014 1745.48 320 1758.05 320V294ZM1753.85 270.9L1779.43 266.249C1777.43 255.286 1768.68 246.812 1757.66 245.18C1746.63 243.548 1735.8 249.121 1730.71 259.036L1753.85 270.9ZM1736.15 289.5L1749.35 311.896V311.896L1736.15 289.5ZM1672.25 279.6L1652.16 296.103C1652.21 296.174 1652.27 296.244 1652.33 296.315L1672.25 279.6ZM1664.45 187.2L1688.88 196.085V196.085L1664.45 187.2ZM1678.55 163.5L1661.34 144.004C1661.32 144.025 1661.3 144.046 1661.27 144.067L1678.55 163.5ZM1699.25 156L1694.43 130.451C1694.4 130.456 1694.37 130.462 1694.34 130.468L1699.25 156ZM1749.65 155.1L1744.94 180.67C1752.81 182.12 1760.91 179.863 1766.9 174.552C1772.89 169.241 1776.1 161.467 1775.6 153.478L1749.65 155.1ZM1748.75 114L1747.69 88.0215C1733.75 88.5887 1722.75 100.052 1722.75 114H1748.75ZM1749.05 253.5L1756.75 278.332C1767.63 274.955 1775.05 264.891 1775.05 253.5H1749.05ZM1749.05 188.4H1775.05C1775.05 175.413 1765.46 164.418 1752.6 162.644L1749.05 188.4ZM1718.45 188.7L1704.67 166.652C1704.15 166.975 1703.65 167.315 1703.15 167.673L1718.45 188.7ZM1713.05 202.5L1687.48 197.79C1687.44 197.972 1687.41 198.155 1687.38 198.338L1713.05 202.5ZM1716.65 250.2L1697.32 267.593C1697.48 267.767 1697.64 267.938 1697.8 268.107L1716.65 250.2ZM1800.35 111.9H1774.35V294H1800.35H1826.35V111.9H1800.35ZM1800.35 294V268H1758.05V294V320H1800.35V294ZM1758.05 294L1783.63 289.349L1779.43 266.249L1753.85 270.9L1728.27 275.551L1732.47 298.651L1758.05 294ZM1753.85 270.9L1730.71 259.036C1729.03 262.307 1726.65 264.918 1722.94 267.104L1736.15 289.5L1749.35 311.896C1761.25 304.882 1770.66 295.093 1776.98 282.764L1753.85 270.9ZM1736.15 289.5L1722.94 267.104C1719.47 269.152 1715.3 270.4 1709.75 270.4V296.4V322.4C1723.8 322.4 1737.23 319.048 1749.35 311.896L1736.15 289.5ZM1709.75 296.4V270.4C1701.24 270.4 1696.26 267.764 1692.16 262.885L1672.25 279.6L1652.33 296.315C1667.04 313.836 1687.05 322.4 1709.75 322.4V296.4ZM1672.25 279.6L1692.34 263.097C1688.56 258.492 1684.45 248.699 1684.45 229.2H1658.45H1632.45C1632.45 254.501 1637.54 278.308 1652.16 296.103L1672.25 279.6ZM1658.45 229.2H1684.45C1684.45 213.982 1686.27 203.262 1688.88 196.085L1664.45 187.2L1640.01 178.315C1634.62 193.138 1632.45 210.418 1632.45 229.2H1658.45ZM1664.45 187.2L1688.88 196.085C1692.22 186.896 1695.05 183.614 1695.82 182.933L1678.55 163.5L1661.27 144.067C1651.24 152.986 1644.67 165.504 1640.01 178.315L1664.45 187.2ZM1678.55 163.5L1695.75 182.996C1694.73 183.898 1694.01 184.272 1694 184.279C1693.96 184.3 1694.29 184.125 1695.13 183.82C1696.87 183.19 1699.77 182.377 1704.16 181.532L1699.25 156L1694.34 130.468C1688.33 131.623 1682.58 133.06 1677.42 134.93C1672.56 136.689 1666.54 139.423 1661.34 144.004L1678.55 163.5ZM1699.25 156L1704.07 181.549C1713.54 179.761 1721.28 179 1727.45 179V153V127C1717.22 127 1706.15 128.239 1694.43 130.451L1699.25 156ZM1727.45 153V179C1732.96 179 1738.78 179.535 1744.94 180.67L1749.65 155.1L1754.36 129.53C1745.32 127.865 1736.34 127 1727.45 127V153ZM1749.65 155.1L1775.6 153.478C1775.3 148.695 1775.08 145.03 1774.93 142.456C1774.86 141.164 1774.81 140.195 1774.77 139.52C1774.73 138.606 1774.75 138.721 1774.75 139.2H1748.75H1722.75C1722.75 141.263 1723.14 147.815 1723.7 156.722L1749.65 155.1ZM1748.75 139.2H1774.75V114H1748.75H1722.75V139.2H1748.75ZM1748.75 114L1749.8 139.978L1801.4 137.878L1800.35 111.9L1799.29 85.9215L1747.69 88.0215L1748.75 114ZM1732.25 256.2V282.2C1740.56 282.2 1748.76 280.811 1756.75 278.332L1749.05 253.5L1741.34 228.668C1737.73 229.789 1734.73 230.2 1732.25 230.2V256.2ZM1749.05 253.5H1775.05V188.4H1749.05H1723.05V253.5H1749.05ZM1749.05 188.4L1752.6 162.644C1745.42 161.654 1737.81 161.2 1729.85 161.2V187.2V213.2C1735.88 213.2 1741.07 213.546 1745.49 214.156L1749.05 188.4ZM1729.85 187.2V161.2C1726.27 161.2 1722.57 161.341 1719.11 161.797C1716.55 162.134 1710.46 163.029 1704.67 166.652L1718.45 188.7L1732.23 210.748C1730.91 211.57 1729.76 212.1 1728.95 212.43C1728.13 212.766 1727.46 212.974 1727.02 213.095C1726.19 213.326 1725.74 213.373 1725.89 213.353C1725.99 213.339 1726.37 213.296 1727.08 213.26C1727.78 213.224 1728.7 213.2 1729.85 213.2V187.2ZM1718.45 188.7L1703.15 167.673C1695.93 172.927 1692.67 180.202 1691.23 183.876C1689.49 188.325 1688.33 193.163 1687.48 197.79L1713.05 202.5L1738.62 207.21C1738.87 205.809 1739.12 204.741 1739.32 203.959C1739.53 203.158 1739.66 202.819 1739.66 202.824C1739.65 202.839 1739.59 202.999 1739.46 203.272C1739.32 203.541 1739.09 203.989 1738.72 204.558C1738.06 205.579 1736.53 207.7 1733.74 209.727L1718.45 188.7ZM1713.05 202.5L1687.38 198.338C1685.94 207.235 1685.25 216.434 1685.25 225.9H1711.25H1737.25C1737.25 218.966 1737.75 212.565 1738.71 206.662L1713.05 202.5ZM1711.25 225.9H1685.25C1685.25 233.099 1685.76 240.22 1687.22 246.765C1688.61 253.023 1691.32 260.931 1697.32 267.593L1716.65 250.2L1735.97 232.807C1737.26 234.232 1737.84 235.416 1738.03 235.835C1738.21 236.255 1738.14 236.213 1737.98 235.485C1737.63 233.93 1737.25 230.901 1737.25 225.9H1711.25ZM1716.65 250.2L1697.8 268.107C1707.46 278.276 1720.03 282.2 1732.25 282.2V256.2V230.2C1731.56 230.2 1731.86 230.097 1732.73 230.433C1733.7 230.806 1734.71 231.464 1735.5 232.293L1716.65 250.2ZM1833.96 132L1815.97 150.772C1816.1 150.894 1816.23 151.015 1816.36 151.134L1833.96 132ZM1833.96 99L1816.36 79.8658C1816.23 79.9853 1816.1 80.1062 1815.97 80.2283L1833.96 99ZM1825.86 156V130C1811.5 130 1799.86 141.641 1799.86 156H1825.86ZM1877.16 156H1903.16C1903.16 141.641 1891.52 130 1877.16 130V156ZM1877.16 294V320C1891.52 320 1903.16 308.359 1903.16 294H1877.16ZM1825.86 294H1799.86C1799.86 308.359 1811.5 320 1825.86 320V294ZM1851.66 138.9V112.9C1851.54 112.9 1851.46 112.895 1851.42 112.891C1851.37 112.887 1851.35 112.883 1851.36 112.885C1851.37 112.886 1851.4 112.892 1851.44 112.903C1851.48 112.915 1851.53 112.931 1851.58 112.951C1851.63 112.971 1851.67 112.992 1851.71 113.011C1851.75 113.031 1851.78 113.045 1851.78 113.05C1851.79 113.055 1851.78 113.047 1851.74 113.02C1851.71 112.993 1851.65 112.943 1851.56 112.866L1833.96 132L1816.36 151.134C1826.16 160.154 1838.34 164.9 1851.66 164.9V138.9ZM1833.96 132L1851.95 113.228C1851.76 113.049 1852.07 113.303 1852.39 114.026C1852.53 114.36 1852.64 114.693 1852.7 114.991C1852.75 115.285 1852.76 115.467 1852.76 115.5H1826.76H1800.76C1800.76 129.291 1806.28 141.482 1815.97 150.772L1833.96 132ZM1826.76 115.5H1852.76C1852.76 115.533 1852.75 115.715 1852.7 116.009C1852.64 116.307 1852.53 116.64 1852.39 116.974C1852.07 117.697 1851.76 117.951 1851.95 117.772L1833.96 99L1815.97 80.2283C1806.28 89.5184 1800.76 101.709 1800.76 115.5H1826.76ZM1833.96 99L1851.56 118.134C1851.65 118.057 1851.71 118.007 1851.74 117.98C1851.78 117.953 1851.79 117.945 1851.78 117.95C1851.78 117.955 1851.75 117.969 1851.71 117.989C1851.67 118.008 1851.63 118.029 1851.58 118.049C1851.53 118.069 1851.48 118.085 1851.44 118.097C1851.4 118.108 1851.37 118.114 1851.36 118.115C1851.35 118.117 1851.37 118.113 1851.42 118.109C1851.46 118.105 1851.54 118.1 1851.66 118.1V92.1V66.1C1838.34 66.1 1826.16 70.8463 1816.36 79.8658L1833.96 99ZM1851.66 92.1V118.1C1851.89 118.1 1851.96 118.119 1851.9 118.109C1851.84 118.097 1851.7 118.065 1851.52 117.994C1851.34 117.922 1851.19 117.84 1851.09 117.771C1850.98 117.705 1850.98 117.687 1851.07 117.772L1869.06 99L1887.05 80.2283C1877.29 70.8732 1864.99 66.1 1851.66 66.1V92.1ZM1869.06 99L1851.07 117.772C1851.26 117.951 1850.94 117.697 1850.63 116.974C1850.48 116.64 1850.38 116.307 1850.32 116.009C1850.26 115.715 1850.26 115.533 1850.26 115.5H1876.26H1902.26C1902.26 101.709 1896.74 89.5184 1887.05 80.2283L1869.06 99ZM1876.26 115.5H1850.26C1850.26 115.467 1850.26 115.285 1850.32 114.991C1850.38 114.693 1850.48 114.36 1850.63 114.026C1850.94 113.303 1851.26 113.049 1851.07 113.228L1869.06 132L1887.05 150.772C1896.74 141.482 1902.26 129.291 1902.26 115.5H1876.26ZM1869.06 132L1851.07 113.228C1850.98 113.313 1850.98 113.295 1851.09 113.229C1851.19 113.16 1851.34 113.077 1851.52 113.006C1851.7 112.935 1851.84 112.903 1851.9 112.891C1851.96 112.881 1851.89 112.9 1851.66 112.9V138.9V164.9C1864.99 164.9 1877.29 160.127 1887.05 150.772L1869.06 132ZM1825.86 156V182H1877.16V156V130H1825.86V156ZM1877.16 156H1851.16V294H1877.16H1903.16V156H1877.16ZM1877.16 294V268H1825.86V294V320H1877.16V294ZM1825.86 294H1851.86V156H1825.86H1799.86V294H1825.86ZM2022.3 260.4H2048.3C2048.3 246.041 2036.65 234.4 2022.3 234.4V260.4ZM2022.3 294V320C2036.65 320 2048.3 308.359 2048.3 294H2022.3ZM1898.4 294H1872.4C1872.4 308.359 1884.04 320 1898.4 320V294ZM1898.4 259.5L1879.46 241.686C1874.92 246.508 1872.4 252.879 1872.4 259.5H1898.4ZM1965 188.7L1983.93 206.514C1991.04 198.96 1992.98 187.905 1988.86 178.384C1984.75 168.864 1975.37 162.7 1965 162.7V188.7ZM1900.2 188.7H1874.2C1874.2 203.059 1885.84 214.7 1900.2 214.7V188.7ZM1900.2 156V130C1885.84 130 1874.2 141.641 1874.2 156H1900.2ZM2020.8 156H2046.8C2046.8 141.641 2035.15 130 2020.8 130V156ZM2020.8 190.2L2039.7 208.052C2044.26 203.226 2046.8 196.839 2046.8 190.2H2020.8ZM1954.5 260.4L1935.59 242.548C1928.47 250.095 1926.51 261.159 1930.62 270.692C1934.73 280.225 1944.11 286.4 1954.5 286.4V260.4ZM2022.3 260.4H1996.3V294H2022.3H2048.3V260.4H2022.3ZM2022.3 294V268H1898.4V294V320H2022.3V294ZM1898.4 294H1924.4V259.5H1898.4H1872.4V294H1898.4ZM1898.4 259.5L1917.33 277.314L1983.93 206.514L1965 188.7L1946.06 170.886L1879.46 241.686L1898.4 259.5ZM1965 188.7V162.7H1900.2V188.7V214.7H1965V188.7ZM1900.2 188.7H1926.2V156H1900.2H1874.2V188.7H1900.2ZM1900.2 156V182H2020.8V156V130H1900.2V156ZM2020.8 156H1994.8V190.2H2020.8H2046.8V156H2020.8ZM2020.8 190.2L2001.89 172.348L1935.59 242.548L1954.5 260.4L1973.4 278.252L2039.7 208.052L2020.8 190.2ZM1954.5 260.4V286.4H2022.3V260.4V234.4H1954.5V260.4ZM2124.83 294L2099.63 300.4C2102.56 311.928 2112.94 320 2124.83 320V294ZM2120.03 275.1L2145.23 268.7C2142.66 258.569 2134.27 250.964 2123.94 249.395C2113.6 247.825 2103.34 252.597 2097.87 261.506L2120.03 275.1ZM2048.63 286.5L2031.19 305.78C2031.35 305.925 2031.51 306.068 2031.68 306.208L2048.63 286.5ZM2043.23 232.8L2022.75 216.793C2022.72 216.823 2022.7 216.853 2022.68 216.883L2043.23 232.8ZM2063.63 219.3L2056.49 194.3C2056.36 194.337 2056.24 194.374 2056.11 194.413L2063.63 219.3ZM2115.53 213.9L2115.98 239.896C2130.16 239.654 2141.53 228.086 2141.53 213.9H2115.53ZM2113.73 192.9L2097.49 213.203C2098.08 213.672 2098.69 214.116 2099.31 214.533L2113.73 192.9ZM2090.03 192.3L2091.12 218.277C2091.33 218.268 2091.55 218.257 2091.76 218.242L2090.03 192.3ZM2051.03 195.6L2025.32 199.41C2027.36 213.237 2039.98 222.97 2053.87 221.445L2051.03 195.6ZM2047.43 160.8L2042.15 135.343C2029.47 137.975 2020.65 149.545 2021.49 162.474L2047.43 160.8ZM2080.73 155.4L2083.85 181.213C2084 181.195 2084.14 181.176 2084.29 181.156L2080.73 155.4ZM2147.93 161.1L2133.39 182.65C2133.51 182.734 2133.64 182.817 2133.76 182.9L2147.93 161.1ZM2163.53 181.8L2188.58 174.811V174.811L2163.53 181.8ZM2166.83 214.5L2140.84 214.106C2140.84 214.178 2140.84 214.251 2140.83 214.323L2166.83 214.5ZM2166.53 258.6L2140.53 258.423C2140.53 258.702 2140.54 258.982 2140.54 259.261L2166.53 258.6ZM2167.43 294V320C2174.44 320 2181.16 317.169 2186.05 312.15C2190.94 307.13 2193.6 300.347 2193.43 293.339L2167.43 294ZM2115.53 261L2124.01 285.58C2134.5 281.964 2141.53 272.093 2141.53 261H2115.53ZM2115.53 238.8H2141.53C2141.53 224.441 2129.89 212.8 2115.53 212.8V238.8ZM2088.53 241.2L2070.15 222.815V222.815L2088.53 241.2ZM2086.13 245.7L2061.23 238.229C2061 239.01 2060.8 239.801 2060.64 240.601L2086.13 245.7ZM2088.83 261.3L2072.37 281.423V281.423L2088.83 261.3ZM2124.83 294L2150.03 287.6L2145.23 268.7L2120.03 275.1L2094.83 281.5L2099.63 300.4L2124.83 294ZM2120.03 275.1L2097.87 261.506C2092.98 269.477 2088.22 271.6 2081.63 271.6V297.6V323.6C2107.85 323.6 2128.69 310.723 2142.2 288.694L2120.03 275.1ZM2081.63 297.6V271.6C2073.27 271.6 2068.65 269.421 2065.59 266.792L2048.63 286.5L2031.68 306.208C2045.82 318.379 2063.2 323.6 2081.63 323.6V297.6ZM2048.63 286.5L2066.08 267.22C2064.21 265.531 2062.03 262.556 2062.03 254.7H2036.03H2010.03C2010.03 274.044 2016.26 292.269 2031.19 305.78L2048.63 286.5ZM2036.03 254.7H2062.03C2062.03 251.623 2062.78 250.025 2063.79 248.716L2043.23 232.8L2022.68 216.883C2014.09 227.975 2010.03 240.977 2010.03 254.7H2036.03ZM2043.23 232.8L2063.72 248.807C2065.07 247.08 2067.12 245.408 2071.16 244.188L2063.63 219.3L2056.11 194.413C2042.95 198.392 2031.4 205.72 2022.75 216.793L2043.23 232.8ZM2063.63 219.3L2070.78 244.3C2078.57 242.074 2093.05 240.288 2115.98 239.896L2115.53 213.9L2115.09 187.904C2091.22 188.312 2071.1 190.126 2056.49 194.3L2063.63 219.3ZM2115.53 213.9H2141.53C2141.53 207.081 2141.39 201.151 2140.99 196.53C2140.8 194.323 2140.49 191.552 2139.86 188.816C2139.55 187.487 2138.98 185.307 2137.89 182.884C2137.12 181.159 2134.48 175.485 2128.16 171.267L2113.73 192.9L2099.31 214.533C2096.04 212.351 2093.97 209.877 2092.8 208.235C2091.59 206.547 2090.84 205.051 2090.42 204.097C2089.6 202.262 2089.27 200.863 2089.19 200.509C2089.01 199.723 2089.07 199.677 2089.18 200.97C2089.38 203.349 2089.53 207.519 2089.53 213.9H2115.53ZM2113.73 192.9L2129.98 172.597C2125.78 169.239 2121.54 167.898 2119.71 167.375C2117.46 166.731 2115.37 166.396 2113.81 166.201C2110.67 165.808 2107.3 165.7 2104.13 165.7V191.7V217.7C2105.18 217.7 2105.98 217.72 2106.56 217.747C2107.17 217.775 2107.41 217.805 2107.36 217.799C2107.32 217.795 2107.15 217.772 2106.86 217.718C2106.58 217.666 2106.08 217.562 2105.43 217.375C2104.8 217.194 2103.78 216.87 2102.55 216.314C2101.37 215.78 2099.52 214.821 2097.49 213.203L2113.73 192.9ZM2104.13 191.7V165.7C2099.88 165.7 2094.52 165.943 2088.3 166.358L2090.03 192.3L2091.76 218.242C2097.55 217.857 2101.59 217.7 2104.13 217.7V191.7ZM2090.03 192.3L2088.95 166.323C2078.5 166.758 2064.83 167.929 2048.2 169.755L2051.03 195.6L2053.87 221.445C2070.04 219.671 2082.37 218.642 2091.12 218.277L2090.03 192.3ZM2051.03 195.6L2076.75 191.79C2075.27 181.787 2074.14 170.907 2073.38 159.126L2047.43 160.8L2021.49 162.474C2022.33 175.493 2023.6 187.813 2025.32 199.41L2051.03 195.6ZM2047.43 160.8L2052.72 186.257C2062.55 184.218 2072.92 182.532 2083.85 181.213L2080.73 155.4L2077.62 129.587C2065.35 131.068 2053.52 132.982 2042.15 135.343L2047.43 160.8ZM2080.73 155.4L2084.29 181.156C2095.01 179.677 2104.19 179 2111.93 179V153V127C2101.28 127 2089.66 127.923 2077.18 129.644L2080.73 155.4ZM2111.93 153V179C2125.83 179 2131.67 181.492 2133.39 182.65L2147.93 161.1L2162.48 139.55C2148.2 129.908 2130.04 127 2111.93 127V153ZM2147.93 161.1L2133.76 182.9C2136.85 184.908 2137.92 186.724 2138.49 188.789L2163.53 181.8L2188.58 174.811C2184.35 159.676 2175.01 147.692 2162.1 139.3L2147.93 161.1ZM2163.53 181.8L2138.49 188.789C2139.98 194.135 2141.02 202.328 2140.84 214.106L2166.83 214.5L2192.83 214.894C2193.05 200.272 2191.89 186.665 2188.58 174.811L2163.53 181.8ZM2166.83 214.5L2140.83 214.323L2140.53 258.423L2166.53 258.6L2192.53 258.777L2192.83 214.677L2166.83 214.5ZM2166.53 258.6L2140.54 259.261L2141.44 294.661L2167.43 294L2193.43 293.339L2192.53 257.939L2166.53 258.6ZM2167.43 294V268H2124.83V294V320H2167.43V294ZM2099.03 264V290C2107.58 290 2115.96 288.355 2124.01 285.58L2115.53 261L2107.06 236.42C2103.51 237.645 2100.88 238 2099.03 238V264ZM2115.53 261H2141.53V238.8H2115.53H2089.53V261H2115.53ZM2115.53 238.8V212.8H2113.13V238.8V264.8H2115.53V238.8ZM2113.13 238.8V212.8C2105.44 212.8 2098.71 213.001 2093.36 213.523C2090.74 213.778 2087.73 214.176 2084.79 214.896C2083.35 215.249 2076.09 216.871 2070.15 222.815L2088.53 241.2L2106.92 259.585C2105.29 261.216 2103.73 262.318 2102.59 263.021C2101.43 263.736 2100.43 264.214 2099.73 264.516C2098.38 265.097 2097.41 265.342 2097.16 265.404C2096.67 265.524 2096.93 265.422 2098.41 265.277C2101.26 264.999 2106.03 264.8 2113.13 264.8V238.8ZM2088.53 241.2L2070.15 222.815C2065 227.965 2062.52 233.926 2061.23 238.229L2086.13 245.7L2111.04 253.171C2110.95 253.462 2110.69 254.244 2110.13 255.31C2109.55 256.382 2108.56 257.948 2106.92 259.585L2088.53 241.2ZM2086.13 245.7L2060.64 240.601C2059.95 244.062 2059.53 247.679 2059.53 251.4H2085.53H2111.53C2111.53 251.521 2111.52 251.338 2111.63 250.799L2086.13 245.7ZM2085.53 251.4H2059.53C2059.53 258.786 2061.01 272.131 2072.37 281.423L2088.83 261.3L2105.3 241.177C2108.77 244.021 2110.37 247.287 2111.03 249.253C2111.62 251.048 2111.53 251.988 2111.53 251.4H2085.53ZM2088.83 261.3L2072.37 281.423C2081.33 288.751 2091.89 290 2099.03 290V264V238C2098.33 238 2098.67 237.921 2099.69 238.191C2100.75 238.471 2102.93 239.236 2105.3 241.177L2088.83 261.3ZM2327.4 111.9H2353.4C2353.4 104.821 2350.51 98.0479 2345.4 93.1451C2340.3 88.2423 2333.41 85.6336 2326.34 85.9215L2327.4 111.9ZM2327.4 294V320C2341.76 320 2353.4 308.359 2353.4 294H2327.4ZM2285.1 294L2259.52 298.651C2261.76 311.014 2272.53 320 2285.1 320V294ZM2280.9 270.9L2306.48 266.249C2304.48 255.286 2295.73 246.812 2284.71 245.18C2273.68 243.548 2262.85 249.121 2257.76 259.036L2280.9 270.9ZM2263.2 289.5L2276.41 311.896V311.896L2263.2 289.5ZM2199.3 279.6L2179.21 296.103C2179.26 296.174 2179.32 296.244 2179.38 296.315L2199.3 279.6ZM2191.5 187.2L2215.93 196.085V196.085L2191.5 187.2ZM2205.6 163.5L2188.4 144.004C2188.37 144.025 2188.35 144.046 2188.32 144.067L2205.6 163.5ZM2226.3 156L2221.48 130.451C2221.45 130.456 2221.42 130.462 2221.39 130.468L2226.3 156ZM2276.7 155.1L2271.99 180.67C2279.86 182.12 2287.96 179.863 2293.95 174.552C2299.94 169.241 2303.15 161.467 2302.65 153.478L2276.7 155.1ZM2275.8 114L2274.74 88.0215C2260.8 88.5887 2249.8 100.052 2249.8 114H2275.8ZM2276.1 253.5L2283.8 278.332C2294.68 274.955 2302.1 264.891 2302.1 253.5H2276.1ZM2276.1 188.4H2302.1C2302.1 175.413 2292.52 164.418 2279.65 162.644L2276.1 188.4ZM2245.5 188.7L2231.72 166.652C2231.2 166.975 2230.7 167.315 2230.21 167.673L2245.5 188.7ZM2240.1 202.5L2214.53 197.79C2214.49 197.972 2214.46 198.155 2214.43 198.338L2240.1 202.5ZM2243.7 250.2L2224.37 267.593C2224.53 267.767 2224.69 267.938 2224.85 268.107L2243.7 250.2ZM2327.4 111.9H2301.4V294H2327.4H2353.4V111.9H2327.4ZM2327.4 294V268H2285.1V294V320H2327.4V294ZM2285.1 294L2310.68 289.349L2306.48 266.249L2280.9 270.9L2255.32 275.551L2259.52 298.651L2285.1 294ZM2280.9 270.9L2257.76 259.036C2256.09 262.307 2253.7 264.918 2249.99 267.104L2263.2 289.5L2276.41 311.896C2288.3 304.882 2297.71 295.093 2304.03 282.764L2280.9 270.9ZM2263.2 289.5L2249.99 267.104C2246.52 269.152 2242.35 270.4 2236.8 270.4V296.4V322.4C2250.85 322.4 2264.28 319.048 2276.41 311.896L2263.2 289.5ZM2236.8 296.4V270.4C2228.3 270.4 2223.31 267.764 2219.21 262.885L2199.3 279.6L2179.38 296.315C2194.09 313.836 2214.1 322.4 2236.8 322.4V296.4ZM2199.3 279.6L2219.39 263.097C2215.61 258.492 2211.5 248.699 2211.5 229.2H2185.5H2159.5C2159.5 254.501 2164.59 278.308 2179.21 296.103L2199.3 279.6ZM2185.5 229.2H2211.5C2211.5 213.982 2213.32 203.262 2215.93 196.085L2191.5 187.2L2167.06 178.315C2161.67 193.138 2159.5 210.418 2159.5 229.2H2185.5ZM2191.5 187.2L2215.93 196.085C2219.27 186.896 2222.1 183.614 2222.87 182.933L2205.6 163.5L2188.32 144.067C2178.29 152.986 2171.72 165.504 2167.06 178.315L2191.5 187.2ZM2205.6 163.5L2222.8 182.996C2221.78 183.898 2221.06 184.272 2221.05 184.279C2221.01 184.3 2221.34 184.125 2222.18 183.82C2223.92 183.19 2226.82 182.377 2231.21 181.532L2226.3 156L2221.39 130.468C2215.38 131.623 2209.63 133.06 2204.47 134.93C2199.61 136.689 2193.59 139.423 2188.4 144.004L2205.6 163.5ZM2226.3 156L2231.12 181.549C2240.59 179.761 2248.33 179 2254.5 179V153V127C2244.27 127 2233.2 128.239 2221.48 130.451L2226.3 156ZM2254.5 153V179C2260.01 179 2265.83 179.535 2271.99 180.67L2276.7 155.1L2281.41 129.53C2272.37 127.865 2263.39 127 2254.5 127V153ZM2276.7 155.1L2302.65 153.478C2302.35 148.695 2302.13 145.03 2301.98 142.456C2301.91 141.164 2301.86 140.195 2301.82 139.52C2301.78 138.606 2301.8 138.721 2301.8 139.2H2275.8H2249.8C2249.8 141.263 2250.19 147.815 2250.75 156.722L2276.7 155.1ZM2275.8 139.2H2301.8V114H2275.8H2249.8V139.2H2275.8ZM2275.8 114L2276.85 139.978L2328.45 137.878L2327.4 111.9L2326.34 85.9215L2274.74 88.0215L2275.8 114ZM2259.3 256.2V282.2C2267.61 282.2 2275.82 280.811 2283.8 278.332L2276.1 253.5L2268.39 228.668C2264.78 229.789 2261.78 230.2 2259.3 230.2V256.2ZM2276.1 253.5H2302.1V188.4H2276.1H2250.1V253.5H2276.1ZM2276.1 188.4L2279.65 162.644C2272.47 161.654 2264.86 161.2 2256.9 161.2V187.2V213.2C2262.93 213.2 2268.12 213.546 2272.55 214.156L2276.1 188.4ZM2256.9 187.2V161.2C2253.32 161.2 2249.62 161.341 2246.16 161.797C2243.6 162.134 2237.51 163.029 2231.72 166.652L2245.5 188.7L2259.28 210.748C2257.96 211.57 2256.81 212.1 2256 212.43C2255.18 212.766 2254.51 212.974 2254.07 213.095C2253.24 213.326 2252.79 213.373 2252.94 213.353C2253.04 213.339 2253.42 213.296 2254.13 213.26C2254.83 213.224 2255.75 213.2 2256.9 213.2V187.2ZM2245.5 188.7L2230.21 167.673C2222.98 172.927 2219.72 180.202 2218.29 183.876C2216.54 188.325 2215.38 193.163 2214.53 197.79L2240.1 202.5L2265.67 207.21C2265.93 205.809 2266.17 204.741 2266.37 203.959C2266.58 203.158 2266.71 202.819 2266.71 202.824C2266.7 202.839 2266.64 202.999 2266.51 203.272C2266.37 203.541 2266.14 203.989 2265.77 204.558C2265.11 205.579 2263.58 207.7 2260.79 209.727L2245.5 188.7ZM2240.1 202.5L2214.43 198.338C2212.99 207.235 2212.3 216.434 2212.3 225.9H2238.3H2264.3C2264.3 218.966 2264.81 212.565 2265.76 206.662L2240.1 202.5ZM2238.3 225.9H2212.3C2212.3 233.099 2212.81 240.22 2214.27 246.765C2215.66 253.023 2218.38 260.931 2224.37 267.593L2243.7 250.2L2263.02 232.807C2264.31 234.232 2264.89 235.416 2265.08 235.835C2265.27 236.255 2265.19 236.213 2265.03 235.485C2264.68 233.93 2264.3 230.901 2264.3 225.9H2238.3ZM2243.7 250.2L2224.85 268.107C2234.51 278.276 2247.08 282.2 2259.3 282.2V256.2V230.2C2258.61 230.2 2258.91 230.097 2259.78 230.433C2260.75 230.806 2261.76 231.464 2262.55 232.293L2243.7 250.2ZM2364.61 281.1L2346.54 299.799C2346.65 299.903 2346.76 300.006 2346.87 300.107L2364.61 281.1ZM2350.51 192.3L2325.31 185.878C2325.28 185.996 2325.26 186.114 2325.23 186.232L2350.51 192.3ZM2359.81 171L2379.14 188.393C2379.18 188.338 2379.23 188.283 2379.28 188.227L2359.81 171ZM2385.01 158.1L2378.13 133.025C2378.1 133.035 2378.06 133.045 2378.03 133.054L2385.01 158.1ZM2473.81 279.6L2492.5 297.676V297.676L2473.81 279.6ZM2434.81 254.7L2458.57 265.26C2458.62 265.154 2458.66 265.048 2458.71 264.942L2434.81 254.7ZM2436.91 202.8L2411.34 207.534C2411.35 207.593 2411.37 207.652 2411.38 207.71L2436.91 202.8ZM2431.21 191.1L2412.82 209.485C2413.3 209.955 2413.78 210.408 2414.29 210.841L2431.21 191.1ZM2405.11 189.3L2422.23 208.867C2423.17 208.049 2424.04 207.164 2424.85 206.221L2405.11 189.3ZM2401.21 202.5L2426.98 205.982V205.982L2401.21 202.5ZM2403.61 254.4L2380.03 265.349C2380.13 265.577 2380.24 265.803 2380.35 266.028L2403.61 254.4ZM2418.61 297.9V271.9C2398.19 271.9 2387.71 267.099 2382.35 262.093L2364.61 281.1L2346.87 300.107C2365.51 317.501 2391.03 323.9 2418.61 323.9V297.9ZM2364.61 281.1L2382.67 262.401C2377.97 257.856 2372.91 248.173 2372.91 227.4H2346.91H2320.91C2320.91 255.427 2327.65 281.544 2346.54 299.799L2364.61 281.1ZM2346.91 227.4H2372.91C2372.91 215.465 2373.99 205.887 2375.79 198.368L2350.51 192.3L2325.23 186.232C2322.23 198.713 2320.91 212.535 2320.91 227.4H2346.91ZM2350.51 192.3L2375.7 198.722C2376.77 194.536 2377.78 191.627 2378.61 189.729C2379.49 187.711 2379.82 187.627 2379.14 188.393L2359.81 171L2340.48 153.607C2332.48 162.503 2328.14 174.792 2325.31 185.878L2350.51 192.3ZM2359.81 171L2379.28 188.227C2378.81 188.76 2379.12 188.187 2381.41 187.019C2383.63 185.882 2387.04 184.525 2391.99 183.146L2385.01 158.1L2378.03 133.054C2364.43 136.845 2350.02 142.828 2340.34 153.773L2359.81 171ZM2385.01 158.1L2391.88 183.174C2402.46 180.276 2411.72 179 2419.81 179V153V127C2406.29 127 2392.36 129.124 2378.13 133.025L2385.01 158.1ZM2419.81 153V179C2443.02 179 2452.87 184.134 2456.62 187.885L2475.01 169.5L2493.39 151.115C2475.14 132.866 2448.2 127 2419.81 127V153ZM2475.01 169.5L2456.62 187.885C2460.63 191.887 2465.51 201.265 2465.51 222.3H2491.51H2517.51C2517.51 194.935 2511.39 169.113 2493.39 151.115L2475.01 169.5ZM2491.51 222.3H2465.51C2465.51 245.052 2460.26 256.21 2455.12 261.524L2473.81 279.6L2492.5 297.676C2510.96 278.59 2517.51 251.548 2517.51 222.3H2491.51ZM2473.81 279.6L2455.12 261.524C2450.13 266.681 2439.9 271.9 2418.61 271.9V297.9V323.9C2447.32 323.9 2473.89 316.919 2492.5 297.676L2473.81 279.6ZM2419.51 262.8V288.8C2426.23 288.8 2433.97 287.662 2441.35 283.753C2449.18 279.609 2455.07 273.142 2458.57 265.26L2434.81 254.7L2411.05 244.14C2411.53 243.066 2412.29 241.805 2413.43 240.579C2414.57 239.347 2415.83 238.428 2417.02 237.797C2419.3 236.588 2420.59 236.8 2419.51 236.8V262.8ZM2434.81 254.7L2458.71 264.942C2463.4 254.001 2464.41 239.412 2464.41 225.3H2438.41H2412.41C2412.41 231.642 2412.13 236.47 2411.7 239.99C2411.24 243.762 2410.73 244.873 2410.91 244.458L2434.81 254.7ZM2438.41 225.3H2464.41C2464.41 214.99 2463.91 205.535 2462.44 197.89L2436.91 202.8L2411.38 207.71C2411.91 210.465 2412.41 216.01 2412.41 225.3H2438.41ZM2436.91 202.8L2462.47 198.066C2460.9 189.572 2457.18 179.121 2448.13 171.359L2431.21 191.1L2414.29 210.841C2412.56 209.355 2411.7 207.902 2411.36 207.212C2411.05 206.581 2411.16 206.56 2411.34 207.534L2436.91 202.8ZM2431.21 191.1L2449.59 172.715C2440.08 163.204 2427.86 161.2 2418.91 161.2V187.2V213.2C2419.8 213.2 2419.45 213.316 2418.33 212.959C2417.08 212.564 2414.93 211.593 2412.82 209.485L2431.21 191.1ZM2418.91 187.2V161.2C2414.39 161.2 2409.74 161.383 2405.55 162.021C2403.47 162.337 2400.71 162.879 2397.8 163.934C2395.36 164.816 2389.94 167.05 2385.37 172.379L2405.11 189.3L2424.85 206.221C2422.72 208.703 2420.54 210.241 2419.06 211.127C2417.55 212.028 2416.27 212.549 2415.5 212.828C2414.03 213.358 2413.15 213.463 2413.37 213.429C2413.78 213.367 2415.43 213.2 2418.91 213.2V187.2ZM2405.11 189.3L2387.99 169.733C2381.13 175.732 2378.77 183.689 2378 186.283C2376.82 190.292 2376.03 194.71 2375.44 199.018L2401.21 202.5L2426.98 205.982C2427.17 204.518 2427.36 203.365 2427.54 202.487C2427.71 201.587 2427.83 201.131 2427.87 201.017C2427.92 200.833 2427.76 201.465 2427.22 202.54C2426.94 203.107 2426.46 203.979 2425.73 205.008C2425.01 206.023 2423.88 207.424 2422.23 208.867L2405.11 189.3ZM2401.21 202.5L2375.44 199.018C2374.28 207.651 2373.71 216.517 2373.71 225.6H2399.71H2425.71C2425.71 218.683 2426.14 212.149 2426.98 205.982L2401.21 202.5ZM2399.71 225.6H2373.71C2373.71 239.498 2374.83 254.156 2380.03 265.349L2403.61 254.4L2427.19 243.451C2427.43 243.961 2426.92 243.021 2426.45 239.511C2426 236.225 2425.71 231.66 2425.71 225.6H2399.71ZM2403.61 254.4L2380.35 266.028C2388.72 282.762 2404.76 288.8 2419.51 288.8V262.8V236.8C2418.61 236.8 2419.78 236.628 2421.83 237.711C2422.88 238.264 2423.94 239.038 2424.89 240.027C2425.84 241.009 2426.47 241.987 2426.86 242.772L2403.61 254.4Z" fill="white" mask="url(#path-1-outside-1_53_208)"/>
<mask id="mask0_53_208" style="mask-type:alpha" maskUnits="userSpaceOnUse" x="-13" y="41" width="353" height="353">
<rect x="0.5" y="54.0006" width="326" height="326" fill="#D9D9D9" stroke="white" stroke-width="26" stroke-linejoin="round"/>
</mask>
<g mask="url(#mask0_53_208)">
<path d="M241.808 64.0582C245.526 60.3403 251.117 59.2279 255.975 61.2399C260.832 63.252 264 67.9926 264 73.2506V119.503C264.913 117.312 266.42 115.381 268.398 113.955C271.788 111.511 276.147 110.846 280.111 112.168C283.401 113.264 286.64 114.417 289.829 115.627C293.338 116.958 296.757 118.569 300.087 120.441C304.367 122.516 307.96 125.713 310.427 129.987L310.672 130.423L311.065 131.165C312.974 134.894 314 138.97 314 143.251V293.876C314 303.156 309.648 311.005 301.72 315.884C293.587 320.889 284.477 320.968 276.218 316.641C276.168 316.615 276.118 316.589 276.068 316.562C269.237 312.87 262.095 310.013 254.624 307.984C247.298 305.994 239.85 305.001 232.25 305.001C221.304 305.001 210.767 306.909 200.564 310.735C190.192 314.625 180.536 320.094 171.569 327.193C166.841 330.936 160.159 330.936 155.431 327.193C146.464 320.094 136.808 314.625 126.436 310.735C116.233 306.909 105.696 305.001 94.75 305.001C87.15 305.001 79.7019 305.994 72.376 307.984C64.9051 310.013 57.7628 312.87 50.9316 316.562C50.8821 316.589 50.8321 316.615 50.7822 316.641C42.5227 320.968 33.4131 320.889 25.2803 315.884C17.3519 311.005 13 303.157 13 293.876V143.251C13 138.685 14.1679 134.351 16.3281 130.423L16.5732 129.987C19.0818 125.641 22.7537 122.407 27.1299 120.336C37.567 114.917 48.4772 110.837 59.8408 108.11C71.2624 105.369 82.9064 104.001 94.75 104.001C107.969 104.001 120.932 105.712 133.61 109.138C146.327 112.575 158.494 117.724 170.091 124.546C173.007 126.261 175.095 129.017 175.999 132.184C176.6 130.077 177.73 128.136 179.308 126.558L241.808 64.0582ZM176.5 265.514C177.591 265.045 178.688 264.589 179.789 264.148C178.361 262.858 177.238 261.269 176.5 259.5V265.514ZM263 203.25C262.266 205.011 261.146 206.609 259.696 207.914L205.644 256.56C214.442 254.857 223.314 254.001 232.25 254.001C240.476 254.001 248.565 254.687 256.509 256.068C258.672 256.444 260.836 256.873 263 257.35V203.25Z" fill="#F375C2" stroke="white" stroke-width="26" stroke-linejoin="round"/>
</g>
</svg>
