<svg width="4000" height="513" viewBox="0 0 4000 513" fill="none" xmlns="http://www.w3.org/2000/svg">
<rect width="4000" height="512.5" fill="#190626"/>
<path d="M572.698 179.095H697.198V215.095H626.698V246.295H686.098V278.695H626.698V313.495H696.898V350.095H572.698V179.095ZM933.096 221.695C936.296 226.495 937.896 245.095 937.896 277.495V350.095H886.596V282.595V266.395C886.596 258.995 885.896 254.595 884.496 253.195C882.896 251.595 879.496 250.795 874.296 250.795L870.696 251.095C864.496 251.495 858.596 252.895 852.996 255.295C853.196 259.495 853.296 266.895 853.296 277.495V350.095H801.996V282.595V264.595C801.996 258.395 801.296 254.595 799.896 253.195C798.296 251.595 794.896 250.795 789.696 250.795L786.096 251.095C780.496 251.295 774.696 252.595 768.696 254.995V350.095H717.396V212.095H759.096L764.496 234.595C771.096 225.795 778.696 219.395 787.296 215.395C795.896 211.195 804.596 209.095 813.396 209.095C820.796 209.095 827.796 210.195 834.396 212.395C841.196 214.595 845.896 217.695 848.496 221.695C849.696 223.495 850.696 226.795 851.496 231.595C857.896 223.795 865.196 218.095 873.396 214.495C881.596 210.895 889.796 209.095 897.996 209.095C905.396 209.095 912.396 210.195 918.996 212.395C925.796 214.595 930.496 217.695 933.096 221.695ZM1108.55 312.595H1058.75L1049.75 350.095H994.549L1049.75 179.095H1120.25L1173.05 350.095H1117.55L1108.55 312.595ZM1083.35 215.995L1065.65 279.295H1101.35L1084.55 215.995H1083.35ZM1280.07 209.095C1294.47 209.095 1305.87 213.895 1314.27 223.495C1322.87 232.895 1327.17 249.395 1327.17 272.995C1327.17 290.595 1325.47 304.995 1322.07 316.195C1318.67 327.195 1314.77 334.495 1310.37 338.095C1305.97 341.695 1298.27 344.595 1287.27 346.795C1276.47 348.995 1265.27 350.095 1253.67 350.095C1250.27 350.095 1244.57 349.895 1236.57 349.495V392.095L1185.27 394.195V212.095H1227.27L1232.37 233.395C1237.57 225.995 1244.17 220.095 1252.17 215.695C1260.37 211.295 1269.67 209.095 1280.07 209.095ZM1268.07 313.495C1270.27 311.895 1271.87 307.395 1272.87 299.995C1273.87 292.395 1274.37 285.195 1274.37 278.395C1274.37 267.195 1272.97 258.895 1270.17 253.495C1267.37 248.095 1261.77 245.395 1253.37 245.395C1247.37 245.395 1241.77 245.995 1236.57 247.195V313.795L1244.97 314.695C1247.57 314.895 1251.27 314.995 1256.07 314.995C1262.87 314.995 1266.87 314.495 1268.07 313.495ZM1432.78 209.095C1435.38 209.095 1438.08 209.395 1440.88 209.995C1443.88 210.595 1446.08 211.295 1447.48 212.095C1447.48 216.495 1446.98 223.795 1445.98 233.995C1444.98 243.995 1444.08 251.095 1443.28 255.295C1441.28 255.095 1437.58 254.995 1432.18 254.995C1419.58 254.995 1408.38 255.695 1398.58 257.095V350.095H1347.28V212.095H1390.18L1396.18 234.295H1396.48C1402.28 226.695 1408.48 220.595 1415.08 215.995C1421.68 211.395 1427.58 209.095 1432.78 209.095ZM1544.65 314.095C1549.65 314.095 1558.95 313.595 1572.55 312.595C1574.35 312.595 1577.65 312.395 1582.45 311.995L1586.95 342.895C1571.55 350.095 1551.55 353.695 1526.95 353.695C1503.95 353.695 1486.25 347.895 1473.85 336.295C1461.65 324.695 1455.55 307.195 1455.55 283.795C1455.55 271.795 1457.05 260.195 1460.05 248.995C1463.25 237.795 1466.85 229.995 1470.85 225.595C1475.05 221.195 1482.85 217.395 1494.25 214.195C1505.65 210.995 1516.95 209.395 1528.15 209.395C1546.15 209.395 1559.65 212.595 1568.65 218.995C1577.65 225.395 1583.55 234.295 1586.35 245.695C1589.15 256.895 1590.55 271.995 1590.55 290.995C1576.95 291.795 1563.65 292.195 1550.65 292.195H1508.05C1508.05 298.595 1509.35 303.395 1511.95 306.595C1514.75 309.795 1518.65 311.895 1523.65 312.895C1528.65 313.695 1535.65 314.095 1544.65 314.095ZM1511.05 245.095C1509.85 245.695 1508.95 248.295 1508.35 252.895C1507.75 257.495 1507.35 262.695 1507.15 268.495H1522.75C1532.15 268.495 1538.95 268.395 1543.15 268.195C1543.15 258.595 1541.75 251.795 1538.95 247.795C1536.35 243.795 1531.75 241.795 1525.15 241.795C1519.75 241.795 1515.05 242.895 1511.05 245.095ZM1742.11 220.795C1743.91 222.995 1745.21 228.495 1746.01 237.295C1747.01 246.095 1747.51 259.495 1747.51 277.495V350.095H1696.21V278.095V265.795C1696.21 259.395 1695.71 255.395 1694.71 253.795C1693.11 251.795 1689.41 250.795 1683.61 250.795C1680.81 250.795 1678.71 250.895 1677.31 251.095C1671.71 251.295 1665.91 252.595 1659.91 254.995V350.095H1608.61V212.095H1650.31L1656.01 235.195C1670.41 217.795 1687.61 209.095 1707.61 209.095C1714.81 209.095 1721.51 210.095 1727.71 212.095C1734.11 214.095 1738.91 216.995 1742.11 220.795ZM1908.6 167.995V350.095H1866.3L1862.1 326.995C1858.1 334.795 1852.2 340.995 1844.4 345.595C1836.6 350.195 1827.8 352.495 1818 352.495C1802.4 352.495 1789.9 346.895 1780.5 335.695C1771.3 324.495 1766.7 307.695 1766.7 285.295C1766.7 268.295 1768.7 254.295 1772.7 243.295C1776.7 232.295 1781.4 224.395 1786.8 219.595C1790.2 216.595 1797.1 214.095 1807.5 212.095C1818.1 210.095 1827.5 209.095 1835.7 209.095C1842.9 209.095 1850.3 209.795 1857.9 211.195C1857.3 201.595 1857 196.295 1857 195.295V170.095L1908.6 167.995ZM1840.5 312.295C1845.9 312.295 1851.5 311.395 1857.3 309.595V244.495C1851.5 243.695 1845.1 243.295 1838.1 243.295C1832.1 243.295 1828.3 243.795 1826.7 244.795C1824.5 246.395 1822.7 250.995 1821.3 258.595C1820.1 265.995 1819.5 273.795 1819.5 281.995C1819.5 294.195 1821.3 302.295 1824.9 306.295C1828.7 310.295 1833.9 312.295 1840.5 312.295ZM1959.92 194.995C1953.12 194.995 1947.22 192.695 1942.22 188.095C1937.42 183.495 1935.02 177.995 1935.02 171.595C1935.02 165.195 1937.42 159.695 1942.22 155.095C1947.22 150.495 1953.12 148.195 1959.92 148.195C1966.72 148.195 1972.52 150.495 1977.32 155.095C1982.12 159.695 1984.52 165.195 1984.52 171.595C1984.52 177.995 1982.12 183.495 1977.32 188.095C1972.52 192.695 1966.72 194.995 1959.92 194.995ZM1934.12 212.095H1985.42V350.095H1934.12V212.095ZM2130.55 316.495V350.095H2006.65V315.595L2073.25 244.795H2008.45V212.095H2129.05V246.295L2062.75 316.495H2130.55ZM2233.09 350.095L2228.29 331.195C2219.09 346.195 2206.29 353.695 2189.89 353.695C2176.49 353.695 2165.49 349.995 2156.89 342.595C2148.49 334.995 2144.29 324.395 2144.29 310.795C2144.29 302.395 2146.69 295.095 2151.49 288.895C2156.49 282.495 2163.29 277.995 2171.89 275.395C2183.09 272.195 2200.39 270.395 2223.79 269.995C2223.79 256.795 2223.19 249.795 2221.99 248.995C2220.99 248.195 2217.79 247.795 2212.39 247.795C2208.99 247.795 2204.29 247.995 2198.29 248.395C2188.69 248.795 2175.69 249.895 2159.29 251.695C2157.69 240.895 2156.49 229.295 2155.69 216.895C2166.29 214.695 2177.39 212.895 2188.99 211.495C2200.59 209.895 2210.99 209.095 2220.19 209.095C2236.19 209.095 2248.19 211.795 2256.19 217.195C2264.19 222.395 2269.39 229.295 2271.79 237.895C2274.19 246.495 2275.29 257.395 2275.09 270.595L2274.79 314.695L2275.69 350.095H2233.09ZM2207.29 320.095C2212.49 320.095 2217.99 319.095 2223.79 317.095V294.895H2221.39C2206.59 294.895 2198.39 295.695 2196.79 297.295C2195.79 298.295 2194.99 299.795 2194.39 301.795C2193.99 303.795 2193.79 305.695 2193.79 307.495C2193.79 312.295 2194.89 315.595 2197.09 317.395C2199.29 319.195 2202.69 320.095 2207.29 320.095ZM2435.66 167.995V350.095H2393.36L2389.16 326.995C2385.16 334.795 2379.26 340.995 2371.46 345.595C2363.66 350.195 2354.86 352.495 2345.06 352.495C2329.46 352.495 2316.96 346.895 2307.56 335.695C2298.36 324.495 2293.76 307.695 2293.76 285.295C2293.76 268.295 2295.76 254.295 2299.76 243.295C2303.76 232.295 2308.46 224.395 2313.86 219.595C2317.26 216.595 2324.16 214.095 2334.56 212.095C2345.16 210.095 2354.56 209.095 2362.76 209.095C2369.96 209.095 2377.36 209.795 2384.96 211.195C2384.36 201.595 2384.06 196.295 2384.06 195.295V170.095L2435.66 167.995ZM2367.56 312.295C2372.96 312.295 2378.56 311.395 2384.36 309.595V244.495C2378.56 243.695 2372.16 243.295 2365.16 243.295C2359.16 243.295 2355.36 243.795 2353.76 244.795C2351.56 246.395 2349.76 250.995 2348.36 258.595C2347.16 265.995 2346.56 273.795 2346.56 281.995C2346.56 294.195 2348.36 302.295 2351.96 306.295C2355.76 310.295 2360.96 312.295 2367.56 312.295ZM2526.87 353.995C2502.87 353.995 2484.87 348.395 2472.87 337.195C2461.07 325.795 2455.17 307.895 2455.17 283.495C2455.17 270.095 2456.37 258.395 2458.77 248.395C2461.37 238.195 2464.47 231.095 2468.07 227.095C2472.67 221.895 2481.07 217.595 2493.27 214.195C2505.67 210.795 2517.27 209.095 2528.07 209.095C2553.87 209.095 2572.27 214.595 2583.27 225.595C2594.27 236.595 2599.77 254.195 2599.77 278.395C2599.77 304.395 2593.87 323.495 2582.07 335.695C2570.27 347.895 2551.87 353.995 2526.87 353.995ZM2527.77 318.895C2535.57 318.895 2540.67 316.195 2543.07 310.795C2545.47 305.195 2546.67 295.395 2546.67 281.395C2546.67 271.595 2546.17 264.095 2545.17 258.895C2544.17 253.495 2542.27 249.595 2539.47 247.195C2536.87 244.595 2532.77 243.295 2527.17 243.295C2519.17 243.295 2514.57 243.995 2513.37 245.395C2511.77 246.795 2510.47 251.195 2509.47 258.595C2508.47 265.995 2507.97 273.695 2507.97 281.695C2507.97 295.295 2509.27 304.895 2511.87 310.495C2514.67 316.095 2519.97 318.895 2527.77 318.895Z" fill="#F375C2"/>
<mask id="mask0_53_208" style="mask-type:alpha" maskUnits="userSpaceOnUse" x="121" y="123" width="301" height="301">
<rect x="121.758" y="123.095" width="300" height="300" fill="#D9D9D9"/>
</mask>
<g mask="url(#mask0_53_208)">
<path d="M271.758 373.095C261.758 365.179 250.924 359.033 239.258 354.658C227.591 350.283 215.508 348.095 203.008 348.095C194.258 348.095 185.664 349.241 177.227 351.533C168.789 353.824 160.716 357.054 153.008 361.22C148.633 363.512 144.414 363.408 140.352 360.908C136.289 358.408 134.258 354.762 134.258 349.97V199.345C134.258 197.054 134.831 194.866 135.977 192.783C137.122 190.7 138.841 189.137 141.133 188.095C150.716 183.095 160.716 179.345 171.133 176.845C181.549 174.345 192.174 173.095 203.008 173.095C215.091 173.095 226.914 174.658 238.477 177.783C250.039 180.908 261.133 185.595 271.758 191.845V343.095C282.383 336.429 293.529 331.429 305.195 328.095C316.862 324.762 328.633 323.095 340.508 323.095C348.008 323.095 355.352 323.72 362.539 324.97C369.727 326.22 376.966 328.095 384.258 330.595V180.595C387.383 181.637 390.456 182.731 393.477 183.877C396.497 185.022 399.466 186.429 402.383 188.095C404.674 189.137 406.393 190.7 407.539 192.783C408.685 194.866 409.258 197.054 409.258 199.345V349.97C409.258 354.762 407.227 358.408 403.164 360.908C399.102 363.408 394.883 363.512 390.508 361.22C382.799 357.054 374.727 353.824 366.289 351.533C357.852 349.241 349.258 348.095 340.508 348.095C328.008 348.095 315.924 350.283 304.258 354.658C292.591 359.033 281.758 365.179 271.758 373.095ZM296.758 310.595V191.845L359.258 129.345V254.345L296.758 310.595Z" fill="#F375C2"/>
</g>
</svg>
