<svg width="6000" height="952" viewBox="0 0 6000 952" fill="none" xmlns="http://www.w3.org/2000/svg">
<path d="M1033.6 616H938.678V335.922H1033.6V616ZM1145.12 616H1051.57V375.961H1146.29L1131.26 512.484H1135.16C1140.63 460.271 1149.81 423.682 1162.7 402.719C1175.72 381.755 1196.16 371.273 1224.03 371.273C1247.86 371.273 1266.15 379.802 1278.91 396.859C1291.67 413.917 1298.05 441.391 1298.05 479.281V616H1204.3V530.844C1204.3 524.594 1204.24 519.451 1204.11 515.414C1203.98 511.247 1203.65 506.56 1203.13 501.352C1202.61 496.013 1201.76 491.716 1200.59 488.461C1199.55 485.076 1198.12 481.82 1196.29 478.695C1194.47 475.57 1192.06 473.292 1189.07 471.859C1186.07 470.297 1182.62 469.516 1178.72 469.516C1173.77 469.516 1169.41 470.492 1165.63 472.445C1161.99 474.398 1158.93 477.523 1156.45 481.82C1153.98 485.987 1151.96 490.609 1150.4 495.688C1148.96 500.766 1147.86 507.341 1147.08 515.414C1146.29 523.357 1145.77 531.104 1145.51 538.656C1145.25 546.208 1145.12 555.453 1145.12 566.391V616ZM1554.89 616H1460.16V414.047H1388.09V335.922H1627.35V414.047H1554.89V616ZM1734.97 616H1641.41V375.961H1736.14L1721.1 512.484H1725.01C1727.22 485.01 1730.6 462.094 1735.16 443.734C1739.72 425.375 1745.71 410.922 1753.13 400.375C1760.68 389.698 1769.15 382.211 1778.52 377.914C1788.03 373.487 1799.42 371.273 1812.7 371.273V480.453H1807.43C1800.4 473.422 1791.61 469.906 1781.06 469.906C1766.87 469.906 1755.6 476.221 1747.27 488.852C1739.07 501.482 1734.97 520.688 1734.97 546.469V616ZM1877.94 620.883C1867.39 620.883 1857.56 619.581 1848.44 616.977C1839.46 614.372 1831.32 610.466 1824.03 605.258C1816.74 600.049 1811.01 593.018 1806.84 584.164C1802.68 575.18 1800.59 564.828 1800.59 553.109C1800.59 541.391 1802.87 530.909 1807.43 521.664C1812.12 512.419 1818.17 504.932 1825.59 499.203C1833.01 493.474 1841.87 488.721 1852.15 484.945C1862.57 481.169 1873.05 478.565 1883.6 477.133C1894.15 475.57 1905.28 474.789 1917 474.789C1931.32 474.789 1945.06 475.831 1958.21 477.914V474.398C1952.35 462.68 1936.46 456.82 1910.55 456.82C1896.49 456.82 1882.04 459.359 1867.19 464.438C1852.48 469.385 1839.78 475.766 1829.11 483.578H1823.83V392.758C1836.72 386.638 1851.83 381.56 1869.15 377.523C1886.59 373.357 1904.56 371.273 1923.05 371.273C1962.25 371.273 1993.3 381.755 2016.22 402.719C2039.13 423.552 2050.59 451.547 2050.59 486.703V616H1959.77V608.383L1971.49 510.727H1967C1965.83 547.706 1957.49 575.31 1942 593.539C1926.5 611.768 1905.15 620.883 1877.94 620.883ZM1910.94 554.086C1922.4 554.086 1931.65 549.984 1938.68 541.781C1945.84 533.448 1949.94 522.966 1950.98 510.336H1933.4C1917.13 510.336 1905.47 512.875 1898.44 517.953C1891.41 523.031 1887.9 529.151 1887.9 536.312C1887.9 542.042 1890.11 546.469 1894.54 549.594C1898.96 552.589 1904.43 554.086 1910.94 554.086ZM2114.46 409.164C2098.57 409.164 2085.68 404.477 2075.79 395.102C2066.02 385.596 2061.14 374.008 2061.14 360.336C2061.14 346.664 2066.09 335.076 2075.98 325.57C2086.01 315.935 2098.83 311.117 2114.46 311.117C2129.95 311.117 2142.58 315.935 2152.35 325.57C2162.25 335.076 2167.19 346.664 2167.19 360.336C2167.19 374.138 2162.31 385.727 2152.54 395.102C2142.91 404.477 2130.21 409.164 2114.46 409.164ZM2161.53 616H2066.8V401.547H2069.93C2081 412.224 2095.84 417.562 2114.46 417.562C2132.69 417.562 2147.34 412.224 2158.4 401.547H2161.53V616ZM2271.29 616H2177.74V375.961H2272.47L2257.43 512.484H2261.33C2266.8 460.271 2275.98 423.682 2288.87 402.719C2301.89 381.755 2322.34 371.273 2350.2 371.273C2374.03 371.273 2392.32 379.802 2405.08 396.859C2417.84 413.917 2424.22 441.391 2424.22 479.281V616H2330.47V530.844C2330.47 524.594 2330.41 519.451 2330.28 515.414C2330.15 511.247 2329.82 506.56 2329.3 501.352C2328.78 496.013 2327.94 491.716 2326.76 488.461C2325.72 485.076 2324.29 481.82 2322.47 478.695C2320.64 475.57 2318.24 473.292 2315.24 471.859C2312.25 470.297 2308.79 469.516 2304.89 469.516C2299.94 469.516 2295.58 470.492 2291.8 472.445C2288.16 474.398 2285.1 477.523 2282.62 481.82C2280.15 485.987 2278.13 490.609 2276.57 495.688C2275.14 500.766 2274.03 507.341 2273.25 515.414C2272.47 523.357 2271.95 531.104 2271.69 538.656C2271.43 546.208 2271.29 555.453 2271.29 566.391V616ZM2487.9 409.164C2472.01 409.164 2459.12 404.477 2449.22 395.102C2439.46 385.596 2434.58 374.008 2434.58 360.336C2434.58 346.664 2439.52 335.076 2449.42 325.57C2459.45 315.935 2472.27 311.117 2487.9 311.117C2503.39 311.117 2516.02 315.935 2525.79 325.57C2535.68 335.076 2540.63 346.664 2540.63 360.336C2540.63 374.138 2535.75 385.727 2525.98 395.102C2516.35 404.477 2503.65 409.164 2487.9 409.164ZM2534.97 616H2440.24V401.547H2443.37C2454.43 412.224 2469.28 417.562 2487.9 417.562C2506.13 417.562 2520.77 412.224 2531.84 401.547H2534.97V616ZM2644.73 616H2551.18V375.961H2645.9L2630.87 512.484H2634.77C2640.24 460.271 2649.42 423.682 2662.31 402.719C2675.33 381.755 2695.77 371.273 2723.64 371.273C2747.47 371.273 2765.76 379.802 2778.52 396.859C2791.28 413.917 2797.66 441.391 2797.66 479.281V616H2703.91V530.844C2703.91 524.594 2703.85 519.451 2703.72 515.414C2703.59 511.247 2703.26 506.56 2702.74 501.352C2702.22 496.013 2701.37 491.716 2700.2 488.461C2699.16 485.076 2697.73 481.82 2695.9 478.695C2694.08 475.57 2691.67 473.292 2688.68 471.859C2685.68 470.297 2682.23 469.516 2678.33 469.516C2673.38 469.516 2669.02 470.492 2665.24 472.445C2661.59 474.398 2658.53 477.523 2656.06 481.82C2653.59 485.987 2651.57 490.609 2650.01 495.688C2648.57 500.766 2647.47 507.341 2646.69 515.414C2645.9 523.357 2645.38 531.104 2645.12 538.656C2644.86 546.208 2644.73 555.453 2644.73 566.391V616ZM2939.65 680.844C2917.52 680.844 2898.18 679.151 2881.65 675.766C2865.24 672.38 2852.28 667.693 2842.78 661.703C2833.4 655.714 2826.44 649.008 2821.88 641.586C2817.45 634.164 2815.24 626.026 2815.24 617.172C2815.24 604.542 2820.06 594.646 2829.69 587.484C2839.33 580.323 2853.07 576.742 2870.9 576.742V573.227C2828.72 573.227 2807.62 561.898 2807.62 539.242C2807.62 528.044 2813.09 519.711 2824.03 514.242C2835.1 508.773 2850.2 506.039 2869.34 506.039C2880.67 506.039 2893.56 507.341 2908.01 509.945L2908.4 505.648C2894.73 505.128 2882.49 503.565 2871.69 500.961C2861.01 498.357 2852.28 495.102 2845.51 491.195C2838.74 487.289 2833.14 482.667 2828.72 477.328C2824.29 471.99 2821.16 466.586 2819.34 461.117C2817.65 455.518 2816.8 449.529 2816.8 443.148C2816.8 422.185 2827.09 404.997 2847.66 391.586C2868.24 378.044 2896.49 371.273 2932.43 371.273C2952.35 371.273 2971.88 374.789 2991.02 381.82C3010.29 388.721 3027.02 399.724 3041.22 414.828L3043.37 412.484C3037.51 402.719 3029.04 393.995 3017.97 386.312C3007.04 378.63 2994.86 372.51 2981.45 367.953C2968.04 363.266 2954.63 359.62 2941.22 357.016C2927.81 354.411 2914.46 352.719 2901.18 351.938V343.93L2994.93 311.117C3014.72 325.44 3030.28 343.148 3041.61 364.242C3053.07 385.206 3058.79 405.258 3058.79 424.398C3058.79 456.951 3048.31 481.495 3027.35 498.031C3006.52 514.568 2976.24 522.836 2936.53 522.836C2926.11 522.836 2915.96 522.706 2906.06 522.445C2896.16 522.185 2890.83 522.055 2890.04 522.055C2883.14 522.055 2878.07 522.641 2874.81 523.812C2871.69 524.984 2870.12 527.198 2870.12 530.453C2870.12 533.188 2871.56 535.01 2874.42 535.922C2877.28 536.833 2881.32 537.289 2886.53 537.289C2893.3 537.289 2909.64 535.076 2935.55 530.648C2961.59 526.221 2982.69 524.008 2998.83 524.008C3010.42 524.008 3020.58 525.57 3029.3 528.695C3038.16 531.69 3045.06 535.466 3050.01 540.023C3054.95 544.581 3058.93 550.115 3061.92 556.625C3064.91 563.005 3066.87 568.995 3067.78 574.594C3068.82 580.193 3069.34 586.117 3069.34 592.367C3069.34 599.268 3068.56 605.974 3067 612.484C3065.44 618.865 3062.9 625.505 3059.38 632.406C3055.87 639.307 3050.79 645.557 3044.15 651.156C3037.64 656.755 3029.76 661.833 3020.51 666.391C3011.4 670.948 2999.94 674.464 2986.14 676.938C2972.34 679.542 2956.84 680.844 2939.65 680.844ZM2934.97 476.742C2943.95 476.742 2950.98 475.115 2956.06 471.859C2961.14 468.474 2963.68 464.242 2963.68 459.164C2963.68 453.695 2961.14 449.333 2956.06 446.078C2950.98 442.823 2943.95 441.195 2934.97 441.195C2925.72 441.195 2918.56 442.823 2913.48 446.078C2908.53 449.333 2906.06 453.695 2906.06 459.164C2906.06 464.372 2908.6 468.604 2913.68 471.859C2918.76 475.115 2925.85 476.742 2934.97 476.742ZM2939.26 598.812C2954.89 598.812 2967.84 597.185 2978.13 593.93C2988.55 590.674 2993.76 585.466 2993.76 578.305C2993.76 569.32 2982.95 564.828 2961.33 564.828C2950.92 564.828 2935.55 566.065 2915.24 568.539C2894.93 571.013 2882.95 572.315 2879.3 572.445C2879.3 590.023 2899.29 598.812 2939.26 598.812Z" fill="#2C27A8"/>
<rect x="472.592" y="326" width="300" height="300" fill="#2C27A8"/>
<mask id="mask0_81_252" style="mask-type:alpha" maskUnits="userSpaceOnUse" x="512" y="366" width="221" height="220">
<rect x="512.592" y="366" width="220" height="220" fill="#D9D9D9"/>
</mask>
<g mask="url(#mask0_81_252)">
<path d="M549.258 567.667L538.258 531.458C535.966 528.861 534.171 525.997 532.873 522.865C531.574 519.733 530.925 516.333 530.925 512.667V439.333C530.925 435.667 531.574 432.268 532.873 429.136C534.171 426.004 535.966 423.139 538.258 420.542L549.258 384.333H604.258L615.258 420.542C617.55 423.139 619.345 426.004 620.644 429.136C621.942 432.268 622.591 435.667 622.591 439.333V512.667C622.591 516.333 621.942 519.733 620.644 522.865C619.345 525.997 617.55 528.861 615.258 531.458L604.258 567.667H549.258ZM558.425 521.833H595.091C597.689 521.833 599.866 520.955 601.623 519.198C603.38 517.441 604.258 515.264 604.258 512.667V439.333C604.258 436.736 603.38 434.559 601.623 432.802C599.866 431.045 597.689 430.167 595.091 430.167H558.425C555.828 430.167 553.651 431.045 551.894 432.802C550.137 434.559 549.258 436.736 549.258 439.333V512.667C549.258 515.264 550.137 517.441 551.894 519.198C553.651 520.955 555.828 521.833 558.425 521.833ZM659.258 567.667C654.216 567.667 649.901 565.872 646.31 562.281C642.72 558.691 640.925 554.375 640.925 549.333V448.5C638.328 448.5 636.151 447.622 634.394 445.865C632.637 444.108 631.758 441.931 631.758 439.333V430.167C631.758 427.57 632.637 425.393 634.394 423.636C636.151 421.879 638.328 421 640.925 421V402.667C640.925 397.625 642.72 393.309 646.31 389.719C649.901 386.129 654.216 384.333 659.258 384.333H695.925C700.966 384.333 705.282 386.129 708.873 389.719C712.463 393.309 714.258 397.625 714.258 402.667V421C716.855 421 719.032 421.879 720.789 423.636C722.546 425.393 723.425 427.57 723.425 430.167V439.333C723.425 441.931 722.546 444.108 720.789 445.865C719.032 447.622 716.855 448.5 714.258 448.5V549.333C714.258 554.375 712.463 558.691 708.873 562.281C705.282 565.872 700.966 567.667 695.925 567.667H659.258ZM659.258 443.917V549.333H695.925V443.917H659.258ZM659.258 425.583H695.925V402.667H659.258V425.583Z" fill="white"/>
</g>
</svg>
