<svg width="83" height="30" viewBox="0 0 83 30" fill="none" xmlns="http://www.w3.org/2000/svg">
<rect x="1" y="1" width="81" height="28" rx="9" fill="#990706" fill-opacity="0.4" stroke="#990706" stroke-width="2"/>
<path d="M31.184 22V10.32H34.064V22H31.184ZM33.744 22V19.568H38.672V22H33.744ZM33.744 17.28V14.848H38.336V17.28H33.744ZM33.744 12.752V10.32H38.576V12.752H33.744ZM40.5247 22V13.168H42.8288V16.976H42.7008C42.7008 16.0587 42.8128 15.3013 43.0368 14.704C43.2714 14.096 43.6128 13.6427 44.0608 13.344C44.5088 13.0347 45.0581 12.88 45.7088 12.88H45.8368C46.4981 12.88 47.0474 13.0347 47.4848 13.344C47.9328 13.6427 48.2688 14.096 48.4928 14.704C48.7274 15.3013 48.8448 16.0587 48.8448 16.976H48.1728C48.1728 16.0587 48.2848 15.3013 48.5087 14.704C48.7434 14.096 49.0848 13.6427 49.5328 13.344C49.9808 13.0347 50.5301 12.88 51.1808 12.88H51.3088C51.9701 12.88 52.5248 13.0347 52.9728 13.344C53.4314 13.6427 53.7781 14.096 54.0128 14.704C54.2581 15.3013 54.3808 16.0587 54.3808 16.976V22H51.4688V16.896C51.4688 16.4907 51.3568 16.1547 51.1328 15.888C50.9194 15.6107 50.6101 15.472 50.2048 15.472C49.7994 15.472 49.4794 15.6107 49.2448 15.888C49.0208 16.1547 48.9088 16.5013 48.9088 16.928V22H45.9968V16.896C45.9968 16.4907 45.8848 16.1547 45.6608 15.888C45.4474 15.6107 45.1381 15.472 44.7328 15.472C44.3274 15.472 44.0074 15.6107 43.7728 15.888C43.5488 16.1547 43.4368 16.5013 43.4368 16.928V22H40.5247ZM61.6813 22V19.408H61.2013V16.64C61.2013 16.2347 61.1053 15.936 60.9133 15.744C60.7319 15.5413 60.4279 15.44 60.0013 15.44C59.7986 15.44 59.4999 15.4453 59.1053 15.456C58.7106 15.4667 58.2946 15.4827 57.8573 15.504C57.4199 15.5253 57.0199 15.5467 56.6573 15.568V13.136C56.9133 13.1147 57.2173 13.0933 57.5693 13.072C57.9213 13.0507 58.2839 13.0347 58.6573 13.024C59.0413 13.0133 59.3933 13.008 59.7133 13.008C60.6199 13.008 61.3879 13.1413 62.0173 13.408C62.6573 13.6747 63.1426 14.0747 63.4733 14.608C63.8146 15.1413 63.9853 15.8187 63.9853 16.64V22H61.6813ZM58.8813 22.224C58.2626 22.224 57.7133 22.112 57.2333 21.888C56.7533 21.664 56.3746 21.344 56.0973 20.928C55.8306 20.5013 55.6973 19.9947 55.6973 19.408C55.6973 18.7467 55.8733 18.2133 56.2253 17.808C56.5773 17.392 57.0626 17.088 57.6813 16.896C58.2999 16.704 59.0093 16.608 59.8093 16.608H61.5213V18.112H59.8093C59.4146 18.112 59.1106 18.2133 58.8973 18.416C58.6839 18.608 58.5773 18.8693 58.5773 19.2C58.5773 19.52 58.6839 19.7813 58.8973 19.984C59.1106 20.176 59.4146 20.272 59.8093 20.272C60.0653 20.272 60.2893 20.2293 60.4813 20.144C60.6839 20.048 60.8493 19.888 60.9773 19.664C61.1053 19.44 61.1799 19.1307 61.2013 18.736L61.8733 19.376C61.8199 19.984 61.6706 20.5013 61.4253 20.928C61.1906 21.344 60.8599 21.664 60.4333 21.888C60.0173 22.112 59.4999 22.224 58.8813 22.224ZM66.347 22V13.168H69.259V22H66.347ZM65.227 15.28V13.168H69.259V15.28H65.227ZM67.547 12.464C67.0137 12.464 66.619 12.3307 66.363 12.064C66.1177 11.7867 65.995 11.4347 65.995 11.008C65.995 10.5813 66.1177 10.2347 66.363 9.968C66.619 9.69067 67.0083 9.552 67.531 9.552C68.0643 9.552 68.4537 9.69067 68.699 9.968C68.9443 10.2347 69.067 10.5813 69.067 11.008C69.067 11.4347 68.9443 11.7867 68.699 12.064C68.4537 12.3307 68.0697 12.464 67.547 12.464ZM71.5278 22V10.32H74.4398V22H71.5278ZM70.5358 12.432V10.32H74.4398V12.432H70.5358Z" fill="white"/>
<path d="M14 7.57735C14.6188 7.22008 15.3812 7.22008 16 7.57735L20.9282 10.4226C21.547 10.7799 21.9282 11.4402 21.9282 12.1547V17.8453C21.9282 18.5598 21.547 19.2201 20.9282 19.5774L16 22.4226C15.3812 22.7799 14.6188 22.7799 14 22.4226L9.0718 19.5774C8.45299 19.2201 8.0718 18.5598 8.0718 17.8453V12.1547C8.0718 11.4402 8.45299 10.7799 9.0718 10.4226L14 7.57735Z" fill="#990706"/>
</svg>
