<svg width="780" height="180" viewBox="0 0 780 180" fill="none" xmlns="http://www.w3.org/2000/svg">
<mask id="mask0_55_254" style="mask-type:alpha" maskUnits="userSpaceOnUse" x="0" y="0" width="781" height="180">
<rect width="780.004" height="180" fill="#2C2C2C"/>
</mask>
<g mask="url(#mask0_55_254)">
<rect width="780.004" height="180" fill="#2C2C2C"/>
<rect x="0.00195312" width="141.901" height="180" fill="#88304E"/>
<rect x="0.00195312" y="142.123" width="780.002" height="37.8774" fill="#88304E"/>
<rect x="268.829" y="-142.923" width="141.901" height="329.402" transform="rotate(45 268.829 -142.923)" fill="#88304E"/>
<path d="M216.974 133.5V40.06H240.014V133.5H216.974ZM237.454 133.5V114.044H276.878V133.5H237.454ZM237.454 95.74V76.284H274.19V95.74H237.454ZM237.454 59.516V40.06H276.11V59.516H237.454ZM291.7 133.5V62.844H310.132V93.308H309.108C309.108 85.9693 310.004 79.9107 311.796 75.132C313.673 70.268 316.404 66.6413 319.988 64.252C323.572 61.7773 327.967 60.54 333.172 60.54H334.196C339.487 60.54 343.881 61.7773 347.38 64.252C350.964 66.6413 353.652 70.268 355.444 75.132C357.321 79.9107 358.26 85.9693 358.26 93.308H352.884C352.884 85.9693 353.78 79.9107 355.572 75.132C357.449 70.268 360.18 66.6413 363.764 64.252C367.348 61.7773 371.743 60.54 376.948 60.54H377.972C383.263 60.54 387.7 61.7773 391.284 64.252C394.953 66.6413 397.727 70.268 399.604 75.132C401.567 79.9107 402.548 85.9693 402.548 93.308V133.5H379.252V92.668C379.252 89.4253 378.356 86.7373 376.564 84.604C374.857 82.3853 372.383 81.276 369.14 81.276C365.897 81.276 363.337 82.3853 361.46 84.604C359.668 86.7373 358.772 89.5107 358.772 92.924V133.5H335.476V92.668C335.476 89.4253 334.58 86.7373 332.788 84.604C331.081 82.3853 328.607 81.276 325.364 81.276C322.121 81.276 319.561 82.3853 317.684 84.604C315.892 86.7373 314.996 89.5107 314.996 92.924V133.5H291.7ZM460.952 133.5V112.764H457.112V90.62C457.112 87.3773 456.344 84.988 454.808 83.452C453.357 81.8307 450.925 81.02 447.512 81.02C445.891 81.02 443.501 81.0627 440.344 81.148C437.187 81.2333 433.859 81.3613 430.36 81.532C426.861 81.7027 423.661 81.8733 420.76 82.044V62.588C422.808 62.4173 425.24 62.2467 428.056 62.076C430.872 61.9053 433.773 61.7773 436.76 61.692C439.832 61.6067 442.648 61.564 445.208 61.564C452.461 61.564 458.605 62.6307 463.64 64.764C468.76 66.8973 472.643 70.0973 475.288 74.364C478.019 78.6307 479.384 84.0493 479.384 90.62V133.5H460.952ZM438.552 135.292C433.603 135.292 429.208 134.396 425.368 132.604C421.528 130.812 418.499 128.252 416.28 124.924C414.147 121.511 413.08 117.457 413.08 112.764C413.08 107.473 414.488 103.207 417.304 99.964C420.12 96.636 424.003 94.204 428.952 92.668C433.901 91.132 439.576 90.364 445.976 90.364H459.672V102.396H445.976C442.819 102.396 440.387 103.207 438.68 104.828C436.973 106.364 436.12 108.455 436.12 111.1C436.12 113.66 436.973 115.751 438.68 117.372C440.387 118.908 442.819 119.676 445.976 119.676C448.024 119.676 449.816 119.335 451.352 118.652C452.973 117.884 454.296 116.604 455.32 114.812C456.344 113.02 456.941 110.545 457.112 107.388L462.488 112.508C462.061 117.372 460.867 121.511 458.904 124.924C457.027 128.252 454.381 130.812 450.968 132.604C447.64 134.396 443.501 135.292 438.552 135.292ZM498.278 133.5V62.844H521.574V133.5H498.278ZM489.318 79.74V62.844H521.574V79.74H489.318ZM507.878 57.212C503.611 57.212 500.454 56.1453 498.406 54.012C496.443 51.7933 495.462 48.9773 495.462 45.564C495.462 42.1507 496.443 39.3773 498.406 37.244C500.454 35.0253 503.569 33.916 507.75 33.916C512.017 33.916 515.131 35.0253 517.094 37.244C519.057 39.3773 520.038 42.1507 520.038 45.564C520.038 48.9773 519.057 51.7933 517.094 54.012C515.131 56.1453 512.059 57.212 507.878 57.212ZM539.724 133.5V40.06H563.02V133.5H539.724ZM531.788 56.956V40.06H563.02V56.956H531.788Z" fill="white"/>
</g>
</svg>
