<svg width="780" height="220" viewBox="0 0 780 220" fill="none" xmlns="http://www.w3.org/2000/svg">
<rect width="780.004" height="219.554" fill="#5E2A6B"/>
<path d="M290.834 151.777H226.029V67.7539H290.131V91.1914H254.506V100.918C255.326 99.3164 257.24 98.5156 260.248 98.5156H287.26V120.43H260.248C257.123 120.43 255.209 119.648 254.506 118.086V128.398H290.834V151.777ZM323.119 151.777H295.053V79.7656H323.471L318.549 120.723H319.779C321.459 105.293 324.115 94.375 327.748 87.9688C331.42 81.5625 337.045 78.3594 344.623 78.3594C347.787 78.3594 350.561 78.9062 352.943 80C355.365 81.0938 357.279 82.5 358.686 84.2188C360.092 85.9375 361.225 88.0859 362.084 90.6641C362.982 93.2031 363.568 95.7227 363.842 98.2227C364.154 100.723 364.311 103.496 364.311 106.543C364.311 110.059 364.057 114.785 363.549 120.723H364.662C365.756 106.426 368.334 95.8008 372.396 88.8477C376.459 81.8555 382.357 78.3594 390.092 78.3594C397.24 78.3594 402.514 80.918 405.912 86.0352C409.35 91.1133 411.068 99.4336 411.068 110.996V151.777H383.002V128.75C383.002 128.398 383.002 127.891 383.002 127.227C383.002 125.977 383.002 125.039 383.002 124.414C383.002 123.75 382.982 122.832 382.943 121.66C382.943 120.449 382.904 119.512 382.826 118.848C382.748 118.184 382.65 117.344 382.533 116.328C382.416 115.312 382.26 114.512 382.064 113.926C381.869 113.34 381.635 112.676 381.361 111.934C381.127 111.152 380.814 110.547 380.424 110.117C380.033 109.688 379.604 109.277 379.135 108.887C378.666 108.457 378.119 108.164 377.494 108.008C376.869 107.812 376.186 107.715 375.443 107.715C372.24 107.715 370.053 110.098 368.881 114.863C367.748 119.59 367.182 126.973 367.182 137.012V151.777H339.115V123.828C339.115 122.266 339.076 120.918 338.998 119.785C338.959 118.613 338.861 117.363 338.705 116.035C338.549 114.668 338.295 113.535 337.943 112.637C337.631 111.738 337.221 110.898 336.713 110.117C336.205 109.297 335.541 108.691 334.721 108.301C333.9 107.91 332.963 107.715 331.908 107.715C330.854 107.715 329.896 107.891 329.037 108.242C328.217 108.594 327.494 109.199 326.869 110.059C326.283 110.918 325.775 111.797 325.346 112.695C324.916 113.594 324.564 114.902 324.291 116.621C324.018 118.301 323.803 119.824 323.646 121.191C323.49 122.559 323.373 124.473 323.295 126.934C323.217 129.355 323.158 131.445 323.119 133.203C323.119 134.961 323.119 137.383 323.119 140.469V151.777ZM437.26 153.242C434.096 153.242 431.146 152.852 428.412 152.07C425.717 151.289 423.275 150.117 421.088 148.555C418.9 146.992 417.182 144.883 415.932 142.227C414.682 139.531 414.057 136.426 414.057 132.91C414.057 129.395 414.74 126.25 416.107 123.477C417.514 120.703 419.33 118.457 421.557 116.738C423.783 115.02 426.439 113.594 429.525 112.461C432.65 111.328 435.795 110.547 438.959 110.117C442.123 109.648 445.463 109.414 448.979 109.414C453.275 109.414 457.396 109.727 461.342 110.352V109.297C459.584 105.781 454.818 104.023 447.045 104.023C442.826 104.023 438.49 104.785 434.037 106.309C429.623 107.793 425.814 109.707 422.611 112.051H421.029V84.8047C424.896 82.9688 429.428 81.4453 434.623 80.2344C439.857 78.9844 445.248 78.3594 450.795 78.3594C462.553 78.3594 471.869 81.5039 478.744 87.793C485.619 94.043 489.057 102.441 489.057 112.988V151.777H461.811V149.492L465.326 120.195H463.979C463.627 131.289 461.127 139.57 456.479 145.039C451.83 150.508 445.424 153.242 437.26 153.242ZM447.162 133.203C450.6 133.203 453.373 131.973 455.482 129.512C457.631 127.012 458.861 123.867 459.174 120.078H453.9C449.018 120.078 445.521 120.84 443.412 122.363C441.303 123.887 440.248 125.723 440.248 127.871C440.248 129.59 440.912 130.918 442.24 131.855C443.568 132.754 445.209 133.203 447.162 133.203ZM508.217 89.7266C503.451 89.7266 499.584 88.3203 496.615 85.5078C493.686 82.6562 492.221 79.1797 492.221 75.0781C492.221 70.9766 493.705 67.5 496.674 64.6484C499.682 61.7578 503.529 60.3125 508.217 60.3125C512.865 60.3125 516.654 61.7578 519.584 64.6484C522.553 67.5 524.037 70.9766 524.037 75.0781C524.037 79.2188 522.572 82.6953 519.643 85.5078C516.752 88.3203 512.943 89.7266 508.217 89.7266ZM522.338 151.777H493.92V87.4414H494.857C498.178 90.6445 502.631 92.2461 508.217 92.2461C513.686 92.2461 518.08 90.6445 521.4 87.4414H522.338V151.777ZM555.502 151.777H527.201V61.7773H555.502V151.777Z" fill="white"/>
</svg>
