<svg width="252" height="60" viewBox="0 0 252 60" fill="none" xmlns="http://www.w3.org/2000/svg">
<rect width="252" height="60" fill="#173EFF"/>
<rect width="60" height="60" fill="#264AFC"/>
<path d="M85.0258 14H112.066V21.08H96.7858V26H109.026V32.36H96.7858V36.92H112.066V44H85.0258V36.92H89.7058V21.08H85.0258V14ZM153.089 14V44H146.009V21.72C145.049 22.0667 144.156 22.56 143.329 23.2C142.529 23.84 141.836 24.5733 141.249 25.4C140.689 26.2267 140.236 27.1333 139.889 28.12C139.569 29.1067 139.409 30.1467 139.409 31.24V44H132.329V31.24C132.329 30.1467 132.156 29.1067 131.809 28.12C131.489 27.1333 131.036 26.2267 130.449 25.4C129.889 24.5733 129.196 23.84 128.369 23.2C127.569 22.56 126.689 22.0667 125.729 21.72V44H118.649V21.08H114.049V14H122.169C124.996 14 127.583 14.6133 129.929 15.84C132.303 17.0667 134.289 18.72 135.889 20.8C137.463 18.72 139.423 17.0667 141.769 15.84C144.143 14.6133 146.743 14 149.569 14H153.089ZM157.487 14H184.287V44H177.247V33.48H169.007C168.927 35 168.567 36.44 167.927 37.8C167.313 39.1333 166.487 40.2933 165.447 41.28C164.407 42.2667 163.207 43.0533 161.847 43.64C160.487 44.2 159.033 44.48 157.487 44.48V37.4C158.047 37.4 158.58 37.3067 159.087 37.12C159.593 36.9067 160.047 36.6267 160.447 36.28C160.847 35.9067 161.167 35.4933 161.407 35.04C161.673 34.56 161.833 34.04 161.887 33.48H157.487V27.12H161.927V21.08H157.487V14ZM177.247 21.08H169.007V27.12H177.247V21.08ZM187.487 14H202.007V21.08H198.287V36.92H202.007V44H187.487V36.92H191.207V21.08H187.487V14ZM212.301 36.88C214.114 36.7467 215.768 36.44 217.261 35.96C218.754 35.48 220.034 34.9867 221.101 34.48C222.168 33.9467 222.994 33.4667 223.581 33.04C224.194 32.6133 224.501 32.4 224.501 32.4L228.981 37.88C228.928 37.9067 228.688 38.08 228.261 38.4C227.834 38.72 227.234 39.1067 226.461 39.56C225.714 40.0133 224.794 40.5067 223.701 41.04C222.634 41.5467 221.421 42.0267 220.061 42.48C218.728 42.9067 217.261 43.2667 215.661 43.56C214.088 43.8533 212.408 44 210.621 44H205.221V14H212.301V36.88Z" fill="white"/>
<path d="M14 20.8377V39.1779L23.0701 30.0078L14 20.8377Z" fill="white"/>
<path d="M15.8022 19L27.2851 30.6095C28.7354 32.0758 31.2646 32.0758 32.7149 30.6095L44.1978 19H15.8022Z" fill="white"/>
<path d="M34.5248 32.4394C33.3178 33.6611 31.7101 34.3353 30 34.3353C28.2899 34.3353 26.6822 33.6611 25.4752 32.4394L24.88 31.8377L15.8176 41H44.1824L35.12 31.8377L34.5248 32.4394Z" fill="white"/>
<path d="M36.9299 30.0078L46 39.1779V20.8377L36.9299 30.0078Z" fill="white"/>
</svg>
