<svg width="179" height="80" viewBox="0 0 179 80" fill="none" xmlns="http://www.w3.org/2000/svg">
<path d="M148.75 23.9893C150.761 22.8283 153.239 22.8283 155.25 23.9893L172.9 34.1807C174.911 35.3418 176.15 37.4873 176.15 39.8096V60.1904C176.15 62.5127 174.911 64.6582 172.9 65.8193L155.25 76.0107C153.239 77.1717 150.761 77.1717 148.75 76.0107L131.1 65.8193C129.089 64.6582 127.85 62.5127 127.85 60.1904V39.8096C127.85 37.4873 129.089 35.3418 131.1 34.1807L148.75 23.9893Z" fill="black" stroke="#050505" stroke-width="5"/>
<path d="M123.75 23.9893C125.761 22.8283 128.239 22.8283 130.25 23.9893L147.9 34.1807C149.911 35.3418 151.15 37.4873 151.15 39.8096V60.1904C151.15 62.5127 149.911 64.6582 147.9 65.8193L130.25 76.0107C128.239 77.1717 125.761 77.1717 123.75 76.0107L106.1 65.8193C104.089 64.6582 102.85 62.5127 102.85 60.1904V39.8096C102.85 37.4873 104.089 35.3418 106.1 34.1807L123.75 23.9893Z" fill="#F05539" stroke="#F44E30" stroke-width="5"/>
<path d="M98.75 23.9893C100.761 22.8283 103.239 22.8283 105.25 23.9893L122.9 34.1807C124.911 35.3418 126.15 37.4873 126.15 39.8096V60.1904C126.15 62.5127 124.911 64.6582 122.9 65.8193L105.25 76.0107C103.239 77.1717 100.761 77.1717 98.75 76.0107L81.0996 65.8193C79.0885 64.6582 77.8496 62.5127 77.8496 60.1904V39.8096C77.8496 37.4873 79.0885 35.3418 81.0996 34.1807L98.75 23.9893Z" fill="#F05539" stroke="#F44E30" stroke-width="5"/>
<path d="M73.75 23.9893C75.761 22.8283 78.239 22.8283 80.25 23.9893L97.9004 34.1807C99.9115 35.3418 101.15 37.4873 101.15 39.8096V60.1904C101.15 62.5127 99.9115 64.6582 97.9004 65.8193L80.25 76.0107C78.239 77.1717 75.761 77.1717 73.75 76.0107L56.0996 65.8193C54.0885 64.6582 52.8496 62.5127 52.8496 60.1904V39.8096C52.8496 37.4873 54.0885 35.3418 56.0996 34.1807L73.75 23.9893Z" fill="#F05539" stroke="#F44E30" stroke-width="5"/>
<path d="M48.75 23.9893C50.761 22.8283 53.239 22.8283 55.25 23.9893L72.9004 34.1807C74.9115 35.3418 76.1504 37.4873 76.1504 39.8096V60.1904C76.1504 62.5127 74.9115 64.6582 72.9004 65.8193L55.25 76.0107C53.239 77.1717 50.761 77.1717 48.75 76.0107L31.0996 65.8193C29.0885 64.6582 27.8496 62.5127 27.8496 60.1904V39.8096C27.8496 37.4873 29.0885 35.3418 31.0996 34.1807L48.75 23.9893Z" fill="#F05539" stroke="#F44E30" stroke-width="5"/>
<path d="M23.75 23.9893C25.761 22.8283 28.239 22.8283 30.25 23.9893L47.9004 34.1807C49.9115 35.3418 51.1504 37.4873 51.1504 39.8096V60.1904C51.1504 62.5127 49.9115 64.6582 47.9004 65.8193L30.25 76.0107C28.239 77.1717 25.761 77.1717 23.75 76.0107L6.09961 65.8193C4.0885 64.6582 2.84961 62.5127 2.84961 60.1904V39.8096C2.84961 37.4873 4.0885 35.3418 6.09961 34.1807L23.75 23.9893Z" fill="#F05539" stroke="#F44E30" stroke-width="5"/>
<path d="M82.832 15.32C81.7333 15.32 80.7893 15.1387 80 14.776C79.2107 14.4027 78.5653 13.9173 78.064 13.32C77.5627 12.7227 77.1947 12.072 76.96 11.368C76.7253 10.664 76.608 9.976 76.608 9.304V8.952C76.608 8.22667 76.7307 7.512 76.976 6.808C77.2213 6.09333 77.5893 5.448 78.08 4.872C78.5813 4.296 79.2053 3.83733 79.952 3.496C80.6987 3.144 81.5733 2.968 82.576 2.968C83.6533 2.968 84.6027 3.16533 85.424 3.56C86.256 3.95467 86.9227 4.504 87.424 5.208C87.9253 5.90133 88.2187 6.70667 88.304 7.624H85.328C85.264 7.272 85.1093 6.95733 84.864 6.68C84.6187 6.392 84.2987 6.168 83.904 6.008C83.52 5.83733 83.0773 5.752 82.576 5.752C82.096 5.752 81.6693 5.83733 81.296 6.008C80.9333 6.168 80.624 6.40267 80.368 6.712C80.1227 7.01067 79.936 7.368 79.808 7.784C79.68 8.2 79.616 8.65333 79.616 9.144C79.616 9.63467 79.6853 10.0933 79.824 10.52C79.9627 10.936 80.1653 11.304 80.432 11.624C80.6987 11.9333 81.0347 12.1733 81.44 12.344C81.8453 12.5147 82.3093 12.6 82.832 12.6C83.4933 12.6 84.064 12.4613 84.544 12.184C85.024 11.9067 85.36 11.5387 85.552 11.08L85.328 12.84V10.296H88.048V12.696C87.5573 13.5387 86.8587 14.1893 85.952 14.648C85.056 15.096 84.016 15.32 82.832 15.32ZM82.512 10.872V8.792H89.008V10.872H82.512ZM90.8001 15V6.168H93.7121V15H90.8001ZM89.6801 8.28V6.168H93.7121V8.28H89.6801ZM92.0001 5.464C91.4668 5.464 91.0721 5.33067 90.8161 5.064C90.5708 4.78667 90.4481 4.43467 90.4481 4.008C90.4481 3.58133 90.5708 3.23467 90.8161 2.968C91.0721 2.69067 91.4615 2.552 91.9841 2.552C92.5175 2.552 92.9068 2.69067 93.1521 2.968C93.3975 3.23467 93.5201 3.58133 93.5201 4.008C93.5201 4.43467 93.3975 4.78667 93.1521 5.064C92.9068 5.33067 92.5228 5.464 92.0001 5.464ZM100.061 15.128C99.1009 15.128 98.3329 15.0107 97.7569 14.776C97.1915 14.5413 96.7809 14.152 96.5249 13.608C96.2689 13.064 96.1409 12.328 96.1409 11.4L96.1569 3.864H98.8449L98.8289 11.48C98.8289 11.8747 98.9302 12.1787 99.1329 12.392C99.3462 12.5947 99.6502 12.696 100.045 12.696H101.261V15.128H100.061ZM94.8609 8.28V6.168H101.261V8.28H94.8609Z" fill="white"/>
</svg>
