<svg width="478" height="194" viewBox="0 0 478 194" fill="none" xmlns="http://www.w3.org/2000/svg">
<mask id="mask0_241_4" style="mask-type:alpha" maskUnits="userSpaceOnUse" x="0" y="0" width="478" height="194">
<rect width="478" height="194" fill="#8892BF"/>
</mask>
<g mask="url(#mask0_241_4)">
<rect width="478" height="194" fill="#EE513B"/>
<path d="M31.2543 100.028C29.5819 98.3558 29.5819 95.6442 31.2543 93.9717L56.9717 68.2543C58.6442 66.5819 61.3558 66.5819 63.0283 68.2543L88.7456 93.9717C90.4181 95.6442 90.4181 98.3558 88.7456 100.028L63.0283 125.746C61.3558 127.418 58.6442 127.418 56.9717 125.746L31.2543 100.028Z" fill="white"/>
<path d="M51.7477 73.5604L49.1434 76.1647L55.8697 82.8909C55.5975 83.4747 55.4456 84.1258 55.4456 84.8123C55.4456 86.7614 56.6702 88.4245 58.392 89.074V105.528C56.6702 106.178 55.4456 107.841 55.4456 109.79C55.4456 112.305 57.4843 114.343 59.9992 114.343C62.514 114.343 64.5527 112.305 64.5527 109.79C64.5527 108.023 63.5462 106.491 62.0752 105.736V89.0965L68.5048 95.5262C68.246 96.0981 68.102 96.733 68.102 97.4016C68.102 99.9165 70.1407 101.955 72.6555 101.955C75.1704 101.955 77.2091 99.9165 77.2091 97.4016C77.2091 94.8867 75.1704 92.848 72.6555 92.848C72.1668 92.848 71.6962 92.9249 71.2547 93.0674L64.3494 86.1621C64.4816 85.7357 64.5527 85.2822 64.5527 84.8123C64.5527 82.2974 62.514 80.2587 59.9992 80.2587C59.5292 80.2587 59.076 80.3299 58.6494 80.4621L51.7477 73.5604Z" fill="#EE513B"/>
<path d="M0.0701828 164L112.118 194.023L102.657 229.33L-9.39023 199.307L0.0701828 164Z" fill="#18005B"/>
<path d="M-1.6265 141.518L201.842 196.038L198.308 209.227L-5.1607 154.708L-1.6265 141.518Z" fill="#18005B"/>
<path d="M-2.84124 124.052L257.68 193.858L255.361 202.515L-5.1607 132.708L-2.84124 124.052Z" fill="#18005B"/>
<rect x="149" y="72" width="315" height="50" rx="8" stroke="#EBEBEB" stroke-width="8"/>
<rect x="155" y="78" width="59" height="38" rx="3" fill="white"/>
<rect x="216" y="78" width="59" height="38" rx="3" fill="white"/>
<rect x="277" y="78" width="59" height="38" rx="3" fill="white"/>
<path d="M118.22 181.02H118.04C117.92 181.313 117.773 181.593 117.6 181.86C117.427 182.127 117.213 182.367 116.96 182.58C116.707 182.78 116.407 182.94 116.06 183.06C115.727 183.18 115.347 183.24 114.92 183.24C114.24 183.24 113.633 183.08 113.1 182.76C112.58 182.44 112.14 181.973 111.78 181.36C111.42 180.747 111.147 180 110.96 179.12C110.787 178.24 110.7 177.247 110.7 176.14C110.7 173.767 111.133 171.953 112 170.7C112.867 169.433 114.207 168.8 116.02 168.8C116.74 168.8 117.373 168.9 117.92 169.1C118.467 169.287 118.933 169.56 119.32 169.92C119.72 170.267 120.047 170.687 120.3 171.18C120.553 171.673 120.753 172.22 120.9 172.82L118.1 173.5C118.02 173.207 117.927 172.927 117.82 172.66C117.727 172.38 117.6 172.133 117.44 171.92C117.28 171.707 117.08 171.54 116.84 171.42C116.6 171.287 116.307 171.22 115.96 171.22C115.2 171.22 114.66 171.533 114.34 172.16C114.033 172.787 113.88 173.667 113.88 174.8V177.08C113.88 178.213 114.047 179.12 114.38 179.8C114.727 180.48 115.333 180.82 116.2 180.82C116.88 180.82 117.387 180.62 117.72 180.22C118.053 179.82 118.22 179.307 118.22 178.68V177.66H115.84V175.54H120.9V183H118.22V181.02ZM128.632 171.36C127.966 171.36 127.499 171.227 127.232 170.96C126.979 170.68 126.852 170.347 126.852 169.96V169.38C126.852 168.98 126.979 168.647 127.232 168.38C127.499 168.113 127.966 167.98 128.632 167.98C129.299 167.98 129.759 168.113 130.012 168.38C130.279 168.647 130.412 168.98 130.412 169.38V169.96C130.412 170.347 130.279 170.68 130.012 170.96C129.759 171.227 129.299 171.36 128.632 171.36ZM123.872 180.7H127.152V174.98H123.872V172.68H130.112V180.7H133.152V183H123.872V180.7ZM140.784 183C139.718 183 138.924 182.72 138.404 182.16C137.884 181.6 137.624 180.887 137.624 180.02V174.98H134.824V172.68H136.644C137.084 172.68 137.398 172.593 137.584 172.42C137.771 172.247 137.864 171.927 137.864 171.46V169.04H140.584V172.68H144.604V174.98H140.584V180.7H144.604V183H140.784ZM167.709 183C167.095 183 166.602 182.847 166.229 182.54C165.855 182.22 165.635 181.767 165.569 181.18H165.469C165.282 181.86 164.909 182.373 164.349 182.72C163.802 183.067 163.129 183.24 162.329 183.24C161.329 183.24 160.522 182.973 159.909 182.44C159.309 181.893 159.009 181.133 159.009 180.16C159.009 179.08 159.402 178.28 160.189 177.76C160.975 177.24 162.129 176.98 163.649 176.98H165.309V176.46C165.309 175.847 165.162 175.387 164.869 175.08C164.589 174.76 164.109 174.6 163.429 174.6C162.802 174.6 162.295 174.72 161.909 174.96C161.522 175.2 161.189 175.513 160.909 175.9L159.289 174.46C159.635 173.873 160.175 173.393 160.909 173.02C161.655 172.633 162.609 172.44 163.769 172.44C165.182 172.44 166.282 172.767 167.069 173.42C167.869 174.06 168.269 175.033 168.269 176.34V180.86H169.409V183H167.709ZM163.449 181.3C163.969 181.3 164.409 181.173 164.769 180.92C165.129 180.667 165.309 180.3 165.309 179.82V178.58H163.729C162.515 178.58 161.909 178.987 161.909 179.8V180.2C161.909 180.56 162.049 180.833 162.329 181.02C162.609 181.207 162.982 181.3 163.449 181.3ZM171.261 183V172.68H174.221V174.56H174.341C174.461 174.267 174.608 173.993 174.781 173.74C174.954 173.487 175.161 173.267 175.401 173.08C175.654 172.88 175.941 172.727 176.261 172.62C176.594 172.5 176.968 172.44 177.381 172.44C177.874 172.44 178.328 172.527 178.741 172.7C179.154 172.86 179.508 173.107 179.801 173.44C180.094 173.773 180.321 174.18 180.481 174.66C180.654 175.14 180.741 175.693 180.741 176.32V183H177.781V176.72C177.781 175.387 177.201 174.72 176.041 174.72C175.814 174.72 175.588 174.753 175.361 174.82C175.148 174.873 174.954 174.967 174.781 175.1C174.608 175.22 174.468 175.373 174.361 175.56C174.268 175.747 174.221 175.967 174.221 176.22V183H171.261ZM189.813 181.12H189.673C189.406 181.747 189.033 182.26 188.553 182.66C188.086 183.047 187.44 183.24 186.613 183.24C186.04 183.24 185.513 183.133 185.033 182.92C184.566 182.707 184.16 182.38 183.813 181.94C183.48 181.5 183.213 180.94 183.013 180.26C182.826 179.58 182.733 178.773 182.733 177.84C182.733 176.907 182.826 176.1 183.013 175.42C183.213 174.74 183.48 174.18 183.813 173.74C184.16 173.3 184.566 172.973 185.033 172.76C185.513 172.547 186.04 172.44 186.613 172.44C187.026 172.44 187.393 172.493 187.713 172.6C188.033 172.707 188.313 172.853 188.553 173.04C188.806 173.227 189.02 173.453 189.193 173.72C189.38 173.973 189.54 174.253 189.673 174.56H189.813V168.2H192.773V183H189.813V181.12ZM187.893 180.94C188.413 180.94 188.86 180.813 189.233 180.56C189.62 180.307 189.813 179.907 189.813 179.36V176.32C189.813 175.773 189.62 175.373 189.233 175.12C188.86 174.867 188.413 174.74 187.893 174.74C187.226 174.74 186.713 174.947 186.353 175.36C185.993 175.76 185.813 176.32 185.813 177.04V178.64C185.813 179.36 185.993 179.927 186.353 180.34C186.713 180.74 187.226 180.94 187.893 180.94ZM214.158 181.02H213.978C213.858 181.313 213.711 181.593 213.538 181.86C213.364 182.127 213.151 182.367 212.898 182.58C212.644 182.78 212.344 182.94 211.998 183.06C211.664 183.18 211.284 183.24 210.858 183.24C210.178 183.24 209.571 183.08 209.038 182.76C208.518 182.44 208.078 181.973 207.718 181.36C207.358 180.747 207.084 180 206.898 179.12C206.724 178.24 206.638 177.247 206.638 176.14C206.638 173.767 207.071 171.953 207.938 170.7C208.804 169.433 210.144 168.8 211.958 168.8C212.678 168.8 213.311 168.9 213.858 169.1C214.404 169.287 214.871 169.56 215.258 169.92C215.658 170.267 215.984 170.687 216.238 171.18C216.491 171.673 216.691 172.22 216.838 172.82L214.038 173.5C213.958 173.207 213.864 172.927 213.758 172.66C213.664 172.38 213.538 172.133 213.378 171.92C213.218 171.707 213.018 171.54 212.778 171.42C212.538 171.287 212.244 171.22 211.898 171.22C211.138 171.22 210.598 171.533 210.278 172.16C209.971 172.787 209.818 173.667 209.818 174.8V177.08C209.818 178.213 209.984 179.12 210.318 179.8C210.664 180.48 211.271 180.82 212.138 180.82C212.818 180.82 213.324 180.62 213.658 180.22C213.991 179.82 214.158 179.307 214.158 178.68V177.66H211.778V175.54H216.838V183H214.158V181.02ZM224.57 171.36C223.903 171.36 223.436 171.227 223.17 170.96C222.916 170.68 222.79 170.347 222.79 169.96V169.38C222.79 168.98 222.916 168.647 223.17 168.38C223.436 168.113 223.903 167.98 224.57 167.98C225.236 167.98 225.696 168.113 225.95 168.38C226.216 168.647 226.35 168.98 226.35 169.38V169.96C226.35 170.347 226.216 170.68 225.95 170.96C225.696 171.227 225.236 171.36 224.57 171.36ZM219.81 180.7H223.09V174.98H219.81V172.68H226.05V180.7H229.09V183H219.81V180.7ZM236.722 183C235.655 183 234.862 182.72 234.342 182.16C233.822 181.6 233.562 180.887 233.562 180.02V174.98H230.762V172.68H232.582C233.022 172.68 233.335 172.593 233.522 172.42C233.709 172.247 233.802 171.927 233.802 171.46V169.04H236.522V172.68H240.542V174.98H236.522V180.7H240.542V183H236.722ZM255.746 183V169.04H258.766V180.54H264.766V183H255.746ZM275.638 183C275.025 183 274.532 182.847 274.158 182.54C273.785 182.22 273.565 181.767 273.498 181.18H273.398C273.212 181.86 272.838 182.373 272.278 182.72C271.732 183.067 271.058 183.24 270.258 183.24C269.258 183.24 268.452 182.973 267.838 182.44C267.238 181.893 266.938 181.133 266.938 180.16C266.938 179.08 267.332 178.28 268.118 177.76C268.905 177.24 270.058 176.98 271.578 176.98H273.238V176.46C273.238 175.847 273.092 175.387 272.798 175.08C272.518 174.76 272.038 174.6 271.358 174.6C270.732 174.6 270.225 174.72 269.838 174.96C269.452 175.2 269.118 175.513 268.838 175.9L267.218 174.46C267.565 173.873 268.105 173.393 268.838 173.02C269.585 172.633 270.538 172.44 271.698 172.44C273.112 172.44 274.212 172.767 274.998 173.42C275.798 174.06 276.198 175.033 276.198 176.34V180.86H277.338V183H275.638ZM271.378 181.3C271.898 181.3 272.338 181.173 272.698 180.92C273.058 180.667 273.238 180.3 273.238 179.82V178.58H271.658C270.445 178.58 269.838 178.987 269.838 179.8V180.2C269.838 180.56 269.978 180.833 270.258 181.02C270.538 181.207 270.912 181.3 271.378 181.3ZM279.371 180.7H281.751V174.98H279.371V172.68H284.711V175.6H284.851C284.944 175.227 285.071 174.867 285.231 174.52C285.404 174.16 285.617 173.847 285.871 173.58C286.137 173.3 286.457 173.08 286.831 172.92C287.204 172.76 287.644 172.68 288.151 172.68H289.131V175.4H286.931C286.197 175.4 285.644 175.62 285.271 176.06C284.897 176.487 284.711 177.013 284.711 177.64V180.7H288.111V183H279.371V180.7ZM301.543 184.04C301.543 185.133 301.083 185.94 300.163 186.46C299.243 186.98 297.796 187.24 295.823 187.24C294.836 187.24 294.023 187.18 293.383 187.06C292.743 186.953 292.229 186.793 291.843 186.58C291.469 186.367 291.203 186.113 291.043 185.82C290.896 185.527 290.823 185.207 290.823 184.86C290.823 184.273 290.996 183.827 291.343 183.52C291.689 183.227 292.176 183 292.803 182.84V182.72C292.363 182.587 292.009 182.4 291.743 182.16C291.489 181.907 291.363 181.553 291.363 181.1C291.363 180.593 291.529 180.22 291.863 179.98C292.209 179.74 292.663 179.553 293.223 179.42V179.3C292.609 179.007 292.129 178.593 291.783 178.06C291.449 177.527 291.283 176.88 291.283 176.12C291.283 175.52 291.389 174.993 291.603 174.54C291.816 174.073 292.116 173.687 292.503 173.38C292.903 173.073 293.376 172.84 293.923 172.68C294.469 172.52 295.083 172.44 295.763 172.44C296.416 172.44 297.023 172.513 297.583 172.66V172.1C297.583 171.7 297.723 171.367 298.003 171.1C298.283 170.833 298.669 170.7 299.163 170.7H300.983V172.86H298.503V173.04C299.063 173.333 299.496 173.74 299.803 174.26C300.123 174.767 300.283 175.387 300.283 176.12C300.283 176.72 300.176 177.247 299.963 177.7C299.749 178.153 299.443 178.54 299.043 178.86C298.643 179.167 298.163 179.4 297.603 179.56C297.056 179.72 296.443 179.8 295.763 179.8C295.456 179.8 295.163 179.787 294.883 179.76C294.603 179.72 294.336 179.667 294.083 179.6C293.936 179.68 293.809 179.78 293.703 179.9C293.609 180.02 293.563 180.173 293.563 180.36C293.563 180.52 293.603 180.647 293.683 180.74C293.763 180.833 293.869 180.907 294.003 180.96C294.149 181 294.316 181.027 294.503 181.04C294.689 181.053 294.883 181.06 295.083 181.06H297.443C298.176 181.06 298.803 181.133 299.323 181.28C299.843 181.427 300.269 181.633 300.603 181.9C300.936 182.167 301.176 182.48 301.323 182.84C301.469 183.2 301.543 183.6 301.543 184.04ZM298.743 184.26C298.743 183.993 298.636 183.78 298.423 183.62C298.209 183.473 297.803 183.4 297.203 183.4H293.663C293.396 183.627 293.263 183.907 293.263 184.24C293.263 184.56 293.396 184.82 293.663 185.02C293.943 185.233 294.409 185.34 295.063 185.34H296.803C297.483 185.34 297.976 185.247 298.283 185.06C298.589 184.873 298.743 184.607 298.743 184.26ZM295.763 177.92C296.363 177.92 296.796 177.773 297.063 177.48C297.343 177.187 297.483 176.813 297.483 176.36V175.88C297.483 175.427 297.343 175.053 297.063 174.76C296.796 174.467 296.363 174.32 295.763 174.32C295.176 174.32 294.749 174.467 294.483 174.76C294.216 175.053 294.083 175.427 294.083 175.88V176.36C294.083 176.813 294.216 177.187 294.483 177.48C294.749 177.773 295.176 177.92 295.763 177.92ZM308.155 183.24C306.422 183.24 305.108 182.76 304.215 181.8C303.322 180.84 302.875 179.533 302.875 177.88C302.875 177.04 302.988 176.287 303.215 175.62C303.455 174.94 303.788 174.367 304.215 173.9C304.655 173.42 305.182 173.06 305.795 172.82C306.422 172.567 307.122 172.44 307.895 172.44C308.668 172.44 309.362 172.567 309.975 172.82C310.588 173.06 311.108 173.407 311.535 173.86C311.962 174.313 312.288 174.867 312.515 175.52C312.755 176.16 312.875 176.88 312.875 177.68V178.56H305.815V178.74C305.815 179.407 306.022 179.947 306.435 180.36C306.848 180.76 307.455 180.96 308.255 180.96C308.868 180.96 309.395 180.847 309.835 180.62C310.275 180.38 310.655 180.067 310.975 179.68L312.575 181.42C312.175 181.913 311.615 182.34 310.895 182.7C310.175 183.06 309.262 183.24 308.155 183.24ZM307.915 174.56C307.275 174.56 306.762 174.76 306.375 175.16C306.002 175.547 305.815 176.073 305.815 176.74V176.9H309.975V176.74C309.975 176.06 309.788 175.527 309.415 175.14C309.055 174.753 308.555 174.56 307.915 174.56ZM327.459 183V169.04H336.719V171.5H330.459V174.7H336.059V177.16H330.459V183H327.459ZM344.492 171.36C343.825 171.36 343.358 171.227 343.092 170.96C342.838 170.68 342.712 170.347 342.712 169.96V169.38C342.712 168.98 342.838 168.647 343.092 168.38C343.358 168.113 343.825 167.98 344.492 167.98C345.158 167.98 345.618 168.113 345.872 168.38C346.138 168.647 346.272 168.98 346.272 169.38V169.96C346.272 170.347 346.138 170.68 345.872 170.96C345.618 171.227 345.158 171.36 344.492 171.36ZM339.732 180.7H343.012V174.98H339.732V172.68H345.972V180.7H349.012V183H339.732V180.7ZM351.204 180.7H354.364V170.5H351.204V168.2H357.324V180.7H360.484V183H351.204V180.7ZM368.116 183.24C366.383 183.24 365.069 182.76 364.176 181.8C363.283 180.84 362.836 179.533 362.836 177.88C362.836 177.04 362.949 176.287 363.176 175.62C363.416 174.94 363.749 174.367 364.176 173.9C364.616 173.42 365.143 173.06 365.756 172.82C366.383 172.567 367.083 172.44 367.856 172.44C368.629 172.44 369.323 172.567 369.936 172.82C370.549 173.06 371.069 173.407 371.496 173.86C371.923 174.313 372.249 174.867 372.476 175.52C372.716 176.16 372.836 176.88 372.836 177.68V178.56H365.776V178.74C365.776 179.407 365.983 179.947 366.396 180.36C366.809 180.76 367.416 180.96 368.216 180.96C368.829 180.96 369.356 180.847 369.796 180.62C370.236 180.38 370.616 180.067 370.936 179.68L372.536 181.42C372.136 181.913 371.576 182.34 370.856 182.7C370.136 183.06 369.223 183.24 368.116 183.24ZM367.876 174.56C367.236 174.56 366.723 174.76 366.336 175.16C365.963 175.547 365.776 176.073 365.776 176.74V176.9H369.936V176.74C369.936 176.06 369.749 175.527 369.376 175.14C369.016 174.753 368.516 174.56 367.876 174.56ZM391.6 183.24C390.427 183.24 389.407 183.047 388.54 182.66C387.674 182.273 386.974 181.747 386.44 181.08L388.18 179.16C388.687 179.72 389.24 180.133 389.84 180.4C390.454 180.667 391.074 180.8 391.7 180.8C392.42 180.8 392.967 180.64 393.34 180.32C393.714 180 393.9 179.54 393.9 178.94C393.9 178.447 393.754 178.073 393.46 177.82C393.18 177.567 392.7 177.387 392.02 177.28L390.56 177.04C389.307 176.827 388.4 176.367 387.84 175.66C387.28 174.94 387 174.067 387 173.04C387 171.693 387.44 170.653 388.32 169.92C389.2 169.173 390.434 168.8 392.02 168.8C393.1 168.8 394.04 168.967 394.84 169.3C395.64 169.633 396.287 170.087 396.78 170.66L395.08 172.56C394.707 172.147 394.267 171.827 393.76 171.6C393.254 171.36 392.68 171.24 392.04 171.24C390.694 171.24 390.02 171.793 390.02 172.9C390.02 173.38 390.167 173.74 390.46 173.98C390.767 174.22 391.26 174.4 391.94 174.52L393.4 174.78C394.534 174.98 395.407 175.407 396.02 176.06C396.634 176.713 396.94 177.593 396.94 178.7C396.94 179.353 396.827 179.96 396.6 180.52C396.374 181.067 396.034 181.547 395.58 181.96C395.127 182.36 394.567 182.673 393.9 182.9C393.247 183.127 392.48 183.24 391.6 183.24ZM404.613 183C403.546 183 402.753 182.72 402.233 182.16C401.713 181.6 401.453 180.887 401.453 180.02V174.98H398.653V172.68H400.473C400.913 172.68 401.226 172.593 401.413 172.42C401.599 172.247 401.693 171.927 401.693 171.46V169.04H404.413V172.68H408.433V174.98H404.413V180.7H408.433V183H404.613ZM415.805 183.24C415.005 183.24 414.285 183.12 413.645 182.88C413.005 182.627 412.458 182.267 412.005 181.8C411.565 181.333 411.225 180.767 410.985 180.1C410.745 179.433 410.625 178.68 410.625 177.84C410.625 177 410.745 176.247 410.985 175.58C411.225 174.913 411.565 174.347 412.005 173.88C412.458 173.413 413.005 173.06 413.645 172.82C414.285 172.567 415.005 172.44 415.805 172.44C416.605 172.44 417.325 172.567 417.965 172.82C418.605 173.06 419.145 173.413 419.585 173.88C420.038 174.347 420.385 174.913 420.625 175.58C420.865 176.247 420.985 177 420.985 177.84C420.985 178.68 420.865 179.433 420.625 180.1C420.385 180.767 420.038 181.333 419.585 181.8C419.145 182.267 418.605 182.627 417.965 182.88C417.325 183.12 416.605 183.24 415.805 183.24ZM415.805 181.04C416.471 181.04 416.991 180.833 417.365 180.42C417.738 180.007 417.925 179.42 417.925 178.66V177.02C417.925 176.26 417.738 175.673 417.365 175.26C416.991 174.847 416.471 174.64 415.805 174.64C415.138 174.64 414.618 174.847 414.245 175.26C413.871 175.673 413.685 176.26 413.685 177.02V178.66C413.685 179.42 413.871 180.007 414.245 180.42C414.618 180.833 415.138 181.04 415.805 181.04ZM423.277 180.7H425.657V174.98H423.277V172.68H428.617V175.6H428.757C428.85 175.227 428.977 174.867 429.137 174.52C429.31 174.16 429.524 173.847 429.777 173.58C430.044 173.3 430.364 173.08 430.737 172.92C431.11 172.76 431.55 172.68 432.057 172.68H433.037V175.4H430.837C430.104 175.4 429.55 175.62 429.177 176.06C428.804 176.487 428.617 177.013 428.617 177.64V180.7H432.017V183H423.277V180.7ZM443.529 183C442.916 183 442.422 182.847 442.049 182.54C441.676 182.22 441.456 181.767 441.389 181.18H441.289C441.102 181.86 440.729 182.373 440.169 182.72C439.622 183.067 438.949 183.24 438.149 183.24C437.149 183.24 436.342 182.973 435.729 182.44C435.129 181.893 434.829 181.133 434.829 180.16C434.829 179.08 435.222 178.28 436.009 177.76C436.796 177.24 437.949 176.98 439.469 176.98H441.129V176.46C441.129 175.847 440.982 175.387 440.689 175.08C440.409 174.76 439.929 174.6 439.249 174.6C438.622 174.6 438.116 174.72 437.729 174.96C437.342 175.2 437.009 175.513 436.729 175.9L435.109 174.46C435.456 173.873 435.996 173.393 436.729 173.02C437.476 172.633 438.429 172.44 439.589 172.44C441.002 172.44 442.102 172.767 442.889 173.42C443.689 174.06 444.089 175.033 444.089 176.34V180.86H445.229V183H443.529ZM439.269 181.3C439.789 181.3 440.229 181.173 440.589 180.92C440.949 180.667 441.129 180.3 441.129 179.82V178.58H439.549C438.336 178.58 437.729 178.987 437.729 179.8V180.2C437.729 180.56 437.869 180.833 438.149 181.02C438.429 181.207 438.802 181.3 439.269 181.3ZM457.441 184.04C457.441 185.133 456.981 185.94 456.061 186.46C455.141 186.98 453.695 187.24 451.721 187.24C450.735 187.24 449.921 187.18 449.281 187.06C448.641 186.953 448.128 186.793 447.741 186.58C447.368 186.367 447.101 186.113 446.941 185.82C446.795 185.527 446.721 185.207 446.721 184.86C446.721 184.273 446.895 183.827 447.241 183.52C447.588 183.227 448.075 183 448.701 182.84V182.72C448.261 182.587 447.908 182.4 447.641 182.16C447.388 181.907 447.261 181.553 447.261 181.1C447.261 180.593 447.428 180.22 447.761 179.98C448.108 179.74 448.561 179.553 449.121 179.42V179.3C448.508 179.007 448.028 178.593 447.681 178.06C447.348 177.527 447.181 176.88 447.181 176.12C447.181 175.52 447.288 174.993 447.501 174.54C447.715 174.073 448.015 173.687 448.401 173.38C448.801 173.073 449.275 172.84 449.821 172.68C450.368 172.52 450.981 172.44 451.661 172.44C452.315 172.44 452.921 172.513 453.481 172.66V172.1C453.481 171.7 453.621 171.367 453.901 171.1C454.181 170.833 454.568 170.7 455.061 170.7H456.881V172.86H454.401V173.04C454.961 173.333 455.395 173.74 455.701 174.26C456.021 174.767 456.181 175.387 456.181 176.12C456.181 176.72 456.075 177.247 455.861 177.7C455.648 178.153 455.341 178.54 454.941 178.86C454.541 179.167 454.061 179.4 453.501 179.56C452.955 179.72 452.341 179.8 451.661 179.8C451.355 179.8 451.061 179.787 450.781 179.76C450.501 179.72 450.235 179.667 449.981 179.6C449.835 179.68 449.708 179.78 449.601 179.9C449.508 180.02 449.461 180.173 449.461 180.36C449.461 180.52 449.501 180.647 449.581 180.74C449.661 180.833 449.768 180.907 449.901 180.96C450.048 181 450.215 181.027 450.401 181.04C450.588 181.053 450.781 181.06 450.981 181.06H453.341C454.075 181.06 454.701 181.133 455.221 181.28C455.741 181.427 456.168 181.633 456.501 181.9C456.835 182.167 457.075 182.48 457.221 182.84C457.368 183.2 457.441 183.6 457.441 184.04ZM454.641 184.26C454.641 183.993 454.535 183.78 454.321 183.62C454.108 183.473 453.701 183.4 453.101 183.4H449.561C449.295 183.627 449.161 183.907 449.161 184.24C449.161 184.56 449.295 184.82 449.561 185.02C449.841 185.233 450.308 185.34 450.961 185.34H452.701C453.381 185.34 453.875 185.247 454.181 185.06C454.488 184.873 454.641 184.607 454.641 184.26ZM451.661 177.92C452.261 177.92 452.695 177.773 452.961 177.48C453.241 177.187 453.381 176.813 453.381 176.36V175.88C453.381 175.427 453.241 175.053 452.961 174.76C452.695 174.467 452.261 174.32 451.661 174.32C451.075 174.32 450.648 174.467 450.381 174.76C450.115 175.053 449.981 175.427 449.981 175.88V176.36C449.981 176.813 450.115 177.187 450.381 177.48C450.648 177.773 451.075 177.92 451.661 177.92ZM464.053 183.24C462.32 183.24 461.007 182.76 460.113 181.8C459.22 180.84 458.773 179.533 458.773 177.88C458.773 177.04 458.887 176.287 459.113 175.62C459.353 174.94 459.687 174.367 460.113 173.9C460.553 173.42 461.08 173.06 461.693 172.82C462.32 172.567 463.02 172.44 463.793 172.44C464.567 172.44 465.26 172.567 465.873 172.82C466.487 173.06 467.007 173.407 467.433 173.86C467.86 174.313 468.187 174.867 468.413 175.52C468.653 176.16 468.773 176.88 468.773 177.68V178.56H461.713V178.74C461.713 179.407 461.92 179.947 462.333 180.36C462.747 180.76 463.353 180.96 464.153 180.96C464.767 180.96 465.293 180.847 465.733 180.62C466.173 180.38 466.553 180.067 466.873 179.68L468.473 181.42C468.073 181.913 467.513 182.34 466.793 182.7C466.073 183.06 465.16 183.24 464.053 183.24ZM463.813 174.56C463.173 174.56 462.66 174.76 462.273 175.16C461.9 175.547 461.713 176.073 461.713 176.74V176.9H465.873V176.74C465.873 176.06 465.687 175.527 465.313 175.14C464.953 174.753 464.453 174.56 463.813 174.56Z" fill="white"/>
</g>
</svg>
