<svg width="780" height="180" viewBox="0 0 780 180" fill="none" xmlns="http://www.w3.org/2000/svg">
<mask id="mask0_55_230" style="mask-type:alpha" maskUnits="userSpaceOnUse" x="0" y="0" width="781" height="180">
<rect width="780.004" height="180" fill="#2C2C2C"/>
</mask>
<g mask="url(#mask0_55_230)">
<rect width="780.004" height="180" fill="#2C2C2C"/>
<rect x="0.0020752" width="141.901" height="180" fill="#B153D7"/>
<rect x="0.0020752" y="142.123" width="780.002" height="37.8774" fill="#B153D7"/>
<rect x="268.829" y="-142.923" width="141.901" height="329.402" transform="rotate(45 268.829 -142.923)" fill="#B153D7"/>
<path d="M221.658 136.06C212.869 136.06 205.317 134.609 199.002 131.708C192.687 128.721 187.525 124.839 183.514 120.06C179.503 115.281 176.559 110.076 174.682 104.444C172.805 98.812 171.866 93.308 171.866 87.932V85.116C171.866 79.3133 172.847 73.596 174.81 67.964C176.773 62.2467 179.717 57.084 183.642 52.476C187.653 47.868 192.645 44.1987 198.618 41.468C204.591 38.652 211.589 37.244 219.61 37.244C228.229 37.244 235.823 38.8227 242.394 41.98C249.05 45.1373 254.383 49.532 258.394 55.164C262.405 60.7107 264.751 67.1533 265.434 74.492H241.626C241.114 71.676 239.877 69.1587 237.914 66.94C235.951 64.636 233.391 62.844 230.234 61.564C227.162 60.1987 223.621 59.516 219.61 59.516C215.77 59.516 212.357 60.1987 209.37 61.564C206.469 62.844 203.994 64.7213 201.946 67.196C199.983 69.5853 198.49 72.444 197.466 75.772C196.442 79.1 195.93 82.7267 195.93 86.652C195.93 90.5773 196.485 94.2467 197.594 97.66C198.703 100.988 200.325 103.932 202.458 106.492C204.591 108.967 207.279 110.887 210.522 112.252C213.765 113.617 217.477 114.3 221.658 114.3C226.949 114.3 231.514 113.191 235.354 110.972C239.194 108.753 241.882 105.809 243.418 102.14L241.626 116.22V95.868H263.386V115.068C259.461 121.809 253.871 127.015 246.618 130.684C239.45 134.268 231.13 136.06 221.658 136.06ZM219.098 100.476V83.836H271.066V100.476H219.098ZM285.403 133.5V62.844H308.699V133.5H285.403ZM276.443 79.74V62.844H308.699V79.74H276.443ZM295.003 57.212C290.736 57.212 287.579 56.1453 285.531 54.012C283.568 51.7933 282.587 48.9773 282.587 45.564C282.587 42.1507 283.568 39.3773 285.531 37.244C287.579 35.0253 290.694 33.916 294.875 33.916C299.142 33.916 302.256 35.0253 304.219 37.244C306.182 39.3773 307.163 42.1507 307.163 45.564C307.163 48.9773 306.182 51.7933 304.219 54.012C302.256 56.1453 299.184 57.212 295.003 57.212ZM359.489 134.524C351.809 134.524 345.665 133.585 341.057 131.708C336.534 129.831 333.249 126.716 331.201 122.364C329.153 118.012 328.129 112.124 328.129 104.7L328.257 44.412H349.761L349.633 105.34C349.633 108.497 350.444 110.929 352.065 112.636C353.772 114.257 356.204 115.068 359.361 115.068H369.089V134.524H359.489ZM317.889 79.74V62.844H369.089V79.74H317.889ZM382.599 133.5V40.06H406.407V133.5H382.599ZM403.847 133.5V112.764H441.735V133.5H403.847ZM496.202 133.5V112.764H492.362V90.62C492.362 87.3773 491.594 84.988 490.058 83.452C488.607 81.8307 486.175 81.02 482.762 81.02C481.141 81.02 478.751 81.0627 475.594 81.148C472.437 81.2333 469.109 81.3613 465.61 81.532C462.111 81.7027 458.911 81.8733 456.01 82.044V62.588C458.058 62.4173 460.49 62.2467 463.306 62.076C466.122 61.9053 469.023 61.7773 472.01 61.692C475.082 61.6067 477.898 61.564 480.458 61.564C487.711 61.564 493.855 62.6307 498.89 64.764C504.01 66.8973 507.893 70.0973 510.538 74.364C513.269 78.6307 514.634 84.0493 514.634 90.62V133.5H496.202ZM473.802 135.292C468.853 135.292 464.458 134.396 460.618 132.604C456.778 130.812 453.749 128.252 451.53 124.924C449.397 121.511 448.33 117.457 448.33 112.764C448.33 107.473 449.738 103.207 452.554 99.964C455.37 96.636 459.253 94.204 464.202 92.668C469.151 91.132 474.826 90.364 481.226 90.364H494.922V102.396H481.226C478.069 102.396 475.637 103.207 473.93 104.828C472.223 106.364 471.37 108.455 471.37 111.1C471.37 113.66 472.223 115.751 473.93 117.372C475.637 118.908 478.069 119.676 481.226 119.676C483.274 119.676 485.066 119.335 486.602 118.652C488.223 117.884 489.546 116.604 490.57 114.812C491.594 113.02 492.191 110.545 492.362 107.388L497.738 112.508C497.311 117.372 496.117 121.511 494.154 124.924C492.277 128.252 489.631 130.812 486.218 132.604C482.89 134.396 478.751 135.292 473.802 135.292ZM575.768 135.804C569.965 135.804 564.888 134.609 560.536 132.22C556.269 129.831 552.899 126.332 550.424 121.724C548.035 117.116 546.755 111.484 546.584 104.828H548.632V133.5H530.2V40.06H553.496V88.188L548.376 93.308C548.632 86.396 549.955 80.508 552.344 75.644C554.733 70.78 558.019 67.1107 562.2 64.636C566.467 62.076 571.373 60.796 576.92 60.796C581.699 60.796 586.008 61.692 589.848 63.484C593.688 65.1907 596.931 67.6653 599.576 70.908C602.307 74.0653 604.397 77.82 605.848 82.172C607.299 86.524 608.024 91.3027 608.024 96.508V99.58C608.024 104.785 607.299 109.607 605.848 114.044C604.397 118.396 602.264 122.236 599.448 125.564C596.632 128.807 593.219 131.324 589.208 133.116C585.283 134.908 580.803 135.804 575.768 135.804ZM569.112 116.604C572.184 116.604 574.872 115.836 577.176 114.3C579.565 112.679 581.4 110.46 582.68 107.644C584.045 104.828 584.728 101.628 584.728 98.044C584.728 94.3747 584.045 91.2173 582.68 88.572C581.4 85.8413 579.608 83.7507 577.304 82.3C575 80.764 572.269 79.996 569.112 79.996C566.296 79.996 563.651 80.636 561.176 81.916C558.787 83.196 556.824 85.0733 555.288 87.548C553.752 90.0227 552.984 93.0093 552.984 96.508V100.86C552.984 104.188 553.795 107.047 555.416 109.436C557.037 111.74 559.085 113.532 561.56 114.812C564.035 116.007 566.552 116.604 569.112 116.604Z" fill="white"/>
</g>
</svg>
