<svg width="93" height="30" viewBox="0 0 93 30" fill="none" xmlns="http://www.w3.org/2000/svg">
<rect x="1" y="1" width="91" height="28" rx="9" fill="#FCA326" fill-opacity="0.4" stroke="#FCA326" stroke-width="2"/>
<path d="M36.832 22.1771C35.7333 22.1771 34.7893 21.9958 34 21.6331C33.2107 21.2598 32.5653 20.7745 32.064 20.1771C31.5627 19.5798 31.1947 18.9291 30.96 18.2251C30.7253 17.5211 30.608 16.8331 30.608 16.1611V15.8091C30.608 15.0838 30.7307 14.3691 30.976 13.6651C31.2213 12.9505 31.5893 12.3051 32.08 11.7291C32.5813 11.1531 33.2053 10.6945 33.952 10.3531C34.6987 10.0011 35.5733 9.82515 36.576 9.82515C37.6533 9.82515 38.6027 10.0225 39.424 10.4171C40.256 10.8118 40.9227 11.3611 41.424 12.0651C41.9253 12.7585 42.2187 13.5638 42.304 14.4811H39.328C39.264 14.1291 39.1093 13.8145 38.864 13.5371C38.6187 13.2491 38.2987 13.0251 37.904 12.8651C37.52 12.6945 37.0773 12.6091 36.576 12.6091C36.096 12.6091 35.6693 12.6945 35.296 12.8651C34.9333 13.0251 34.624 13.2598 34.368 13.5691C34.1227 13.8678 33.936 14.2251 33.808 14.6411C33.68 15.0571 33.616 15.5105 33.616 16.0011C33.616 16.4918 33.6853 16.9505 33.824 17.3771C33.9627 17.7931 34.1653 18.1611 34.432 18.4811C34.6987 18.7905 35.0347 19.0305 35.44 19.2011C35.8453 19.3718 36.3093 19.4571 36.832 19.4571C37.4933 19.4571 38.064 19.3185 38.544 19.0411C39.024 18.7638 39.36 18.3958 39.552 17.9371L39.328 19.6971V17.1531H42.048V19.5531C41.5573 20.3958 40.8587 21.0465 39.952 21.5051C39.056 21.9531 38.016 22.1771 36.832 22.1771ZM36.512 17.7291V15.6491H43.008V17.7291H36.512ZM44.8001 21.8571V13.0251H47.7121V21.8571H44.8001ZM43.6801 15.1371V13.0251H47.7121V15.1371H43.6801ZM46.0001 12.3211C45.4668 12.3211 45.0721 12.1878 44.8161 11.9211C44.5708 11.6438 44.4481 11.2918 44.4481 10.8651C44.4481 10.4385 44.5708 10.0918 44.8161 9.82515C45.0721 9.54781 45.4615 9.40915 45.9841 9.40915C46.5175 9.40915 46.9068 9.54781 47.1521 9.82515C47.3975 10.0918 47.5201 10.4385 47.5201 10.8651C47.5201 11.2918 47.3975 11.6438 47.1521 11.9211C46.9068 12.1878 46.5228 12.3211 46.0001 12.3211ZM54.0609 21.9851C53.1009 21.9851 52.3329 21.8678 51.7569 21.6331C51.1915 21.3985 50.7809 21.0091 50.5249 20.4651C50.2689 19.9211 50.1409 19.1851 50.1409 18.2571L50.1569 10.7211H52.8449L52.8289 18.3371C52.8289 18.7318 52.9302 19.0358 53.1329 19.2491C53.3462 19.4518 53.6502 19.5531 54.0449 19.5531H55.2609V21.9851H54.0609ZM48.8609 15.1371V13.0251H55.2609V15.1371H48.8609ZM56.9496 21.8571V10.1771H59.9256V21.8571H56.9496ZM59.6056 21.8571V19.2651H64.3416V21.8571H59.6056ZM71.15 21.8571V19.2651H70.67V16.4971C70.67 16.0918 70.574 15.7931 70.382 15.6011C70.2007 15.3985 69.8967 15.2971 69.47 15.2971C69.2673 15.2971 68.9687 15.3025 68.574 15.3131C68.1793 15.3238 67.7633 15.3398 67.326 15.3611C66.8887 15.3825 66.4887 15.4038 66.126 15.4251V12.9931C66.382 12.9718 66.686 12.9505 67.038 12.9291C67.39 12.9078 67.7527 12.8918 68.126 12.8811C68.51 12.8705 68.862 12.8651 69.182 12.8651C70.0887 12.8651 70.8567 12.9985 71.486 13.2651C72.126 13.5318 72.6113 13.9318 72.942 14.4651C73.2833 14.9985 73.454 15.6758 73.454 16.4971V21.8571H71.15ZM68.35 22.0811C67.7313 22.0811 67.182 21.9691 66.702 21.7451C66.222 21.5211 65.8433 21.2011 65.566 20.7851C65.2993 20.3585 65.166 19.8518 65.166 19.2651C65.166 18.6038 65.342 18.0705 65.694 17.6651C66.046 17.2491 66.5313 16.9451 67.15 16.7531C67.7687 16.5611 68.478 16.4651 69.278 16.4651H70.99V17.9691H69.278C68.8833 17.9691 68.5793 18.0705 68.366 18.2731C68.1527 18.4651 68.046 18.7265 68.046 19.0571C68.046 19.3771 68.1527 19.6385 68.366 19.8411C68.5793 20.0331 68.8833 20.1291 69.278 20.1291C69.534 20.1291 69.758 20.0865 69.95 20.0011C70.1527 19.9051 70.318 19.7451 70.446 19.5211C70.574 19.2971 70.6487 18.9878 70.67 18.5931L71.342 19.2331C71.2887 19.8411 71.1393 20.3585 70.894 20.7851C70.6593 21.2011 70.3287 21.5211 69.902 21.7451C69.486 21.9691 68.9687 22.0811 68.35 22.0811ZM81.0958 22.1451C80.3704 22.1451 79.7358 21.9958 79.1918 21.6971C78.6584 21.3985 78.2371 20.9611 77.9278 20.3851C77.6291 19.8091 77.4691 19.1051 77.4478 18.2731H77.7038V21.8571H75.3997V10.1771H78.3118V16.1931L77.6718 16.8331C77.7038 15.9691 77.8691 15.2331 78.1678 14.6251C78.4664 14.0171 78.8771 13.5585 79.3998 13.2491C79.9331 12.9291 80.5464 12.7691 81.2398 12.7691C81.8371 12.7691 82.3758 12.8811 82.8558 13.1051C83.3358 13.3185 83.7411 13.6278 84.0718 14.0331C84.4131 14.4278 84.6744 14.8971 84.8558 15.4411C85.0371 15.9851 85.1278 16.5825 85.1278 17.2331V17.6171C85.1278 18.2678 85.0371 18.8705 84.8558 19.4251C84.6744 19.9691 84.4078 20.4491 84.0558 20.8651C83.7038 21.2705 83.2771 21.5851 82.7758 21.8091C82.2851 22.0331 81.7251 22.1451 81.0958 22.1451ZM80.2638 19.7451C80.6478 19.7451 80.9838 19.6491 81.2718 19.4571C81.5704 19.2545 81.7998 18.9771 81.9598 18.6251C82.1304 18.2731 82.2158 17.8731 82.2158 17.4251C82.2158 16.9665 82.1304 16.5718 81.9598 16.2411C81.7998 15.8998 81.5758 15.6385 81.2878 15.4571C80.9998 15.2651 80.6584 15.1691 80.2638 15.1691C79.9118 15.1691 79.5811 15.2491 79.2718 15.4091C78.9731 15.5691 78.7278 15.8038 78.5358 16.1131C78.3438 16.4225 78.2478 16.7958 78.2478 17.2331V17.7771C78.2478 18.1931 78.3491 18.5505 78.5518 18.8491C78.7544 19.1371 79.0104 19.3611 79.3198 19.5211C79.6291 19.6705 79.9438 19.7451 80.2638 19.7451Z" fill="white"/>
<path d="M14 7.51451C14.6188 7.15725 15.3812 7.15725 16 7.51451L20.9084 10.3484C21.5272 10.7056 21.9084 11.3659 21.9084 12.0804V17.7481C21.9084 18.4627 21.5272 19.1229 20.9084 19.4802L16 22.314C15.3812 22.6713 14.6188 22.6713 14 22.314L9.09162 19.4802C8.47282 19.1229 8.09162 18.4627 8.09162 17.7481V12.0804C8.09162 11.3659 8.47282 10.7056 9.09162 10.3484L14 7.51451Z" fill="#FCA326"/>
</svg>
