<svg width="268" height="60" viewBox="0 0 268 60" fill="none" xmlns="http://www.w3.org/2000/svg">
<rect width="268" height="60" fill="#FF9E15"/>
<rect width="60" height="60" fill="#FCA326"/>
<path d="M84.8031 14H114.203V21.08H96.5231V33.4C96.5231 33.88 96.6165 34.3333 96.8031 34.76C96.9898 35.1867 97.2431 35.56 97.5631 35.88C97.8831 36.2 98.2565 36.4533 98.6831 36.64C99.1365 36.8267 99.6031 36.92 100.083 36.92H107.123V32.16H101.083V25.08H114.203V49.8H107.123V44H100.083C98.6165 44 97.2298 43.72 95.9231 43.16C94.6431 42.6 93.5231 41.84 92.5631 40.88C91.6031 39.92 90.8431 38.8 90.2831 37.52C89.7231 36.24 89.4431 34.8667 89.4431 33.4V21.08H84.8031V14ZM117.42 14H131.94V21.08H128.22V36.92H131.94V44H117.42V36.92H121.14V21.08H117.42V14ZM133.944 14H159.264V21.08H150.144V44H143.064V21.08H133.944V14ZM169.539 36.88C171.353 36.7467 173.006 36.44 174.499 35.96C175.993 35.48 177.273 34.9867 178.339 34.48C179.406 33.9467 180.233 33.4667 180.819 33.04C181.433 32.6133 181.739 32.4 181.739 32.4L186.219 37.88C186.166 37.9067 185.926 38.08 185.499 38.4C185.073 38.72 184.473 39.1067 183.699 39.56C182.953 40.0133 182.033 40.5067 180.939 41.04C179.873 41.5467 178.659 42.0267 177.299 42.48C175.966 42.9067 174.499 43.2667 172.899 43.56C171.326 43.8533 169.646 44 167.859 44H162.459V14H169.539V36.88ZM187.03 14H213.83V44H206.79V33.48H198.55C198.47 35 198.11 36.44 197.47 37.8C196.856 39.1333 196.03 40.2933 194.99 41.28C193.95 42.2667 192.75 43.0533 191.39 43.64C190.03 44.2 188.576 44.48 187.03 44.48V37.4C187.59 37.4 188.123 37.3067 188.63 37.12C189.136 36.9067 189.59 36.6267 189.99 36.28C190.39 35.9067 190.71 35.4933 190.95 35.04C191.216 34.56 191.376 34.04 191.43 33.48H187.03V27.12H191.47V21.08H187.03V14ZM206.79 21.08H198.55V27.12H206.79V21.08ZM243.939 17.52C243.939 18.24 243.899 19.0133 243.819 19.84C243.739 20.64 243.579 21.4667 243.339 22.32C243.099 23.1467 242.752 23.9733 242.299 24.8C241.872 25.6 241.299 26.36 240.579 27.08H245.179V44H220.419V21.08H215.819V14H243.939V17.52ZM227.499 21.08V26.28C229.045 26.28 230.352 26.1733 231.419 25.96C232.512 25.7467 233.405 25.4267 234.099 25C234.819 24.5733 235.365 24.04 235.739 23.4C236.139 22.7333 236.419 21.96 236.579 21.08H227.499ZM238.099 33.36H227.499V36.92H238.099V33.36Z" fill="white"/>
<path d="M45.9928 29.8278C46.0295 30.7039 45.926 31.5766 45.6856 32.4191C45.4485 33.2617 45.0745 34.0572 44.5803 34.7788C44.0894 35.501 43.4849 36.1381 42.7905 36.6653L42.7739 36.6787L36.0989 41.7069L32.8166 44.2076L30.8164 45.7248C30.6995 45.8154 30.5693 45.8825 30.4324 45.9295C30.2955 45.9765 30.1486 46 30.0017 46C29.8581 46 29.7112 45.9765 29.5743 45.9295C29.4374 45.8825 29.3071 45.8154 29.1903 45.7248L27.1901 44.2076L23.9078 41.7069L17.2729 36.7089L17.2328 36.682L17.2195 36.6686C16.5216 36.1416 15.9172 35.5039 15.423 34.7822C14.9288 34.0605 14.5548 33.2617 14.3144 32.4191C14.074 31.5766 13.9705 30.7006 14.0072 29.8245C14.0473 28.9484 14.2243 28.0858 14.5348 27.2668L14.5782 27.1493L18.9425 15.72C18.9647 15.6641 18.9914 15.6104 19.0226 15.5589C19.0515 15.5074 19.086 15.4593 19.1261 15.4146C19.164 15.3676 19.2051 15.3239 19.2497 15.2836C19.2942 15.2456 19.3409 15.2098 19.3899 15.1762C19.4934 15.1125 19.6003 15.0655 19.7171 15.0386C19.8307 15.0084 19.9509 14.995 20.0677 15.0017C20.188 15.0084 20.3048 15.0319 20.415 15.0755C20.5252 15.1158 20.6321 15.1762 20.7256 15.2501C20.7701 15.2881 20.8135 15.3284 20.8558 15.3709C20.8959 15.4157 20.9315 15.4638 20.9626 15.5153C20.996 15.5645 21.025 15.6171 21.0495 15.673C21.0739 15.7267 21.094 15.7827 21.1096 15.8408L24.0513 24.8936H35.9587L38.9005 15.8408C38.916 15.7827 38.9372 15.7267 38.9639 15.673C38.9884 15.6193 39.0173 15.5667 39.0507 15.5153C39.0819 15.466 39.1175 15.419 39.1576 15.3743C39.1976 15.3295 39.241 15.2881 39.2878 15.2501C39.3813 15.1762 39.4848 15.1192 39.595 15.0755C39.7085 15.0353 39.8254 15.0118 39.9423 15.0051C40.0625 14.9983 40.1793 15.0084 40.2962 15.0386C40.4097 15.0688 40.5199 15.1158 40.6201 15.1796C40.6713 15.2109 40.7192 15.2467 40.7637 15.287C40.8082 15.325 40.8494 15.3676 40.8872 15.4146C40.9251 15.4615 40.9596 15.5108 40.9908 15.5622C41.0197 15.6137 41.0453 15.6674 41.0676 15.7234L45.4251 27.156L45.4685 27.2735C45.7791 28.0891 45.956 28.9518 45.9928 29.8278Z" fill="white"/>
</svg>
