<svg width="780" height="220" viewBox="0 0 780 220" fill="none" xmlns="http://www.w3.org/2000/svg">
<rect width="780.004" height="219.554" fill="#2C27A8"/>
<path d="M57.6895 151.777H29.2129V67.7539H57.6895V100.918C58.5098 99.3164 60.4238 98.5156 63.4316 98.5156H80.9512V67.7539H109.369V151.777H80.9512V118.086C80.4824 119.023 79.7793 119.648 78.8418 119.961C77.9434 120.273 76.7324 120.43 75.209 120.43H57.6895V151.777ZM142.943 151.777H112.943L133.1 67.7539H179.096L199.252 151.777H169.252L167.201 141.934C166.732 139.629 166.732 137.52 167.201 135.605H144.994C145.463 137.52 145.463 139.629 144.994 141.934L142.943 151.777ZM147.514 117.559V118.203H164.682V117.559C163.314 116.191 161.83 111.914 160.229 104.727C159.252 100 158.412 94.8242 157.709 89.1992C157.006 83.5742 156.654 79.707 156.654 77.5977H155.541C155.541 79.707 155.189 83.5742 154.486 89.1992C153.783 94.8242 152.943 100 151.967 104.727C150.365 111.914 148.881 116.191 147.514 117.559ZM265.639 151.777H202.768V67.7539H231.244V130.801C232.025 129.199 233.939 128.398 236.986 128.398H265.639V151.777ZM326.576 153.242C313.725 153.242 302.611 150.84 293.236 146.035V113.516H295.404C303.803 122.305 314.877 126.699 328.627 126.699C331.049 126.699 332.943 126.445 334.311 125.938C335.717 125.391 336.42 124.648 336.42 123.711C336.42 123.164 335.912 122.656 334.896 122.188C333.92 121.68 332.572 121.23 330.854 120.84C329.174 120.41 327.24 119.961 325.053 119.492C322.865 119.023 320.561 118.457 318.139 117.793C315.717 117.09 313.295 116.309 310.873 115.449C308.49 114.59 306.205 113.477 304.018 112.109C301.83 110.742 299.877 109.238 298.158 107.598C296.479 105.918 295.131 103.867 294.115 101.445C293.139 99.0234 292.65 96.3672 292.65 93.4766C292.65 89.1406 293.646 85.2344 295.639 81.7578C297.67 78.2422 300.365 75.3906 303.725 73.2031C307.123 70.9766 310.951 69.2773 315.209 68.1055C319.506 66.9336 324.018 66.3477 328.744 66.3477C340.775 66.3477 351.615 69.5898 361.264 76.0742V104.609H359.623C355.404 100.625 350.404 97.4219 344.623 95C338.842 92.5391 333.041 91.3086 327.221 91.3086C321.596 91.3086 318.783 92.3438 318.783 94.4141C318.783 95.1562 319.291 95.8008 320.307 96.3477C321.361 96.8555 322.768 97.3047 324.525 97.6953C326.322 98.0469 328.354 98.418 330.619 98.8086C332.924 99.1992 335.326 99.668 337.826 100.215C340.365 100.762 342.885 101.406 345.385 102.148C347.924 102.891 350.326 103.887 352.592 105.137C354.896 106.387 356.928 107.832 358.686 109.473C360.482 111.074 361.889 113.105 362.904 115.566C363.959 118.027 364.486 120.781 364.486 123.828C364.486 133.711 361.107 141.094 354.35 145.977C347.592 150.82 338.334 153.242 326.576 153.242ZM406.264 153.242C400.248 153.242 394.721 152.285 389.682 150.371C384.643 148.418 380.424 145.762 377.025 142.402C373.666 139.004 371.049 135.02 369.174 130.449C367.338 125.879 366.42 120.957 366.42 115.684C366.42 110.527 367.357 105.684 369.232 101.152C371.107 96.6211 373.725 92.6758 377.084 89.3164C380.443 85.918 384.643 83.2422 389.682 81.2891C394.721 79.3359 400.248 78.3594 406.264 78.3594C410.873 78.3594 415.17 79.0234 419.154 80.3516C423.178 81.6406 426.322 83.0859 428.588 84.6875V114.102H427.064C419.799 107.93 412.787 104.844 406.029 104.844C404.428 104.844 402.904 105.039 401.459 105.43C400.014 105.82 398.646 106.426 397.357 107.246C396.068 108.066 395.033 109.219 394.252 110.703C393.471 112.148 393.08 113.848 393.08 115.801C393.08 118.379 393.764 120.547 395.131 122.305C396.498 124.023 398.1 125.215 399.936 125.879C401.811 126.504 403.842 126.816 406.029 126.816C412.787 126.816 419.799 123.73 427.064 117.559H428.588V146.973C426.361 148.574 423.236 150.02 419.213 151.309C415.189 152.598 410.873 153.242 406.264 153.242ZM447.689 89.7266C442.924 89.7266 439.057 88.3203 436.088 85.5078C433.158 82.6562 431.693 79.1797 431.693 75.0781C431.693 70.9766 433.178 67.5 436.146 64.6484C439.154 61.7578 443.002 60.3125 447.689 60.3125C452.338 60.3125 456.127 61.7578 459.057 64.6484C462.025 67.5 463.51 70.9766 463.51 75.0781C463.51 79.2188 462.045 82.6953 459.115 85.5078C456.225 88.3203 452.416 89.7266 447.689 89.7266ZM461.811 151.777H433.393V87.4414H434.33C437.65 90.6445 442.104 92.2461 447.689 92.2461C453.158 92.2461 457.553 90.6445 460.873 87.4414H461.811V151.777ZM506.049 153.242C500.033 153.242 494.467 152.285 489.35 150.371C484.232 148.418 479.936 145.762 476.459 142.402C473.021 139.043 470.326 135.059 468.373 130.449C466.42 125.84 465.443 120.918 465.443 115.684C465.443 110.566 466.342 105.723 468.139 101.152C469.936 96.582 472.436 92.6172 475.639 89.2578C478.842 85.8984 482.768 83.2422 487.416 81.2891C492.104 79.3359 497.182 78.3594 502.65 78.3594C507.26 78.3594 511.596 79.043 515.658 80.4102C519.76 81.7383 523.373 83.6523 526.498 86.1523C529.623 88.6523 532.084 91.8555 533.881 95.7617C535.717 99.668 536.635 104.023 536.635 108.828C536.635 111.445 536.322 114.473 535.697 117.91L491.283 115.918C491.713 119.863 493.51 122.793 496.674 124.707C499.877 126.582 503.881 127.52 508.686 127.52C517.436 127.52 525.111 125.156 531.713 120.43H533.295V146.973C530.287 148.809 526.4 150.312 521.635 151.484C516.869 152.656 511.674 153.242 506.049 153.242ZM492.221 109.414L512.494 108.359C511.908 106.562 510.775 105.156 509.096 104.141C507.455 103.086 505.443 102.559 503.061 102.559C500.717 102.559 498.568 103.145 496.615 104.316C494.662 105.449 493.197 107.148 492.221 109.414ZM568.334 151.777H540.268V79.7656H568.686L564.174 120.723H565.346C566.986 105.059 569.74 94.082 573.607 87.793C577.514 81.5039 583.646 78.3594 592.006 78.3594C599.154 78.3594 604.643 80.918 608.471 86.0352C612.299 91.1523 614.213 99.3945 614.213 110.762V151.777H586.088V126.23C586.088 124.355 586.068 122.812 586.029 121.602C585.99 120.352 585.893 118.945 585.736 117.383C585.58 115.781 585.326 114.492 584.975 113.516C584.662 112.5 584.232 111.523 583.686 110.586C583.139 109.648 582.416 108.965 581.518 108.535C580.619 108.066 579.584 107.832 578.412 107.832C576.928 107.832 575.619 108.125 574.486 108.711C573.393 109.297 572.475 110.234 571.732 111.523C570.99 112.773 570.385 114.16 569.916 115.684C569.486 117.207 569.154 119.18 568.92 121.602C568.686 123.984 568.529 126.309 568.451 128.574C568.373 130.84 568.334 133.613 568.334 136.895V151.777ZM657.631 153.242C651.615 153.242 646.088 152.285 641.049 150.371C636.01 148.418 631.791 145.762 628.393 142.402C625.033 139.004 622.416 135.02 620.541 130.449C618.705 125.879 617.787 120.957 617.787 115.684C617.787 110.527 618.725 105.684 620.6 101.152C622.475 96.6211 625.092 92.6758 628.451 89.3164C631.811 85.918 636.01 83.2422 641.049 81.2891C646.088 79.3359 651.615 78.3594 657.631 78.3594C662.24 78.3594 666.537 79.0234 670.521 80.3516C674.545 81.6406 677.689 83.0859 679.955 84.6875V114.102H678.432C671.166 107.93 664.154 104.844 657.396 104.844C655.795 104.844 654.271 105.039 652.826 105.43C651.381 105.82 650.014 106.426 648.725 107.246C647.436 108.066 646.4 109.219 645.619 110.703C644.838 112.148 644.447 113.848 644.447 115.801C644.447 118.379 645.131 120.547 646.498 122.305C647.865 124.023 649.467 125.215 651.303 125.879C653.178 126.504 655.209 126.816 657.396 126.816C664.154 126.816 671.166 123.73 678.432 117.559H679.955V146.973C677.729 148.574 674.604 150.02 670.58 151.309C666.557 152.598 662.24 153.242 657.631 153.242ZM722.963 153.242C716.947 153.242 711.381 152.285 706.264 150.371C701.146 148.418 696.85 145.762 693.373 142.402C689.936 139.043 687.24 135.059 685.287 130.449C683.334 125.84 682.357 120.918 682.357 115.684C682.357 110.566 683.256 105.723 685.053 101.152C686.85 96.582 689.35 92.6172 692.553 89.2578C695.756 85.8984 699.682 83.2422 704.33 81.2891C709.018 79.3359 714.096 78.3594 719.564 78.3594C724.174 78.3594 728.51 79.043 732.572 80.4102C736.674 81.7383 740.287 83.6523 743.412 86.1523C746.537 88.6523 748.998 91.8555 750.795 95.7617C752.631 99.668 753.549 104.023 753.549 108.828C753.549 111.445 753.236 114.473 752.611 117.91L708.197 115.918C708.627 119.863 710.424 122.793 713.588 124.707C716.791 126.582 720.795 127.52 725.6 127.52C734.35 127.52 742.025 125.156 748.627 120.43H750.209V146.973C747.201 148.809 743.314 150.312 738.549 151.484C733.783 152.656 728.588 153.242 722.963 153.242ZM709.135 109.414L729.408 108.359C728.822 106.562 727.689 105.156 726.01 104.141C724.369 103.086 722.357 102.559 719.975 102.559C717.631 102.559 715.482 103.145 713.529 104.316C711.576 105.449 710.111 107.148 709.135 109.414Z" fill="white"/>
</svg>
