<svg width="478" height="194" viewBox="0 0 478 194" fill="none" xmlns="http://www.w3.org/2000/svg">
<mask id="mask0_239_61" style="mask-type:alpha" maskUnits="userSpaceOnUse" x="0" y="0" width="478" height="194">
<rect width="478" height="194" fill="#8892BF"/>
</mask>
<g mask="url(#mask0_239_61)">
<rect width="478" height="194" fill="#EF652A"/>
<path d="M0.0701828 164L112.118 194.023L102.657 229.33L-9.39023 199.307L0.0701828 164Z" fill="#18005B"/>
<path d="M-1.6265 141.518L201.842 196.038L198.308 209.227L-5.1607 154.708L-1.6265 141.518Z" fill="#18005B"/>
<path d="M-2.84124 124.052L257.68 193.858L255.361 202.515L-5.1607 132.708L-2.84124 124.052Z" fill="#18005B"/>
<path d="M35.024 124.657L30 63L90 63.1239L84.6876 124.657L60.2264 131.769L35.024 124.657Z" fill="#EBEBEB"/>
<path d="M60.2264 125.815V68.8721L84.9348 68.9547L80.5287 119.901L60.2264 125.815Z" fill="white"/>
<path d="M78.1403 83.0975L78.84 75.571H40.8305L42.9305 98.6461H69.1626L68.1339 108.488L59.7329 110.762L51.2085 108.281L50.7556 102.409H43.2189L44.2485 114.401L59.7324 118.743L75.3397 114.401L77.4397 90.9957H49.8905L49.1081 83.0975H78.1403Z" fill="#EF652A"/>
<rect x="149" y="72" width="315" height="50" rx="8" stroke="#EBEBEB" stroke-width="8"/>
<rect x="155" y="78" width="59" height="38" rx="3" fill="white"/>
<rect x="216" y="78" width="59" height="38" rx="3" fill="white"/>
<rect x="277" y="78" width="59" height="38" rx="3" fill="white"/>
<rect x="338" y="78" width="59" height="38" rx="3" fill="white"/>
<rect x="399" y="78" width="59" height="38" rx="3" fill="white"/>
<path d="M177.76 177.16H174.24V183H171.22V169.04H174.24V174.7H177.76V169.04H180.78V183H177.76V177.16ZM190.592 172.68H193.612L188.752 184.66C188.446 185.42 188.039 186 187.532 186.4C187.026 186.8 186.332 187 185.452 187H183.412V184.7H185.892L186.532 182.94L182.372 172.68H185.552L187.052 177.02L187.992 180.02H188.152L189.052 177.02L190.592 172.68ZM195.164 172.68H198.124V174.56H198.264C198.518 173.947 198.884 173.44 199.364 173.04C199.844 172.64 200.498 172.44 201.324 172.44C201.898 172.44 202.418 172.547 202.884 172.76C203.364 172.973 203.771 173.3 204.104 173.74C204.451 174.18 204.718 174.74 204.904 175.42C205.104 176.1 205.204 176.907 205.204 177.84C205.204 178.773 205.104 179.58 204.904 180.26C204.718 180.94 204.451 181.5 204.104 181.94C203.771 182.38 203.364 182.707 202.884 182.92C202.418 183.133 201.898 183.24 201.324 183.24C200.498 183.24 199.844 183.047 199.364 182.66C198.884 182.26 198.518 181.747 198.264 181.12H198.124V187H195.164V172.68ZM200.044 180.94C200.711 180.94 201.224 180.74 201.584 180.34C201.944 179.927 202.124 179.36 202.124 178.64V177.04C202.124 176.32 201.944 175.76 201.584 175.36C201.224 174.947 200.711 174.74 200.044 174.74C199.524 174.74 199.071 174.867 198.684 175.12C198.311 175.373 198.124 175.773 198.124 176.32V179.36C198.124 179.907 198.311 180.307 198.684 180.56C199.071 180.813 199.524 180.94 200.044 180.94ZM212.257 183.24C210.523 183.24 209.21 182.76 208.317 181.8C207.423 180.84 206.977 179.533 206.977 177.88C206.977 177.04 207.09 176.287 207.317 175.62C207.557 174.94 207.89 174.367 208.317 173.9C208.757 173.42 209.283 173.06 209.897 172.82C210.523 172.567 211.223 172.44 211.997 172.44C212.77 172.44 213.463 172.567 214.077 172.82C214.69 173.06 215.21 173.407 215.637 173.86C216.063 174.313 216.39 174.867 216.617 175.52C216.857 176.16 216.977 176.88 216.977 177.68V178.56H209.917V178.74C209.917 179.407 210.123 179.947 210.537 180.36C210.95 180.76 211.557 180.96 212.357 180.96C212.97 180.96 213.497 180.847 213.937 180.62C214.377 180.38 214.757 180.067 215.077 179.68L216.677 181.42C216.277 181.913 215.717 182.34 214.997 182.7C214.277 183.06 213.363 183.24 212.257 183.24ZM212.017 174.56C211.377 174.56 210.863 174.76 210.477 175.16C210.103 175.547 209.917 176.073 209.917 176.74V176.9H214.077V176.74C214.077 176.06 213.89 175.527 213.517 175.14C213.157 174.753 212.657 174.56 212.017 174.56ZM219.449 180.7H221.829V174.98H219.449V172.68H224.789V175.6H224.929C225.022 175.227 225.149 174.867 225.309 174.52C225.482 174.16 225.695 173.847 225.949 173.58C226.215 173.3 226.535 173.08 226.909 172.92C227.282 172.76 227.722 172.68 228.229 172.68H229.209V175.4H227.009C226.275 175.4 225.722 175.62 225.349 176.06C224.975 176.487 224.789 177.013 224.789 177.64V180.7H228.189V183H219.449V180.7ZM237.461 171.5V183H234.461V171.5H230.441V169.04H241.481V171.5H237.461ZM248.233 183.24C246.5 183.24 245.186 182.76 244.293 181.8C243.4 180.84 242.953 179.533 242.953 177.88C242.953 177.04 243.066 176.287 243.293 175.62C243.533 174.94 243.866 174.367 244.293 173.9C244.733 173.42 245.26 173.06 245.873 172.82C246.5 172.567 247.2 172.44 247.973 172.44C248.746 172.44 249.44 172.567 250.053 172.82C250.666 173.06 251.186 173.407 251.613 173.86C252.04 174.313 252.366 174.867 252.593 175.52C252.833 176.16 252.953 176.88 252.953 177.68V178.56H245.893V178.74C245.893 179.407 246.1 179.947 246.513 180.36C246.926 180.76 247.533 180.96 248.333 180.96C248.946 180.96 249.473 180.847 249.913 180.62C250.353 180.38 250.733 180.067 251.053 179.68L252.653 181.42C252.253 181.913 251.693 182.34 250.973 182.7C250.253 183.06 249.34 183.24 248.233 183.24ZM247.993 174.56C247.353 174.56 246.84 174.76 246.453 175.16C246.08 175.547 245.893 176.073 245.893 176.74V176.9H250.053V176.74C250.053 176.06 249.866 175.527 249.493 175.14C249.133 174.753 248.633 174.56 247.993 174.56ZM254.405 183L258.265 177.76L254.665 172.68H258.045L259.145 174.34L259.985 175.68H260.145L261.005 174.34L262.125 172.68H265.225L261.625 177.6L265.485 183H262.085L260.785 181.06L259.885 179.68H259.725L258.845 181.06L257.525 183H254.405ZM272.738 183C271.671 183 270.878 182.72 270.358 182.16C269.838 181.6 269.578 180.887 269.578 180.02V174.98H266.778V172.68H268.598C269.038 172.68 269.351 172.593 269.538 172.42C269.724 172.247 269.818 171.927 269.818 171.46V169.04H272.538V172.68H276.558V174.98H272.538V180.7H276.558V183H272.738ZM298.542 176.78L298.702 172.88H298.522L295.922 180.06L293.322 172.88H293.142L293.302 176.78V183H290.702V169.04H294.242L295.962 173.74H296.122L297.842 169.04H301.142V183H298.542V176.78ZM311.654 183C311.041 183 310.547 182.847 310.174 182.54C309.801 182.22 309.581 181.767 309.514 181.18H309.414C309.227 181.86 308.854 182.373 308.294 182.72C307.747 183.067 307.074 183.24 306.274 183.24C305.274 183.24 304.467 182.973 303.854 182.44C303.254 181.893 302.954 181.133 302.954 180.16C302.954 179.08 303.347 178.28 304.134 177.76C304.921 177.24 306.074 176.98 307.594 176.98H309.254V176.46C309.254 175.847 309.107 175.387 308.814 175.08C308.534 174.76 308.054 174.6 307.374 174.6C306.747 174.6 306.241 174.72 305.854 174.96C305.467 175.2 305.134 175.513 304.854 175.9L303.234 174.46C303.581 173.873 304.121 173.393 304.854 173.02C305.601 172.633 306.554 172.44 307.714 172.44C309.127 172.44 310.227 172.767 311.014 173.42C311.814 174.06 312.214 175.033 312.214 176.34V180.86H313.354V183H311.654ZM307.394 181.3C307.914 181.3 308.354 181.173 308.714 180.92C309.074 180.667 309.254 180.3 309.254 179.82V178.58H307.674C306.461 178.58 305.854 178.987 305.854 179.8V180.2C305.854 180.56 305.994 180.833 306.274 181.02C306.554 181.207 306.927 181.3 307.394 181.3ZM315.386 180.7H317.766V174.98H315.386V172.68H320.726V175.6H320.866C320.96 175.227 321.086 174.867 321.246 174.52C321.42 174.16 321.633 173.847 321.886 173.58C322.153 173.3 322.473 173.08 322.846 172.92C323.22 172.76 323.66 172.68 324.166 172.68H325.146V175.4H322.946C322.213 175.4 321.66 175.62 321.286 176.06C320.913 176.487 320.726 177.013 320.726 177.64V180.7H324.126V183H315.386V180.7ZM327.198 168.2H330.158V176.6H330.298L331.678 174.98L333.838 172.68H337.238L333.238 176.76L337.658 183H334.138L331.138 178.44L330.158 179.42V183H327.198V168.2ZM345.631 181.12H345.511C345.284 181.707 344.924 182.207 344.431 182.62C343.951 183.033 343.297 183.24 342.471 183.24C341.977 183.24 341.524 183.16 341.111 183C340.697 182.827 340.344 182.573 340.051 182.24C339.757 181.907 339.524 181.5 339.351 181.02C339.191 180.54 339.111 179.987 339.111 179.36V172.68H342.071V178.96C342.071 180.293 342.651 180.96 343.811 180.96C344.037 180.96 344.257 180.933 344.471 180.88C344.697 180.813 344.891 180.72 345.051 180.6C345.224 180.467 345.364 180.307 345.471 180.12C345.577 179.933 345.631 179.713 345.631 179.46V172.68H348.591V183H345.631V181.12ZM351.063 172.68H354.023V174.56H354.163C354.416 173.947 354.783 173.44 355.263 173.04C355.743 172.64 356.396 172.44 357.223 172.44C357.796 172.44 358.316 172.547 358.783 172.76C359.263 172.973 359.669 173.3 360.003 173.74C360.349 174.18 360.616 174.74 360.803 175.42C361.003 176.1 361.103 176.907 361.103 177.84C361.103 178.773 361.003 179.58 360.803 180.26C360.616 180.94 360.349 181.5 360.003 181.94C359.669 182.38 359.263 182.707 358.783 182.92C358.316 183.133 357.796 183.24 357.223 183.24C356.396 183.24 355.743 183.047 355.263 182.66C354.783 182.26 354.416 181.747 354.163 181.12H354.023V187H351.063V172.68ZM355.943 180.94C356.609 180.94 357.123 180.74 357.483 180.34C357.843 179.927 358.023 179.36 358.023 178.64V177.04C358.023 176.32 357.843 175.76 357.483 175.36C357.123 174.947 356.609 174.74 355.943 174.74C355.423 174.74 354.969 174.867 354.583 175.12C354.209 175.373 354.023 175.773 354.023 176.32V179.36C354.023 179.907 354.209 180.307 354.583 180.56C354.969 180.813 355.423 180.94 355.943 180.94ZM375.707 183V169.04H378.727V180.54H384.727V183H375.707ZM395.599 183C394.986 183 394.493 182.847 394.119 182.54C393.746 182.22 393.526 181.767 393.459 181.18H393.359C393.173 181.86 392.799 182.373 392.239 182.72C391.693 183.067 391.019 183.24 390.219 183.24C389.219 183.24 388.413 182.973 387.799 182.44C387.199 181.893 386.899 181.133 386.899 180.16C386.899 179.08 387.293 178.28 388.079 177.76C388.866 177.24 390.019 176.98 391.539 176.98H393.199V176.46C393.199 175.847 393.053 175.387 392.759 175.08C392.479 174.76 391.999 174.6 391.319 174.6C390.693 174.6 390.186 174.72 389.799 174.96C389.413 175.2 389.079 175.513 388.799 175.9L387.179 174.46C387.526 173.873 388.066 173.393 388.799 173.02C389.546 172.633 390.499 172.44 391.659 172.44C393.073 172.44 394.173 172.767 394.959 173.42C395.759 174.06 396.159 175.033 396.159 176.34V180.86H397.299V183H395.599ZM391.339 181.3C391.859 181.3 392.299 181.173 392.659 180.92C393.019 180.667 393.199 180.3 393.199 179.82V178.58H391.619C390.406 178.58 389.799 178.987 389.799 179.8V180.2C389.799 180.56 389.939 180.833 390.219 181.02C390.499 181.207 390.873 181.3 391.339 181.3ZM399.152 183V172.68H402.112V174.56H402.232C402.352 174.267 402.498 173.993 402.672 173.74C402.845 173.487 403.052 173.267 403.292 173.08C403.545 172.88 403.832 172.727 404.152 172.62C404.485 172.5 404.858 172.44 405.272 172.44C405.765 172.44 406.218 172.527 406.632 172.7C407.045 172.86 407.398 173.107 407.692 173.44C407.985 173.773 408.212 174.18 408.372 174.66C408.545 175.14 408.632 175.693 408.632 176.32V183H405.672V176.72C405.672 175.387 405.092 174.72 403.932 174.72C403.705 174.72 403.478 174.753 403.252 174.82C403.038 174.873 402.845 174.967 402.672 175.1C402.498 175.22 402.358 175.373 402.252 175.56C402.158 175.747 402.112 175.967 402.112 176.22V183H399.152ZM421.504 184.04C421.504 185.133 421.044 185.94 420.124 186.46C419.204 186.98 417.757 187.24 415.784 187.24C414.797 187.24 413.984 187.18 413.344 187.06C412.704 186.953 412.19 186.793 411.804 186.58C411.43 186.367 411.164 186.113 411.004 185.82C410.857 185.527 410.784 185.207 410.784 184.86C410.784 184.273 410.957 183.827 411.304 183.52C411.65 183.227 412.137 183 412.764 182.84V182.72C412.324 182.587 411.97 182.4 411.704 182.16C411.45 181.907 411.324 181.553 411.324 181.1C411.324 180.593 411.49 180.22 411.824 179.98C412.17 179.74 412.624 179.553 413.184 179.42V179.3C412.57 179.007 412.09 178.593 411.744 178.06C411.41 177.527 411.244 176.88 411.244 176.12C411.244 175.52 411.35 174.993 411.564 174.54C411.777 174.073 412.077 173.687 412.464 173.38C412.864 173.073 413.337 172.84 413.884 172.68C414.43 172.52 415.044 172.44 415.724 172.44C416.377 172.44 416.984 172.513 417.544 172.66V172.1C417.544 171.7 417.684 171.367 417.964 171.1C418.244 170.833 418.63 170.7 419.124 170.7H420.944V172.86H418.464V173.04C419.024 173.333 419.457 173.74 419.764 174.26C420.084 174.767 420.244 175.387 420.244 176.12C420.244 176.72 420.137 177.247 419.924 177.7C419.71 178.153 419.404 178.54 419.004 178.86C418.604 179.167 418.124 179.4 417.564 179.56C417.017 179.72 416.404 179.8 415.724 179.8C415.417 179.8 415.124 179.787 414.844 179.76C414.564 179.72 414.297 179.667 414.044 179.6C413.897 179.68 413.77 179.78 413.664 179.9C413.57 180.02 413.524 180.173 413.524 180.36C413.524 180.52 413.564 180.647 413.644 180.74C413.724 180.833 413.83 180.907 413.964 180.96C414.11 181 414.277 181.027 414.464 181.04C414.65 181.053 414.844 181.06 415.044 181.06H417.404C418.137 181.06 418.764 181.133 419.284 181.28C419.804 181.427 420.23 181.633 420.564 181.9C420.897 182.167 421.137 182.48 421.284 182.84C421.43 183.2 421.504 183.6 421.504 184.04ZM418.704 184.26C418.704 183.993 418.597 183.78 418.384 183.62C418.17 183.473 417.764 183.4 417.164 183.4H413.624C413.357 183.627 413.224 183.907 413.224 184.24C413.224 184.56 413.357 184.82 413.624 185.02C413.904 185.233 414.37 185.34 415.024 185.34H416.764C417.444 185.34 417.937 185.247 418.244 185.06C418.55 184.873 418.704 184.607 418.704 184.26ZM415.724 177.92C416.324 177.92 416.757 177.773 417.024 177.48C417.304 177.187 417.444 176.813 417.444 176.36V175.88C417.444 175.427 417.304 175.053 417.024 174.76C416.757 174.467 416.324 174.32 415.724 174.32C415.137 174.32 414.71 174.467 414.444 174.76C414.177 175.053 414.044 175.427 414.044 175.88V176.36C414.044 176.813 414.177 177.187 414.444 177.48C414.71 177.773 415.137 177.92 415.724 177.92ZM429.576 181.12H429.456C429.229 181.707 428.869 182.207 428.376 182.62C427.896 183.033 427.243 183.24 426.416 183.24C425.923 183.24 425.469 183.16 425.056 183C424.643 182.827 424.289 182.573 423.996 182.24C423.703 181.907 423.469 181.5 423.296 181.02C423.136 180.54 423.056 179.987 423.056 179.36V172.68H426.016V178.96C426.016 180.293 426.596 180.96 427.756 180.96C427.983 180.96 428.203 180.933 428.416 180.88C428.643 180.813 428.836 180.72 428.996 180.6C429.169 180.467 429.309 180.307 429.416 180.12C429.523 179.933 429.576 179.713 429.576 179.46V172.68H432.536V183H429.576V181.12ZM443.568 183C442.955 183 442.461 182.847 442.088 182.54C441.715 182.22 441.495 181.767 441.428 181.18H441.328C441.141 181.86 440.768 182.373 440.208 182.72C439.661 183.067 438.988 183.24 438.188 183.24C437.188 183.24 436.381 182.973 435.768 182.44C435.168 181.893 434.868 181.133 434.868 180.16C434.868 179.08 435.261 178.28 436.048 177.76C436.835 177.24 437.988 176.98 439.508 176.98H441.168V176.46C441.168 175.847 441.021 175.387 440.728 175.08C440.448 174.76 439.968 174.6 439.288 174.6C438.661 174.6 438.155 174.72 437.768 174.96C437.381 175.2 437.048 175.513 436.768 175.9L435.148 174.46C435.495 173.873 436.035 173.393 436.768 173.02C437.515 172.633 438.468 172.44 439.628 172.44C441.041 172.44 442.141 172.767 442.928 173.42C443.728 174.06 444.128 175.033 444.128 176.34V180.86H445.268V183H443.568ZM439.308 181.3C439.828 181.3 440.268 181.173 440.628 180.92C440.988 180.667 441.168 180.3 441.168 179.82V178.58H439.588C438.375 178.58 437.768 178.987 437.768 179.8V180.2C437.768 180.56 437.908 180.833 438.188 181.02C438.468 181.207 438.841 181.3 439.308 181.3ZM457.48 184.04C457.48 185.133 457.02 185.94 456.1 186.46C455.18 186.98 453.734 187.24 451.76 187.24C450.774 187.24 449.96 187.18 449.32 187.06C448.68 186.953 448.167 186.793 447.78 186.58C447.407 186.367 447.14 186.113 446.98 185.82C446.834 185.527 446.76 185.207 446.76 184.86C446.76 184.273 446.934 183.827 447.28 183.52C447.627 183.227 448.114 183 448.74 182.84V182.72C448.3 182.587 447.947 182.4 447.68 182.16C447.427 181.907 447.3 181.553 447.3 181.1C447.3 180.593 447.467 180.22 447.8 179.98C448.147 179.74 448.6 179.553 449.16 179.42V179.3C448.547 179.007 448.067 178.593 447.72 178.06C447.387 177.527 447.22 176.88 447.22 176.12C447.22 175.52 447.327 174.993 447.54 174.54C447.754 174.073 448.054 173.687 448.44 173.38C448.84 173.073 449.314 172.84 449.86 172.68C450.407 172.52 451.02 172.44 451.7 172.44C452.354 172.44 452.96 172.513 453.52 172.66V172.1C453.52 171.7 453.66 171.367 453.94 171.1C454.22 170.833 454.607 170.7 455.1 170.7H456.92V172.86H454.44V173.04C455 173.333 455.434 173.74 455.74 174.26C456.06 174.767 456.22 175.387 456.22 176.12C456.22 176.72 456.114 177.247 455.9 177.7C455.687 178.153 455.38 178.54 454.98 178.86C454.58 179.167 454.1 179.4 453.54 179.56C452.994 179.72 452.38 179.8 451.7 179.8C451.394 179.8 451.1 179.787 450.82 179.76C450.54 179.72 450.274 179.667 450.02 179.6C449.874 179.68 449.747 179.78 449.64 179.9C449.547 180.02 449.5 180.173 449.5 180.36C449.5 180.52 449.54 180.647 449.62 180.74C449.7 180.833 449.807 180.907 449.94 180.96C450.087 181 450.254 181.027 450.44 181.04C450.627 181.053 450.82 181.06 451.02 181.06H453.38C454.114 181.06 454.74 181.133 455.26 181.28C455.78 181.427 456.207 181.633 456.54 181.9C456.874 182.167 457.114 182.48 457.26 182.84C457.407 183.2 457.48 183.6 457.48 184.04ZM454.68 184.26C454.68 183.993 454.574 183.78 454.36 183.62C454.147 183.473 453.74 183.4 453.14 183.4H449.6C449.334 183.627 449.2 183.907 449.2 184.24C449.2 184.56 449.334 184.82 449.6 185.02C449.88 185.233 450.347 185.34 451 185.34H452.74C453.42 185.34 453.914 185.247 454.22 185.06C454.527 184.873 454.68 184.607 454.68 184.26ZM451.7 177.92C452.3 177.92 452.734 177.773 453 177.48C453.28 177.187 453.42 176.813 453.42 176.36V175.88C453.42 175.427 453.28 175.053 453 174.76C452.734 174.467 452.3 174.32 451.7 174.32C451.114 174.32 450.687 174.467 450.42 174.76C450.154 175.053 450.02 175.427 450.02 175.88V176.36C450.02 176.813 450.154 177.187 450.42 177.48C450.687 177.773 451.114 177.92 451.7 177.92ZM464.093 183.24C462.359 183.24 461.046 182.76 460.153 181.8C459.259 180.84 458.813 179.533 458.813 177.88C458.813 177.04 458.926 176.287 459.153 175.62C459.393 174.94 459.726 174.367 460.153 173.9C460.593 173.42 461.119 173.06 461.733 172.82C462.359 172.567 463.059 172.44 463.833 172.44C464.606 172.44 465.299 172.567 465.913 172.82C466.526 173.06 467.046 173.407 467.473 173.86C467.899 174.313 468.226 174.867 468.453 175.52C468.693 176.16 468.813 176.88 468.813 177.68V178.56H461.753V178.74C461.753 179.407 461.959 179.947 462.373 180.36C462.786 180.76 463.393 180.96 464.193 180.96C464.806 180.96 465.333 180.847 465.773 180.62C466.213 180.38 466.593 180.067 466.913 179.68L468.513 181.42C468.113 181.913 467.553 182.34 466.833 182.7C466.113 183.06 465.199 183.24 464.093 183.24ZM463.853 174.56C463.213 174.56 462.699 174.76 462.313 175.16C461.939 175.547 461.753 176.073 461.753 176.74V176.9H465.913V176.74C465.913 176.06 465.726 175.527 465.353 175.14C464.993 174.753 464.493 174.56 463.853 174.56Z" fill="white"/>
</g>
</svg>
