<svg width="179" height="81" viewBox="0 0 179 81" fill="none" xmlns="http://www.w3.org/2000/svg">
<path d="M148.75 24.9893C150.761 23.8283 153.239 23.8283 155.25 24.9893L172.9 35.1807C174.911 36.3418 176.15 38.4873 176.15 40.8096V61.1904C176.15 63.5127 174.911 65.6582 172.9 66.8193L155.25 77.0107C153.239 78.1717 150.761 78.1717 148.75 77.0107L131.1 66.8193C129.089 65.6582 127.85 63.5127 127.85 61.1904V40.8096C127.85 38.4873 129.089 36.3418 131.1 35.1807L148.75 24.9893Z" fill="#E5532D" stroke="#EA4B22" stroke-width="5"/>
<path d="M123.75 24.9893C125.761 23.8283 128.239 23.8283 130.25 24.9893L147.9 35.1807C149.911 36.3418 151.15 38.4873 151.15 40.8096V61.1904C151.15 63.5127 149.911 65.6582 147.9 66.8193L130.25 77.0107C128.239 78.1717 125.761 78.1717 123.75 77.0107L106.1 66.8193C104.089 65.6582 102.85 63.5127 102.85 61.1904V40.8096C102.85 38.4873 104.089 36.3418 106.1 35.1807L123.75 24.9893Z" fill="#E5532D" stroke="#EA4B22" stroke-width="5"/>
<path d="M98.75 24.9893C100.761 23.8283 103.239 23.8283 105.25 24.9893L122.9 35.1807C124.911 36.3418 126.15 38.4873 126.15 40.8096V61.1904C126.15 63.5127 124.911 65.6582 122.9 66.8193L105.25 77.0107C103.239 78.1717 100.761 78.1717 98.75 77.0107L81.0996 66.8193C79.0885 65.6582 77.8496 63.5127 77.8496 61.1904V40.8096C77.8496 38.4873 79.0885 36.3418 81.0996 35.1807L98.75 24.9893Z" fill="#E5532D" stroke="#EA4B22" stroke-width="5"/>
<path d="M73.75 24.9893C75.761 23.8283 78.239 23.8283 80.25 24.9893L97.9004 35.1807C99.9115 36.3418 101.15 38.4873 101.15 40.8096V61.1904C101.15 63.5127 99.9115 65.6582 97.9004 66.8193L80.25 77.0107C78.239 78.1717 75.761 78.1717 73.75 77.0107L56.0996 66.8193C54.0885 65.6582 52.8496 63.5127 52.8496 61.1904V40.8096C52.8496 38.4873 54.0885 36.3418 56.0996 35.1807L73.75 24.9893Z" fill="#E5532D" stroke="#EA4B22" stroke-width="5"/>
<path d="M48.75 24.9893C50.761 23.8283 53.239 23.8283 55.25 24.9893L72.9004 35.1807C74.9115 36.3418 76.1504 38.4873 76.1504 40.8096V61.1904C76.1504 63.5127 74.9115 65.6582 72.9004 66.8193L55.25 77.0107C53.239 78.1717 50.761 78.1717 48.75 77.0107L31.0996 66.8193C29.0885 65.6582 27.8496 63.5127 27.8496 61.1904V40.8096C27.8496 38.4873 29.0885 36.3418 31.0996 35.1807L48.75 24.9893Z" fill="#E5532D" stroke="#EA4B22" stroke-width="5"/>
<path d="M23.75 24.9893C25.761 23.8283 28.239 23.8283 30.25 24.9893L47.9004 35.1807C49.9115 36.3418 51.1504 38.4873 51.1504 40.8096V61.1904C51.1504 63.5127 49.9115 65.6582 47.9004 66.8193L30.25 77.0107C28.239 78.1717 25.761 78.1717 23.75 77.0107L6.09961 66.8193C4.0885 65.6582 2.84961 63.5127 2.84961 61.1904V40.8096C2.84961 38.4873 4.0885 36.3418 6.09961 35.1807L23.75 24.9893Z" fill="#E5532D" stroke="#EA4B22" stroke-width="5"/>
<path d="M66.608 15V3.32H69.584V15H66.608ZM59.184 15V3.32H62.16V15H59.184ZM61.648 10.408V7.816H67.12V10.408H61.648ZM74.2856 15V5.592H77.2616V15H74.2856ZM71.0856 5.912V3.32H80.4616V5.912H71.0856ZM81.9653 15V3.32H86.0933L88.4933 9.48H88.8133L91.1973 3.32H95.4053V15H92.4613V5.032L92.9253 5.064L89.9173 12.648H87.2133L84.1893 5.064L84.6853 5.032V15H81.9653ZM97.7778 15V3.32H100.754V15H97.7778ZM100.434 15V12.408H105.17V15H100.434ZM114.108 15.32C113.169 15.32 112.353 15.144 111.66 14.792C110.977 14.4293 110.449 13.944 110.076 13.336C109.702 12.728 109.516 12.0453 109.516 11.288H112.396C112.396 11.608 112.47 11.8853 112.62 12.12C112.769 12.3547 112.977 12.536 113.244 12.664C113.51 12.792 113.809 12.856 114.14 12.856C114.524 12.856 114.844 12.776 115.1 12.616C115.366 12.456 115.564 12.2373 115.692 11.96C115.83 11.6827 115.9 11.368 115.9 11.016C115.9 10.664 115.83 10.3493 115.692 10.072C115.564 9.79467 115.372 9.576 115.116 9.416C114.86 9.256 114.545 9.176 114.172 9.176C113.798 9.176 113.473 9.26133 113.196 9.432C112.918 9.592 112.716 9.79467 112.588 10.04H109.788L110.38 3.32H117.788V5.88H111.468L112.684 5.16L112.364 8.696L111.692 8.536C112.012 8.13067 112.396 7.784 112.844 7.496C113.302 7.208 113.932 7.064 114.732 7.064C115.564 7.064 116.278 7.23467 116.876 7.576C117.484 7.90667 117.953 8.36533 118.284 8.952C118.614 9.528 118.78 10.1893 118.78 10.936V11.128C118.78 11.8747 118.598 12.568 118.236 13.208C117.873 13.8373 117.345 14.3493 116.652 14.744C115.958 15.128 115.11 15.32 114.108 15.32Z" fill="white"/>
</svg>
