<svg width="523" height="127" viewBox="0 0 523 127" fill="none" xmlns="http://www.w3.org/2000/svg">
<rect x="1" y="1" width="521" height="125" rx="6" fill="#222222" fill-opacity="0.1"/>
<rect x="0.5" y="0.5" width="522" height="126" rx="6.5" stroke="#222222" stroke-opacity="0.5"/>
<path d="M63.24 76.72H36.36V105.88H21.48V22.24H36.36V64.12H63.24V22.24H78.12V105.88H63.24V76.72ZM132.463 46.96H147.343V105.88L132.463 105.64C131.383 105.52 130.423 105.4 129.463 105.28H129.343C129.103 105.28 128.863 105.16 128.623 105.16C122.143 103.84 116.383 102.04 111.463 97.48C110.623 96.76 109.903 96.04 109.183 95.32C108.823 94.96 108.463 94.6 108.103 94.12C107.263 93.16 106.303 91.96 105.583 90.88C103.903 88.72 102.583 86.32 101.263 83.92C95.0231 71.92 92.5031 57.52 91.5431 46.96H105.463C105.463 47.2 105.463 47.32 105.583 47.56C105.823 50.56 106.303 53.68 106.903 56.92C107.503 60.16 108.223 63.4 109.183 66.52C109.183 66.64 109.303 66.76 109.303 66.88C109.663 68.08 110.023 69.16 110.383 70.24C110.623 71.08 110.983 71.92 111.223 72.76C111.343 72.88 111.343 73 111.343 73.12C111.703 73.84 111.943 74.56 112.303 75.4C112.423 75.52 112.423 75.52 112.423 75.64C113.143 77.32 113.983 78.88 114.823 80.32C114.943 80.56 114.943 80.68 115.063 80.8C115.423 81.52 115.783 82.12 116.263 82.72C116.263 82.84 116.383 82.84 116.383 82.96C116.623 83.32 116.863 83.56 117.103 83.92C117.343 84.28 117.583 84.64 117.823 85C117.943 85 117.943 85.12 118.063 85.24C118.423 85.72 118.903 86.32 119.383 86.8C119.503 86.92 119.623 87.04 119.743 87.16C120.223 87.76 120.823 88.36 121.303 88.84C121.663 89.08 122.023 89.32 122.383 89.68C124.303 91.24 126.343 92.44 128.623 93.28C129.823 93.64 131.143 94 132.463 94.24V46.96ZM243.626 68.56C249.866 80.56 252.386 94.96 253.466 105.4H239.426C239.426 105.28 239.426 105.16 239.426 104.92C239.066 101.92 238.586 98.8 237.986 95.44C237.386 92.32 236.666 89.08 235.706 85.96C235.706 85.84 235.586 85.72 235.586 85.6C235.586 85.48 235.586 85.48 235.586 85.48C235.226 84.4 234.866 83.32 234.506 82.24C234.266 81.4 233.906 80.56 233.666 79.6C233.546 79.6 233.546 79.48 233.546 79.36C233.186 78.64 232.946 77.8 232.586 77.08C232.466 76.96 232.466 76.84 232.466 76.72C231.746 75.16 230.906 73.6 230.066 72.04C229.946 71.92 229.946 71.8 229.826 71.68C229.466 70.96 229.106 70.36 228.626 69.64L228.506 69.52C228.266 69.16 228.026 68.8 227.786 68.56C227.546 68.2 227.306 67.84 227.066 67.48C226.946 67.36 226.946 67.36 226.826 67.24C226.466 66.64 225.986 66.16 225.506 65.68C225.386 65.56 225.266 65.44 225.146 65.32C224.666 64.72 224.066 64.12 223.586 63.64C223.226 63.4 222.866 63.04 222.506 62.8C220.586 61.24 218.546 60.04 216.266 59.2C215.066 58.84 213.746 58.48 212.426 58.24V73.24C217.106 84.16 219.146 96.28 220.106 105.4H206.066C206.066 105.28 206.066 105.16 206.066 104.92C205.706 101.92 205.226 98.8 204.626 95.44C204.026 92.32 203.306 89.08 202.346 85.96C202.346 85.84 202.226 85.72 202.226 85.6C202.226 85.48 202.226 85.48 202.226 85.48C201.866 84.4 201.626 83.32 201.266 82.24C200.906 81.4 200.546 80.56 200.306 79.6C200.186 79.6 200.186 79.48 200.186 79.36C199.826 78.64 199.586 77.8 199.226 77.08C199.226 76.96 199.106 76.84 199.106 76.72C198.626 75.76 198.146 74.68 197.546 73.72C197.306 73.12 197.066 72.64 196.706 72.04C196.706 71.92 196.586 71.8 196.466 71.68C196.106 70.96 195.746 70.36 195.266 69.64L195.146 69.52C194.906 69.16 194.666 68.8 194.426 68.56C194.186 68.2 193.946 67.84 193.706 67.48C193.706 67.36 193.586 67.36 193.466 67.24C193.106 66.64 192.626 66.16 192.146 65.68C192.026 65.56 191.906 65.44 191.786 65.32C191.306 64.72 190.706 64.12 190.226 63.64C189.866 63.4 189.506 63.04 189.146 62.8C187.226 61.24 185.186 60.04 182.906 59.2C181.706 58.84 180.386 58.48 179.066 58.24V105.4H164.306V46.6L179.066 46.72C180.146 46.84 181.106 46.96 182.066 47.2C182.186 47.2 182.186 47.2 182.186 47.2C182.426 47.2 182.666 47.32 182.906 47.32C188.306 48.4 193.226 49.84 197.546 52.96V46.6L212.426 46.72C213.506 46.84 214.466 46.96 215.426 47.2C215.546 47.2 215.546 47.2 215.546 47.2C215.786 47.2 216.026 47.32 216.266 47.32C222.746 48.64 228.506 50.44 233.426 55C234.266 55.72 234.986 56.44 235.706 57.16C236.066 57.52 236.426 57.88 236.786 58.24C237.626 59.32 238.586 60.4 239.426 61.6C240.986 63.76 242.306 66.04 243.626 68.56ZM307.902 62.32C318.582 73.6 317.982 92.8 317.982 93.4V105.04H266.022V19.36H280.902V50.44C292.302 51.52 301.302 55.48 307.902 62.32ZM280.902 92.32H305.262C305.262 90.04 304.902 77.56 298.542 71.08C294.462 66.76 288.462 64.12 280.902 63.16V92.32ZM380.359 71.32C380.719 73.36 380.839 75.16 380.839 76.84V105.76H328.879V92.92C328.879 92.8 328.879 92.68 328.879 92.68C331.879 84.64 335.959 77.2 341.479 71.56C345.319 67.6 349.639 64.72 354.319 63.04C349.519 61.96 343.399 61.84 336.079 62.8L334.399 49C352.399 46.72 365.599 49.72 373.519 57.88C374.359 58.84 375.199 59.92 375.919 60.88C376.759 62.08 377.479 63.16 377.959 64.36C378.559 65.56 379.039 66.76 379.399 67.84C379.759 69.04 380.119 70.24 380.359 71.32ZM365.959 93.16V74.8C360.319 74.92 355.519 77.08 351.439 81.28C349.639 82.96 348.079 85.12 346.759 87.4C345.679 89.08 344.839 90.76 343.999 92.68C343.879 92.8 343.759 92.92 343.759 93.16H365.959ZM432.578 20.2C452.498 20.2 468.818 39.4 468.818 62.8C468.818 86.32 452.498 105.4 432.578 105.4C412.538 105.4 396.338 86.32 396.338 62.8C396.338 39.4 412.538 20.2 432.578 20.2ZM432.578 91.48C444.818 91.48 454.898 78.64 454.898 62.8C454.898 47.08 444.818 34.12 432.578 34.12C420.218 34.12 410.258 47.08 410.258 62.8C410.258 78.64 420.218 91.48 432.578 91.48ZM479.395 20.92H506.875V104.44H491.995V33.64H479.395V20.92Z" fill="url(#paint0_linear_5_9)"/>
<path d="M58.24 73.72H31.36V102.88H16.48V19.24H31.36V61.12H58.24V19.24H73.12V102.88H58.24V73.72ZM127.463 43.96H142.343V102.88L127.463 102.64C126.383 102.52 125.423 102.4 124.463 102.28H124.343C124.103 102.28 123.863 102.16 123.623 102.16C117.143 100.84 111.383 99.04 106.463 94.48C105.623 93.76 104.903 93.04 104.183 92.32C103.823 91.96 103.463 91.6 103.103 91.12C102.263 90.16 101.303 88.96 100.583 87.88C98.9031 85.72 97.5831 83.32 96.2631 80.92C90.0231 68.92 87.5031 54.52 86.5431 43.96H100.463C100.463 44.2 100.463 44.32 100.583 44.56C100.823 47.56 101.303 50.68 101.903 53.92C102.503 57.16 103.223 60.4 104.183 63.52C104.183 63.64 104.303 63.76 104.303 63.88C104.663 65.08 105.023 66.16 105.383 67.24C105.623 68.08 105.983 68.92 106.223 69.76C106.343 69.88 106.343 70 106.343 70.12C106.703 70.84 106.943 71.56 107.303 72.4C107.423 72.52 107.423 72.52 107.423 72.64C108.143 74.32 108.983 75.88 109.823 77.32C109.943 77.56 109.943 77.68 110.063 77.8C110.423 78.52 110.783 79.12 111.263 79.72C111.263 79.84 111.383 79.84 111.383 79.96C111.623 80.32 111.863 80.56 112.103 80.92C112.343 81.28 112.583 81.64 112.823 82C112.943 82 112.943 82.12 113.063 82.24C113.423 82.72 113.903 83.32 114.383 83.8C114.503 83.92 114.623 84.04 114.743 84.16C115.223 84.76 115.823 85.36 116.303 85.84C116.663 86.08 117.023 86.32 117.383 86.68C119.303 88.24 121.343 89.44 123.623 90.28C124.823 90.64 126.143 91 127.463 91.24V43.96ZM238.626 65.56C244.866 77.56 247.386 91.96 248.466 102.4H234.426C234.426 102.28 234.426 102.16 234.426 101.92C234.066 98.92 233.586 95.8 232.986 92.44C232.386 89.32 231.666 86.08 230.706 82.96C230.706 82.84 230.586 82.72 230.586 82.6C230.586 82.48 230.586 82.48 230.586 82.48C230.226 81.4 229.866 80.32 229.506 79.24C229.266 78.4 228.906 77.56 228.666 76.6C228.546 76.6 228.546 76.48 228.546 76.36C228.186 75.64 227.946 74.8 227.586 74.08C227.466 73.96 227.466 73.84 227.466 73.72C226.746 72.16 225.906 70.6 225.066 69.04C224.946 68.92 224.946 68.8 224.826 68.68C224.466 67.96 224.106 67.36 223.626 66.64L223.506 66.52C223.266 66.16 223.026 65.8 222.786 65.56C222.546 65.2 222.306 64.84 222.066 64.48C221.946 64.36 221.946 64.36 221.826 64.24C221.466 63.64 220.986 63.16 220.506 62.68C220.386 62.56 220.266 62.44 220.146 62.32C219.666 61.72 219.066 61.12 218.586 60.64C218.226 60.4 217.866 60.04 217.506 59.8C215.586 58.24 213.546 57.04 211.266 56.2C210.066 55.84 208.746 55.48 207.426 55.24V70.24C212.106 81.16 214.146 93.28 215.106 102.4H201.066C201.066 102.28 201.066 102.16 201.066 101.92C200.706 98.92 200.226 95.8 199.626 92.44C199.026 89.32 198.306 86.08 197.346 82.96C197.346 82.84 197.226 82.72 197.226 82.6C197.226 82.48 197.226 82.48 197.226 82.48C196.866 81.4 196.626 80.32 196.266 79.24C195.906 78.4 195.546 77.56 195.306 76.6C195.186 76.6 195.186 76.48 195.186 76.36C194.826 75.64 194.586 74.8 194.226 74.08C194.226 73.96 194.106 73.84 194.106 73.72C193.626 72.76 193.146 71.68 192.546 70.72C192.306 70.12 192.066 69.64 191.706 69.04C191.706 68.92 191.586 68.8 191.466 68.68C191.106 67.96 190.746 67.36 190.266 66.64L190.146 66.52C189.906 66.16 189.666 65.8 189.426 65.56C189.186 65.2 188.946 64.84 188.706 64.48C188.706 64.36 188.586 64.36 188.466 64.24C188.106 63.64 187.626 63.16 187.146 62.68C187.026 62.56 186.906 62.44 186.786 62.32C186.306 61.72 185.706 61.12 185.226 60.64C184.866 60.4 184.506 60.04 184.146 59.8C182.226 58.24 180.186 57.04 177.906 56.2C176.706 55.84 175.386 55.48 174.066 55.24V102.4H159.306V43.6L174.066 43.72C175.146 43.84 176.106 43.96 177.066 44.2C177.186 44.2 177.186 44.2 177.186 44.2C177.426 44.2 177.666 44.32 177.906 44.32C183.306 45.4 188.226 46.84 192.546 49.96V43.6L207.426 43.72C208.506 43.84 209.466 43.96 210.426 44.2C210.546 44.2 210.546 44.2 210.546 44.2C210.786 44.2 211.026 44.32 211.266 44.32C217.746 45.64 223.506 47.44 228.426 52C229.266 52.72 229.986 53.44 230.706 54.16C231.066 54.52 231.426 54.88 231.786 55.24C232.626 56.32 233.586 57.4 234.426 58.6C235.986 60.76 237.306 63.04 238.626 65.56ZM302.902 59.32C313.582 70.6 312.982 89.8 312.982 90.4V102.04H261.022V16.36H275.902V47.44C287.302 48.52 296.302 52.48 302.902 59.32ZM275.902 89.32H300.262C300.262 87.04 299.902 74.56 293.542 68.08C289.462 63.76 283.462 61.12 275.902 60.16V89.32ZM375.359 68.32C375.719 70.36 375.839 72.16 375.839 73.84V102.76H323.879V89.92C323.879 89.8 323.879 89.68 323.879 89.68C326.879 81.64 330.959 74.2 336.479 68.56C340.319 64.6 344.639 61.72 349.319 60.04C344.519 58.96 338.399 58.84 331.079 59.8L329.399 46C347.399 43.72 360.599 46.72 368.519 54.88C369.359 55.84 370.199 56.92 370.919 57.88C371.759 59.08 372.479 60.16 372.959 61.36C373.559 62.56 374.039 63.76 374.399 64.84C374.759 66.04 375.119 67.24 375.359 68.32ZM360.959 90.16V71.8C355.319 71.92 350.519 74.08 346.439 78.28C344.639 79.96 343.079 82.12 341.759 84.4C340.679 86.08 339.839 87.76 338.999 89.68C338.879 89.8 338.759 89.92 338.759 90.16H360.959ZM427.578 17.2C447.498 17.2 463.818 36.4 463.818 59.8C463.818 83.32 447.498 102.4 427.578 102.4C407.538 102.4 391.338 83.32 391.338 59.8C391.338 36.4 407.538 17.2 427.578 17.2ZM427.578 88.48C439.818 88.48 449.898 75.64 449.898 59.8C449.898 44.08 439.818 31.12 427.578 31.12C415.218 31.12 405.258 44.08 405.258 59.8C405.258 75.64 415.218 88.48 427.578 88.48ZM474.395 17.92H501.875V101.44H486.995V30.64H474.395V17.92Z" fill="url(#paint1_linear_5_9)"/>
<path d="M60.24 74.72H33.36V103.88H18.48V20.24H33.36V62.12H60.24V20.24H75.12V103.88H60.24V74.72ZM129.463 44.96H144.343V103.88L129.463 103.64C128.383 103.52 127.423 103.4 126.463 103.28H126.343C126.103 103.28 125.863 103.16 125.623 103.16C119.143 101.84 113.383 100.04 108.463 95.48C107.623 94.76 106.903 94.04 106.183 93.32C105.823 92.96 105.463 92.6 105.103 92.12C104.263 91.16 103.303 89.96 102.583 88.88C100.903 86.72 99.5831 84.32 98.2631 81.92C92.0231 69.92 89.5031 55.52 88.5431 44.96H102.463C102.463 45.2 102.463 45.32 102.583 45.56C102.823 48.56 103.303 51.68 103.903 54.92C104.503 58.16 105.223 61.4 106.183 64.52C106.183 64.64 106.303 64.76 106.303 64.88C106.663 66.08 107.023 67.16 107.383 68.24C107.623 69.08 107.983 69.92 108.223 70.76C108.343 70.88 108.343 71 108.343 71.12C108.703 71.84 108.943 72.56 109.303 73.4C109.423 73.52 109.423 73.52 109.423 73.64C110.143 75.32 110.983 76.88 111.823 78.32C111.943 78.56 111.943 78.68 112.063 78.8C112.423 79.52 112.783 80.12 113.263 80.72C113.263 80.84 113.383 80.84 113.383 80.96C113.623 81.32 113.863 81.56 114.103 81.92C114.343 82.28 114.583 82.64 114.823 83C114.943 83 114.943 83.12 115.063 83.24C115.423 83.72 115.903 84.32 116.383 84.8C116.503 84.92 116.623 85.04 116.743 85.16C117.223 85.76 117.823 86.36 118.303 86.84C118.663 87.08 119.023 87.32 119.383 87.68C121.303 89.24 123.343 90.44 125.623 91.28C126.823 91.64 128.143 92 129.463 92.24V44.96ZM240.626 66.56C246.866 78.56 249.386 92.96 250.466 103.4H236.426C236.426 103.28 236.426 103.16 236.426 102.92C236.066 99.92 235.586 96.8 234.986 93.44C234.386 90.32 233.666 87.08 232.706 83.96C232.706 83.84 232.586 83.72 232.586 83.6C232.586 83.48 232.586 83.48 232.586 83.48C232.226 82.4 231.866 81.32 231.506 80.24C231.266 79.4 230.906 78.56 230.666 77.6C230.546 77.6 230.546 77.48 230.546 77.36C230.186 76.64 229.946 75.8 229.586 75.08C229.466 74.96 229.466 74.84 229.466 74.72C228.746 73.16 227.906 71.6 227.066 70.04C226.946 69.92 226.946 69.8 226.826 69.68C226.466 68.96 226.106 68.36 225.626 67.64L225.506 67.52C225.266 67.16 225.026 66.8 224.786 66.56C224.546 66.2 224.306 65.84 224.066 65.48C223.946 65.36 223.946 65.36 223.826 65.24C223.466 64.64 222.986 64.16 222.506 63.68C222.386 63.56 222.266 63.44 222.146 63.32C221.666 62.72 221.066 62.12 220.586 61.64C220.226 61.4 219.866 61.04 219.506 60.8C217.586 59.24 215.546 58.04 213.266 57.2C212.066 56.84 210.746 56.48 209.426 56.24V71.24C214.106 82.16 216.146 94.28 217.106 103.4H203.066C203.066 103.28 203.066 103.16 203.066 102.92C202.706 99.92 202.226 96.8 201.626 93.44C201.026 90.32 200.306 87.08 199.346 83.96C199.346 83.84 199.226 83.72 199.226 83.6C199.226 83.48 199.226 83.48 199.226 83.48C198.866 82.4 198.626 81.32 198.266 80.24C197.906 79.4 197.546 78.56 197.306 77.6C197.186 77.6 197.186 77.48 197.186 77.36C196.826 76.64 196.586 75.8 196.226 75.08C196.226 74.96 196.106 74.84 196.106 74.72C195.626 73.76 195.146 72.68 194.546 71.72C194.306 71.12 194.066 70.64 193.706 70.04C193.706 69.92 193.586 69.8 193.466 69.68C193.106 68.96 192.746 68.36 192.266 67.64L192.146 67.52C191.906 67.16 191.666 66.8 191.426 66.56C191.186 66.2 190.946 65.84 190.706 65.48C190.706 65.36 190.586 65.36 190.466 65.24C190.106 64.64 189.626 64.16 189.146 63.68C189.026 63.56 188.906 63.44 188.786 63.32C188.306 62.72 187.706 62.12 187.226 61.64C186.866 61.4 186.506 61.04 186.146 60.8C184.226 59.24 182.186 58.04 179.906 57.2C178.706 56.84 177.386 56.48 176.066 56.24V103.4H161.306V44.6L176.066 44.72C177.146 44.84 178.106 44.96 179.066 45.2C179.186 45.2 179.186 45.2 179.186 45.2C179.426 45.2 179.666 45.32 179.906 45.32C185.306 46.4 190.226 47.84 194.546 50.96V44.6L209.426 44.72C210.506 44.84 211.466 44.96 212.426 45.2C212.546 45.2 212.546 45.2 212.546 45.2C212.786 45.2 213.026 45.32 213.266 45.32C219.746 46.64 225.506 48.44 230.426 53C231.266 53.72 231.986 54.44 232.706 55.16C233.066 55.52 233.426 55.88 233.786 56.24C234.626 57.32 235.586 58.4 236.426 59.6C237.986 61.76 239.306 64.04 240.626 66.56ZM304.902 60.32C315.582 71.6 314.982 90.8 314.982 91.4V103.04H263.022V17.36H277.902V48.44C289.302 49.52 298.302 53.48 304.902 60.32ZM277.902 90.32H302.262C302.262 88.04 301.902 75.56 295.542 69.08C291.462 64.76 285.462 62.12 277.902 61.16V90.32ZM377.359 69.32C377.719 71.36 377.839 73.16 377.839 74.84V103.76H325.879V90.92C325.879 90.8 325.879 90.68 325.879 90.68C328.879 82.64 332.959 75.2 338.479 69.56C342.319 65.6 346.639 62.72 351.319 61.04C346.519 59.96 340.399 59.84 333.079 60.8L331.399 47C349.399 44.72 362.599 47.72 370.519 55.88C371.359 56.84 372.199 57.92 372.919 58.88C373.759 60.08 374.479 61.16 374.959 62.36C375.559 63.56 376.039 64.76 376.399 65.84C376.759 67.04 377.119 68.24 377.359 69.32ZM362.959 91.16V72.8C357.319 72.92 352.519 75.08 348.439 79.28C346.639 80.96 345.079 83.12 343.759 85.4C342.679 87.08 341.839 88.76 340.999 90.68C340.879 90.8 340.759 90.92 340.759 91.16H362.959ZM429.578 18.2C449.498 18.2 465.818 37.4 465.818 60.8C465.818 84.32 449.498 103.4 429.578 103.4C409.538 103.4 393.338 84.32 393.338 60.8C393.338 37.4 409.538 18.2 429.578 18.2ZM429.578 89.48C441.818 89.48 451.898 76.64 451.898 60.8C451.898 45.08 441.818 32.12 429.578 32.12C417.218 32.12 407.258 45.08 407.258 60.8C407.258 76.64 417.218 89.48 429.578 89.48ZM476.395 18.92H503.875V102.44H488.995V31.64H476.395V18.92Z" fill="url(#paint2_linear_5_9)"/>
<defs>
<linearGradient id="paint0_linear_5_9" x1="12" y1="70" x2="522" y2="70" gradientUnits="userSpaceOnUse">
<stop stop-color="#260DFF"/>
<stop offset="1" stop-color="#FFCAD9"/>
</linearGradient>
<linearGradient id="paint1_linear_5_9" x1="7" y1="68.5" x2="522" y2="68.5" gradientUnits="userSpaceOnUse">
<stop stop-color="#290159"/>
<stop offset="1" stop-color="#260DFF"/>
</linearGradient>
<linearGradient id="paint2_linear_5_9" x1="265.119" y1="64.1883" x2="265.119" y2="102.312" gradientUnits="userSpaceOnUse">
<stop stop-color="white"/>
<stop offset="1" stop-color="#CDCDCD"/>
</linearGradient>
</defs>
</svg>
