<svg width="430" height="109" viewBox="0 0 430 109" fill="none" xmlns="http://www.w3.org/2000/svg">
<rect x="4" y="4" width="422" height="101" rx="6" fill="#222222" fill-opacity="0.1"/>
<rect x="2" y="2" width="426" height="105" rx="8" stroke="#222222" stroke-opacity="0.5" stroke-width="4"/>
<path d="M54.992 66.576H33.488V89.904H21.584V22.992H33.488V56.496H54.992V22.992H66.896V89.904H54.992V66.576ZM110.371 42.768H122.275V89.904L110.371 89.712C109.507 89.616 108.739 89.52 107.971 89.424H107.875C107.683 89.424 107.491 89.328 107.299 89.328C102.115 88.272 97.5065 86.832 93.5705 83.184C92.8985 82.608 92.3225 82.032 91.7465 81.456C91.4585 81.168 91.1705 80.88 90.8825 80.496C90.2105 79.728 89.4425 78.768 88.8665 77.904C87.5225 76.176 86.4665 74.256 85.4105 72.336C80.4185 62.736 78.4025 51.216 77.6345 42.768H88.7705C88.7705 42.96 88.7705 43.056 88.8665 43.248C89.0585 45.648 89.4425 48.144 89.9225 50.736C90.4025 53.328 90.9785 55.92 91.7465 58.416C91.7465 58.512 91.8425 58.608 91.8425 58.704C92.1305 59.664 92.4185 60.528 92.7065 61.392C92.8985 62.064 93.1865 62.736 93.3785 63.408C93.4745 63.504 93.4745 63.6 93.4745 63.696C93.7625 64.272 93.9545 64.848 94.2425 65.52C94.3385 65.616 94.3385 65.616 94.3385 65.712C94.9145 67.056 95.5865 68.304 96.2585 69.456C96.3545 69.648 96.3545 69.744 96.4505 69.84C96.7385 70.416 97.0265 70.896 97.4105 71.376C97.4105 71.472 97.5065 71.472 97.5065 71.568C97.6985 71.856 97.8905 72.048 98.0825 72.336C98.2745 72.624 98.4665 72.912 98.6585 73.2C98.7545 73.2 98.7545 73.296 98.8505 73.392C99.1385 73.776 99.5225 74.256 99.9065 74.64C100.003 74.736 100.099 74.832 100.195 74.928C100.579 75.408 101.059 75.888 101.443 76.272C101.731 76.464 102.019 76.656 102.307 76.944C103.843 78.192 105.475 79.152 107.299 79.824C108.259 80.112 109.315 80.4 110.371 80.592V42.768ZM199.301 60.048C204.293 69.648 206.309 81.168 207.173 89.52H195.941C195.941 89.424 195.941 89.328 195.941 89.136C195.653 86.736 195.269 84.24 194.789 81.552C194.309 79.056 193.733 76.464 192.965 73.968C192.965 73.872 192.869 73.776 192.869 73.68C192.869 73.584 192.869 73.584 192.869 73.584C192.581 72.72 192.293 71.856 192.005 70.992C191.813 70.32 191.525 69.648 191.333 68.88C191.237 68.88 191.237 68.784 191.237 68.688C190.949 68.112 190.757 67.44 190.469 66.864C190.373 66.768 190.373 66.672 190.373 66.576C189.797 65.328 189.125 64.08 188.453 62.832C188.357 62.736 188.357 62.64 188.261 62.544C187.973 61.968 187.685 61.488 187.301 60.912L187.205 60.816C187.013 60.528 186.821 60.24 186.629 60.048C186.437 59.76 186.245 59.472 186.053 59.184C185.957 59.088 185.957 59.088 185.861 58.992C185.573 58.512 185.189 58.128 184.805 57.744C184.709 57.648 184.613 57.552 184.517 57.456C184.133 56.976 183.653 56.496 183.269 56.112C182.981 55.92 182.693 55.632 182.405 55.44C180.869 54.192 179.237 53.232 177.413 52.56C176.453 52.272 175.397 51.984 174.341 51.792V63.792C178.085 72.528 179.717 82.224 180.485 89.52H169.253C169.253 89.424 169.253 89.328 169.253 89.136C168.965 86.736 168.581 84.24 168.101 81.552C167.621 79.056 167.045 76.464 166.277 73.968C166.277 73.872 166.181 73.776 166.181 73.68C166.181 73.584 166.181 73.584 166.181 73.584C165.893 72.72 165.701 71.856 165.413 70.992C165.125 70.32 164.837 69.648 164.645 68.88C164.549 68.88 164.549 68.784 164.549 68.688C164.261 68.112 164.069 67.44 163.781 66.864C163.781 66.768 163.685 66.672 163.685 66.576C163.301 65.808 162.917 64.944 162.437 64.176C162.245 63.696 162.053 63.312 161.765 62.832C161.765 62.736 161.669 62.64 161.573 62.544C161.285 61.968 160.997 61.488 160.613 60.912L160.517 60.816C160.325 60.528 160.133 60.24 159.941 60.048C159.749 59.76 159.557 59.472 159.365 59.184C159.365 59.088 159.269 59.088 159.173 58.992C158.885 58.512 158.501 58.128 158.117 57.744C158.021 57.648 157.925 57.552 157.829 57.456C157.445 56.976 156.965 56.496 156.581 56.112C156.293 55.92 156.005 55.632 155.717 55.44C154.181 54.192 152.549 53.232 150.725 52.56C149.765 52.272 148.709 51.984 147.653 51.792V89.52H135.845V42.48L147.653 42.576C148.517 42.672 149.285 42.768 150.053 42.96C150.149 42.96 150.149 42.96 150.149 42.96C150.341 42.96 150.533 43.056 150.725 43.056C155.045 43.92 158.981 45.072 162.437 47.568V42.48L174.341 42.576C175.205 42.672 175.973 42.768 176.741 42.96C176.837 42.96 176.837 42.96 176.837 42.96C177.029 42.96 177.221 43.056 177.413 43.056C182.597 44.112 187.205 45.552 191.141 49.2C191.813 49.776 192.389 50.352 192.965 50.928C193.253 51.216 193.541 51.504 193.829 51.792C194.501 52.656 195.269 53.52 195.941 54.48C197.189 56.208 198.245 58.032 199.301 60.048ZM250.722 55.056C259.266 64.08 258.786 79.44 258.786 79.92V89.232H217.218V20.688H229.122V45.552C238.242 46.416 245.442 49.584 250.722 55.056ZM229.122 79.056H248.61C248.61 77.232 248.322 67.248 243.234 62.064C239.97 58.608 235.17 56.496 229.122 55.728V79.056ZM308.687 62.256C308.975 63.888 309.071 65.328 309.071 66.672V89.808H267.503V79.536C267.503 79.44 267.503 79.344 267.503 79.344C269.903 72.912 273.167 66.96 277.583 62.448C280.655 59.28 284.111 56.976 287.855 55.632C284.015 54.768 279.119 54.672 273.263 55.44L271.919 44.4C286.319 42.576 296.879 44.976 303.215 51.504C303.887 52.272 304.559 53.136 305.135 53.904C305.807 54.864 306.383 55.728 306.767 56.688C307.247 57.648 307.631 58.608 307.919 59.472C308.207 60.432 308.495 61.392 308.687 62.256ZM297.167 79.728V65.04C292.655 65.136 288.815 66.864 285.551 70.224C284.111 71.568 282.863 73.296 281.807 75.12C280.943 76.464 280.271 77.808 279.599 79.344C279.503 79.44 279.407 79.536 279.407 79.728H297.167ZM350.462 21.36C366.398 21.36 379.454 36.72 379.454 55.44C379.454 74.256 366.398 89.52 350.462 89.52C334.43 89.52 321.47 74.256 321.47 55.44C321.47 36.72 334.43 21.36 350.462 21.36ZM350.462 78.384C360.254 78.384 368.318 68.112 368.318 55.44C368.318 42.864 360.254 32.496 350.462 32.496C340.574 32.496 332.606 42.864 332.606 55.44C332.606 68.112 340.574 78.384 350.462 78.384ZM387.916 21.936H409.9V88.752H397.996V32.112H387.916V21.936Z" fill="url(#paint0_linear_5_9)"/>
<path d="M50.992 64.576H29.488V87.904H17.584V20.992H29.488V54.496H50.992V20.992H62.896V87.904H50.992V64.576ZM106.371 40.768H118.275V87.904L106.371 87.712C105.507 87.616 104.739 87.52 103.971 87.424H103.875C103.683 87.424 103.491 87.328 103.299 87.328C98.1145 86.272 93.5065 84.832 89.5705 81.184C88.8985 80.608 88.3225 80.032 87.7465 79.456C87.4585 79.168 87.1705 78.88 86.8825 78.496C86.2105 77.728 85.4425 76.768 84.8665 75.904C83.5225 74.176 82.4665 72.256 81.4105 70.336C76.4185 60.736 74.4025 49.216 73.6345 40.768H84.7705C84.7705 40.96 84.7705 41.056 84.8665 41.248C85.0585 43.648 85.4425 46.144 85.9225 48.736C86.4025 51.328 86.9785 53.92 87.7465 56.416C87.7465 56.512 87.8425 56.608 87.8425 56.704C88.1305 57.664 88.4185 58.528 88.7065 59.392C88.8985 60.064 89.1865 60.736 89.3785 61.408C89.4745 61.504 89.4745 61.6 89.4745 61.696C89.7625 62.272 89.9545 62.848 90.2425 63.52C90.3385 63.616 90.3385 63.616 90.3385 63.712C90.9145 65.056 91.5865 66.304 92.2585 67.456C92.3545 67.648 92.3545 67.744 92.4505 67.84C92.7385 68.416 93.0265 68.896 93.4105 69.376C93.4105 69.472 93.5065 69.472 93.5065 69.568C93.6985 69.856 93.8905 70.048 94.0825 70.336C94.2745 70.624 94.4665 70.912 94.6585 71.2C94.7545 71.2 94.7545 71.296 94.8505 71.392C95.1385 71.776 95.5225 72.256 95.9065 72.64C96.0025 72.736 96.0985 72.832 96.1945 72.928C96.5785 73.408 97.0585 73.888 97.4425 74.272C97.7305 74.464 98.0185 74.656 98.3065 74.944C99.8425 76.192 101.475 77.152 103.299 77.824C104.259 78.112 105.315 78.4 106.371 78.592V40.768ZM195.301 58.048C200.293 67.648 202.309 79.168 203.173 87.52H191.941C191.941 87.424 191.941 87.328 191.941 87.136C191.653 84.736 191.269 82.24 190.789 79.552C190.309 77.056 189.733 74.464 188.965 71.968C188.965 71.872 188.869 71.776 188.869 71.68C188.869 71.584 188.869 71.584 188.869 71.584C188.581 70.72 188.293 69.856 188.005 68.992C187.813 68.32 187.525 67.648 187.333 66.88C187.237 66.88 187.237 66.784 187.237 66.688C186.949 66.112 186.757 65.44 186.469 64.864C186.373 64.768 186.373 64.672 186.373 64.576C185.797 63.328 185.125 62.08 184.453 60.832C184.357 60.736 184.357 60.64 184.261 60.544C183.973 59.968 183.685 59.488 183.301 58.912L183.205 58.816C183.013 58.528 182.821 58.24 182.629 58.048C182.437 57.76 182.245 57.472 182.053 57.184C181.957 57.088 181.957 57.088 181.861 56.992C181.573 56.512 181.189 56.128 180.805 55.744C180.709 55.648 180.613 55.552 180.517 55.456C180.133 54.976 179.653 54.496 179.269 54.112C178.981 53.92 178.693 53.632 178.405 53.44C176.869 52.192 175.237 51.232 173.413 50.56C172.453 50.272 171.397 49.984 170.341 49.792V61.792C174.085 70.528 175.717 80.224 176.485 87.52H165.253C165.253 87.424 165.253 87.328 165.253 87.136C164.965 84.736 164.581 82.24 164.101 79.552C163.621 77.056 163.045 74.464 162.277 71.968C162.277 71.872 162.181 71.776 162.181 71.68C162.181 71.584 162.181 71.584 162.181 71.584C161.893 70.72 161.701 69.856 161.413 68.992C161.125 68.32 160.837 67.648 160.645 66.88C160.549 66.88 160.549 66.784 160.549 66.688C160.261 66.112 160.069 65.44 159.781 64.864C159.781 64.768 159.685 64.672 159.685 64.576C159.301 63.808 158.917 62.944 158.437 62.176C158.245 61.696 158.053 61.312 157.765 60.832C157.765 60.736 157.669 60.64 157.573 60.544C157.285 59.968 156.997 59.488 156.613 58.912L156.517 58.816C156.325 58.528 156.133 58.24 155.941 58.048C155.749 57.76 155.557 57.472 155.365 57.184C155.365 57.088 155.269 57.088 155.173 56.992C154.885 56.512 154.501 56.128 154.117 55.744C154.021 55.648 153.925 55.552 153.829 55.456C153.445 54.976 152.965 54.496 152.581 54.112C152.293 53.92 152.005 53.632 151.717 53.44C150.181 52.192 148.549 51.232 146.725 50.56C145.765 50.272 144.709 49.984 143.653 49.792V87.52H131.845V40.48L143.653 40.576C144.517 40.672 145.285 40.768 146.053 40.96C146.149 40.96 146.149 40.96 146.149 40.96C146.341 40.96 146.533 41.056 146.725 41.056C151.045 41.92 154.981 43.072 158.437 45.568V40.48L170.341 40.576C171.205 40.672 171.973 40.768 172.741 40.96C172.837 40.96 172.837 40.96 172.837 40.96C173.029 40.96 173.221 41.056 173.413 41.056C178.597 42.112 183.205 43.552 187.141 47.2C187.813 47.776 188.389 48.352 188.965 48.928C189.253 49.216 189.541 49.504 189.829 49.792C190.501 50.656 191.269 51.52 191.941 52.48C193.189 54.208 194.245 56.032 195.301 58.048ZM246.722 53.056C255.266 62.08 254.786 77.44 254.786 77.92V87.232H213.218V18.688H225.122V43.552C234.242 44.416 241.442 47.584 246.722 53.056ZM225.122 77.056H244.61C244.61 75.232 244.322 65.248 239.234 60.064C235.97 56.608 231.17 54.496 225.122 53.728V77.056ZM304.687 60.256C304.975 61.888 305.071 63.328 305.071 64.672V87.808H263.503V77.536C263.503 77.44 263.503 77.344 263.503 77.344C265.903 70.912 269.167 64.96 273.583 60.448C276.655 57.28 280.111 54.976 283.855 53.632C280.015 52.768 275.119 52.672 269.263 53.44L267.919 42.4C282.319 40.576 292.879 42.976 299.215 49.504C299.887 50.272 300.559 51.136 301.135 51.904C301.807 52.864 302.383 53.728 302.767 54.688C303.247 55.648 303.631 56.608 303.919 57.472C304.207 58.432 304.495 59.392 304.687 60.256ZM293.167 77.728V63.04C288.655 63.136 284.815 64.864 281.551 68.224C280.111 69.568 278.863 71.296 277.807 73.12C276.943 74.464 276.271 75.808 275.599 77.344C275.503 77.44 275.407 77.536 275.407 77.728H293.167ZM346.462 19.36C362.398 19.36 375.454 34.72 375.454 53.44C375.454 72.256 362.398 87.52 346.462 87.52C330.43 87.52 317.47 72.256 317.47 53.44C317.47 34.72 330.43 19.36 346.462 19.36ZM346.462 76.384C356.254 76.384 364.318 66.112 364.318 53.44C364.318 40.864 356.254 30.496 346.462 30.496C336.574 30.496 328.606 40.864 328.606 53.44C328.606 66.112 336.574 76.384 346.462 76.384ZM383.916 19.936H405.9V86.752H393.996V30.112H383.916V19.936Z" fill="url(#paint1_linear_5_9)"/>
<path d="M52.992 65.576H31.488V88.904H19.584V21.992H31.488V55.496H52.992V21.992H64.896V88.904H52.992V65.576ZM108.371 41.768H120.275V88.904L108.371 88.712C107.507 88.616 106.739 88.52 105.971 88.424H105.875C105.683 88.424 105.491 88.328 105.299 88.328C100.115 87.272 95.5065 85.832 91.5705 82.184C90.8985 81.608 90.3225 81.032 89.7465 80.456C89.4585 80.168 89.1705 79.88 88.8825 79.496C88.2105 78.728 87.4425 77.768 86.8665 76.904C85.5225 75.176 84.4665 73.256 83.4105 71.336C78.4185 61.736 76.4025 50.216 75.6345 41.768H86.7705C86.7705 41.96 86.7705 42.056 86.8665 42.248C87.0585 44.648 87.4425 47.144 87.9225 49.736C88.4025 52.328 88.9785 54.92 89.7465 57.416C89.7465 57.512 89.8425 57.608 89.8425 57.704C90.1305 58.664 90.4185 59.528 90.7065 60.392C90.8985 61.064 91.1865 61.736 91.3785 62.408C91.4745 62.504 91.4745 62.6 91.4745 62.696C91.7625 63.272 91.9545 63.848 92.2425 64.52C92.3385 64.616 92.3385 64.616 92.3385 64.712C92.9145 66.056 93.5865 67.304 94.2585 68.456C94.3545 68.648 94.3545 68.744 94.4505 68.84C94.7385 69.416 95.0265 69.896 95.4105 70.376C95.4105 70.472 95.5065 70.472 95.5065 70.568C95.6985 70.856 95.8905 71.048 96.0825 71.336C96.2745 71.624 96.4665 71.912 96.6585 72.2C96.7545 72.2 96.7545 72.296 96.8505 72.392C97.1385 72.776 97.5225 73.256 97.9065 73.64C98.0025 73.736 98.0985 73.832 98.1945 73.928C98.5785 74.408 99.0585 74.888 99.4425 75.272C99.7305 75.464 100.019 75.656 100.307 75.944C101.843 77.192 103.475 78.152 105.299 78.824C106.259 79.112 107.315 79.4 108.371 79.592V41.768ZM197.301 59.048C202.293 68.648 204.309 80.168 205.173 88.52H193.941C193.941 88.424 193.941 88.328 193.941 88.136C193.653 85.736 193.269 83.24 192.789 80.552C192.309 78.056 191.733 75.464 190.965 72.968C190.965 72.872 190.869 72.776 190.869 72.68C190.869 72.584 190.869 72.584 190.869 72.584C190.581 71.72 190.293 70.856 190.005 69.992C189.813 69.32 189.525 68.648 189.333 67.88C189.237 67.88 189.237 67.784 189.237 67.688C188.949 67.112 188.757 66.44 188.469 65.864C188.373 65.768 188.373 65.672 188.373 65.576C187.797 64.328 187.125 63.08 186.453 61.832C186.357 61.736 186.357 61.64 186.261 61.544C185.973 60.968 185.685 60.488 185.301 59.912L185.205 59.816C185.013 59.528 184.821 59.24 184.629 59.048C184.437 58.76 184.245 58.472 184.053 58.184C183.957 58.088 183.957 58.088 183.861 57.992C183.573 57.512 183.189 57.128 182.805 56.744C182.709 56.648 182.613 56.552 182.517 56.456C182.133 55.976 181.653 55.496 181.269 55.112C180.981 54.92 180.693 54.632 180.405 54.44C178.869 53.192 177.237 52.232 175.413 51.56C174.453 51.272 173.397 50.984 172.341 50.792V62.792C176.085 71.528 177.717 81.224 178.485 88.52H167.253C167.253 88.424 167.253 88.328 167.253 88.136C166.965 85.736 166.581 83.24 166.101 80.552C165.621 78.056 165.045 75.464 164.277 72.968C164.277 72.872 164.181 72.776 164.181 72.68C164.181 72.584 164.181 72.584 164.181 72.584C163.893 71.72 163.701 70.856 163.413 69.992C163.125 69.32 162.837 68.648 162.645 67.88C162.549 67.88 162.549 67.784 162.549 67.688C162.261 67.112 162.069 66.44 161.781 65.864C161.781 65.768 161.685 65.672 161.685 65.576C161.301 64.808 160.917 63.944 160.437 63.176C160.245 62.696 160.053 62.312 159.765 61.832C159.765 61.736 159.669 61.64 159.573 61.544C159.285 60.968 158.997 60.488 158.613 59.912L158.517 59.816C158.325 59.528 158.133 59.24 157.941 59.048C157.749 58.76 157.557 58.472 157.365 58.184C157.365 58.088 157.269 58.088 157.173 57.992C156.885 57.512 156.501 57.128 156.117 56.744C156.021 56.648 155.925 56.552 155.829 56.456C155.445 55.976 154.965 55.496 154.581 55.112C154.293 54.92 154.005 54.632 153.717 54.44C152.181 53.192 150.549 52.232 148.725 51.56C147.765 51.272 146.709 50.984 145.653 50.792V88.52H133.845V41.48L145.653 41.576C146.517 41.672 147.285 41.768 148.053 41.96C148.149 41.96 148.149 41.96 148.149 41.96C148.341 41.96 148.533 42.056 148.725 42.056C153.045 42.92 156.981 44.072 160.437 46.568V41.48L172.341 41.576C173.205 41.672 173.973 41.768 174.741 41.96C174.837 41.96 174.837 41.96 174.837 41.96C175.029 41.96 175.221 42.056 175.413 42.056C180.597 43.112 185.205 44.552 189.141 48.2C189.813 48.776 190.389 49.352 190.965 49.928C191.253 50.216 191.541 50.504 191.829 50.792C192.501 51.656 193.269 52.52 193.941 53.48C195.189 55.208 196.245 57.032 197.301 59.048ZM248.722 54.056C257.266 63.08 256.786 78.44 256.786 78.92V88.232H215.218V19.688H227.122V44.552C236.242 45.416 243.442 48.584 248.722 54.056ZM227.122 78.056H246.61C246.61 76.232 246.322 66.248 241.234 61.064C237.97 57.608 233.17 55.496 227.122 54.728V78.056ZM306.687 61.256C306.975 62.888 307.071 64.328 307.071 65.672V88.808H265.503V78.536C265.503 78.44 265.503 78.344 265.503 78.344C267.903 71.912 271.167 65.96 275.583 61.448C278.655 58.28 282.111 55.976 285.855 54.632C282.015 53.768 277.119 53.672 271.263 54.44L269.919 43.4C284.319 41.576 294.879 43.976 301.215 50.504C301.887 51.272 302.559 52.136 303.135 52.904C303.807 53.864 304.383 54.728 304.767 55.688C305.247 56.648 305.631 57.608 305.919 58.472C306.207 59.432 306.495 60.392 306.687 61.256ZM295.167 78.728V64.04C290.655 64.136 286.815 65.864 283.551 69.224C282.111 70.568 280.863 72.296 279.807 74.12C278.943 75.464 278.271 76.808 277.599 78.344C277.503 78.44 277.407 78.536 277.407 78.728H295.167ZM348.462 20.36C364.398 20.36 377.454 35.72 377.454 54.44C377.454 73.256 364.398 88.52 348.462 88.52C332.43 88.52 319.47 73.256 319.47 54.44C319.47 35.72 332.43 20.36 348.462 20.36ZM348.462 77.384C358.254 77.384 366.318 67.112 366.318 54.44C366.318 41.864 358.254 31.496 348.462 31.496C338.574 31.496 330.606 41.864 330.606 54.44C330.606 67.112 338.574 77.384 348.462 77.384ZM385.916 20.936H407.9V87.752H395.996V31.112H385.916V20.936Z" fill="url(#paint2_linear_5_9)"/>
<defs>
<linearGradient id="paint0_linear_5_9" x1="14" y1="60.5" x2="422" y2="60.5" gradientUnits="userSpaceOnUse">
<stop stop-color="#260DFF"/>
<stop offset="1" stop-color="#FFCAD9"/>
</linearGradient>
<linearGradient id="paint1_linear_5_9" x1="10" y1="59.5" x2="422" y2="59.5" gradientUnits="userSpaceOnUse">
<stop stop-color="#290159"/>
<stop offset="1" stop-color="#260DFF"/>
</linearGradient>
<linearGradient id="paint2_linear_5_9" x1="216.695" y1="56.2013" x2="216.695" y2="86.2987" gradientUnits="userSpaceOnUse">
<stop stop-color="white"/>
<stop offset="1" stop-color="#CDCDCD"/>
</linearGradient>
</defs>
</svg>
