<svg width="6000" height="1536" viewBox="0 0 6000 1536" fill="none" xmlns="http://www.w3.org/2000/svg">
<mask id="mask0_77_3" style="mask-type:alpha" maskUnits="userSpaceOnUse" x="0" y="0" width="6000" height="1536">
<rect width="6000" height="1536" fill="white"/>
</mask>
<g mask="url(#mask0_77_3)">
<rect width="6000" height="1536" fill="black"/>
<rect x="-295.632" y="-500.517" width="500" height="2900" transform="rotate(-5 -295.632 -500.517)" fill="#2D2C2D"/>
<rect x="-296.174" y="-500.972" width="501" height="2901" transform="rotate(-5 -296.174 -500.972)" stroke="black" stroke-opacity="0.8"/>
<rect x="-137.783" y="-500.517" width="500" height="2900" transform="rotate(-5 -137.783 -500.517)" fill="#392C31"/>
<rect x="-138.325" y="-500.972" width="501" height="2901" transform="rotate(-5 -138.325 -500.972)" stroke="black" stroke-opacity="0.8"/>
<rect x="20.0664" y="-500.517" width="500" height="2900" transform="rotate(-5 20.0664 -500.517)" fill="#452C35"/>
<rect x="19.5247" y="-500.972" width="501" height="2901" transform="rotate(-5 19.5247 -500.972)" stroke="black" stroke-opacity="0.8"/>
<rect x="177.916" y="-500.517" width="500" height="2900" transform="rotate(-5 177.916 -500.517)" fill="#522E3A"/>
<rect x="177.374" y="-500.972" width="501" height="2901" transform="rotate(-5 177.374 -500.972)" stroke="black" stroke-opacity="0.8"/>
<rect x="335.765" y="-500.517" width="500" height="2900" transform="rotate(-5 335.765 -500.517)" fill="#5B2E3D"/>
<rect x="335.223" y="-500.972" width="501" height="2901" transform="rotate(-5 335.223 -500.972)" stroke="black" stroke-opacity="0.8"/>
<rect x="493.614" y="-500.517" width="500" height="2900" transform="rotate(-5 493.614 -500.517)" fill="#662E41"/>
<rect x="493.072" y="-500.972" width="501" height="2901" transform="rotate(-5 493.072 -500.972)" stroke="black" stroke-opacity="0.8"/>
<rect x="651.463" y="-500.517" width="500" height="2900" transform="rotate(-5 651.463 -500.517)" fill="#712F45"/>
<rect x="650.921" y="-500.972" width="501" height="2901" transform="rotate(-5 650.921 -500.972)" stroke="black" stroke-opacity="0.8"/>
<rect x="809.312" y="-500.517" width="500" height="2900" transform="rotate(-5 809.312 -500.517)" fill="#782F48"/>
<rect x="808.77" y="-500.972" width="501" height="2901" transform="rotate(-5 808.77 -500.972)" stroke="black" stroke-opacity="0.8"/>
<rect x="967.161" y="-500.517" width="500" height="2900" transform="rotate(-5 967.161 -500.517)" fill="#89304E"/>
<rect x="966.619" y="-500.972" width="501" height="2901" transform="rotate(-5 966.619 -500.972)" stroke="black" stroke-opacity="0.8"/>
<rect x="1125.01" y="-500.517" width="500" height="2900" transform="rotate(-5 1125.01 -500.517)" fill="#842F4D"/>
<rect x="1124.47" y="-500.972" width="501" height="2901" transform="rotate(-5 1124.47 -500.972)" stroke="black" stroke-opacity="0.8"/>
<rect x="1282.86" y="-500.517" width="500" height="2900" transform="rotate(-5 1282.86 -500.517)" fill="#7E2E4C"/>
<rect x="1282.32" y="-500.972" width="501" height="2901" transform="rotate(-5 1282.32 -500.972)" stroke="black" stroke-opacity="0.8"/>
<rect x="1440.71" y="-500.517" width="500" height="2900" transform="rotate(-5 1440.71 -500.517)" fill="#782C4B"/>
<rect x="1440.17" y="-500.972" width="501" height="2901" transform="rotate(-5 1440.17 -500.972)" stroke="black" stroke-opacity="0.8"/>
<rect x="1598.56" y="-500.517" width="500" height="2900" transform="rotate(-5 1598.56 -500.517)" fill="#722B4A"/>
<rect x="1598.02" y="-500.972" width="501" height="2901" transform="rotate(-5 1598.02 -500.972)" stroke="black" stroke-opacity="0.8"/>
<rect x="1756.41" y="-500.517" width="500" height="2900" transform="rotate(-5 1756.41 -500.517)" fill="#6B2A49"/>
<rect x="1755.87" y="-500.972" width="501" height="2901" transform="rotate(-5 1755.87 -500.972)" stroke="black" stroke-opacity="0.8"/>
<rect x="1914.26" y="-500.517" width="500" height="2900" transform="rotate(-5 1914.26 -500.517)" fill="#652949"/>
<rect x="1913.71" y="-500.972" width="501" height="2901" transform="rotate(-5 1913.71 -500.972)" stroke="black" stroke-opacity="0.8"/>
<rect x="2072.1" y="-500.517" width="500" height="2900" transform="rotate(-5 2072.1 -500.517)" fill="#5E2748"/>
<rect x="2071.56" y="-500.972" width="501" height="2901" transform="rotate(-5 2071.56 -500.972)" stroke="black" stroke-opacity="0.8"/>
<rect x="2229.95" y="-500.517" width="500" height="2900" transform="rotate(-5 2229.95 -500.517)" fill="#532546"/>
<rect x="2229.41" y="-500.972" width="501" height="2901" transform="rotate(-5 2229.41 -500.972)" stroke="black" stroke-opacity="0.8"/>
<rect x="2387.8" y="-500.517" width="500" height="2900" transform="rotate(-5 2387.8 -500.517)" fill="#55264F"/>
<rect x="2387.26" y="-500.972" width="501" height="2901" transform="rotate(-5 2387.26 -500.972)" stroke="black" stroke-opacity="0.8"/>
<rect x="2545.65" y="-500.517" width="500" height="2900" transform="rotate(-5 2545.65 -500.517)" fill="#582757"/>
<rect x="2545.11" y="-500.972" width="501" height="2901" transform="rotate(-5 2545.11 -500.972)" stroke="black" stroke-opacity="0.8"/>
<rect x="2703.5" y="-500.517" width="500" height="2900" transform="rotate(-5 2703.5 -500.517)" fill="#5C2965"/>
<rect x="2702.96" y="-500.972" width="501" height="2901" transform="rotate(-5 2702.96 -500.972)" stroke="black" stroke-opacity="0.8"/>
<rect x="2861.35" y="-500.517" width="500" height="2900" transform="rotate(-5 2861.35 -500.517)" fill="#5E2A6B"/>
<rect x="2860.81" y="-500.972" width="501" height="2901" transform="rotate(-5 2860.81 -500.972)" stroke="black" stroke-opacity="0.8"/>
<rect x="3019.2" y="-500.517" width="500" height="2900" transform="rotate(-5 3019.2 -500.517)" fill="#602B74"/>
<rect x="3019.74" y="-500.063" width="499" height="2899" transform="rotate(-5 3019.74 -500.063)" stroke="black" stroke-opacity="0.5"/>
<rect x="3177.05" y="-500.517" width="500" height="2900" transform="rotate(-5 3177.05 -500.517)" fill="#542B83"/>
<rect x="3177.59" y="-500.063" width="499" height="2899" transform="rotate(-5 3177.59 -500.063)" stroke="black" stroke-opacity="0.5"/>
<rect x="3334.9" y="-500.517" width="500" height="2900" transform="rotate(-5 3334.9 -500.517)" fill="#492A8B"/>
<rect x="3335.44" y="-500.063" width="499" height="2899" transform="rotate(-5 3335.44 -500.063)" stroke="black" stroke-opacity="0.5"/>
<rect x="3492.75" y="-500.517" width="500" height="2900" transform="rotate(-5 3492.75 -500.517)" fill="#3D2897"/>
<rect x="3493.29" y="-500.063" width="499" height="2899" transform="rotate(-5 3493.29 -500.063)" stroke="black" stroke-opacity="0.5"/>
<rect x="3650.6" y="-500.517" width="500" height="2900" transform="rotate(-5 3650.6 -500.517)" fill="#2C27A8"/>
<rect x="3651.14" y="-500.063" width="499" height="2899" transform="rotate(-5 3651.14 -500.063)" stroke="black" stroke-opacity="0.5"/>
<rect x="3808.45" y="-500.517" width="500" height="2900" transform="rotate(-5 3808.45 -500.517)" fill="#2F2AA8"/>
<rect x="3808.99" y="-500.063" width="499" height="2899" transform="rotate(-5 3808.99 -500.063)" stroke="black" stroke-opacity="0.5"/>
<rect x="3966.29" y="-500.517" width="500" height="2900" transform="rotate(-5 3966.29 -500.517)" fill="#3E39A5"/>
<rect x="3966.84" y="-500.063" width="499" height="2899" transform="rotate(-5 3966.84 -500.063)" stroke="black" stroke-opacity="0.5"/>
<rect x="4124.14" y="-500.517" width="500" height="2900" transform="rotate(-5 4124.14 -500.517)" fill="#4A45A3"/>
<rect x="4124.68" y="-500.063" width="499" height="2899" transform="rotate(-5 4124.68 -500.063)" stroke="black" stroke-opacity="0.5"/>
<rect x="4281.99" y="-500.517" width="500" height="2900" transform="rotate(-5 4281.99 -500.517)" fill="#5A55A0"/>
<rect x="4282.53" y="-500.063" width="499" height="2899" transform="rotate(-5 4282.53 -500.063)" stroke="black" stroke-opacity="0.5"/>
<rect x="4439.84" y="-500.517" width="500" height="2900" transform="rotate(-5 4439.84 -500.517)" fill="#6A659F"/>
<rect x="4440.38" y="-500.063" width="499" height="2899" transform="rotate(-5 4440.38 -500.063)" stroke="black" stroke-opacity="0.5"/>
<rect x="4597.69" y="-500.517" width="500" height="2900" transform="rotate(-5 4597.69 -500.517)" fill="#7D799B"/>
<rect x="4598.23" y="-500.063" width="499" height="2899" transform="rotate(-5 4598.23 -500.063)" stroke="black" stroke-opacity="0.5"/>
<rect x="4755.54" y="-500.517" width="500" height="2900" transform="rotate(-5 4755.54 -500.517)" fill="#989398"/>
<rect x="4756.08" y="-500.063" width="499" height="2899" transform="rotate(-5 4756.08 -500.063)" stroke="black" stroke-opacity="0.5"/>
<rect x="4913.39" y="-500.517" width="500" height="2900" transform="rotate(-5 4913.39 -500.517)" fill="#A6A295"/>
<rect x="4913.93" y="-500.063" width="499" height="2899" transform="rotate(-5 4913.93 -500.063)" stroke="black" stroke-opacity="0.5"/>
<rect x="5071.24" y="-500.517" width="500" height="2900" transform="rotate(-5 5071.24 -500.517)" fill="#C4BF91"/>
<rect x="5071.78" y="-500.063" width="499" height="2899" transform="rotate(-5 5071.78 -500.063)" stroke="black" stroke-opacity="0.5"/>
<rect x="5229.08" y="-500.517" width="500" height="2900" transform="rotate(-5 5229.08 -500.517)" fill="#DFDB8D"/>
<rect x="5229.63" y="-500.063" width="499" height="2899" transform="rotate(-5 5229.63 -500.063)" stroke="black" stroke-opacity="0.5"/>
<rect x="5386.93" y="-500.517" width="500" height="2900" transform="rotate(-5 5386.93 -500.517)" fill="#F0EC8A"/>
<rect x="5387.48" y="-500.063" width="499" height="2899" transform="rotate(-5 5387.48 -500.063)" stroke="black" stroke-opacity="0.5"/>
<rect x="5544.78" y="-500.517" width="500" height="2900" transform="rotate(-5 5544.78 -500.517)" fill="#FFFB88"/>
<rect x="5545.32" y="-500.063" width="499" height="2899" transform="rotate(-5 5545.32 -500.063)" stroke="black" stroke-opacity="0.5"/>
<path d="M1258.2 1048H1068.36V487.844H1258.2V708.938C1263.67 698.26 1276.43 692.922 1296.48 692.922H1413.28V487.844H1602.73V1048H1413.28V823.391C1410.16 829.641 1405.47 833.807 1399.22 835.891C1393.23 837.974 1385.16 839.016 1375 839.016H1258.2V1048ZM1786.72 1057.77C1739.06 1057.77 1702.47 1040.71 1676.95 1006.59C1651.43 972.479 1638.67 917.531 1638.67 841.75V567.922H1825.78V738.234C1825.78 750.995 1825.91 761.542 1826.17 769.875C1826.43 778.208 1827.08 787.714 1828.12 798.391C1829.43 808.807 1831.25 817.401 1833.59 824.172C1836.2 830.682 1839.45 837.062 1843.36 843.312C1847.53 849.302 1852.86 853.729 1859.38 856.594C1865.89 859.458 1873.44 860.891 1882.03 860.891C1889.32 860.891 1895.57 860.109 1900.78 858.547C1905.99 856.724 1911.46 852.688 1917.19 846.438C1923.18 839.927 1927.86 831.073 1931.25 819.875C1934.9 808.677 1937.89 793.052 1940.23 773C1942.84 752.688 1944.14 728.339 1944.14 699.953V567.922H2131.64V1048H1941.8L1972.27 775.344H1964.06C1958.59 828.208 1951.56 872.089 1942.97 906.984C1934.64 941.88 1923.44 970.917 1909.38 994.094C1895.31 1017.01 1878.39 1033.42 1858.59 1043.31C1839.06 1052.95 1815.1 1057.77 1786.72 1057.77ZM2350.78 1048H2163.67V567.922H2353.12L2320.31 840.969H2328.52C2339.71 738.104 2357.42 665.318 2381.64 622.609C2406.12 579.901 2443.62 558.547 2494.14 558.547C2515.23 558.547 2533.72 562.193 2549.61 569.484C2565.76 576.776 2578.52 586.151 2587.89 597.609C2597.27 609.068 2604.82 623.391 2610.55 640.578C2616.54 657.505 2620.44 674.302 2622.27 690.969C2624.35 707.635 2625.39 726.125 2625.39 746.438C2625.39 769.875 2623.7 801.385 2620.31 840.969H2627.73C2635.03 745.656 2652.21 674.823 2679.3 628.469C2706.38 581.854 2745.7 558.547 2797.27 558.547C2844.92 558.547 2880.08 575.604 2902.73 609.719C2925.65 643.573 2937.11 699.042 2937.11 776.125V1048H2750V894.484C2750 892.141 2750 888.755 2750 884.328C2750 875.995 2750 869.745 2750 865.578C2750 861.151 2749.87 855.031 2749.61 847.219C2749.61 839.146 2749.35 832.896 2748.83 828.469C2748.31 824.042 2747.66 818.443 2746.88 811.672C2746.09 804.901 2745.05 799.562 2743.75 795.656C2742.45 791.75 2740.89 787.323 2739.06 782.375C2737.5 777.167 2735.42 773.13 2732.81 770.266C2730.21 767.401 2727.34 764.667 2724.22 762.062C2721.09 759.198 2717.45 757.245 2713.28 756.203C2709.11 754.901 2704.56 754.25 2699.61 754.25C2678.26 754.25 2663.67 770.135 2655.86 801.906C2648.31 833.417 2644.53 882.635 2644.53 949.562V1048H2457.42V861.672C2457.42 851.255 2457.16 842.271 2456.64 834.719C2456.38 826.906 2455.73 818.573 2454.69 809.719C2453.65 800.604 2451.95 793.052 2449.61 787.062C2447.53 781.073 2444.79 775.474 2441.41 770.266C2438.02 764.797 2433.59 760.76 2428.12 758.156C2422.66 755.552 2416.41 754.25 2409.38 754.25C2402.34 754.25 2395.96 755.422 2390.23 757.766C2384.77 760.109 2379.95 764.146 2375.78 769.875C2371.88 775.604 2368.49 781.464 2365.62 787.453C2362.76 793.443 2360.42 802.167 2358.59 813.625C2356.77 824.823 2355.34 834.979 2354.3 844.094C2353.26 853.208 2352.47 865.969 2351.95 882.375C2351.43 898.521 2351.04 912.453 2350.78 924.172C2350.78 935.891 2350.78 952.036 2350.78 972.609V1048ZM3306.64 1057.77C3288.41 1057.77 3271.48 1054.9 3255.86 1049.17C3240.23 1043.7 3225 1034.72 3210.16 1022.22C3195.57 1009.46 3182.68 991.359 3171.48 967.922C3160.55 944.224 3152.34 915.969 3146.88 883.156H3140.23L3157.03 1048H2969.14V448H3150V631.984L3132.42 748H3141.8C3143.1 724.562 3146.09 703.339 3150.78 684.328C3155.47 665.057 3161.07 649.042 3167.58 636.281C3174.35 623.26 3182.29 611.932 3191.41 602.297C3200.52 592.661 3209.64 585.109 3218.75 579.641C3227.86 574.172 3237.89 569.875 3248.83 566.75C3259.77 563.365 3269.66 561.151 3278.52 560.109C3287.37 559.068 3296.74 558.547 3306.64 558.547C3345.7 558.547 3379.82 570.005 3408.98 592.922C3438.41 615.839 3460.42 646.047 3475 683.547C3489.84 721.047 3497.27 762.844 3497.27 808.938C3497.27 855.031 3489.97 896.698 3475.39 933.938C3460.81 971.177 3438.8 1001.12 3409.38 1023.78C3380.21 1046.44 3345.96 1057.77 3306.64 1057.77ZM3225.78 884.719C3254.69 884.719 3278.12 878.599 3296.09 866.359C3314.32 853.859 3323.44 835.76 3323.44 812.062C3323.44 787.844 3314.45 769.615 3296.48 757.375C3278.52 745.135 3254.95 739.016 3225.78 739.016C3196.61 739.016 3172.92 745.135 3154.69 757.375C3136.46 769.615 3127.34 787.844 3127.34 812.062C3127.34 835.76 3136.46 853.859 3154.69 866.359C3172.92 878.599 3196.61 884.719 3225.78 884.719ZM3656.25 1057.77C3635.16 1057.77 3615.49 1055.16 3597.27 1049.95C3579.3 1044.74 3563.02 1036.93 3548.44 1026.52C3533.85 1016.1 3522.4 1002.04 3514.06 984.328C3505.73 966.359 3501.56 945.656 3501.56 922.219C3501.56 898.781 3506.12 877.818 3515.23 859.328C3524.61 840.839 3536.72 825.865 3551.56 814.406C3566.41 802.948 3584.11 793.443 3604.69 785.891C3625.52 778.339 3646.48 773.13 3667.58 770.266C3688.67 767.141 3710.94 765.578 3734.38 765.578C3763.02 765.578 3790.49 767.661 3816.8 771.828V764.797C3805.08 741.359 3773.31 729.641 3721.48 729.641C3693.36 729.641 3664.45 734.719 3634.77 744.875C3605.34 754.771 3579.95 767.531 3558.59 783.156H3548.05V601.516C3573.83 589.276 3604.04 579.12 3638.67 571.047C3673.57 562.714 3709.51 558.547 3746.48 558.547C3824.87 558.547 3886.98 579.51 3932.81 621.438C3978.65 663.104 4001.56 719.094 4001.56 789.406V1048H3819.92V1032.77L3843.36 837.453H3834.38C3832.03 911.411 3815.36 966.62 3784.38 1003.08C3753.39 1039.54 3710.68 1057.77 3656.25 1057.77ZM3722.27 924.172C3745.18 924.172 3763.67 915.969 3777.73 899.562C3792.06 882.896 3800.26 861.932 3802.34 836.672H3767.19C3734.64 836.672 3711.33 841.75 3697.27 851.906C3683.2 862.062 3676.17 874.302 3676.17 888.625C3676.17 900.083 3680.6 908.938 3689.45 915.188C3698.31 921.177 3709.24 924.172 3722.27 924.172ZM4409.38 1035.11C4375.26 1050.21 4337.37 1057.77 4295.7 1057.77C4254.04 1057.77 4216.02 1050.21 4181.64 1035.11C4147.27 1020.01 4118.75 999.432 4096.09 973.391C4073.7 947.089 4056.38 916.49 4044.14 881.594C4031.9 846.438 4025.78 808.807 4025.78 768.703C4025.78 728.859 4031.9 691.359 4044.14 656.203C4056.64 621.047 4074.22 590.318 4096.88 564.016C4119.53 537.453 4147.92 516.62 4182.03 501.516C4216.41 486.151 4254.3 478.469 4295.7 478.469C4328.78 478.469 4359.64 483.417 4388.28 493.312C4417.19 503.208 4442.19 517.01 4463.28 534.719C4484.64 552.427 4502.86 573.391 4517.97 597.609C4533.07 621.828 4544.4 648.521 4551.95 677.688C4559.77 706.594 4563.67 736.932 4563.67 768.703C4563.67 808.807 4557.55 846.438 4545.31 881.594C4533.33 916.49 4516.15 947.089 4493.75 973.391C4471.61 999.432 4443.49 1020.01 4409.38 1035.11ZM4295.7 885.5C4325.13 885.5 4349.35 875.474 4368.36 855.422C4387.63 835.109 4397.27 809.979 4397.27 780.031C4397.27 774.042 4396.74 767.922 4395.7 761.672C4394.66 755.161 4393.49 749.953 4392.19 746.047C4391.15 742.141 4389.45 736.932 4387.11 730.422C4385.03 723.911 4383.59 719.354 4382.81 716.75C4380.21 708.156 4378.39 700.474 4377.34 693.703C4376.56 686.932 4377.21 678.729 4379.3 669.094C4381.38 659.458 4385.42 649.432 4391.41 639.016L4384.38 634.328L4245.31 873.781C4259.9 881.594 4276.69 885.5 4295.7 885.5ZM4189.84 899.953L4195.7 903.078L4339.45 662.453C4325.91 655.943 4311.33 652.688 4295.7 652.688C4265.49 652.688 4241.15 662.193 4222.66 681.203C4204.17 699.953 4194.92 725.474 4194.92 757.766C4194.92 764.797 4195.31 771.698 4196.09 778.469C4196.88 784.979 4198.18 792.792 4200 801.906C4202.08 811.021 4203.26 816.75 4203.52 819.094C4208.2 846.177 4203.65 873.13 4189.84 899.953ZM4935.94 1048H4587.89V908.156H4674.22V761.672C4674.22 728.859 4685.42 695.266 4707.81 660.891L4700 656.984C4682.55 693.703 4666.28 717.792 4651.17 729.25C4636.07 740.708 4614.97 746.438 4587.89 746.438V584.719C4619.92 584.719 4648.57 576.125 4673.83 558.938C4699.09 541.75 4716.02 518.052 4724.61 487.844H4864.06V908.156H4935.94V1048Z" fill="white"/>
</g>
</svg>
