<svg width="612" height="61" viewBox="0 0 612 61" fill="none" xmlns="http://www.w3.org/2000/svg">
<mask id="mask0_226_141" style="mask-type:alpha" maskUnits="userSpaceOnUse" x="0" y="0" width="612" height="61">
<rect width="612" height="61" rx="0.5" fill="url(#paint0_linear_226_141)"/>
</mask>
<g mask="url(#mask0_226_141)">
<rect width="612" height="61" fill="url(#paint1_linear_226_141)"/>
<path d="M300 35H291.667L306.667 13.3333H310L308.333 26.6667H318.333" stroke="black" stroke-width="2" stroke-linejoin="round"/>
<path d="M294 35H285.667L300.667 13.3333H304L302.333 26.6667H312.333" stroke="black" stroke-opacity="0.8" stroke-width="2" stroke-linejoin="round"/>
<path d="M288 35H279.667L294.667 13.3333H298L296.333 26.6667H306.333" stroke="black" stroke-opacity="0.6" stroke-width="2" stroke-linejoin="round"/>
<path d="M282 35H273.667L288.667 13.3333H292L290.333 26.6667H300.333" stroke="black" stroke-opacity="0.4" stroke-width="2" stroke-linejoin="round"/>
<path d="M276 35H267.667L282.667 13.3333H286L284.333 26.6667H294.333" stroke="black" stroke-opacity="0.2" stroke-width="2" stroke-linejoin="round"/>
<path d="M270 35H261.667L276.667 13.3333H280L278.333 26.6667H288.333" stroke="black" stroke-opacity="0.1" stroke-width="2" stroke-linejoin="round"/>
<path d="M264 35H255.667L270.667 13.3333H274L272.333 26.6667H282.333" stroke="black" stroke-opacity="0.05" stroke-width="2" stroke-linejoin="round"/>
<path d="M293.667 37H302L300.333 48.6667H303.667L320.333 28.6667H310.333" stroke="black" stroke-width="2" stroke-linejoin="round"/>
<path d="M299.667 37H308L306.333 48.6667H309.667L326.333 28.6667H316.333" stroke="black" stroke-opacity="0.8" stroke-width="2" stroke-linejoin="round"/>
<path d="M305.667 37H314L312.333 48.6667H315.667L332.333 28.6667H322.333" stroke="black" stroke-opacity="0.6" stroke-width="2" stroke-linejoin="round"/>
<path d="M311.667 37H320L318.333 48.6667H321.667L338.333 28.6667H328.333" stroke="black" stroke-opacity="0.4" stroke-width="2" stroke-linejoin="round"/>
<path d="M317.667 37H326L324.333 48.6667H327.667L344.333 28.6667H334.333" stroke="black" stroke-opacity="0.2" stroke-width="2" stroke-linejoin="round"/>
<path d="M323.667 37H332L330.333 48.6667H333.667L350.333 28.6667H340.333" stroke="black" stroke-opacity="0.1" stroke-width="2" stroke-linejoin="round"/>
<path d="M329.667 37H338L336.333 48.6667H339.667L356.333 28.6667H346.333" stroke="black" stroke-opacity="0.05" stroke-width="2" stroke-linejoin="round"/>
<mask id="mask1_226_141" style="mask-type:alpha" maskUnits="userSpaceOnUse" x="286" y="11" width="40" height="40">
<rect x="286" y="11" width="40" height="40" fill="#D9D9D9"/>
</mask>
<g mask="url(#mask1_226_141)">
<path d="M299.333 47.6667L301 36H292.667L307.667 14.3333H311L309.333 27.6667H319.333L302.667 47.6667H299.333Z" fill="white"/>
</g>
</g>
<defs>
<linearGradient id="paint0_linear_226_141" x1="0" y1="30.5" x2="612" y2="30.5" gradientUnits="userSpaceOnUse">
<stop stop-color="#16189B"/>
<stop offset="1" stop-color="#D55EEB"/>
</linearGradient>
<linearGradient id="paint1_linear_226_141" x1="0" y1="30.5" x2="612" y2="30.5" gradientUnits="userSpaceOnUse">
<stop stop-color="#16189B"/>
<stop offset="1" stop-color="#D55EEB"/>
</linearGradient>
</defs>
</svg>
