<svg width="4000" height="513" viewBox="0 0 4000 513" fill="none" xmlns="http://www.w3.org/2000/svg">
<mask id="mask0_50_2" style="mask-type:alpha" maskUnits="userSpaceOnUse" x="0" y="0" width="4000" height="513">
<rect width="4000" height="512.5" fill="#D9D9D9"/>
</mask>
<g mask="url(#mask0_50_2)">
<rect x="-236.384" y="428.631" width="955" height="1731.25" transform="rotate(-65.236 -236.384 428.631)" fill="#F7374F"/>
<rect x="324.454" y="398.24" width="955" height="1731.25" transform="rotate(-65.236 324.454 398.24)" fill="#88304E"/>
<rect x="762.409" y="411.583" width="955" height="1731.25" transform="rotate(-65.236 762.409 411.583)" fill="#522546"/>
<rect x="1189.46" y="442.381" width="955" height="1731.25" transform="rotate(-65.236 1189.46 442.381)" fill="#2C2C2C"/>
<rect x="1734.74" y="425.876" width="955" height="1731.25" transform="rotate(-65.236 1734.74 425.876)" fill="#0E21A0"/>
<rect x="2440.16" y="359.511" width="955" height="1731.25" rx="18" transform="rotate(-60 2440.16 359.511)" fill="#4D2FB2"/>
<rect x="3059.61" y="217.679" width="955" height="1731.25" rx="18" transform="rotate(-60 3059.61 217.679)" fill="#B153D7"/>
<rect x="3664.4" y="71.758" width="955" height="1731.25" rx="18" transform="rotate(-60 3664.4 71.758)" fill="#F375C2"/>
<rect x="2309.18" y="129.387" width="1532.24" height="227.758" fill="#190626"/>
<path d="M1021.49 126.5H1093.89V210.1H1155.89V126.5H1228.29V354.5H1155.89V256.1H1093.89V354.5H1021.49V126.5ZM1449.15 170.5V354.5H1393.55L1385.95 323.7C1366.75 346.9 1343.82 358.5 1317.15 358.5C1307.55 358.5 1298.48 357.167 1289.95 354.5C1281.68 351.833 1275.42 347.967 1271.15 342.9C1268.75 339.967 1266.88 332.633 1265.55 320.9C1264.48 309.167 1263.95 291.3 1263.95 267.3V170.5H1332.35V266.5C1332.35 271.833 1332.48 278.1 1332.75 285.3C1333.02 292.5 1333.82 297.033 1335.15 298.9C1337.02 301.567 1342.35 302.9 1351.15 302.9L1357.55 302.5C1365.02 302.233 1372.75 300.5 1380.75 297.3V170.5H1449.15ZM1769.55 183.3C1773.81 189.7 1775.95 214.5 1775.95 257.7V354.5H1707.55V264.5V242.9C1707.55 233.033 1706.61 227.167 1704.75 225.3C1702.61 223.167 1698.08 222.1 1691.15 222.1L1686.35 222.5C1678.08 223.033 1670.21 224.9 1662.75 228.1C1663.01 233.7 1663.15 243.567 1663.15 257.7V354.5H1594.75V264.5V240.5C1594.75 232.233 1593.81 227.167 1591.95 225.3C1589.81 223.167 1585.28 222.1 1578.35 222.1L1573.55 222.5C1566.08 222.767 1558.35 224.5 1550.35 227.7V354.5H1481.95V170.5H1537.55L1544.75 200.5C1553.55 188.767 1563.68 180.233 1575.15 174.9C1586.61 169.3 1598.21 166.5 1609.95 166.5C1619.81 166.5 1629.15 167.967 1637.95 170.9C1647.01 173.833 1653.28 177.967 1656.75 183.3C1658.35 185.7 1659.68 190.1 1660.75 196.5C1669.28 186.1 1679.01 178.5 1689.95 173.7C1700.88 168.9 1711.81 166.5 1722.75 166.5C1732.61 166.5 1741.95 167.967 1750.75 170.9C1759.81 173.833 1766.08 177.967 1769.55 183.3ZM1931.33 166.5C1952.13 166.5 1968.13 172.767 1979.33 185.3C1990.79 197.833 1996.53 219.967 1996.53 251.7C1996.53 274.9 1994.13 294.767 1989.33 311.3C1984.79 327.567 1979.59 337.967 1973.73 342.5C1966.79 348.1 1956.53 352.233 1942.93 354.9C1929.33 357.567 1913.86 358.9 1896.53 358.9C1883.19 358.9 1868.26 357.833 1851.73 355.7C1835.19 353.833 1820.39 350.767 1807.33 346.5V114.5L1876.53 111.7V149.3C1876.53 151.433 1876.39 156.367 1876.13 164.1C1876.13 171.833 1875.86 178.367 1875.33 183.7C1874.79 188.767 1873.99 192.633 1872.93 195.3L1875.33 198.1C1881.46 188.767 1889.19 181.167 1898.53 175.3C1907.86 169.433 1918.79 166.5 1931.33 166.5ZM1920.13 310.9C1921.73 308.233 1923.06 301.967 1924.13 292.1C1925.46 282.233 1926.13 272.767 1926.13 263.7C1926.13 253.033 1925.59 244.633 1924.53 238.5C1923.73 232.367 1921.46 227.567 1917.73 224.1C1914.26 220.367 1908.79 218.5 1901.33 218.5C1894.66 218.5 1886.13 219.433 1875.73 221.3V311.7C1885.59 313.3 1895.86 314.1 1906.53 314.1C1914.26 314.1 1918.79 313.033 1920.13 310.9ZM2132.56 354.5L2126.16 329.3C2113.89 349.3 2096.83 359.3 2074.96 359.3C2057.09 359.3 2042.43 354.367 2030.96 344.5C2019.76 334.367 2014.16 320.233 2014.16 302.1C2014.16 290.9 2017.36 281.167 2023.76 272.9C2030.43 264.367 2039.49 258.367 2050.96 254.9C2065.89 250.633 2088.96 248.233 2120.16 247.7C2120.16 230.1 2119.36 220.767 2117.76 219.7C2116.43 218.633 2112.16 218.1 2104.96 218.1C2100.43 218.1 2094.16 218.367 2086.16 218.9C2073.36 219.433 2056.03 220.9 2034.16 223.3C2032.03 208.9 2030.43 193.433 2029.36 176.9C2043.49 173.967 2058.29 171.567 2073.76 169.7C2089.23 167.567 2103.09 166.5 2115.36 166.5C2136.69 166.5 2152.69 170.1 2163.36 177.3C2174.03 184.233 2180.96 193.433 2184.16 204.9C2187.36 216.367 2188.83 230.9 2188.56 248.5L2188.16 307.3L2189.36 354.5H2132.56ZM2098.16 314.5C2105.09 314.5 2112.43 313.167 2120.16 310.5V280.9H2116.96C2097.23 280.9 2086.29 281.967 2084.16 284.1C2082.83 285.433 2081.76 287.433 2080.96 290.1C2080.43 292.767 2080.16 295.3 2080.16 297.7C2080.16 304.1 2081.63 308.5 2084.56 310.9C2087.49 313.3 2092.03 314.5 2098.16 314.5ZM2314.65 123.7C2336.78 123.7 2355.18 126.633 2369.85 132.5C2384.51 138.1 2396.11 149.567 2404.65 166.9C2413.18 183.967 2417.45 208.9 2417.45 241.7C2417.45 273.167 2413.31 297.567 2405.05 314.9C2396.78 331.967 2385.18 343.7 2370.25 350.1C2355.58 356.5 2337.18 359.7 2315.05 359.7C2283.05 359.7 2258.51 351.3 2241.45 334.5C2224.38 317.433 2215.85 288.233 2215.85 246.9C2215.85 205.3 2224.11 174.367 2240.65 154.1C2257.18 133.833 2281.85 123.7 2314.65 123.7ZM2317.05 308.1C2330.38 308.1 2339.05 302.9 2343.05 292.5C2347.05 281.833 2349.05 265.167 2349.05 242.5C2349.05 219.3 2346.65 202.233 2341.85 191.3C2337.05 180.1 2327.98 174.5 2314.65 174.5C2305.31 174.5 2299.05 176.1 2295.85 179.3C2293.45 181.967 2291.31 189.967 2289.45 203.3C2287.85 216.633 2287.05 230.233 2287.05 244.1C2287.05 267.567 2289.31 284.1 2293.85 293.7C2298.65 303.3 2306.38 308.1 2317.05 308.1ZM2557.99 126.5V354.5H2487.99V184.1L2438.39 194.5L2430.79 152.5L2501.59 126.5H2557.99Z" fill="#1D062D"/>
<path d="M985.032 126.5H1057.43V210.1H1119.43V126.5H1191.83V354.5H1119.43V256.1H1057.43V354.5H985.032V126.5ZM1412.69 170.5V354.5H1357.09L1349.49 323.7C1330.29 346.9 1307.36 358.5 1280.69 358.5C1271.09 358.5 1262.02 357.167 1253.49 354.5C1245.22 351.833 1238.95 347.967 1234.69 342.9C1232.29 339.967 1230.42 332.633 1229.09 320.9C1228.02 309.167 1227.49 291.3 1227.49 267.3V170.5H1295.89V266.5C1295.89 271.833 1296.02 278.1 1296.29 285.3C1296.56 292.5 1297.36 297.033 1298.69 298.9C1300.55 301.567 1305.89 302.9 1314.69 302.9L1321.09 302.5C1328.56 302.233 1336.29 300.5 1344.29 297.3V170.5H1412.69ZM1733.09 183.3C1737.35 189.7 1739.49 214.5 1739.49 257.7V354.5H1671.09V264.5V242.9C1671.09 233.033 1670.15 227.167 1668.29 225.3C1666.15 223.167 1661.62 222.1 1654.69 222.1L1649.89 222.5C1641.62 223.033 1633.75 224.9 1626.29 228.1C1626.55 233.7 1626.69 243.567 1626.69 257.7V354.5H1558.29V264.5V240.5C1558.29 232.233 1557.35 227.167 1555.49 225.3C1553.35 223.167 1548.82 222.1 1541.89 222.1L1537.09 222.5C1529.62 222.767 1521.89 224.5 1513.89 227.7V354.5H1445.49V170.5H1501.09L1508.29 200.5C1517.09 188.767 1527.22 180.233 1538.69 174.9C1550.15 169.3 1561.75 166.5 1573.49 166.5C1583.35 166.5 1592.69 167.967 1601.49 170.9C1610.55 173.833 1616.82 177.967 1620.29 183.3C1621.89 185.7 1623.22 190.1 1624.29 196.5C1632.82 186.1 1642.55 178.5 1653.49 173.7C1664.42 168.9 1675.35 166.5 1686.29 166.5C1696.15 166.5 1705.49 167.967 1714.29 170.9C1723.35 173.833 1729.62 177.967 1733.09 183.3ZM1894.87 166.5C1915.67 166.5 1931.67 172.767 1942.87 185.3C1954.33 197.833 1960.07 219.967 1960.07 251.7C1960.07 274.9 1957.67 294.767 1952.87 311.3C1948.33 327.567 1943.13 337.967 1937.27 342.5C1930.33 348.1 1920.07 352.233 1906.47 354.9C1892.87 357.567 1877.4 358.9 1860.07 358.9C1846.73 358.9 1831.8 357.833 1815.27 355.7C1798.73 353.833 1783.93 350.767 1770.87 346.5V114.5L1840.07 111.7V149.3C1840.07 151.433 1839.93 156.367 1839.67 164.1C1839.67 171.833 1839.4 178.367 1838.87 183.7C1838.33 188.767 1837.53 192.633 1836.47 195.3L1838.87 198.1C1845 188.767 1852.73 181.167 1862.07 175.3C1871.4 169.433 1882.33 166.5 1894.87 166.5ZM1883.67 310.9C1885.27 308.233 1886.6 301.967 1887.67 292.1C1889 282.233 1889.67 272.767 1889.67 263.7C1889.67 253.033 1889.13 244.633 1888.07 238.5C1887.27 232.367 1885 227.567 1881.27 224.1C1877.8 220.367 1872.33 218.5 1864.87 218.5C1858.2 218.5 1849.67 219.433 1839.27 221.3V311.7C1849.13 313.3 1859.4 314.1 1870.07 314.1C1877.8 314.1 1882.33 313.033 1883.67 310.9ZM2096.1 354.5L2089.7 329.3C2077.43 349.3 2060.37 359.3 2038.5 359.3C2020.63 359.3 2005.97 354.367 1994.5 344.5C1983.3 334.367 1977.7 320.233 1977.7 302.1C1977.7 290.9 1980.9 281.167 1987.3 272.9C1993.97 264.367 2003.03 258.367 2014.5 254.9C2029.43 250.633 2052.5 248.233 2083.7 247.7C2083.7 230.1 2082.9 220.767 2081.3 219.7C2079.97 218.633 2075.7 218.1 2068.5 218.1C2063.97 218.1 2057.7 218.367 2049.7 218.9C2036.9 219.433 2019.57 220.9 1997.7 223.3C1995.57 208.9 1993.97 193.433 1992.9 176.9C2007.03 173.967 2021.83 171.567 2037.3 169.7C2052.77 167.567 2066.63 166.5 2078.9 166.5C2100.23 166.5 2116.23 170.1 2126.9 177.3C2137.57 184.233 2144.5 193.433 2147.7 204.9C2150.9 216.367 2152.37 230.9 2152.1 248.5L2151.7 307.3L2152.9 354.5H2096.1ZM2061.7 314.5C2068.63 314.5 2075.97 313.167 2083.7 310.5V280.9H2080.5C2060.77 280.9 2049.83 281.967 2047.7 284.1C2046.37 285.433 2045.3 287.433 2044.5 290.1C2043.97 292.767 2043.7 295.3 2043.7 297.7C2043.7 304.1 2045.17 308.5 2048.1 310.9C2051.03 313.3 2055.57 314.5 2061.7 314.5ZM2278.19 123.7C2300.32 123.7 2318.72 126.633 2333.39 132.5C2348.05 138.1 2359.65 149.567 2368.19 166.9C2376.72 183.967 2380.99 208.9 2380.99 241.7C2380.99 273.167 2376.85 297.567 2368.59 314.9C2360.32 331.967 2348.72 343.7 2333.79 350.1C2319.12 356.5 2300.72 359.7 2278.59 359.7C2246.59 359.7 2222.05 351.3 2204.99 334.5C2187.92 317.433 2179.39 288.233 2179.39 246.9C2179.39 205.3 2187.65 174.367 2204.19 154.1C2220.72 133.833 2245.39 123.7 2278.19 123.7ZM2280.59 308.1C2293.92 308.1 2302.59 302.9 2306.59 292.5C2310.59 281.833 2312.59 265.167 2312.59 242.5C2312.59 219.3 2310.19 202.233 2305.39 191.3C2300.59 180.1 2291.52 174.5 2278.19 174.5C2268.85 174.5 2262.59 176.1 2259.39 179.3C2256.99 181.967 2254.85 189.967 2252.99 203.3C2251.39 216.633 2250.59 230.233 2250.59 244.1C2250.59 267.567 2252.85 284.1 2257.39 293.7C2262.19 303.3 2269.92 308.1 2280.59 308.1ZM2521.53 126.5V354.5H2451.53V184.1L2401.93 194.5L2394.33 152.5L2465.13 126.5H2521.53Z" fill="#27093B"/>
<path d="M947.17 126.5H1019.57V210.1H1081.57V126.5H1153.97V354.5H1081.57V256.1H1019.57V354.5H947.17V126.5ZM1374.83 170.5V354.5H1319.23L1311.63 323.7C1292.43 346.9 1269.49 358.5 1242.83 358.5C1233.23 358.5 1224.16 357.167 1215.63 354.5C1207.36 351.833 1201.09 347.967 1196.83 342.9C1194.43 339.967 1192.56 332.633 1191.23 320.9C1190.16 309.167 1189.63 291.3 1189.63 267.3V170.5H1258.03V266.5C1258.03 271.833 1258.16 278.1 1258.43 285.3C1258.69 292.5 1259.49 297.033 1260.83 298.9C1262.69 301.567 1268.03 302.9 1276.83 302.9L1283.23 302.5C1290.69 302.233 1298.43 300.5 1306.43 297.3V170.5H1374.83ZM1695.22 183.3C1699.49 189.7 1701.62 214.5 1701.62 257.7V354.5H1633.22V264.5V242.9C1633.22 233.033 1632.29 227.167 1630.42 225.3C1628.29 223.167 1623.76 222.1 1616.82 222.1L1612.02 222.5C1603.76 223.033 1595.89 224.9 1588.42 228.1C1588.69 233.7 1588.82 243.567 1588.82 257.7V354.5H1520.42V264.5V240.5C1520.42 232.233 1519.49 227.167 1517.62 225.3C1515.49 223.167 1510.96 222.1 1504.02 222.1L1499.22 222.5C1491.76 222.767 1484.02 224.5 1476.02 227.7V354.5H1407.62V170.5H1463.22L1470.42 200.5C1479.22 188.767 1489.36 180.233 1500.82 174.9C1512.29 169.3 1523.89 166.5 1535.62 166.5C1545.49 166.5 1554.82 167.967 1563.62 170.9C1572.69 173.833 1578.96 177.967 1582.42 183.3C1584.02 185.7 1585.36 190.1 1586.42 196.5C1594.96 186.1 1604.69 178.5 1615.62 173.7C1626.56 168.9 1637.49 166.5 1648.42 166.5C1658.29 166.5 1667.62 167.967 1676.42 170.9C1685.49 173.833 1691.76 177.967 1695.22 183.3ZM1857 166.5C1877.8 166.5 1893.8 172.767 1905 185.3C1916.47 197.833 1922.2 219.967 1922.2 251.7C1922.2 274.9 1919.8 294.767 1915 311.3C1910.47 327.567 1905.27 337.967 1899.4 342.5C1892.47 348.1 1882.2 352.233 1868.6 354.9C1855 357.567 1839.54 358.9 1822.2 358.9C1808.87 358.9 1793.94 357.833 1777.4 355.7C1760.87 353.833 1746.07 350.767 1733 346.5V114.5L1802.2 111.7V149.3C1802.2 151.433 1802.07 156.367 1801.8 164.1C1801.8 171.833 1801.54 178.367 1801 183.7C1800.47 188.767 1799.67 192.633 1798.6 195.3L1801 198.1C1807.14 188.767 1814.87 181.167 1824.2 175.3C1833.54 169.433 1844.47 166.5 1857 166.5ZM1845.8 310.9C1847.4 308.233 1848.74 301.967 1849.8 292.1C1851.14 282.233 1851.8 272.767 1851.8 263.7C1851.8 253.033 1851.27 244.633 1850.2 238.5C1849.4 232.367 1847.14 227.567 1843.4 224.1C1839.94 220.367 1834.47 218.5 1827 218.5C1820.34 218.5 1811.8 219.433 1801.4 221.3V311.7C1811.27 313.3 1821.54 314.1 1832.2 314.1C1839.94 314.1 1844.47 313.033 1845.8 310.9ZM2058.24 354.5L2051.84 329.3C2039.57 349.3 2022.5 359.3 2000.64 359.3C1982.77 359.3 1968.1 354.367 1956.64 344.5C1945.44 334.367 1939.84 320.233 1939.84 302.1C1939.84 290.9 1943.04 281.167 1949.44 272.9C1956.1 264.367 1965.17 258.367 1976.64 254.9C1991.57 250.633 2014.64 248.233 2045.84 247.7C2045.84 230.1 2045.04 220.767 2043.44 219.7C2042.1 218.633 2037.84 218.1 2030.64 218.1C2026.1 218.1 2019.84 218.367 2011.84 218.9C1999.04 219.433 1981.7 220.9 1959.84 223.3C1957.7 208.9 1956.1 193.433 1955.04 176.9C1969.17 173.967 1983.97 171.567 1999.44 169.7C2014.9 167.567 2028.77 166.5 2041.04 166.5C2062.37 166.5 2078.37 170.1 2089.04 177.3C2099.7 184.233 2106.64 193.433 2109.84 204.9C2113.04 216.367 2114.5 230.9 2114.24 248.5L2113.84 307.3L2115.04 354.5H2058.24ZM2023.84 314.5C2030.77 314.5 2038.1 313.167 2045.84 310.5V280.9H2042.64C2022.9 280.9 2011.97 281.967 2009.84 284.1C2008.5 285.433 2007.44 287.433 2006.64 290.1C2006.1 292.767 2005.84 295.3 2005.84 297.7C2005.84 304.1 2007.3 308.5 2010.24 310.9C2013.17 313.3 2017.7 314.5 2023.84 314.5ZM2240.32 123.7C2262.46 123.7 2280.86 126.633 2295.52 132.5C2310.19 138.1 2321.79 149.567 2330.32 166.9C2338.86 183.967 2343.12 208.9 2343.12 241.7C2343.12 273.167 2338.99 297.567 2330.72 314.9C2322.46 331.967 2310.86 343.7 2295.92 350.1C2281.26 356.5 2262.86 359.7 2240.72 359.7C2208.72 359.7 2184.19 351.3 2167.12 334.5C2150.06 317.433 2141.52 288.233 2141.52 246.9C2141.52 205.3 2149.79 174.367 2166.32 154.1C2182.86 133.833 2207.52 123.7 2240.32 123.7ZM2242.72 308.1C2256.06 308.1 2264.72 302.9 2268.72 292.5C2272.72 281.833 2274.72 265.167 2274.72 242.5C2274.72 219.3 2272.32 202.233 2267.52 191.3C2262.72 180.1 2253.66 174.5 2240.32 174.5C2230.99 174.5 2224.72 176.1 2221.52 179.3C2219.12 181.967 2216.99 189.967 2215.12 203.3C2213.52 216.633 2212.72 230.233 2212.72 244.1C2212.72 267.567 2214.99 284.1 2219.52 293.7C2224.32 303.3 2232.06 308.1 2242.72 308.1ZM2483.67 126.5V354.5H2413.67V184.1L2364.07 194.5L2356.47 152.5L2427.27 126.5H2483.67Z" fill="#300B49"/>
<path d="M907.905 126.5H980.305V210.1H1042.3V126.5H1114.7V354.5H1042.3V256.1H980.305V354.5H907.905V126.5ZM1335.56 170.5V354.5H1279.96L1272.36 323.7C1253.16 346.9 1230.23 358.5 1203.56 358.5C1193.96 358.5 1184.89 357.167 1176.36 354.5C1168.09 351.833 1161.83 347.967 1157.56 342.9C1155.16 339.967 1153.29 332.633 1151.96 320.9C1150.89 309.167 1150.36 291.3 1150.36 267.3V170.5H1218.76V266.5C1218.76 271.833 1218.89 278.1 1219.16 285.3C1219.43 292.5 1220.23 297.033 1221.56 298.9C1223.43 301.567 1228.76 302.9 1237.56 302.9L1243.96 302.5C1251.43 302.233 1259.16 300.5 1267.16 297.3V170.5H1335.56ZM1655.96 183.3C1660.22 189.7 1662.36 214.5 1662.36 257.7V354.5H1593.96V264.5V242.9C1593.96 233.033 1593.02 227.167 1591.16 225.3C1589.02 223.167 1584.49 222.1 1577.56 222.1L1572.76 222.5C1564.49 223.033 1556.62 224.9 1549.16 228.1C1549.42 233.7 1549.56 243.567 1549.56 257.7V354.5H1481.16V264.5V240.5C1481.16 232.233 1480.22 227.167 1478.36 225.3C1476.22 223.167 1471.69 222.1 1464.76 222.1L1459.96 222.5C1452.49 222.767 1444.76 224.5 1436.76 227.7V354.5H1368.36V170.5H1423.96L1431.16 200.5C1439.96 188.767 1450.09 180.233 1461.56 174.9C1473.02 169.3 1484.62 166.5 1496.36 166.5C1506.22 166.5 1515.56 167.967 1524.36 170.9C1533.42 173.833 1539.69 177.967 1543.16 183.3C1544.76 185.7 1546.09 190.1 1547.16 196.5C1555.69 186.1 1565.42 178.5 1576.36 173.7C1587.29 168.9 1598.22 166.5 1609.16 166.5C1619.02 166.5 1628.36 167.967 1637.16 170.9C1646.22 173.833 1652.49 177.967 1655.96 183.3ZM1817.74 166.5C1838.54 166.5 1854.54 172.767 1865.74 185.3C1877.21 197.833 1882.94 219.967 1882.94 251.7C1882.94 274.9 1880.54 294.767 1875.74 311.3C1871.21 327.567 1866.01 337.967 1860.14 342.5C1853.21 348.1 1842.94 352.233 1829.34 354.9C1815.74 357.567 1800.27 358.9 1782.94 358.9C1769.61 358.9 1754.67 357.833 1738.14 355.7C1721.61 353.833 1706.81 350.767 1693.74 346.5V114.5L1762.94 111.7V149.3C1762.94 151.433 1762.81 156.367 1762.54 164.1C1762.54 171.833 1762.27 178.367 1761.74 183.7C1761.21 188.767 1760.41 192.633 1759.34 195.3L1761.74 198.1C1767.87 188.767 1775.61 181.167 1784.94 175.3C1794.27 169.433 1805.21 166.5 1817.74 166.5ZM1806.54 310.9C1808.14 308.233 1809.47 301.967 1810.54 292.1C1811.87 282.233 1812.54 272.767 1812.54 263.7C1812.54 253.033 1812.01 244.633 1810.94 238.5C1810.14 232.367 1807.87 227.567 1804.14 224.1C1800.67 220.367 1795.21 218.5 1787.74 218.5C1781.07 218.5 1772.54 219.433 1762.14 221.3V311.7C1772.01 313.3 1782.27 314.1 1792.94 314.1C1800.67 314.1 1805.21 313.033 1806.54 310.9ZM2018.97 354.5L2012.57 329.3C2000.31 349.3 1983.24 359.3 1961.37 359.3C1943.51 359.3 1928.84 354.367 1917.37 344.5C1906.17 334.367 1900.57 320.233 1900.57 302.1C1900.57 290.9 1903.77 281.167 1910.17 272.9C1916.84 264.367 1925.91 258.367 1937.37 254.9C1952.31 250.633 1975.37 248.233 2006.57 247.7C2006.57 230.1 2005.77 220.767 2004.17 219.7C2002.84 218.633 1998.57 218.1 1991.37 218.1C1986.84 218.1 1980.57 218.367 1972.57 218.9C1959.77 219.433 1942.44 220.9 1920.57 223.3C1918.44 208.9 1916.84 193.433 1915.77 176.9C1929.91 173.967 1944.71 171.567 1960.17 169.7C1975.64 167.567 1989.51 166.5 2001.77 166.5C2023.11 166.5 2039.11 170.1 2049.77 177.3C2060.44 184.233 2067.37 193.433 2070.57 204.9C2073.77 216.367 2075.24 230.9 2074.97 248.5L2074.57 307.3L2075.77 354.5H2018.97ZM1984.57 314.5C1991.51 314.5 1998.84 313.167 2006.57 310.5V280.9H2003.37C1983.64 280.9 1972.71 281.967 1970.57 284.1C1969.24 285.433 1968.17 287.433 1967.37 290.1C1966.84 292.767 1966.57 295.3 1966.57 297.7C1966.57 304.1 1968.04 308.5 1970.97 310.9C1973.91 313.3 1978.44 314.5 1984.57 314.5ZM2201.06 123.7C2223.19 123.7 2241.59 126.633 2256.26 132.5C2270.92 138.1 2282.52 149.567 2291.06 166.9C2299.59 183.967 2303.86 208.9 2303.86 241.7C2303.86 273.167 2299.72 297.567 2291.46 314.9C2283.19 331.967 2271.59 343.7 2256.66 350.1C2241.99 356.5 2223.59 359.7 2201.46 359.7C2169.46 359.7 2144.92 351.3 2127.86 334.5C2110.79 317.433 2102.26 288.233 2102.26 246.9C2102.26 205.3 2110.52 174.367 2127.06 154.1C2143.59 133.833 2168.26 123.7 2201.06 123.7ZM2203.46 308.1C2216.79 308.1 2225.46 302.9 2229.46 292.5C2233.46 281.833 2235.46 265.167 2235.46 242.5C2235.46 219.3 2233.06 202.233 2228.26 191.3C2223.46 180.1 2214.39 174.5 2201.06 174.5C2191.72 174.5 2185.46 176.1 2182.26 179.3C2179.86 181.967 2177.72 189.967 2175.86 203.3C2174.26 216.633 2173.46 230.233 2173.46 244.1C2173.46 267.567 2175.72 284.1 2180.26 293.7C2185.06 303.3 2192.79 308.1 2203.46 308.1ZM2444.4 126.5V354.5H2374.4V184.1L2324.8 194.5L2317.2 152.5L2388 126.5H2444.4Z" fill="#3A0D57"/>
<path d="M867.237 126.5H939.637V210.1H1001.64V126.5H1074.04V354.5H1001.64V256.1H939.637V354.5H867.237V126.5ZM1294.89 170.5V354.5H1239.29L1231.69 323.7C1212.49 346.9 1189.56 358.5 1162.89 358.5C1153.29 358.5 1144.23 357.167 1135.69 354.5C1127.43 351.833 1121.16 347.967 1116.89 342.9C1114.49 339.967 1112.63 332.633 1111.29 320.9C1110.23 309.167 1109.69 291.3 1109.69 267.3V170.5H1178.09V266.5C1178.09 271.833 1178.23 278.1 1178.49 285.3C1178.76 292.5 1179.56 297.033 1180.89 298.9C1182.76 301.567 1188.09 302.9 1196.89 302.9L1203.29 302.5C1210.76 302.233 1218.49 300.5 1226.49 297.3V170.5H1294.89ZM1615.29 183.3C1619.56 189.7 1621.69 214.5 1621.69 257.7V354.5H1553.29V264.5V242.9C1553.29 233.033 1552.36 227.167 1550.49 225.3C1548.36 223.167 1543.82 222.1 1536.89 222.1L1532.09 222.5C1523.82 223.033 1515.96 224.9 1508.49 228.1C1508.76 233.7 1508.89 243.567 1508.89 257.7V354.5H1440.49V264.5V240.5C1440.49 232.233 1439.56 227.167 1437.69 225.3C1435.56 223.167 1431.02 222.1 1424.09 222.1L1419.29 222.5C1411.82 222.767 1404.09 224.5 1396.09 227.7V354.5H1327.69V170.5H1383.29L1390.49 200.5C1399.29 188.767 1409.42 180.233 1420.89 174.9C1432.36 169.3 1443.96 166.5 1455.69 166.5C1465.56 166.5 1474.89 167.967 1483.69 170.9C1492.76 173.833 1499.02 177.967 1502.49 183.3C1504.09 185.7 1505.42 190.1 1506.49 196.5C1515.02 186.1 1524.76 178.5 1535.69 173.7C1546.62 168.9 1557.56 166.5 1568.49 166.5C1578.36 166.5 1587.69 167.967 1596.49 170.9C1605.56 173.833 1611.82 177.967 1615.29 183.3ZM1777.07 166.5C1797.87 166.5 1813.87 172.767 1825.07 185.3C1836.54 197.833 1842.27 219.967 1842.27 251.7C1842.27 274.9 1839.87 294.767 1835.07 311.3C1830.54 327.567 1825.34 337.967 1819.47 342.5C1812.54 348.1 1802.27 352.233 1788.67 354.9C1775.07 357.567 1759.61 358.9 1742.27 358.9C1728.94 358.9 1714.01 357.833 1697.47 355.7C1680.94 353.833 1666.14 350.767 1653.07 346.5V114.5L1722.27 111.7V149.3C1722.27 151.433 1722.14 156.367 1721.87 164.1C1721.87 171.833 1721.61 178.367 1721.07 183.7C1720.54 188.767 1719.74 192.633 1718.67 195.3L1721.07 198.1C1727.21 188.767 1734.94 181.167 1744.27 175.3C1753.61 169.433 1764.54 166.5 1777.07 166.5ZM1765.87 310.9C1767.47 308.233 1768.81 301.967 1769.87 292.1C1771.21 282.233 1771.87 272.767 1771.87 263.7C1771.87 253.033 1771.34 244.633 1770.27 238.5C1769.47 232.367 1767.21 227.567 1763.47 224.1C1760.01 220.367 1754.54 218.5 1747.07 218.5C1740.41 218.5 1731.87 219.433 1721.47 221.3V311.7C1731.34 313.3 1741.61 314.1 1752.27 314.1C1760.01 314.1 1764.54 313.033 1765.87 310.9ZM1978.31 354.5L1971.91 329.3C1959.64 349.3 1942.57 359.3 1920.71 359.3C1902.84 359.3 1888.17 354.367 1876.71 344.5C1865.51 334.367 1859.91 320.233 1859.91 302.1C1859.91 290.9 1863.11 281.167 1869.51 272.9C1876.17 264.367 1885.24 258.367 1896.71 254.9C1911.64 250.633 1934.71 248.233 1965.91 247.7C1965.91 230.1 1965.11 220.767 1963.51 219.7C1962.17 218.633 1957.91 218.1 1950.71 218.1C1946.17 218.1 1939.91 218.367 1931.91 218.9C1919.11 219.433 1901.77 220.9 1879.91 223.3C1877.77 208.9 1876.17 193.433 1875.11 176.9C1889.24 173.967 1904.04 171.567 1919.51 169.7C1934.97 167.567 1948.84 166.5 1961.11 166.5C1982.44 166.5 1998.44 170.1 2009.11 177.3C2019.77 184.233 2026.71 193.433 2029.91 204.9C2033.11 216.367 2034.57 230.9 2034.31 248.5L2033.91 307.3L2035.11 354.5H1978.31ZM1943.91 314.5C1950.84 314.5 1958.17 313.167 1965.91 310.5V280.9H1962.71C1942.97 280.9 1932.04 281.967 1929.91 284.1C1928.57 285.433 1927.51 287.433 1926.71 290.1C1926.17 292.767 1925.91 295.3 1925.91 297.7C1925.91 304.1 1927.37 308.5 1930.31 310.9C1933.24 313.3 1937.77 314.5 1943.91 314.5ZM2160.39 123.7C2182.52 123.7 2200.92 126.633 2215.59 132.5C2230.26 138.1 2241.86 149.567 2250.39 166.9C2258.92 183.967 2263.19 208.9 2263.19 241.7C2263.19 273.167 2259.06 297.567 2250.79 314.9C2242.52 331.967 2230.92 343.7 2215.99 350.1C2201.32 356.5 2182.92 359.7 2160.79 359.7C2128.79 359.7 2104.26 351.3 2087.19 334.5C2070.12 317.433 2061.59 288.233 2061.59 246.9C2061.59 205.3 2069.86 174.367 2086.39 154.1C2102.92 133.833 2127.59 123.7 2160.39 123.7ZM2162.79 308.1C2176.12 308.1 2184.79 302.9 2188.79 292.5C2192.79 281.833 2194.79 265.167 2194.79 242.5C2194.79 219.3 2192.39 202.233 2187.59 191.3C2182.79 180.1 2173.72 174.5 2160.39 174.5C2151.06 174.5 2144.79 176.1 2141.59 179.3C2139.19 181.967 2137.06 189.967 2135.19 203.3C2133.59 216.633 2132.79 230.233 2132.79 244.1C2132.79 267.567 2135.06 284.1 2139.59 293.7C2144.39 303.3 2152.12 308.1 2162.79 308.1ZM2403.73 126.5V354.5H2333.73V184.1L2284.13 194.5L2276.53 152.5L2347.33 126.5H2403.73Z" fill="#430F66"/>
<path d="M830.777 126.5H903.177V210.1H965.177V126.5H1037.58V354.5H965.177V256.1H903.177V354.5H830.777V126.5ZM1258.43 170.5V354.5H1202.83L1195.23 323.7C1176.03 346.9 1153.1 358.5 1126.43 358.5C1116.83 358.5 1107.77 357.167 1099.23 354.5C1090.97 351.833 1084.7 347.967 1080.43 342.9C1078.03 339.967 1076.17 332.633 1074.83 320.9C1073.77 309.167 1073.23 291.3 1073.23 267.3V170.5H1141.63V266.5C1141.63 271.833 1141.77 278.1 1142.03 285.3C1142.3 292.5 1143.1 297.033 1144.43 298.9C1146.3 301.567 1151.63 302.9 1160.43 302.9L1166.83 302.5C1174.3 302.233 1182.03 300.5 1190.03 297.3V170.5H1258.43ZM1578.83 183.3C1583.1 189.7 1585.23 214.5 1585.23 257.7V354.5H1516.83V264.5V242.9C1516.83 233.033 1515.9 227.167 1514.03 225.3C1511.9 223.167 1507.36 222.1 1500.43 222.1L1495.63 222.5C1487.36 223.033 1479.5 224.9 1472.03 228.1C1472.3 233.7 1472.43 243.567 1472.43 257.7V354.5H1404.03V264.5V240.5C1404.03 232.233 1403.1 227.167 1401.23 225.3C1399.1 223.167 1394.56 222.1 1387.63 222.1L1382.83 222.5C1375.36 222.767 1367.63 224.5 1359.63 227.7V354.5H1291.23V170.5H1346.83L1354.03 200.5C1362.83 188.767 1372.96 180.233 1384.43 174.9C1395.9 169.3 1407.5 166.5 1419.23 166.5C1429.1 166.5 1438.43 167.967 1447.23 170.9C1456.3 173.833 1462.56 177.967 1466.03 183.3C1467.63 185.7 1468.96 190.1 1470.03 196.5C1478.56 186.1 1488.3 178.5 1499.23 173.7C1510.16 168.9 1521.1 166.5 1532.03 166.5C1541.9 166.5 1551.23 167.967 1560.03 170.9C1569.1 173.833 1575.36 177.967 1578.83 183.3ZM1740.61 166.5C1761.41 166.5 1777.41 172.767 1788.61 185.3C1800.08 197.833 1805.81 219.967 1805.81 251.7C1805.81 274.9 1803.41 294.767 1798.61 311.3C1794.08 327.567 1788.88 337.967 1783.01 342.5C1776.08 348.1 1765.81 352.233 1752.21 354.9C1738.61 357.567 1723.14 358.9 1705.81 358.9C1692.48 358.9 1677.54 357.833 1661.01 355.7C1644.48 353.833 1629.68 350.767 1616.61 346.5V114.5L1685.81 111.7V149.3C1685.81 151.433 1685.68 156.367 1685.41 164.1C1685.41 171.833 1685.14 178.367 1684.61 183.7C1684.08 188.767 1683.28 192.633 1682.21 195.3L1684.61 198.1C1690.74 188.767 1698.48 181.167 1707.81 175.3C1717.14 169.433 1728.08 166.5 1740.61 166.5ZM1729.41 310.9C1731.01 308.233 1732.34 301.967 1733.41 292.1C1734.74 282.233 1735.41 272.767 1735.41 263.7C1735.41 253.033 1734.88 244.633 1733.81 238.5C1733.01 232.367 1730.74 227.567 1727.01 224.1C1723.54 220.367 1718.08 218.5 1710.61 218.5C1703.94 218.5 1695.41 219.433 1685.01 221.3V311.7C1694.88 313.3 1705.14 314.1 1715.81 314.1C1723.54 314.1 1728.08 313.033 1729.41 310.9ZM1941.85 354.5L1935.45 329.3C1923.18 349.3 1906.11 359.3 1884.25 359.3C1866.38 359.3 1851.71 354.367 1840.25 344.5C1829.05 334.367 1823.45 320.233 1823.45 302.1C1823.45 290.9 1826.65 281.167 1833.05 272.9C1839.71 264.367 1848.78 258.367 1860.25 254.9C1875.18 250.633 1898.25 248.233 1929.45 247.7C1929.45 230.1 1928.65 220.767 1927.05 219.7C1925.71 218.633 1921.45 218.1 1914.25 218.1C1909.71 218.1 1903.45 218.367 1895.45 218.9C1882.65 219.433 1865.31 220.9 1843.45 223.3C1841.31 208.9 1839.71 193.433 1838.65 176.9C1852.78 173.967 1867.58 171.567 1883.05 169.7C1898.51 167.567 1912.38 166.5 1924.65 166.5C1945.98 166.5 1961.98 170.1 1972.65 177.3C1983.31 184.233 1990.25 193.433 1993.45 204.9C1996.65 216.367 1998.11 230.9 1997.85 248.5L1997.45 307.3L1998.65 354.5H1941.85ZM1907.45 314.5C1914.38 314.5 1921.71 313.167 1929.45 310.5V280.9H1926.25C1906.51 280.9 1895.58 281.967 1893.45 284.1C1892.11 285.433 1891.05 287.433 1890.25 290.1C1889.71 292.767 1889.45 295.3 1889.45 297.7C1889.45 304.1 1890.91 308.5 1893.85 310.9C1896.78 313.3 1901.31 314.5 1907.45 314.5ZM2123.93 123.7C2146.06 123.7 2164.46 126.633 2179.13 132.5C2193.8 138.1 2205.4 149.567 2213.93 166.9C2222.46 183.967 2226.73 208.9 2226.73 241.7C2226.73 273.167 2222.6 297.567 2214.33 314.9C2206.06 331.967 2194.46 343.7 2179.53 350.1C2164.86 356.5 2146.46 359.7 2124.33 359.7C2092.33 359.7 2067.8 351.3 2050.73 334.5C2033.66 317.433 2025.13 288.233 2025.13 246.9C2025.13 205.3 2033.4 174.367 2049.93 154.1C2066.46 133.833 2091.13 123.7 2123.93 123.7ZM2126.33 308.1C2139.66 308.1 2148.33 302.9 2152.33 292.5C2156.33 281.833 2158.33 265.167 2158.33 242.5C2158.33 219.3 2155.93 202.233 2151.13 191.3C2146.33 180.1 2137.26 174.5 2123.93 174.5C2114.6 174.5 2108.33 176.1 2105.13 179.3C2102.73 181.967 2100.6 189.967 2098.73 203.3C2097.13 216.633 2096.33 230.233 2096.33 244.1C2096.33 267.567 2098.6 284.1 2103.13 293.7C2107.93 303.3 2115.66 308.1 2126.33 308.1ZM2367.27 126.5V354.5H2297.27V184.1L2247.67 194.5L2240.07 152.5L2310.87 126.5H2367.27Z" fill="#4D1174"/>
<path d="M791.512 126.5H863.912V210.1H925.912V126.5H998.312V354.5H925.912V256.1H863.912V354.5H791.512V126.5ZM1219.17 170.5V354.5H1163.57L1155.97 323.7C1136.77 346.9 1113.83 358.5 1087.17 358.5C1077.57 358.5 1068.5 357.167 1059.97 354.5C1051.7 351.833 1045.43 347.967 1041.17 342.9C1038.77 339.967 1036.9 332.633 1035.57 320.9C1034.5 309.167 1033.97 291.3 1033.97 267.3V170.5H1102.37V266.5C1102.37 271.833 1102.5 278.1 1102.77 285.3C1103.03 292.5 1103.83 297.033 1105.17 298.9C1107.03 301.567 1112.37 302.9 1121.17 302.9L1127.57 302.5C1135.03 302.233 1142.77 300.5 1150.77 297.3V170.5H1219.17ZM1539.57 183.3C1543.83 189.7 1545.97 214.5 1545.97 257.7V354.5H1477.57V264.5V242.9C1477.57 233.033 1476.63 227.167 1474.77 225.3C1472.63 223.167 1468.1 222.1 1461.17 222.1L1456.37 222.5C1448.1 223.033 1440.23 224.9 1432.77 228.1C1433.03 233.7 1433.17 243.567 1433.17 257.7V354.5H1364.77V264.5V240.5C1364.77 232.233 1363.83 227.167 1361.97 225.3C1359.83 223.167 1355.3 222.1 1348.37 222.1L1343.57 222.5C1336.1 222.767 1328.37 224.5 1320.37 227.7V354.5H1251.97V170.5H1307.57L1314.77 200.5C1323.57 188.767 1333.7 180.233 1345.17 174.9C1356.63 169.3 1368.23 166.5 1379.97 166.5C1389.83 166.5 1399.17 167.967 1407.97 170.9C1417.03 173.833 1423.3 177.967 1426.77 183.3C1428.37 185.7 1429.7 190.1 1430.77 196.5C1439.3 186.1 1449.03 178.5 1459.97 173.7C1470.9 168.9 1481.83 166.5 1492.77 166.5C1502.63 166.5 1511.97 167.967 1520.77 170.9C1529.83 173.833 1536.1 177.967 1539.57 183.3ZM1701.35 166.5C1722.15 166.5 1738.15 172.767 1749.35 185.3C1760.81 197.833 1766.55 219.967 1766.55 251.7C1766.55 274.9 1764.15 294.767 1759.35 311.3C1754.81 327.567 1749.61 337.967 1743.75 342.5C1736.81 348.1 1726.55 352.233 1712.95 354.9C1699.35 357.567 1683.88 358.9 1666.55 358.9C1653.21 358.9 1638.28 357.833 1621.75 355.7C1605.21 353.833 1590.41 350.767 1577.35 346.5V114.5L1646.55 111.7V149.3C1646.55 151.433 1646.41 156.367 1646.15 164.1C1646.15 171.833 1645.88 178.367 1645.35 183.7C1644.81 188.767 1644.01 192.633 1642.95 195.3L1645.35 198.1C1651.48 188.767 1659.21 181.167 1668.55 175.3C1677.88 169.433 1688.81 166.5 1701.35 166.5ZM1690.15 310.9C1691.75 308.233 1693.08 301.967 1694.15 292.1C1695.48 282.233 1696.15 272.767 1696.15 263.7C1696.15 253.033 1695.61 244.633 1694.55 238.5C1693.75 232.367 1691.48 227.567 1687.75 224.1C1684.28 220.367 1678.81 218.5 1671.35 218.5C1664.68 218.5 1656.15 219.433 1645.75 221.3V311.7C1655.61 313.3 1665.88 314.1 1676.55 314.1C1684.28 314.1 1688.81 313.033 1690.15 310.9ZM1902.58 354.5L1896.18 329.3C1883.91 349.3 1866.85 359.3 1844.98 359.3C1827.11 359.3 1812.45 354.367 1800.98 344.5C1789.78 334.367 1784.18 320.233 1784.18 302.1C1784.18 290.9 1787.38 281.167 1793.78 272.9C1800.45 264.367 1809.51 258.367 1820.98 254.9C1835.91 250.633 1858.98 248.233 1890.18 247.7C1890.18 230.1 1889.38 220.767 1887.78 219.7C1886.45 218.633 1882.18 218.1 1874.98 218.1C1870.45 218.1 1864.18 218.367 1856.18 218.9C1843.38 219.433 1826.05 220.9 1804.18 223.3C1802.05 208.9 1800.45 193.433 1799.38 176.9C1813.51 173.967 1828.31 171.567 1843.78 169.7C1859.25 167.567 1873.11 166.5 1885.38 166.5C1906.71 166.5 1922.71 170.1 1933.38 177.3C1944.05 184.233 1950.98 193.433 1954.18 204.9C1957.38 216.367 1958.85 230.9 1958.58 248.5L1958.18 307.3L1959.38 354.5H1902.58ZM1868.18 314.5C1875.11 314.5 1882.45 313.167 1890.18 310.5V280.9H1886.98C1867.25 280.9 1856.31 281.967 1854.18 284.1C1852.85 285.433 1851.78 287.433 1850.98 290.1C1850.45 292.767 1850.18 295.3 1850.18 297.7C1850.18 304.1 1851.65 308.5 1854.58 310.9C1857.51 313.3 1862.05 314.5 1868.18 314.5ZM2084.67 123.7C2106.8 123.7 2125.2 126.633 2139.87 132.5C2154.53 138.1 2166.13 149.567 2174.67 166.9C2183.2 183.967 2187.47 208.9 2187.47 241.7C2187.47 273.167 2183.33 297.567 2175.07 314.9C2166.8 331.967 2155.2 343.7 2140.27 350.1C2125.6 356.5 2107.2 359.7 2085.07 359.7C2053.07 359.7 2028.53 351.3 2011.47 334.5C1994.4 317.433 1985.87 288.233 1985.87 246.9C1985.87 205.3 1994.13 174.367 2010.67 154.1C2027.2 133.833 2051.87 123.7 2084.67 123.7ZM2087.07 308.1C2100.4 308.1 2109.07 302.9 2113.07 292.5C2117.07 281.833 2119.07 265.167 2119.07 242.5C2119.07 219.3 2116.67 202.233 2111.87 191.3C2107.07 180.1 2098 174.5 2084.67 174.5C2075.33 174.5 2069.07 176.1 2065.87 179.3C2063.47 181.967 2061.33 189.967 2059.47 203.3C2057.87 216.633 2057.07 230.233 2057.07 244.1C2057.07 267.567 2059.33 284.1 2063.87 293.7C2068.67 303.3 2076.4 308.1 2087.07 308.1ZM2328.01 126.5V354.5H2258.01V184.1L2208.41 194.5L2200.81 152.5L2271.61 126.5H2328.01Z" fill="#561382"/>
<path d="M750.845 126.5H823.245V210.1H885.245V126.5H957.645V354.5H885.245V256.1H823.245V354.5H750.845V126.5ZM1178.5 170.5V354.5H1122.9L1115.3 323.7C1096.1 346.9 1073.17 358.5 1046.5 358.5C1036.9 358.5 1027.83 357.167 1019.3 354.5C1011.03 351.833 1004.77 347.967 1000.5 342.9C998.101 339.967 996.234 332.633 994.901 320.9C993.834 309.167 993.301 291.3 993.301 267.3V170.5H1061.7V266.5C1061.7 271.833 1061.83 278.1 1062.1 285.3C1062.37 292.5 1063.17 297.033 1064.5 298.9C1066.37 301.567 1071.7 302.9 1080.5 302.9L1086.9 302.5C1094.37 302.233 1102.1 300.5 1110.1 297.3V170.5H1178.5ZM1498.9 183.3C1503.16 189.7 1505.3 214.5 1505.3 257.7V354.5H1436.9V264.5V242.9C1436.9 233.033 1435.96 227.167 1434.1 225.3C1431.96 223.167 1427.43 222.1 1420.5 222.1L1415.7 222.5C1407.43 223.033 1399.56 224.9 1392.1 228.1C1392.36 233.7 1392.5 243.567 1392.5 257.7V354.5H1324.1V264.5V240.5C1324.1 232.233 1323.16 227.167 1321.3 225.3C1319.16 223.167 1314.63 222.1 1307.7 222.1L1302.9 222.5C1295.43 222.767 1287.7 224.5 1279.7 227.7V354.5H1211.3V170.5H1266.9L1274.1 200.5C1282.9 188.767 1293.03 180.233 1304.5 174.9C1315.96 169.3 1327.56 166.5 1339.3 166.5C1349.16 166.5 1358.5 167.967 1367.3 170.9C1376.36 173.833 1382.63 177.967 1386.1 183.3C1387.7 185.7 1389.03 190.1 1390.1 196.5C1398.63 186.1 1408.36 178.5 1419.3 173.7C1430.23 168.9 1441.16 166.5 1452.1 166.5C1461.96 166.5 1471.3 167.967 1480.1 170.9C1489.16 173.833 1495.43 177.967 1498.9 183.3ZM1660.68 166.5C1681.48 166.5 1697.48 172.767 1708.68 185.3C1720.15 197.833 1725.88 219.967 1725.88 251.7C1725.88 274.9 1723.48 294.767 1718.68 311.3C1714.15 327.567 1708.95 337.967 1703.08 342.5C1696.15 348.1 1685.88 352.233 1672.28 354.9C1658.68 357.567 1643.21 358.9 1625.88 358.9C1612.55 358.9 1597.61 357.833 1581.08 355.7C1564.55 353.833 1549.75 350.767 1536.68 346.5V114.5L1605.88 111.7V149.3C1605.88 151.433 1605.75 156.367 1605.48 164.1C1605.48 171.833 1605.21 178.367 1604.68 183.7C1604.15 188.767 1603.35 192.633 1602.28 195.3L1604.68 198.1C1610.81 188.767 1618.55 181.167 1627.88 175.3C1637.21 169.433 1648.15 166.5 1660.68 166.5ZM1649.48 310.9C1651.08 308.233 1652.41 301.967 1653.48 292.1C1654.81 282.233 1655.48 272.767 1655.48 263.7C1655.48 253.033 1654.95 244.633 1653.88 238.5C1653.08 232.367 1650.81 227.567 1647.08 224.1C1643.61 220.367 1638.15 218.5 1630.68 218.5C1624.01 218.5 1615.48 219.433 1605.08 221.3V311.7C1614.95 313.3 1625.21 314.1 1635.88 314.1C1643.61 314.1 1648.15 313.033 1649.48 310.9ZM1861.91 354.5L1855.51 329.3C1843.25 349.3 1826.18 359.3 1804.31 359.3C1786.45 359.3 1771.78 354.367 1760.31 344.5C1749.11 334.367 1743.51 320.233 1743.51 302.1C1743.51 290.9 1746.71 281.167 1753.11 272.9C1759.78 264.367 1768.85 258.367 1780.31 254.9C1795.25 250.633 1818.31 248.233 1849.51 247.7C1849.51 230.1 1848.71 220.767 1847.11 219.7C1845.78 218.633 1841.51 218.1 1834.31 218.1C1829.78 218.1 1823.51 218.367 1815.51 218.9C1802.71 219.433 1785.38 220.9 1763.51 223.3C1761.38 208.9 1759.78 193.433 1758.71 176.9C1772.85 173.967 1787.65 171.567 1803.11 169.7C1818.58 167.567 1832.45 166.5 1844.71 166.5C1866.05 166.5 1882.05 170.1 1892.71 177.3C1903.38 184.233 1910.31 193.433 1913.51 204.9C1916.71 216.367 1918.18 230.9 1917.91 248.5L1917.51 307.3L1918.71 354.5H1861.91ZM1827.51 314.5C1834.45 314.5 1841.78 313.167 1849.51 310.5V280.9H1846.31C1826.58 280.9 1815.65 281.967 1813.51 284.1C1812.18 285.433 1811.11 287.433 1810.31 290.1C1809.78 292.767 1809.51 295.3 1809.51 297.7C1809.51 304.1 1810.98 308.5 1813.91 310.9C1816.85 313.3 1821.38 314.5 1827.51 314.5ZM2044 123.7C2066.13 123.7 2084.53 126.633 2099.2 132.5C2113.86 138.1 2125.46 149.567 2134 166.9C2142.53 183.967 2146.8 208.9 2146.8 241.7C2146.8 273.167 2142.66 297.567 2134.4 314.9C2126.13 331.967 2114.53 343.7 2099.6 350.1C2084.93 356.5 2066.53 359.7 2044.4 359.7C2012.4 359.7 1987.86 351.3 1970.8 334.5C1953.73 317.433 1945.2 288.233 1945.2 246.9C1945.2 205.3 1953.46 174.367 1970 154.1C1986.53 133.833 2011.2 123.7 2044 123.7ZM2046.4 308.1C2059.73 308.1 2068.4 302.9 2072.4 292.5C2076.4 281.833 2078.4 265.167 2078.4 242.5C2078.4 219.3 2076 202.233 2071.2 191.3C2066.4 180.1 2057.33 174.5 2044 174.5C2034.66 174.5 2028.4 176.1 2025.2 179.3C2022.8 181.967 2020.66 189.967 2018.8 203.3C2017.2 216.633 2016.4 230.233 2016.4 244.1C2016.4 267.567 2018.66 284.1 2023.2 293.7C2028 303.3 2035.73 308.1 2046.4 308.1ZM2287.34 126.5V354.5H2217.34V184.1L2167.74 194.5L2160.14 152.5L2230.94 126.5H2287.34Z" fill="#5F1591"/>
<path d="M705.971 126.5H778.371V210.1H840.371V126.5H912.771V354.5H840.371V256.1H778.371V354.5H705.971V126.5ZM1133.63 170.5V354.5H1078.03L1070.43 323.7C1051.23 346.9 1028.29 358.5 1001.63 358.5C992.027 358.5 982.96 357.167 974.427 354.5C966.16 351.833 959.893 347.967 955.627 342.9C953.227 339.967 951.36 332.633 950.027 320.9C948.96 309.167 948.427 291.3 948.427 267.3V170.5H1016.83V266.5C1016.83 271.833 1016.96 278.1 1017.23 285.3C1017.49 292.5 1018.29 297.033 1019.63 298.9C1021.49 301.567 1026.83 302.9 1035.63 302.9L1042.03 302.5C1049.49 302.233 1057.23 300.5 1065.23 297.3V170.5H1133.63ZM1454.02 183.3C1458.29 189.7 1460.42 214.5 1460.42 257.7V354.5H1392.02V264.5V242.9C1392.02 233.033 1391.09 227.167 1389.22 225.3C1387.09 223.167 1382.56 222.1 1375.62 222.1L1370.82 222.5C1362.56 223.033 1354.69 224.9 1347.22 228.1C1347.49 233.7 1347.62 243.567 1347.62 257.7V354.5H1279.22V264.5V240.5C1279.22 232.233 1278.29 227.167 1276.42 225.3C1274.29 223.167 1269.76 222.1 1262.82 222.1L1258.02 222.5C1250.56 222.767 1242.82 224.5 1234.82 227.7V354.5H1166.42V170.5H1222.02L1229.22 200.5C1238.02 188.767 1248.16 180.233 1259.62 174.9C1271.09 169.3 1282.69 166.5 1294.42 166.5C1304.29 166.5 1313.62 167.967 1322.42 170.9C1331.49 173.833 1337.76 177.967 1341.22 183.3C1342.82 185.7 1344.16 190.1 1345.22 196.5C1353.76 186.1 1363.49 178.5 1374.42 173.7C1385.36 168.9 1396.29 166.5 1407.22 166.5C1417.09 166.5 1426.42 167.967 1435.22 170.9C1444.29 173.833 1450.56 177.967 1454.02 183.3ZM1615.8 166.5C1636.6 166.5 1652.6 172.767 1663.8 185.3C1675.27 197.833 1681 219.967 1681 251.7C1681 274.9 1678.6 294.767 1673.8 311.3C1669.27 327.567 1664.07 337.967 1658.2 342.5C1651.27 348.1 1641 352.233 1627.4 354.9C1613.8 357.567 1598.34 358.9 1581 358.9C1567.67 358.9 1552.74 357.833 1536.2 355.7C1519.67 353.833 1504.87 350.767 1491.8 346.5V114.5L1561 111.7V149.3C1561 151.433 1560.87 156.367 1560.6 164.1C1560.6 171.833 1560.34 178.367 1559.8 183.7C1559.27 188.767 1558.47 192.633 1557.4 195.3L1559.8 198.1C1565.94 188.767 1573.67 181.167 1583 175.3C1592.34 169.433 1603.27 166.5 1615.8 166.5ZM1604.6 310.9C1606.2 308.233 1607.54 301.967 1608.6 292.1C1609.94 282.233 1610.6 272.767 1610.6 263.7C1610.6 253.033 1610.07 244.633 1609 238.5C1608.2 232.367 1605.94 227.567 1602.2 224.1C1598.74 220.367 1593.27 218.5 1585.8 218.5C1579.14 218.5 1570.6 219.433 1560.2 221.3V311.7C1570.07 313.3 1580.34 314.1 1591 314.1C1598.74 314.1 1603.27 313.033 1604.6 310.9ZM1817.04 354.5L1810.64 329.3C1798.37 349.3 1781.31 359.3 1759.44 359.3C1741.57 359.3 1726.91 354.367 1715.44 344.5C1704.24 334.367 1698.64 320.233 1698.64 302.1C1698.64 290.9 1701.84 281.167 1708.24 272.9C1714.91 264.367 1723.97 258.367 1735.44 254.9C1750.37 250.633 1773.44 248.233 1804.64 247.7C1804.64 230.1 1803.84 220.767 1802.24 219.7C1800.91 218.633 1796.64 218.1 1789.44 218.1C1784.91 218.1 1778.64 218.367 1770.64 218.9C1757.84 219.433 1740.51 220.9 1718.64 223.3C1716.51 208.9 1714.91 193.433 1713.84 176.9C1727.97 173.967 1742.77 171.567 1758.24 169.7C1773.71 167.567 1787.57 166.5 1799.84 166.5C1821.17 166.5 1837.17 170.1 1847.84 177.3C1858.51 184.233 1865.44 193.433 1868.64 204.9C1871.84 216.367 1873.31 230.9 1873.04 248.5L1872.64 307.3L1873.84 354.5H1817.04ZM1782.64 314.5C1789.57 314.5 1796.91 313.167 1804.64 310.5V280.9H1801.44C1781.71 280.9 1770.77 281.967 1768.64 284.1C1767.31 285.433 1766.24 287.433 1765.44 290.1C1764.91 292.767 1764.64 295.3 1764.64 297.7C1764.64 304.1 1766.11 308.5 1769.04 310.9C1771.97 313.3 1776.51 314.5 1782.64 314.5ZM1999.12 123.7C2021.26 123.7 2039.66 126.633 2054.32 132.5C2068.99 138.1 2080.59 149.567 2089.12 166.9C2097.66 183.967 2101.92 208.9 2101.92 241.7C2101.92 273.167 2097.79 297.567 2089.52 314.9C2081.26 331.967 2069.66 343.7 2054.72 350.1C2040.06 356.5 2021.66 359.7 1999.52 359.7C1967.52 359.7 1942.99 351.3 1925.92 334.5C1908.86 317.433 1900.32 288.233 1900.32 246.9C1900.32 205.3 1908.59 174.367 1925.12 154.1C1941.66 133.833 1966.32 123.7 1999.12 123.7ZM2001.52 308.1C2014.86 308.1 2023.52 302.9 2027.52 292.5C2031.52 281.833 2033.52 265.167 2033.52 242.5C2033.52 219.3 2031.12 202.233 2026.32 191.3C2021.52 180.1 2012.46 174.5 1999.12 174.5C1989.79 174.5 1983.52 176.1 1980.32 179.3C1977.92 181.967 1975.79 189.967 1973.92 203.3C1972.32 216.633 1971.52 230.233 1971.52 244.1C1971.52 267.567 1973.79 284.1 1978.32 293.7C1983.12 303.3 1990.86 308.1 2001.52 308.1ZM2242.47 126.5V354.5H2172.47V184.1L2122.87 194.5L2115.27 152.5L2186.07 126.5H2242.47Z" fill="#69179F"/>
<path d="M662.499 126.5H734.899V210.1H796.899V126.5H869.299V354.5H796.899V256.1H734.899V354.5H662.499V126.5ZM1090.15 170.5V354.5H1034.55L1026.95 323.7C1007.75 346.9 984.822 358.5 958.155 358.5C948.555 358.5 939.488 357.167 930.955 354.5C922.688 351.833 916.422 347.967 912.155 342.9C909.755 339.967 907.888 332.633 906.555 320.9C905.488 309.167 904.955 291.3 904.955 267.3V170.5H973.355V266.5C973.355 271.833 973.488 278.1 973.755 285.3C974.022 292.5 974.822 297.033 976.155 298.9C978.022 301.567 983.355 302.9 992.155 302.9L998.555 302.5C1006.02 302.233 1013.75 300.5 1021.75 297.3V170.5H1090.15ZM1410.55 183.3C1414.82 189.7 1416.95 214.5 1416.95 257.7V354.5H1348.55V264.5V242.9C1348.55 233.033 1347.62 227.167 1345.75 225.3C1343.62 223.167 1339.09 222.1 1332.15 222.1L1327.35 222.5C1319.09 223.033 1311.22 224.9 1303.75 228.1C1304.02 233.7 1304.15 243.567 1304.15 257.7V354.5H1235.75V264.5V240.5C1235.75 232.233 1234.82 227.167 1232.95 225.3C1230.82 223.167 1226.29 222.1 1219.35 222.1L1214.55 222.5C1207.09 222.767 1199.35 224.5 1191.35 227.7V354.5H1122.95V170.5H1178.55L1185.75 200.5C1194.55 188.767 1204.69 180.233 1216.15 174.9C1227.62 169.3 1239.22 166.5 1250.95 166.5C1260.82 166.5 1270.15 167.967 1278.95 170.9C1288.02 173.833 1294.29 177.967 1297.75 183.3C1299.35 185.7 1300.69 190.1 1301.75 196.5C1310.29 186.1 1320.02 178.5 1330.95 173.7C1341.89 168.9 1352.82 166.5 1363.75 166.5C1373.62 166.5 1382.95 167.967 1391.75 170.9C1400.82 173.833 1407.09 177.967 1410.55 183.3ZM1572.33 166.5C1593.13 166.5 1609.13 172.767 1620.33 185.3C1631.8 197.833 1637.53 219.967 1637.53 251.7C1637.53 274.9 1635.13 294.767 1630.33 311.3C1625.8 327.567 1620.6 337.967 1614.73 342.5C1607.8 348.1 1597.53 352.233 1583.93 354.9C1570.33 357.567 1554.87 358.9 1537.53 358.9C1524.2 358.9 1509.27 357.833 1492.73 355.7C1476.2 353.833 1461.4 350.767 1448.33 346.5V114.5L1517.53 111.7V149.3C1517.53 151.433 1517.4 156.367 1517.13 164.1C1517.13 171.833 1516.87 178.367 1516.33 183.7C1515.8 188.767 1515 192.633 1513.93 195.3L1516.33 198.1C1522.47 188.767 1530.2 181.167 1539.53 175.3C1548.87 169.433 1559.8 166.5 1572.33 166.5ZM1561.13 310.9C1562.73 308.233 1564.07 301.967 1565.13 292.1C1566.47 282.233 1567.13 272.767 1567.13 263.7C1567.13 253.033 1566.6 244.633 1565.53 238.5C1564.73 232.367 1562.47 227.567 1558.73 224.1C1555.27 220.367 1549.8 218.5 1542.33 218.5C1535.67 218.5 1527.13 219.433 1516.73 221.3V311.7C1526.6 313.3 1536.87 314.1 1547.53 314.1C1555.27 314.1 1559.8 313.033 1561.13 310.9ZM1773.57 354.5L1767.17 329.3C1754.9 349.3 1737.83 359.3 1715.97 359.3C1698.1 359.3 1683.43 354.367 1671.97 344.5C1660.77 334.367 1655.17 320.233 1655.17 302.1C1655.17 290.9 1658.37 281.167 1664.77 272.9C1671.43 264.367 1680.5 258.367 1691.97 254.9C1706.9 250.633 1729.97 248.233 1761.17 247.7C1761.17 230.1 1760.37 220.767 1758.77 219.7C1757.43 218.633 1753.17 218.1 1745.97 218.1C1741.43 218.1 1735.17 218.367 1727.17 218.9C1714.37 219.433 1697.03 220.9 1675.17 223.3C1673.03 208.9 1671.43 193.433 1670.37 176.9C1684.5 173.967 1699.3 171.567 1714.77 169.7C1730.23 167.567 1744.1 166.5 1756.37 166.5C1777.7 166.5 1793.7 170.1 1804.37 177.3C1815.03 184.233 1821.97 193.433 1825.17 204.9C1828.37 216.367 1829.83 230.9 1829.57 248.5L1829.17 307.3L1830.37 354.5H1773.57ZM1739.17 314.5C1746.1 314.5 1753.43 313.167 1761.17 310.5V280.9H1757.97C1738.23 280.9 1727.3 281.967 1725.17 284.1C1723.83 285.433 1722.77 287.433 1721.97 290.1C1721.43 292.767 1721.17 295.3 1721.17 297.7C1721.17 304.1 1722.63 308.5 1725.57 310.9C1728.5 313.3 1733.03 314.5 1739.17 314.5ZM1955.65 123.7C1977.79 123.7 1996.19 126.633 2010.85 132.5C2025.52 138.1 2037.12 149.567 2045.65 166.9C2054.19 183.967 2058.45 208.9 2058.45 241.7C2058.45 273.167 2054.32 297.567 2046.05 314.9C2037.79 331.967 2026.19 343.7 2011.25 350.1C1996.59 356.5 1978.19 359.7 1956.05 359.7C1924.05 359.7 1899.52 351.3 1882.45 334.5C1865.39 317.433 1856.85 288.233 1856.85 246.9C1856.85 205.3 1865.12 174.367 1881.65 154.1C1898.19 133.833 1922.85 123.7 1955.65 123.7ZM1958.05 308.1C1971.39 308.1 1980.05 302.9 1984.05 292.5C1988.05 281.833 1990.05 265.167 1990.05 242.5C1990.05 219.3 1987.65 202.233 1982.85 191.3C1978.05 180.1 1968.99 174.5 1955.65 174.5C1946.32 174.5 1940.05 176.1 1936.85 179.3C1934.45 181.967 1932.32 189.967 1930.45 203.3C1928.85 216.633 1928.05 230.233 1928.05 244.1C1928.05 267.567 1930.32 284.1 1934.85 293.7C1939.65 303.3 1947.39 308.1 1958.05 308.1ZM2199 126.5V354.5H2129V184.1L2079.4 194.5L2071.8 152.5L2142.6 126.5H2199Z" fill="#7219AD"/>
<path d="M619.027 126.5H691.427V210.1H753.427V126.5H825.827V354.5H753.427V256.1H691.427V354.5H619.027V126.5ZM1046.68 170.5V354.5H991.083L983.483 323.7C964.283 346.9 941.35 358.5 914.683 358.5C905.083 358.5 896.016 357.167 887.483 354.5C879.216 351.833 872.95 347.967 868.683 342.9C866.283 339.967 864.416 332.633 863.083 320.9C862.016 309.167 861.483 291.3 861.483 267.3V170.5H929.883V266.5C929.883 271.833 930.016 278.1 930.283 285.3C930.55 292.5 931.35 297.033 932.683 298.9C934.55 301.567 939.883 302.9 948.683 302.9L955.083 302.5C962.55 302.233 970.283 300.5 978.283 297.3V170.5H1046.68ZM1367.08 183.3C1371.35 189.7 1373.48 214.5 1373.48 257.7V354.5H1305.08V264.5V242.9C1305.08 233.033 1304.15 227.167 1302.28 225.3C1300.15 223.167 1295.61 222.1 1288.68 222.1L1283.88 222.5C1275.61 223.033 1267.75 224.9 1260.28 228.1C1260.55 233.7 1260.68 243.567 1260.68 257.7V354.5H1192.28V264.5V240.5C1192.28 232.233 1191.35 227.167 1189.48 225.3C1187.35 223.167 1182.81 222.1 1175.88 222.1L1171.08 222.5C1163.61 222.767 1155.88 224.5 1147.88 227.7V354.5H1079.48V170.5H1135.08L1142.28 200.5C1151.08 188.767 1161.21 180.233 1172.68 174.9C1184.15 169.3 1195.75 166.5 1207.48 166.5C1217.35 166.5 1226.68 167.967 1235.48 170.9C1244.55 173.833 1250.81 177.967 1254.28 183.3C1255.88 185.7 1257.21 190.1 1258.28 196.5C1266.81 186.1 1276.55 178.5 1287.48 173.7C1298.41 168.9 1309.35 166.5 1320.28 166.5C1330.15 166.5 1339.48 167.967 1348.28 170.9C1357.35 173.833 1363.61 177.967 1367.08 183.3ZM1528.86 166.5C1549.66 166.5 1565.66 172.767 1576.86 185.3C1588.33 197.833 1594.06 219.967 1594.06 251.7C1594.06 274.9 1591.66 294.767 1586.86 311.3C1582.33 327.567 1577.13 337.967 1571.26 342.5C1564.33 348.1 1554.06 352.233 1540.46 354.9C1526.86 357.567 1511.39 358.9 1494.06 358.9C1480.73 358.9 1465.79 357.833 1449.26 355.7C1432.73 353.833 1417.93 350.767 1404.86 346.5V114.5L1474.06 111.7V149.3C1474.06 151.433 1473.93 156.367 1473.66 164.1C1473.66 171.833 1473.39 178.367 1472.86 183.7C1472.33 188.767 1471.53 192.633 1470.46 195.3L1472.86 198.1C1478.99 188.767 1486.73 181.167 1496.06 175.3C1505.39 169.433 1516.33 166.5 1528.86 166.5ZM1517.66 310.9C1519.26 308.233 1520.59 301.967 1521.66 292.1C1522.99 282.233 1523.66 272.767 1523.66 263.7C1523.66 253.033 1523.13 244.633 1522.06 238.5C1521.26 232.367 1518.99 227.567 1515.26 224.1C1511.79 220.367 1506.33 218.5 1498.86 218.5C1492.19 218.5 1483.66 219.433 1473.26 221.3V311.7C1483.13 313.3 1493.39 314.1 1504.06 314.1C1511.79 314.1 1516.33 313.033 1517.66 310.9ZM1730.1 354.5L1723.7 329.3C1711.43 349.3 1694.36 359.3 1672.5 359.3C1654.63 359.3 1639.96 354.367 1628.5 344.5C1617.3 334.367 1611.7 320.233 1611.7 302.1C1611.7 290.9 1614.9 281.167 1621.3 272.9C1627.96 264.367 1637.03 258.367 1648.5 254.9C1663.43 250.633 1686.5 248.233 1717.7 247.7C1717.7 230.1 1716.9 220.767 1715.3 219.7C1713.96 218.633 1709.7 218.1 1702.5 218.1C1697.96 218.1 1691.7 218.367 1683.7 218.9C1670.9 219.433 1653.56 220.9 1631.7 223.3C1629.56 208.9 1627.96 193.433 1626.9 176.9C1641.03 173.967 1655.83 171.567 1671.3 169.7C1686.76 167.567 1700.63 166.5 1712.9 166.5C1734.23 166.5 1750.23 170.1 1760.9 177.3C1771.56 184.233 1778.5 193.433 1781.7 204.9C1784.9 216.367 1786.36 230.9 1786.1 248.5L1785.7 307.3L1786.9 354.5H1730.1ZM1695.7 314.5C1702.63 314.5 1709.96 313.167 1717.7 310.5V280.9H1714.5C1694.76 280.9 1683.83 281.967 1681.7 284.1C1680.36 285.433 1679.3 287.433 1678.5 290.1C1677.96 292.767 1677.7 295.3 1677.7 297.7C1677.7 304.1 1679.16 308.5 1682.1 310.9C1685.03 313.3 1689.56 314.5 1695.7 314.5ZM1912.18 123.7C1934.31 123.7 1952.71 126.633 1967.38 132.5C1982.05 138.1 1993.65 149.567 2002.18 166.9C2010.71 183.967 2014.98 208.9 2014.98 241.7C2014.98 273.167 2010.85 297.567 2002.58 314.9C1994.31 331.967 1982.71 343.7 1967.78 350.1C1953.11 356.5 1934.71 359.7 1912.58 359.7C1880.58 359.7 1856.05 351.3 1838.98 334.5C1821.91 317.433 1813.38 288.233 1813.38 246.9C1813.38 205.3 1821.65 174.367 1838.18 154.1C1854.71 133.833 1879.38 123.7 1912.18 123.7ZM1914.58 308.1C1927.91 308.1 1936.58 302.9 1940.58 292.5C1944.58 281.833 1946.58 265.167 1946.58 242.5C1946.58 219.3 1944.18 202.233 1939.38 191.3C1934.58 180.1 1925.51 174.5 1912.18 174.5C1902.85 174.5 1896.58 176.1 1893.38 179.3C1890.98 181.967 1888.85 189.967 1886.98 203.3C1885.38 216.633 1884.58 230.233 1884.58 244.1C1884.58 267.567 1886.85 284.1 1891.38 293.7C1896.18 303.3 1903.91 308.1 1914.58 308.1ZM2155.52 126.5V354.5H2085.52V184.1L2035.92 194.5L2028.32 152.5L2099.12 126.5H2155.52Z" fill="#7C1BBC"/>
<path d="M575.555 126.5H647.955V210.1H709.955V126.5H782.355V354.5H709.955V256.1H647.955V354.5H575.555V126.5ZM1003.21 170.5V354.5H947.611L940.011 323.7C920.811 346.9 897.878 358.5 871.211 358.5C861.611 358.5 852.544 357.167 844.011 354.5C835.744 351.833 829.478 347.967 825.211 342.9C822.811 339.967 820.944 332.633 819.611 320.9C818.544 309.167 818.011 291.3 818.011 267.3V170.5H886.411V266.5C886.411 271.833 886.544 278.1 886.811 285.3C887.078 292.5 887.878 297.033 889.211 298.9C891.078 301.567 896.411 302.9 905.211 302.9L911.611 302.5C919.078 302.233 926.811 300.5 934.811 297.3V170.5H1003.21ZM1323.61 183.3C1327.87 189.7 1330.01 214.5 1330.01 257.7V354.5H1261.61V264.5V242.9C1261.61 233.033 1260.67 227.167 1258.81 225.3C1256.67 223.167 1252.14 222.1 1245.21 222.1L1240.41 222.5C1232.14 223.033 1224.27 224.9 1216.81 228.1C1217.07 233.7 1217.21 243.567 1217.21 257.7V354.5H1148.81V264.5V240.5C1148.81 232.233 1147.87 227.167 1146.01 225.3C1143.87 223.167 1139.34 222.1 1132.41 222.1L1127.61 222.5C1120.14 222.767 1112.41 224.5 1104.41 227.7V354.5H1036.01V170.5H1091.61L1098.81 200.5C1107.61 188.767 1117.74 180.233 1129.21 174.9C1140.67 169.3 1152.27 166.5 1164.01 166.5C1173.87 166.5 1183.21 167.967 1192.01 170.9C1201.07 173.833 1207.34 177.967 1210.81 183.3C1212.41 185.7 1213.74 190.1 1214.81 196.5C1223.34 186.1 1233.07 178.5 1244.01 173.7C1254.94 168.9 1265.87 166.5 1276.81 166.5C1286.67 166.5 1296.01 167.967 1304.81 170.9C1313.87 173.833 1320.14 177.967 1323.61 183.3ZM1485.39 166.5C1506.19 166.5 1522.19 172.767 1533.39 185.3C1544.86 197.833 1550.59 219.967 1550.59 251.7C1550.59 274.9 1548.19 294.767 1543.39 311.3C1538.86 327.567 1533.66 337.967 1527.79 342.5C1520.86 348.1 1510.59 352.233 1496.99 354.9C1483.39 357.567 1467.92 358.9 1450.59 358.9C1437.26 358.9 1422.32 357.833 1405.79 355.7C1389.26 353.833 1374.46 350.767 1361.39 346.5V114.5L1430.59 111.7V149.3C1430.59 151.433 1430.46 156.367 1430.19 164.1C1430.19 171.833 1429.92 178.367 1429.39 183.7C1428.86 188.767 1428.06 192.633 1426.99 195.3L1429.39 198.1C1435.52 188.767 1443.26 181.167 1452.59 175.3C1461.92 169.433 1472.86 166.5 1485.39 166.5ZM1474.19 310.9C1475.79 308.233 1477.12 301.967 1478.19 292.1C1479.52 282.233 1480.19 272.767 1480.19 263.7C1480.19 253.033 1479.66 244.633 1478.59 238.5C1477.79 232.367 1475.52 227.567 1471.79 224.1C1468.32 220.367 1462.86 218.5 1455.39 218.5C1448.72 218.5 1440.19 219.433 1429.79 221.3V311.7C1439.66 313.3 1449.92 314.1 1460.59 314.1C1468.32 314.1 1472.86 313.033 1474.19 310.9ZM1686.62 354.5L1680.22 329.3C1667.96 349.3 1650.89 359.3 1629.02 359.3C1611.16 359.3 1596.49 354.367 1585.02 344.5C1573.82 334.367 1568.22 320.233 1568.22 302.1C1568.22 290.9 1571.42 281.167 1577.82 272.9C1584.49 264.367 1593.56 258.367 1605.02 254.9C1619.96 250.633 1643.02 248.233 1674.22 247.7C1674.22 230.1 1673.42 220.767 1671.82 219.7C1670.49 218.633 1666.22 218.1 1659.02 218.1C1654.49 218.1 1648.22 218.367 1640.22 218.9C1627.42 219.433 1610.09 220.9 1588.22 223.3C1586.09 208.9 1584.49 193.433 1583.42 176.9C1597.56 173.967 1612.36 171.567 1627.82 169.7C1643.29 167.567 1657.16 166.5 1669.42 166.5C1690.76 166.5 1706.76 170.1 1717.42 177.3C1728.09 184.233 1735.02 193.433 1738.22 204.9C1741.42 216.367 1742.89 230.9 1742.62 248.5L1742.22 307.3L1743.42 354.5H1686.62ZM1652.22 314.5C1659.16 314.5 1666.49 313.167 1674.22 310.5V280.9H1671.02C1651.29 280.9 1640.36 281.967 1638.22 284.1C1636.89 285.433 1635.82 287.433 1635.02 290.1C1634.49 292.767 1634.22 295.3 1634.22 297.7C1634.22 304.1 1635.69 308.5 1638.62 310.9C1641.56 313.3 1646.09 314.5 1652.22 314.5ZM1868.71 123.7C1890.84 123.7 1909.24 126.633 1923.91 132.5C1938.57 138.1 1950.17 149.567 1958.71 166.9C1967.24 183.967 1971.51 208.9 1971.51 241.7C1971.51 273.167 1967.37 297.567 1959.11 314.9C1950.84 331.967 1939.24 343.7 1924.31 350.1C1909.64 356.5 1891.24 359.7 1869.11 359.7C1837.11 359.7 1812.57 351.3 1795.51 334.5C1778.44 317.433 1769.91 288.233 1769.91 246.9C1769.91 205.3 1778.17 174.367 1794.71 154.1C1811.24 133.833 1835.91 123.7 1868.71 123.7ZM1871.11 308.1C1884.44 308.1 1893.11 302.9 1897.11 292.5C1901.11 281.833 1903.11 265.167 1903.11 242.5C1903.11 219.3 1900.71 202.233 1895.91 191.3C1891.11 180.1 1882.04 174.5 1868.71 174.5C1859.37 174.5 1853.11 176.1 1849.91 179.3C1847.51 181.967 1845.37 189.967 1843.51 203.3C1841.91 216.633 1841.11 230.233 1841.11 244.1C1841.11 267.567 1843.37 284.1 1847.91 293.7C1852.71 303.3 1860.44 308.1 1871.11 308.1ZM2112.05 126.5V354.5H2042.05V184.1L1992.45 194.5L1984.85 152.5L2055.65 126.5H2112.05Z" fill="#851DCA"/>
<path d="M533.485 126.5H605.885V210.1H667.885V126.5H740.285V354.5H667.885V256.1H605.885V354.5H533.485V126.5ZM961.141 170.5V354.5H905.541L897.941 323.7C878.741 346.9 855.808 358.5 829.141 358.5C819.541 358.5 810.475 357.167 801.941 354.5C793.675 351.833 787.408 347.967 783.141 342.9C780.741 339.967 778.875 332.633 777.541 320.9C776.475 309.167 775.941 291.3 775.941 267.3V170.5H844.341V266.5C844.341 271.833 844.475 278.1 844.741 285.3C845.008 292.5 845.808 297.033 847.141 298.9C849.008 301.567 854.341 302.9 863.141 302.9L869.541 302.5C877.008 302.233 884.741 300.5 892.741 297.3V170.5H961.141ZM1281.54 183.3C1285.81 189.7 1287.94 214.5 1287.94 257.7V354.5H1219.54V264.5V242.9C1219.54 233.033 1218.61 227.167 1216.74 225.3C1214.61 223.167 1210.07 222.1 1203.14 222.1L1198.34 222.5C1190.07 223.033 1182.21 224.9 1174.74 228.1C1175.01 233.7 1175.14 243.567 1175.14 257.7V354.5H1106.74V264.5V240.5C1106.74 232.233 1105.81 227.167 1103.94 225.3C1101.81 223.167 1097.27 222.1 1090.34 222.1L1085.54 222.5C1078.07 222.767 1070.34 224.5 1062.34 227.7V354.5H993.938V170.5H1049.54L1056.74 200.5C1065.54 188.767 1075.67 180.233 1087.14 174.9C1098.6 169.3 1110.21 166.5 1121.94 166.5C1131.81 166.5 1141.14 167.967 1149.94 170.9C1159.01 173.833 1165.27 177.967 1168.74 183.3C1170.34 185.7 1171.67 190.1 1172.74 196.5C1181.27 186.1 1191.01 178.5 1201.94 173.7C1212.87 168.9 1223.81 166.5 1234.74 166.5C1244.6 166.5 1253.94 167.967 1262.74 170.9C1271.81 173.833 1278.07 177.967 1281.54 183.3ZM1443.32 166.5C1464.12 166.5 1480.12 172.767 1491.32 185.3C1502.79 197.833 1508.52 219.967 1508.52 251.7C1508.52 274.9 1506.12 294.767 1501.32 311.3C1496.79 327.567 1491.59 337.967 1485.72 342.5C1478.79 348.1 1468.52 352.233 1454.92 354.9C1441.32 357.567 1425.85 358.9 1408.52 358.9C1395.19 358.9 1380.25 357.833 1363.72 355.7C1347.19 353.833 1332.39 350.767 1319.32 346.5V114.5L1388.52 111.7V149.3C1388.52 151.433 1388.39 156.367 1388.12 164.1C1388.12 171.833 1387.85 178.367 1387.32 183.7C1386.79 188.767 1385.99 192.633 1384.92 195.3L1387.32 198.1C1393.45 188.767 1401.19 181.167 1410.52 175.3C1419.85 169.433 1430.79 166.5 1443.32 166.5ZM1432.12 310.9C1433.72 308.233 1435.05 301.967 1436.12 292.1C1437.45 282.233 1438.12 272.767 1438.12 263.7C1438.12 253.033 1437.59 244.633 1436.52 238.5C1435.72 232.367 1433.45 227.567 1429.72 224.1C1426.25 220.367 1420.79 218.5 1413.32 218.5C1406.65 218.5 1398.12 219.433 1387.72 221.3V311.7C1397.59 313.3 1407.85 314.1 1418.52 314.1C1426.25 314.1 1430.79 313.033 1432.12 310.9ZM1644.55 354.5L1638.15 329.3C1625.89 349.3 1608.82 359.3 1586.95 359.3C1569.09 359.3 1554.42 354.367 1542.95 344.5C1531.75 334.367 1526.15 320.233 1526.15 302.1C1526.15 290.9 1529.35 281.167 1535.75 272.9C1542.42 264.367 1551.49 258.367 1562.95 254.9C1577.89 250.633 1600.95 248.233 1632.15 247.7C1632.15 230.1 1631.35 220.767 1629.75 219.7C1628.42 218.633 1624.15 218.1 1616.95 218.1C1612.42 218.1 1606.15 218.367 1598.15 218.9C1585.35 219.433 1568.02 220.9 1546.15 223.3C1544.02 208.9 1542.42 193.433 1541.35 176.9C1555.49 173.967 1570.29 171.567 1585.75 169.7C1601.22 167.567 1615.09 166.5 1627.35 166.5C1648.69 166.5 1664.69 170.1 1675.35 177.3C1686.02 184.233 1692.95 193.433 1696.15 204.9C1699.35 216.367 1700.82 230.9 1700.55 248.5L1700.15 307.3L1701.35 354.5H1644.55ZM1610.15 314.5C1617.09 314.5 1624.42 313.167 1632.15 310.5V280.9H1628.95C1609.22 280.9 1598.29 281.967 1596.15 284.1C1594.82 285.433 1593.75 287.433 1592.95 290.1C1592.42 292.767 1592.15 295.3 1592.15 297.7C1592.15 304.1 1593.62 308.5 1596.55 310.9C1599.49 313.3 1604.02 314.5 1610.15 314.5ZM1826.64 123.7C1848.77 123.7 1867.17 126.633 1881.84 132.5C1896.51 138.1 1908.11 149.567 1916.64 166.9C1925.17 183.967 1929.44 208.9 1929.44 241.7C1929.44 273.167 1925.3 297.567 1917.04 314.9C1908.77 331.967 1897.17 343.7 1882.24 350.1C1867.57 356.5 1849.17 359.7 1827.04 359.7C1795.04 359.7 1770.5 351.3 1753.44 334.5C1736.37 317.433 1727.84 288.233 1727.84 246.9C1727.84 205.3 1736.1 174.367 1752.64 154.1C1769.17 133.833 1793.84 123.7 1826.64 123.7ZM1829.04 308.1C1842.37 308.1 1851.04 302.9 1855.04 292.5C1859.04 281.833 1861.04 265.167 1861.04 242.5C1861.04 219.3 1858.64 202.233 1853.84 191.3C1849.04 180.1 1839.97 174.5 1826.64 174.5C1817.31 174.5 1811.04 176.1 1807.84 179.3C1805.44 181.967 1803.3 189.967 1801.44 203.3C1799.84 216.633 1799.04 230.233 1799.04 244.1C1799.04 267.567 1801.31 284.1 1805.84 293.7C1810.64 303.3 1818.37 308.1 1829.04 308.1ZM2069.98 126.5V354.5H1999.98V184.1L1950.38 194.5L1942.78 152.5L2013.58 126.5H2069.98Z" fill="#8F1FD8"/>
<path d="M488.611 126.5H561.011V210.1H623.011V126.5H695.411V354.5H623.011V256.1H561.011V354.5H488.611V126.5ZM916.267 170.5V354.5H860.667L853.067 323.7C833.867 346.9 810.934 358.5 784.267 358.5C774.667 358.5 765.601 357.167 757.067 354.5C748.801 351.833 742.534 347.967 738.267 342.9C735.867 339.967 734.001 332.633 732.667 320.9C731.601 309.167 731.067 291.3 731.067 267.3V170.5H799.467V266.5C799.467 271.833 799.601 278.1 799.867 285.3C800.134 292.5 800.934 297.033 802.267 298.9C804.134 301.567 809.467 302.9 818.267 302.9L824.667 302.5C832.134 302.233 839.867 300.5 847.867 297.3V170.5H916.267ZM1236.66 183.3C1240.93 189.7 1243.06 214.5 1243.06 257.7V354.5H1174.66V264.5V242.9C1174.66 233.033 1173.73 227.167 1171.86 225.3C1169.73 223.167 1165.2 222.1 1158.26 222.1L1153.46 222.5C1145.2 223.033 1137.33 224.9 1129.86 228.1C1130.13 233.7 1130.26 243.567 1130.26 257.7V354.5H1061.86V264.5V240.5C1061.86 232.233 1060.93 227.167 1059.06 225.3C1056.93 223.167 1052.4 222.1 1045.46 222.1L1040.66 222.5C1033.2 222.767 1025.46 224.5 1017.46 227.7V354.5H949.064V170.5H1004.66L1011.86 200.5C1020.66 188.767 1030.8 180.233 1042.26 174.9C1053.73 169.3 1065.33 166.5 1077.06 166.5C1086.93 166.5 1096.26 167.967 1105.06 170.9C1114.13 173.833 1120.4 177.967 1123.86 183.3C1125.46 185.7 1126.8 190.1 1127.86 196.5C1136.4 186.1 1146.13 178.5 1157.06 173.7C1168 168.9 1178.93 166.5 1189.86 166.5C1199.73 166.5 1209.06 167.967 1217.86 170.9C1226.93 173.833 1233.2 177.967 1236.66 183.3ZM1398.45 166.5C1419.25 166.5 1435.25 172.767 1446.45 185.3C1457.91 197.833 1463.65 219.967 1463.65 251.7C1463.65 274.9 1461.25 294.767 1456.45 311.3C1451.91 327.567 1446.71 337.967 1440.85 342.5C1433.91 348.1 1423.65 352.233 1410.05 354.9C1396.45 357.567 1380.98 358.9 1363.65 358.9C1350.31 358.9 1335.38 357.833 1318.85 355.7C1302.31 353.833 1287.51 350.767 1274.45 346.5V114.5L1343.65 111.7V149.3C1343.65 151.433 1343.51 156.367 1343.25 164.1C1343.25 171.833 1342.98 178.367 1342.45 183.7C1341.91 188.767 1341.11 192.633 1340.05 195.3L1342.45 198.1C1348.58 188.767 1356.31 181.167 1365.65 175.3C1374.98 169.433 1385.91 166.5 1398.45 166.5ZM1387.25 310.9C1388.85 308.233 1390.18 301.967 1391.25 292.1C1392.58 282.233 1393.25 272.767 1393.25 263.7C1393.25 253.033 1392.71 244.633 1391.65 238.5C1390.85 232.367 1388.58 227.567 1384.85 224.1C1381.38 220.367 1375.91 218.5 1368.45 218.5C1361.78 218.5 1353.25 219.433 1342.85 221.3V311.7C1352.71 313.3 1362.98 314.1 1373.65 314.1C1381.38 314.1 1385.91 313.033 1387.25 310.9ZM1599.68 354.5L1593.28 329.3C1581.01 349.3 1563.95 359.3 1542.08 359.3C1524.21 359.3 1509.55 354.367 1498.08 344.5C1486.88 334.367 1481.28 320.233 1481.28 302.1C1481.28 290.9 1484.48 281.167 1490.88 272.9C1497.55 264.367 1506.61 258.367 1518.08 254.9C1533.01 250.633 1556.08 248.233 1587.28 247.7C1587.28 230.1 1586.48 220.767 1584.88 219.7C1583.55 218.633 1579.28 218.1 1572.08 218.1C1567.55 218.1 1561.28 218.367 1553.28 218.9C1540.48 219.433 1523.15 220.9 1501.28 223.3C1499.15 208.9 1497.55 193.433 1496.48 176.9C1510.61 173.967 1525.41 171.567 1540.88 169.7C1556.35 167.567 1570.21 166.5 1582.48 166.5C1603.81 166.5 1619.81 170.1 1630.48 177.3C1641.15 184.233 1648.08 193.433 1651.28 204.9C1654.48 216.367 1655.95 230.9 1655.68 248.5L1655.28 307.3L1656.48 354.5H1599.68ZM1565.28 314.5C1572.21 314.5 1579.55 313.167 1587.28 310.5V280.9H1584.08C1564.35 280.9 1553.41 281.967 1551.28 284.1C1549.95 285.433 1548.88 287.433 1548.08 290.1C1547.55 292.767 1547.28 295.3 1547.28 297.7C1547.28 304.1 1548.75 308.5 1551.68 310.9C1554.61 313.3 1559.15 314.5 1565.28 314.5ZM1781.76 123.7C1803.9 123.7 1822.3 126.633 1836.96 132.5C1851.63 138.1 1863.23 149.567 1871.76 166.9C1880.3 183.967 1884.56 208.9 1884.56 241.7C1884.56 273.167 1880.43 297.567 1872.16 314.9C1863.9 331.967 1852.3 343.7 1837.36 350.1C1822.7 356.5 1804.3 359.7 1782.16 359.7C1750.16 359.7 1725.63 351.3 1708.56 334.5C1691.5 317.433 1682.96 288.233 1682.96 246.9C1682.96 205.3 1691.23 174.367 1707.76 154.1C1724.3 133.833 1748.96 123.7 1781.76 123.7ZM1784.16 308.1C1797.5 308.1 1806.16 302.9 1810.16 292.5C1814.16 281.833 1816.16 265.167 1816.16 242.5C1816.16 219.3 1813.76 202.233 1808.96 191.3C1804.16 180.1 1795.1 174.5 1781.76 174.5C1772.43 174.5 1766.16 176.1 1762.96 179.3C1760.56 181.967 1758.43 189.967 1756.56 203.3C1754.96 216.633 1754.16 230.233 1754.16 244.1C1754.16 267.567 1756.43 284.1 1760.96 293.7C1765.76 303.3 1773.5 308.1 1784.16 308.1ZM2025.11 126.5V354.5H1955.11V184.1L1905.51 194.5L1897.91 152.5L1968.71 126.5H2025.11Z" fill="#9728E0"/>
<path d="M445.139 126.5H517.539V210.1H579.539V126.5H651.939V354.5H579.539V256.1H517.539V354.5H445.139V126.5ZM872.795 170.5V354.5H817.195L809.595 323.7C790.395 346.9 767.462 358.5 740.795 358.5C731.195 358.5 722.129 357.167 713.595 354.5C705.329 351.833 699.062 347.967 694.795 342.9C692.395 339.967 690.529 332.633 689.195 320.9C688.129 309.167 687.595 291.3 687.595 267.3V170.5H755.995V266.5C755.995 271.833 756.129 278.1 756.395 285.3C756.662 292.5 757.462 297.033 758.795 298.9C760.662 301.567 765.995 302.9 774.795 302.9L781.195 302.5C788.662 302.233 796.395 300.5 804.395 297.3V170.5H872.795ZM1193.19 183.3C1197.46 189.7 1199.59 214.5 1199.59 257.7V354.5H1131.19V264.5V242.9C1131.19 233.033 1130.26 227.167 1128.39 225.3C1126.26 223.167 1121.73 222.1 1114.79 222.1L1109.99 222.5C1101.73 223.033 1093.86 224.9 1086.39 228.1C1086.66 233.7 1086.79 243.567 1086.79 257.7V354.5H1018.39V264.5V240.5C1018.39 232.233 1017.46 227.167 1015.59 225.3C1013.46 223.167 1008.93 222.1 1001.99 222.1L997.192 222.5C989.725 222.767 981.992 224.5 973.992 227.7V354.5H905.592V170.5H961.192L968.392 200.5C977.192 188.767 987.325 180.233 998.792 174.9C1010.26 169.3 1021.86 166.5 1033.59 166.5C1043.46 166.5 1052.79 167.967 1061.59 170.9C1070.66 173.833 1076.93 177.967 1080.39 183.3C1081.99 185.7 1083.33 190.1 1084.39 196.5C1092.93 186.1 1102.66 178.5 1113.59 173.7C1124.53 168.9 1135.46 166.5 1146.39 166.5C1156.26 166.5 1165.59 167.967 1174.39 170.9C1183.46 173.833 1189.73 177.967 1193.19 183.3ZM1354.97 166.5C1375.77 166.5 1391.77 172.767 1402.97 185.3C1414.44 197.833 1420.17 219.967 1420.17 251.7C1420.17 274.9 1417.77 294.767 1412.97 311.3C1408.44 327.567 1403.24 337.967 1397.37 342.5C1390.44 348.1 1380.17 352.233 1366.57 354.9C1352.97 357.567 1337.51 358.9 1320.17 358.9C1306.84 358.9 1291.91 357.833 1275.37 355.7C1258.84 353.833 1244.04 350.767 1230.97 346.5V114.5L1300.17 111.7V149.3C1300.17 151.433 1300.04 156.367 1299.77 164.1C1299.77 171.833 1299.51 178.367 1298.97 183.7C1298.44 188.767 1297.64 192.633 1296.57 195.3L1298.97 198.1C1305.11 188.767 1312.84 181.167 1322.17 175.3C1331.51 169.433 1342.44 166.5 1354.97 166.5ZM1343.77 310.9C1345.37 308.233 1346.71 301.967 1347.77 292.1C1349.11 282.233 1349.77 272.767 1349.77 263.7C1349.77 253.033 1349.24 244.633 1348.17 238.5C1347.37 232.367 1345.11 227.567 1341.37 224.1C1337.91 220.367 1332.44 218.5 1324.97 218.5C1318.31 218.5 1309.77 219.433 1299.37 221.3V311.7C1309.24 313.3 1319.51 314.1 1330.17 314.1C1337.91 314.1 1342.44 313.033 1343.77 310.9ZM1556.21 354.5L1549.81 329.3C1537.54 349.3 1520.47 359.3 1498.61 359.3C1480.74 359.3 1466.07 354.367 1454.61 344.5C1443.41 334.367 1437.81 320.233 1437.81 302.1C1437.81 290.9 1441.01 281.167 1447.41 272.9C1454.07 264.367 1463.14 258.367 1474.61 254.9C1489.54 250.633 1512.61 248.233 1543.81 247.7C1543.81 230.1 1543.01 220.767 1541.41 219.7C1540.07 218.633 1535.81 218.1 1528.61 218.1C1524.07 218.1 1517.81 218.367 1509.81 218.9C1497.01 219.433 1479.67 220.9 1457.81 223.3C1455.67 208.9 1454.07 193.433 1453.01 176.9C1467.14 173.967 1481.94 171.567 1497.41 169.7C1512.87 167.567 1526.74 166.5 1539.01 166.5C1560.34 166.5 1576.34 170.1 1587.01 177.3C1597.67 184.233 1604.61 193.433 1607.81 204.9C1611.01 216.367 1612.47 230.9 1612.21 248.5L1611.81 307.3L1613.01 354.5H1556.21ZM1521.81 314.5C1528.74 314.5 1536.07 313.167 1543.81 310.5V280.9H1540.61C1520.87 280.9 1509.94 281.967 1507.81 284.1C1506.47 285.433 1505.41 287.433 1504.61 290.1C1504.07 292.767 1503.81 295.3 1503.81 297.7C1503.81 304.1 1505.27 308.5 1508.21 310.9C1511.14 313.3 1515.67 314.5 1521.81 314.5ZM1738.29 123.7C1760.43 123.7 1778.83 126.633 1793.49 132.5C1808.16 138.1 1819.76 149.567 1828.29 166.9C1836.83 183.967 1841.09 208.9 1841.09 241.7C1841.09 273.167 1836.96 297.567 1828.69 314.9C1820.43 331.967 1808.83 343.7 1793.89 350.1C1779.23 356.5 1760.83 359.7 1738.69 359.7C1706.69 359.7 1682.16 351.3 1665.09 334.5C1648.03 317.433 1639.49 288.233 1639.49 246.9C1639.49 205.3 1647.76 174.367 1664.29 154.1C1680.83 133.833 1705.49 123.7 1738.29 123.7ZM1740.69 308.1C1754.03 308.1 1762.69 302.9 1766.69 292.5C1770.69 281.833 1772.69 265.167 1772.69 242.5C1772.69 219.3 1770.29 202.233 1765.49 191.3C1760.69 180.1 1751.63 174.5 1738.29 174.5C1728.96 174.5 1722.69 176.1 1719.49 179.3C1717.09 181.967 1714.96 189.967 1713.09 203.3C1711.49 216.633 1710.69 230.233 1710.69 244.1C1710.69 267.567 1712.96 284.1 1717.49 293.7C1722.29 303.3 1730.03 308.1 1740.69 308.1ZM1981.64 126.5V354.5H1911.64V184.1L1862.04 194.5L1854.44 152.5L1925.24 126.5H1981.64Z" fill="#9E36E2"/>
<path d="M400.265 126.5H472.665V210.1H534.665V126.5H607.065V354.5H534.665V256.1H472.665V354.5H400.265V126.5ZM827.921 170.5V354.5H772.321L764.721 323.7C745.521 346.9 722.588 358.5 695.921 358.5C686.321 358.5 677.254 357.167 668.721 354.5C660.454 351.833 654.188 347.967 649.921 342.9C647.521 339.967 645.654 332.633 644.321 320.9C643.254 309.167 642.721 291.3 642.721 267.3V170.5H711.121V266.5C711.121 271.833 711.254 278.1 711.521 285.3C711.788 292.5 712.588 297.033 713.921 298.9C715.788 301.567 721.121 302.9 729.921 302.9L736.321 302.5C743.788 302.233 751.521 300.5 759.521 297.3V170.5H827.921ZM1148.32 183.3C1152.58 189.7 1154.72 214.5 1154.72 257.7V354.5H1086.32V264.5V242.9C1086.32 233.033 1085.38 227.167 1083.52 225.3C1081.38 223.167 1076.85 222.1 1069.92 222.1L1065.12 222.5C1056.85 223.033 1048.98 224.9 1041.52 228.1C1041.78 233.7 1041.92 243.567 1041.92 257.7V354.5H973.518V264.5V240.5C973.518 232.233 972.585 227.167 970.718 225.3C968.585 223.167 964.051 222.1 957.118 222.1L952.318 222.5C944.851 222.767 937.118 224.5 929.118 227.7V354.5H860.718V170.5H916.318L923.518 200.5C932.318 188.767 942.451 180.233 953.918 174.9C965.385 169.3 976.985 166.5 988.718 166.5C998.585 166.5 1007.92 167.967 1016.72 170.9C1025.78 173.833 1032.05 177.967 1035.52 183.3C1037.12 185.7 1038.45 190.1 1039.52 196.5C1048.05 186.1 1057.78 178.5 1068.72 173.7C1079.65 168.9 1090.58 166.5 1101.52 166.5C1111.38 166.5 1120.72 167.967 1129.52 170.9C1138.58 173.833 1144.85 177.967 1148.32 183.3ZM1310.1 166.5C1330.9 166.5 1346.9 172.767 1358.1 185.3C1369.57 197.833 1375.3 219.967 1375.3 251.7C1375.3 274.9 1372.9 294.767 1368.1 311.3C1363.57 327.567 1358.37 337.967 1352.5 342.5C1345.57 348.1 1335.3 352.233 1321.7 354.9C1308.1 357.567 1292.63 358.9 1275.3 358.9C1261.97 358.9 1247.03 357.833 1230.5 355.7C1213.97 353.833 1199.17 350.767 1186.1 346.5V114.5L1255.3 111.7V149.3C1255.3 151.433 1255.17 156.367 1254.9 164.1C1254.9 171.833 1254.63 178.367 1254.1 183.7C1253.57 188.767 1252.77 192.633 1251.7 195.3L1254.1 198.1C1260.23 188.767 1267.97 181.167 1277.3 175.3C1286.63 169.433 1297.57 166.5 1310.1 166.5ZM1298.9 310.9C1300.5 308.233 1301.83 301.967 1302.9 292.1C1304.23 282.233 1304.9 272.767 1304.9 263.7C1304.9 253.033 1304.37 244.633 1303.3 238.5C1302.5 232.367 1300.23 227.567 1296.5 224.1C1293.03 220.367 1287.57 218.5 1280.1 218.5C1273.43 218.5 1264.9 219.433 1254.5 221.3V311.7C1264.37 313.3 1274.63 314.1 1285.3 314.1C1293.03 314.1 1297.57 313.033 1298.9 310.9ZM1511.33 354.5L1504.93 329.3C1492.67 349.3 1475.6 359.3 1453.73 359.3C1435.87 359.3 1421.2 354.367 1409.73 344.5C1398.53 334.367 1392.93 320.233 1392.93 302.1C1392.93 290.9 1396.13 281.167 1402.53 272.9C1409.2 264.367 1418.27 258.367 1429.73 254.9C1444.67 250.633 1467.73 248.233 1498.93 247.7C1498.93 230.1 1498.13 220.767 1496.53 219.7C1495.2 218.633 1490.93 218.1 1483.73 218.1C1479.2 218.1 1472.93 218.367 1464.93 218.9C1452.13 219.433 1434.8 220.9 1412.93 223.3C1410.8 208.9 1409.2 193.433 1408.13 176.9C1422.27 173.967 1437.07 171.567 1452.53 169.7C1468 167.567 1481.87 166.5 1494.13 166.5C1515.47 166.5 1531.47 170.1 1542.13 177.3C1552.8 184.233 1559.73 193.433 1562.93 204.9C1566.13 216.367 1567.6 230.9 1567.33 248.5L1566.93 307.3L1568.13 354.5H1511.33ZM1476.93 314.5C1483.87 314.5 1491.2 313.167 1498.93 310.5V280.9H1495.73C1476 280.9 1465.07 281.967 1462.93 284.1C1461.6 285.433 1460.53 287.433 1459.73 290.1C1459.2 292.767 1458.93 295.3 1458.93 297.7C1458.93 304.1 1460.4 308.5 1463.33 310.9C1466.27 313.3 1470.8 314.5 1476.93 314.5ZM1693.42 123.7C1715.55 123.7 1733.95 126.633 1748.62 132.5C1763.28 138.1 1774.88 149.567 1783.42 166.9C1791.95 183.967 1796.22 208.9 1796.22 241.7C1796.22 273.167 1792.08 297.567 1783.82 314.9C1775.55 331.967 1763.95 343.7 1749.02 350.1C1734.35 356.5 1715.95 359.7 1693.82 359.7C1661.82 359.7 1637.28 351.3 1620.22 334.5C1603.15 317.433 1594.62 288.233 1594.62 246.9C1594.62 205.3 1602.88 174.367 1619.42 154.1C1635.95 133.833 1660.62 123.7 1693.42 123.7ZM1695.82 308.1C1709.15 308.1 1717.82 302.9 1721.82 292.5C1725.82 281.833 1727.82 265.167 1727.82 242.5C1727.82 219.3 1725.42 202.233 1720.62 191.3C1715.82 180.1 1706.75 174.5 1693.42 174.5C1684.08 174.5 1677.82 176.1 1674.62 179.3C1672.22 181.967 1670.08 189.967 1668.22 203.3C1666.62 216.633 1665.82 230.233 1665.82 244.1C1665.82 267.567 1668.08 284.1 1672.62 293.7C1677.42 303.3 1685.15 308.1 1695.82 308.1ZM1936.76 126.5V354.5H1866.76V184.1L1817.16 194.5L1809.56 152.5L1880.36 126.5H1936.76Z" fill="#A445E4"/>
<path d="M353.988 126.5H426.388V210.1H488.388V126.5H560.788V354.5H488.388V256.1H426.388V354.5H353.988V126.5ZM781.644 170.5V354.5H726.044L718.444 323.7C699.244 346.9 676.311 358.5 649.644 358.5C640.044 358.5 630.978 357.167 622.444 354.5C614.178 351.833 607.911 347.967 603.644 342.9C601.244 339.967 599.378 332.633 598.044 320.9C596.978 309.167 596.444 291.3 596.444 267.3V170.5H664.844V266.5C664.844 271.833 664.978 278.1 665.244 285.3C665.511 292.5 666.311 297.033 667.644 298.9C669.511 301.567 674.844 302.9 683.644 302.9L690.044 302.5C697.511 302.233 705.244 300.5 713.244 297.3V170.5H781.644ZM1102.04 183.3C1106.31 189.7 1108.44 214.5 1108.44 257.7V354.5H1040.04V264.5V242.9C1040.04 233.033 1039.11 227.167 1037.24 225.3C1035.11 223.167 1030.57 222.1 1023.64 222.1L1018.84 222.5C1010.57 223.033 1002.71 224.9 995.241 228.1C995.508 233.7 995.641 243.567 995.641 257.7V354.5H927.241V264.5V240.5C927.241 232.233 926.308 227.167 924.441 225.3C922.308 223.167 917.775 222.1 910.841 222.1L906.041 222.5C898.575 222.767 890.841 224.5 882.841 227.7V354.5H814.441V170.5H870.041L877.241 200.5C886.041 188.767 896.175 180.233 907.641 174.9C919.108 169.3 930.708 166.5 942.441 166.5C952.308 166.5 961.641 167.967 970.441 170.9C979.508 173.833 985.775 177.967 989.241 183.3C990.841 185.7 992.175 190.1 993.241 196.5C1001.77 186.1 1011.51 178.5 1022.44 173.7C1033.37 168.9 1044.31 166.5 1055.24 166.5C1065.11 166.5 1074.44 167.967 1083.24 170.9C1092.31 173.833 1098.57 177.967 1102.04 183.3ZM1263.82 166.5C1284.62 166.5 1300.62 172.767 1311.82 185.3C1323.29 197.833 1329.02 219.967 1329.02 251.7C1329.02 274.9 1326.62 294.767 1321.82 311.3C1317.29 327.567 1312.09 337.967 1306.22 342.5C1299.29 348.1 1289.02 352.233 1275.42 354.9C1261.82 357.567 1246.36 358.9 1229.02 358.9C1215.69 358.9 1200.76 357.833 1184.22 355.7C1167.69 353.833 1152.89 350.767 1139.82 346.5V114.5L1209.02 111.7V149.3C1209.02 151.433 1208.89 156.367 1208.62 164.1C1208.62 171.833 1208.36 178.367 1207.82 183.7C1207.29 188.767 1206.49 192.633 1205.42 195.3L1207.82 198.1C1213.96 188.767 1221.69 181.167 1231.02 175.3C1240.36 169.433 1251.29 166.5 1263.82 166.5ZM1252.62 310.9C1254.22 308.233 1255.56 301.967 1256.62 292.1C1257.96 282.233 1258.62 272.767 1258.62 263.7C1258.62 253.033 1258.09 244.633 1257.02 238.5C1256.22 232.367 1253.96 227.567 1250.22 224.1C1246.76 220.367 1241.29 218.5 1233.82 218.5C1227.16 218.5 1218.62 219.433 1208.22 221.3V311.7C1218.09 313.3 1228.36 314.1 1239.02 314.1C1246.76 314.1 1251.29 313.033 1252.62 310.9ZM1465.06 354.5L1458.66 329.3C1446.39 349.3 1429.32 359.3 1407.46 359.3C1389.59 359.3 1374.92 354.367 1363.46 344.5C1352.26 334.367 1346.66 320.233 1346.66 302.1C1346.66 290.9 1349.86 281.167 1356.26 272.9C1362.92 264.367 1371.99 258.367 1383.46 254.9C1398.39 250.633 1421.46 248.233 1452.66 247.7C1452.66 230.1 1451.86 220.767 1450.26 219.7C1448.92 218.633 1444.66 218.1 1437.46 218.1C1432.92 218.1 1426.66 218.367 1418.66 218.9C1405.86 219.433 1388.52 220.9 1366.66 223.3C1364.52 208.9 1362.92 193.433 1361.86 176.9C1375.99 173.967 1390.79 171.567 1406.26 169.7C1421.72 167.567 1435.59 166.5 1447.86 166.5C1469.19 166.5 1485.19 170.1 1495.86 177.3C1506.52 184.233 1513.46 193.433 1516.66 204.9C1519.86 216.367 1521.32 230.9 1521.06 248.5L1520.66 307.3L1521.86 354.5H1465.06ZM1430.66 314.5C1437.59 314.5 1444.92 313.167 1452.66 310.5V280.9H1449.46C1429.72 280.9 1418.79 281.967 1416.66 284.1C1415.32 285.433 1414.26 287.433 1413.46 290.1C1412.92 292.767 1412.66 295.3 1412.66 297.7C1412.66 304.1 1414.12 308.5 1417.06 310.9C1419.99 313.3 1424.52 314.5 1430.66 314.5ZM1647.14 123.7C1669.27 123.7 1687.67 126.633 1702.34 132.5C1717.01 138.1 1728.61 149.567 1737.14 166.9C1745.67 183.967 1749.94 208.9 1749.94 241.7C1749.94 273.167 1745.81 297.567 1737.54 314.9C1729.27 331.967 1717.67 343.7 1702.74 350.1C1688.07 356.5 1669.67 359.7 1647.54 359.7C1615.54 359.7 1591.01 351.3 1573.94 334.5C1556.87 317.433 1548.34 288.233 1548.34 246.9C1548.34 205.3 1556.61 174.367 1573.14 154.1C1589.67 133.833 1614.34 123.7 1647.14 123.7ZM1649.54 308.1C1662.87 308.1 1671.54 302.9 1675.54 292.5C1679.54 281.833 1681.54 265.167 1681.54 242.5C1681.54 219.3 1679.14 202.233 1674.34 191.3C1669.54 180.1 1660.47 174.5 1647.14 174.5C1637.81 174.5 1631.54 176.1 1628.34 179.3C1625.94 181.967 1623.81 189.967 1621.94 203.3C1620.34 216.633 1619.54 230.233 1619.54 244.1C1619.54 267.567 1621.81 284.1 1626.34 293.7C1631.14 303.3 1638.87 308.1 1649.54 308.1ZM1890.49 126.5V354.5H1820.49V184.1L1770.89 194.5L1763.29 152.5L1834.09 126.5H1890.49Z" fill="#AB53E6"/>
<path d="M303.505 126.5H375.905V210.1H437.905V126.5H510.305V354.5H437.905V256.1H375.905V354.5H303.505V126.5ZM731.161 170.5V354.5H675.561L667.961 323.7C648.761 346.9 625.828 358.5 599.161 358.5C589.561 358.5 580.494 357.167 571.961 354.5C563.694 351.833 557.428 347.967 553.161 342.9C550.761 339.967 548.894 332.633 547.561 320.9C546.494 309.167 545.961 291.3 545.961 267.3V170.5H614.361V266.5C614.361 271.833 614.494 278.1 614.761 285.3C615.028 292.5 615.828 297.033 617.161 298.9C619.028 301.567 624.361 302.9 633.161 302.9L639.561 302.5C647.028 302.233 654.761 300.5 662.761 297.3V170.5H731.161ZM1051.56 183.3C1055.82 189.7 1057.96 214.5 1057.96 257.7V354.5H989.558V264.5V242.9C989.558 233.033 988.625 227.167 986.758 225.3C984.625 223.167 980.091 222.1 973.158 222.1L968.358 222.5C960.091 223.033 952.225 224.9 944.758 228.1C945.025 233.7 945.158 243.567 945.158 257.7V354.5H876.758V264.5V240.5C876.758 232.233 875.825 227.167 873.958 225.3C871.825 223.167 867.291 222.1 860.358 222.1L855.558 222.5C848.091 222.767 840.358 224.5 832.358 227.7V354.5H763.958V170.5H819.558L826.758 200.5C835.558 188.767 845.691 180.233 857.158 174.9C868.625 169.3 880.225 166.5 891.958 166.5C901.825 166.5 911.158 167.967 919.958 170.9C929.025 173.833 935.291 177.967 938.758 183.3C940.358 185.7 941.691 190.1 942.758 196.5C951.291 186.1 961.025 178.5 971.958 173.7C982.891 168.9 993.825 166.5 1004.76 166.5C1014.62 166.5 1023.96 167.967 1032.76 170.9C1041.82 173.833 1048.09 177.967 1051.56 183.3ZM1213.34 166.5C1234.14 166.5 1250.14 172.767 1261.34 185.3C1272.81 197.833 1278.54 219.967 1278.54 251.7C1278.54 274.9 1276.14 294.767 1271.34 311.3C1266.81 327.567 1261.61 337.967 1255.74 342.5C1248.81 348.1 1238.54 352.233 1224.94 354.9C1211.34 357.567 1195.87 358.9 1178.54 358.9C1165.21 358.9 1150.27 357.833 1133.74 355.7C1117.21 353.833 1102.41 350.767 1089.34 346.5V114.5L1158.54 111.7V149.3C1158.54 151.433 1158.41 156.367 1158.14 164.1C1158.14 171.833 1157.87 178.367 1157.34 183.7C1156.81 188.767 1156.01 192.633 1154.94 195.3L1157.34 198.1C1163.47 188.767 1171.21 181.167 1180.54 175.3C1189.87 169.433 1200.81 166.5 1213.34 166.5ZM1202.14 310.9C1203.74 308.233 1205.07 301.967 1206.14 292.1C1207.47 282.233 1208.14 272.767 1208.14 263.7C1208.14 253.033 1207.61 244.633 1206.54 238.5C1205.74 232.367 1203.47 227.567 1199.74 224.1C1196.27 220.367 1190.81 218.5 1183.34 218.5C1176.67 218.5 1168.14 219.433 1157.74 221.3V311.7C1167.61 313.3 1177.87 314.1 1188.54 314.1C1196.27 314.1 1200.81 313.033 1202.14 310.9ZM1414.57 354.5L1408.17 329.3C1395.91 349.3 1378.84 359.3 1356.97 359.3C1339.11 359.3 1324.44 354.367 1312.97 344.5C1301.77 334.367 1296.17 320.233 1296.17 302.1C1296.17 290.9 1299.37 281.167 1305.77 272.9C1312.44 264.367 1321.51 258.367 1332.97 254.9C1347.91 250.633 1370.97 248.233 1402.17 247.7C1402.17 230.1 1401.37 220.767 1399.77 219.7C1398.44 218.633 1394.17 218.1 1386.97 218.1C1382.44 218.1 1376.17 218.367 1368.17 218.9C1355.37 219.433 1338.04 220.9 1316.17 223.3C1314.04 208.9 1312.44 193.433 1311.37 176.9C1325.51 173.967 1340.31 171.567 1355.77 169.7C1371.24 167.567 1385.11 166.5 1397.37 166.5C1418.71 166.5 1434.71 170.1 1445.37 177.3C1456.04 184.233 1462.97 193.433 1466.17 204.9C1469.37 216.367 1470.84 230.9 1470.57 248.5L1470.17 307.3L1471.37 354.5H1414.57ZM1380.17 314.5C1387.11 314.5 1394.44 313.167 1402.17 310.5V280.9H1398.97C1379.24 280.9 1368.31 281.967 1366.17 284.1C1364.84 285.433 1363.77 287.433 1362.97 290.1C1362.44 292.767 1362.17 295.3 1362.17 297.7C1362.17 304.1 1363.64 308.5 1366.57 310.9C1369.51 313.3 1374.04 314.5 1380.17 314.5ZM1596.66 123.7C1618.79 123.7 1637.19 126.633 1651.86 132.5C1666.52 138.1 1678.12 149.567 1686.66 166.9C1695.19 183.967 1699.46 208.9 1699.46 241.7C1699.46 273.167 1695.32 297.567 1687.06 314.9C1678.79 331.967 1667.19 343.7 1652.26 350.1C1637.59 356.5 1619.19 359.7 1597.06 359.7C1565.06 359.7 1540.52 351.3 1523.46 334.5C1506.39 317.433 1497.86 288.233 1497.86 246.9C1497.86 205.3 1506.12 174.367 1522.66 154.1C1539.19 133.833 1563.86 123.7 1596.66 123.7ZM1599.06 308.1C1612.39 308.1 1621.06 302.9 1625.06 292.5C1629.06 281.833 1631.06 265.167 1631.06 242.5C1631.06 219.3 1628.66 202.233 1623.86 191.3C1619.06 180.1 1609.99 174.5 1596.66 174.5C1587.32 174.5 1581.06 176.1 1577.86 179.3C1575.46 181.967 1573.32 189.967 1571.46 203.3C1569.86 216.633 1569.06 230.233 1569.06 244.1C1569.06 267.567 1571.32 284.1 1575.86 293.7C1580.66 303.3 1588.39 308.1 1599.06 308.1ZM1840 126.5V354.5H1770V184.1L1720.4 194.5L1712.8 152.5L1783.6 126.5H1840Z" fill="#B261E8"/>
<path d="M253.021 126.5H325.421V210.1H387.421V126.5H459.821V354.5H387.421V256.1H325.421V354.5H253.021V126.5ZM680.677 170.5V354.5H625.077L617.477 323.7C598.277 346.9 575.344 358.5 548.677 358.5C539.077 358.5 530.011 357.167 521.477 354.5C513.211 351.833 506.944 347.967 502.677 342.9C500.277 339.967 498.411 332.633 497.077 320.9C496.011 309.167 495.477 291.3 495.477 267.3V170.5H563.877V266.5C563.877 271.833 564.011 278.1 564.277 285.3C564.544 292.5 565.344 297.033 566.677 298.9C568.544 301.567 573.877 302.9 582.677 302.9L589.077 302.5C596.544 302.233 604.277 300.5 612.277 297.3V170.5H680.677ZM1001.07 183.3C1005.34 189.7 1007.47 214.5 1007.47 257.7V354.5H939.074V264.5V242.9C939.074 233.033 938.141 227.167 936.274 225.3C934.141 223.167 929.608 222.1 922.674 222.1L917.874 222.5C909.608 223.033 901.741 224.9 894.274 228.1C894.541 233.7 894.674 243.567 894.674 257.7V354.5H826.274V264.5V240.5C826.274 232.233 825.341 227.167 823.474 225.3C821.341 223.167 816.808 222.1 809.874 222.1L805.074 222.5C797.608 222.767 789.874 224.5 781.874 227.7V354.5H713.474V170.5H769.074L776.274 200.5C785.074 188.767 795.208 180.233 806.674 174.9C818.141 169.3 829.741 166.5 841.474 166.5C851.341 166.5 860.674 167.967 869.474 170.9C878.541 173.833 884.808 177.967 888.274 183.3C889.874 185.7 891.208 190.1 892.274 196.5C900.808 186.1 910.541 178.5 921.474 173.7C932.408 168.9 943.341 166.5 954.274 166.5C964.141 166.5 973.474 167.967 982.274 170.9C991.341 173.833 997.608 177.967 1001.07 183.3ZM1162.86 166.5C1183.66 166.5 1199.66 172.767 1210.86 185.3C1222.32 197.833 1228.06 219.967 1228.06 251.7C1228.06 274.9 1225.66 294.767 1220.86 311.3C1216.32 327.567 1211.12 337.967 1205.26 342.5C1198.32 348.1 1188.06 352.233 1174.46 354.9C1160.86 357.567 1145.39 358.9 1128.06 358.9C1114.72 358.9 1099.79 357.833 1083.26 355.7C1066.72 353.833 1051.92 350.767 1038.86 346.5V114.5L1108.06 111.7V149.3C1108.06 151.433 1107.92 156.367 1107.66 164.1C1107.66 171.833 1107.39 178.367 1106.86 183.7C1106.32 188.767 1105.52 192.633 1104.46 195.3L1106.86 198.1C1112.99 188.767 1120.72 181.167 1130.06 175.3C1139.39 169.433 1150.32 166.5 1162.86 166.5ZM1151.66 310.9C1153.26 308.233 1154.59 301.967 1155.66 292.1C1156.99 282.233 1157.66 272.767 1157.66 263.7C1157.66 253.033 1157.12 244.633 1156.06 238.5C1155.26 232.367 1152.99 227.567 1149.26 224.1C1145.79 220.367 1140.32 218.5 1132.86 218.5C1126.19 218.5 1117.66 219.433 1107.26 221.3V311.7C1117.12 313.3 1127.39 314.1 1138.06 314.1C1145.79 314.1 1150.32 313.033 1151.66 310.9ZM1364.09 354.5L1357.69 329.3C1345.42 349.3 1328.36 359.3 1306.49 359.3C1288.62 359.3 1273.96 354.367 1262.49 344.5C1251.29 334.367 1245.69 320.233 1245.69 302.1C1245.69 290.9 1248.89 281.167 1255.29 272.9C1261.96 264.367 1271.02 258.367 1282.49 254.9C1297.42 250.633 1320.49 248.233 1351.69 247.7C1351.69 230.1 1350.89 220.767 1349.29 219.7C1347.96 218.633 1343.69 218.1 1336.49 218.1C1331.96 218.1 1325.69 218.367 1317.69 218.9C1304.89 219.433 1287.56 220.9 1265.69 223.3C1263.56 208.9 1261.96 193.433 1260.89 176.9C1275.02 173.967 1289.82 171.567 1305.29 169.7C1320.76 167.567 1334.62 166.5 1346.89 166.5C1368.22 166.5 1384.22 170.1 1394.89 177.3C1405.56 184.233 1412.49 193.433 1415.69 204.9C1418.89 216.367 1420.36 230.9 1420.09 248.5L1419.69 307.3L1420.89 354.5H1364.09ZM1329.69 314.5C1336.62 314.5 1343.96 313.167 1351.69 310.5V280.9H1348.49C1328.76 280.9 1317.82 281.967 1315.69 284.1C1314.36 285.433 1313.29 287.433 1312.49 290.1C1311.96 292.767 1311.69 295.3 1311.69 297.7C1311.69 304.1 1313.16 308.5 1316.09 310.9C1319.02 313.3 1323.56 314.5 1329.69 314.5ZM1546.17 123.7C1568.31 123.7 1586.71 126.633 1601.37 132.5C1616.04 138.1 1627.64 149.567 1636.17 166.9C1644.71 183.967 1648.97 208.9 1648.97 241.7C1648.97 273.167 1644.84 297.567 1636.57 314.9C1628.31 331.967 1616.71 343.7 1601.77 350.1C1587.11 356.5 1568.71 359.7 1546.57 359.7C1514.57 359.7 1490.04 351.3 1472.97 334.5C1455.91 317.433 1447.37 288.233 1447.37 246.9C1447.37 205.3 1455.64 174.367 1472.17 154.1C1488.71 133.833 1513.37 123.7 1546.17 123.7ZM1548.57 308.1C1561.91 308.1 1570.57 302.9 1574.57 292.5C1578.57 281.833 1580.57 265.167 1580.57 242.5C1580.57 219.3 1578.17 202.233 1573.37 191.3C1568.57 180.1 1559.51 174.5 1546.17 174.5C1536.84 174.5 1530.57 176.1 1527.37 179.3C1524.97 181.967 1522.84 189.967 1520.97 203.3C1519.37 216.633 1518.57 230.233 1518.57 244.1C1518.57 267.567 1520.84 284.1 1525.37 293.7C1530.17 303.3 1537.91 308.1 1548.57 308.1ZM1789.52 126.5V354.5H1719.52V184.1L1669.92 194.5L1662.32 152.5L1733.12 126.5H1789.52Z" fill="#B96FEA"/>
<path d="M203.94 126.5H276.34V210.1H338.34V126.5H410.74V354.5H338.34V256.1H276.34V354.5H203.94V126.5ZM631.596 170.5V354.5H575.996L568.396 323.7C549.196 346.9 526.263 358.5 499.596 358.5C489.996 358.5 480.93 357.167 472.396 354.5C464.13 351.833 457.863 347.967 453.596 342.9C451.196 339.967 449.33 332.633 447.996 320.9C446.93 309.167 446.396 291.3 446.396 267.3V170.5H514.796V266.5C514.796 271.833 514.93 278.1 515.196 285.3C515.463 292.5 516.263 297.033 517.596 298.9C519.463 301.567 524.796 302.9 533.596 302.9L539.996 302.5C547.463 302.233 555.196 300.5 563.196 297.3V170.5H631.596ZM951.993 183.3C956.26 189.7 958.393 214.5 958.393 257.7V354.5H889.993V264.5V242.9C889.993 233.033 889.06 227.167 887.193 225.3C885.06 223.167 880.527 222.1 873.593 222.1L868.793 222.5C860.527 223.033 852.66 224.9 845.193 228.1C845.46 233.7 845.593 243.567 845.593 257.7V354.5H777.193V264.5V240.5C777.193 232.233 776.26 227.167 774.393 225.3C772.26 223.167 767.727 222.1 760.793 222.1L755.993 222.5C748.527 222.767 740.793 224.5 732.793 227.7V354.5H664.393V170.5H719.993L727.193 200.5C735.993 188.767 746.127 180.233 757.593 174.9C769.06 169.3 780.66 166.5 792.393 166.5C802.26 166.5 811.593 167.967 820.393 170.9C829.46 173.833 835.727 177.967 839.193 183.3C840.793 185.7 842.127 190.1 843.193 196.5C851.727 186.1 861.46 178.5 872.393 173.7C883.327 168.9 894.26 166.5 905.193 166.5C915.06 166.5 924.393 167.967 933.193 170.9C942.26 173.833 948.527 177.967 951.993 183.3ZM1113.77 166.5C1134.57 166.5 1150.57 172.767 1161.77 185.3C1173.24 197.833 1178.97 219.967 1178.97 251.7C1178.97 274.9 1176.57 294.767 1171.77 311.3C1167.24 327.567 1162.04 337.967 1156.17 342.5C1149.24 348.1 1138.97 352.233 1125.37 354.9C1111.77 357.567 1096.31 358.9 1078.97 358.9C1065.64 358.9 1050.71 357.833 1034.17 355.7C1017.64 353.833 1002.84 350.767 989.774 346.5V114.5L1058.97 111.7V149.3C1058.97 151.433 1058.84 156.367 1058.57 164.1C1058.57 171.833 1058.31 178.367 1057.77 183.7C1057.24 188.767 1056.44 192.633 1055.37 195.3L1057.77 198.1C1063.91 188.767 1071.64 181.167 1080.97 175.3C1090.31 169.433 1101.24 166.5 1113.77 166.5ZM1102.57 310.9C1104.17 308.233 1105.51 301.967 1106.57 292.1C1107.91 282.233 1108.57 272.767 1108.57 263.7C1108.57 253.033 1108.04 244.633 1106.97 238.5C1106.17 232.367 1103.91 227.567 1100.17 224.1C1096.71 220.367 1091.24 218.5 1083.77 218.5C1077.11 218.5 1068.57 219.433 1058.17 221.3V311.7C1068.04 313.3 1078.31 314.1 1088.97 314.1C1096.71 314.1 1101.24 313.033 1102.57 310.9ZM1315.01 354.5L1308.61 329.3C1296.34 349.3 1279.28 359.3 1257.41 359.3C1239.54 359.3 1224.88 354.367 1213.41 344.5C1202.21 334.367 1196.61 320.233 1196.61 302.1C1196.61 290.9 1199.81 281.167 1206.21 272.9C1212.88 264.367 1221.94 258.367 1233.41 254.9C1248.34 250.633 1271.41 248.233 1302.61 247.7C1302.61 230.1 1301.81 220.767 1300.21 219.7C1298.88 218.633 1294.61 218.1 1287.41 218.1C1282.88 218.1 1276.61 218.367 1268.61 218.9C1255.81 219.433 1238.48 220.9 1216.61 223.3C1214.48 208.9 1212.88 193.433 1211.81 176.9C1225.94 173.967 1240.74 171.567 1256.21 169.7C1271.68 167.567 1285.54 166.5 1297.81 166.5C1319.14 166.5 1335.14 170.1 1345.81 177.3C1356.48 184.233 1363.41 193.433 1366.61 204.9C1369.81 216.367 1371.28 230.9 1371.01 248.5L1370.61 307.3L1371.81 354.5H1315.01ZM1280.61 314.5C1287.54 314.5 1294.88 313.167 1302.61 310.5V280.9H1299.41C1279.68 280.9 1268.74 281.967 1266.61 284.1C1265.28 285.433 1264.21 287.433 1263.41 290.1C1262.88 292.767 1262.61 295.3 1262.61 297.7C1262.61 304.1 1264.08 308.5 1267.01 310.9C1269.94 313.3 1274.48 314.5 1280.61 314.5ZM1497.09 123.7C1519.23 123.7 1537.63 126.633 1552.29 132.5C1566.96 138.1 1578.56 149.567 1587.09 166.9C1595.63 183.967 1599.89 208.9 1599.89 241.7C1599.89 273.167 1595.76 297.567 1587.49 314.9C1579.23 331.967 1567.63 343.7 1552.69 350.1C1538.03 356.5 1519.63 359.7 1497.49 359.7C1465.49 359.7 1440.96 351.3 1423.89 334.5C1406.83 317.433 1398.29 288.233 1398.29 246.9C1398.29 205.3 1406.56 174.367 1423.09 154.1C1439.63 133.833 1464.29 123.7 1497.09 123.7ZM1499.49 308.1C1512.83 308.1 1521.49 302.9 1525.49 292.5C1529.49 281.833 1531.49 265.167 1531.49 242.5C1531.49 219.3 1529.09 202.233 1524.29 191.3C1519.49 180.1 1510.43 174.5 1497.09 174.5C1487.76 174.5 1481.49 176.1 1478.29 179.3C1475.89 181.967 1473.76 189.967 1471.89 203.3C1470.29 216.633 1469.49 230.233 1469.49 244.1C1469.49 267.567 1471.76 284.1 1476.29 293.7C1481.09 303.3 1488.83 308.1 1499.49 308.1ZM1740.44 126.5V354.5H1670.44V184.1L1620.84 194.5L1613.24 152.5L1684.04 126.5H1740.44Z" fill="#C07EEC"/>
<path d="M153.456 126.5H225.856V210.1H287.856V126.5H360.256V354.5H287.856V256.1H225.856V354.5H153.456V126.5ZM581.113 170.5V354.5H525.513L517.913 323.7C498.713 346.9 475.779 358.5 449.113 358.5C439.513 358.5 430.446 357.167 421.913 354.5C413.646 351.833 407.379 347.967 403.113 342.9C400.713 339.967 398.846 332.633 397.513 320.9C396.446 309.167 395.913 291.3 395.913 267.3V170.5H464.313V266.5C464.313 271.833 464.446 278.1 464.713 285.3C464.979 292.5 465.779 297.033 467.113 298.9C468.979 301.567 474.313 302.9 483.113 302.9L489.513 302.5C496.979 302.233 504.713 300.5 512.713 297.3V170.5H581.113ZM901.51 183.3C905.776 189.7 907.91 214.5 907.91 257.7V354.5H839.51V264.5V242.9C839.51 233.033 838.576 227.167 836.71 225.3C834.576 223.167 830.043 222.1 823.11 222.1L818.31 222.5C810.043 223.033 802.176 224.9 794.71 228.1C794.976 233.7 795.11 243.567 795.11 257.7V354.5H726.71V264.5V240.5C726.71 232.233 725.776 227.167 723.91 225.3C721.776 223.167 717.243 222.1 710.31 222.1L705.51 222.5C698.043 222.767 690.31 224.5 682.31 227.7V354.5H613.91V170.5H669.51L676.71 200.5C685.51 188.767 695.643 180.233 707.11 174.9C718.576 169.3 730.176 166.5 741.91 166.5C751.776 166.5 761.11 167.967 769.91 170.9C778.976 173.833 785.243 177.967 788.71 183.3C790.31 185.7 791.643 190.1 792.71 196.5C801.243 186.1 810.976 178.5 821.91 173.7C832.843 168.9 843.776 166.5 854.71 166.5C864.576 166.5 873.91 167.967 882.71 170.9C891.776 173.833 898.043 177.967 901.51 183.3ZM1063.29 166.5C1084.09 166.5 1100.09 172.767 1111.29 185.3C1122.76 197.833 1128.49 219.967 1128.49 251.7C1128.49 274.9 1126.09 294.767 1121.29 311.3C1116.76 327.567 1111.56 337.967 1105.69 342.5C1098.76 348.1 1088.49 352.233 1074.89 354.9C1061.29 357.567 1045.82 358.9 1028.49 358.9C1015.16 358.9 1000.22 357.833 983.691 355.7C967.157 353.833 952.357 350.767 939.291 346.5V114.5L1008.49 111.7V149.3C1008.49 151.433 1008.36 156.367 1008.09 164.1C1008.09 171.833 1007.82 178.367 1007.29 183.7C1006.76 188.767 1005.96 192.633 1004.89 195.3L1007.29 198.1C1013.42 188.767 1021.16 181.167 1030.49 175.3C1039.82 169.433 1050.76 166.5 1063.29 166.5ZM1052.09 310.9C1053.69 308.233 1055.02 301.967 1056.09 292.1C1057.42 282.233 1058.09 272.767 1058.09 263.7C1058.09 253.033 1057.56 244.633 1056.49 238.5C1055.69 232.367 1053.42 227.567 1049.69 224.1C1046.22 220.367 1040.76 218.5 1033.29 218.5C1026.62 218.5 1018.09 219.433 1007.69 221.3V311.7C1017.56 313.3 1027.82 314.1 1038.49 314.1C1046.22 314.1 1050.76 313.033 1052.09 310.9ZM1264.53 354.5L1258.13 329.3C1245.86 349.3 1228.79 359.3 1206.93 359.3C1189.06 359.3 1174.39 354.367 1162.93 344.5C1151.73 334.367 1146.13 320.233 1146.13 302.1C1146.13 290.9 1149.33 281.167 1155.73 272.9C1162.39 264.367 1171.46 258.367 1182.93 254.9C1197.86 250.633 1220.93 248.233 1252.13 247.7C1252.13 230.1 1251.33 220.767 1249.73 219.7C1248.39 218.633 1244.13 218.1 1236.93 218.1C1232.39 218.1 1226.13 218.367 1218.13 218.9C1205.33 219.433 1187.99 220.9 1166.13 223.3C1163.99 208.9 1162.39 193.433 1161.33 176.9C1175.46 173.967 1190.26 171.567 1205.73 169.7C1221.19 167.567 1235.06 166.5 1247.33 166.5C1268.66 166.5 1284.66 170.1 1295.33 177.3C1305.99 184.233 1312.93 193.433 1316.13 204.9C1319.33 216.367 1320.79 230.9 1320.53 248.5L1320.13 307.3L1321.33 354.5H1264.53ZM1230.13 314.5C1237.06 314.5 1244.39 313.167 1252.13 310.5V280.9H1248.93C1229.19 280.9 1218.26 281.967 1216.13 284.1C1214.79 285.433 1213.73 287.433 1212.93 290.1C1212.39 292.767 1212.13 295.3 1212.13 297.7C1212.13 304.1 1213.59 308.5 1216.53 310.9C1219.46 313.3 1223.99 314.5 1230.13 314.5ZM1446.61 123.7C1468.74 123.7 1487.14 126.633 1501.81 132.5C1516.48 138.1 1528.08 149.567 1536.61 166.9C1545.14 183.967 1549.41 208.9 1549.41 241.7C1549.41 273.167 1545.28 297.567 1537.01 314.9C1528.74 331.967 1517.14 343.7 1502.21 350.1C1487.54 356.5 1469.14 359.7 1447.01 359.7C1415.01 359.7 1390.48 351.3 1373.41 334.5C1356.34 317.433 1347.81 288.233 1347.81 246.9C1347.81 205.3 1356.08 174.367 1372.61 154.1C1389.14 133.833 1413.81 123.7 1446.61 123.7ZM1449.01 308.1C1462.34 308.1 1471.01 302.9 1475.01 292.5C1479.01 281.833 1481.01 265.167 1481.01 242.5C1481.01 219.3 1478.61 202.233 1473.81 191.3C1469.01 180.1 1459.94 174.5 1446.61 174.5C1437.28 174.5 1431.01 176.1 1427.81 179.3C1425.41 181.967 1423.28 189.967 1421.41 203.3C1419.81 216.633 1419.01 230.233 1419.01 244.1C1419.01 267.567 1421.28 284.1 1425.81 293.7C1430.61 303.3 1438.34 308.1 1449.01 308.1ZM1689.95 126.5V354.5H1619.95V184.1L1570.35 194.5L1562.75 152.5L1633.55 126.5H1689.95Z" fill="white"/>
</g>
</svg>
