<svg width="424" height="103" viewBox="0 0 424 103" fill="none" xmlns="http://www.w3.org/2000/svg">
<rect x="1" y="1" width="422" height="101" rx="6" fill="#222222" fill-opacity="0.1"/>
<rect x="0.5" y="0.5" width="423" height="102" rx="6.5" stroke="#222222" stroke-opacity="0.5"/>
<path d="M51.992 63.576H30.488V86.904H18.584V19.992H30.488V53.496H51.992V19.992H63.896V86.904H51.992V63.576ZM107.371 39.768H119.275V86.904L107.371 86.712C106.507 86.616 105.739 86.52 104.971 86.424H104.875C104.683 86.424 104.491 86.328 104.299 86.328C99.1145 85.272 94.5065 83.832 90.5705 80.184C89.8985 79.608 89.3225 79.032 88.7465 78.456C88.4585 78.168 88.1705 77.88 87.8825 77.496C87.2105 76.728 86.4425 75.768 85.8665 74.904C84.5225 73.176 83.4665 71.256 82.4105 69.336C77.4185 59.736 75.4025 48.216 74.6345 39.768H85.7705C85.7705 39.96 85.7705 40.056 85.8665 40.248C86.0585 42.648 86.4425 45.144 86.9225 47.736C87.4025 50.328 87.9785 52.92 88.7465 55.416C88.7465 55.512 88.8425 55.608 88.8425 55.704C89.1305 56.664 89.4185 57.528 89.7065 58.392C89.8985 59.064 90.1865 59.736 90.3785 60.408C90.4745 60.504 90.4745 60.6 90.4745 60.696C90.7625 61.272 90.9545 61.848 91.2425 62.52C91.3385 62.616 91.3385 62.616 91.3385 62.712C91.9145 64.056 92.5865 65.304 93.2585 66.456C93.3545 66.648 93.3545 66.744 93.4505 66.84C93.7385 67.416 94.0265 67.896 94.4105 68.376C94.4105 68.472 94.5065 68.472 94.5065 68.568C94.6985 68.856 94.8905 69.048 95.0825 69.336C95.2745 69.624 95.4665 69.912 95.6585 70.2C95.7545 70.2 95.7545 70.296 95.8505 70.392C96.1385 70.776 96.5225 71.256 96.9065 71.64C97.0025 71.736 97.0985 71.832 97.1945 71.928C97.5785 72.408 98.0585 72.888 98.4425 73.272C98.7305 73.464 99.0185 73.656 99.3065 73.944C100.843 75.192 102.475 76.152 104.299 76.824C105.259 77.112 106.315 77.4 107.371 77.592V39.768ZM196.301 57.048C201.293 66.648 203.309 78.168 204.173 86.52H192.941C192.941 86.424 192.941 86.328 192.941 86.136C192.653 83.736 192.269 81.24 191.789 78.552C191.309 76.056 190.733 73.464 189.965 70.968C189.965 70.872 189.869 70.776 189.869 70.68C189.869 70.584 189.869 70.584 189.869 70.584C189.581 69.72 189.293 68.856 189.005 67.992C188.813 67.32 188.525 66.648 188.333 65.88C188.237 65.88 188.237 65.784 188.237 65.688C187.949 65.112 187.757 64.44 187.469 63.864C187.373 63.768 187.373 63.672 187.373 63.576C186.797 62.328 186.125 61.08 185.453 59.832C185.357 59.736 185.357 59.64 185.261 59.544C184.973 58.968 184.685 58.488 184.301 57.912L184.205 57.816C184.013 57.528 183.821 57.24 183.629 57.048C183.437 56.76 183.245 56.472 183.053 56.184C182.957 56.088 182.957 56.088 182.861 55.992C182.573 55.512 182.189 55.128 181.805 54.744C181.709 54.648 181.613 54.552 181.517 54.456C181.133 53.976 180.653 53.496 180.269 53.112C179.981 52.92 179.693 52.632 179.405 52.44C177.869 51.192 176.237 50.232 174.413 49.56C173.453 49.272 172.397 48.984 171.341 48.792V60.792C175.085 69.528 176.717 79.224 177.485 86.52H166.253C166.253 86.424 166.253 86.328 166.253 86.136C165.965 83.736 165.581 81.24 165.101 78.552C164.621 76.056 164.045 73.464 163.277 70.968C163.277 70.872 163.181 70.776 163.181 70.68C163.181 70.584 163.181 70.584 163.181 70.584C162.893 69.72 162.701 68.856 162.413 67.992C162.125 67.32 161.837 66.648 161.645 65.88C161.549 65.88 161.549 65.784 161.549 65.688C161.261 65.112 161.069 64.44 160.781 63.864C160.781 63.768 160.685 63.672 160.685 63.576C160.301 62.808 159.917 61.944 159.437 61.176C159.245 60.696 159.053 60.312 158.765 59.832C158.765 59.736 158.669 59.64 158.573 59.544C158.285 58.968 157.997 58.488 157.613 57.912L157.517 57.816C157.325 57.528 157.133 57.24 156.941 57.048C156.749 56.76 156.557 56.472 156.365 56.184C156.365 56.088 156.269 56.088 156.173 55.992C155.885 55.512 155.501 55.128 155.117 54.744C155.021 54.648 154.925 54.552 154.829 54.456C154.445 53.976 153.965 53.496 153.581 53.112C153.293 52.92 153.005 52.632 152.717 52.44C151.181 51.192 149.549 50.232 147.725 49.56C146.765 49.272 145.709 48.984 144.653 48.792V86.52H132.845V39.48L144.653 39.576C145.517 39.672 146.285 39.768 147.053 39.96C147.149 39.96 147.149 39.96 147.149 39.96C147.341 39.96 147.533 40.056 147.725 40.056C152.045 40.92 155.981 42.072 159.437 44.568V39.48L171.341 39.576C172.205 39.672 172.973 39.768 173.741 39.96C173.837 39.96 173.837 39.96 173.837 39.96C174.029 39.96 174.221 40.056 174.413 40.056C179.597 41.112 184.205 42.552 188.141 46.2C188.813 46.776 189.389 47.352 189.965 47.928C190.253 48.216 190.541 48.504 190.829 48.792C191.501 49.656 192.269 50.52 192.941 51.48C194.189 53.208 195.245 55.032 196.301 57.048ZM247.722 52.056C256.266 61.08 255.786 76.44 255.786 76.92V86.232H214.218V17.688H226.122V42.552C235.242 43.416 242.442 46.584 247.722 52.056ZM226.122 76.056H245.61C245.61 74.232 245.322 64.248 240.234 59.064C236.97 55.608 232.17 53.496 226.122 52.728V76.056ZM305.687 59.256C305.975 60.888 306.071 62.328 306.071 63.672V86.808H264.503V76.536C264.503 76.44 264.503 76.344 264.503 76.344C266.903 69.912 270.167 63.96 274.583 59.448C277.655 56.28 281.111 53.976 284.855 52.632C281.015 51.768 276.119 51.672 270.263 52.44L268.919 41.4C283.319 39.576 293.879 41.976 300.215 48.504C300.887 49.272 301.559 50.136 302.135 50.904C302.807 51.864 303.383 52.728 303.767 53.688C304.247 54.648 304.631 55.608 304.919 56.472C305.207 57.432 305.495 58.392 305.687 59.256ZM294.167 76.728V62.04C289.655 62.136 285.815 63.864 282.551 67.224C281.111 68.568 279.863 70.296 278.807 72.12C277.943 73.464 277.271 74.808 276.599 76.344C276.503 76.44 276.407 76.536 276.407 76.728H294.167ZM347.462 18.36C363.398 18.36 376.454 33.72 376.454 52.44C376.454 71.256 363.398 86.52 347.462 86.52C331.43 86.52 318.47 71.256 318.47 52.44C318.47 33.72 331.43 18.36 347.462 18.36ZM347.462 75.384C357.254 75.384 365.318 65.112 365.318 52.44C365.318 39.864 357.254 29.496 347.462 29.496C337.574 29.496 329.606 39.864 329.606 52.44C329.606 65.112 337.574 75.384 347.462 75.384ZM384.916 18.936H406.9V85.752H394.996V29.112H384.916V18.936Z" fill="url(#paint0_linear_5_9)"/>
<path d="M47.992 61.576H26.488V84.904H14.584V17.992H26.488V51.496H47.992V17.992H59.896V84.904H47.992V61.576ZM103.371 37.768H115.275V84.904L103.371 84.712C102.507 84.616 101.739 84.52 100.971 84.424H100.875C100.683 84.424 100.491 84.328 100.299 84.328C95.1145 83.272 90.5065 81.832 86.5705 78.184C85.8985 77.608 85.3225 77.032 84.7465 76.456C84.4585 76.168 84.1705 75.88 83.8825 75.496C83.2105 74.728 82.4425 73.768 81.8665 72.904C80.5225 71.176 79.4665 69.256 78.4105 67.336C73.4185 57.736 71.4025 46.216 70.6345 37.768H81.7705C81.7705 37.96 81.7705 38.056 81.8665 38.248C82.0585 40.648 82.4425 43.144 82.9225 45.736C83.4025 48.328 83.9785 50.92 84.7465 53.416C84.7465 53.512 84.8425 53.608 84.8425 53.704C85.1305 54.664 85.4185 55.528 85.7065 56.392C85.8985 57.064 86.1865 57.736 86.3785 58.408C86.4745 58.504 86.4745 58.6 86.4745 58.696C86.7625 59.272 86.9545 59.848 87.2425 60.52C87.3385 60.616 87.3385 60.616 87.3385 60.712C87.9145 62.056 88.5865 63.304 89.2585 64.456C89.3545 64.648 89.3545 64.744 89.4505 64.84C89.7385 65.416 90.0265 65.896 90.4105 66.376C90.4105 66.472 90.5065 66.472 90.5065 66.568C90.6985 66.856 90.8905 67.048 91.0825 67.336C91.2745 67.624 91.4665 67.912 91.6585 68.2C91.7545 68.2 91.7545 68.296 91.8505 68.392C92.1385 68.776 92.5225 69.256 92.9065 69.64C93.0025 69.736 93.0985 69.832 93.1945 69.928C93.5785 70.408 94.0585 70.888 94.4425 71.272C94.7305 71.464 95.0185 71.656 95.3065 71.944C96.8425 73.192 98.4745 74.152 100.299 74.824C101.259 75.112 102.315 75.4 103.371 75.592V37.768ZM192.301 55.048C197.293 64.648 199.309 76.168 200.173 84.52H188.941C188.941 84.424 188.941 84.328 188.941 84.136C188.653 81.736 188.269 79.24 187.789 76.552C187.309 74.056 186.733 71.464 185.965 68.968C185.965 68.872 185.869 68.776 185.869 68.68C185.869 68.584 185.869 68.584 185.869 68.584C185.581 67.72 185.293 66.856 185.005 65.992C184.813 65.32 184.525 64.648 184.333 63.88C184.237 63.88 184.237 63.784 184.237 63.688C183.949 63.112 183.757 62.44 183.469 61.864C183.373 61.768 183.373 61.672 183.373 61.576C182.797 60.328 182.125 59.08 181.453 57.832C181.357 57.736 181.357 57.64 181.261 57.544C180.973 56.968 180.685 56.488 180.301 55.912L180.205 55.816C180.013 55.528 179.821 55.24 179.629 55.048C179.437 54.76 179.245 54.472 179.053 54.184C178.957 54.088 178.957 54.088 178.861 53.992C178.573 53.512 178.189 53.128 177.805 52.744C177.709 52.648 177.613 52.552 177.517 52.456C177.133 51.976 176.653 51.496 176.269 51.112C175.981 50.92 175.693 50.632 175.405 50.44C173.869 49.192 172.237 48.232 170.413 47.56C169.453 47.272 168.397 46.984 167.341 46.792V58.792C171.085 67.528 172.717 77.224 173.485 84.52H162.253C162.253 84.424 162.253 84.328 162.253 84.136C161.965 81.736 161.581 79.24 161.101 76.552C160.621 74.056 160.045 71.464 159.277 68.968C159.277 68.872 159.181 68.776 159.181 68.68C159.181 68.584 159.181 68.584 159.181 68.584C158.893 67.72 158.701 66.856 158.413 65.992C158.125 65.32 157.837 64.648 157.645 63.88C157.549 63.88 157.549 63.784 157.549 63.688C157.261 63.112 157.069 62.44 156.781 61.864C156.781 61.768 156.685 61.672 156.685 61.576C156.301 60.808 155.917 59.944 155.437 59.176C155.245 58.696 155.053 58.312 154.765 57.832C154.765 57.736 154.669 57.64 154.573 57.544C154.285 56.968 153.997 56.488 153.613 55.912L153.517 55.816C153.325 55.528 153.133 55.24 152.941 55.048C152.749 54.76 152.557 54.472 152.365 54.184C152.365 54.088 152.269 54.088 152.173 53.992C151.885 53.512 151.501 53.128 151.117 52.744C151.021 52.648 150.925 52.552 150.829 52.456C150.445 51.976 149.965 51.496 149.581 51.112C149.293 50.92 149.005 50.632 148.717 50.44C147.181 49.192 145.549 48.232 143.725 47.56C142.765 47.272 141.709 46.984 140.653 46.792V84.52H128.845V37.48L140.653 37.576C141.517 37.672 142.285 37.768 143.053 37.96C143.149 37.96 143.149 37.96 143.149 37.96C143.341 37.96 143.533 38.056 143.725 38.056C148.045 38.92 151.981 40.072 155.437 42.568V37.48L167.341 37.576C168.205 37.672 168.973 37.768 169.741 37.96C169.837 37.96 169.837 37.96 169.837 37.96C170.029 37.96 170.221 38.056 170.413 38.056C175.597 39.112 180.205 40.552 184.141 44.2C184.813 44.776 185.389 45.352 185.965 45.928C186.253 46.216 186.541 46.504 186.829 46.792C187.501 47.656 188.269 48.52 188.941 49.48C190.189 51.208 191.245 53.032 192.301 55.048ZM243.722 50.056C252.266 59.08 251.786 74.44 251.786 74.92V84.232H210.218V15.688H222.122V40.552C231.242 41.416 238.442 44.584 243.722 50.056ZM222.122 74.056H241.61C241.61 72.232 241.322 62.248 236.234 57.064C232.97 53.608 228.17 51.496 222.122 50.728V74.056ZM301.687 57.256C301.975 58.888 302.071 60.328 302.071 61.672V84.808H260.503V74.536C260.503 74.44 260.503 74.344 260.503 74.344C262.903 67.912 266.167 61.96 270.583 57.448C273.655 54.28 277.111 51.976 280.855 50.632C277.015 49.768 272.119 49.672 266.263 50.44L264.919 39.4C279.319 37.576 289.879 39.976 296.215 46.504C296.887 47.272 297.559 48.136 298.135 48.904C298.807 49.864 299.383 50.728 299.767 51.688C300.247 52.648 300.631 53.608 300.919 54.472C301.207 55.432 301.495 56.392 301.687 57.256ZM290.167 74.728V60.04C285.655 60.136 281.815 61.864 278.551 65.224C277.111 66.568 275.863 68.296 274.807 70.12C273.943 71.464 273.271 72.808 272.599 74.344C272.503 74.44 272.407 74.536 272.407 74.728H290.167ZM343.462 16.36C359.398 16.36 372.454 31.72 372.454 50.44C372.454 69.256 359.398 84.52 343.462 84.52C327.43 84.52 314.47 69.256 314.47 50.44C314.47 31.72 327.43 16.36 343.462 16.36ZM343.462 73.384C353.254 73.384 361.318 63.112 361.318 50.44C361.318 37.864 353.254 27.496 343.462 27.496C333.574 27.496 325.606 37.864 325.606 50.44C325.606 63.112 333.574 73.384 343.462 73.384ZM380.916 16.936H402.9V83.752H390.996V27.112H380.916V16.936Z" fill="url(#paint1_linear_5_9)"/>
<path d="M49.992 62.576H28.488V85.904H16.584V18.992H28.488V52.496H49.992V18.992H61.896V85.904H49.992V62.576ZM105.371 38.768H117.275V85.904L105.371 85.712C104.507 85.616 103.739 85.52 102.971 85.424H102.875C102.683 85.424 102.491 85.328 102.299 85.328C97.1145 84.272 92.5065 82.832 88.5705 79.184C87.8985 78.608 87.3225 78.032 86.7465 77.456C86.4585 77.168 86.1705 76.88 85.8825 76.496C85.2105 75.728 84.4425 74.768 83.8665 73.904C82.5225 72.176 81.4665 70.256 80.4105 68.336C75.4185 58.736 73.4025 47.216 72.6345 38.768H83.7705C83.7705 38.96 83.7705 39.056 83.8665 39.248C84.0585 41.648 84.4425 44.144 84.9225 46.736C85.4025 49.328 85.9785 51.92 86.7465 54.416C86.7465 54.512 86.8425 54.608 86.8425 54.704C87.1305 55.664 87.4185 56.528 87.7065 57.392C87.8985 58.064 88.1865 58.736 88.3785 59.408C88.4745 59.504 88.4745 59.6 88.4745 59.696C88.7625 60.272 88.9545 60.848 89.2425 61.52C89.3385 61.616 89.3385 61.616 89.3385 61.712C89.9145 63.056 90.5865 64.304 91.2585 65.456C91.3545 65.648 91.3545 65.744 91.4505 65.84C91.7385 66.416 92.0265 66.896 92.4105 67.376C92.4105 67.472 92.5065 67.472 92.5065 67.568C92.6985 67.856 92.8905 68.048 93.0825 68.336C93.2745 68.624 93.4665 68.912 93.6585 69.2C93.7545 69.2 93.7545 69.296 93.8505 69.392C94.1385 69.776 94.5225 70.256 94.9065 70.64C95.0025 70.736 95.0985 70.832 95.1945 70.928C95.5785 71.408 96.0585 71.888 96.4425 72.272C96.7305 72.464 97.0185 72.656 97.3065 72.944C98.8425 74.192 100.475 75.152 102.299 75.824C103.259 76.112 104.315 76.4 105.371 76.592V38.768ZM194.301 56.048C199.293 65.648 201.309 77.168 202.173 85.52H190.941C190.941 85.424 190.941 85.328 190.941 85.136C190.653 82.736 190.269 80.24 189.789 77.552C189.309 75.056 188.733 72.464 187.965 69.968C187.965 69.872 187.869 69.776 187.869 69.68C187.869 69.584 187.869 69.584 187.869 69.584C187.581 68.72 187.293 67.856 187.005 66.992C186.813 66.32 186.525 65.648 186.333 64.88C186.237 64.88 186.237 64.784 186.237 64.688C185.949 64.112 185.757 63.44 185.469 62.864C185.373 62.768 185.373 62.672 185.373 62.576C184.797 61.328 184.125 60.08 183.453 58.832C183.357 58.736 183.357 58.64 183.261 58.544C182.973 57.968 182.685 57.488 182.301 56.912L182.205 56.816C182.013 56.528 181.821 56.24 181.629 56.048C181.437 55.76 181.245 55.472 181.053 55.184C180.957 55.088 180.957 55.088 180.861 54.992C180.573 54.512 180.189 54.128 179.805 53.744C179.709 53.648 179.613 53.552 179.517 53.456C179.133 52.976 178.653 52.496 178.269 52.112C177.981 51.92 177.693 51.632 177.405 51.44C175.869 50.192 174.237 49.232 172.413 48.56C171.453 48.272 170.397 47.984 169.341 47.792V59.792C173.085 68.528 174.717 78.224 175.485 85.52H164.253C164.253 85.424 164.253 85.328 164.253 85.136C163.965 82.736 163.581 80.24 163.101 77.552C162.621 75.056 162.045 72.464 161.277 69.968C161.277 69.872 161.181 69.776 161.181 69.68C161.181 69.584 161.181 69.584 161.181 69.584C160.893 68.72 160.701 67.856 160.413 66.992C160.125 66.32 159.837 65.648 159.645 64.88C159.549 64.88 159.549 64.784 159.549 64.688C159.261 64.112 159.069 63.44 158.781 62.864C158.781 62.768 158.685 62.672 158.685 62.576C158.301 61.808 157.917 60.944 157.437 60.176C157.245 59.696 157.053 59.312 156.765 58.832C156.765 58.736 156.669 58.64 156.573 58.544C156.285 57.968 155.997 57.488 155.613 56.912L155.517 56.816C155.325 56.528 155.133 56.24 154.941 56.048C154.749 55.76 154.557 55.472 154.365 55.184C154.365 55.088 154.269 55.088 154.173 54.992C153.885 54.512 153.501 54.128 153.117 53.744C153.021 53.648 152.925 53.552 152.829 53.456C152.445 52.976 151.965 52.496 151.581 52.112C151.293 51.92 151.005 51.632 150.717 51.44C149.181 50.192 147.549 49.232 145.725 48.56C144.765 48.272 143.709 47.984 142.653 47.792V85.52H130.845V38.48L142.653 38.576C143.517 38.672 144.285 38.768 145.053 38.96C145.149 38.96 145.149 38.96 145.149 38.96C145.341 38.96 145.533 39.056 145.725 39.056C150.045 39.92 153.981 41.072 157.437 43.568V38.48L169.341 38.576C170.205 38.672 170.973 38.768 171.741 38.96C171.837 38.96 171.837 38.96 171.837 38.96C172.029 38.96 172.221 39.056 172.413 39.056C177.597 40.112 182.205 41.552 186.141 45.2C186.813 45.776 187.389 46.352 187.965 46.928C188.253 47.216 188.541 47.504 188.829 47.792C189.501 48.656 190.269 49.52 190.941 50.48C192.189 52.208 193.245 54.032 194.301 56.048ZM245.722 51.056C254.266 60.08 253.786 75.44 253.786 75.92V85.232H212.218V16.688H224.122V41.552C233.242 42.416 240.442 45.584 245.722 51.056ZM224.122 75.056H243.61C243.61 73.232 243.322 63.248 238.234 58.064C234.97 54.608 230.17 52.496 224.122 51.728V75.056ZM303.687 58.256C303.975 59.888 304.071 61.328 304.071 62.672V85.808H262.503V75.536C262.503 75.44 262.503 75.344 262.503 75.344C264.903 68.912 268.167 62.96 272.583 58.448C275.655 55.28 279.111 52.976 282.855 51.632C279.015 50.768 274.119 50.672 268.263 51.44L266.919 40.4C281.319 38.576 291.879 40.976 298.215 47.504C298.887 48.272 299.559 49.136 300.135 49.904C300.807 50.864 301.383 51.728 301.767 52.688C302.247 53.648 302.631 54.608 302.919 55.472C303.207 56.432 303.495 57.392 303.687 58.256ZM292.167 75.728V61.04C287.655 61.136 283.815 62.864 280.551 66.224C279.111 67.568 277.863 69.296 276.807 71.12C275.943 72.464 275.271 73.808 274.599 75.344C274.503 75.44 274.407 75.536 274.407 75.728H292.167ZM345.462 17.36C361.398 17.36 374.454 32.72 374.454 51.44C374.454 70.256 361.398 85.52 345.462 85.52C329.43 85.52 316.47 70.256 316.47 51.44C316.47 32.72 329.43 17.36 345.462 17.36ZM345.462 74.384C355.254 74.384 363.318 64.112 363.318 51.44C363.318 38.864 355.254 28.496 345.462 28.496C335.574 28.496 327.606 38.864 327.606 51.44C327.606 64.112 335.574 74.384 345.462 74.384ZM382.916 17.936H404.9V84.752H392.996V28.112H382.916V17.936Z" fill="url(#paint2_linear_5_9)"/>
<defs>
<linearGradient id="paint0_linear_5_9" x1="11" y1="57.5" x2="419" y2="57.5" gradientUnits="userSpaceOnUse">
<stop stop-color="#260DFF"/>
<stop offset="1" stop-color="#FFCAD9"/>
</linearGradient>
<linearGradient id="paint1_linear_5_9" x1="7" y1="56.5" x2="419" y2="56.5" gradientUnits="userSpaceOnUse">
<stop stop-color="#290159"/>
<stop offset="1" stop-color="#260DFF"/>
</linearGradient>
<linearGradient id="paint2_linear_5_9" x1="213.695" y1="53.2013" x2="213.695" y2="83.2987" gradientUnits="userSpaceOnUse">
<stop stop-color="white"/>
<stop offset="1" stop-color="#CDCDCD"/>
</linearGradient>
</defs>
</svg>
