<svg width="640" height="168" viewBox="0 0 640 168" fill="none" xmlns="http://www.w3.org/2000/svg">
<rect x="1" y="1" width="638" height="166" rx="6" fill="#222222" fill-opacity="0.1"/>
<rect x="0.5" y="0.5" width="639" height="167" rx="6.5" stroke="#222222" stroke-opacity="0.5"/>
<path d="M90.56 137V49.4H112.88V137H90.56ZM34.88 137V49.4H57.2V137H34.88ZM53.36 102.56V83.12H94.4V102.56H53.36ZM151.862 139.16C144.342 139.16 138.502 136.72 134.342 131.84C130.262 126.88 128.222 119.32 128.222 109.16V70.76H150.062V109.76C150.062 112.72 150.942 115.12 152.702 116.96C154.462 118.8 156.822 119.72 159.782 119.72C162.742 119.72 165.142 118.8 166.982 116.96C168.822 115.12 169.742 112.64 169.742 109.52V70.76H191.582V137H174.302V109.16H175.502C175.502 115.96 174.622 121.6 172.862 126.08C171.182 130.48 168.662 133.76 165.302 135.92C161.942 138.08 157.782 139.16 152.822 139.16H151.862ZM207.709 137V70.76H224.989V99.32H224.029C224.029 92.44 224.869 86.76 226.549 82.28C228.309 77.72 230.869 74.32 234.229 72.08C237.589 69.76 241.709 68.6 246.589 68.6H247.549C252.509 68.6 256.629 69.76 259.909 72.08C263.269 74.32 265.789 77.72 267.469 82.28C269.229 86.76 270.109 92.44 270.109 99.32H265.069C265.069 92.44 265.909 86.76 267.589 82.28C269.349 77.72 271.909 74.32 275.269 72.08C278.629 69.76 282.749 68.6 287.629 68.6H288.589C293.549 68.6 297.709 69.76 301.069 72.08C304.509 74.32 307.109 77.72 308.869 82.28C310.709 86.76 311.629 92.44 311.629 99.32V137H289.789V98.72C289.789 95.68 288.949 93.16 287.269 91.16C285.669 89.08 283.349 88.04 280.309 88.04C277.269 88.04 274.869 89.08 273.109 91.16C271.429 93.16 270.589 95.76 270.589 98.96V137H248.749V98.72C248.749 95.68 247.909 93.16 246.229 91.16C244.629 89.08 242.309 88.04 239.269 88.04C236.229 88.04 233.829 89.08 232.069 91.16C230.389 93.16 229.549 95.76 229.549 98.96V137H207.709ZM369.023 139.16C363.583 139.16 358.823 138.04 354.743 135.8C350.743 133.56 347.583 130.28 345.263 125.96C343.023 121.64 341.823 116.36 341.663 110.12H343.583V137H326.303V49.4H348.143V94.52L343.343 99.32C343.583 92.84 344.823 87.32 347.063 82.76C349.303 78.2 352.383 74.76 356.303 72.44C360.303 70.04 364.903 68.84 370.103 68.84C374.583 68.84 378.623 69.68 382.223 71.36C385.823 72.96 388.863 75.28 391.343 78.32C393.903 81.28 395.863 84.8 397.223 88.88C398.583 92.96 399.263 97.44 399.263 102.32V105.2C399.263 110.08 398.583 114.6 397.223 118.76C395.863 122.84 393.863 126.44 391.223 129.56C388.583 132.6 385.383 134.96 381.623 136.64C377.943 138.32 373.743 139.16 369.023 139.16ZM362.783 121.16C365.663 121.16 368.183 120.44 370.343 119C372.583 117.48 374.303 115.4 375.503 112.76C376.783 110.12 377.423 107.12 377.423 103.76C377.423 100.32 376.783 97.36 375.503 94.88C374.303 92.32 372.623 90.36 370.463 89C368.303 87.56 365.743 86.84 362.783 86.84C360.143 86.84 357.663 87.44 355.343 88.64C353.103 89.84 351.263 91.6 349.823 93.92C348.383 96.24 347.663 99.04 347.663 102.32V106.4C347.663 109.52 348.423 112.2 349.943 114.44C351.463 116.6 353.383 118.28 355.703 119.48C358.023 120.6 360.383 121.16 362.783 121.16ZM451.344 137V117.56H447.744V96.8C447.744 93.76 447.024 91.52 445.584 90.08C444.224 88.56 441.944 87.8 438.744 87.8C437.224 87.8 434.984 87.84 432.024 87.92C429.064 88 425.944 88.12 422.664 88.28C419.384 88.44 416.384 88.6 413.664 88.76V70.52C415.584 70.36 417.864 70.2 420.504 70.04C423.144 69.88 425.864 69.76 428.664 69.68C431.544 69.6 434.184 69.56 436.584 69.56C443.384 69.56 449.144 70.56 453.864 72.56C458.664 74.56 462.304 77.56 464.784 81.56C467.344 85.56 468.624 90.64 468.624 96.8V137H451.344ZM430.344 138.68C425.704 138.68 421.584 137.84 417.984 136.16C414.384 134.48 411.544 132.08 409.464 128.96C407.464 125.76 406.464 121.96 406.464 117.56C406.464 112.6 407.784 108.6 410.424 105.56C413.064 102.44 416.704 100.16 421.344 98.72C425.984 97.28 431.304 96.56 437.304 96.56H450.144V107.84H437.304C434.344 107.84 432.064 108.6 430.464 110.12C428.864 111.56 428.064 113.52 428.064 116C428.064 118.4 428.864 120.36 430.464 121.88C432.064 123.32 434.344 124.04 437.304 124.04C439.224 124.04 440.904 123.72 442.344 123.08C443.864 122.36 445.104 121.16 446.064 119.48C447.024 117.8 447.584 115.48 447.744 112.52L452.784 117.32C452.384 121.88 451.264 125.76 449.424 128.96C447.664 132.08 445.184 134.48 441.984 136.16C438.864 137.84 434.984 138.68 430.344 138.68ZM521.497 139.4C514.377 139.4 508.297 138.28 503.257 136.04C498.217 133.72 494.097 130.6 490.897 126.68C487.697 122.68 485.337 118.12 483.817 113C482.297 107.8 481.537 102.36 481.537 96.68V89.72C481.537 81.72 482.977 74.48 485.857 68C488.737 61.52 493.137 56.36 499.057 52.52C504.977 48.68 512.457 46.76 521.497 46.76C530.537 46.76 537.977 48.68 543.817 52.52C549.737 56.36 554.137 61.52 557.017 68C559.897 74.48 561.337 81.72 561.337 89.72V96.68C561.337 102.36 560.577 107.8 559.057 113C557.537 118.12 555.177 122.68 551.977 126.68C548.857 130.6 544.777 133.72 539.737 136.04C534.697 138.28 528.617 139.4 521.497 139.4ZM521.497 118.76C527.417 118.76 531.817 116.68 534.697 112.52C537.577 108.36 539.017 101.96 539.017 93.32C539.017 84.12 537.537 77.52 534.577 73.52C531.617 69.44 527.257 67.4 521.497 67.4C515.657 67.4 511.257 69.44 508.297 73.52C505.337 77.52 503.857 84.04 503.857 93.08C503.857 101.8 505.297 108.28 508.177 112.52C511.137 116.68 515.577 118.76 521.497 118.76ZM587.443 137V64.76L592.723 68.84H571.123V49.4H609.763V137H587.443Z" fill="url(#paint0_linear_5_9)"/>
<path d="M84.56 134V46.4H106.88V134H84.56ZM28.88 134V46.4H51.2V134H28.88ZM47.36 99.56V80.12H88.4V99.56H47.36ZM145.862 136.16C138.342 136.16 132.502 133.72 128.342 128.84C124.262 123.88 122.222 116.32 122.222 106.16V67.76H144.062V106.76C144.062 109.72 144.942 112.12 146.702 113.96C148.462 115.8 150.822 116.72 153.782 116.72C156.742 116.72 159.142 115.8 160.982 113.96C162.822 112.12 163.742 109.64 163.742 106.52V67.76H185.582V134H168.302V106.16H169.502C169.502 112.96 168.622 118.6 166.862 123.08C165.182 127.48 162.662 130.76 159.302 132.92C155.942 135.08 151.782 136.16 146.822 136.16H145.862ZM201.709 134V67.76H218.989V96.32H218.029C218.029 89.44 218.869 83.76 220.549 79.28C222.309 74.72 224.869 71.32 228.229 69.08C231.589 66.76 235.709 65.6 240.589 65.6H241.549C246.509 65.6 250.629 66.76 253.909 69.08C257.269 71.32 259.789 74.72 261.469 79.28C263.229 83.76 264.109 89.44 264.109 96.32H259.069C259.069 89.44 259.909 83.76 261.589 79.28C263.349 74.72 265.909 71.32 269.269 69.08C272.629 66.76 276.749 65.6 281.629 65.6H282.589C287.549 65.6 291.709 66.76 295.069 69.08C298.509 71.32 301.109 74.72 302.869 79.28C304.709 83.76 305.629 89.44 305.629 96.32V134H283.789V95.72C283.789 92.68 282.949 90.16 281.269 88.16C279.669 86.08 277.349 85.04 274.309 85.04C271.269 85.04 268.869 86.08 267.109 88.16C265.429 90.16 264.589 92.76 264.589 95.96V134H242.749V95.72C242.749 92.68 241.909 90.16 240.229 88.16C238.629 86.08 236.309 85.04 233.269 85.04C230.229 85.04 227.829 86.08 226.069 88.16C224.389 90.16 223.549 92.76 223.549 95.96V134H201.709ZM363.023 136.16C357.583 136.16 352.823 135.04 348.743 132.8C344.743 130.56 341.583 127.28 339.263 122.96C337.023 118.64 335.823 113.36 335.663 107.12H337.583V134H320.303V46.4H342.143V91.52L337.343 96.32C337.583 89.84 338.823 84.32 341.063 79.76C343.303 75.2 346.383 71.76 350.303 69.44C354.303 67.04 358.903 65.84 364.103 65.84C368.583 65.84 372.623 66.68 376.223 68.36C379.823 69.96 382.863 72.28 385.343 75.32C387.903 78.28 389.863 81.8 391.223 85.88C392.583 89.96 393.263 94.44 393.263 99.32V102.2C393.263 107.08 392.583 111.6 391.223 115.76C389.863 119.84 387.863 123.44 385.223 126.56C382.583 129.6 379.383 131.96 375.623 133.64C371.943 135.32 367.743 136.16 363.023 136.16ZM356.783 118.16C359.663 118.16 362.183 117.44 364.343 116C366.583 114.48 368.303 112.4 369.503 109.76C370.783 107.12 371.423 104.12 371.423 100.76C371.423 97.32 370.783 94.36 369.503 91.88C368.303 89.32 366.623 87.36 364.463 86C362.303 84.56 359.743 83.84 356.783 83.84C354.143 83.84 351.663 84.44 349.343 85.64C347.103 86.84 345.263 88.6 343.823 90.92C342.383 93.24 341.663 96.04 341.663 99.32V103.4C341.663 106.52 342.423 109.2 343.943 111.44C345.463 113.6 347.383 115.28 349.703 116.48C352.023 117.6 354.383 118.16 356.783 118.16ZM445.344 134V114.56H441.744V93.8C441.744 90.76 441.024 88.52 439.584 87.08C438.224 85.56 435.944 84.8 432.744 84.8C431.224 84.8 428.984 84.84 426.024 84.92C423.064 85 419.944 85.12 416.664 85.28C413.384 85.44 410.384 85.6 407.664 85.76V67.52C409.584 67.36 411.864 67.2 414.504 67.04C417.144 66.88 419.864 66.76 422.664 66.68C425.544 66.6 428.184 66.56 430.584 66.56C437.384 66.56 443.144 67.56 447.864 69.56C452.664 71.56 456.304 74.56 458.784 78.56C461.344 82.56 462.624 87.64 462.624 93.8V134H445.344ZM424.344 135.68C419.704 135.68 415.584 134.84 411.984 133.16C408.384 131.48 405.544 129.08 403.464 125.96C401.464 122.76 400.464 118.96 400.464 114.56C400.464 109.6 401.784 105.6 404.424 102.56C407.064 99.44 410.704 97.16 415.344 95.72C419.984 94.28 425.304 93.56 431.304 93.56H444.144V104.84H431.304C428.344 104.84 426.064 105.6 424.464 107.12C422.864 108.56 422.064 110.52 422.064 113C422.064 115.4 422.864 117.36 424.464 118.88C426.064 120.32 428.344 121.04 431.304 121.04C433.224 121.04 434.904 120.72 436.344 120.08C437.864 119.36 439.104 118.16 440.064 116.48C441.024 114.8 441.584 112.48 441.744 109.52L446.784 114.32C446.384 118.88 445.264 122.76 443.424 125.96C441.664 129.08 439.184 131.48 435.984 133.16C432.864 134.84 428.984 135.68 424.344 135.68ZM515.497 136.4C508.377 136.4 502.297 135.28 497.257 133.04C492.217 130.72 488.097 127.6 484.897 123.68C481.697 119.68 479.337 115.12 477.817 110C476.297 104.8 475.537 99.36 475.537 93.68V86.72C475.537 78.72 476.977 71.48 479.857 65C482.737 58.52 487.137 53.36 493.057 49.52C498.977 45.68 506.457 43.76 515.497 43.76C524.537 43.76 531.977 45.68 537.817 49.52C543.737 53.36 548.137 58.52 551.017 65C553.897 71.48 555.337 78.72 555.337 86.72V93.68C555.337 99.36 554.577 104.8 553.057 110C551.537 115.12 549.177 119.68 545.977 123.68C542.857 127.6 538.777 130.72 533.737 133.04C528.697 135.28 522.617 136.4 515.497 136.4ZM515.497 115.76C521.417 115.76 525.817 113.68 528.697 109.52C531.577 105.36 533.017 98.96 533.017 90.32C533.017 81.12 531.537 74.52 528.577 70.52C525.617 66.44 521.257 64.4 515.497 64.4C509.657 64.4 505.257 66.44 502.297 70.52C499.337 74.52 497.857 81.04 497.857 90.08C497.857 98.8 499.297 105.28 502.177 109.52C505.137 113.68 509.577 115.76 515.497 115.76ZM581.443 134V61.76L586.723 65.84H565.123V46.4H603.763V134H581.443Z" fill="url(#paint1_linear_5_9)"/>
<path d="M86.56 135V47.4H108.88V135H86.56ZM30.88 135V47.4H53.2V135H30.88ZM49.36 100.56V81.12H90.4V100.56H49.36ZM147.862 137.16C140.342 137.16 134.502 134.72 130.342 129.84C126.262 124.88 124.222 117.32 124.222 107.16V68.76H146.062V107.76C146.062 110.72 146.942 113.12 148.702 114.96C150.462 116.8 152.822 117.72 155.782 117.72C158.742 117.72 161.142 116.8 162.982 114.96C164.822 113.12 165.742 110.64 165.742 107.52V68.76H187.582V135H170.302V107.16H171.502C171.502 113.96 170.622 119.6 168.862 124.08C167.182 128.48 164.662 131.76 161.302 133.92C157.942 136.08 153.782 137.16 148.822 137.16H147.862ZM203.709 135V68.76H220.989V97.32H220.029C220.029 90.44 220.869 84.76 222.549 80.28C224.309 75.72 226.869 72.32 230.229 70.08C233.589 67.76 237.709 66.6 242.589 66.6H243.549C248.509 66.6 252.629 67.76 255.909 70.08C259.269 72.32 261.789 75.72 263.469 80.28C265.229 84.76 266.109 90.44 266.109 97.32H261.069C261.069 90.44 261.909 84.76 263.589 80.28C265.349 75.72 267.909 72.32 271.269 70.08C274.629 67.76 278.749 66.6 283.629 66.6H284.589C289.549 66.6 293.709 67.76 297.069 70.08C300.509 72.32 303.109 75.72 304.869 80.28C306.709 84.76 307.629 90.44 307.629 97.32V135H285.789V96.72C285.789 93.68 284.949 91.16 283.269 89.16C281.669 87.08 279.349 86.04 276.309 86.04C273.269 86.04 270.869 87.08 269.109 89.16C267.429 91.16 266.589 93.76 266.589 96.96V135H244.749V96.72C244.749 93.68 243.909 91.16 242.229 89.16C240.629 87.08 238.309 86.04 235.269 86.04C232.229 86.04 229.829 87.08 228.069 89.16C226.389 91.16 225.549 93.76 225.549 96.96V135H203.709ZM365.023 137.16C359.583 137.16 354.823 136.04 350.743 133.8C346.743 131.56 343.583 128.28 341.263 123.96C339.023 119.64 337.823 114.36 337.663 108.12H339.583V135H322.303V47.4H344.143V92.52L339.343 97.32C339.583 90.84 340.823 85.32 343.063 80.76C345.303 76.2 348.383 72.76 352.303 70.44C356.303 68.04 360.903 66.84 366.103 66.84C370.583 66.84 374.623 67.68 378.223 69.36C381.823 70.96 384.863 73.28 387.343 76.32C389.903 79.28 391.863 82.8 393.223 86.88C394.583 90.96 395.263 95.44 395.263 100.32V103.2C395.263 108.08 394.583 112.6 393.223 116.76C391.863 120.84 389.863 124.44 387.223 127.56C384.583 130.6 381.383 132.96 377.623 134.64C373.943 136.32 369.743 137.16 365.023 137.16ZM358.783 119.16C361.663 119.16 364.183 118.44 366.343 117C368.583 115.48 370.303 113.4 371.503 110.76C372.783 108.12 373.423 105.12 373.423 101.76C373.423 98.32 372.783 95.36 371.503 92.88C370.303 90.32 368.623 88.36 366.463 87C364.303 85.56 361.743 84.84 358.783 84.84C356.143 84.84 353.663 85.44 351.343 86.64C349.103 87.84 347.263 89.6 345.823 91.92C344.383 94.24 343.663 97.04 343.663 100.32V104.4C343.663 107.52 344.423 110.2 345.943 112.44C347.463 114.6 349.383 116.28 351.703 117.48C354.023 118.6 356.383 119.16 358.783 119.16ZM447.344 135V115.56H443.744V94.8C443.744 91.76 443.024 89.52 441.584 88.08C440.224 86.56 437.944 85.8 434.744 85.8C433.224 85.8 430.984 85.84 428.024 85.92C425.064 86 421.944 86.12 418.664 86.28C415.384 86.44 412.384 86.6 409.664 86.76V68.52C411.584 68.36 413.864 68.2 416.504 68.04C419.144 67.88 421.864 67.76 424.664 67.68C427.544 67.6 430.184 67.56 432.584 67.56C439.384 67.56 445.144 68.56 449.864 70.56C454.664 72.56 458.304 75.56 460.784 79.56C463.344 83.56 464.624 88.64 464.624 94.8V135H447.344ZM426.344 136.68C421.704 136.68 417.584 135.84 413.984 134.16C410.384 132.48 407.544 130.08 405.464 126.96C403.464 123.76 402.464 119.96 402.464 115.56C402.464 110.6 403.784 106.6 406.424 103.56C409.064 100.44 412.704 98.16 417.344 96.72C421.984 95.28 427.304 94.56 433.304 94.56H446.144V105.84H433.304C430.344 105.84 428.064 106.6 426.464 108.12C424.864 109.56 424.064 111.52 424.064 114C424.064 116.4 424.864 118.36 426.464 119.88C428.064 121.32 430.344 122.04 433.304 122.04C435.224 122.04 436.904 121.72 438.344 121.08C439.864 120.36 441.104 119.16 442.064 117.48C443.024 115.8 443.584 113.48 443.744 110.52L448.784 115.32C448.384 119.88 447.264 123.76 445.424 126.96C443.664 130.08 441.184 132.48 437.984 134.16C434.864 135.84 430.984 136.68 426.344 136.68ZM517.497 137.4C510.377 137.4 504.297 136.28 499.257 134.04C494.217 131.72 490.097 128.6 486.897 124.68C483.697 120.68 481.337 116.12 479.817 111C478.297 105.8 477.537 100.36 477.537 94.68V87.72C477.537 79.72 478.977 72.48 481.857 66C484.737 59.52 489.137 54.36 495.057 50.52C500.977 46.68 508.457 44.76 517.497 44.76C526.537 44.76 533.977 46.68 539.817 50.52C545.737 54.36 550.137 59.52 553.017 66C555.897 72.48 557.337 79.72 557.337 87.72V94.68C557.337 100.36 556.577 105.8 555.057 111C553.537 116.12 551.177 120.68 547.977 124.68C544.857 128.6 540.777 131.72 535.737 134.04C530.697 136.28 524.617 137.4 517.497 137.4ZM517.497 116.76C523.417 116.76 527.817 114.68 530.697 110.52C533.577 106.36 535.017 99.96 535.017 91.32C535.017 82.12 533.537 75.52 530.577 71.52C527.617 67.44 523.257 65.4 517.497 65.4C511.657 65.4 507.257 67.44 504.297 71.52C501.337 75.52 499.857 82.04 499.857 91.08C499.857 99.8 501.297 106.28 504.177 110.52C507.137 114.68 511.577 116.76 517.497 116.76ZM583.443 135V62.76L588.723 66.84H567.123V47.4H605.763V135H583.443Z" fill="url(#paint2_linear_5_9)"/>
<defs>
<linearGradient id="paint0_linear_5_9" x1="26" y1="77" x2="621" y2="77" gradientUnits="userSpaceOnUse">
<stop stop-color="#260DFF"/>
<stop offset="1" stop-color="#FFCAD9"/>
</linearGradient>
<linearGradient id="paint1_linear_5_9" x1="20" y1="75.5" x2="621" y2="75.5" gradientUnits="userSpaceOnUse">
<stop stop-color="#290159"/>
<stop offset="1" stop-color="#260DFF"/>
</linearGradient>
<linearGradient id="paint2_linear_5_9" x1="321.055" y1="71.1883" x2="321.055" y2="109.312" gradientUnits="userSpaceOnUse">
<stop stop-color="white"/>
<stop offset="1" stop-color="#CDCDCD"/>
</linearGradient>
</defs>
</svg>
