<svg width="768" height="202" viewBox="0 0 768 202" fill="none" xmlns="http://www.w3.org/2000/svg">
<rect x="4" y="4" width="760" height="194" rx="6" fill="#222222" fill-opacity="0.1"/>
<rect x="2" y="2" width="764" height="198" rx="8" stroke="#222222" stroke-opacity="0.5" stroke-width="4"/>
<path d="M116.32 120.29H80.48V159.17H60.64V47.6504H80.48V103.49H116.32V47.6504H136.16V159.17H116.32V120.29ZM208.618 80.6104H228.458V159.17L208.618 158.85C207.178 158.69 205.898 158.53 204.618 158.37H204.458C204.138 158.37 203.818 158.21 203.498 158.21C194.858 156.45 187.178 154.05 180.618 147.97C179.498 147.01 178.538 146.05 177.578 145.09C177.098 144.61 176.618 144.13 176.138 143.49C175.018 142.21 173.738 140.61 172.778 139.17C170.538 136.29 168.778 133.09 167.018 129.89C158.698 113.89 155.338 94.6904 154.058 80.6104H172.618C172.618 80.9304 172.618 81.0904 172.778 81.4104C173.098 85.4104 173.738 89.5704 174.538 93.8904C175.338 98.2104 176.298 102.53 177.578 106.69C177.578 106.85 177.738 107.01 177.738 107.17C178.218 108.77 178.698 110.21 179.178 111.65C179.498 112.77 179.978 113.89 180.298 115.01C180.458 115.17 180.458 115.33 180.458 115.49C180.938 116.45 181.258 117.41 181.738 118.53C181.898 118.69 181.898 118.69 181.898 118.85C182.858 121.09 183.978 123.17 185.098 125.09C185.258 125.41 185.258 125.57 185.418 125.73C185.898 126.69 186.378 127.49 187.018 128.29C187.018 128.45 187.178 128.45 187.178 128.61C187.498 129.09 187.818 129.41 188.138 129.89C188.458 130.37 188.778 130.85 189.098 131.33C189.258 131.33 189.258 131.49 189.418 131.65C189.898 132.29 190.538 133.09 191.177 133.73C191.338 133.89 191.498 134.05 191.658 134.21C192.298 135.01 193.098 135.81 193.738 136.45C194.218 136.77 194.698 137.09 195.178 137.57C197.738 139.65 200.458 141.25 203.498 142.37C205.098 142.85 206.858 143.33 208.618 143.65V80.6104ZM356.835 109.41C365.155 125.41 368.515 144.61 369.955 158.53H351.235C351.235 158.37 351.235 158.21 351.235 157.89C350.755 153.89 350.115 149.73 349.315 145.25C348.515 141.09 347.555 136.77 346.275 132.61C346.275 132.45 346.115 132.29 346.115 132.13C346.115 131.97 346.115 131.97 346.115 131.97C345.635 130.53 345.155 129.09 344.675 127.65C344.355 126.53 343.875 125.41 343.555 124.13C343.395 124.13 343.395 123.97 343.395 123.81C342.915 122.85 342.595 121.73 342.115 120.77C341.955 120.61 341.955 120.45 341.955 120.29C340.995 118.21 339.875 116.13 338.755 114.05C338.595 113.89 338.595 113.73 338.435 113.57C337.955 112.61 337.475 111.81 336.835 110.85L336.675 110.69C336.355 110.21 336.035 109.73 335.715 109.41C335.395 108.93 335.075 108.45 334.755 107.97C334.595 107.81 334.595 107.81 334.435 107.65C333.955 106.85 333.315 106.21 332.675 105.57C332.515 105.41 332.355 105.25 332.195 105.09C331.555 104.29 330.755 103.49 330.115 102.85C329.635 102.53 329.155 102.05 328.675 101.73C326.115 99.6504 323.395 98.0504 320.355 96.9304C318.755 96.4504 316.995 95.9704 315.235 95.6504V115.65C321.475 130.21 324.195 146.37 325.475 158.53H306.755C306.755 158.37 306.755 158.21 306.755 157.89C306.275 153.89 305.635 149.73 304.835 145.25C304.035 141.09 303.075 136.77 301.795 132.61C301.795 132.45 301.635 132.29 301.635 132.13C301.635 131.97 301.635 131.97 301.635 131.97C301.155 130.53 300.835 129.09 300.355 127.65C299.875 126.53 299.395 125.41 299.075 124.13C298.915 124.13 298.915 123.97 298.915 123.81C298.435 122.85 298.115 121.73 297.635 120.77C297.635 120.61 297.475 120.45 297.475 120.29C296.835 119.01 296.195 117.57 295.395 116.29C295.075 115.49 294.755 114.85 294.275 114.05C294.275 113.89 294.115 113.73 293.955 113.57C293.475 112.61 292.995 111.81 292.355 110.85L292.195 110.69C291.875 110.21 291.555 109.73 291.235 109.41C290.915 108.93 290.595 108.45 290.275 107.97C290.275 107.81 290.115 107.81 289.955 107.65C289.475 106.85 288.835 106.21 288.195 105.57C288.035 105.41 287.875 105.25 287.715 105.09C287.075 104.29 286.275 103.49 285.635 102.85C285.155 102.53 284.675 102.05 284.195 101.73C281.635 99.6504 278.915 98.0504 275.875 96.9304C274.275 96.4504 272.515 95.9704 270.755 95.6504V158.53H251.075V80.1304L270.755 80.2904C272.195 80.4504 273.475 80.6104 274.755 80.9304C274.915 80.9304 274.915 80.9304 274.915 80.9304C275.235 80.9304 275.555 81.0904 275.875 81.0904C283.075 82.5304 289.635 84.4504 295.395 88.6104V80.1304L315.235 80.2904C316.675 80.4504 317.955 80.6104 319.235 80.9304C319.395 80.9304 319.395 80.9304 319.395 80.9304C319.715 80.9304 320.035 81.0904 320.355 81.0904C328.995 82.8504 336.675 85.2504 343.235 91.3304C344.355 92.2904 345.315 93.2504 346.275 94.2104C346.755 94.6904 347.235 95.1704 347.715 95.6504C348.835 97.0904 350.115 98.5304 351.235 100.13C353.315 103.01 355.075 106.05 356.835 109.41ZM442.536 101.09C456.776 116.13 455.976 141.73 455.976 142.53V158.05H386.696V43.8104H406.536V85.2504C421.736 86.6904 433.736 91.9704 442.536 101.09ZM406.536 141.09H439.016C439.016 138.05 438.536 121.41 430.056 112.77C424.616 107.01 416.616 103.49 406.536 102.21V141.09ZM539.145 113.09C539.625 115.81 539.785 118.21 539.785 120.45V159.01H470.505V141.89C470.505 141.73 470.505 141.57 470.505 141.57C474.505 130.85 479.945 120.93 487.305 113.41C492.425 108.13 498.185 104.29 504.425 102.05C498.025 100.61 489.865 100.45 480.105 101.73L477.865 83.3304C501.865 80.2904 519.465 84.2904 530.025 95.1704C531.145 96.4504 532.265 97.8904 533.225 99.1704C534.345 100.77 535.305 102.21 535.945 103.81C536.745 105.41 537.385 107.01 537.865 108.45C538.345 110.05 538.825 111.65 539.145 113.09ZM519.945 142.21V117.73C512.425 117.89 506.025 120.77 500.585 126.37C498.185 128.61 496.105 131.49 494.345 134.53C492.905 136.77 491.785 139.01 490.665 141.57C490.505 141.73 490.345 141.89 490.345 142.21H519.945ZM608.77 44.9304C635.33 44.9304 657.09 70.5304 657.09 101.73C657.09 133.09 635.33 158.53 608.77 158.53C582.05 158.53 560.45 133.09 560.45 101.73C560.45 70.5304 582.05 44.9304 608.77 44.9304ZM608.77 139.97C625.09 139.97 638.53 122.85 638.53 101.73C638.53 80.7704 625.09 63.4904 608.77 63.4904C592.29 63.4904 579.01 80.7704 579.01 101.73C579.01 122.85 592.29 139.97 608.77 139.97ZM671.194 45.8904H707.834V157.25H687.994V62.8504H671.194V45.8904Z" fill="url(#paint0_linear_5_9)"/>
<path d="M112.32 117.727H76.48V156.607H56.64V45.0865H76.48V100.927H112.32V45.0865H132.16V156.607H112.32V117.727ZM204.618 78.0465H224.458V156.607L204.618 156.287C203.178 156.127 201.898 155.967 200.618 155.807H200.458C200.138 155.807 199.818 155.647 199.498 155.647C190.858 153.887 183.178 151.487 176.618 145.407C175.498 144.447 174.538 143.487 173.578 142.527C173.098 142.047 172.618 141.567 172.138 140.927C171.018 139.647 169.738 138.047 168.778 136.607C166.538 133.727 164.778 130.527 163.018 127.327C154.698 111.327 151.338 92.1265 150.058 78.0465H168.618C168.618 78.3665 168.618 78.5265 168.778 78.8465C169.098 82.8465 169.738 87.0065 170.538 91.3265C171.338 95.6465 172.298 99.9665 173.578 104.127C173.578 104.287 173.738 104.447 173.738 104.607C174.218 106.207 174.698 107.647 175.178 109.087C175.498 110.207 175.978 111.327 176.298 112.447C176.458 112.607 176.458 112.767 176.458 112.927C176.938 113.887 177.258 114.847 177.738 115.967C177.898 116.127 177.898 116.127 177.898 116.287C178.858 118.527 179.978 120.607 181.098 122.527C181.258 122.847 181.258 123.007 181.418 123.167C181.898 124.127 182.378 124.927 183.018 125.727C183.018 125.887 183.178 125.887 183.178 126.047C183.498 126.527 183.818 126.847 184.138 127.327C184.458 127.807 184.778 128.287 185.098 128.767C185.258 128.767 185.258 128.927 185.418 129.087C185.898 129.727 186.538 130.527 187.177 131.167C187.338 131.327 187.498 131.487 187.658 131.647C188.298 132.447 189.098 133.247 189.738 133.887C190.218 134.207 190.698 134.527 191.178 135.007C193.738 137.087 196.458 138.687 199.498 139.807C201.098 140.287 202.858 140.767 204.618 141.087V78.0465ZM352.835 106.847C361.155 122.847 364.515 142.047 365.955 155.967H347.235C347.235 155.807 347.235 155.647 347.235 155.327C346.755 151.327 346.115 147.167 345.315 142.687C344.515 138.527 343.555 134.207 342.275 130.047C342.275 129.887 342.115 129.727 342.115 129.567C342.115 129.407 342.115 129.407 342.115 129.407C341.635 127.967 341.155 126.527 340.675 125.087C340.355 123.967 339.875 122.847 339.555 121.567C339.395 121.567 339.395 121.407 339.395 121.247C338.915 120.287 338.595 119.167 338.115 118.207C337.955 118.047 337.955 117.887 337.955 117.727C336.995 115.647 335.875 113.567 334.755 111.487C334.595 111.327 334.595 111.167 334.435 111.007C333.955 110.047 333.475 109.247 332.835 108.287L332.675 108.127C332.355 107.647 332.035 107.167 331.715 106.847C331.395 106.367 331.075 105.887 330.755 105.407C330.595 105.247 330.595 105.247 330.435 105.087C329.955 104.287 329.315 103.647 328.675 103.007C328.515 102.847 328.355 102.687 328.195 102.527C327.555 101.727 326.755 100.927 326.115 100.287C325.635 99.9665 325.155 99.4865 324.675 99.1665C322.115 97.0865 319.395 95.4865 316.355 94.3665C314.755 93.8865 312.995 93.4065 311.235 93.0865V113.087C317.475 127.647 320.195 143.807 321.475 155.967H302.755C302.755 155.807 302.755 155.647 302.755 155.327C302.275 151.327 301.635 147.167 300.835 142.687C300.035 138.527 299.075 134.207 297.795 130.047C297.795 129.887 297.635 129.727 297.635 129.567C297.635 129.407 297.635 129.407 297.635 129.407C297.155 127.967 296.835 126.527 296.355 125.087C295.875 123.967 295.395 122.847 295.075 121.567C294.915 121.567 294.915 121.407 294.915 121.247C294.435 120.287 294.115 119.167 293.635 118.207C293.635 118.047 293.475 117.887 293.475 117.727C292.835 116.447 292.195 115.007 291.395 113.727C291.075 112.927 290.755 112.287 290.275 111.487C290.275 111.327 290.115 111.167 289.955 111.007C289.475 110.047 288.995 109.247 288.355 108.287L288.195 108.127C287.875 107.647 287.555 107.167 287.235 106.847C286.915 106.367 286.595 105.887 286.275 105.407C286.275 105.247 286.115 105.247 285.955 105.087C285.475 104.287 284.835 103.647 284.195 103.007C284.035 102.847 283.875 102.687 283.715 102.527C283.075 101.727 282.275 100.927 281.635 100.287C281.155 99.9665 280.675 99.4865 280.195 99.1665C277.635 97.0865 274.915 95.4865 271.875 94.3665C270.275 93.8865 268.515 93.4065 266.755 93.0865V155.967H247.075V77.5665L266.755 77.7265C268.195 77.8865 269.475 78.0465 270.755 78.3665C270.915 78.3665 270.915 78.3665 270.915 78.3665C271.235 78.3665 271.555 78.5265 271.875 78.5265C279.075 79.9665 285.635 81.8865 291.395 86.0465V77.5665L311.235 77.7265C312.675 77.8865 313.955 78.0465 315.235 78.3665C315.395 78.3665 315.395 78.3665 315.395 78.3665C315.715 78.3665 316.035 78.5265 316.355 78.5265C324.995 80.2865 332.675 82.6865 339.235 88.7665C340.355 89.7265 341.315 90.6865 342.275 91.6465C342.755 92.1265 343.235 92.6065 343.715 93.0865C344.835 94.5265 346.115 95.9665 347.235 97.5665C349.315 100.447 351.075 103.487 352.835 106.847ZM438.536 98.5265C452.776 113.567 451.976 139.167 451.976 139.967V155.487H382.696V41.2465H402.536V82.6865C417.736 84.1265 429.736 89.4065 438.536 98.5265ZM402.536 138.527H435.016C435.016 135.487 434.536 118.847 426.056 110.207C420.616 104.447 412.616 100.927 402.536 99.6465V138.527ZM535.145 110.527C535.625 113.247 535.785 115.647 535.785 117.887V156.447H466.505V139.327C466.505 139.167 466.505 139.007 466.505 139.007C470.505 128.287 475.945 118.367 483.305 110.847C488.425 105.567 494.185 101.727 500.425 99.4865C494.025 98.0465 485.865 97.8865 476.105 99.1665L473.865 80.7665C497.865 77.7265 515.465 81.7265 526.025 92.6065C527.145 93.8865 528.265 95.3265 529.225 96.6065C530.345 98.2065 531.305 99.6465 531.945 101.247C532.745 102.847 533.385 104.447 533.865 105.887C534.345 107.487 534.825 109.087 535.145 110.527ZM515.945 139.647V115.167C508.425 115.327 502.025 118.207 496.585 123.807C494.185 126.047 492.105 128.927 490.345 131.967C488.905 134.207 487.785 136.447 486.665 139.007C486.505 139.167 486.345 139.327 486.345 139.647H515.945ZM604.77 42.3665C631.33 42.3665 653.09 67.9665 653.09 99.1665C653.09 130.527 631.33 155.967 604.77 155.967C578.05 155.967 556.45 130.527 556.45 99.1665C556.45 67.9665 578.05 42.3665 604.77 42.3665ZM604.77 137.407C621.09 137.407 634.53 120.287 634.53 99.1665C634.53 78.2065 621.09 60.9265 604.77 60.9265C588.29 60.9265 575.01 78.2065 575.01 99.1665C575.01 120.287 588.29 137.407 604.77 137.407ZM667.194 43.3265H703.834V154.687H683.994V60.2865H667.194V43.3265Z" fill="url(#paint1_linear_5_9)"/>
<path d="M114.32 119.436H78.48V158.316H58.64V46.7958H78.48V102.636H114.32V46.7958H134.16V158.316H114.32V119.436ZM206.618 79.7558H226.458V158.316L206.618 157.996C205.178 157.836 203.898 157.676 202.618 157.516H202.458C202.138 157.516 201.818 157.356 201.498 157.356C192.858 155.596 185.178 153.196 178.618 147.116C177.498 146.156 176.538 145.196 175.578 144.236C175.098 143.756 174.618 143.276 174.138 142.636C173.018 141.356 171.738 139.756 170.778 138.316C168.538 135.436 166.778 132.236 165.018 129.036C156.698 113.036 153.338 93.8358 152.058 79.7558H170.618C170.618 80.0758 170.618 80.2358 170.778 80.5558C171.098 84.5558 171.738 88.7158 172.538 93.0358C173.338 97.3558 174.298 101.676 175.578 105.836C175.578 105.996 175.738 106.156 175.738 106.316C176.218 107.916 176.698 109.356 177.178 110.796C177.498 111.916 177.978 113.036 178.298 114.156C178.458 114.316 178.458 114.476 178.458 114.636C178.938 115.596 179.258 116.556 179.738 117.676C179.898 117.836 179.898 117.836 179.898 117.996C180.858 120.236 181.978 122.316 183.098 124.236C183.258 124.556 183.258 124.716 183.418 124.876C183.898 125.836 184.378 126.636 185.018 127.436C185.018 127.596 185.178 127.596 185.178 127.756C185.498 128.236 185.818 128.556 186.138 129.036C186.458 129.516 186.778 129.996 187.098 130.476C187.258 130.476 187.258 130.636 187.418 130.796C187.898 131.436 188.538 132.236 189.177 132.876C189.338 133.036 189.498 133.196 189.658 133.356C190.298 134.156 191.098 134.956 191.738 135.596C192.218 135.916 192.698 136.236 193.178 136.716C195.738 138.796 198.458 140.396 201.498 141.516C203.098 141.996 204.858 142.476 206.618 142.796V79.7558ZM354.835 108.556C363.155 124.556 366.515 143.756 367.955 157.676H349.235C349.235 157.516 349.235 157.356 349.235 157.036C348.755 153.036 348.115 148.876 347.315 144.396C346.515 140.236 345.555 135.916 344.275 131.756C344.275 131.596 344.115 131.436 344.115 131.276C344.115 131.116 344.115 131.116 344.115 131.116C343.635 129.676 343.155 128.236 342.675 126.796C342.355 125.676 341.875 124.556 341.555 123.276C341.395 123.276 341.395 123.116 341.395 122.956C340.915 121.996 340.595 120.876 340.115 119.916C339.955 119.756 339.955 119.596 339.955 119.436C338.995 117.356 337.875 115.276 336.755 113.196C336.595 113.036 336.595 112.876 336.435 112.716C335.955 111.756 335.475 110.956 334.835 109.996L334.675 109.836C334.355 109.356 334.035 108.876 333.715 108.556C333.395 108.076 333.075 107.596 332.755 107.116C332.595 106.956 332.595 106.956 332.435 106.796C331.955 105.996 331.315 105.356 330.675 104.716C330.515 104.556 330.355 104.396 330.195 104.236C329.555 103.436 328.755 102.636 328.115 101.996C327.635 101.676 327.155 101.196 326.675 100.876C324.115 98.7958 321.395 97.1958 318.355 96.0758C316.755 95.5958 314.995 95.1158 313.235 94.7958V114.796C319.475 129.356 322.195 145.516 323.475 157.676H304.755C304.755 157.516 304.755 157.356 304.755 157.036C304.275 153.036 303.635 148.876 302.835 144.396C302.035 140.236 301.075 135.916 299.795 131.756C299.795 131.596 299.635 131.436 299.635 131.276C299.635 131.116 299.635 131.116 299.635 131.116C299.155 129.676 298.835 128.236 298.355 126.796C297.875 125.676 297.395 124.556 297.075 123.276C296.915 123.276 296.915 123.116 296.915 122.956C296.435 121.996 296.115 120.876 295.635 119.916C295.635 119.756 295.475 119.596 295.475 119.436C294.835 118.156 294.195 116.716 293.395 115.436C293.075 114.636 292.755 113.996 292.275 113.196C292.275 113.036 292.115 112.876 291.955 112.716C291.475 111.756 290.995 110.956 290.355 109.996L290.195 109.836C289.875 109.356 289.555 108.876 289.235 108.556C288.915 108.076 288.595 107.596 288.275 107.116C288.275 106.956 288.115 106.956 287.955 106.796C287.475 105.996 286.835 105.356 286.195 104.716C286.035 104.556 285.875 104.396 285.715 104.236C285.075 103.436 284.275 102.636 283.635 101.996C283.155 101.676 282.675 101.196 282.195 100.876C279.635 98.7958 276.915 97.1958 273.875 96.0758C272.275 95.5958 270.515 95.1158 268.755 94.7958V157.676H249.075V79.2758L268.755 79.4358C270.195 79.5958 271.475 79.7558 272.755 80.0758C272.915 80.0758 272.915 80.0758 272.915 80.0758C273.235 80.0758 273.555 80.2358 273.875 80.2358C281.075 81.6758 287.635 83.5958 293.395 87.7558V79.2758L313.235 79.4358C314.675 79.5958 315.955 79.7558 317.235 80.0758C317.395 80.0758 317.395 80.0758 317.395 80.0758C317.715 80.0758 318.035 80.2358 318.355 80.2358C326.995 81.9958 334.675 84.3958 341.235 90.4758C342.355 91.4358 343.315 92.3958 344.275 93.3558C344.755 93.8358 345.235 94.3158 345.715 94.7958C346.835 96.2358 348.115 97.6758 349.235 99.2758C351.315 102.156 353.075 105.196 354.835 108.556ZM440.536 100.236C454.776 115.276 453.976 140.876 453.976 141.676V157.196H384.696V42.9558H404.536V84.3958C419.736 85.8358 431.736 91.1158 440.536 100.236ZM404.536 140.236H437.016C437.016 137.196 436.536 120.556 428.056 111.916C422.616 106.156 414.616 102.636 404.536 101.356V140.236ZM537.145 112.236C537.625 114.956 537.785 117.356 537.785 119.596V158.156H468.505V141.036C468.505 140.876 468.505 140.716 468.505 140.716C472.505 129.996 477.945 120.076 485.305 112.556C490.425 107.276 496.185 103.436 502.425 101.196C496.025 99.7558 487.865 99.5958 478.105 100.876L475.865 82.4758C499.865 79.4358 517.465 83.4358 528.025 94.3158C529.145 95.5958 530.265 97.0358 531.225 98.3158C532.345 99.9158 533.305 101.356 533.945 102.956C534.745 104.556 535.385 106.156 535.865 107.596C536.345 109.196 536.825 110.796 537.145 112.236ZM517.945 141.356V116.876C510.425 117.036 504.025 119.916 498.585 125.516C496.185 127.756 494.105 130.636 492.345 133.676C490.905 135.916 489.785 138.156 488.665 140.716C488.505 140.876 488.345 141.036 488.345 141.356H517.945ZM606.77 44.0758C633.33 44.0758 655.09 69.6758 655.09 100.876C655.09 132.236 633.33 157.676 606.77 157.676C580.05 157.676 558.45 132.236 558.45 100.876C558.45 69.6758 580.05 44.0758 606.77 44.0758ZM606.77 139.116C623.09 139.116 636.53 121.996 636.53 100.876C636.53 79.9158 623.09 62.6358 606.77 62.6358C590.29 62.6358 577.01 79.9158 577.01 100.876C577.01 121.996 590.29 139.116 606.77 139.116ZM669.194 45.0358H705.834V156.396H685.994V61.9958H669.194V45.0358Z" fill="url(#paint2_linear_5_9)"/>
<defs>
<linearGradient id="paint0_linear_5_9" x1="48" y1="103.137" x2="721" y2="103.137" gradientUnits="userSpaceOnUse">
<stop stop-color="#260DFF"/>
<stop offset="1" stop-color="#FFCAD9"/>
</linearGradient>
<linearGradient id="paint1_linear_5_9" x1="44" y1="100.573" x2="717" y2="100.573" gradientUnits="userSpaceOnUse">
<stop stop-color="#290159"/>
<stop offset="1" stop-color="#260DFF"/>
</linearGradient>
<linearGradient id="paint2_linear_5_9" x1="382" y1="96.7269" x2="382" y2="140.74" gradientUnits="userSpaceOnUse">
<stop stop-color="white"/>
<stop offset="1" stop-color="#CDCDCD"/>
</linearGradient>
</defs>
</svg>
