<svg width="548" height="109" viewBox="0 0 548 109" fill="none" xmlns="http://www.w3.org/2000/svg">
<g filter="url(#filter0_ddd_226_7)">
<path d="M10.125 10.125H23.3125V46.1875H69.375V10.125H82.5V99H69.375V59.3125H23.3125V99H10.125V10.125ZM98.75 34.25H111.938V75.4375C111.938 78.3542 112.938 80.8333 114.938 82.875C116.938 84.9167 119.333 85.9375 122.125 85.9375H145.062V34.25H158.25V85.875C158.25 89.5 156.958 92.6042 154.375 95.1875C151.792 97.7292 148.646 99 144.938 99H122.125C117.833 99 113.917 97.9583 110.375 95.875C106.833 93.75 104 90.9167 101.875 87.375C99.7917 83.8333 98.75 79.9167 98.75 75.625V34.25ZM173.25 47.4375C173.25 43.8125 174.542 40.7083 177.125 38.125C179.708 35.5417 182.833 34.25 186.5 34.25H206.25C211.583 34.25 215.958 35.9167 219.375 39.25C222.708 35.9167 227.083 34.25 232.5 34.25H242.25C246.542 34.25 250.458 35.3125 254 37.4375C257.542 39.5208 260.354 42.3333 262.438 45.875C264.562 49.375 265.625 53.2708 265.625 57.5625V99H252.5V57.75C252.5 54.875 251.5 52.4375 249.5 50.4375C247.5 48.3958 245.083 47.375 242.25 47.375H232.5C230.667 47.375 229.104 47.9583 227.812 49.125C226.521 50.25 225.875 51.625 225.875 53.25V99H212.688V53.25C212.688 51.625 212.062 50.25 210.812 49.125C209.562 47.9583 208.042 47.375 206.25 47.375H186.438V99H173.25V47.4375ZM280 10.125H293.188V85.8125H316.125C318.958 85.8125 321.354 84.8125 323.312 82.8125C325.312 80.8125 326.312 78.4167 326.312 75.625V57.75C326.312 54.9167 325.312 52.5 323.312 50.5C321.354 48.4583 318.958 47.4375 316.125 47.4375H300.688V34.25H316.125C320.417 34.25 324.333 35.3125 327.875 37.4375C331.417 39.5208 334.229 42.3333 336.312 45.875C338.438 49.4167 339.5 53.3333 339.5 57.625V75.75C339.5 80 338.438 83.8958 336.312 87.4375C334.229 90.9375 331.417 93.75 327.875 95.875C324.333 97.9583 320.417 99 316.125 99H293.188C289.562 99 286.458 97.7083 283.875 95.125C281.292 92.5417 280 89.4375 280 85.8125V10.125ZM353.875 57.5C353.875 53.2083 354.917 49.3125 357 45.8125C359.125 42.3125 361.958 39.5208 365.5 37.4375C369.042 35.3125 372.958 34.25 377.25 34.25H413.375V99H400.188V47.4375H377.25C374.458 47.4375 372.062 48.4375 370.062 50.4375C368.062 52.3958 367.062 54.7917 367.062 57.625V75.5C367.062 78.3333 368.062 80.7708 370.062 82.8125C372.062 84.8125 374.458 85.8125 377.25 85.8125H392.688V99H377.25C372.958 99 369.042 97.9583 365.5 95.875C361.958 93.75 359.125 90.9167 357 87.375C354.917 83.8333 353.875 79.9167 353.875 75.625V57.5ZM428.375 35.125C428.375 30.5 429.5 26.3125 431.75 22.5625C434.042 18.7708 437.083 15.75 440.875 13.5C444.708 11.25 448.938 10.125 453.562 10.125H470.812C475.688 10.125 480.125 11.25 484.125 13.5C488.167 15.75 491.375 18.7708 493.75 22.5625C496.125 26.3125 497.312 30.5 497.312 35.125V74.125C497.312 78.7083 496.125 82.8958 493.75 86.6875C491.375 90.4375 488.188 93.4375 484.188 95.6875C480.229 97.8958 475.812 99 470.938 99H454.875C450 99 445.562 97.8958 441.562 95.6875C437.562 93.4375 434.354 90.4375 431.938 86.6875C429.562 82.8958 428.375 78.7083 428.375 74.125V35.125ZM441.562 74.125C441.562 77.3333 442.854 80.0833 445.438 82.375C448.062 84.6667 451.208 85.8125 454.875 85.8125H470.938C474.604 85.8125 477.729 84.6667 480.312 82.375C482.896 80.0833 484.188 77.3333 484.188 74.125V35.125C484.188 31.8333 482.875 29.0417 480.25 26.75C477.667 24.4167 474.521 23.25 470.812 23.25H453.562C450.271 23.25 447.438 24.4167 445.062 26.75C442.729 29.0417 441.562 31.8333 441.562 35.125V74.125ZM509.25 10.125H537.812V99H524.688V23.25H509.25V10.125Z" fill="url(#paint0_linear_226_7)"/>
</g>
<defs>
<filter id="filter0_ddd_226_7" x="0.125" y="0.125" width="547.688" height="108.875" filterUnits="userSpaceOnUse" color-interpolation-filters="sRGB">
<feFlood flood-opacity="0" result="BackgroundImageFix"/>
<feColorMatrix in="SourceAlpha" type="matrix" values="0 0 0 0 0 0 0 0 0 0 0 0 0 0 0 0 0 0 127 0" result="hardAlpha"/>
<feOffset/>
<feGaussianBlur stdDeviation="5"/>
<feComposite in2="hardAlpha" operator="out"/>
<feColorMatrix type="matrix" values="0 0 0 0 0 0 0 0 0 0 0 0 0 0 0 0 0 0 1 0"/>
<feBlend mode="normal" in2="BackgroundImageFix" result="effect1_dropShadow_226_7"/>
<feColorMatrix in="SourceAlpha" type="matrix" values="0 0 0 0 0 0 0 0 0 0 0 0 0 0 0 0 0 0 127 0" result="hardAlpha"/>
<feOffset dx="3" dy="3"/>
<feComposite in2="hardAlpha" operator="out"/>
<feColorMatrix type="matrix" values="0 0 0 0 0 0 0 0 0 0 0 0 0 0 0 0 0 0 1 0"/>
<feBlend mode="normal" in2="effect1_dropShadow_226_7" result="effect2_dropShadow_226_7"/>
<feColorMatrix in="SourceAlpha" type="matrix" values="0 0 0 0 0 0 0 0 0 0 0 0 0 0 0 0 0 0 127 0" result="hardAlpha"/>
<feOffset dx="-3" dy="-3"/>
<feComposite in2="hardAlpha" operator="out"/>
<feColorMatrix type="matrix" values="0 0 0 0 1 0 0 0 0 1 0 0 0 0 1 0 0 0 1 0"/>
<feBlend mode="normal" in2="effect2_dropShadow_226_7" result="effect3_dropShadow_226_7"/>
<feBlend mode="normal" in="SourceGraphic" in2="effect3_dropShadow_226_7" result="shape"/>
</filter>
<linearGradient id="paint0_linear_226_7" x1="-22.5" y1="-6.50001" x2="633.316" y2="160.568" gradientUnits="userSpaceOnUse">
<stop stop-color="#001D85"/>
<stop offset="0.41" stop-color="#7B00FF"/>
<stop offset="1" stop-color="#FF8AE2"/>
</linearGradient>
</defs>
</svg>
