<svg width="179" height="80" viewBox="0 0 179 80" fill="none" xmlns="http://www.w3.org/2000/svg">
<path d="M148.75 23.9893C150.761 22.8283 153.239 22.8283 155.25 23.9893L172.9 34.1807C174.911 35.3418 176.15 37.4873 176.15 39.8096V60.1904C176.15 62.5127 174.911 64.6582 172.9 65.8193L155.25 76.0107C153.239 77.1717 150.761 77.1717 148.75 76.0107L131.1 65.8193C129.089 64.6582 127.85 62.5127 127.85 60.1904V39.8096C127.85 37.4873 129.089 35.3418 131.1 34.1807L148.75 23.9893Z" fill="black" stroke="#050505" stroke-width="5"/>
<path d="M123.75 23.9893C125.761 22.8283 128.239 22.8283 130.25 23.9893L147.9 34.1807C149.911 35.3418 151.15 37.4873 151.15 39.8096V60.1904C151.15 62.5127 149.911 64.6582 147.9 65.8193L130.25 76.0107C128.239 77.1717 125.761 77.1717 123.75 76.0107L106.1 65.8193C104.089 64.6582 102.85 62.5127 102.85 60.1904V39.8096C102.85 37.4873 104.089 35.3418 106.1 34.1807L123.75 23.9893Z" fill="#EB2763" stroke="#E5205C" stroke-width="5"/>
<path d="M98.75 23.9893C100.761 22.8283 103.239 22.8283 105.25 23.9893L122.9 34.1807C124.911 35.3418 126.15 37.4873 126.15 39.8096V60.1904C126.15 62.5127 124.911 64.6582 122.9 65.8193L105.25 76.0107C103.239 77.1717 100.761 77.1717 98.75 76.0107L81.0996 65.8193C79.0885 64.6582 77.8496 62.5127 77.8496 60.1904V39.8096C77.8496 37.4873 79.0885 35.3418 81.0996 34.1807L98.75 23.9893Z" fill="#EB2763" stroke="#E5205C" stroke-width="5"/>
<path d="M73.75 23.9893C75.761 22.8283 78.239 22.8283 80.25 23.9893L97.9004 34.1807C99.9115 35.3418 101.15 37.4873 101.15 39.8096V60.1904C101.15 62.5127 99.9115 64.6582 97.9004 65.8193L80.25 76.0107C78.239 77.1717 75.761 77.1717 73.75 76.0107L56.0996 65.8193C54.0885 64.6582 52.8496 62.5127 52.8496 60.1904V39.8096C52.8496 37.4873 54.0885 35.3418 56.0996 34.1807L73.75 23.9893Z" fill="#EB2763" stroke="#E5205C" stroke-width="5"/>
<path d="M48.75 23.9893C50.761 22.8283 53.239 22.8283 55.25 23.9893L72.9004 34.1807C74.9115 35.3418 76.1504 37.4873 76.1504 39.8096V60.1904C76.1504 62.5127 74.9115 64.6582 72.9004 65.8193L55.25 76.0107C53.239 77.1717 50.761 77.1717 48.75 76.0107L31.0996 65.8193C29.0885 64.6582 27.8496 62.5127 27.8496 60.1904V39.8096C27.8496 37.4873 29.0885 35.3418 31.0996 34.1807L48.75 23.9893Z" fill="#EB2763" stroke="#E5205C" stroke-width="5"/>
<path d="M23.75 23.9893C25.761 22.8283 28.239 22.8283 30.25 23.9893L47.9004 34.1807C49.9115 35.3418 51.1504 37.4873 51.1504 39.8096V60.1904C51.1504 62.5127 49.9115 64.6582 47.9004 65.8193L30.25 76.0107C28.239 77.1717 25.761 77.1717 23.75 76.0107L6.09961 65.8193C4.0885 64.6582 2.84961 62.5127 2.84961 60.1904V39.8096C2.84961 37.4873 4.0885 35.3418 6.09961 34.1807L23.75 23.9893Z" fill="#EB2763" stroke="#E5205C" stroke-width="5"/>
<path d="M72.216 15V3.32H75.192V15H72.216ZM80.2463 15.064V12.28H82.1663C82.6676 12.28 83.1156 12.2107 83.5103 12.072C83.9156 11.9227 84.2569 11.7147 84.5343 11.448C84.8116 11.1707 85.0249 10.84 85.1743 10.456C85.3236 10.0613 85.3983 9.61867 85.3983 9.128C85.3983 8.616 85.3236 8.168 85.1743 7.784C85.0249 7.38933 84.8116 7.064 84.5343 6.808C84.2569 6.54133 83.9156 6.344 83.5103 6.216C83.1156 6.07733 82.6676 6.008 82.1663 6.008H80.2463V3.224H82.0383C83.0943 3.224 84.0169 3.37333 84.8063 3.672C85.6063 3.97067 86.2729 4.38667 86.8063 4.92C87.3396 5.44267 87.7396 6.05067 88.0063 6.744C88.2729 7.43733 88.4063 8.17333 88.4063 8.952V9.304C88.4063 10.0187 88.2729 10.7227 88.0063 11.416C87.7396 12.0987 87.3396 12.7173 86.8063 13.272C86.2729 13.816 85.6063 14.2533 84.8063 14.584C84.0169 14.904 83.0943 15.064 82.0383 15.064H80.2463ZM77.5903 15.064V3.224H80.5663V15.064H77.5903ZM90.0434 15V3.32H92.9234V15H90.0434ZM92.6034 15V12.568H97.5314V15H92.6034ZM92.6034 10.28V7.848H97.1954V10.28H92.6034ZM92.6034 5.752V3.32H97.4354V5.752H92.6034ZM102.732 15.288C101.452 15.288 100.444 15.0267 99.7079 14.504C98.9719 13.9707 98.5772 13.224 98.5239 12.264H101.084C101.127 12.5307 101.292 12.76 101.58 12.952C101.868 13.144 102.273 13.24 102.796 13.24C103.169 13.24 103.489 13.1867 103.756 13.08C104.033 12.9627 104.172 12.776 104.172 12.52C104.172 12.296 104.065 12.1147 103.852 11.976C103.639 11.8267 103.249 11.7253 102.684 11.672L102.076 11.608C100.945 11.4907 100.113 11.1813 99.5799 10.68C99.0465 10.1787 98.7799 9.54933 98.7799 8.792C98.7799 8.14133 98.9399 7.608 99.2599 7.192C99.5799 6.76533 100.023 6.44533 100.588 6.232C101.153 6.01867 101.799 5.912 102.524 5.912C103.708 5.912 104.663 6.17333 105.388 6.696C106.113 7.208 106.497 7.94933 106.54 8.92H103.98C103.937 8.65333 103.793 8.42933 103.548 8.248C103.303 8.056 102.951 7.96 102.492 7.96C102.161 7.96 101.889 8.01867 101.676 8.136C101.473 8.25333 101.372 8.41867 101.372 8.632C101.372 8.856 101.468 9.02133 101.66 9.128C101.863 9.23467 102.183 9.31467 102.62 9.368L103.228 9.432C104.359 9.54933 105.228 9.864 105.836 10.376C106.455 10.8773 106.764 11.5387 106.764 12.36C106.764 12.968 106.599 13.4907 106.268 13.928C105.948 14.3653 105.484 14.7013 104.876 14.936C104.279 15.1707 103.564 15.288 102.732 15.288Z" fill="white"/>
</svg>
