<svg width="6000" height="952" viewBox="0 0 6000 952" fill="none" xmlns="http://www.w3.org/2000/svg">
<path d="M1148.4 616H938.834V335.922H1033.76V546.078C1036.36 540.74 1042.74 538.07 1052.9 538.07H1148.4V616ZM1233.56 620.883C1223.01 620.883 1213.18 619.581 1204.07 616.977C1195.08 614.372 1186.95 610.466 1179.65 605.258C1172.36 600.049 1166.63 593.018 1162.47 584.164C1158.3 575.18 1156.22 564.828 1156.22 553.109C1156.22 541.391 1158.5 530.909 1163.05 521.664C1167.74 512.419 1173.79 504.932 1181.22 499.203C1188.64 493.474 1197.49 488.721 1207.78 484.945C1218.2 481.169 1228.68 478.565 1239.22 477.133C1249.77 475.57 1260.9 474.789 1272.62 474.789C1286.95 474.789 1300.68 475.831 1313.83 477.914V474.398C1307.97 462.68 1292.09 456.82 1266.18 456.82C1252.12 456.82 1237.66 459.359 1222.82 464.438C1208.1 469.385 1195.41 475.766 1184.73 483.578H1179.46V392.758C1192.35 386.638 1207.45 381.56 1224.77 377.523C1242.22 373.357 1260.19 371.273 1278.68 371.273C1317.87 371.273 1348.93 381.755 1371.84 402.719C1394.76 423.552 1406.22 451.547 1406.22 486.703V616H1315.4V608.383L1327.12 510.727H1322.62C1321.45 547.706 1313.12 575.31 1297.62 593.539C1282.13 611.768 1260.77 620.883 1233.56 620.883ZM1266.57 554.086C1278.03 554.086 1287.27 549.984 1294.3 541.781C1301.46 533.448 1305.57 522.966 1306.61 510.336H1289.03C1272.75 510.336 1261.1 512.875 1254.07 517.953C1247.04 523.031 1243.52 529.151 1243.52 536.312C1243.52 542.042 1245.74 546.469 1250.16 549.594C1254.59 552.589 1260.06 554.086 1266.57 554.086ZM1515.98 616H1422.43V375.961H1517.15L1502.12 512.484H1506.02C1511.49 460.271 1520.67 423.682 1533.56 402.719C1546.58 381.755 1567.02 371.273 1594.89 371.273C1618.72 371.273 1637.01 379.802 1649.77 396.859C1662.53 413.917 1668.91 441.391 1668.91 479.281V616H1575.16V530.844C1575.16 524.594 1575.1 519.451 1574.97 515.414C1574.84 511.247 1574.51 506.56 1573.99 501.352C1573.47 496.013 1572.62 491.716 1571.45 488.461C1570.41 485.076 1568.98 481.82 1567.15 478.695C1565.33 475.57 1562.92 473.292 1559.93 471.859C1556.93 470.297 1553.48 469.516 1549.58 469.516C1544.63 469.516 1540.27 470.492 1536.49 472.445C1532.84 474.398 1529.78 477.523 1527.31 481.82C1524.84 485.987 1522.82 490.609 1521.26 495.688C1519.82 500.766 1518.72 507.341 1517.94 515.414C1517.15 523.357 1516.63 531.104 1516.37 538.656C1516.11 546.208 1515.98 555.453 1515.98 566.391V616ZM1810.9 680.844C1788.77 680.844 1769.43 679.151 1752.9 675.766C1736.49 672.38 1723.53 667.693 1714.03 661.703C1704.65 655.714 1697.69 649.008 1693.13 641.586C1688.7 634.164 1686.49 626.026 1686.49 617.172C1686.49 604.542 1691.31 594.646 1700.94 587.484C1710.58 580.323 1724.32 576.742 1742.15 576.742V573.227C1699.97 573.227 1678.87 561.898 1678.87 539.242C1678.87 528.044 1684.34 519.711 1695.28 514.242C1706.35 508.773 1721.45 506.039 1740.59 506.039C1751.92 506.039 1764.81 507.341 1779.26 509.945L1779.65 505.648C1765.98 505.128 1753.74 503.565 1742.94 500.961C1732.26 498.357 1723.53 495.102 1716.76 491.195C1709.99 487.289 1704.39 482.667 1699.97 477.328C1695.54 471.99 1692.41 466.586 1690.59 461.117C1688.9 455.518 1688.05 449.529 1688.05 443.148C1688.05 422.185 1698.34 404.997 1718.91 391.586C1739.49 378.044 1767.74 371.273 1803.68 371.273C1823.6 371.273 1843.13 374.789 1862.27 381.82C1881.54 388.721 1898.27 399.724 1912.47 414.828L1914.62 412.484C1908.76 402.719 1900.29 393.995 1889.22 386.312C1878.29 378.63 1866.11 372.51 1852.7 367.953C1839.29 363.266 1825.88 359.62 1812.47 357.016C1799.06 354.411 1785.71 352.719 1772.43 351.938V343.93L1866.18 311.117C1885.97 325.44 1901.53 343.148 1912.86 364.242C1924.32 385.206 1930.04 405.258 1930.04 424.398C1930.04 456.951 1919.56 481.495 1898.6 498.031C1877.77 514.568 1847.49 522.836 1807.78 522.836C1797.36 522.836 1787.21 522.706 1777.31 522.445C1767.41 522.185 1762.08 522.055 1761.29 522.055C1754.39 522.055 1749.32 522.641 1746.06 523.812C1742.94 524.984 1741.37 527.198 1741.37 530.453C1741.37 533.188 1742.81 535.01 1745.67 535.922C1748.53 536.833 1752.57 537.289 1757.78 537.289C1764.55 537.289 1780.89 535.076 1806.8 530.648C1832.84 526.221 1853.94 524.008 1870.08 524.008C1881.67 524.008 1891.83 525.57 1900.55 528.695C1909.41 531.69 1916.31 535.466 1921.26 540.023C1926.2 544.581 1930.18 550.115 1933.17 556.625C1936.16 563.005 1938.12 568.995 1939.03 574.594C1940.07 580.193 1940.59 586.117 1940.59 592.367C1940.59 599.268 1939.81 605.974 1938.25 612.484C1936.69 618.865 1934.15 625.505 1930.63 632.406C1927.12 639.307 1922.04 645.557 1915.4 651.156C1908.89 656.755 1901.01 661.833 1891.76 666.391C1882.65 670.948 1871.19 674.464 1857.39 676.938C1843.59 679.542 1828.09 680.844 1810.9 680.844ZM1806.22 476.742C1815.2 476.742 1822.23 475.115 1827.31 471.859C1832.39 468.474 1834.93 464.242 1834.93 459.164C1834.93 453.695 1832.39 449.333 1827.31 446.078C1822.23 442.823 1815.2 441.195 1806.22 441.195C1796.97 441.195 1789.81 442.823 1784.73 446.078C1779.78 449.333 1777.31 453.695 1777.31 459.164C1777.31 464.372 1779.85 468.604 1784.93 471.859C1790.01 475.115 1797.1 476.742 1806.22 476.742ZM1810.51 598.812C1826.14 598.812 1839.09 597.185 1849.38 593.93C1859.8 590.674 1865.01 585.466 1865.01 578.305C1865.01 569.32 1854.2 564.828 1832.58 564.828C1822.17 564.828 1806.8 566.065 1786.49 568.539C1766.18 571.013 1754.2 572.315 1750.55 572.445C1750.55 590.023 1770.54 598.812 1810.51 598.812ZM2017.94 620.883C1994.11 620.883 1975.81 612.354 1963.05 595.297C1950.29 578.24 1943.91 550.766 1943.91 512.875V375.961H2037.47V461.117C2037.47 467.497 2037.53 472.771 2037.66 476.938C2037.79 481.104 2038.12 485.857 2038.64 491.195C2039.29 496.404 2040.2 500.701 2041.37 504.086C2042.68 507.341 2044.3 510.531 2046.26 513.656C2048.34 516.651 2051.01 518.865 2054.26 520.297C2057.52 521.729 2061.29 522.445 2065.59 522.445C2069.24 522.445 2072.36 522.055 2074.97 521.273C2077.57 520.362 2080.31 518.344 2083.17 515.219C2086.16 511.964 2088.51 507.536 2090.2 501.938C2092.02 496.339 2093.52 488.526 2094.69 478.5C2096 468.344 2096.65 456.169 2096.65 441.977V375.961H2190.4V616H2095.47L2110.71 479.672H2106.61C2103.87 506.104 2100.36 528.044 2096.06 545.492C2091.89 562.94 2086.29 577.458 2079.26 589.047C2072.23 600.505 2063.77 608.708 2053.87 613.656C2044.11 618.474 2032.13 620.883 2017.94 620.883ZM2277.7 620.883C2267.15 620.883 2257.32 619.581 2248.21 616.977C2239.22 614.372 2231.09 610.466 2223.79 605.258C2216.5 600.049 2210.77 593.018 2206.61 584.164C2202.44 575.18 2200.36 564.828 2200.36 553.109C2200.36 541.391 2202.64 530.909 2207.19 521.664C2211.88 512.419 2217.94 504.932 2225.36 499.203C2232.78 493.474 2241.63 488.721 2251.92 484.945C2262.34 481.169 2272.82 478.565 2283.37 477.133C2293.91 475.57 2305.04 474.789 2316.76 474.789C2331.09 474.789 2344.82 475.831 2357.97 477.914V474.398C2352.12 462.68 2336.23 456.82 2310.32 456.82C2296.26 456.82 2281.8 459.359 2266.96 464.438C2252.25 469.385 2239.55 475.766 2228.87 483.578H2223.6V392.758C2236.49 386.638 2251.59 381.56 2268.91 377.523C2286.36 373.357 2304.33 371.273 2322.82 371.273C2362.01 371.273 2393.07 381.755 2415.98 402.719C2438.9 423.552 2450.36 451.547 2450.36 486.703V616H2359.54V608.383L2371.26 510.727H2366.76C2365.59 547.706 2357.26 575.31 2341.76 593.539C2326.27 611.768 2304.91 620.883 2277.7 620.883ZM2310.71 554.086C2322.17 554.086 2331.41 549.984 2338.44 541.781C2345.6 533.448 2349.71 522.966 2350.75 510.336H2333.17C2316.89 510.336 2305.24 512.875 2298.21 517.953C2291.18 523.031 2287.66 529.151 2287.66 536.312C2287.66 542.042 2289.88 546.469 2294.3 549.594C2298.73 552.589 2304.2 554.086 2310.71 554.086ZM2592.54 680.844C2570.41 680.844 2551.07 679.151 2534.54 675.766C2518.13 672.38 2505.18 667.693 2495.67 661.703C2486.29 655.714 2479.33 649.008 2474.77 641.586C2470.34 634.164 2468.13 626.026 2468.13 617.172C2468.13 604.542 2472.95 594.646 2482.58 587.484C2492.22 580.323 2505.96 576.742 2523.79 576.742V573.227C2481.61 573.227 2460.51 561.898 2460.51 539.242C2460.51 528.044 2465.98 519.711 2476.92 514.242C2487.99 508.773 2503.09 506.039 2522.23 506.039C2533.56 506.039 2546.45 507.341 2560.9 509.945L2561.29 505.648C2547.62 505.128 2535.38 503.565 2524.58 500.961C2513.9 498.357 2505.18 495.102 2498.4 491.195C2491.63 487.289 2486.03 482.667 2481.61 477.328C2477.18 471.99 2474.06 466.586 2472.23 461.117C2470.54 455.518 2469.69 449.529 2469.69 443.148C2469.69 422.185 2479.98 404.997 2500.55 391.586C2521.13 378.044 2549.38 371.273 2585.32 371.273C2605.24 371.273 2624.77 374.789 2643.91 381.82C2663.18 388.721 2679.91 399.724 2694.11 414.828L2696.26 412.484C2690.4 402.719 2681.93 393.995 2670.87 386.312C2659.93 378.63 2647.75 372.51 2634.34 367.953C2620.93 363.266 2607.52 359.62 2594.11 357.016C2580.7 354.411 2567.35 352.719 2554.07 351.938V343.93L2647.82 311.117C2667.61 325.44 2683.17 343.148 2694.5 364.242C2705.96 385.206 2711.69 405.258 2711.69 424.398C2711.69 456.951 2701.2 481.495 2680.24 498.031C2659.41 514.568 2629.13 522.836 2589.42 522.836C2579 522.836 2568.85 522.706 2558.95 522.445C2549.06 522.185 2543.72 522.055 2542.94 522.055C2536.03 522.055 2530.96 522.641 2527.7 523.812C2524.58 524.984 2523.01 527.198 2523.01 530.453C2523.01 533.188 2524.45 535.01 2527.31 535.922C2530.18 536.833 2534.21 537.289 2539.42 537.289C2546.19 537.289 2562.53 535.076 2588.44 530.648C2614.49 526.221 2635.58 524.008 2651.72 524.008C2663.31 524.008 2673.47 525.57 2682.19 528.695C2691.05 531.69 2697.95 535.466 2702.9 540.023C2707.84 544.581 2711.82 550.115 2714.81 556.625C2717.81 563.005 2719.76 568.995 2720.67 574.594C2721.71 580.193 2722.23 586.117 2722.23 592.367C2722.23 599.268 2721.45 605.974 2719.89 612.484C2718.33 618.865 2715.79 625.505 2712.27 632.406C2708.76 639.307 2703.68 645.557 2697.04 651.156C2690.53 656.755 2682.65 661.833 2673.4 666.391C2664.29 670.948 2652.83 674.464 2639.03 676.938C2625.23 679.542 2609.73 680.844 2592.54 680.844ZM2587.86 476.742C2596.84 476.742 2603.87 475.115 2608.95 471.859C2614.03 468.474 2616.57 464.242 2616.57 459.164C2616.57 453.695 2614.03 449.333 2608.95 446.078C2603.87 442.823 2596.84 441.195 2587.86 441.195C2578.61 441.195 2571.45 442.823 2566.37 446.078C2561.43 449.333 2558.95 453.695 2558.95 459.164C2558.95 464.372 2561.49 468.604 2566.57 471.859C2571.65 475.115 2578.74 476.742 2587.86 476.742ZM2592.15 598.812C2607.78 598.812 2620.74 597.185 2631.02 593.93C2641.44 590.674 2646.65 585.466 2646.65 578.305C2646.65 569.32 2635.84 564.828 2614.22 564.828C2603.81 564.828 2588.44 566.065 2568.13 568.539C2547.82 571.013 2535.84 572.315 2532.19 572.445C2532.19 590.023 2552.18 598.812 2592.15 598.812ZM2848.6 620.883C2828.55 620.883 2809.99 617.693 2792.94 611.312C2775.88 604.802 2761.56 595.948 2749.97 584.75C2738.51 573.552 2729.52 560.271 2723.01 544.906C2716.5 529.542 2713.25 513.135 2713.25 495.688C2713.25 478.63 2716.24 462.484 2722.23 447.25C2728.22 432.016 2736.56 418.799 2747.23 407.602C2757.91 396.404 2771 387.549 2786.49 381.039C2802.12 374.529 2819.04 371.273 2837.27 371.273C2852.64 371.273 2867.09 373.552 2880.63 378.109C2894.3 382.536 2906.35 388.917 2916.76 397.25C2927.18 405.583 2935.38 416.26 2941.37 429.281C2947.49 442.302 2950.55 456.82 2950.55 472.836C2950.55 481.56 2949.51 491.651 2947.43 503.109L2799.38 496.469C2800.81 509.62 2806.8 519.385 2817.35 525.766C2828.03 532.016 2841.37 535.141 2857.39 535.141C2886.56 535.141 2912.14 527.263 2934.15 511.508H2939.42V599.984C2929.39 606.104 2916.44 611.117 2900.55 615.023C2884.67 618.93 2867.35 620.883 2848.6 620.883ZM2802.51 474.789L2870.08 471.273C2868.13 465.284 2864.35 460.596 2858.76 457.211C2853.29 453.695 2846.58 451.938 2838.64 451.938C2830.83 451.938 2823.66 453.891 2817.15 457.797C2810.64 461.573 2805.76 467.237 2802.51 474.789ZM3056.61 620.883C3020.28 620.883 2988.18 613.917 2960.32 599.984V503.109H2966.37C2991.76 528.5 3022.82 541.195 3059.54 541.195C3066.83 541.195 3072.56 540.414 3076.72 538.852C3081.02 537.289 3083.17 535.141 3083.17 532.406C3083.17 530.583 3081.35 529.086 3077.7 527.914C3074.06 526.612 3069.24 525.57 3063.25 524.789C3057.39 524.008 3050.68 522.901 3043.13 521.469C3035.58 519.906 3027.83 518.214 3019.89 516.391C3011.95 514.568 3004.2 511.768 2996.65 507.992C2989.09 504.216 2982.32 499.854 2976.33 494.906C2970.47 489.828 2965.72 483.253 2962.08 475.18C2958.43 467.107 2956.61 457.927 2956.61 447.641C2956.61 435.141 2959.54 423.943 2965.4 414.047C2971.39 404.021 2979.39 395.948 2989.42 389.828C2999.45 383.708 3010.71 379.086 3023.21 375.961C3035.84 372.836 3049.25 371.273 3063.44 371.273C3097.43 371.273 3129.46 379.281 3159.54 395.297V480.453H3154.26C3142.54 470.167 3128.09 461.964 3110.9 455.844C3093.72 449.594 3076.33 446.469 3058.76 446.469C3041.96 446.469 3033.56 449.659 3033.56 456.039C3033.56 458.513 3036.1 460.596 3041.18 462.289C3046.39 463.852 3053.09 465.219 3061.29 466.391C3069.5 467.562 3078.55 468.93 3088.44 470.492C3098.47 472.055 3108.43 474.464 3118.33 477.719C3128.35 480.974 3137.47 484.945 3145.67 489.633C3153.87 494.32 3160.51 500.896 3165.59 509.359C3170.8 517.693 3173.4 527.393 3173.4 538.461C3173.4 557.211 3168.26 572.901 3157.97 585.531C3147.69 598.031 3134.02 607.081 3116.96 612.68C3099.9 618.148 3079.78 620.883 3056.61 620.883Z" fill="#602B74"/>
<rect x="472.592" y="326" width="300" height="300" fill="#602B74"/>
<mask id="mask0_81_239" style="mask-type:alpha" maskUnits="userSpaceOnUse" x="512" y="366" width="221" height="220">
<rect x="512.592" y="366" width="220" height="220" fill="#D9D9D9"/>
</mask>
<g mask="url(#mask0_81_239)">
<path d="M540.779 485.167C540.626 483.639 540.512 482.111 540.435 480.583C540.359 479.056 540.321 477.528 540.321 476C540.321 464.542 542.46 453.809 546.737 443.802C551.015 433.795 556.897 425.087 564.383 417.677C571.869 410.267 580.578 404.385 590.508 400.031C600.439 395.677 611.133 393.5 622.591 393.5C634.05 393.5 644.782 395.677 654.789 400.031C664.796 404.385 673.505 410.267 680.914 417.677C688.324 425.087 694.206 433.795 698.56 443.802C702.914 453.809 705.091 464.542 705.091 476C705.091 477.528 705.053 479.056 704.977 480.583C704.9 482.111 704.786 483.639 704.633 485.167H686.071C686.376 483.639 686.567 482.111 686.644 480.583C686.72 479.056 686.758 477.528 686.758 476C686.758 474.472 686.72 472.944 686.644 471.417C686.567 469.889 686.376 468.361 686.071 466.833H659.029C659.182 468.361 659.258 469.889 659.258 471.417V480.583C659.258 482.111 659.182 483.639 659.029 485.167H640.925V477.604C640.925 475.771 640.887 473.938 640.81 472.104C640.734 470.271 640.619 468.514 640.466 466.833H604.946C604.793 468.514 604.678 470.271 604.602 472.104C604.525 473.938 604.487 475.771 604.487 477.604V485.167H586.383C586.23 483.639 586.154 482.111 586.154 480.583V471.417C586.154 469.889 586.23 468.361 586.383 466.833H559.341C559.036 468.361 558.845 469.889 558.769 471.417C558.692 472.944 558.654 474.472 558.654 476C558.654 477.528 558.692 479.056 558.769 480.583C558.845 482.111 559.036 483.639 559.341 485.167H540.779ZM564.841 448.5H588.446C589.668 441.931 591.196 436.01 593.029 430.74C594.862 425.469 596.848 420.694 598.987 416.417C591.654 419.167 585.008 423.33 579.05 428.906C573.091 434.483 568.355 441.014 564.841 448.5ZM607.466 448.5H637.716C636.189 441.931 634.279 435.514 631.987 429.25C629.696 422.986 626.564 417.181 622.591 411.833C618.619 417.181 615.449 422.986 613.081 429.25C610.713 435.514 608.841 441.931 607.466 448.5ZM656.966 448.5H680.571C677.057 441.014 672.282 434.483 666.248 428.906C660.213 423.33 653.529 419.167 646.196 416.417C648.335 421 650.359 425.851 652.269 430.969C654.178 436.087 655.744 441.931 656.966 448.5ZM613.425 558.5V549.333C613.425 541.694 610.751 535.201 605.404 529.854C600.057 524.507 593.564 521.833 585.925 521.833H530.925V503.5H585.925C593.258 503.5 600.095 505.104 606.435 508.313C612.775 511.521 618.161 516.028 622.591 521.833C627.022 516.028 632.407 511.521 638.748 508.313C645.088 505.104 651.925 503.5 659.258 503.5H714.258V521.833H659.258C651.619 521.833 645.126 524.507 639.779 529.854C634.432 535.201 631.758 541.694 631.758 549.333V558.5H613.425Z" fill="white"/>
</g>
</svg>
