<svg width="4000" height="651" viewBox="0 0 4000 651" fill="none" xmlns="http://www.w3.org/2000/svg">
<rect width="4000" height="651" fill="#2C2C2C" fill-opacity="0.1"/>
<mask id="path-1-outside-1_70_2" maskUnits="userSpaceOnUse" x="450.563" y="194.5" width="820" height="198" fill="black">
<rect fill="white" x="450.563" y="194.5" width="820" height="198"/>
<path d="M466.803 235.7H510.003V372.5H466.803V235.7ZM642.057 226.82V372.5H608.217L604.857 354.02C601.657 360.26 596.937 365.22 590.697 368.9C584.457 372.58 577.417 374.42 569.577 374.42C557.097 374.42 547.097 369.94 539.577 360.98C532.217 352.02 528.537 338.58 528.537 320.66C528.537 307.06 530.137 295.86 533.337 287.06C536.537 278.26 540.297 271.94 544.617 268.1C547.337 265.7 552.857 263.7 561.177 262.1C569.657 260.5 577.177 259.7 583.737 259.7C589.497 259.7 595.417 260.26 601.497 261.38C601.017 253.7 600.777 249.46 600.777 248.66V228.5L642.057 226.82ZM587.577 342.26C591.897 342.26 596.377 341.54 601.017 340.1V288.02C596.377 287.38 591.257 287.06 585.657 287.06C580.857 287.06 577.817 287.46 576.537 288.26C574.777 289.54 573.337 293.22 572.217 299.3C571.257 305.22 570.777 311.46 570.777 318.02C570.777 327.78 572.217 334.26 575.097 337.46C578.137 340.66 582.297 342.26 587.577 342.26ZM683.106 248.42C677.666 248.42 672.946 246.58 668.946 242.9C665.106 239.22 663.186 234.82 663.186 229.7C663.186 224.58 665.106 220.18 668.946 216.5C672.946 212.82 677.666 210.98 683.106 210.98C688.546 210.98 693.186 212.82 697.026 216.5C700.866 220.18 702.786 224.58 702.786 229.7C702.786 234.82 700.866 239.22 697.026 242.9C693.186 246.58 688.546 248.42 683.106 248.42ZM662.466 262.1H703.506V372.5H662.466V262.1ZM777.136 375.62C757.936 375.62 743.536 371.14 733.936 362.18C724.496 353.06 719.776 338.74 719.776 319.22C719.776 308.5 720.736 299.14 722.656 291.14C724.736 282.98 727.216 277.3 730.096 274.1C733.776 269.94 740.496 266.5 750.256 263.78C760.176 261.06 769.456 259.7 778.096 259.7C798.736 259.7 813.456 264.1 822.256 272.9C831.056 281.7 835.456 295.78 835.456 315.14C835.456 335.94 830.736 351.22 821.296 360.98C811.856 370.74 797.136 375.62 777.136 375.62ZM777.856 347.54C784.096 347.54 788.176 345.38 790.096 341.06C792.016 336.58 792.976 328.74 792.976 317.54C792.976 309.7 792.576 303.7 791.776 299.54C790.976 295.22 789.456 292.1 787.216 290.18C785.136 288.1 781.856 287.06 777.376 287.06C770.976 287.06 767.296 287.62 766.336 288.74C765.056 289.86 764.016 293.38 763.216 299.3C762.416 305.22 762.016 311.38 762.016 317.78C762.016 328.66 763.056 336.34 765.136 340.82C767.376 345.3 771.616 347.54 777.856 347.54ZM1023.68 269.78C1026.24 273.62 1027.52 288.5 1027.52 314.42V372.5H986.481V318.5V305.54C986.481 299.62 985.921 296.1 984.801 294.98C983.521 293.7 980.801 293.06 976.641 293.06L973.761 293.3C968.801 293.62 964.081 294.74 959.601 296.66C959.761 300.02 959.841 305.94 959.841 314.42V372.5H918.801V318.5V304.1C918.801 299.14 918.241 296.1 917.121 294.98C915.841 293.7 913.121 293.06 908.961 293.06L906.081 293.3C901.601 293.46 896.961 294.5 892.161 296.42V372.5H851.121V262.1H884.481L888.801 280.1C894.081 273.06 900.161 267.94 907.041 264.74C913.921 261.38 920.881 259.7 927.921 259.7C933.841 259.7 939.441 260.58 944.721 262.34C950.161 264.1 953.921 266.58 956.001 269.78C956.961 271.22 957.761 273.86 958.401 277.7C963.521 271.46 969.361 266.9 975.921 264.02C982.481 261.14 989.041 259.7 995.601 259.7C1001.52 259.7 1007.12 260.58 1012.4 262.34C1017.84 264.1 1021.6 266.58 1023.68 269.78ZM1112.35 372.5L1108.51 357.38C1101.15 369.38 1090.91 375.38 1077.79 375.38C1067.07 375.38 1058.27 372.42 1051.39 366.5C1044.67 360.42 1041.31 351.94 1041.31 341.06C1041.31 334.34 1043.23 328.5 1047.07 323.54C1051.07 318.42 1056.51 314.82 1063.39 312.74C1072.35 310.18 1086.19 308.74 1104.91 308.42C1104.91 297.86 1104.43 292.26 1103.47 291.62C1102.67 290.98 1100.11 290.66 1095.79 290.66C1093.07 290.66 1089.31 290.82 1084.51 291.14C1076.83 291.46 1066.43 292.34 1053.31 293.78C1052.03 285.14 1051.07 275.86 1050.43 265.94C1058.91 264.18 1067.79 262.74 1077.07 261.62C1086.35 260.34 1094.67 259.7 1102.03 259.7C1114.83 259.7 1124.43 261.86 1130.83 266.18C1137.23 270.34 1141.39 275.86 1143.31 282.74C1145.23 289.62 1146.11 298.34 1145.95 308.9L1145.71 344.18L1146.43 372.5H1112.35ZM1091.71 348.5C1095.87 348.5 1100.27 347.7 1104.91 346.1V328.34H1102.99C1091.15 328.34 1084.59 328.98 1083.31 330.26C1082.51 331.06 1081.87 332.26 1081.39 333.86C1081.07 335.46 1080.91 336.98 1080.91 338.42C1080.91 342.26 1081.79 344.9 1083.55 346.34C1085.31 347.78 1088.03 348.5 1091.71 348.5ZM1253.76 335.06C1253.76 349.3 1249.2 359.54 1240.08 365.78C1231.12 372.02 1218.32 375.14 1201.68 375.14C1190 375.14 1176.56 373.46 1161.36 370.1C1161.68 366.9 1162.4 362.34 1163.52 356.42C1164.8 350.34 1165.84 345.7 1166.64 342.5C1172.4 343.46 1178.8 344.26 1185.84 344.9C1192.88 345.38 1198.88 345.62 1203.84 345.62C1208.16 345.62 1210.8 345.38 1211.76 344.9C1211.92 344.74 1212.08 344.34 1212.24 343.7C1212.56 342.9 1212.72 342.1 1212.72 341.3C1212.72 338.1 1210.72 335.94 1206.72 334.82C1205.44 334.5 1200.56 333.14 1192.08 330.74C1183.6 328.34 1176.64 324.02 1171.2 317.78C1165.92 311.38 1163.28 303.46 1163.28 294.02C1163.28 289.06 1164.4 283.54 1166.64 277.46C1168.88 271.38 1171.28 267.54 1173.84 265.94C1175.76 264.66 1180.4 263.38 1187.76 262.1C1195.12 260.66 1201.92 259.94 1208.16 259.94C1221.44 259.94 1234.8 260.9 1248.24 262.82C1248.24 265.7 1247.84 270.58 1247.04 277.46C1246.24 284.18 1245.52 288.42 1244.88 290.18C1231.28 288.42 1220.32 287.54 1212 287.54C1207.68 287.54 1204.88 287.78 1203.6 288.26C1203.28 288.42 1202.96 288.9 1202.64 289.7C1202.32 290.34 1202.16 291.22 1202.16 292.34C1202.16 294.58 1202.88 296.18 1204.32 297.14C1205.76 298.26 1209.52 299.62 1215.6 301.22C1222.8 303.3 1228.96 305.46 1234.08 307.7C1239.36 309.94 1243.92 313.3 1247.76 317.78C1251.76 322.26 1253.76 328.02 1253.76 335.06Z"/>
</mask>
<path d="M466.803 235.7H510.003V372.5H466.803V235.7ZM642.057 226.82V372.5H608.217L604.857 354.02C601.657 360.26 596.937 365.22 590.697 368.9C584.457 372.58 577.417 374.42 569.577 374.42C557.097 374.42 547.097 369.94 539.577 360.98C532.217 352.02 528.537 338.58 528.537 320.66C528.537 307.06 530.137 295.86 533.337 287.06C536.537 278.26 540.297 271.94 544.617 268.1C547.337 265.7 552.857 263.7 561.177 262.1C569.657 260.5 577.177 259.7 583.737 259.7C589.497 259.7 595.417 260.26 601.497 261.38C601.017 253.7 600.777 249.46 600.777 248.66V228.5L642.057 226.82ZM587.577 342.26C591.897 342.26 596.377 341.54 601.017 340.1V288.02C596.377 287.38 591.257 287.06 585.657 287.06C580.857 287.06 577.817 287.46 576.537 288.26C574.777 289.54 573.337 293.22 572.217 299.3C571.257 305.22 570.777 311.46 570.777 318.02C570.777 327.78 572.217 334.26 575.097 337.46C578.137 340.66 582.297 342.26 587.577 342.26ZM683.106 248.42C677.666 248.42 672.946 246.58 668.946 242.9C665.106 239.22 663.186 234.82 663.186 229.7C663.186 224.58 665.106 220.18 668.946 216.5C672.946 212.82 677.666 210.98 683.106 210.98C688.546 210.98 693.186 212.82 697.026 216.5C700.866 220.18 702.786 224.58 702.786 229.7C702.786 234.82 700.866 239.22 697.026 242.9C693.186 246.58 688.546 248.42 683.106 248.42ZM662.466 262.1H703.506V372.5H662.466V262.1ZM777.136 375.62C757.936 375.62 743.536 371.14 733.936 362.18C724.496 353.06 719.776 338.74 719.776 319.22C719.776 308.5 720.736 299.14 722.656 291.14C724.736 282.98 727.216 277.3 730.096 274.1C733.776 269.94 740.496 266.5 750.256 263.78C760.176 261.06 769.456 259.7 778.096 259.7C798.736 259.7 813.456 264.1 822.256 272.9C831.056 281.7 835.456 295.78 835.456 315.14C835.456 335.94 830.736 351.22 821.296 360.98C811.856 370.74 797.136 375.62 777.136 375.62ZM777.856 347.54C784.096 347.54 788.176 345.38 790.096 341.06C792.016 336.58 792.976 328.74 792.976 317.54C792.976 309.7 792.576 303.7 791.776 299.54C790.976 295.22 789.456 292.1 787.216 290.18C785.136 288.1 781.856 287.06 777.376 287.06C770.976 287.06 767.296 287.62 766.336 288.74C765.056 289.86 764.016 293.38 763.216 299.3C762.416 305.22 762.016 311.38 762.016 317.78C762.016 328.66 763.056 336.34 765.136 340.82C767.376 345.3 771.616 347.54 777.856 347.54ZM1023.68 269.78C1026.24 273.62 1027.52 288.5 1027.52 314.42V372.5H986.481V318.5V305.54C986.481 299.62 985.921 296.1 984.801 294.98C983.521 293.7 980.801 293.06 976.641 293.06L973.761 293.3C968.801 293.62 964.081 294.74 959.601 296.66C959.761 300.02 959.841 305.94 959.841 314.42V372.5H918.801V318.5V304.1C918.801 299.14 918.241 296.1 917.121 294.98C915.841 293.7 913.121 293.06 908.961 293.06L906.081 293.3C901.601 293.46 896.961 294.5 892.161 296.42V372.5H851.121V262.1H884.481L888.801 280.1C894.081 273.06 900.161 267.94 907.041 264.74C913.921 261.38 920.881 259.7 927.921 259.7C933.841 259.7 939.441 260.58 944.721 262.34C950.161 264.1 953.921 266.58 956.001 269.78C956.961 271.22 957.761 273.86 958.401 277.7C963.521 271.46 969.361 266.9 975.921 264.02C982.481 261.14 989.041 259.7 995.601 259.7C1001.52 259.7 1007.12 260.58 1012.4 262.34C1017.84 264.1 1021.6 266.58 1023.68 269.78ZM1112.35 372.5L1108.51 357.38C1101.15 369.38 1090.91 375.38 1077.79 375.38C1067.07 375.38 1058.27 372.42 1051.39 366.5C1044.67 360.42 1041.31 351.94 1041.31 341.06C1041.31 334.34 1043.23 328.5 1047.07 323.54C1051.07 318.42 1056.51 314.82 1063.39 312.74C1072.35 310.18 1086.19 308.74 1104.91 308.42C1104.91 297.86 1104.43 292.26 1103.47 291.62C1102.67 290.98 1100.11 290.66 1095.79 290.66C1093.07 290.66 1089.31 290.82 1084.51 291.14C1076.83 291.46 1066.43 292.34 1053.31 293.78C1052.03 285.14 1051.07 275.86 1050.43 265.94C1058.91 264.18 1067.79 262.74 1077.07 261.62C1086.35 260.34 1094.67 259.7 1102.03 259.7C1114.83 259.7 1124.43 261.86 1130.83 266.18C1137.23 270.34 1141.39 275.86 1143.31 282.74C1145.23 289.62 1146.11 298.34 1145.95 308.9L1145.71 344.18L1146.43 372.5H1112.35ZM1091.71 348.5C1095.87 348.5 1100.27 347.7 1104.91 346.1V328.34H1102.99C1091.15 328.34 1084.59 328.98 1083.31 330.26C1082.51 331.06 1081.87 332.26 1081.39 333.86C1081.07 335.46 1080.91 336.98 1080.91 338.42C1080.91 342.26 1081.79 344.9 1083.55 346.34C1085.31 347.78 1088.03 348.5 1091.71 348.5ZM1253.76 335.06C1253.76 349.3 1249.2 359.54 1240.08 365.78C1231.12 372.02 1218.32 375.14 1201.68 375.14C1190 375.14 1176.56 373.46 1161.36 370.1C1161.68 366.9 1162.4 362.34 1163.52 356.42C1164.8 350.34 1165.84 345.7 1166.64 342.5C1172.4 343.46 1178.8 344.26 1185.84 344.9C1192.88 345.38 1198.88 345.62 1203.84 345.62C1208.16 345.62 1210.8 345.38 1211.76 344.9C1211.92 344.74 1212.08 344.34 1212.24 343.7C1212.56 342.9 1212.72 342.1 1212.72 341.3C1212.72 338.1 1210.72 335.94 1206.72 334.82C1205.44 334.5 1200.56 333.14 1192.08 330.74C1183.6 328.34 1176.64 324.02 1171.2 317.78C1165.92 311.38 1163.28 303.46 1163.28 294.02C1163.28 289.06 1164.4 283.54 1166.64 277.46C1168.88 271.38 1171.28 267.54 1173.84 265.94C1175.76 264.66 1180.4 263.38 1187.76 262.1C1195.12 260.66 1201.92 259.94 1208.16 259.94C1221.44 259.94 1234.8 260.9 1248.24 262.82C1248.24 265.7 1247.84 270.58 1247.04 277.46C1246.24 284.18 1245.52 288.42 1244.88 290.18C1231.28 288.42 1220.32 287.54 1212 287.54C1207.68 287.54 1204.88 287.78 1203.6 288.26C1203.28 288.42 1202.96 288.9 1202.64 289.7C1202.32 290.34 1202.16 291.22 1202.16 292.34C1202.16 294.58 1202.88 296.18 1204.32 297.14C1205.76 298.26 1209.52 299.62 1215.6 301.22C1222.8 303.3 1228.96 305.46 1234.08 307.7C1239.36 309.94 1243.92 313.3 1247.76 317.78C1251.76 322.26 1253.76 328.02 1253.76 335.06Z" fill="#2C2C2C"/>
<path d="M466.803 235.7V219.7C457.966 219.7 450.803 226.863 450.803 235.7H466.803ZM510.003 235.7H526.003C526.003 226.863 518.839 219.7 510.003 219.7V235.7ZM510.003 372.5V388.5C518.839 388.5 526.003 381.337 526.003 372.5H510.003ZM466.803 372.5H450.803C450.803 381.337 457.966 388.5 466.803 388.5V372.5ZM466.803 235.7V251.7H510.003V235.7V219.7H466.803V235.7ZM510.003 235.7H494.003V372.5H510.003H526.003V235.7H510.003ZM510.003 372.5V356.5H466.803V372.5V388.5H510.003V372.5ZM466.803 372.5H482.803V235.7H466.803H450.803V372.5H466.803ZM642.057 226.82H658.057C658.057 222.464 656.281 218.296 653.138 215.279C649.996 212.261 645.759 210.656 641.406 210.833L642.057 226.82ZM642.057 372.5V388.5C650.894 388.5 658.057 381.337 658.057 372.5H642.057ZM608.217 372.5L592.475 375.362C593.858 382.97 600.484 388.5 608.217 388.5V372.5ZM604.857 354.02L620.599 351.158C619.372 344.412 613.983 339.197 607.201 338.193C600.418 337.188 593.749 340.618 590.62 346.719L604.857 354.02ZM590.697 368.9L598.825 382.682V382.682L590.697 368.9ZM539.577 360.98L527.213 371.136C527.249 371.179 527.285 371.223 527.321 371.266L539.577 360.98ZM533.337 287.06L548.374 292.528H548.374L533.337 287.06ZM544.617 268.1L534.031 256.103C534.016 256.116 534.002 256.128 533.987 256.141L544.617 268.1ZM561.177 262.1L558.21 246.377C558.192 246.381 558.174 246.384 558.155 246.388L561.177 262.1ZM601.497 261.38L598.598 277.115C603.443 278.008 608.428 276.619 612.113 273.35C615.799 270.082 617.773 265.298 617.466 260.382L601.497 261.38ZM600.777 228.5L600.126 212.513C591.55 212.862 584.777 219.917 584.777 228.5H600.777ZM601.017 340.1L605.759 355.381C612.454 353.303 617.017 347.11 617.017 340.1H601.017ZM601.017 288.02H617.017C617.017 280.028 611.12 273.262 603.203 272.17L601.017 288.02ZM576.537 288.26L568.057 274.692C567.74 274.89 567.429 275.1 567.126 275.32L576.537 288.26ZM572.217 299.3L556.482 296.401C556.461 296.514 556.442 296.626 556.423 296.739L572.217 299.3ZM575.097 337.46L563.204 348.163C563.3 348.27 563.398 348.376 563.497 348.48L575.097 337.46ZM642.057 226.82H626.057V372.5H642.057H658.057V226.82H642.057ZM642.057 372.5V356.5H608.217V372.5V388.5H642.057V372.5ZM608.217 372.5L623.959 369.638L620.599 351.158L604.857 354.02L589.115 356.882L592.475 375.362L608.217 372.5ZM604.857 354.02L590.62 346.719C588.849 350.172 586.291 352.923 582.569 355.118L590.697 368.9L598.825 382.682C607.583 377.517 614.465 370.348 619.094 361.321L604.857 354.02ZM590.697 368.9L582.569 355.118C578.993 357.227 574.801 358.42 569.577 358.42V374.42V390.42C580.033 390.42 589.921 387.933 598.825 382.682L590.697 368.9ZM569.577 374.42V358.42C561.465 358.42 556.088 355.764 551.833 350.694L539.577 360.98L527.321 371.266C538.106 384.116 552.729 390.42 569.577 390.42V374.42ZM539.577 360.98L551.941 350.824C547.914 345.923 544.537 336.795 544.537 320.66H528.537H512.537C512.537 340.365 516.52 358.117 527.213 371.136L539.577 360.98ZM528.537 320.66H544.537C544.537 308.156 546.029 298.975 548.374 292.528L533.337 287.06L518.3 281.592C514.245 292.745 512.537 305.964 512.537 320.66H528.537ZM533.337 287.06L548.374 292.528C551.168 284.842 553.778 281.364 555.247 280.059L544.617 268.1L533.987 256.141C526.816 262.516 521.906 271.678 518.3 281.592L533.337 287.06ZM544.617 268.1L555.203 280.097C554.414 280.794 554.352 280.53 556.247 279.843C557.955 279.224 560.536 278.516 564.199 277.812L561.177 262.1L558.155 246.388C553.498 247.284 549.159 248.376 545.347 249.757C541.722 251.07 537.54 253.006 534.031 256.103L544.617 268.1ZM561.177 262.1L564.144 277.823C571.932 276.353 578.427 275.7 583.737 275.7V259.7V243.7C575.927 243.7 567.382 244.647 558.21 246.377L561.177 262.1ZM583.737 259.7V275.7C588.457 275.7 593.405 276.159 598.598 277.115L601.497 261.38L604.396 245.645C597.429 244.361 590.537 243.7 583.737 243.7V259.7ZM601.497 261.38L617.466 260.382C617.227 256.553 617.049 253.609 616.931 251.536C616.873 250.496 616.831 249.705 616.804 249.144C616.77 248.436 616.777 248.411 616.777 248.66H600.777H584.777C584.777 250.114 585.075 255.124 585.528 262.378L601.497 261.38ZM600.777 248.66H616.777V228.5H600.777H584.777V248.66H600.777ZM600.777 228.5L601.428 244.487L642.708 242.807L642.057 226.82L641.406 210.833L600.126 212.513L600.777 228.5ZM587.577 342.26V358.26C593.691 358.26 599.772 357.239 605.759 355.381L601.017 340.1L596.275 324.819C592.982 325.841 590.103 326.26 587.577 326.26V342.26ZM601.017 340.1H617.017V288.02H601.017H585.017V340.1H601.017ZM601.017 288.02L603.203 272.17C597.715 271.413 591.852 271.06 585.657 271.06V287.06V303.06C590.662 303.06 595.039 303.347 598.831 303.87L601.017 288.02ZM585.657 287.06V271.06C582.902 271.06 580.174 271.17 577.69 271.497C575.765 271.75 571.772 272.37 568.057 274.692L576.537 288.26L585.017 301.828C584.245 302.311 583.581 302.615 583.131 302.798C582.672 302.985 582.316 303.094 582.109 303.151C581.722 303.259 581.596 303.259 581.864 303.223C582.104 303.192 582.537 303.148 583.202 303.114C583.859 303.081 584.672 303.06 585.657 303.06V287.06ZM576.537 288.26L567.126 275.32C562.477 278.701 560.288 283.465 559.237 286.15C558 289.312 557.135 292.852 556.482 296.401L572.217 299.3L587.952 302.199C588.176 300.986 588.393 300.012 588.593 299.249C588.797 298.475 588.955 298.019 589.037 297.81C589.13 297.573 589.057 297.824 588.722 298.344C588.544 298.62 588.253 299.033 587.822 299.514C587.392 299.996 586.777 300.597 585.948 301.2L576.537 288.26ZM572.217 299.3L556.423 296.739C555.314 303.58 554.777 310.681 554.777 318.02H570.777H586.777C586.777 312.239 587.2 306.86 588.011 301.861L572.217 299.3ZM570.777 318.02H554.777C554.777 323.576 555.177 328.895 556.238 333.671C557.26 338.269 559.182 343.694 563.204 348.163L575.097 337.46L586.99 326.757C588.132 328.026 587.894 328.611 587.476 326.729C587.097 325.025 586.777 322.224 586.777 318.02H570.777ZM575.097 337.46L563.497 348.48C570.143 355.476 578.841 358.26 587.577 358.26V342.26V326.26C586.546 326.26 586.183 326.104 586.241 326.126C586.268 326.137 586.352 326.174 586.462 326.247C586.573 326.321 586.653 326.394 586.697 326.44L575.097 337.46ZM668.946 242.9L657.876 254.452C657.954 254.527 658.034 254.601 658.113 254.675L668.946 242.9ZM668.946 216.5L658.113 204.725C658.034 204.799 657.954 204.873 657.876 204.948L668.946 216.5ZM697.026 242.9L708.097 254.452L697.026 242.9ZM662.466 262.1V246.1C653.63 246.1 646.466 253.263 646.466 262.1H662.466ZM703.506 262.1H719.506C719.506 253.263 712.343 246.1 703.506 246.1V262.1ZM703.506 372.5V388.5C712.343 388.5 719.506 381.337 719.506 372.5H703.506ZM662.466 372.5H646.466C646.466 381.337 653.63 388.5 662.466 388.5V372.5ZM683.106 248.42V232.42C681.676 232.42 680.823 232.085 679.779 231.125L668.946 242.9L658.113 254.675C665.07 261.075 673.657 264.42 683.106 264.42V248.42ZM668.946 242.9L680.017 231.348C679.459 230.813 679.318 230.504 679.291 230.441C679.269 230.391 679.186 230.207 679.186 229.7H663.186H647.186C647.186 239.368 651.024 247.886 657.876 254.452L668.946 242.9ZM663.186 229.7H679.186C679.186 229.193 679.269 229.009 679.291 228.959C679.318 228.896 679.459 228.587 680.017 228.052L668.946 216.5L657.876 204.948C651.024 211.514 647.186 220.032 647.186 229.7H663.186ZM668.946 216.5L679.779 228.275C680.823 227.315 681.676 226.98 683.106 226.98V210.98V194.98C673.657 194.98 665.07 198.325 658.113 204.725L668.946 216.5ZM683.106 210.98V226.98C684.526 226.98 685.169 227.298 685.956 228.052L697.026 216.5L708.097 204.948C701.203 198.342 692.567 194.98 683.106 194.98V210.98ZM697.026 216.5L685.956 228.052C686.514 228.587 686.654 228.896 686.682 228.959C686.703 229.009 686.786 229.193 686.786 229.7H702.786H718.786C718.786 220.032 714.949 211.514 708.097 204.948L697.026 216.5ZM702.786 229.7H686.786C686.786 230.207 686.703 230.391 686.682 230.441C686.654 230.504 686.514 230.813 685.956 231.348L697.026 242.9L708.097 254.452C714.949 247.886 718.786 239.368 718.786 229.7H702.786ZM697.026 242.9L685.956 231.348C685.169 232.102 684.526 232.42 683.106 232.42V248.42V264.42C692.567 264.42 701.203 261.058 708.097 254.452L697.026 242.9ZM662.466 262.1V278.1H703.506V262.1V246.1H662.466V262.1ZM703.506 262.1H687.506V372.5H703.506H719.506V262.1H703.506ZM703.506 372.5V356.5H662.466V372.5V388.5H703.506V372.5ZM662.466 372.5H678.466V262.1H662.466H646.466V372.5H662.466ZM733.936 362.18L722.819 373.687C722.885 373.751 722.951 373.814 723.019 373.877L733.936 362.18ZM722.656 291.14L707.152 287.188C707.133 287.26 707.115 287.333 707.098 287.406L722.656 291.14ZM730.096 274.1L741.988 284.803C742.019 284.769 742.049 284.735 742.08 284.701L730.096 274.1ZM750.256 263.78L746.025 248.35C746.003 248.355 745.982 248.361 745.96 248.367L750.256 263.78ZM821.296 360.98L832.796 372.104V372.104L821.296 360.98ZM790.096 341.06L804.717 347.558C804.746 347.493 804.774 347.428 804.802 347.363L790.096 341.06ZM791.776 299.54L776.043 302.453C776.05 302.49 776.057 302.526 776.064 302.562L791.776 299.54ZM787.216 290.18L775.902 301.494C776.192 301.783 776.492 302.062 776.803 302.328L787.216 290.18ZM766.336 288.74L776.872 300.781C777.447 300.278 777.986 299.733 778.484 299.153L766.336 288.74ZM763.216 299.3L779.072 301.443V301.443L763.216 299.3ZM765.136 340.82L750.624 347.558C750.689 347.698 750.756 347.837 750.825 347.975L765.136 340.82ZM777.136 375.62V359.62C760.138 359.62 750.369 355.632 744.853 350.483L733.936 362.18L723.019 373.877C736.702 386.648 755.733 391.62 777.136 391.62V375.62ZM733.936 362.18L745.053 350.673C739.979 345.771 735.776 336.508 735.776 319.22H719.776H703.776C703.776 340.972 709.013 360.349 722.819 373.687L733.936 362.18ZM719.776 319.22H735.776C735.776 309.401 736.66 301.347 738.214 294.874L722.656 291.14L707.098 287.406C704.811 296.933 703.776 307.599 703.776 319.22H719.776ZM722.656 291.14L738.16 295.092C739.057 291.575 739.943 288.986 740.739 287.162C741.567 285.265 742.08 284.701 741.988 284.803L730.096 274.1L718.203 263.397C712.611 269.61 709.37 278.483 707.152 287.188L722.656 291.14ZM730.096 274.1L742.08 284.701C742.632 284.076 745.655 281.672 754.551 279.193L750.256 263.78L745.96 248.367C735.337 251.328 724.919 255.804 718.112 263.499L730.096 274.1ZM750.256 263.78L754.487 279.21C763.282 276.799 771.126 275.7 778.096 275.7V259.7V243.7C767.785 243.7 757.07 245.321 746.025 248.35L750.256 263.78ZM778.096 259.7V275.7C797.14 275.7 806.603 279.875 810.942 284.214L822.256 272.9L833.569 261.586C820.308 248.325 800.331 243.7 778.096 243.7V259.7ZM822.256 272.9L810.942 284.214C815.436 288.708 819.456 297.728 819.456 315.14H835.456H851.456C851.456 293.832 846.676 274.692 833.569 261.586L822.256 272.9ZM835.456 315.14H819.456C819.456 333.941 815.137 344.334 809.795 349.856L821.296 360.98L832.796 372.104C846.335 358.106 851.456 337.939 851.456 315.14H835.456ZM821.296 360.98L809.795 349.856C804.547 355.282 794.851 359.62 777.136 359.62V375.62V391.62C799.42 391.62 819.164 386.198 832.796 372.104L821.296 360.98ZM777.856 347.54V363.54C782.709 363.54 788.068 362.715 793.082 360.061C798.37 357.261 802.339 352.908 804.717 347.558L790.096 341.06L775.475 334.562C775.658 334.15 775.985 333.592 776.511 333.024C777.039 332.453 777.611 332.043 778.11 331.779C779.043 331.285 779.243 331.54 777.856 331.54V347.54ZM790.096 341.06L804.802 347.363C808.131 339.596 808.976 328.809 808.976 317.54H792.976H776.976C776.976 328.671 775.901 333.564 775.389 334.757L790.096 341.06ZM792.976 317.54H808.976C808.976 309.386 808.577 302.183 807.488 296.518L791.776 299.54L776.064 302.562C776.574 305.217 776.976 310.014 776.976 317.54H792.976ZM791.776 299.54L807.508 296.627C806.356 290.403 803.718 283.251 797.628 278.032L787.216 290.18L776.803 302.328C775.995 301.636 775.683 301.032 775.652 300.967C775.639 300.941 775.687 301.036 775.766 301.288C775.845 301.54 775.945 301.921 776.043 302.453L791.776 299.54ZM787.216 290.18L798.529 278.866C792.197 272.533 783.919 271.06 777.376 271.06V287.06V303.06C778.442 303.06 778.674 303.191 778.36 303.092C777.971 302.968 776.959 302.551 775.902 301.494L787.216 290.18ZM777.376 287.06V271.06C773.855 271.06 770.413 271.205 767.409 271.662C765.919 271.889 764.046 272.263 762.119 272.961C760.486 273.552 757.054 274.983 754.188 278.327L766.336 288.74L778.484 299.153C777.202 300.648 775.896 301.564 775.031 302.081C774.149 302.608 773.421 302.901 773.013 303.049C772.246 303.327 771.873 303.351 772.223 303.298C772.498 303.256 773.056 303.191 773.973 303.14C774.872 303.09 775.998 303.06 777.376 303.06V287.06ZM766.336 288.74L755.8 276.699C751.433 280.52 749.843 285.684 749.251 287.686C748.403 290.56 747.81 293.823 747.36 297.157L763.216 299.3L779.072 301.443C779.24 300.2 779.407 299.184 779.565 298.371C779.726 297.545 779.859 297.027 779.94 296.754C780.033 296.437 779.996 296.658 779.732 297.185C779.59 297.468 779.331 297.946 778.917 298.529C778.509 299.104 777.85 299.926 776.872 300.781L766.336 288.74ZM763.216 299.3L747.36 297.157C746.457 303.836 746.016 310.714 746.016 317.78H762.016H778.016C778.016 312.046 778.374 306.604 779.072 301.443L763.216 299.3ZM762.016 317.78H746.016C746.016 328.843 746.946 339.636 750.624 347.558L765.136 340.82L779.648 334.082C779.648 334.082 779.645 334.076 779.64 334.063C779.634 334.05 779.626 334.031 779.616 334.005C779.595 333.954 779.566 333.878 779.531 333.776C779.46 333.569 779.37 333.276 779.269 332.884C779.064 332.086 778.846 330.993 778.651 329.553C778.257 326.644 778.016 322.764 778.016 317.78H762.016ZM765.136 340.82L750.825 347.975C756.491 359.307 767.341 363.54 777.856 363.54V347.54V331.54C776.581 331.54 776.697 331.305 777.47 331.713C777.869 331.924 778.308 332.239 778.708 332.654C779.104 333.064 779.334 333.44 779.447 333.665L765.136 340.82ZM1023.68 269.78L1010.27 278.5C1010.3 278.552 1010.33 278.604 1010.37 278.655L1023.68 269.78ZM1027.52 372.5V388.5C1036.36 388.5 1043.52 381.337 1043.52 372.5H1027.52ZM986.481 372.5H970.481C970.481 381.337 977.645 388.5 986.481 388.5V372.5ZM984.801 294.98L996.115 283.666V283.666L984.801 294.98ZM976.641 293.06V277.06C976.198 277.06 975.755 277.078 975.313 277.115L976.641 293.06ZM973.761 293.3L974.792 309.267C974.891 309.26 974.991 309.253 975.09 309.245L973.761 293.3ZM959.601 296.66L953.299 281.954C947.161 284.584 943.302 290.751 943.62 297.421L959.601 296.66ZM959.841 372.5V388.5C968.678 388.5 975.841 381.337 975.841 372.5H959.841ZM918.801 372.5H902.801C902.801 381.337 909.965 388.5 918.801 388.5V372.5ZM917.121 294.98L905.808 306.294L905.808 306.294L917.121 294.98ZM908.961 293.06V277.06C908.518 277.06 908.075 277.078 907.633 277.115L908.961 293.06ZM906.081 293.3L906.652 309.29C906.905 309.281 907.158 309.266 907.41 309.245L906.081 293.3ZM892.161 296.42L886.219 281.564C880.145 283.994 876.161 289.878 876.161 296.42H892.161ZM892.161 372.5V388.5C900.998 388.5 908.161 381.337 908.161 372.5H892.161ZM851.121 372.5H835.121C835.121 381.337 842.285 388.5 851.121 388.5V372.5ZM851.121 262.1V246.1C842.285 246.1 835.121 253.263 835.121 262.1H851.121ZM884.481 262.1L900.04 258.366C898.313 251.172 891.88 246.1 884.481 246.1V262.1ZM888.801 280.1L873.243 283.834C874.69 289.862 879.489 294.512 885.56 295.768C891.631 297.024 897.882 294.66 901.601 289.7L888.801 280.1ZM907.041 264.74L913.789 279.248C913.881 279.205 913.972 279.161 914.063 279.117L907.041 264.74ZM944.721 262.34L939.662 277.519C939.707 277.534 939.751 277.549 939.796 277.563L944.721 262.34ZM956.001 269.78L942.586 278.5C942.62 278.552 942.654 278.604 942.689 278.655L956.001 269.78ZM958.401 277.7L942.619 280.33C943.651 286.522 948.208 291.538 954.273 293.158C960.337 294.778 966.789 292.702 970.771 287.849L958.401 277.7ZM1012.4 262.34L1007.34 277.519C1007.39 277.534 1007.43 277.549 1007.48 277.563L1012.4 262.34ZM1023.68 269.78L1010.37 278.655C1009.19 276.884 1009.27 275.928 1009.69 277.945C1009.99 279.437 1010.33 281.788 1010.62 285.191C1011.2 291.963 1011.52 301.638 1011.52 314.42H1027.52H1043.52C1043.52 301.282 1043.2 290.557 1042.5 282.449C1042.16 278.412 1041.69 274.703 1041.04 271.515C1040.49 268.851 1039.46 264.596 1036.99 260.905L1023.68 269.78ZM1027.52 314.42H1011.52V372.5H1027.52H1043.52V314.42H1027.52ZM1027.52 372.5V356.5H986.481V372.5V388.5H1027.52V372.5ZM986.481 372.5H1002.48V318.5H986.481H970.481V372.5H986.481ZM986.481 318.5H1002.48V305.54H986.481H970.481V318.5H986.481ZM986.481 305.54H1002.48C1002.48 302.21 1002.33 298.901 1001.86 295.946C1001.63 294.466 1001.25 292.671 1000.58 290.823C999.972 289.142 998.721 286.272 996.115 283.666L984.801 294.98L973.488 306.294C972.403 305.209 971.71 304.165 971.293 303.433C970.871 302.693 970.625 302.084 970.492 301.717C970.243 301.029 970.216 300.694 970.26 300.974C970.296 301.199 970.356 301.684 970.404 302.497C970.452 303.295 970.481 304.301 970.481 305.54H986.481ZM984.801 294.98L996.115 283.666C992.521 280.072 988.272 278.626 985.466 277.965C982.475 277.262 979.418 277.06 976.641 277.06V293.06V309.06C978.025 309.06 978.407 309.178 978.137 309.115C977.968 309.075 977.417 308.934 976.648 308.564C975.874 308.193 974.696 307.502 973.488 306.294L984.801 294.98ZM976.641 293.06L975.313 277.115L972.433 277.355L973.761 293.3L975.09 309.245L977.97 309.005L976.641 293.06ZM973.761 293.3L972.731 277.333C965.991 277.768 959.485 279.302 953.299 281.954L959.601 296.66L965.904 311.366C968.678 310.178 971.611 309.472 974.792 309.267L973.761 293.3ZM959.601 296.66L943.62 297.421C943.759 300.356 943.841 305.927 943.841 314.42H959.841H975.841C975.841 305.953 975.764 299.684 975.583 295.899L959.601 296.66ZM959.841 314.42H943.841V372.5H959.841H975.841V314.42H959.841ZM959.841 372.5V356.5H918.801V372.5V388.5H959.841V372.5ZM918.801 372.5H934.801V318.5H918.801H902.801V372.5H918.801ZM918.801 318.5H934.801V304.1H918.801H902.801V318.5H918.801ZM918.801 304.1H934.801C934.801 301.155 934.645 298.072 934.117 295.201C933.718 293.039 932.611 287.842 928.435 283.666L917.121 294.98L905.808 306.294C904.075 304.561 903.305 302.876 903.021 302.171C902.854 301.76 902.76 301.446 902.712 301.27C902.686 301.177 902.67 301.108 902.66 301.065C902.655 301.043 902.652 301.026 902.649 301.015C902.647 301.004 902.646 300.999 902.646 300.999C902.646 300.998 902.647 301.003 902.649 301.013C902.65 301.023 902.653 301.037 902.655 301.057C902.661 301.095 902.669 301.151 902.678 301.226C902.696 301.376 902.716 301.584 902.735 301.857C902.774 302.411 902.801 303.15 902.801 304.1H918.801ZM917.121 294.98L928.435 283.666C924.841 280.072 920.592 278.626 917.786 277.965C914.795 277.262 911.738 277.06 908.961 277.06V293.06V309.06C910.345 309.06 910.727 309.178 910.457 309.115C910.288 309.075 909.737 308.934 908.968 308.564C908.194 308.193 907.016 307.502 905.808 306.294L917.121 294.98ZM908.961 293.06L907.633 277.115L904.753 277.355L906.081 293.3L907.41 309.245L910.29 309.005L908.961 293.06ZM906.081 293.3L905.51 277.31C898.929 277.545 892.473 279.063 886.219 281.564L892.161 296.42L898.104 311.276C901.45 309.937 904.273 309.375 906.652 309.29L906.081 293.3ZM892.161 296.42H876.161V372.5H892.161H908.161V296.42H892.161ZM892.161 372.5V356.5H851.121V372.5V388.5H892.161V372.5ZM851.121 372.5H867.121V262.1H851.121H835.121V372.5H851.121ZM851.121 262.1V278.1H884.481V262.1V246.1H851.121V262.1ZM884.481 262.1L868.923 265.834L873.243 283.834L888.801 280.1L904.36 276.366L900.04 258.366L884.481 262.1ZM888.801 280.1L901.601 289.7C905.553 284.431 909.657 281.17 913.789 279.248L907.041 264.74L900.294 250.232C890.666 254.71 882.609 261.689 876.001 270.5L888.801 280.1ZM907.041 264.74L914.063 279.117C918.951 276.73 923.523 275.7 927.921 275.7V259.7V243.7C918.24 243.7 908.892 246.03 900.02 250.363L907.041 264.74ZM927.921 259.7V275.7C932.232 275.7 936.114 276.336 939.662 277.519L944.721 262.34L949.781 247.161C942.768 244.824 935.451 243.7 927.921 243.7V259.7ZM944.721 262.34L939.796 277.563C941.493 278.112 942.409 278.611 942.812 278.876C943.181 279.12 942.942 279.048 942.586 278.5L956.001 269.78L969.417 261.06C964.553 253.578 956.909 249.466 949.647 247.117L944.721 262.34ZM956.001 269.78L942.689 278.655C942.268 278.024 942.061 277.563 942 277.422C941.932 277.266 941.944 277.266 942.009 277.48C942.147 277.935 942.37 278.837 942.619 280.33L958.401 277.7L974.184 275.07C973.523 271.107 972.334 265.435 969.314 260.905L956.001 269.78ZM958.401 277.7L970.771 287.849C974.497 283.307 978.377 280.416 982.353 278.67L975.921 264.02L969.49 249.37C960.346 253.384 952.545 259.613 946.032 267.551L958.401 277.7ZM975.921 264.02L982.353 278.67C987.074 276.598 991.453 275.7 995.601 275.7V259.7V243.7C986.63 243.7 977.888 245.682 969.49 249.37L975.921 264.02ZM995.601 259.7V275.7C999.912 275.7 1003.79 276.336 1007.34 277.519L1012.4 262.34L1017.46 247.161C1010.45 244.824 1003.13 243.7 995.601 243.7V259.7ZM1012.4 262.34L1007.48 277.563C1009.17 278.112 1010.09 278.611 1010.49 278.876C1010.86 279.12 1010.62 279.048 1010.27 278.5L1023.68 269.78L1037.1 261.06C1032.23 253.578 1024.59 249.466 1017.33 247.117L1012.4 262.34ZM1112.35 372.5L1096.84 376.438C1098.64 383.533 1105.03 388.5 1112.35 388.5V372.5ZM1108.51 357.38L1124.02 353.442C1122.43 347.207 1117.27 342.527 1110.91 341.561C1104.55 340.596 1098.23 343.532 1094.87 349.015L1108.51 357.38ZM1051.39 366.5L1040.66 378.365C1040.75 378.454 1040.85 378.542 1040.95 378.628L1051.39 366.5ZM1047.07 323.54L1034.46 313.69C1034.45 313.708 1034.43 313.727 1034.42 313.745L1047.07 323.54ZM1063.39 312.74L1058.99 297.356C1058.92 297.378 1058.84 297.401 1058.76 297.425L1063.39 312.74ZM1104.91 308.42L1105.18 324.418C1113.91 324.268 1120.91 317.15 1120.91 308.42H1104.91ZM1103.47 291.62L1093.48 304.114C1093.84 304.403 1094.21 304.676 1094.59 304.933L1103.47 291.62ZM1084.51 291.14L1085.18 307.126C1085.31 307.121 1085.44 307.113 1085.57 307.105L1084.51 291.14ZM1053.31 293.78L1037.48 296.125C1038.74 304.633 1046.51 310.623 1055.06 309.684L1053.31 293.78ZM1050.43 265.94L1047.18 250.274C1039.37 251.894 1033.95 259.014 1034.46 266.97L1050.43 265.94ZM1077.07 261.62L1078.99 277.505C1079.08 277.494 1079.17 277.482 1079.26 277.47L1077.07 261.62ZM1130.83 266.18L1121.88 279.442C1121.96 279.493 1122.03 279.545 1122.11 279.595L1130.83 266.18ZM1143.31 282.74L1158.72 278.439V278.439L1143.31 282.74ZM1145.95 308.9L1129.95 308.658C1129.95 308.702 1129.95 308.747 1129.95 308.791L1145.95 308.9ZM1145.71 344.18L1129.71 344.071C1129.71 344.243 1129.71 344.415 1129.72 344.587L1145.71 344.18ZM1146.43 372.5V388.5C1150.74 388.5 1154.88 386.758 1157.89 383.669C1160.9 380.58 1162.53 376.406 1162.42 372.093L1146.43 372.5ZM1104.91 346.1L1110.13 361.226C1116.58 359.001 1120.91 352.926 1120.91 346.1H1104.91ZM1104.91 328.34H1120.91C1120.91 319.503 1113.75 312.34 1104.91 312.34V328.34ZM1083.31 330.26L1072 318.946V318.946L1083.31 330.26ZM1081.39 333.86L1066.06 329.262C1065.92 329.743 1065.8 330.23 1065.7 330.722L1081.39 333.86ZM1083.55 346.34L1073.42 358.723V358.723L1083.55 346.34ZM1112.35 372.5L1127.86 368.562L1124.02 353.442L1108.51 357.38L1093 361.318L1096.84 376.438L1112.35 372.5ZM1108.51 357.38L1094.87 349.015C1090.16 356.689 1084.87 359.38 1077.79 359.38V375.38V391.38C1096.95 391.38 1112.14 382.071 1122.15 365.745L1108.51 357.38ZM1077.79 375.38V359.38C1070.17 359.38 1065.29 357.356 1061.83 354.372L1051.39 366.5L1040.95 378.628C1051.25 387.484 1063.97 391.38 1077.79 391.38V375.38ZM1051.39 366.5L1062.12 354.635C1059.42 352.193 1057.31 348.405 1057.31 341.06H1041.31H1025.31C1025.31 355.475 1029.92 368.647 1040.66 378.365L1051.39 366.5ZM1041.31 341.06H1057.31C1057.31 337.616 1058.21 335.285 1059.72 333.335L1047.07 323.54L1034.42 313.745C1028.25 321.715 1025.31 331.064 1025.31 341.06H1041.31ZM1047.07 323.54L1059.68 333.39C1061.43 331.146 1063.95 329.286 1068.02 328.055L1063.39 312.74L1058.76 297.425C1049.07 300.354 1040.71 305.694 1034.46 313.69L1047.07 323.54ZM1063.39 312.74L1067.79 328.124C1074.65 326.164 1086.75 324.733 1105.18 324.418L1104.91 308.42L1104.64 292.422C1085.63 292.747 1070.05 294.196 1058.99 297.356L1063.39 312.74ZM1104.91 308.42H1120.91C1120.91 303.005 1120.79 298.423 1120.49 294.934C1120.35 293.252 1120.12 291.296 1119.69 289.432C1119.48 288.524 1119.11 287.11 1118.42 285.565C1117.92 284.45 1116.27 280.922 1112.35 278.307L1103.47 291.62L1094.59 304.933C1092.59 303.599 1091.33 302.09 1090.62 301.098C1089.9 300.077 1089.45 299.179 1089.2 298.62C1088.72 297.545 1088.54 296.756 1088.51 296.628C1088.44 296.324 1088.51 296.548 1088.61 297.666C1088.79 299.777 1088.91 303.275 1088.91 308.42H1104.91ZM1103.47 291.62L1113.47 279.126C1110.84 277.023 1108.16 276.165 1106.94 275.816C1105.45 275.391 1104.04 275.162 1102.93 275.024C1100.71 274.745 1098.24 274.66 1095.79 274.66V290.66V306.66C1097.66 306.66 1098.63 306.735 1098.97 306.776C1099.14 306.798 1098.79 306.769 1098.14 306.584C1097.8 306.487 1097.22 306.302 1096.5 305.977C1095.81 305.664 1094.7 305.091 1093.48 304.114L1103.47 291.62ZM1095.79 290.66V274.66C1092.55 274.66 1088.38 274.847 1083.45 275.175L1084.51 291.14L1085.57 307.105C1090.24 306.793 1093.6 306.66 1095.79 306.66V290.66ZM1084.51 291.14L1083.84 275.154C1075.64 275.496 1064.83 276.42 1051.56 277.876L1053.31 293.78L1055.06 309.684C1068.03 308.26 1078.02 307.424 1085.18 307.126L1084.51 291.14ZM1053.31 293.78L1069.14 291.435C1067.93 283.286 1067.01 274.449 1066.4 264.91L1050.43 265.94L1034.46 266.97C1035.13 277.271 1036.13 286.994 1037.48 296.125L1053.31 293.78ZM1050.43 265.94L1053.68 281.606C1061.69 279.945 1070.12 278.575 1078.99 277.505L1077.07 261.62L1075.15 245.735C1065.46 246.905 1056.13 248.415 1047.18 250.274L1050.43 265.94ZM1077.07 261.62L1079.26 277.47C1088 276.264 1095.57 275.7 1102.03 275.7V259.7V243.7C1093.77 243.7 1084.7 244.416 1074.88 245.77L1077.07 261.62ZM1102.03 259.7V275.7C1113.53 275.7 1119.35 277.732 1121.88 279.442L1130.83 266.18L1139.78 252.918C1129.51 245.988 1116.13 243.7 1102.03 243.7V259.7ZM1130.83 266.18L1122.11 279.595C1125.49 281.791 1127.1 284.183 1127.9 287.041L1143.31 282.74L1158.72 278.439C1155.68 267.537 1148.97 258.889 1139.55 252.765L1130.83 266.18ZM1143.31 282.74L1127.9 287.041C1129.26 291.919 1130.1 298.973 1129.95 308.658L1145.95 308.9L1161.95 309.142C1162.12 297.707 1161.2 287.321 1158.72 278.439L1143.31 282.74ZM1145.95 308.9L1129.95 308.791L1129.71 344.071L1145.71 344.18L1161.71 344.289L1161.95 309.009L1145.95 308.9ZM1145.71 344.18L1129.72 344.587L1130.44 372.907L1146.43 372.5L1162.42 372.093L1161.7 343.773L1145.71 344.18ZM1146.43 372.5V356.5H1112.35V372.5V388.5H1146.43V372.5ZM1091.71 348.5V364.5C1097.93 364.5 1104.1 363.303 1110.13 361.226L1104.91 346.1L1099.69 330.974C1096.44 332.097 1093.81 332.5 1091.71 332.5V348.5ZM1104.91 346.1H1120.91V328.34H1104.91H1088.91V346.1H1104.91ZM1104.91 328.34V312.34H1102.99V328.34V344.34H1104.91V328.34ZM1102.99 328.34V312.34C1096.89 312.34 1091.69 312.501 1087.64 312.896C1085.65 313.09 1083.49 313.381 1081.45 313.879C1080.34 314.152 1075.73 315.214 1072 318.946L1083.31 330.26L1094.62 341.574C1092.78 343.422 1090.97 344.245 1090.37 344.505C1089.61 344.829 1089.11 344.95 1089.07 344.961C1088.99 344.979 1089.45 344.87 1090.74 344.744C1093.25 344.499 1097.25 344.34 1102.99 344.34V328.34ZM1083.31 330.26L1072 318.946C1068.64 322.3 1066.97 326.245 1066.06 329.262L1081.39 333.86L1096.72 338.458C1096.71 338.465 1096.69 338.542 1096.64 338.677C1096.58 338.812 1096.49 339.022 1096.35 339.289C1096.07 339.81 1095.54 340.659 1094.62 341.574L1083.31 330.26ZM1081.39 333.86L1065.7 330.722C1065.2 333.221 1064.91 335.798 1064.91 338.42H1080.91H1096.91C1096.91 338.162 1096.94 337.699 1097.08 336.998L1081.39 333.86ZM1080.91 338.42H1064.91C1064.91 343.852 1066.02 352.673 1073.42 358.723L1083.55 346.34L1093.68 333.957C1095.62 335.54 1096.45 337.315 1096.75 338.22C1097.02 339.02 1096.91 339.225 1096.91 338.42H1080.91ZM1083.55 346.34L1073.42 358.723C1079.34 363.565 1086.46 364.5 1091.71 364.5V348.5V332.5C1090.85 332.5 1090.69 332.41 1091 332.493C1091.34 332.582 1092.43 332.928 1093.68 333.957L1083.55 346.34ZM1240.08 365.78L1231.05 352.575C1231.01 352.6 1230.97 352.625 1230.94 352.65L1240.08 365.78ZM1161.36 370.1L1145.44 368.508C1144.63 376.576 1149.99 383.973 1157.91 385.723L1161.36 370.1ZM1163.52 356.42L1147.86 353.124C1147.84 353.231 1147.82 353.338 1147.8 353.446L1163.52 356.42ZM1166.64 342.5L1169.27 326.718C1161.04 325.346 1153.14 330.527 1151.12 338.619L1166.64 342.5ZM1185.84 344.9L1184.39 360.834C1184.51 360.845 1184.63 360.855 1184.75 360.863L1185.84 344.9ZM1211.76 344.9L1218.92 359.211C1220.45 358.442 1221.86 357.43 1223.07 356.214L1211.76 344.9ZM1212.24 343.7L1197.39 337.758C1197.12 338.429 1196.89 339.118 1196.72 339.819L1212.24 343.7ZM1206.72 334.82L1211.03 319.413C1210.89 319.372 1210.75 319.334 1210.6 319.298L1206.72 334.82ZM1192.08 330.74L1187.72 346.135V346.135L1192.08 330.74ZM1171.2 317.78L1158.86 327.962C1158.95 328.074 1159.05 328.185 1159.14 328.294L1171.2 317.78ZM1166.64 277.46L1151.63 271.929V271.929L1166.64 277.46ZM1173.84 265.94L1182.32 279.508C1182.45 279.425 1182.59 279.34 1182.72 279.253L1173.84 265.94ZM1187.76 262.1L1190.5 277.863C1190.61 277.844 1190.72 277.824 1190.83 277.802L1187.76 262.1ZM1248.24 262.82H1264.24C1264.24 254.858 1258.39 248.107 1250.5 246.981L1248.24 262.82ZM1247.04 277.46L1262.93 279.351C1262.93 279.337 1262.93 279.322 1262.93 279.308L1247.04 277.46ZM1244.88 290.18L1242.83 306.048C1250.26 307.009 1257.36 302.688 1259.92 295.648L1244.88 290.18ZM1203.6 288.26L1197.98 273.279C1197.46 273.475 1196.95 273.699 1196.45 273.949L1203.6 288.26ZM1202.64 289.7L1216.95 296.855C1217.15 296.459 1217.33 296.054 1217.5 295.642L1202.64 289.7ZM1204.32 297.14L1214.14 284.51C1213.84 284.271 1213.52 284.043 1213.2 283.827L1204.32 297.14ZM1215.6 301.22L1220.04 285.849C1219.92 285.813 1219.8 285.779 1219.67 285.747L1215.6 301.22ZM1234.08 307.7L1227.67 322.359C1227.72 322.382 1227.78 322.406 1227.83 322.429L1234.08 307.7ZM1247.76 317.78L1235.61 328.193C1235.68 328.275 1235.75 328.356 1235.83 328.436L1247.76 317.78ZM1253.76 335.06H1237.76C1237.76 345.72 1234.57 350.164 1231.05 352.575L1240.08 365.78L1249.12 378.985C1263.83 368.916 1269.76 352.88 1269.76 335.06H1253.76ZM1240.08 365.78L1230.94 352.65C1225.73 356.277 1216.66 359.14 1201.68 359.14V375.14V391.14C1219.99 391.14 1236.51 387.763 1249.22 378.91L1240.08 365.78ZM1201.68 375.14V359.14C1191.47 359.14 1179.23 357.664 1164.81 354.477L1161.36 370.1L1157.91 385.723C1173.89 389.256 1188.53 391.14 1201.68 391.14V375.14ZM1161.36 370.1L1177.28 371.692C1177.53 369.195 1178.15 365.178 1179.24 359.394L1163.52 356.42L1147.8 353.446C1146.65 359.502 1145.83 364.605 1145.44 368.508L1161.36 370.1ZM1163.52 356.42L1179.18 359.716C1180.45 353.693 1181.44 349.286 1182.16 346.381L1166.64 342.5L1151.12 338.619C1150.24 342.114 1149.16 346.987 1147.86 353.124L1163.52 356.42ZM1166.64 342.5L1164.01 358.282C1170.23 359.319 1177.04 360.166 1184.39 360.834L1185.84 344.9L1187.29 328.966C1180.57 328.354 1174.57 327.601 1169.27 326.718L1166.64 342.5ZM1185.84 344.9L1184.75 360.863C1192.02 361.358 1198.4 361.62 1203.84 361.62V345.62V329.62C1199.36 329.62 1193.74 329.402 1186.93 328.937L1185.84 344.9ZM1203.84 345.62V361.62C1206.22 361.62 1208.5 361.557 1210.51 361.374C1211.73 361.263 1215.43 360.953 1218.92 359.211L1211.76 344.9L1204.61 330.589C1205.07 330.355 1205.49 330.18 1205.82 330.054C1206.15 329.926 1206.44 329.831 1206.66 329.762C1207.1 329.628 1207.43 329.557 1207.59 329.526C1207.76 329.492 1207.84 329.481 1207.83 329.483C1207.82 329.484 1207.75 329.493 1207.61 329.506C1207.33 329.532 1206.87 329.562 1206.21 329.585C1205.57 329.607 1204.78 329.62 1203.84 329.62V345.62ZM1211.76 344.9L1223.07 356.214C1225.52 353.772 1226.57 351.144 1226.86 350.422C1227.31 349.298 1227.59 348.276 1227.76 347.581L1212.24 343.7L1196.72 339.819C1196.73 339.764 1196.86 339.262 1197.15 338.538C1197.29 338.163 1197.56 337.541 1197.99 336.797C1198.38 336.109 1199.16 334.878 1200.45 333.586L1211.76 344.9ZM1212.24 343.7L1227.1 349.642C1228.11 347.099 1228.72 344.288 1228.72 341.3H1212.72H1196.72C1196.72 339.912 1197.01 338.701 1197.39 337.758L1212.24 343.7ZM1212.72 341.3H1228.72C1228.72 336.052 1226.95 330.716 1222.96 326.409C1219.29 322.444 1214.77 320.458 1211.03 319.413L1206.72 334.82L1202.41 350.227C1202.67 350.302 1201.15 349.956 1199.48 348.151C1197.49 346.004 1196.72 343.348 1196.72 341.3H1212.72ZM1206.72 334.82L1210.6 319.298C1209.63 319.055 1205.08 317.791 1196.44 315.345L1192.08 330.74L1187.72 346.135C1196.04 348.489 1201.25 349.945 1202.84 350.342L1206.72 334.82ZM1192.08 330.74L1196.44 315.345C1190.74 313.733 1186.53 311.012 1183.26 307.266L1171.2 317.78L1159.14 328.294C1166.75 337.028 1176.46 342.947 1187.72 346.135L1192.08 330.74ZM1171.2 317.78L1183.54 307.598C1180.95 304.456 1179.28 300.286 1179.28 294.02H1163.28H1147.28C1147.28 306.634 1150.89 318.304 1158.86 327.962L1171.2 317.78ZM1163.28 294.02H1179.28C1179.28 291.427 1179.88 287.814 1181.65 282.991L1166.64 277.46L1151.63 271.929C1148.92 279.266 1147.28 286.693 1147.28 294.02H1163.28ZM1166.64 277.46L1181.65 282.991C1182.54 280.581 1183.26 279.186 1183.69 278.5C1183.89 278.179 1183.93 278.167 1183.77 278.34C1183.62 278.511 1183.15 278.988 1182.32 279.508L1173.84 265.94L1165.36 252.372C1161.25 254.941 1158.45 258.501 1156.55 261.54C1154.58 264.694 1152.98 268.259 1151.63 271.929L1166.64 277.46ZM1173.84 265.94L1182.72 279.253C1181.88 279.813 1181.36 279.98 1181.61 279.885C1181.77 279.822 1182.21 279.667 1183.02 279.444C1184.64 278.995 1187.09 278.457 1190.5 277.863L1187.76 262.1L1185.02 246.337C1181.07 247.023 1177.52 247.765 1174.51 248.596C1171.93 249.308 1168.18 250.484 1164.97 252.627L1173.84 265.94ZM1187.76 262.1L1190.83 277.802C1197.38 276.522 1203.13 275.94 1208.16 275.94V259.94V243.94C1200.71 243.94 1192.87 244.798 1184.69 246.398L1187.76 262.1ZM1208.16 259.94V275.94C1220.67 275.94 1233.27 276.844 1245.98 278.659L1248.24 262.82L1250.5 246.981C1236.33 244.956 1222.21 243.94 1208.16 243.94V259.94ZM1248.24 262.82H1232.24C1232.24 264.677 1231.95 268.733 1231.15 275.612L1247.04 277.46L1262.93 279.308C1263.73 272.427 1264.24 266.723 1264.24 262.82H1248.24ZM1247.04 277.46L1231.15 275.569C1230.77 278.796 1230.42 281.246 1230.13 283.001C1229.98 283.877 1229.86 284.479 1229.77 284.858C1229.67 285.311 1229.68 285.174 1229.84 284.712L1244.88 290.18L1259.92 295.648C1260.78 293.287 1261.31 290.53 1261.67 288.359C1262.1 285.874 1262.51 282.844 1262.93 279.351L1247.04 277.46ZM1244.88 290.18L1246.93 274.312C1233.03 272.513 1221.3 271.54 1212 271.54V287.54V303.54C1219.34 303.54 1229.53 304.327 1242.83 306.048L1244.88 290.18ZM1212 287.54V271.54C1209.6 271.54 1207.32 271.605 1205.29 271.778C1203.63 271.921 1200.78 272.229 1197.98 273.279L1203.6 288.26L1209.22 303.241C1208.71 303.433 1208.31 303.544 1208.08 303.602C1207.84 303.663 1207.68 303.692 1207.63 303.702C1207.54 303.717 1207.65 303.694 1208.03 303.662C1208.8 303.595 1210.08 303.54 1212 303.54V287.54ZM1203.6 288.26L1196.45 273.949C1192.71 275.816 1190.66 278.583 1189.81 279.865C1188.81 281.358 1188.18 282.78 1187.79 283.758L1202.64 289.7L1217.5 295.642C1217.43 295.82 1217.11 296.602 1216.43 297.615C1215.9 298.417 1214.17 300.864 1210.76 302.571L1203.6 288.26ZM1202.64 289.7L1188.33 282.545C1186.45 286.313 1186.16 290 1186.16 292.34H1202.16H1218.16C1218.16 292.511 1218.15 292.997 1218.02 293.702C1217.9 294.399 1217.61 295.53 1216.95 296.855L1202.64 289.7ZM1202.16 292.34H1186.16C1186.16 298.166 1188.26 305.665 1195.45 310.453L1204.32 297.14L1213.2 283.827C1215.01 285.039 1216.44 286.753 1217.29 288.654C1218.08 290.406 1218.16 291.8 1218.16 292.34H1202.16ZM1204.32 297.14L1194.5 309.77C1197.36 311.996 1200.74 313.31 1202.78 314.046C1205.29 314.953 1208.26 315.832 1211.53 316.693L1215.6 301.22L1219.67 285.747C1216.87 285.008 1214.91 284.407 1213.66 283.954C1213.37 283.847 1213.14 283.759 1212.97 283.691C1212.89 283.658 1212.83 283.631 1212.79 283.612C1212.77 283.603 1212.75 283.596 1212.74 283.591C1212.73 283.586 1212.72 283.583 1212.72 283.583C1212.72 283.583 1212.73 283.587 1212.74 283.593C1212.75 283.599 1212.77 283.609 1212.8 283.622C1212.85 283.648 1212.93 283.692 1213.04 283.756C1213.24 283.871 1213.64 284.116 1214.14 284.51L1204.32 297.14ZM1215.6 301.22L1211.16 316.591C1217.9 318.538 1223.36 320.475 1227.67 322.359L1234.08 307.7L1240.49 293.041C1234.56 290.445 1227.7 288.062 1220.04 285.849L1215.6 301.22ZM1234.08 307.7L1227.83 322.429C1230.77 323.677 1233.33 325.532 1235.61 328.193L1247.76 317.78L1259.91 307.367C1254.51 301.068 1247.95 296.203 1240.33 292.971L1234.08 307.7ZM1247.76 317.78L1235.83 328.436C1236.77 329.49 1237.76 331.233 1237.76 335.06H1253.76H1269.76C1269.76 324.807 1266.76 315.03 1259.7 307.124L1247.76 317.78Z" fill="white" mask="url(#path-1-outside-1_70_2)"/>
<mask id="mask0_70_2" style="mask-type:alpha" maskUnits="userSpaceOnUse" x="130" y="160" width="273" height="273">
<rect x="138.789" y="168.105" width="256" height="256" fill="#D9D9D9" stroke="white" stroke-width="16" stroke-linejoin="round"/>
</mask>
<g mask="url(#mask0_70_2)">
<path d="M246.789 188.105C251.208 188.105 254.789 191.687 254.789 196.105V208.105H316.789L317.201 208.116C321.428 208.331 324.789 211.825 324.789 216.105V236.105C324.789 240.524 321.208 244.105 316.789 244.105H293.669C290.075 254.897 285.187 265.855 279.041 276.975C273.574 286.867 268.018 295.243 262.334 301.948L281.004 321.007C282.717 322.756 283.51 325.163 283.235 327.53L303.809 273.27L303.925 272.98C305.174 270.034 308.069 268.105 311.289 268.105H332.289C335.613 268.105 338.591 270.161 339.77 273.27L385.27 393.27C386.202 395.728 385.867 398.487 384.373 400.65C382.88 402.814 380.418 404.105 377.789 404.105H356.789C353.396 404.105 350.372 401.965 349.244 398.765L340.377 373.605H303.201L294.334 398.765C293.206 401.965 290.182 404.105 286.789 404.105H265.789C263.16 404.105 260.699 402.814 259.205 400.65C257.712 398.487 257.377 395.728 258.309 393.27L273.82 352.359C272.7 353.644 271.183 354.56 269.467 354.928C266.779 355.504 263.984 354.66 262.064 352.693L237.205 327.224L192.432 371.776C189.305 374.887 184.251 374.881 181.132 371.763L167.132 357.763C165.632 356.262 164.789 354.227 164.789 352.105C164.789 349.984 165.632 347.949 167.132 346.448L212.174 301.405C208.031 296.644 204.191 291.469 200.656 285.886C195.634 277.958 191.061 269.055 186.916 259.21C185.876 256.74 186.142 253.913 187.624 251.681C189.107 249.448 191.609 248.105 194.289 248.105H215.289L215.57 248.11C218.46 248.211 221.081 249.868 222.407 252.455C225.619 258.718 228.779 264.074 231.875 268.563C233.478 270.887 235.263 273.23 237.235 275.592C240.503 271.465 243.944 266.416 247.544 260.382C250.904 254.751 253.739 249.325 256.073 244.105H156.789C152.371 244.105 148.789 240.524 148.789 236.105V216.105C148.789 211.687 152.371 208.105 156.789 208.105H218.789V196.105C218.789 191.687 222.371 188.105 226.789 188.105H246.789ZM315.096 340.105H328.483L321.789 321.142L315.096 340.105Z" fill="#2C2C2C" stroke="white" stroke-width="16" stroke-linejoin="round"/>
</g>
</svg>
