<svg width="780" height="180" viewBox="0 0 780 180" fill="none" xmlns="http://www.w3.org/2000/svg">
<mask id="mask0_55_270" style="mask-type:alpha" maskUnits="userSpaceOnUse" x="0" y="0" width="781" height="180">
<rect width="780.004" height="180" fill="#2C2C2C"/>
</mask>
<g mask="url(#mask0_55_270)">
<rect width="780.004" height="180" fill="#2C2C2C"/>
<rect x="268.829" y="-142.923" width="141.901" height="329.402" transform="rotate(45 268.829 -142.923)" fill="#190626"/>
<rect x="0.00195312" width="141.901" height="180" fill="#190626"/>
<path d="M0.00195312 142.123H780.004V180H0.00195312V142.123Z" fill="#190626"/>
<path d="M61.23 133.5V40.06H85.038V133.5H61.23ZM103.2 133.5V62.844H121.632V93.18H120.608C120.608 85.8413 121.547 79.7827 123.424 75.004C125.301 70.14 128.075 66.5133 131.744 64.124C135.499 61.7347 140.021 60.54 145.312 60.54H146.336C154.357 60.54 160.544 63.228 164.896 68.604C169.333 73.8947 171.552 82.044 171.552 93.052V133.5H148.256V92.412C148.256 89.1693 147.275 86.524 145.312 84.476C143.435 82.3427 140.832 81.276 137.504 81.276C134.176 81.276 131.488 82.3427 129.44 84.476C127.477 86.524 126.496 89.2547 126.496 92.668V133.5H103.2ZM215.232 135.804C204.992 135.804 196.928 133.713 191.04 129.532C185.152 125.265 181.995 119.292 181.568 111.612H202.048C202.389 113.745 203.712 115.58 206.016 117.116C208.32 118.652 211.563 119.42 215.744 119.42C218.731 119.42 221.291 118.993 223.424 118.14C225.643 117.201 226.752 115.708 226.752 113.66C226.752 111.868 225.899 110.417 224.192 109.308C222.485 108.113 219.371 107.303 214.848 106.876L209.984 106.364C200.939 105.425 194.283 102.951 190.016 98.94C185.749 94.9293 183.616 89.8947 183.616 83.836C183.616 78.6307 184.896 74.364 187.456 71.036C190.016 67.6227 193.557 65.0627 198.08 63.356C202.603 61.6493 207.765 60.796 213.568 60.796C223.04 60.796 230.677 62.8867 236.48 67.068C242.283 71.164 245.355 77.0947 245.696 84.86H225.216C224.875 82.7267 223.723 80.9347 221.76 79.484C219.797 77.948 216.981 77.18 213.312 77.18C210.667 77.18 208.491 77.6493 206.784 78.588C205.163 79.5267 204.352 80.8493 204.352 82.556C204.352 84.348 205.12 85.6707 206.656 86.524C208.277 87.3773 210.837 88.0173 214.336 88.444L219.2 88.956C228.245 89.8947 235.2 92.412 240.064 96.508C245.013 100.519 247.488 105.809 247.488 112.38C247.488 117.244 246.165 121.425 243.52 124.924C240.96 128.423 237.248 131.111 232.384 132.988C227.605 134.865 221.888 135.804 215.232 135.804ZM292.739 134.524C285.059 134.524 278.915 133.585 274.307 131.708C269.784 129.831 266.499 126.716 264.451 122.364C262.403 118.012 261.379 112.124 261.379 104.7L261.507 44.412H283.011L282.883 105.34C282.883 108.497 283.694 110.929 285.315 112.636C287.022 114.257 289.454 115.068 292.611 115.068H302.339V134.524H292.739ZM251.139 79.74V62.844H302.339V79.74H251.139ZM357.327 133.5V112.764H353.487V90.62C353.487 87.3773 352.719 84.988 351.183 83.452C349.732 81.8307 347.3 81.02 343.887 81.02C342.266 81.02 339.876 81.0627 336.719 81.148C333.562 81.2333 330.234 81.3613 326.735 81.532C323.236 81.7027 320.036 81.8733 317.135 82.044V62.588C319.183 62.4173 321.615 62.2467 324.431 62.076C327.247 61.9053 330.148 61.7773 333.135 61.692C336.207 61.6067 339.023 61.564 341.583 61.564C348.836 61.564 354.98 62.6307 360.015 64.764C365.135 66.8973 369.018 70.0973 371.663 74.364C374.394 78.6307 375.759 84.0493 375.759 90.62V133.5H357.327ZM334.927 135.292C329.978 135.292 325.583 134.396 321.743 132.604C317.903 130.812 314.874 128.252 312.655 124.924C310.522 121.511 309.455 117.457 309.455 112.764C309.455 107.473 310.863 103.207 313.679 99.964C316.495 96.636 320.378 94.204 325.327 92.668C330.276 91.132 335.951 90.364 342.351 90.364H356.047V102.396H342.351C339.194 102.396 336.762 103.207 335.055 104.828C333.348 106.364 332.495 108.455 332.495 111.1C332.495 113.66 333.348 115.751 335.055 117.372C336.762 118.908 339.194 119.676 342.351 119.676C344.399 119.676 346.191 119.335 347.727 118.652C349.348 117.884 350.671 116.604 351.695 114.812C352.719 113.02 353.316 110.545 353.487 107.388L358.863 112.508C358.436 117.372 357.242 121.511 355.279 124.924C353.402 128.252 350.756 130.812 347.343 132.604C344.015 134.396 339.876 135.292 334.927 135.292ZM419.613 161.788C416.114 161.788 412.488 161.66 408.733 161.404C405.064 161.148 401.736 160.807 398.749 160.38V140.924C401.736 141.265 405.064 141.564 408.733 141.82C412.402 142.161 415.773 142.332 418.845 142.332C424.136 142.332 428.445 141.777 431.773 140.668C435.186 139.559 437.704 137.852 439.325 135.548C440.946 133.244 441.757 130.3 441.757 126.716V112.38L445.341 104.7C445.17 110.673 444.018 115.879 441.885 120.316C439.752 124.668 436.68 128.039 432.669 130.428C428.744 132.817 423.965 134.012 418.333 134.012C413.554 134.012 409.245 133.159 405.405 131.452C401.565 129.745 398.28 127.356 395.549 124.284C392.904 121.127 390.856 117.415 389.405 113.148C387.954 108.881 387.229 104.231 387.229 99.196V96.124C387.229 91.0893 387.997 86.4387 389.533 82.172C391.069 77.82 393.288 74.0653 396.189 70.908C399.09 67.6653 402.504 65.1907 406.429 63.484C410.44 61.692 414.877 60.796 419.741 60.796C425.373 60.796 430.237 62.076 434.333 64.636C438.429 67.1107 441.629 70.7373 443.933 75.516C446.237 80.2947 447.474 86.0973 447.645 92.924L445.085 93.82V62.844H463.517V125.18C463.517 133.884 461.896 140.924 458.653 146.3C455.41 151.676 450.504 155.601 443.933 158.076C437.448 160.551 429.341 161.788 419.613 161.788ZM426.141 114.812C428.957 114.812 431.474 114.172 433.693 112.892C435.997 111.612 437.832 109.777 439.197 107.388C440.562 104.913 441.245 101.969 441.245 98.556V95.484C441.245 92.156 440.52 89.34 439.069 87.036C437.704 84.732 435.869 82.9827 433.565 81.788C431.261 80.5933 428.786 79.996 426.141 79.996C423.069 79.996 420.338 80.7213 417.949 82.172C415.645 83.6227 413.81 85.6707 412.445 88.316C411.165 90.9613 410.525 94.076 410.525 97.66C410.525 101.244 411.165 104.316 412.445 106.876C413.81 109.436 415.645 111.399 417.949 112.764C420.338 114.129 423.069 114.812 426.141 114.812ZM479.7 133.5V62.844H498.132V93.564H497.876C497.876 83.6653 499.924 75.9 504.02 70.268C508.201 64.636 514.175 61.82 521.94 61.82H524.756V81.788H519.38C514.175 81.788 510.121 83.196 507.22 86.012C504.404 88.828 502.996 92.8813 502.996 98.172V133.5H479.7ZM576.202 133.5V112.764H572.362V90.62C572.362 87.3773 571.594 84.988 570.058 83.452C568.607 81.8307 566.175 81.02 562.762 81.02C561.141 81.02 558.751 81.0627 555.594 81.148C552.437 81.2333 549.109 81.3613 545.61 81.532C542.111 81.7027 538.911 81.8733 536.01 82.044V62.588C538.058 62.4173 540.49 62.2467 543.306 62.076C546.122 61.9053 549.023 61.7773 552.01 61.692C555.082 61.6067 557.898 61.564 560.458 61.564C567.711 61.564 573.855 62.6307 578.89 64.764C584.01 66.8973 587.893 70.0973 590.538 74.364C593.269 78.6307 594.634 84.0493 594.634 90.62V133.5H576.202ZM553.802 135.292C548.853 135.292 544.458 134.396 540.618 132.604C536.778 130.812 533.749 128.252 531.53 124.924C529.397 121.511 528.33 117.457 528.33 112.764C528.33 107.473 529.738 103.207 532.554 99.964C535.37 96.636 539.253 94.204 544.202 92.668C549.151 91.132 554.826 90.364 561.226 90.364H574.922V102.396H561.226C558.069 102.396 555.637 103.207 553.93 104.828C552.223 106.364 551.37 108.455 551.37 111.1C551.37 113.66 552.223 115.751 553.93 117.372C555.637 118.908 558.069 119.676 561.226 119.676C563.274 119.676 565.066 119.335 566.602 118.652C568.223 117.884 569.546 116.604 570.57 114.812C571.594 113.02 572.191 110.545 572.362 107.388L577.738 112.508C577.311 117.372 576.117 121.511 574.154 124.924C572.277 128.252 569.631 130.812 566.218 132.604C562.89 134.396 558.751 135.292 553.802 135.292ZM610.2 133.5V62.844H628.632V93.308H627.608C627.608 85.9693 628.504 79.9107 630.296 75.132C632.173 70.268 634.904 66.6413 638.488 64.252C642.072 61.7773 646.467 60.54 651.672 60.54H652.696C657.987 60.54 662.381 61.7773 665.88 64.252C669.464 66.6413 672.152 70.268 673.944 75.132C675.821 79.9107 676.76 85.9693 676.76 93.308H671.384C671.384 85.9693 672.28 79.9107 674.072 75.132C675.949 70.268 678.68 66.6413 682.264 64.252C685.848 61.7773 690.243 60.54 695.448 60.54H696.472C701.763 60.54 706.2 61.7773 709.784 64.252C713.453 66.6413 716.227 70.268 718.104 75.132C720.067 79.9107 721.048 85.9693 721.048 93.308V133.5H697.752V92.668C697.752 89.4253 696.856 86.7373 695.064 84.604C693.357 82.3853 690.883 81.276 687.64 81.276C684.397 81.276 681.837 82.3853 679.96 84.604C678.168 86.7373 677.272 89.5107 677.272 92.924V133.5H653.976V92.668C653.976 89.4253 653.08 86.7373 651.288 84.604C649.581 82.3853 647.107 81.276 643.864 81.276C640.621 81.276 638.061 82.3853 636.184 84.604C634.392 86.7373 633.496 89.5107 633.496 92.924V133.5H610.2Z" fill="white"/>
</g>
</svg>
