<svg width="179" height="80" viewBox="0 0 179 80" fill="none" xmlns="http://www.w3.org/2000/svg">
<path d="M148.75 23.9893C150.761 22.8283 153.239 22.8283 155.25 23.9893L172.9 34.1807C174.911 35.3418 176.15 37.4873 176.15 39.8096V60.1904C176.15 62.5127 174.911 64.6582 172.9 65.8193L155.25 76.0107C153.239 77.1717 150.761 77.1717 148.75 76.0107L131.1 65.8193C129.089 64.6582 127.85 62.5127 127.85 60.1904V39.8096C127.85 37.4873 129.089 35.3418 131.1 34.1807L148.75 23.9893Z" fill="black" stroke="#050505" stroke-width="5"/>
<path d="M123.75 23.9893C125.761 22.8283 128.239 22.8283 130.25 23.9893L147.9 34.1807C149.911 35.3418 151.15 37.4873 151.15 39.8096V60.1904C151.15 62.5127 149.911 64.6582 147.9 65.8193L130.25 76.0107C128.239 77.1717 125.761 77.1717 123.75 76.0107L106.1 65.8193C104.089 64.6582 102.85 62.5127 102.85 60.1904V39.8096C102.85 37.4873 104.089 35.3418 106.1 34.1807L123.75 23.9893Z" fill="black" stroke="#050505" stroke-width="5"/>
<path d="M98.75 23.9893C100.761 22.8283 103.239 22.8283 105.25 23.9893L122.9 34.1807C124.911 35.3418 126.15 37.4873 126.15 39.8096V60.1904C126.15 62.5127 124.911 64.6582 122.9 65.8193L105.25 76.0107C103.239 77.1717 100.761 77.1717 98.75 76.0107L81.0996 65.8193C79.0885 64.6582 77.8496 62.5127 77.8496 60.1904V39.8096C77.8496 37.4873 79.0885 35.3418 81.0996 34.1807L98.75 23.9893Z" fill="black" stroke="#050505" stroke-width="5"/>
<path d="M73.75 23.9893C75.761 22.8283 78.239 22.8283 80.25 23.9893L97.9004 34.1807C99.9115 35.3418 101.15 37.4873 101.15 39.8096V60.1904C101.15 62.5127 99.9115 64.6582 97.9004 65.8193L80.25 76.0107C78.239 77.1717 75.761 77.1717 73.75 76.0107L56.0996 65.8193C54.0885 64.6582 52.8496 62.5127 52.8496 60.1904V39.8096C52.8496 37.4873 54.0885 35.3418 56.0996 34.1807L73.75 23.9893Z" fill="#EC272C" stroke="#F02E33" stroke-width="5"/>
<path d="M48.75 23.9893C50.761 22.8283 53.239 22.8283 55.25 23.9893L72.9004 34.1807C74.9115 35.3418 76.1504 37.4873 76.1504 39.8096V60.1904C76.1504 62.5127 74.9115 64.6582 72.9004 65.8193L55.25 76.0107C53.239 77.1717 50.761 77.1717 48.75 76.0107L31.0996 65.8193C29.0885 64.6582 27.8496 62.5127 27.8496 60.1904V39.8096C27.8496 37.4873 29.0885 35.3418 31.0996 34.1807L48.75 23.9893Z" fill="#EC272C" stroke="#F02E33" stroke-width="5"/>
<path d="M23.75 23.9893C25.761 22.8283 28.239 22.8283 30.25 23.9893L47.9004 34.1807C49.9115 35.3418 51.1504 37.4873 51.1504 39.8096V60.1904C51.1504 62.5127 49.9115 64.6582 47.9004 65.8193L30.25 76.0107C28.239 77.1717 25.761 77.1717 23.75 76.0107L6.09961 65.8193C4.0885 64.6582 2.84961 62.5127 2.84961 60.1904V39.8096C2.84961 37.4873 4.0885 35.3418 6.09961 34.1807L23.75 23.9893Z" fill="#EC272C" stroke="#F02E33" stroke-width="5"/>
<path d="M74.912 15.32C73.984 15.32 73.1893 15.1493 72.528 14.808C71.8773 14.4667 71.376 13.976 71.024 13.336C70.6827 12.6853 70.512 11.9013 70.512 10.984V10.344H73.456V11.08C73.456 11.5067 73.5787 11.8587 73.824 12.136C74.08 12.4027 74.4373 12.536 74.896 12.536C75.3547 12.536 75.7067 12.4027 75.952 12.136C76.208 11.8587 76.336 11.5067 76.336 11.08V5.592H79.312V10.984C79.312 11.9013 79.136 12.6853 78.784 13.336C78.4427 13.976 77.9467 14.4667 77.296 14.808C76.6453 15.1493 75.8507 15.32 74.912 15.32ZM71.824 5.912V3.32H79.312V5.912H71.824ZM86.6969 15V12.408H86.2169V9.64C86.2169 9.23467 86.1209 8.936 85.9289 8.744C85.7475 8.54133 85.4435 8.44 85.0169 8.44C84.8142 8.44 84.5155 8.44533 84.1209 8.456C83.7262 8.46667 83.3102 8.48267 82.8729 8.504C82.4355 8.52533 82.0355 8.54667 81.6729 8.568V6.136C81.9289 6.11467 82.2329 6.09333 82.5849 6.072C82.9369 6.05067 83.2995 6.03467 83.6729 6.024C84.0569 6.01333 84.4089 6.008 84.7289 6.008C85.6355 6.008 86.4035 6.14133 87.0329 6.408C87.6729 6.67467 88.1582 7.07467 88.4889 7.608C88.8302 8.14133 89.0009 8.81867 89.0009 9.64V15H86.6969ZM83.8969 15.224C83.2782 15.224 82.7289 15.112 82.2489 14.888C81.7689 14.664 81.3902 14.344 81.1129 13.928C80.8462 13.5013 80.7129 12.9947 80.7129 12.408C80.7129 11.7467 80.8889 11.2133 81.2409 10.808C81.5929 10.392 82.0782 10.088 82.6969 9.896C83.3155 9.704 84.0249 9.608 84.8249 9.608H86.5369V11.112H84.8249C84.4302 11.112 84.1262 11.2133 83.9129 11.416C83.6995 11.608 83.5929 11.8693 83.5929 12.2C83.5929 12.52 83.6995 12.7813 83.9129 12.984C84.1262 13.176 84.4302 13.272 84.8249 13.272C85.0809 13.272 85.3049 13.2293 85.4969 13.144C85.6995 13.048 85.8649 12.888 85.9929 12.664C86.1209 12.44 86.1955 12.1307 86.2169 11.736L86.8889 12.376C86.8355 12.984 86.6862 13.5013 86.4409 13.928C86.2062 14.344 85.8755 14.664 85.4489 14.888C85.0329 15.112 84.5155 15.224 83.8969 15.224ZM92.4231 15L89.8951 6.168H92.8711L95.2231 15H92.4231ZM93.3511 15V12.568H96.1831V15H93.3511ZM94.3751 15L96.3751 6.168H99.1591L96.9831 15H94.3751ZM105.697 15V12.408H105.217V9.64C105.217 9.23467 105.121 8.936 104.929 8.744C104.748 8.54133 104.444 8.44 104.017 8.44C103.814 8.44 103.516 8.44533 103.121 8.456C102.726 8.46667 102.31 8.48267 101.873 8.504C101.436 8.52533 101.036 8.54667 100.673 8.568V6.136C100.929 6.11467 101.233 6.09333 101.585 6.072C101.937 6.05067 102.3 6.03467 102.673 6.024C103.057 6.01333 103.409 6.008 103.729 6.008C104.636 6.008 105.404 6.14133 106.033 6.408C106.673 6.67467 107.158 7.07467 107.489 7.608C107.83 8.14133 108.001 8.81867 108.001 9.64V15H105.697ZM102.897 15.224C102.278 15.224 101.729 15.112 101.249 14.888C100.769 14.664 100.39 14.344 100.113 13.928C99.8462 13.5013 99.7129 12.9947 99.7129 12.408C99.7129 11.7467 99.8889 11.2133 100.241 10.808C100.593 10.392 101.078 10.088 101.697 9.896C102.316 9.704 103.025 9.608 103.825 9.608H105.537V11.112H103.825C103.43 11.112 103.126 11.2133 102.913 11.416C102.7 11.608 102.593 11.8693 102.593 12.2C102.593 12.52 102.7 12.7813 102.913 12.984C103.126 13.176 103.43 13.272 103.825 13.272C104.081 13.272 104.305 13.2293 104.497 13.144C104.7 13.048 104.865 12.888 104.993 12.664C105.121 12.44 105.196 12.1307 105.217 11.736L105.889 12.376C105.836 12.984 105.686 13.5013 105.441 13.928C105.206 14.344 104.876 14.664 104.449 14.888C104.033 15.112 103.516 15.224 102.897 15.224Z" fill="white"/>
</svg>
