<svg width="478" height="194" viewBox="0 0 478 194" fill="none" xmlns="http://www.w3.org/2000/svg">
<mask id="mask0_242_16" style="mask-type:alpha" maskUnits="userSpaceOnUse" x="0" y="0" width="478" height="194">
<rect width="478" height="194" fill="#8892BF"/>
</mask>
<g mask="url(#mask0_242_16)">
<rect width="478" height="194" fill="#3174B9"/>
<path fill-rule="evenodd" clip-rule="evenodd" d="M47.3221 118.914C47.3221 118.914 44.215 120.722 49.5356 121.333C55.9833 122.069 59.2766 121.963 66.3795 120.619C66.3795 120.619 68.2495 121.79 70.8599 122.803C54.9325 129.628 34.8136 122.408 47.3221 118.914ZM45.3751 110.008C45.3751 110.008 41.8895 112.588 47.2148 113.138C54.1024 113.85 59.5391 113.908 68.9527 112.097C68.9527 112.097 70.2525 113.416 72.298 114.137C53.0436 119.768 31.5992 114.58 45.3751 110.008Z" fill="white"/>
<path fill-rule="evenodd" clip-rule="evenodd" d="M61.781 94.8983C65.7073 99.4178 60.7518 103.482 60.7518 103.482C60.7518 103.482 70.7168 98.3394 66.1399 91.8965C61.8667 85.8909 58.5889 82.9073 76.3317 72.6184C76.3317 72.6184 48.4802 79.5715 61.781 94.8983Z" fill="#CA3132"/>
<path fill-rule="evenodd" clip-rule="evenodd" d="M82.8454 125.502C82.8454 125.502 85.1453 127.399 80.312 128.865C71.1211 131.649 42.0514 132.488 33.9767 128.976C31.0762 127.712 36.5183 125.961 38.2304 125.591C40.0161 125.205 41.0351 125.275 41.0351 125.275C37.8072 123.002 20.1711 129.74 32.0783 131.672C64.5472 136.937 91.2663 129.302 82.8454 125.502ZM48.8169 100.779C48.8169 100.779 34.0321 104.292 43.582 105.569C47.6157 106.108 55.6506 105.984 63.1408 105.356C69.2605 104.842 75.4031 103.743 75.4031 103.743C75.4031 103.743 73.2469 104.669 71.6846 105.733C56.6682 109.683 27.6641 107.844 36.0148 103.806C43.0752 100.391 48.8169 100.779 48.8169 100.779ZM75.3416 115.604C90.605 107.674 83.5479 100.052 78.6208 101.08C77.4162 101.331 76.8756 101.549 76.8756 101.549C76.8756 101.549 77.3251 100.845 78.1794 100.543C87.9251 97.1182 95.4187 110.647 75.0373 116.005C75.0366 116.005 75.2715 115.793 75.3416 115.604Z" fill="white"/>
<path fill-rule="evenodd" clip-rule="evenodd" d="M66.1399 56C66.1399 56 74.5912 64.4567 58.1219 77.4565C44.9142 87.8885 55.1107 93.8347 58.1179 100.631C50.4069 93.6755 44.7509 87.5511 48.545 81.8526C54.1153 73.4877 69.55 69.4311 66.1399 56Z" fill="#CA3132"/>
<path fill-rule="evenodd" clip-rule="evenodd" d="M50.3185 137.098C64.967 138.035 87.4662 136.578 88 129.645C88 129.645 86.9756 132.273 75.8923 134.357C63.3878 136.711 47.9625 136.437 38.8168 134.928C38.8168 134.928 40.6909 136.478 50.3185 137.098Z" fill="white"/>
<path d="M0.0701828 164L112.118 194.023L102.657 229.33L-9.39023 199.307L0.0701828 164Z" fill="#18005B"/>
<path d="M-1.6265 141.518L201.842 196.038L198.308 209.227L-5.1607 154.708L-1.6265 141.518Z" fill="#18005B"/>
<path d="M-2.84124 124.052L257.68 193.858L255.361 202.515L-5.1607 132.708L-2.84124 124.052Z" fill="#18005B"/>
<rect x="149" y="72" width="315" height="50" rx="8" stroke="#EBEBEB" stroke-width="8"/>
<rect x="155" y="78" width="59" height="38" rx="3" fill="white"/>
<rect x="216" y="78" width="59" height="38" rx="3" fill="white"/>
<path d="M431.22 169.04V179.1C431.22 179.727 431.107 180.3 430.88 180.82C430.667 181.327 430.353 181.76 429.94 182.12C429.54 182.48 429.053 182.76 428.48 182.96C427.907 183.147 427.267 183.24 426.56 183.24C425.133 183.24 424.027 182.887 423.24 182.18C422.467 181.46 421.973 180.52 421.76 179.36L424.6 178.78C424.707 179.38 424.907 179.867 425.2 180.24C425.507 180.613 425.96 180.8 426.56 180.8C427.067 180.8 427.46 180.64 427.74 180.32C428.033 179.987 428.18 179.48 428.18 178.8V171.5H423.58V169.04H431.22ZM442.732 183C442.119 183 441.626 182.847 441.252 182.54C440.879 182.22 440.659 181.767 440.592 181.18H440.492C440.306 181.86 439.932 182.373 439.372 182.72C438.826 183.067 438.152 183.24 437.352 183.24C436.352 183.24 435.546 182.973 434.932 182.44C434.332 181.893 434.032 181.133 434.032 180.16C434.032 179.08 434.426 178.28 435.212 177.76C435.999 177.24 437.152 176.98 438.672 176.98H440.332V176.46C440.332 175.847 440.186 175.387 439.892 175.08C439.612 174.76 439.132 174.6 438.452 174.6C437.826 174.6 437.319 174.72 436.932 174.96C436.546 175.2 436.212 175.513 435.932 175.9L434.312 174.46C434.659 173.873 435.199 173.393 435.932 173.02C436.679 172.633 437.632 172.44 438.792 172.44C440.206 172.44 441.306 172.767 442.092 173.42C442.892 174.06 443.292 175.033 443.292 176.34V180.86H444.432V183H442.732ZM438.472 181.3C438.992 181.3 439.432 181.173 439.792 180.92C440.152 180.667 440.332 180.3 440.332 179.82V178.58H438.752C437.539 178.58 436.932 178.987 436.932 179.8V180.2C436.932 180.56 437.072 180.833 437.352 181.02C437.632 181.207 438.006 181.3 438.472 181.3ZM449.224 183L445.524 172.68H448.644L449.984 177.1L450.964 180.54H451.124L452.104 177.1L453.444 172.68H456.444L452.744 183H449.224ZM466.717 183C466.103 183 465.61 182.847 465.237 182.54C464.863 182.22 464.643 181.767 464.577 181.18H464.477C464.29 181.86 463.917 182.373 463.357 182.72C462.81 183.067 462.137 183.24 461.337 183.24C460.337 183.24 459.53 182.973 458.917 182.44C458.317 181.893 458.017 181.133 458.017 180.16C458.017 179.08 458.41 178.28 459.197 177.76C459.983 177.24 461.137 176.98 462.657 176.98H464.317V176.46C464.317 175.847 464.17 175.387 463.877 175.08C463.597 174.76 463.117 174.6 462.437 174.6C461.81 174.6 461.303 174.72 460.917 174.96C460.53 175.2 460.197 175.513 459.917 175.9L458.297 174.46C458.643 173.873 459.183 173.393 459.917 173.02C460.663 172.633 461.617 172.44 462.777 172.44C464.19 172.44 465.29 172.767 466.077 173.42C466.877 174.06 467.277 175.033 467.277 176.34V180.86H468.417V183H466.717ZM462.457 181.3C462.977 181.3 463.417 181.173 463.777 180.92C464.137 180.667 464.317 180.3 464.317 179.82V178.58H462.737C461.523 178.58 460.917 178.987 460.917 179.8V180.2C460.917 180.56 461.057 180.833 461.337 181.02C461.617 181.207 461.99 181.3 462.457 181.3Z" fill="white"/>
</g>
</svg>
