<svg width="478" height="194" viewBox="0 0 478 194" fill="none" xmlns="http://www.w3.org/2000/svg">
<mask id="mask0_239_94" style="mask-type:alpha" maskUnits="userSpaceOnUse" x="0" y="0" width="478" height="194">
<rect width="478" height="194" fill="#8892BF"/>
</mask>
<g mask="url(#mask0_239_94)">
<rect width="478" height="194" fill="#FFC30D"/>
<path d="M0.0701828 164L112.118 194.023L102.657 229.33L-9.39023 199.307L0.0701828 164Z" fill="#18005B"/>
<path d="M-1.6265 141.518L201.842 196.038L198.308 209.227L-5.1607 154.708L-1.6265 141.518Z" fill="#18005B"/>
<path d="M-2.84124 124.052L257.68 193.858L255.361 202.515L-5.1607 132.708L-2.84124 124.052Z" fill="#18005B"/>
<path d="M90 67H30V127H90V67Z" fill="white"/>
<path d="M66.4286 116.903L70.8461 113.979C71.1924 115.067 73.3847 117.65 76.1539 117.65C78.9231 117.65 80.2089 116.138 80.2089 115.135C80.2089 112.402 77.3811 111.439 76.023 110.976C75.8014 110.901 75.6193 110.839 75.4946 110.785C75.4305 110.757 75.3339 110.72 75.2098 110.672C73.6993 110.095 68.1264 107.966 68.1264 101.794C68.1264 94.9964 74.6867 94.2147 76.1704 94.2147C77.1409 94.2147 81.8076 94.3336 84.1318 98.7012L79.8461 101.692C78.9066 99.7889 77.3456 99.1602 76.3847 99.1602C74.0111 99.1602 73.5165 100.9 73.5165 101.692C73.5165 103.915 76.0954 104.911 78.2728 105.752C78.8426 105.972 79.3847 106.182 79.8461 106.4C82.2197 107.521 85.7143 109.357 85.7143 115.135C85.7143 118.029 83.2869 122.715 77.1759 122.715C68.967 122.715 66.7911 117.786 66.4286 116.903Z" fill="#FFC30D"/>
<path d="M45 117.483L49.6044 114.561C49.965 115.648 51.3671 117.653 53.4011 117.653C55.4353 117.653 56.4765 115.564 56.4765 114.561V94.8576H62.139V114.561C62.2307 117.279 60.7234 122.715 54.0711 122.715C47.955 122.715 45.4123 119.08 45 117.483Z" fill="#FFC30D"/>
<rect x="149" y="72" width="315" height="50" rx="8" stroke="#EBEBEB" stroke-width="8"/>
<rect x="155" y="78" width="59" height="38" rx="3" fill="white"/>
<rect x="216" y="78" width="59" height="38" rx="3" fill="white"/>
<rect x="277" y="78" width="59" height="38" rx="3" fill="white"/>
<rect x="338" y="78" width="59" height="38" rx="3" fill="white"/>
<path d="M360.22 170.04V180.1C360.22 180.727 360.107 181.3 359.88 181.82C359.667 182.327 359.353 182.76 358.94 183.12C358.54 183.48 358.053 183.76 357.48 183.96C356.907 184.147 356.267 184.24 355.56 184.24C354.133 184.24 353.027 183.887 352.24 183.18C351.467 182.46 350.973 181.52 350.76 180.36L353.6 179.78C353.707 180.38 353.907 180.867 354.2 181.24C354.507 181.613 354.96 181.8 355.56 181.8C356.067 181.8 356.46 181.64 356.74 181.32C357.033 180.987 357.18 180.48 357.18 179.8V172.5H352.58V170.04H360.22ZM371.732 184C371.119 184 370.626 183.847 370.252 183.54C369.879 183.22 369.659 182.767 369.592 182.18H369.492C369.306 182.86 368.932 183.373 368.372 183.72C367.826 184.067 367.152 184.24 366.352 184.24C365.352 184.24 364.546 183.973 363.932 183.44C363.332 182.893 363.032 182.133 363.032 181.16C363.032 180.08 363.426 179.28 364.212 178.76C364.999 178.24 366.152 177.98 367.672 177.98H369.332V177.46C369.332 176.847 369.186 176.387 368.892 176.08C368.612 175.76 368.132 175.6 367.452 175.6C366.826 175.6 366.319 175.72 365.932 175.96C365.546 176.2 365.212 176.513 364.932 176.9L363.312 175.46C363.659 174.873 364.199 174.393 364.932 174.02C365.679 173.633 366.632 173.44 367.792 173.44C369.206 173.44 370.306 173.767 371.092 174.42C371.892 175.06 372.292 176.033 372.292 177.34V181.86H373.432V184H371.732ZM367.472 182.3C367.992 182.3 368.432 182.173 368.792 181.92C369.152 181.667 369.332 181.3 369.332 180.82V179.58H367.752C366.539 179.58 365.932 179.987 365.932 180.8V181.2C365.932 181.56 366.072 181.833 366.352 182.02C366.632 182.207 367.006 182.3 367.472 182.3ZM378.224 184L374.524 173.68H377.644L378.984 178.1L379.964 181.54H380.124L381.104 178.1L382.444 173.68H385.444L381.744 184H378.224ZM395.717 184C395.103 184 394.61 183.847 394.237 183.54C393.863 183.22 393.643 182.767 393.577 182.18H393.477C393.29 182.86 392.917 183.373 392.357 183.72C391.81 184.067 391.137 184.24 390.337 184.24C389.337 184.24 388.53 183.973 387.917 183.44C387.317 182.893 387.017 182.133 387.017 181.16C387.017 180.08 387.41 179.28 388.197 178.76C388.983 178.24 390.137 177.98 391.657 177.98H393.317V177.46C393.317 176.847 393.17 176.387 392.877 176.08C392.597 175.76 392.117 175.6 391.437 175.6C390.81 175.6 390.303 175.72 389.917 175.96C389.53 176.2 389.197 176.513 388.917 176.9L387.297 175.46C387.643 174.873 388.183 174.393 388.917 174.02C389.663 173.633 390.617 173.44 391.777 173.44C393.19 173.44 394.29 173.767 395.077 174.42C395.877 175.06 396.277 176.033 396.277 177.34V181.86H397.417V184H395.717ZM391.457 182.3C391.977 182.3 392.417 182.173 392.777 181.92C393.137 181.667 393.317 181.3 393.317 180.82V179.58H391.737C390.523 179.58 389.917 179.987 389.917 180.8V181.2C389.917 181.56 390.057 181.833 390.337 182.02C390.617 182.207 390.99 182.3 391.457 182.3ZM403.849 184.24C402.702 184.24 401.702 184.067 400.849 183.72C400.009 183.373 399.375 182.9 398.949 182.3L400.609 180.76C401.009 181.2 401.475 181.547 402.009 181.8C402.555 182.04 403.175 182.16 403.869 182.16C404.455 182.16 404.915 182.073 405.249 181.9C405.582 181.713 405.749 181.433 405.749 181.06C405.749 180.767 405.635 180.567 405.409 180.46C405.182 180.34 404.869 180.247 404.469 180.18L402.809 179.92C402.342 179.853 401.909 179.753 401.509 179.62C401.109 179.473 400.762 179.28 400.469 179.04C400.175 178.8 399.942 178.507 399.769 178.16C399.595 177.813 399.509 177.393 399.509 176.9C399.509 175.82 399.922 174.973 400.749 174.36C401.575 173.747 402.735 173.44 404.229 173.44C405.242 173.44 406.102 173.58 406.809 173.86C407.529 174.127 408.102 174.513 408.529 175.02L407.049 176.7C406.742 176.367 406.349 176.087 405.869 175.86C405.389 175.633 404.809 175.52 404.129 175.52C402.982 175.52 402.409 175.867 402.409 176.56C402.409 176.867 402.522 177.08 402.749 177.2C402.975 177.307 403.289 177.393 403.689 177.46L405.329 177.72C405.795 177.787 406.229 177.893 406.629 178.04C407.029 178.173 407.375 178.36 407.669 178.6C407.975 178.84 408.215 179.133 408.389 179.48C408.562 179.827 408.649 180.247 408.649 180.74C408.649 181.82 408.229 182.673 407.389 183.3C406.562 183.927 405.382 184.24 403.849 184.24ZM416.381 184.24C415.568 184.24 414.834 184.12 414.181 183.88C413.541 183.627 412.994 183.267 412.541 182.8C412.101 182.333 411.761 181.767 411.521 181.1C411.281 180.433 411.161 179.68 411.161 178.84C411.161 178 411.281 177.247 411.521 176.58C411.761 175.913 412.101 175.347 412.541 174.88C412.994 174.413 413.541 174.06 414.181 173.82C414.834 173.567 415.561 173.44 416.361 173.44C417.494 173.44 418.401 173.673 419.081 174.14C419.774 174.593 420.301 175.2 420.661 175.96L418.381 177.2C418.194 176.8 417.948 176.467 417.641 176.2C417.348 175.933 416.921 175.8 416.361 175.8C415.681 175.8 415.154 176 414.781 176.4C414.421 176.787 414.241 177.32 414.241 178V179.68C414.241 180.36 414.421 180.9 414.781 181.3C415.154 181.687 415.694 181.88 416.401 181.88C416.974 181.88 417.421 181.747 417.741 181.48C418.074 181.213 418.354 180.867 418.581 180.44L420.821 181.72C420.448 182.48 419.901 183.093 419.181 183.56C418.474 184.013 417.541 184.24 416.381 184.24ZM423.433 181.7H425.813V175.98H423.433V173.68H428.773V176.6H428.913C429.006 176.227 429.133 175.867 429.293 175.52C429.466 175.16 429.68 174.847 429.933 174.58C430.2 174.3 430.52 174.08 430.893 173.92C431.266 173.76 431.706 173.68 432.213 173.68H433.193V176.4H430.993C430.26 176.4 429.706 176.62 429.333 177.06C428.96 177.487 428.773 178.013 428.773 178.64V181.7H432.173V184H423.433V181.7ZM440.585 172.36C439.919 172.36 439.452 172.227 439.185 171.96C438.932 171.68 438.805 171.347 438.805 170.96V170.38C438.805 169.98 438.932 169.647 439.185 169.38C439.452 169.113 439.919 168.98 440.585 168.98C441.252 168.98 441.712 169.113 441.965 169.38C442.232 169.647 442.365 169.98 442.365 170.38V170.96C442.365 171.347 442.232 171.68 441.965 171.96C441.712 172.227 441.252 172.36 440.585 172.36ZM435.825 181.7H439.105V175.98H435.825V173.68H442.065V181.7H445.105V184H435.825V181.7ZM447.118 173.68H450.078V175.56H450.218C450.471 174.947 450.838 174.44 451.318 174.04C451.798 173.64 452.451 173.44 453.278 173.44C453.851 173.44 454.371 173.547 454.838 173.76C455.318 173.973 455.724 174.3 456.058 174.74C456.404 175.18 456.671 175.74 456.858 176.42C457.058 177.1 457.158 177.907 457.158 178.84C457.158 179.773 457.058 180.58 456.858 181.26C456.671 181.94 456.404 182.5 456.058 182.94C455.724 183.38 455.318 183.707 454.838 183.92C454.371 184.133 453.851 184.24 453.278 184.24C452.451 184.24 451.798 184.047 451.318 183.66C450.838 183.26 450.471 182.747 450.218 182.12H450.078V188H447.118V173.68ZM451.998 181.94C452.664 181.94 453.178 181.74 453.538 181.34C453.898 180.927 454.078 180.36 454.078 179.64V178.04C454.078 177.32 453.898 176.76 453.538 176.36C453.178 175.947 452.664 175.74 451.998 175.74C451.478 175.74 451.024 175.867 450.638 176.12C450.264 176.373 450.078 176.773 450.078 177.32V180.36C450.078 180.907 450.264 181.307 450.638 181.56C451.024 181.813 451.478 181.94 451.998 181.94ZM464.73 184C463.663 184 462.87 183.72 462.35 183.16C461.83 182.6 461.57 181.887 461.57 181.02V175.98H458.77V173.68H460.59C461.03 173.68 461.343 173.593 461.53 173.42C461.716 173.247 461.81 172.927 461.81 172.46V170.04H464.53V173.68H468.55V175.98H464.53V181.7H468.55V184H464.73Z" fill="white"/>
</g>
</svg>
