<svg width="179" height="81" viewBox="0 0 179 81" fill="none" xmlns="http://www.w3.org/2000/svg">
<path d="M148.75 24.9893C150.761 23.8283 153.239 23.8283 155.25 24.9893L172.9 35.1807C174.911 36.3418 176.15 38.4873 176.15 40.8096V61.1904C176.15 63.5127 174.911 65.6582 172.9 66.8193L155.25 77.0107C153.239 78.1717 150.761 78.1717 148.75 77.0107L131.1 66.8193C129.089 65.6582 127.85 63.5127 127.85 61.1904V40.8096C127.85 38.4873 129.089 36.3418 131.1 35.1807L148.75 24.9893Z" fill="black" stroke="#050505" stroke-width="5"/>
<path d="M123.75 24.9893C125.761 23.8283 128.239 23.8283 130.25 24.9893L147.9 35.1807C149.911 36.3418 151.15 38.4873 151.15 40.8096V61.1904C151.15 63.5127 149.911 65.6582 147.9 66.8193L130.25 77.0107C128.239 78.1717 125.761 78.1717 123.75 77.0107L106.1 66.8193C104.089 65.6582 102.85 63.5127 102.85 61.1904V40.8096C102.85 38.4873 104.089 36.3418 106.1 35.1807L123.75 24.9893Z" fill="#FCA326" stroke="#FF9D14" stroke-width="5"/>
<path d="M98.75 24.9893C100.761 23.8283 103.239 23.8283 105.25 24.9893L122.9 35.1807C124.911 36.3418 126.15 38.4873 126.15 40.8096V61.1904C126.15 63.5127 124.911 65.6582 122.9 66.8193L105.25 77.0107C103.239 78.1717 100.761 78.1717 98.75 77.0107L81.0996 66.8193C79.0885 65.6582 77.8496 63.5127 77.8496 61.1904V40.8096C77.8496 38.4873 79.0885 36.3418 81.0996 35.1807L98.75 24.9893Z" fill="#FCA326" stroke="#FF9D14" stroke-width="5"/>
<path d="M73.75 24.9893C75.761 23.8283 78.239 23.8283 80.25 24.9893L97.9004 35.1807C99.9115 36.3418 101.15 38.4873 101.15 40.8096V61.1904C101.15 63.5127 99.9115 65.6582 97.9004 66.8193L80.25 77.0107C78.239 78.1717 75.761 78.1717 73.75 77.0107L56.0996 66.8193C54.0885 65.6582 52.8496 63.5127 52.8496 61.1904V40.8096C52.8496 38.4873 54.0885 36.3418 56.0996 35.1807L73.75 24.9893Z" fill="#FCA326" stroke="#FF9D14" stroke-width="5"/>
<path d="M48.75 24.9893C50.761 23.8283 53.239 23.8283 55.25 24.9893L72.9004 35.1807C74.9115 36.3418 76.1504 38.4873 76.1504 40.8096V61.1904C76.1504 63.5127 74.9115 65.6582 72.9004 66.8193L55.25 77.0107C53.239 78.1717 50.761 78.1717 48.75 77.0107L31.0996 66.8193C29.0885 65.6582 27.8496 63.5127 27.8496 61.1904V40.8096C27.8496 38.4873 29.0885 36.3418 31.0996 35.1807L48.75 24.9893Z" fill="#FCA326" stroke="#FF9D14" stroke-width="5"/>
<path d="M23.75 24.9893C25.761 23.8283 28.239 23.8283 30.25 24.9893L47.9004 35.1807C49.9115 36.3418 51.1504 38.4873 51.1504 40.8096V61.1904C51.1504 63.5127 49.9115 65.6582 47.9004 66.8193L30.25 77.0107C28.239 78.1717 25.761 78.1717 23.75 77.0107L6.09961 66.8193C4.0885 65.6582 2.84961 63.5127 2.84961 61.1904V40.8096C2.84961 38.4873 4.0885 36.3418 6.09961 35.1807L23.75 24.9893Z" fill="#FCA326" stroke="#FF9D14" stroke-width="5"/>
<path d="M69.912 15.32C68.984 15.32 68.1893 15.1493 67.528 14.808C66.8773 14.4667 66.376 13.976 66.024 13.336C65.6827 12.6853 65.512 11.9013 65.512 10.984V10.344H68.456V11.08C68.456 11.5067 68.5787 11.8587 68.824 12.136C69.08 12.4027 69.4373 12.536 69.896 12.536C70.3547 12.536 70.7067 12.4027 70.952 12.136C71.208 11.8587 71.336 11.5067 71.336 11.08V5.592H74.312V10.984C74.312 11.9013 74.136 12.6853 73.784 13.336C73.4427 13.976 72.9467 14.4667 72.296 14.808C71.6453 15.1493 70.8507 15.32 69.912 15.32ZM66.824 5.912V3.32H74.312V5.912H66.824ZM80.6409 15.32C79.5529 15.32 78.6355 15.1493 77.8889 14.808C77.1529 14.4667 76.5929 14.0027 76.2089 13.416C75.8355 12.8187 75.6489 12.136 75.6489 11.368H78.5289C78.5289 11.6453 78.6035 11.9013 78.7529 12.136C78.9129 12.36 79.1475 12.536 79.4569 12.664C79.7662 12.792 80.1609 12.856 80.6409 12.856C81.0569 12.856 81.4089 12.8027 81.6969 12.696C81.9955 12.5893 82.2195 12.44 82.3689 12.248C82.5289 12.056 82.6089 11.8267 82.6089 11.56C82.6089 11.2187 82.4649 10.9573 82.1769 10.776C81.8889 10.584 81.4035 10.4613 80.7209 10.408L79.9689 10.344C78.7635 10.2373 77.8035 9.85867 77.0889 9.208C76.3742 8.55733 76.0169 7.69333 76.0169 6.616C76.0169 5.848 76.1929 5.192 76.5449 4.648C76.9075 4.104 77.4142 3.688 78.0649 3.4C78.7155 3.112 79.4835 2.968 80.3689 2.968C81.3289 2.968 82.1395 3.128 82.8009 3.448C83.4729 3.768 83.9849 4.22133 84.3369 4.808C84.6889 5.384 84.8649 6.056 84.8649 6.824H81.9849C81.9849 6.568 81.9209 6.33333 81.7929 6.12C81.6649 5.90667 81.4782 5.74133 81.2329 5.624C80.9982 5.496 80.7102 5.432 80.3689 5.432C80.0489 5.432 79.7769 5.48533 79.5529 5.592C79.3395 5.688 79.1742 5.82667 79.0569 6.008C78.9502 6.18933 78.8969 6.392 78.8969 6.616C78.8969 6.91467 78.9982 7.17067 79.2009 7.384C79.4035 7.59733 79.7555 7.72533 80.2569 7.768L81.0089 7.832C81.8835 7.90667 82.6569 8.09867 83.3289 8.408C84.0009 8.70667 84.5289 9.11733 84.9129 9.64C85.2969 10.1627 85.4889 10.8027 85.4889 11.56C85.4889 12.3173 85.2915 12.9787 84.8969 13.544C84.5129 14.1093 83.9582 14.5467 83.2329 14.856C82.5182 15.1653 81.6542 15.32 80.6409 15.32ZM86.0998 15.96L89.4278 2.52H92.4358L89.1078 15.96H86.0998ZM96.2075 15V5.592H99.1835V15H96.2075ZM93.0075 5.912V3.32H102.384V5.912H93.0075ZM107.797 15.32C106.709 15.32 105.792 15.1493 105.045 14.808C104.309 14.4667 103.749 14.0027 103.365 13.416C102.992 12.8187 102.805 12.136 102.805 11.368H105.685C105.685 11.6453 105.76 11.9013 105.909 12.136C106.069 12.36 106.304 12.536 106.613 12.664C106.922 12.792 107.317 12.856 107.797 12.856C108.213 12.856 108.565 12.8027 108.853 12.696C109.152 12.5893 109.376 12.44 109.525 12.248C109.685 12.056 109.765 11.8267 109.765 11.56C109.765 11.2187 109.621 10.9573 109.333 10.776C109.045 10.584 108.56 10.4613 107.877 10.408L107.125 10.344C105.92 10.2373 104.96 9.85867 104.245 9.208C103.53 8.55733 103.173 7.69333 103.173 6.616C103.173 5.848 103.349 5.192 103.701 4.648C104.064 4.104 104.57 3.688 105.221 3.4C105.872 3.112 106.64 2.968 107.525 2.968C108.485 2.968 109.296 3.128 109.957 3.448C110.629 3.768 111.141 4.22133 111.493 4.808C111.845 5.384 112.021 6.056 112.021 6.824H109.141C109.141 6.568 109.077 6.33333 108.949 6.12C108.821 5.90667 108.634 5.74133 108.389 5.624C108.154 5.496 107.866 5.432 107.525 5.432C107.205 5.432 106.933 5.48533 106.709 5.592C106.496 5.688 106.33 5.82667 106.213 6.008C106.106 6.18933 106.053 6.392 106.053 6.616C106.053 6.91467 106.154 7.17067 106.357 7.384C106.56 7.59733 106.912 7.72533 107.413 7.768L108.165 7.832C109.04 7.90667 109.813 8.09867 110.485 8.408C111.157 8.70667 111.685 9.11733 112.069 9.64C112.453 10.1627 112.645 10.8027 112.645 11.56C112.645 12.3173 112.448 12.9787 112.053 13.544C111.669 14.1093 111.114 14.5467 110.389 14.856C109.674 15.1653 108.81 15.32 107.797 15.32Z" fill="white"/>
</svg>
