<svg width="780" height="220" viewBox="0 0 780 220" fill="none" xmlns="http://www.w3.org/2000/svg">
<rect width="780.004" height="219.554" fill="#3D2897"/>
<path d="M263.061 151.777H200.189V67.7539H228.666V130.801C229.447 129.199 231.361 128.398 234.408 128.398H263.061V151.777ZM288.607 153.242C285.443 153.242 282.494 152.852 279.76 152.07C277.064 151.289 274.623 150.117 272.436 148.555C270.248 146.992 268.529 144.883 267.279 142.227C266.029 139.531 265.404 136.426 265.404 132.91C265.404 129.395 266.088 126.25 267.455 123.477C268.861 120.703 270.678 118.457 272.904 116.738C275.131 115.02 277.787 113.594 280.873 112.461C283.998 111.328 287.143 110.547 290.307 110.117C293.471 109.648 296.811 109.414 300.326 109.414C304.623 109.414 308.744 109.727 312.689 110.352V109.297C310.932 105.781 306.166 104.023 298.393 104.023C294.174 104.023 289.838 104.785 285.385 106.309C280.971 107.793 277.162 109.707 273.959 112.051H272.377V84.8047C276.244 82.9688 280.775 81.4453 285.971 80.2344C291.205 78.9844 296.596 78.3594 302.143 78.3594C313.9 78.3594 323.217 81.5039 330.092 87.793C336.967 94.043 340.404 102.441 340.404 112.988V151.777H313.158V149.492L316.674 120.195H315.326C314.975 131.289 312.475 139.57 307.826 145.039C303.178 150.508 296.771 153.242 288.607 153.242ZM298.51 133.203C301.947 133.203 304.721 131.973 306.83 129.512C308.979 127.012 310.209 123.867 310.521 120.078H305.248C300.365 120.078 296.869 120.84 294.76 122.363C292.65 123.887 291.596 125.723 291.596 127.871C291.596 129.59 292.26 130.918 293.588 131.855C294.916 132.754 296.557 133.203 298.51 133.203ZM389.506 147.207C385.131 151.23 379.291 153.242 371.986 153.242C364.682 153.242 358.998 151.016 354.936 146.562C350.873 142.07 348.842 136.133 348.842 128.75V96.6992H341.166V80.6445C346.205 80.6445 349.896 79.6875 352.24 77.7734C354.623 75.8203 355.814 72.4805 355.814 67.7539H377.143V79.7656H389.506V98.9844L377.143 97.0508V119.961C377.143 122.617 377.592 124.668 378.49 126.113C379.389 127.559 380.951 128.281 383.178 128.281C385.092 128.281 386.713 127.266 388.041 125.234H389.506V147.207ZM442.123 147.207C437.748 151.23 431.908 153.242 424.604 153.242C417.299 153.242 411.615 151.016 407.553 146.562C403.49 142.07 401.459 136.133 401.459 128.75V96.6992H393.783V80.6445C398.822 80.6445 402.514 79.6875 404.857 77.7734C407.24 75.8203 408.432 72.4805 408.432 67.7539H429.76V79.7656H442.123V98.9844L429.76 97.0508V119.961C429.76 122.617 430.209 124.668 431.107 126.113C432.006 127.559 433.568 128.281 435.795 128.281C437.709 128.281 439.33 127.266 440.658 125.234H442.123V147.207ZM485.189 153.242C479.174 153.242 473.607 152.285 468.49 150.371C463.373 148.418 459.076 145.762 455.6 142.402C452.162 139.043 449.467 135.059 447.514 130.449C445.561 125.84 444.584 120.918 444.584 115.684C444.584 110.566 445.482 105.723 447.279 101.152C449.076 96.582 451.576 92.6172 454.779 89.2578C457.982 85.8984 461.908 83.2422 466.557 81.2891C471.244 79.3359 476.322 78.3594 481.791 78.3594C486.4 78.3594 490.736 79.043 494.799 80.4102C498.9 81.7383 502.514 83.6523 505.639 86.1523C508.764 88.6523 511.225 91.8555 513.021 95.7617C514.857 99.668 515.775 104.023 515.775 108.828C515.775 111.445 515.463 114.473 514.838 117.91L470.424 115.918C470.854 119.863 472.65 122.793 475.814 124.707C479.018 126.582 483.021 127.52 487.826 127.52C496.576 127.52 504.252 125.156 510.854 120.43H512.436V146.973C509.428 148.809 505.541 150.312 500.775 151.484C496.01 152.656 490.814 153.242 485.189 153.242ZM471.361 109.414L491.635 108.359C491.049 106.562 489.916 105.156 488.236 104.141C486.596 103.086 484.584 102.559 482.201 102.559C479.857 102.559 477.709 103.145 475.756 104.316C473.803 105.449 472.338 107.148 471.361 109.414ZM547.592 153.242C536.693 153.242 527.064 151.152 518.705 146.973V117.91H520.521C528.139 125.527 537.455 129.336 548.471 129.336C550.658 129.336 552.377 129.102 553.627 128.633C554.916 128.164 555.561 127.52 555.561 126.699C555.561 126.152 555.014 125.703 553.92 125.352C552.826 124.961 551.381 124.648 549.584 124.414C547.826 124.18 545.814 123.848 543.549 123.418C541.283 122.949 538.959 122.441 536.576 121.895C534.193 121.348 531.869 120.508 529.604 119.375C527.338 118.242 525.307 116.934 523.51 115.449C521.752 113.926 520.326 111.953 519.232 109.531C518.139 107.109 517.592 104.355 517.592 101.27C517.592 97.5195 518.471 94.1602 520.229 91.1914C522.025 88.1836 524.428 85.7617 527.436 83.9258C530.443 82.0898 533.822 80.7031 537.572 79.7656C541.361 78.8281 545.385 78.3594 549.643 78.3594C559.838 78.3594 569.447 80.7617 578.471 85.5664V111.113H576.889C573.373 108.027 569.037 105.566 563.881 103.73C558.725 101.855 553.51 100.918 548.236 100.918C543.197 100.918 540.678 101.875 540.678 103.789C540.678 104.531 541.439 105.156 542.963 105.664C544.525 106.133 546.537 106.543 548.998 106.895C551.459 107.246 554.174 107.656 557.143 108.125C560.15 108.594 563.139 109.316 566.107 110.293C569.115 111.27 571.85 112.461 574.311 113.867C576.771 115.273 578.764 117.246 580.287 119.785C581.85 122.285 582.631 125.195 582.631 128.516C582.631 134.141 581.088 138.848 578.002 142.637C574.916 146.387 570.814 149.102 565.697 150.781C560.58 152.422 554.545 153.242 547.592 153.242Z" fill="white"/>
</svg>
