<svg width="109" height="30" viewBox="0 0 109 30" fill="none" xmlns="http://www.w3.org/2000/svg">
<rect x="1" y="1" width="107" height="28" rx="9" fill="#2087BD" fill-opacity="0.4" stroke="#2087BD" stroke-width="2"/>
<path d="M31.184 22V10.32H34.16V22H31.184ZM33.84 22V19.408H38.576V22H33.84ZM40.4564 22V13.168H43.3684V22H40.4564ZM39.3364 15.28V13.168H43.3684V15.28H39.3364ZM41.6564 12.464C41.123 12.464 40.7284 12.3307 40.4724 12.064C40.227 11.7867 40.1044 11.4347 40.1044 11.008C40.1044 10.5813 40.227 10.2347 40.4724 9.968C40.7284 9.69067 41.1177 9.552 41.6404 9.552C42.1737 9.552 42.563 9.69067 42.8084 9.968C43.0537 10.2347 43.1764 10.5813 43.1764 11.008C43.1764 11.4347 43.0537 11.7867 42.8084 12.064C42.563 12.3307 42.179 12.464 41.6564 12.464ZM45.5091 22V13.168H47.8131V16.96H47.6851C47.6851 16.0427 47.8025 15.2853 48.0371 14.688C48.2718 14.08 48.6185 13.6267 49.0771 13.328C49.5465 13.0293 50.1118 12.88 50.7731 12.88H50.9011C51.9038 12.88 52.6771 13.216 53.2211 13.888C53.7758 14.5493 54.0531 15.568 54.0531 16.944V22H51.1411V16.864C51.1411 16.4587 51.0185 16.128 50.7731 15.872C50.5385 15.6053 50.2131 15.472 49.7971 15.472C49.3811 15.472 49.0451 15.6053 48.7891 15.872C48.5438 16.128 48.4211 16.4693 48.4211 16.896V22H45.5091ZM62.2811 22L59.6731 17.872H58.4891L61.9451 13.168H64.9851L61.7051 17.6V16.192L65.5291 22H62.2811ZM56.0091 22V10.32H58.9211V22H56.0091ZM70.3406 22.32C69.594 22.32 68.9326 22.192 68.3566 21.936C67.7806 21.68 67.2953 21.3333 66.9006 20.896C66.506 20.4587 66.202 19.968 65.9886 19.424C65.786 18.88 65.6846 18.32 65.6846 17.744V17.424C65.6846 16.8267 65.786 16.256 65.9886 15.712C66.202 15.1573 66.5006 14.6667 66.8846 14.24C67.2793 13.8133 67.7593 13.4773 68.3246 13.232C68.89 12.976 69.53 12.848 70.2446 12.848C71.194 12.848 71.9993 13.0613 72.6606 13.488C73.322 13.9147 73.8286 14.48 74.1806 15.184C74.5326 15.8773 74.7086 16.6347 74.7086 17.456V18.384H66.9006V16.816H73.0286L72.0206 17.52C72.0206 17.0187 71.9513 16.5973 71.8126 16.256C71.6846 15.904 71.4873 15.6373 71.2206 15.456C70.9646 15.2747 70.6393 15.184 70.2446 15.184C69.8606 15.184 69.5246 15.2747 69.2366 15.456C68.9593 15.6267 68.746 15.8933 68.5966 16.256C68.4473 16.608 68.3726 17.056 68.3726 17.6C68.3726 18.0907 68.442 18.5173 68.5806 18.88C68.7193 19.232 68.9326 19.504 69.2206 19.696C69.5086 19.888 69.882 19.984 70.3406 19.984C70.746 19.984 71.0766 19.9147 71.3326 19.776C71.5993 19.6373 71.786 19.4507 71.8926 19.216H74.5486C74.4206 19.8133 74.1646 20.3467 73.7806 20.816C73.4073 21.2853 72.9273 21.6533 72.3406 21.92C71.7646 22.1867 71.098 22.32 70.3406 22.32ZM79.8755 22.288C79.2568 22.288 78.6915 22.176 78.1795 21.952C77.6782 21.728 77.2408 21.4187 76.8675 21.024C76.5048 20.6187 76.2222 20.144 76.0195 19.6C75.8275 19.056 75.7315 18.464 75.7315 17.824V17.44C75.7315 16.8 75.8222 16.208 76.0035 15.664C76.1955 15.1093 76.4675 14.6293 76.8195 14.224C77.1715 13.808 77.5982 13.488 78.0995 13.264C78.6008 13.0293 79.1608 12.912 79.7795 12.912C80.4942 12.912 81.1022 13.072 81.6035 13.392C82.1155 13.7013 82.5048 14.1547 82.7715 14.752C83.0488 15.3493 83.1982 16.0747 83.2195 16.928L82.5475 16.432V10.32H85.4595V22H83.1555V18.416H83.4755C83.4542 19.2053 83.2942 19.8933 82.9955 20.48C82.6968 21.056 82.2808 21.504 81.7475 21.824C81.2248 22.1333 80.6008 22.288 79.8755 22.288ZM80.6595 19.888C81.0115 19.888 81.3315 19.808 81.6195 19.648C81.9182 19.488 82.1582 19.2533 82.3395 18.944C82.5208 18.6347 82.6115 18.2613 82.6115 17.824V17.28C82.6115 16.8533 82.5155 16.496 82.3235 16.208C82.1422 15.92 81.9022 15.7013 81.6035 15.552C81.3155 15.392 81.0008 15.312 80.6595 15.312C80.2755 15.312 79.9288 15.4133 79.6195 15.616C79.3208 15.808 79.0808 16.08 78.8995 16.432C78.7288 16.7733 78.6435 17.1733 78.6435 17.632C78.6435 18.0907 78.7288 18.4907 78.8995 18.832C79.0808 19.1627 79.3208 19.424 79.6195 19.616C79.9288 19.7973 80.2755 19.888 80.6595 19.888ZM87.7316 22V10.32H90.7076V22H87.7316ZM92.9779 22V13.168H95.2819V16.96H95.1539C95.1539 16.0427 95.2712 15.2853 95.5059 14.688C95.7405 14.08 96.0872 13.6267 96.5459 13.328C97.0152 13.0293 97.5805 12.88 98.2419 12.88H98.3699C99.3725 12.88 100.146 13.216 100.69 13.888C101.245 14.5493 101.522 15.568 101.522 16.944V22H98.6099V16.864C98.6099 16.4587 98.4872 16.128 98.2419 15.872C98.0072 15.6053 97.6819 15.472 97.2659 15.472C96.8499 15.472 96.5139 15.6053 96.2579 15.872C96.0125 16.128 95.8899 16.4693 95.8899 16.896V22H92.9779Z" fill="white"/>
<path d="M14 7.57735C14.6188 7.22008 15.3812 7.22008 16 7.57735L20.9282 10.4226C21.547 10.7799 21.9282 11.4402 21.9282 12.1547V17.8453C21.9282 18.5598 21.547 19.2201 20.9282 19.5774L16 22.4226C15.3812 22.7799 14.6188 22.7799 14 22.4226L9.0718 19.5774C8.45299 19.2201 8.0718 18.5598 8.0718 17.8453V12.1547C8.0718 11.4402 8.45299 10.7799 9.0718 10.4226L14 7.57735Z" fill="#2087BD"/>
</svg>
