<svg width="780" height="220" viewBox="0 0 780 220" fill="none" xmlns="http://www.w3.org/2000/svg">
<rect width="780.004" height="219.554" fill="#5E2748"/>
<path d="M196.936 151.777H134.064V67.7539H162.541V130.801C163.322 129.199 165.236 128.398 168.283 128.398H196.936V151.777ZM215.979 89.7266C211.213 89.7266 207.346 88.3203 204.377 85.5078C201.447 82.6562 199.982 79.1797 199.982 75.0781C199.982 70.9766 201.467 67.5 204.436 64.6484C207.443 61.7578 211.291 60.3125 215.979 60.3125C220.627 60.3125 224.416 61.7578 227.346 64.6484C230.314 67.5 231.799 70.9766 231.799 75.0781C231.799 79.2188 230.334 82.6953 227.404 85.5078C224.514 88.3203 220.705 89.7266 215.979 89.7266ZM230.1 151.777H201.682V87.4414H202.619C205.939 90.6445 210.393 92.2461 215.979 92.2461C221.447 92.2461 225.842 90.6445 229.162 87.4414H230.1V151.777ZM263.029 151.777H234.963V79.7656H263.381L258.869 120.723H260.041C261.682 105.059 264.436 94.082 268.303 87.793C272.209 81.5039 278.342 78.3594 286.701 78.3594C293.85 78.3594 299.338 80.918 303.166 86.0352C306.994 91.1523 308.908 99.3945 308.908 110.762V151.777H280.783V126.23C280.783 124.355 280.764 122.812 280.725 121.602C280.686 120.352 280.588 118.945 280.432 117.383C280.275 115.781 280.021 114.492 279.67 113.516C279.357 112.5 278.928 111.523 278.381 110.586C277.834 109.648 277.111 108.965 276.213 108.535C275.314 108.066 274.279 107.832 273.107 107.832C271.623 107.832 270.314 108.125 269.182 108.711C268.088 109.297 267.17 110.234 266.428 111.523C265.686 112.773 265.08 114.16 264.611 115.684C264.182 117.207 263.85 119.18 263.615 121.602C263.381 123.984 263.225 126.309 263.146 128.574C263.068 130.84 263.029 133.613 263.029 136.895V151.777ZM342.014 151.777H313.713V61.7773H342.131L338.205 116.27H339.377C340.158 110.996 341.291 106.133 342.775 101.68C344.26 97.2266 345.783 93.7109 347.346 91.1328C348.947 88.5547 350.49 86.3672 351.975 84.5703C353.459 82.7344 354.67 81.4648 355.607 80.7617L357.014 79.7656H388.244V81.8164L366.623 105.605L390.002 149.727V151.777H359.064L347.521 123.477L342.014 129.453V151.777ZM421.643 153.242C415.627 153.242 410.061 152.285 404.943 150.371C399.826 148.418 395.529 145.762 392.053 142.402C388.615 139.043 385.92 135.059 383.967 130.449C382.014 125.84 381.037 120.918 381.037 115.684C381.037 110.566 381.936 105.723 383.732 101.152C385.529 96.582 388.029 92.6172 391.232 89.2578C394.436 85.8984 398.361 83.2422 403.01 81.2891C407.697 79.3359 412.775 78.3594 418.244 78.3594C422.854 78.3594 427.189 79.043 431.252 80.4102C435.354 81.7383 438.967 83.6523 442.092 86.1523C445.217 88.6523 447.678 91.8555 449.475 95.7617C451.311 99.668 452.229 104.023 452.229 108.828C452.229 111.445 451.916 114.473 451.291 117.91L406.877 115.918C407.307 119.863 409.104 122.793 412.268 124.707C415.471 126.582 419.475 127.52 424.279 127.52C433.029 127.52 440.705 125.156 447.307 120.43H448.889V146.973C445.881 148.809 441.994 150.312 437.229 151.484C432.463 152.656 427.268 153.242 421.643 153.242ZM407.814 109.414L428.088 108.359C427.502 106.562 426.369 105.156 424.689 104.141C423.049 103.086 421.037 102.559 418.654 102.559C416.311 102.559 414.162 103.145 412.209 104.316C410.256 105.449 408.791 107.148 407.814 109.414ZM482.639 153.242C476.74 153.242 471.584 151.543 467.17 148.145C462.795 144.746 459.514 140.254 457.326 134.668C455.139 129.082 454.045 122.832 454.045 115.918C454.045 109.004 455.139 102.734 457.326 97.1094C459.553 91.4844 462.854 86.9531 467.229 83.5156C471.643 80.0781 476.779 78.3594 482.639 78.3594C484.123 78.3594 485.529 78.4375 486.857 78.5938C488.186 78.75 489.67 79.082 491.311 79.5898C492.951 80.0586 494.455 80.7031 495.822 81.5234C497.189 82.3438 498.557 83.4766 499.924 84.9219C501.291 86.3672 502.463 88.0664 503.439 90.0195C504.455 91.9336 505.314 94.3359 506.018 97.2266C506.721 100.078 507.17 103.262 507.365 106.777H508.771L506.135 89.375V61.7773H533.264V151.777H505.08L507.6 127.051H506.662C505.998 131.035 505.041 134.57 503.791 137.656C502.58 140.703 501.213 143.203 499.689 145.156C498.166 147.07 496.428 148.652 494.475 149.902C492.561 151.152 490.646 152.012 488.732 152.48C486.818 152.988 484.787 153.242 482.639 153.242ZM494.768 127.285C499.143 127.285 502.697 126.367 505.432 124.531C508.166 122.656 509.533 119.941 509.533 116.387C509.533 112.754 508.166 110.02 505.432 108.184C502.697 106.348 499.143 105.43 494.768 105.43C490.393 105.43 486.857 106.348 484.162 108.184C481.467 110.02 480.119 112.754 480.119 116.387C480.119 119.941 481.467 122.656 484.162 124.531C486.896 126.367 490.432 127.285 494.768 127.285ZM567.189 151.777H538.713V67.7539H567.189V151.777ZM600.646 151.777H572.58V79.7656H600.998L596.486 120.723H597.658C599.299 105.059 602.053 94.082 605.92 87.793C609.826 81.5039 615.959 78.3594 624.318 78.3594C631.467 78.3594 636.955 80.918 640.783 86.0352C644.611 91.1523 646.525 99.3945 646.525 110.762V151.777H618.4V126.23C618.4 124.355 618.381 122.812 618.342 121.602C618.303 120.352 618.205 118.945 618.049 117.383C617.893 115.781 617.639 114.492 617.287 113.516C616.975 112.5 616.545 111.523 615.998 110.586C615.451 109.648 614.729 108.965 613.83 108.535C612.932 108.066 611.896 107.832 610.725 107.832C609.24 107.832 607.932 108.125 606.799 108.711C605.705 109.297 604.787 110.234 604.045 111.523C603.303 112.773 602.697 114.16 602.229 115.684C601.799 117.207 601.467 119.18 601.232 121.602C600.998 123.984 600.842 126.309 600.764 128.574C600.686 130.84 600.646 133.613 600.646 136.895V151.777Z" fill="white"/>
</svg>
