<svg width="780" height="180" viewBox="0 0 780 180" fill="none" xmlns="http://www.w3.org/2000/svg">
<mask id="mask0_55_217" style="mask-type:alpha" maskUnits="userSpaceOnUse" x="0" y="0" width="781" height="180">
<rect x="6.10352e-05" width="780.004" height="180" fill="#2C2C2C"/>
</mask>
<g mask="url(#mask0_55_217)">
<rect x="6.10352e-05" width="780.004" height="180" fill="#2C2C2C"/>
<rect x="0.00213623" width="141.901" height="180" fill="#0E21A0"/>
<rect x="0.00213623" y="142.123" width="780.002" height="37.8774" fill="#0E21A0"/>
<rect x="268.986" y="-143.08" width="141.901" height="329.624" transform="rotate(45 268.986 -143.08)" fill="#0E21A0"/>
<path d="M109.474 133.5V40.06H133.282V133.5H109.474ZM130.722 133.5V112.764H168.61V133.5H130.722ZM183.653 133.5V62.844H206.949V133.5H183.653ZM174.693 79.74V62.844H206.949V79.74H174.693ZM193.253 57.212C188.986 57.212 185.829 56.1453 183.781 54.012C181.818 51.7933 180.837 48.9773 180.837 45.564C180.837 42.1507 181.818 39.3773 183.781 37.244C185.829 35.0253 188.944 33.916 193.125 33.916C197.392 33.916 200.506 35.0253 202.469 37.244C204.432 39.3773 205.413 42.1507 205.413 45.564C205.413 48.9773 204.432 51.7933 202.469 54.012C200.506 56.1453 197.434 57.212 193.253 57.212ZM224.075 133.5V62.844H242.507V93.18H241.483C241.483 85.8413 242.422 79.7827 244.299 75.004C246.176 70.14 248.95 66.5133 252.619 64.124C256.374 61.7347 260.896 60.54 266.187 60.54H267.211C275.232 60.54 281.419 63.228 285.771 68.604C290.208 73.8947 292.427 82.044 292.427 93.052V133.5H269.131V92.412C269.131 89.1693 268.15 86.524 266.187 84.476C264.31 82.3427 261.707 81.276 258.379 81.276C255.051 81.276 252.363 82.3427 250.315 84.476C248.352 86.524 247.371 89.2547 247.371 92.668V133.5H224.075ZM358.251 133.5L337.387 100.476H327.915L355.563 62.844H379.883L353.643 98.3V87.036L384.235 133.5H358.251ZM308.075 133.5V40.06H331.371V133.5H308.075ZM422.852 136.06C416.879 136.06 411.588 135.036 406.98 132.988C402.372 130.94 398.489 128.167 395.332 124.668C392.175 121.169 389.743 117.244 388.036 112.892C386.415 108.54 385.604 104.06 385.604 99.452V96.892C385.604 92.1133 386.415 87.548 388.036 83.196C389.743 78.7587 392.132 74.8333 395.204 71.42C398.361 68.0067 402.201 65.3187 406.724 63.356C411.247 61.308 416.367 60.284 422.084 60.284C429.679 60.284 436.121 61.9907 441.412 65.404C446.703 68.8173 450.756 73.34 453.572 78.972C456.388 84.5187 457.796 90.5773 457.796 97.148V104.572H395.332V92.028H444.356L436.292 97.66C436.292 93.6493 435.737 90.2787 434.628 87.548C433.604 84.732 432.025 82.5987 429.892 81.148C427.844 79.6973 425.241 78.972 422.084 78.972C419.012 78.972 416.324 79.6973 414.02 81.148C411.801 82.5133 410.095 84.6467 408.9 87.548C407.705 90.364 407.108 93.948 407.108 98.3C407.108 102.225 407.663 105.639 408.772 108.54C409.881 111.356 411.588 113.532 413.892 115.068C416.196 116.604 419.183 117.372 422.852 117.372C426.095 117.372 428.74 116.817 430.788 115.708C432.921 114.599 434.415 113.105 435.268 111.228H456.516C455.492 116.007 453.444 120.273 450.372 124.028C447.385 127.783 443.545 130.727 438.852 132.86C434.244 134.993 428.911 136.06 422.852 136.06ZM499.131 135.804C494.182 135.804 489.659 134.908 485.563 133.116C481.552 131.324 478.054 128.849 475.067 125.692C472.166 122.449 469.904 118.652 468.283 114.3C466.747 109.948 465.979 105.212 465.979 100.092V97.02C465.979 91.9 466.704 87.164 468.155 82.812C469.691 78.3747 471.867 74.5347 474.683 71.292C477.499 67.964 480.912 65.404 484.923 63.612C488.934 61.7347 493.414 60.796 498.363 60.796C504.08 60.796 508.944 62.076 512.955 64.636C517.051 67.1107 520.166 70.7373 522.299 75.516C524.518 80.2947 525.712 86.0973 525.883 92.924L520.507 88.956V40.06H543.803V133.5H525.371V104.828H527.931C527.76 111.143 526.48 116.647 524.091 121.34C521.702 125.948 518.374 129.532 514.107 132.092C509.926 134.567 504.934 135.804 499.131 135.804ZM505.403 116.604C508.219 116.604 510.779 115.964 513.083 114.684C515.472 113.404 517.392 111.527 518.843 109.052C520.294 106.577 521.019 103.591 521.019 100.092V95.74C521.019 92.3267 520.251 89.468 518.715 87.164C517.264 84.86 515.344 83.1107 512.955 81.916C510.651 80.636 508.134 79.996 505.403 79.996C502.331 79.996 499.558 80.8067 497.083 82.428C494.694 83.964 492.774 86.14 491.323 88.956C489.958 91.6867 489.275 94.8867 489.275 98.556C489.275 102.225 489.958 105.425 491.323 108.156C492.774 110.801 494.694 112.892 497.083 114.428C499.558 115.879 502.331 116.604 505.403 116.604ZM564.028 133.5V62.844H587.324V133.5H564.028ZM555.068 79.74V62.844H587.324V79.74H555.068ZM573.628 57.212C569.361 57.212 566.204 56.1453 564.156 54.012C562.193 51.7933 561.212 48.9773 561.212 45.564C561.212 42.1507 562.193 39.3773 564.156 37.244C566.204 35.0253 569.319 33.916 573.5 33.916C577.767 33.916 580.881 35.0253 582.844 37.244C584.807 39.3773 585.788 42.1507 585.788 45.564C585.788 48.9773 584.807 51.7933 582.844 54.012C580.881 56.1453 577.809 57.212 573.628 57.212ZM604.45 133.5V62.844H622.882V93.18H621.858C621.858 85.8413 622.797 79.7827 624.674 75.004C626.551 70.14 629.325 66.5133 632.994 64.124C636.749 61.7347 641.271 60.54 646.562 60.54H647.586C655.607 60.54 661.794 63.228 666.146 68.604C670.583 73.8947 672.802 82.044 672.802 93.052V133.5H649.506V92.412C649.506 89.1693 648.525 86.524 646.562 84.476C644.685 82.3427 642.082 81.276 638.754 81.276C635.426 81.276 632.738 82.3427 630.69 84.476C628.727 86.524 627.746 89.2547 627.746 92.668V133.5H604.45Z" fill="white"/>
</g>
</svg>
