<svg width="4000" height="513" viewBox="0 0 4000 513" fill="none" xmlns="http://www.w3.org/2000/svg">
<rect width="4000" height="512.5" fill="#190626"/>
<path d="M763.698 347.161H713.298L709.398 252.961C708.798 234.361 708.098 220.261 707.298 210.661H706.398C703.998 218.261 701.198 230.061 697.998 246.061L696.498 253.561L675.798 347.161H625.398L607.998 262.861L604.998 247.861C600.798 229.261 597.898 216.861 596.298 210.661H595.398C594.598 220.661 593.898 236.961 593.298 259.561C593.098 260.961 592.998 263.161 592.998 266.161L590.298 347.161H539.598L546.798 176.161H632.598L647.298 249.961L650.898 269.761C652.498 263.561 653.998 256.661 655.398 249.061L669.198 176.161H756.798L763.698 347.161ZM871.17 311.161C876.17 311.161 885.47 310.661 899.07 309.661C900.87 309.661 904.17 309.461 908.97 309.061L913.47 339.961C898.07 347.161 878.07 350.761 853.47 350.761C830.47 350.761 812.77 344.961 800.37 333.361C788.17 321.761 782.07 304.261 782.07 280.861C782.07 268.861 783.57 257.261 786.57 246.061C789.77 234.861 793.37 227.061 797.37 222.661C801.57 218.261 809.37 214.461 820.77 211.261C832.17 208.061 843.47 206.461 854.67 206.461C872.67 206.461 886.17 209.661 895.17 216.061C904.17 222.461 910.07 231.361 912.87 242.761C915.67 253.961 917.07 269.061 917.07 288.061C903.47 288.861 890.17 289.261 877.17 289.261H834.57C834.57 295.661 835.87 300.461 838.47 303.661C841.27 306.861 845.17 308.961 850.17 309.961C855.17 310.761 862.17 311.161 871.17 311.161ZM837.57 242.161C836.37 242.761 835.47 245.361 834.87 249.961C834.27 254.561 833.87 259.761 833.67 265.561H849.27C858.67 265.561 865.47 265.461 869.67 265.261C869.67 255.661 868.27 248.861 865.47 244.861C862.87 240.861 858.27 238.861 851.67 238.861C846.27 238.861 841.57 239.961 837.57 242.161ZM1073.13 209.161V347.161H1031.43L1025.73 324.061C1011.33 341.461 994.127 350.161 974.127 350.161C966.927 350.161 960.127 349.161 953.727 347.161C947.527 345.161 942.827 342.261 939.627 338.461C937.827 336.261 936.427 330.761 935.427 321.961C934.627 313.161 934.227 299.761 934.227 281.761V209.161H985.527V281.161C985.527 285.161 985.627 289.861 985.827 295.261C986.027 300.661 986.627 304.061 987.627 305.461C989.027 307.461 993.027 308.461 999.627 308.461L1004.43 308.161C1010.03 307.961 1015.83 306.661 1021.83 304.261V209.161H1073.13ZM1209.32 300.361C1209.32 318.161 1203.62 330.961 1192.22 338.761C1181.02 346.561 1165.02 350.461 1144.22 350.461C1129.62 350.461 1112.82 348.361 1093.82 344.161C1094.22 340.161 1095.12 334.461 1096.52 327.061C1098.12 319.461 1099.42 313.661 1100.42 309.661C1107.62 310.861 1115.62 311.861 1124.42 312.661C1133.22 313.261 1140.72 313.561 1146.92 313.561C1152.32 313.561 1155.62 313.261 1156.82 312.661C1157.02 312.461 1157.22 311.961 1157.42 311.161C1157.82 310.161 1158.02 309.161 1158.02 308.161C1158.02 304.161 1155.52 301.461 1150.52 300.061C1148.92 299.661 1142.82 297.961 1132.22 294.961C1121.62 291.961 1112.92 286.561 1106.12 278.761C1099.52 270.761 1096.22 260.861 1096.22 249.061C1096.22 242.861 1097.62 235.961 1100.42 228.361C1103.22 220.761 1106.22 215.961 1109.42 213.961C1111.82 212.361 1117.62 210.761 1126.82 209.161C1136.02 207.361 1144.52 206.461 1152.32 206.461C1168.92 206.461 1185.62 207.661 1202.42 210.061C1202.42 213.661 1201.92 219.761 1200.92 228.361C1199.92 236.761 1199.02 242.061 1198.22 244.261C1181.22 242.061 1167.52 240.961 1157.12 240.961C1151.72 240.961 1148.22 241.261 1146.62 241.861C1146.22 242.061 1145.82 242.661 1145.42 243.661C1145.02 244.461 1144.82 245.561 1144.82 246.961C1144.82 249.761 1145.72 251.761 1147.52 252.961C1149.32 254.361 1154.02 256.061 1161.62 258.061C1170.62 260.661 1178.32 263.361 1184.72 266.161C1191.32 268.961 1197.02 273.161 1201.82 278.761C1206.82 284.361 1209.32 291.561 1209.32 300.361ZM1408.25 341.461C1400.85 344.661 1392.25 346.961 1382.45 348.361C1372.65 349.761 1363.55 350.461 1355.15 350.461C1327.95 350.461 1306.65 343.361 1291.25 329.161C1275.85 314.961 1268.15 293.161 1268.15 263.761C1268.15 233.761 1276.25 211.361 1292.45 196.561C1308.65 181.561 1331.45 174.061 1360.85 174.061C1374.85 174.061 1389.45 175.961 1404.65 179.761C1404.65 183.761 1404.25 189.761 1403.45 197.761C1402.65 205.561 1401.85 211.061 1401.05 214.261H1382.15C1368.35 214.261 1357.45 214.561 1349.45 215.161C1341.65 215.561 1336.95 216.461 1335.35 217.861C1332.35 220.661 1330.05 226.361 1328.45 234.961C1326.85 243.361 1326.05 251.461 1326.05 259.261C1326.05 272.861 1327.75 283.361 1331.15 290.761C1334.55 297.961 1338.85 302.761 1344.05 305.161C1349.05 307.561 1357.35 308.761 1368.95 308.761C1378.15 308.761 1390.15 307.961 1404.95 306.361L1408.25 341.461ZM1491.86 351.061C1467.86 351.061 1449.86 345.461 1437.86 334.261C1426.06 322.861 1420.16 304.961 1420.16 280.561C1420.16 267.161 1421.36 255.461 1423.76 245.461C1426.36 235.261 1429.46 228.161 1433.06 224.161C1437.66 218.961 1446.06 214.661 1458.26 211.261C1470.66 207.861 1482.26 206.161 1493.06 206.161C1518.86 206.161 1537.26 211.661 1548.26 222.661C1559.26 233.661 1564.76 251.261 1564.76 275.461C1564.76 301.461 1558.86 320.561 1547.06 332.761C1535.26 344.961 1516.86 351.061 1491.86 351.061ZM1492.76 315.961C1500.56 315.961 1505.66 313.261 1508.06 307.861C1510.46 302.261 1511.66 292.461 1511.66 278.461C1511.66 268.661 1511.16 261.161 1510.16 255.961C1509.16 250.561 1507.26 246.661 1504.46 244.261C1501.86 241.661 1497.76 240.361 1492.16 240.361C1484.16 240.361 1479.56 241.061 1478.36 242.461C1476.76 243.861 1475.46 248.261 1474.46 255.661C1473.46 263.061 1472.96 270.761 1472.96 278.761C1472.96 292.361 1474.26 301.961 1476.86 307.561C1479.66 313.161 1484.96 315.961 1492.76 315.961ZM1717.85 217.861C1719.65 220.061 1720.95 225.561 1721.75 234.361C1722.75 243.161 1723.25 256.561 1723.25 274.561V347.161H1671.95V275.161V262.861C1671.95 256.461 1671.45 252.461 1670.45 250.861C1668.85 248.861 1665.15 247.861 1659.35 247.861C1656.55 247.861 1654.45 247.961 1653.05 248.161C1647.45 248.361 1641.65 249.661 1635.65 252.061V347.161H1584.35V209.161H1626.05L1631.75 232.261C1646.15 214.861 1663.35 206.161 1683.35 206.161C1690.55 206.161 1697.25 207.161 1703.45 209.161C1709.85 211.161 1714.65 214.061 1717.85 217.861ZM1880.44 217.861C1882.24 220.061 1883.54 225.561 1884.34 234.361C1885.34 243.161 1885.84 256.561 1885.84 274.561V347.161H1834.54V275.161C1834.54 274.361 1834.54 270.461 1834.54 263.461C1834.54 256.261 1834.04 251.861 1833.04 250.261C1832.44 249.461 1830.94 248.861 1828.54 248.461C1826.34 248.061 1823.74 247.861 1820.74 247.861L1815.64 248.161C1810.04 248.361 1804.24 249.661 1798.24 252.061V347.161H1746.94V167.161L1798.24 165.061V200.161C1798.24 214.561 1797.74 224.161 1796.74 228.961L1797.04 229.261C1810.64 213.861 1826.94 206.161 1845.94 206.161C1853.14 206.161 1859.84 207.161 1866.04 209.161C1872.44 211.161 1877.24 214.061 1880.44 217.861ZM1993.24 311.161C1998.24 311.161 2007.54 310.661 2021.14 309.661C2022.94 309.661 2026.24 309.461 2031.04 309.061L2035.54 339.961C2020.14 347.161 2000.14 350.761 1975.54 350.761C1952.54 350.761 1934.84 344.961 1922.44 333.361C1910.24 321.761 1904.14 304.261 1904.14 280.861C1904.14 268.861 1905.64 257.261 1908.64 246.061C1911.84 234.861 1915.44 227.061 1919.44 222.661C1923.64 218.261 1931.44 214.461 1942.84 211.261C1954.24 208.061 1965.54 206.461 1976.74 206.461C1994.74 206.461 2008.24 209.661 2017.24 216.061C2026.24 222.461 2032.14 231.361 2034.94 242.761C2037.74 253.961 2039.14 269.061 2039.14 288.061C2025.54 288.861 2012.24 289.261 1999.24 289.261H1956.64C1956.64 295.661 1957.94 300.461 1960.54 303.661C1963.34 306.861 1967.24 308.961 1972.24 309.961C1977.24 310.761 1984.24 311.161 1993.24 311.161ZM1959.64 242.161C1958.44 242.761 1957.54 245.361 1956.94 249.961C1956.34 254.561 1955.94 259.761 1955.74 265.561H1971.34C1980.74 265.561 1987.54 265.461 1991.74 265.261C1991.74 255.661 1990.34 248.861 1987.54 244.861C1984.94 240.861 1980.34 238.861 1973.74 238.861C1968.34 238.861 1963.64 239.961 1959.64 242.161ZM2173.3 342.961C2157.1 348.361 2139 351.061 2119 351.061C2096.6 351.061 2079.8 345.461 2068.6 334.261C2057.6 322.861 2052.1 305.161 2052.1 281.161C2052.1 269.361 2053.7 257.761 2056.9 246.361C2060.1 234.761 2063.5 226.961 2067.1 222.961C2071.3 218.361 2079.5 214.461 2091.7 211.261C2104.1 208.061 2116.9 206.461 2130.1 206.461C2143.9 206.461 2157.8 207.661 2171.8 210.061C2171.4 215.061 2170.7 220.961 2169.7 227.761C2168.9 234.361 2168 240.261 2167 245.461C2154.6 244.661 2142.9 244.261 2131.9 244.261C2121.1 244.261 2114.2 244.861 2111.2 246.061C2109.6 246.661 2108.1 250.761 2106.7 258.361C2105.5 265.961 2104.9 273.061 2104.9 279.661C2104.9 288.461 2106.1 295.261 2108.5 300.061C2111.1 304.661 2115.1 307.861 2120.5 309.661C2125.9 311.461 2133.2 312.361 2142.4 312.361C2146.4 312.361 2155.2 311.961 2168.8 311.161L2173.3 342.961ZM2217.2 192.061C2210.4 192.061 2204.5 189.761 2199.5 185.161C2194.7 180.561 2192.3 175.061 2192.3 168.661C2192.3 162.261 2194.7 156.761 2199.5 152.161C2204.5 147.561 2210.4 145.261 2217.2 145.261C2224 145.261 2229.8 147.561 2234.6 152.161C2239.4 156.761 2241.8 162.261 2241.8 168.661C2241.8 175.061 2239.4 180.561 2234.6 185.161C2229.8 189.761 2224 192.061 2217.2 192.061ZM2191.4 209.161H2242.7V347.161H2191.4V209.161ZM2483.83 218.761C2487.03 223.561 2488.63 242.161 2488.63 274.561V347.161H2437.33V279.661V263.461C2437.33 256.061 2436.63 251.661 2435.23 250.261C2433.63 248.661 2430.23 247.861 2425.03 247.861L2421.43 248.161C2415.23 248.561 2409.33 249.961 2403.73 252.361C2403.93 256.561 2404.03 263.961 2404.03 274.561V347.161H2352.73V279.661V261.661C2352.73 255.461 2352.03 251.661 2350.63 250.261C2349.03 248.661 2345.63 247.861 2340.43 247.861L2336.83 248.161C2331.23 248.361 2325.43 249.661 2319.43 252.061V347.161H2268.13V209.161H2309.83L2315.23 231.661C2321.83 222.861 2329.43 216.461 2338.03 212.461C2346.63 208.261 2355.33 206.161 2364.13 206.161C2371.53 206.161 2378.53 207.261 2385.13 209.461C2391.93 211.661 2396.63 214.761 2399.23 218.761C2400.43 220.561 2401.43 223.861 2402.23 228.661C2408.63 220.861 2415.93 215.161 2424.13 211.561C2432.33 207.961 2440.53 206.161 2448.73 206.161C2456.13 206.161 2463.13 207.261 2469.73 209.461C2476.53 211.661 2481.23 214.761 2483.83 218.761ZM2596.17 311.161C2601.17 311.161 2610.47 310.661 2624.07 309.661C2625.87 309.661 2629.17 309.461 2633.97 309.061L2638.47 339.961C2623.07 347.161 2603.07 350.761 2578.47 350.761C2555.47 350.761 2537.77 344.961 2525.37 333.361C2513.17 321.761 2507.07 304.261 2507.07 280.861C2507.07 268.861 2508.57 257.261 2511.57 246.061C2514.77 234.861 2518.37 227.061 2522.37 222.661C2526.57 218.261 2534.37 214.461 2545.77 211.261C2557.17 208.061 2568.47 206.461 2579.67 206.461C2597.67 206.461 2611.17 209.661 2620.17 216.061C2629.17 222.461 2635.07 231.361 2637.87 242.761C2640.67 253.961 2642.07 269.061 2642.07 288.061C2628.47 288.861 2615.17 289.261 2602.17 289.261H2559.57C2559.57 295.661 2560.87 300.461 2563.47 303.661C2566.27 306.861 2570.17 308.961 2575.17 309.961C2580.17 310.761 2587.17 311.161 2596.17 311.161ZM2562.57 242.161C2561.37 242.761 2560.47 245.361 2559.87 249.961C2559.27 254.561 2558.87 259.761 2558.67 265.561H2574.27C2583.67 265.561 2590.47 265.461 2594.67 265.261C2594.67 255.661 2593.27 248.861 2590.47 244.861C2587.87 240.861 2583.27 238.861 2576.67 238.861C2571.27 238.861 2566.57 239.961 2562.57 242.161ZM2793.63 217.861C2795.43 220.061 2796.73 225.561 2797.53 234.361C2798.53 243.161 2799.03 256.561 2799.03 274.561V347.161H2747.73V275.161V262.861C2747.73 256.461 2747.23 252.461 2746.23 250.861C2744.63 248.861 2740.93 247.861 2735.13 247.861C2732.33 247.861 2730.23 247.961 2728.83 248.161C2723.23 248.361 2717.43 249.661 2711.43 252.061V347.161H2660.13V209.161H2701.83L2707.53 232.261C2721.93 214.861 2739.13 206.161 2759.13 206.161C2766.33 206.161 2773.03 207.161 2779.23 209.161C2785.63 211.161 2790.43 214.061 2793.63 217.861ZM2886.32 290.461C2886.32 294.061 2886.42 297.861 2886.62 301.861C2886.82 305.661 2887.42 308.061 2888.42 309.061C2889.82 310.461 2894.72 311.161 2903.12 311.161L2913.32 310.861C2915.12 320.461 2916.02 331.561 2916.02 344.161C2912.22 345.561 2906.62 346.861 2899.22 348.061C2892.02 349.261 2885.12 349.861 2878.52 349.861C2864.72 349.861 2854.02 346.861 2846.42 340.861C2839.02 334.661 2835.32 325.161 2835.32 312.361V238.561H2812.82V211.261L2835.32 209.161L2848.82 176.161L2886.32 174.061V209.161H2918.12V238.561H2886.32V290.461ZM3000.07 351.061C2976.07 351.061 2958.07 345.461 2946.07 334.261C2934.27 322.861 2928.37 304.961 2928.37 280.561C2928.37 267.161 2929.57 255.461 2931.97 245.461C2934.57 235.261 2937.67 228.161 2941.27 224.161C2945.87 218.961 2954.27 214.661 2966.47 211.261C2978.87 207.861 2990.47 206.161 3001.27 206.161C3027.07 206.161 3045.47 211.661 3056.47 222.661C3067.47 233.661 3072.97 251.261 3072.97 275.461C3072.97 301.461 3067.07 320.561 3055.27 332.761C3043.47 344.961 3025.07 351.061 3000.07 351.061ZM3000.97 315.961C3008.77 315.961 3013.87 313.261 3016.27 307.861C3018.67 302.261 3019.87 292.461 3019.87 278.461C3019.87 268.661 3019.37 261.161 3018.37 255.961C3017.37 250.561 3015.47 246.661 3012.67 244.261C3010.07 241.661 3005.97 240.361 3000.37 240.361C2992.37 240.361 2987.77 241.061 2986.57 242.461C2984.97 243.861 2983.67 248.261 2982.67 255.661C2981.67 263.061 2981.17 270.761 2981.17 278.761C2981.17 292.361 2982.47 301.961 2985.07 307.561C2987.87 313.161 2993.17 315.961 3000.97 315.961ZM3204.15 300.361C3204.15 318.161 3198.45 330.961 3187.05 338.761C3175.85 346.561 3159.85 350.461 3139.05 350.461C3124.45 350.461 3107.65 348.361 3088.65 344.161C3089.05 340.161 3089.95 334.461 3091.35 327.061C3092.95 319.461 3094.25 313.661 3095.25 309.661C3102.45 310.861 3110.45 311.861 3119.25 312.661C3128.05 313.261 3135.55 313.561 3141.75 313.561C3147.15 313.561 3150.45 313.261 3151.65 312.661C3151.85 312.461 3152.05 311.961 3152.25 311.161C3152.65 310.161 3152.85 309.161 3152.85 308.161C3152.85 304.161 3150.35 301.461 3145.35 300.061C3143.75 299.661 3137.65 297.961 3127.05 294.961C3116.45 291.961 3107.75 286.561 3100.95 278.761C3094.35 270.761 3091.05 260.861 3091.05 249.061C3091.05 242.861 3092.45 235.961 3095.25 228.361C3098.05 220.761 3101.05 215.961 3104.25 213.961C3106.65 212.361 3112.45 210.761 3121.65 209.161C3130.85 207.361 3139.35 206.461 3147.15 206.461C3163.75 206.461 3180.45 207.661 3197.25 210.061C3197.25 213.661 3196.75 219.761 3195.75 228.361C3194.75 236.761 3193.85 242.061 3193.05 244.261C3176.05 242.061 3162.35 240.961 3151.95 240.961C3146.55 240.961 3143.05 241.261 3141.45 241.861C3141.05 242.061 3140.65 242.661 3140.25 243.661C3139.85 244.461 3139.65 245.561 3139.65 246.961C3139.65 249.761 3140.55 251.761 3142.35 252.961C3144.15 254.361 3148.85 256.061 3156.45 258.061C3165.45 260.661 3173.15 263.361 3179.55 266.161C3186.15 268.961 3191.85 273.161 3196.65 278.761C3201.65 284.361 3204.15 291.561 3204.15 300.361Z" fill="#B153D7"/>
<mask id="mask0_53_207" style="mask-type:alpha" maskUnits="userSpaceOnUse" x="91" y="117" width="301" height="301">
<rect x="91.7579" y="117.339" width="300" height="300" fill="#D9D9D9"/>
</mask>
<g mask="url(#mask0_53_207)">
<path d="M179.258 317.339H204.258V167.339H179.258V317.339ZM166.758 392.339C156.341 392.339 147.487 388.693 140.195 381.401C132.904 374.109 129.258 365.255 129.258 354.839V179.839C129.258 169.422 132.904 160.568 140.195 153.276C147.487 145.984 156.341 142.339 166.758 142.339H304.258V342.339H166.758C163.216 342.339 160.248 343.537 157.852 345.932C155.456 348.328 154.258 351.297 154.258 354.839C154.258 358.38 155.456 361.349 157.852 363.745C160.248 366.141 163.216 367.339 166.758 367.339H329.258V167.339H354.258V392.339H166.758Z" fill="#B153D7"/>
</g>
</svg>
