<svg width="6000" height="952" viewBox="0 0 6000 952" fill="none" xmlns="http://www.w3.org/2000/svg">
<path d="M1029.45 616H938.631V335.922H1072.22L1088.63 417.953C1091.1 431.495 1092.34 449.008 1092.34 470.492H1095.47C1095.47 448.357 1096.64 430.844 1098.98 417.953L1115.39 335.922H1248.98V616H1158.36V537.68C1158.36 511.247 1159.85 484.229 1162.85 456.625C1165.97 428.891 1170.08 405.453 1175.15 386.312H1171.44L1117.93 616H1070.66L1016.37 386.312H1012.65C1017.73 405.453 1021.77 428.891 1024.76 456.625C1027.89 484.229 1029.45 511.247 1029.45 537.68V616ZM1363.63 680.844C1347.75 680.844 1331.86 678.305 1315.97 673.227V592.367C1330.43 597.185 1341.1 599.594 1348.01 599.594C1354.65 599.594 1360.9 598.617 1366.76 596.664C1372.75 594.711 1377.69 592.497 1381.6 590.023C1385.51 587.419 1390.65 584.75 1397.03 582.016C1403.41 579.151 1410.12 577.133 1417.15 575.961C1422.22 574.919 1428.74 574.398 1436.68 574.398V570.492H1323.59L1260.31 375.961H1359.14L1381.21 456.43C1390.45 490.284 1395.08 519.19 1395.08 543.148H1398.4C1398.4 518.148 1402.89 489.242 1411.87 456.43L1434.33 375.961H1533.16L1467.93 588.461C1464.15 600.57 1459.92 611.443 1455.23 621.078C1450.68 630.714 1446.12 638.721 1441.56 645.102C1437.13 651.482 1432.06 656.951 1426.33 661.508C1420.73 666.195 1415.52 669.711 1410.7 672.055C1406.01 674.529 1400.61 676.417 1394.49 677.719C1388.5 679.151 1383.29 679.997 1378.87 680.258C1374.57 680.648 1369.49 680.844 1363.63 680.844ZM1719.1 616H1624.57V335.922H1718.51L1715.39 426.352L1704.26 491.195H1708.16C1712.46 465.935 1717.41 445.883 1723.01 431.039C1728.6 416.065 1735.83 402.784 1744.69 391.195L1787.07 335.922H1899.76L1804.26 443.148L1901.33 616H1793.32L1738.63 505.258L1719.1 528.305V616ZM2003.67 616H1910.12V375.961H2004.84L1989.8 512.484H1993.71C1999.18 460.271 2008.36 423.682 2021.25 402.719C2034.27 381.755 2054.71 371.273 2082.58 371.273C2106.4 371.273 2124.7 379.802 2137.46 396.859C2150.22 413.917 2156.6 441.391 2156.6 479.281V616H2062.85V530.844C2062.85 524.594 2062.78 519.451 2062.65 515.414C2062.52 511.247 2062.2 506.56 2061.68 501.352C2061.16 496.013 2060.31 491.716 2059.14 488.461C2058.1 485.076 2056.66 481.82 2054.84 478.695C2053.02 475.57 2050.61 473.292 2047.62 471.859C2044.62 470.297 2041.17 469.516 2037.26 469.516C2032.32 469.516 2027.95 470.492 2024.18 472.445C2020.53 474.398 2017.47 477.523 2015 481.82C2012.52 485.987 2010.51 490.609 2008.94 495.688C2007.51 500.766 2006.4 507.341 2005.62 515.414C2004.84 523.357 2004.32 531.104 2004.06 538.656C2003.8 546.208 2003.67 555.453 2003.67 566.391V616ZM2301.72 620.883C2281.66 620.883 2263.24 617.628 2246.44 611.117C2229.65 604.607 2215.58 595.753 2204.26 584.555C2192.93 573.227 2184.14 560.01 2177.89 544.906C2171.64 529.802 2168.51 513.656 2168.51 496.469C2168.51 482.797 2170.47 469.711 2174.37 457.211C2178.41 444.581 2184.27 433.057 2191.95 422.641C2199.63 412.224 2208.81 403.174 2219.49 395.492C2230.17 387.81 2242.54 381.885 2256.6 377.719C2270.66 373.422 2285.7 371.273 2301.72 371.273C2321.38 371.273 2339.54 374.594 2356.21 381.234C2373.01 387.875 2387.07 396.859 2398.4 408.188C2409.72 419.385 2418.58 432.667 2424.96 448.031C2431.34 463.266 2434.53 479.411 2434.53 496.469C2434.53 513.656 2431.4 529.802 2425.15 544.906C2419.03 560.01 2410.38 573.227 2399.18 584.555C2387.98 595.753 2373.98 604.607 2357.19 611.117C2340.39 617.628 2321.9 620.883 2301.72 620.883ZM2266.56 523.617C2275.54 529.737 2287.26 532.797 2301.72 532.797C2316.17 532.797 2327.95 529.737 2337.07 523.617C2346.31 517.497 2350.94 508.448 2350.94 496.469C2350.94 484.49 2346.31 475.44 2337.07 469.32C2327.95 463.07 2316.17 459.945 2301.72 459.945C2287.52 459.945 2275.87 463.07 2266.76 469.32C2257.64 475.44 2253.08 484.49 2253.08 496.469C2253.08 508.448 2257.58 517.497 2266.56 523.617ZM2592.15 616H2476.91L2421.64 375.961H2520.47L2534.92 496.078C2535.18 498.682 2535.77 503.63 2536.68 510.922C2537.59 518.083 2538.24 523.422 2538.63 526.938C2539.15 530.323 2539.67 534.815 2540.19 540.414C2540.71 545.883 2541.1 550.831 2541.37 555.258C2541.63 559.685 2541.76 563.917 2541.76 567.953H2544.88L2560.9 375.961H2654.45L2670.47 567.953H2673.59C2673.59 561.573 2673.85 554.802 2674.37 547.641C2675.02 540.479 2676.13 530.909 2677.69 518.93C2679.26 506.82 2680.17 499.333 2680.43 496.469L2694.88 375.961H2793.71L2738.44 616H2623.2L2609.33 460.727H2606.01L2592.15 616ZM2897.03 616H2802.69V316H2897.03V616ZM3044.49 620.883C3024.44 620.883 3005.88 617.693 2988.83 611.312C2971.77 604.802 2957.45 595.948 2945.86 584.75C2934.4 573.552 2925.41 560.271 2918.9 544.906C2912.39 529.542 2909.14 513.135 2909.14 495.688C2909.14 478.63 2912.13 462.484 2918.12 447.25C2924.11 432.016 2932.45 418.799 2943.12 407.602C2953.8 396.404 2966.89 387.549 2982.38 381.039C2998.01 374.529 3014.93 371.273 3033.16 371.273C3048.53 371.273 3062.98 373.552 3076.52 378.109C3090.19 382.536 3102.24 388.917 3112.65 397.25C3123.07 405.583 3131.27 416.26 3137.26 429.281C3143.38 442.302 3146.44 456.82 3146.44 472.836C3146.44 481.56 3145.4 491.651 3143.32 503.109L2995.27 496.469C2996.7 509.62 3002.69 519.385 3013.24 525.766C3023.92 532.016 3037.26 535.141 3053.28 535.141C3082.45 535.141 3108.03 527.263 3130.04 511.508H3135.31V599.984C3125.28 606.104 3112.33 611.117 3096.44 615.023C3080.56 618.93 3063.24 620.883 3044.49 620.883ZM2998.4 474.789L3065.97 471.273C3064.02 465.284 3060.25 460.596 3054.65 457.211C3049.18 453.695 3042.47 451.938 3034.53 451.938C3026.72 451.938 3019.56 453.891 3013.04 457.797C3006.53 461.573 3001.65 467.237 2998.4 474.789ZM3247.81 620.883C3228.15 620.883 3210.96 615.219 3196.25 603.891C3181.66 592.562 3170.73 577.589 3163.44 558.969C3156.14 540.349 3152.5 519.516 3152.5 496.469C3152.5 473.422 3156.14 452.523 3163.44 433.773C3170.86 415.023 3181.86 399.919 3196.44 388.461C3211.16 377.003 3228.28 371.273 3247.81 371.273C3252.76 371.273 3257.45 371.534 3261.87 372.055C3266.3 372.576 3271.25 373.682 3276.72 375.375C3282.19 376.938 3287.2 379.086 3291.76 381.82C3296.31 384.555 3300.87 388.331 3305.43 393.148C3309.99 397.966 3313.89 403.63 3317.15 410.141C3320.53 416.521 3323.4 424.529 3325.74 434.164C3328.08 443.669 3329.58 454.281 3330.23 466H3334.92L3326.13 407.992V316H3416.56V616H3322.62L3331.01 533.578H3327.89C3325.68 546.859 3322.49 558.643 3318.32 568.93C3314.28 579.086 3309.72 587.419 3304.65 593.93C3299.57 600.31 3293.77 605.583 3287.26 609.75C3280.88 613.917 3274.5 616.781 3268.12 618.344C3261.74 620.036 3254.97 620.883 3247.81 620.883ZM3288.24 534.359C3302.82 534.359 3314.67 531.299 3323.79 525.18C3332.9 518.93 3337.46 509.88 3337.46 498.031C3337.46 485.922 3332.9 476.807 3323.79 470.688C3314.67 464.568 3302.82 461.508 3288.24 461.508C3273.66 461.508 3261.87 464.568 3252.89 470.688C3243.9 476.807 3239.41 485.922 3239.41 498.031C3239.41 509.88 3243.9 518.93 3252.89 525.18C3262 531.299 3273.79 534.359 3288.24 534.359ZM3558.75 680.844C3536.61 680.844 3517.28 679.151 3500.74 675.766C3484.33 672.38 3471.38 667.693 3461.87 661.703C3452.5 655.714 3445.53 649.008 3440.97 641.586C3436.55 634.164 3434.33 626.026 3434.33 617.172C3434.33 604.542 3439.15 594.646 3448.79 587.484C3458.42 580.323 3472.16 576.742 3490 576.742V573.227C3447.81 573.227 3426.72 561.898 3426.72 539.242C3426.72 528.044 3432.19 519.711 3443.12 514.242C3454.19 508.773 3469.29 506.039 3488.44 506.039C3499.76 506.039 3512.65 507.341 3527.11 509.945L3527.5 505.648C3513.83 505.128 3501.59 503.565 3490.78 500.961C3480.1 498.357 3471.38 495.102 3464.61 491.195C3457.84 487.289 3452.24 482.667 3447.81 477.328C3443.38 471.99 3440.26 466.586 3438.44 461.117C3436.74 455.518 3435.9 449.529 3435.9 443.148C3435.9 422.185 3446.18 404.997 3466.76 391.586C3487.33 378.044 3515.58 371.273 3551.52 371.273C3571.44 371.273 3590.97 374.789 3610.12 381.82C3629.39 388.721 3646.12 399.724 3660.31 414.828L3662.46 412.484C3656.6 402.719 3648.14 393.995 3637.07 386.312C3626.13 378.63 3613.96 372.51 3600.54 367.953C3587.13 363.266 3573.72 359.62 3560.31 357.016C3546.9 354.411 3533.55 352.719 3520.27 351.938V343.93L3614.02 311.117C3633.81 325.44 3649.37 343.148 3660.7 364.242C3672.16 385.206 3677.89 405.258 3677.89 424.398C3677.89 456.951 3667.41 481.495 3646.44 498.031C3625.61 514.568 3595.34 522.836 3555.62 522.836C3545.21 522.836 3535.05 522.706 3525.15 522.445C3515.26 522.185 3509.92 522.055 3509.14 522.055C3502.24 522.055 3497.16 522.641 3493.9 523.812C3490.78 524.984 3489.22 527.198 3489.22 530.453C3489.22 533.188 3490.65 535.01 3493.51 535.922C3496.38 536.833 3500.41 537.289 3505.62 537.289C3512.39 537.289 3528.74 535.076 3554.65 530.648C3580.69 526.221 3601.78 524.008 3617.93 524.008C3629.52 524.008 3639.67 525.57 3648.4 528.695C3657.25 531.69 3664.15 535.466 3669.1 540.023C3674.05 544.581 3678.02 550.115 3681.01 556.625C3684.01 563.005 3685.96 568.995 3686.87 574.594C3687.91 580.193 3688.44 586.117 3688.44 592.367C3688.44 599.268 3687.65 605.974 3686.09 612.484C3684.53 618.865 3681.99 625.505 3678.47 632.406C3674.96 639.307 3669.88 645.557 3663.24 651.156C3656.73 656.755 3648.85 661.833 3639.61 666.391C3630.49 670.948 3619.03 674.464 3605.23 676.938C3591.43 679.542 3575.94 680.844 3558.75 680.844ZM3554.06 476.742C3563.04 476.742 3570.08 475.115 3575.15 471.859C3580.23 468.474 3582.77 464.242 3582.77 459.164C3582.77 453.695 3580.23 449.333 3575.15 446.078C3570.08 442.823 3563.04 441.195 3554.06 441.195C3544.82 441.195 3537.65 442.823 3532.58 446.078C3527.63 449.333 3525.15 453.695 3525.15 459.164C3525.15 464.372 3527.69 468.604 3532.77 471.859C3537.85 475.115 3544.95 476.742 3554.06 476.742ZM3558.36 598.812C3573.98 598.812 3586.94 597.185 3597.22 593.93C3607.64 590.674 3612.85 585.466 3612.85 578.305C3612.85 569.32 3602.04 564.828 3580.43 564.828C3570.01 564.828 3554.65 566.065 3534.33 568.539C3514.02 571.013 3502.04 572.315 3498.4 572.445C3498.4 590.023 3518.38 598.812 3558.36 598.812ZM3814.8 620.883C3794.75 620.883 3776.2 617.693 3759.14 611.312C3742.08 604.802 3727.76 595.948 3716.17 584.75C3704.71 573.552 3695.73 560.271 3689.22 544.906C3682.71 529.542 3679.45 513.135 3679.45 495.688C3679.45 478.63 3682.45 462.484 3688.44 447.25C3694.43 432.016 3702.76 418.799 3713.44 407.602C3724.11 396.404 3737.2 387.549 3752.69 381.039C3768.32 374.529 3785.25 371.273 3803.47 371.273C3818.84 371.273 3833.29 373.552 3846.83 378.109C3860.51 382.536 3872.55 388.917 3882.97 397.25C3893.38 405.583 3901.59 416.26 3907.58 429.281C3913.7 442.302 3916.76 456.82 3916.76 472.836C3916.76 481.56 3915.71 491.651 3913.63 503.109L3765.58 496.469C3767.02 509.62 3773.01 519.385 3783.55 525.766C3794.23 532.016 3807.58 535.141 3823.59 535.141C3852.76 535.141 3878.34 527.263 3900.35 511.508H3905.62V599.984C3895.6 606.104 3882.64 611.117 3866.76 615.023C3850.87 618.93 3833.55 620.883 3814.8 620.883ZM3768.71 474.789L3836.29 471.273C3834.33 465.284 3830.56 460.596 3824.96 457.211C3819.49 453.695 3812.78 451.938 3804.84 451.938C3797.03 451.938 3789.87 453.891 3783.36 457.797C3776.85 461.573 3771.96 467.237 3768.71 474.789ZM4022.81 620.883C3986.48 620.883 3954.39 613.917 3926.52 599.984V503.109H3932.58C3957.97 528.5 3989.02 541.195 4025.74 541.195C4033.03 541.195 4038.76 540.414 4042.93 538.852C4047.22 537.289 4049.37 535.141 4049.37 532.406C4049.37 530.583 4047.55 529.086 4043.9 527.914C4040.26 526.612 4035.44 525.57 4029.45 524.789C4023.59 524.008 4016.89 522.901 4009.33 521.469C4001.78 519.906 3994.03 518.214 3986.09 516.391C3978.15 514.568 3970.4 511.768 3962.85 507.992C3955.3 504.216 3948.53 499.854 3942.54 494.906C3936.68 489.828 3931.93 483.253 3928.28 475.18C3924.63 467.107 3922.81 457.927 3922.81 447.641C3922.81 435.141 3925.74 423.943 3931.6 414.047C3937.59 404.021 3945.6 395.948 3955.62 389.828C3965.65 383.708 3976.91 379.086 3989.41 375.961C4002.04 372.836 4015.45 371.273 4029.65 371.273C4063.63 371.273 4095.66 379.281 4125.74 395.297V480.453H4120.47C4108.75 470.167 4094.29 461.964 4077.11 455.844C4059.92 449.594 4042.54 446.469 4024.96 446.469C4008.16 446.469 3999.76 449.659 3999.76 456.039C3999.76 458.513 4002.3 460.596 4007.38 462.289C4012.59 463.852 4019.29 465.219 4027.5 466.391C4035.7 467.562 4044.75 468.93 4054.65 470.492C4064.67 472.055 4074.63 474.464 4084.53 477.719C4094.56 480.974 4103.67 484.945 4111.87 489.633C4120.08 494.32 4126.72 500.896 4131.79 509.359C4137 517.693 4139.61 527.393 4139.61 538.461C4139.61 557.211 4134.46 572.901 4124.18 585.531C4113.89 598.031 4100.22 607.081 4083.16 612.68C4066.1 618.148 4045.99 620.883 4022.81 620.883Z" fill="#3D2897"/>
<rect x="472.592" y="326" width="300" height="300" fill="#3D2897"/>
<mask id="mask0_81_248" style="mask-type:alpha" maskUnits="userSpaceOnUse" x="512" y="366" width="221" height="220">
<rect x="512.592" y="366" width="220" height="220" fill="#D9D9D9"/>
</mask>
<g mask="url(#mask0_81_248)">
<path d="M574.467 567.666C567.592 567.666 561.672 565.336 556.707 560.677C551.741 556.017 549.259 550.25 549.259 543.375V415.5C549.259 409.694 551.054 404.5 554.644 399.916C558.234 395.333 562.932 392.43 568.738 391.208L659.259 373.333V520L572.405 537.416C571.03 537.722 569.884 538.448 568.967 539.593C568.05 540.739 567.592 542 567.592 543.375C567.592 545.055 568.28 546.468 569.655 547.614C571.03 548.76 572.634 549.333 574.467 549.333H677.592V402.666H695.925V567.666H574.467ZM576.759 517.937L595.092 514.271V404.729L576.759 408.396V517.937Z" fill="white"/>
</g>
</svg>
