<svg width="234" height="30" viewBox="0 0 234 30" fill="none" xmlns="http://www.w3.org/2000/svg">
<rect x="1" y="1" width="232" height="28" rx="9" fill="#CB3837" fill-opacity="0.4" stroke="#CB3837" stroke-width="2"/>
<path d="M31.184 20V8.32H36.064L39.952 17.632H40.512L40.192 17.92V8.32H42.976V20H38.064L34.176 10.688H33.616L33.936 10.4V20H31.184ZM49.6123 20.32C48.8336 20.32 48.1403 20.2027 47.5323 19.968C46.9243 19.7333 46.4069 19.408 45.9803 18.992C45.5643 18.576 45.2443 18.096 45.0203 17.552C44.8069 17.008 44.7003 16.4267 44.7003 15.808V15.424C44.7003 14.784 44.8123 14.1867 45.0363 13.632C45.2709 13.0773 45.6016 12.592 46.0283 12.176C46.4549 11.76 46.9723 11.4347 47.5803 11.2C48.1883 10.9653 48.8656 10.848 49.6123 10.848C50.3696 10.848 51.0469 10.9653 51.6443 11.2C52.2523 11.4347 52.7696 11.76 53.1962 12.176C53.6229 12.592 53.9483 13.0773 54.1723 13.632C54.4069 14.1867 54.5243 14.784 54.5243 15.424V15.808C54.5243 16.4267 54.4123 17.008 54.1883 17.552C53.9749 18.096 53.6549 18.576 53.2283 18.992C52.8123 19.408 52.3003 19.7333 51.6923 19.968C51.0843 20.2027 50.3909 20.32 49.6123 20.32ZM49.6123 17.888C50.0603 17.888 50.4283 17.792 50.7163 17.6C51.0149 17.408 51.2389 17.1413 51.3883 16.8C51.5376 16.448 51.6123 16.0533 51.6123 15.616C51.6123 15.1573 51.5323 14.7573 51.3723 14.416C51.2229 14.064 50.9989 13.7867 50.7003 13.584C50.4016 13.3813 50.0389 13.28 49.6123 13.28C49.1856 13.28 48.8229 13.3813 48.5243 13.584C48.2256 13.7867 47.9963 14.064 47.8363 14.416C47.6869 14.7573 47.6123 15.1573 47.6123 15.616C47.6123 16.0533 47.6869 16.448 47.8363 16.8C47.9856 17.1413 48.2096 17.408 48.5083 17.6C48.8069 17.792 49.1749 17.888 49.6123 17.888ZM59.7505 20.288C59.1318 20.288 58.5665 20.176 58.0545 19.952C57.5532 19.728 57.1158 19.4187 56.7425 19.024C56.3798 18.6187 56.0972 18.144 55.8945 17.6C55.7025 17.056 55.6065 16.464 55.6065 15.824V15.44C55.6065 14.8 55.6972 14.208 55.8785 13.664C56.0705 13.1093 56.3425 12.6293 56.6945 12.224C57.0465 11.808 57.4732 11.488 57.9745 11.264C58.4758 11.0293 59.0358 10.912 59.6545 10.912C60.3692 10.912 60.9772 11.072 61.4785 11.392C61.9905 11.7013 62.3798 12.1547 62.6465 12.752C62.9238 13.3493 63.0732 14.0747 63.0945 14.928L62.4225 14.432V8.32H65.3345V20H63.0305V16.416H63.3505C63.3292 17.2053 63.1692 17.8933 62.8705 18.48C62.5718 19.056 62.1558 19.504 61.6225 19.824C61.0998 20.1333 60.4758 20.288 59.7505 20.288ZM60.5345 17.888C60.8865 17.888 61.2065 17.808 61.4945 17.648C61.7932 17.488 62.0332 17.2533 62.2145 16.944C62.3958 16.6347 62.4865 16.2613 62.4865 15.824V15.28C62.4865 14.8533 62.3905 14.496 62.1985 14.208C62.0172 13.92 61.7772 13.7013 61.4785 13.552C61.1905 13.392 60.8758 13.312 60.5345 13.312C60.1505 13.312 59.8038 13.4133 59.4945 13.616C59.1958 13.808 58.9558 14.08 58.7745 14.432C58.6038 14.7733 58.5185 15.1733 58.5185 15.632C58.5185 16.0907 58.6038 16.4907 58.7745 16.832C58.9558 17.1627 59.1958 17.424 59.4945 17.616C59.8038 17.7973 60.1505 17.888 60.5345 17.888ZM71.5906 20.32C70.844 20.32 70.1826 20.192 69.6066 19.936C69.0306 19.68 68.5453 19.3333 68.1506 18.896C67.756 18.4587 67.452 17.968 67.2386 17.424C67.036 16.88 66.9346 16.32 66.9346 15.744V15.424C66.9346 14.8267 67.036 14.256 67.2386 13.712C67.452 13.1573 67.7506 12.6667 68.1346 12.24C68.5293 11.8133 69.0093 11.4773 69.5746 11.232C70.14 10.976 70.78 10.848 71.4946 10.848C72.444 10.848 73.2493 11.0613 73.9106 11.488C74.572 11.9147 75.0786 12.48 75.4306 13.184C75.7826 13.8773 75.9586 14.6347 75.9586 15.456V16.384H68.1506V14.816H74.2786L73.2706 15.52C73.2706 15.0187 73.2013 14.5973 73.0626 14.256C72.9346 13.904 72.7373 13.6373 72.4706 13.456C72.2146 13.2747 71.8893 13.184 71.4946 13.184C71.1106 13.184 70.7746 13.2747 70.4866 13.456C70.2093 13.6267 69.996 13.8933 69.8466 14.256C69.6973 14.608 69.6226 15.056 69.6226 15.6C69.6226 16.0907 69.692 16.5173 69.8306 16.88C69.9693 17.232 70.1826 17.504 70.4706 17.696C70.7586 17.888 71.132 17.984 71.5906 17.984C71.996 17.984 72.3266 17.9147 72.5826 17.776C72.8493 17.6373 73.036 17.4507 73.1426 17.216H75.7986C75.6706 17.8133 75.4146 18.3467 75.0306 18.816C74.6573 19.2853 74.1773 19.6533 73.5906 19.92C73.0146 20.1867 72.348 20.32 71.5906 20.32ZM83.5431 16.896V14.336H85.4631C85.8258 14.336 86.1405 14.2667 86.4071 14.128C86.6738 13.9787 86.8818 13.7707 87.0311 13.504C87.1805 13.2373 87.2551 12.9227 87.2551 12.56C87.2551 12.1867 87.1805 11.8667 87.0311 11.6C86.8818 11.3333 86.6738 11.1307 86.4071 10.992C86.1405 10.8533 85.8258 10.784 85.4631 10.784H83.5431V8.224H85.3831C86.3858 8.224 87.2498 8.39467 87.9751 8.736C88.7111 9.06667 89.2765 9.54667 89.6711 10.176C90.0658 10.8053 90.2631 11.5573 90.2631 12.432V12.688C90.2631 13.552 90.0658 14.2987 89.6711 14.928C89.2765 15.5573 88.7111 16.0427 87.9751 16.384C87.2498 16.7253 86.3858 16.896 85.3831 16.896H83.5431ZM80.8871 20V8.224H83.8631V20H80.8871ZM96.7906 20V17.408H96.3106V14.64C96.3106 14.2347 96.2146 13.936 96.0226 13.744C95.8413 13.5413 95.5373 13.44 95.1106 13.44C94.908 13.44 94.6093 13.4453 94.2146 13.456C93.82 13.4667 93.404 13.4827 92.9666 13.504C92.5293 13.5253 92.1293 13.5467 91.7666 13.568V11.136C92.0226 11.1147 92.3266 11.0933 92.6786 11.072C93.0306 11.0507 93.3933 11.0347 93.7666 11.024C94.1506 11.0133 94.5026 11.008 94.8226 11.008C95.7293 11.008 96.4973 11.1413 97.1266 11.408C97.7666 11.6747 98.252 12.0747 98.5826 12.608C98.924 13.1413 99.0946 13.8187 99.0946 14.64V20H96.7906ZM93.9906 20.224C93.372 20.224 92.8226 20.112 92.3426 19.888C91.8626 19.664 91.484 19.344 91.2066 18.928C90.94 18.5013 90.8066 17.9947 90.8066 17.408C90.8066 16.7467 90.9826 16.2133 91.3346 15.808C91.6866 15.392 92.172 15.088 92.7906 14.896C93.4093 14.704 94.1186 14.608 94.9186 14.608H96.6306V16.112H94.9186C94.524 16.112 94.22 16.2133 94.0066 16.416C93.7933 16.608 93.6866 16.8693 93.6866 17.2C93.6866 17.52 93.7933 17.7813 94.0066 17.984C94.22 18.176 94.524 18.272 94.9186 18.272C95.1746 18.272 95.3986 18.2293 95.5906 18.144C95.7933 18.048 95.9586 17.888 96.0866 17.664C96.2146 17.44 96.2893 17.1307 96.3106 16.736L96.9826 17.376C96.9293 17.984 96.78 18.5013 96.5346 18.928C96.3 19.344 95.9693 19.664 95.5426 19.888C95.1266 20.112 94.6093 20.224 93.9906 20.224ZM105.072 20.32C104.304 20.32 103.638 20.1973 103.072 19.952C102.507 19.696 102.032 19.3547 101.648 18.928C101.275 18.5013 100.992 18.016 100.8 17.472C100.619 16.928 100.528 16.3627 100.528 15.776V15.456C100.528 14.8373 100.624 14.2507 100.816 13.696C101.019 13.1413 101.312 12.6507 101.696 12.224C102.08 11.7973 102.555 11.4613 103.12 11.216C103.686 10.9707 104.336 10.848 105.072 10.848C105.883 10.848 106.598 11.008 107.216 11.328C107.835 11.648 108.326 12.0907 108.688 12.656C109.062 13.2107 109.27 13.8507 109.312 14.576H106.464C106.432 14.224 106.299 13.9253 106.064 13.68C105.84 13.4347 105.51 13.312 105.072 13.312C104.699 13.312 104.39 13.408 104.144 13.6C103.91 13.792 103.734 14.0587 103.616 14.4C103.499 14.7413 103.44 15.1467 103.44 15.616C103.44 16.0533 103.488 16.4427 103.584 16.784C103.691 17.1253 103.862 17.392 104.096 17.584C104.342 17.7653 104.667 17.856 105.072 17.856C105.371 17.856 105.622 17.8027 105.824 17.696C106.027 17.5893 106.187 17.44 106.304 17.248C106.422 17.0453 106.496 16.8107 106.528 16.544H109.376C109.334 17.2907 109.12 17.9467 108.736 18.512C108.363 19.0773 107.862 19.52 107.232 19.84C106.603 20.16 105.883 20.32 105.072 20.32ZM117.125 20L114.517 15.872H113.333L116.789 11.168H119.829L116.549 15.6V14.192L120.373 20H117.125ZM110.853 20V8.32H113.765V20H110.853ZM126.588 20V17.408H126.108V14.64C126.108 14.2347 126.012 13.936 125.82 13.744C125.638 13.5413 125.334 13.44 124.908 13.44C124.705 13.44 124.406 13.4453 124.012 13.456C123.617 13.4667 123.201 13.4827 122.764 13.504C122.326 13.5253 121.926 13.5467 121.564 13.568V11.136C121.82 11.1147 122.124 11.0933 122.476 11.072C122.828 11.0507 123.19 11.0347 123.564 11.024C123.948 11.0133 124.3 11.008 124.62 11.008C125.526 11.008 126.294 11.1413 126.924 11.408C127.564 11.6747 128.049 12.0747 128.38 12.608C128.721 13.1413 128.892 13.8187 128.892 14.64V20H126.588ZM123.788 20.224C123.169 20.224 122.62 20.112 122.14 19.888C121.66 19.664 121.281 19.344 121.004 18.928C120.737 18.5013 120.604 17.9947 120.604 17.408C120.604 16.7467 120.78 16.2133 121.132 15.808C121.484 15.392 121.969 15.088 122.588 14.896C123.206 14.704 123.916 14.608 124.716 14.608H126.428V16.112H124.716C124.321 16.112 124.017 16.2133 123.804 16.416C123.59 16.608 123.484 16.8693 123.484 17.2C123.484 17.52 123.59 17.7813 123.804 17.984C124.017 18.176 124.321 18.272 124.716 18.272C124.972 18.272 125.196 18.2293 125.388 18.144C125.59 18.048 125.756 17.888 125.884 17.664C126.012 17.44 126.086 17.1307 126.108 16.736L126.78 17.376C126.726 17.984 126.577 18.5013 126.332 18.928C126.097 19.344 125.766 19.664 125.34 19.888C124.924 20.112 124.406 20.224 123.788 20.224ZM134.373 23.536C133.936 23.536 133.483 23.52 133.013 23.488C132.555 23.456 132.139 23.4133 131.765 23.36V20.928C132.139 20.9707 132.555 21.008 133.013 21.04C133.472 21.0827 133.893 21.104 134.277 21.104C134.939 21.104 135.477 21.0347 135.893 20.896C136.32 20.7573 136.635 20.544 136.837 20.256C137.04 19.968 137.141 19.6 137.141 19.152V17.36L137.589 16.4C137.568 17.1467 137.424 17.7973 137.157 18.352C136.891 18.896 136.507 19.3173 136.005 19.616C135.515 19.9147 134.917 20.064 134.213 20.064C133.616 20.064 133.077 19.9573 132.597 19.744C132.117 19.5307 131.707 19.232 131.365 18.848C131.035 18.4533 130.779 17.9893 130.597 17.456C130.416 16.9227 130.325 16.3413 130.325 15.712V15.328C130.325 14.6987 130.421 14.1173 130.613 13.584C130.805 13.04 131.083 12.5707 131.445 12.176C131.808 11.7707 132.235 11.4613 132.725 11.248C133.227 11.024 133.781 10.912 134.389 10.912C135.093 10.912 135.701 11.072 136.213 11.392C136.725 11.7013 137.125 12.1547 137.413 12.752C137.701 13.3493 137.856 14.0747 137.877 14.928L137.557 15.04V11.168H139.861V18.96C139.861 20.048 139.659 20.928 139.253 21.6C138.848 22.272 138.235 22.7627 137.413 23.072C136.603 23.3813 135.589 23.536 134.373 23.536ZM135.189 17.664C135.541 17.664 135.856 17.584 136.133 17.424C136.421 17.264 136.651 17.0347 136.821 16.736C136.992 16.4267 137.077 16.0587 137.077 15.632V15.248C137.077 14.832 136.987 14.48 136.805 14.192C136.635 13.904 136.405 13.6853 136.117 13.536C135.829 13.3867 135.52 13.312 135.189 13.312C134.805 13.312 134.464 13.4027 134.165 13.584C133.877 13.7653 133.648 14.0213 133.477 14.352C133.317 14.6827 133.237 15.072 133.237 15.52C133.237 15.968 133.317 16.352 133.477 16.672C133.648 16.992 133.877 17.2373 134.165 17.408C134.464 17.5787 134.805 17.664 135.189 17.664ZM146.028 20.32C145.281 20.32 144.62 20.192 144.044 19.936C143.468 19.68 142.983 19.3333 142.588 18.896C142.193 18.4587 141.889 17.968 141.676 17.424C141.473 16.88 141.372 16.32 141.372 15.744V15.424C141.372 14.8267 141.473 14.256 141.676 13.712C141.889 13.1573 142.188 12.6667 142.572 12.24C142.967 11.8133 143.447 11.4773 144.012 11.232C144.577 10.976 145.217 10.848 145.932 10.848C146.881 10.848 147.687 11.0613 148.348 11.488C149.009 11.9147 149.516 12.48 149.868 13.184C150.22 13.8773 150.396 14.6347 150.396 15.456V16.384H142.588V14.816H148.716L147.708 15.52C147.708 15.0187 147.639 14.5973 147.5 14.256C147.372 13.904 147.175 13.6373 146.908 13.456C146.652 13.2747 146.327 13.184 145.932 13.184C145.548 13.184 145.212 13.2747 144.924 13.456C144.647 13.6267 144.433 13.8933 144.284 14.256C144.135 14.608 144.06 15.056 144.06 15.6C144.06 16.0907 144.129 16.5173 144.268 16.88C144.407 17.232 144.62 17.504 144.908 17.696C145.196 17.888 145.569 17.984 146.028 17.984C146.433 17.984 146.764 17.9147 147.02 17.776C147.287 17.6373 147.473 17.4507 147.58 17.216H150.236C150.108 17.8133 149.852 18.3467 149.468 18.816C149.095 19.2853 148.615 19.6533 148.028 19.92C147.452 20.1867 146.785 20.32 146.028 20.32ZM155.325 20V8.32H159.453L161.853 14.48H162.173L164.557 8.32H168.765V20H165.821V10.032L166.285 10.064L163.277 17.648H160.573L157.549 10.064L158.045 10.032V20H155.325ZM175.409 20.32C174.63 20.32 173.937 20.2027 173.329 19.968C172.721 19.7333 172.204 19.408 171.777 18.992C171.361 18.576 171.041 18.096 170.817 17.552C170.604 17.008 170.497 16.4267 170.497 15.808V15.424C170.497 14.784 170.609 14.1867 170.833 13.632C171.068 13.0773 171.398 12.592 171.825 12.176C172.252 11.76 172.769 11.4347 173.377 11.2C173.985 10.9653 174.662 10.848 175.409 10.848C176.166 10.848 176.844 10.9653 177.441 11.2C178.049 11.4347 178.566 11.76 178.993 12.176C179.42 12.592 179.745 13.0773 179.969 13.632C180.204 14.1867 180.321 14.784 180.321 15.424V15.808C180.321 16.4267 180.209 17.008 179.985 17.552C179.772 18.096 179.452 18.576 179.025 18.992C178.609 19.408 178.097 19.7333 177.489 19.968C176.881 20.2027 176.188 20.32 175.409 20.32ZM175.409 17.888C175.857 17.888 176.225 17.792 176.513 17.6C176.812 17.408 177.036 17.1413 177.185 16.8C177.334 16.448 177.409 16.0533 177.409 15.616C177.409 15.1573 177.329 14.7573 177.169 14.416C177.02 14.064 176.796 13.7867 176.497 13.584C176.198 13.3813 175.836 13.28 175.409 13.28C174.982 13.28 174.62 13.3813 174.321 13.584C174.022 13.7867 173.793 14.064 173.633 14.416C173.484 14.7573 173.409 15.1573 173.409 15.616C173.409 16.0533 173.484 16.448 173.633 16.8C173.782 17.1413 174.006 17.408 174.305 17.6C174.604 17.792 174.972 17.888 175.409 17.888ZM185.547 20.288C184.929 20.288 184.363 20.176 183.851 19.952C183.35 19.728 182.913 19.4187 182.539 19.024C182.177 18.6187 181.894 18.144 181.691 17.6C181.499 17.056 181.403 16.464 181.403 15.824V15.44C181.403 14.8 181.494 14.208 181.675 13.664C181.867 13.1093 182.139 12.6293 182.491 12.224C182.843 11.808 183.27 11.488 183.771 11.264C184.273 11.0293 184.833 10.912 185.451 10.912C186.166 10.912 186.774 11.072 187.275 11.392C187.787 11.7013 188.177 12.1547 188.443 12.752C188.721 13.3493 188.87 14.0747 188.891 14.928L188.219 14.432V8.32H191.131V20H188.827V16.416H189.147C189.126 17.2053 188.966 17.8933 188.667 18.48C188.369 19.056 187.953 19.504 187.419 19.824C186.897 20.1333 186.273 20.288 185.547 20.288ZM186.331 17.888C186.683 17.888 187.003 17.808 187.291 17.648C187.59 17.488 187.83 17.2533 188.011 16.944C188.193 16.6347 188.283 16.2613 188.283 15.824V15.28C188.283 14.8533 188.187 14.496 187.995 14.208C187.814 13.92 187.574 13.7013 187.275 13.552C186.987 13.392 186.673 13.312 186.331 13.312C185.947 13.312 185.601 13.4133 185.291 13.616C184.993 13.808 184.753 14.08 184.571 14.432C184.401 14.7733 184.315 15.1733 184.315 15.632C184.315 16.0907 184.401 16.4907 184.571 16.832C184.753 17.1627 184.993 17.424 185.291 17.616C185.601 17.7973 185.947 17.888 186.331 17.888ZM196.204 20.288C195.201 20.288 194.422 19.9627 193.868 19.312C193.324 18.6507 193.052 17.6427 193.052 16.288V11.168H195.964V16.368C195.964 16.7627 196.081 17.0827 196.316 17.328C196.55 17.5733 196.865 17.696 197.26 17.696C197.654 17.696 197.974 17.5733 198.22 17.328C198.465 17.0827 198.588 16.752 198.588 16.336V11.168H201.5V20H199.196V16.288H199.356C199.356 17.1947 199.238 17.9467 199.004 18.544C198.78 19.1307 198.444 19.568 197.996 19.856C197.548 20.144 196.993 20.288 196.332 20.288H196.204ZM203.778 20V8.32H206.69V20H203.778ZM202.786 10.432V8.32H206.69V10.432H202.786ZM212.981 20.32C212.235 20.32 211.573 20.192 210.997 19.936C210.421 19.68 209.936 19.3333 209.541 18.896C209.147 18.4587 208.843 17.968 208.629 17.424C208.427 16.88 208.325 16.32 208.325 15.744V15.424C208.325 14.8267 208.427 14.256 208.629 13.712C208.843 13.1573 209.141 12.6667 209.525 12.24C209.92 11.8133 210.4 11.4773 210.965 11.232C211.531 10.976 212.171 10.848 212.885 10.848C213.835 10.848 214.64 11.0613 215.301 11.488C215.963 11.9147 216.469 12.48 216.821 13.184C217.173 13.8773 217.349 14.6347 217.349 15.456V16.384H209.541V14.816H215.669L214.661 15.52C214.661 15.0187 214.592 14.5973 214.453 14.256C214.325 13.904 214.128 13.6373 213.861 13.456C213.605 13.2747 213.28 13.184 212.885 13.184C212.501 13.184 212.165 13.2747 211.877 13.456C211.6 13.6267 211.387 13.8933 211.237 14.256C211.088 14.608 211.013 15.056 211.013 15.6C211.013 16.0907 211.083 16.5173 211.221 16.88C211.36 17.232 211.573 17.504 211.861 17.696C212.149 17.888 212.523 17.984 212.981 17.984C213.387 17.984 213.717 17.9147 213.973 17.776C214.24 17.6373 214.427 17.4507 214.533 17.216H217.189C217.061 17.8133 216.805 18.3467 216.421 18.816C216.048 19.2853 215.568 19.6533 214.981 19.92C214.405 20.1867 213.739 20.32 212.981 20.32ZM222.388 20.288C221.108 20.288 220.1 20.0267 219.364 19.504C218.628 18.9707 218.233 18.224 218.18 17.264H220.74C220.783 17.5307 220.948 17.76 221.236 17.952C221.524 18.144 221.929 18.24 222.452 18.24C222.825 18.24 223.145 18.1867 223.412 18.08C223.689 17.9627 223.828 17.776 223.828 17.52C223.828 17.296 223.721 17.1147 223.508 16.976C223.295 16.8267 222.905 16.7253 222.34 16.672L221.732 16.608C220.601 16.4907 219.769 16.1813 219.236 15.68C218.703 15.1787 218.436 14.5493 218.436 13.792C218.436 13.1413 218.596 12.608 218.916 12.192C219.236 11.7653 219.679 11.4453 220.244 11.232C220.809 11.0187 221.455 10.912 222.18 10.912C223.364 10.912 224.319 11.1733 225.044 11.696C225.769 12.208 226.153 12.9493 226.196 13.92H223.636C223.593 13.6533 223.449 13.4293 223.204 13.248C222.959 13.056 222.607 12.96 222.148 12.96C221.817 12.96 221.545 13.0187 221.332 13.136C221.129 13.2533 221.028 13.4187 221.028 13.632C221.028 13.856 221.124 14.0213 221.316 14.128C221.519 14.2347 221.839 14.3147 222.276 14.368L222.884 14.432C224.015 14.5493 224.884 14.864 225.492 15.376C226.111 15.8773 226.42 16.5387 226.42 17.36C226.42 17.968 226.255 18.4907 225.924 18.928C225.604 19.3653 225.14 19.7013 224.532 19.936C223.935 20.1707 223.22 20.288 222.388 20.288Z" fill="white"/>
<path d="M14 7.57735C14.6188 7.22008 15.3812 7.22008 16 7.57735L20.9282 10.4226C21.547 10.7799 21.9282 11.4402 21.9282 12.1547V17.8453C21.9282 18.5598 21.547 19.2201 20.9282 19.5774L16 22.4226C15.3812 22.7799 14.6188 22.7799 14 22.4226L9.0718 19.5774C8.45299 19.2201 8.0718 18.5598 8.0718 17.8453V12.1547C8.0718 11.4402 8.45299 10.7799 9.0718 10.4226L14 7.57735Z" fill="#CB3837"/>
</svg>
