<svg width="200" height="60" viewBox="0 0 200 60" fill="none" xmlns="http://www.w3.org/2000/svg">
<rect width="200" height="60" fill="#B62127"/>
<rect width="60" height="60" fill="#C12127"/>
<path d="M46 14H14L14 46H31.7778V28.2222H38.8889V46H46V14Z" fill="white"/>
<path d="M110.105 14V44H103.025V42.2C103.025 40.2533 102.771 38.3867 102.265 36.6C101.785 34.7867 101.078 33.0933 100.145 31.52C99.2379 29.92 98.1312 28.4533 96.8245 27.12C95.5179 25.7867 94.0512 24.6267 92.4245 23.64V44H85.3445V21.16C85.1312 21.1333 84.9045 21.12 84.6645 21.12C84.4512 21.0933 84.2379 21.08 84.0245 21.08H80.7445V14H84.0245C85.8112 14 87.5845 14.24 89.3445 14.72C91.1312 15.2 92.8379 15.8667 94.4645 16.72C96.1179 17.5467 97.6645 18.5333 99.1045 19.68C100.571 20.8 101.878 22.0267 103.025 23.36V14H110.105ZM112.112 14H140.232V23.8C140.232 25.4 139.925 26.9067 139.312 28.32C138.698 29.7067 137.872 30.92 136.832 31.96C135.792 33 134.565 33.8267 133.152 34.44C131.765 35.0267 130.285 35.32 128.712 35.32H123.792V44H116.712V21.08H112.112V14ZM133.152 21.08H123.792V28.24H128.712C129.325 28.24 129.898 28.12 130.432 27.88C130.965 27.64 131.432 27.32 131.832 26.92C132.232 26.52 132.552 26.0533 132.792 25.52C133.032 24.9867 133.152 24.4133 133.152 23.8V21.08ZM181.269 14V44H174.189V21.72C173.229 22.0667 172.336 22.56 171.509 23.2C170.709 23.84 170.016 24.5733 169.429 25.4C168.869 26.2267 168.416 27.1333 168.069 28.12C167.749 29.1067 167.589 30.1467 167.589 31.24V44H160.509V31.24C160.509 30.1467 160.336 29.1067 159.989 28.12C159.669 27.1333 159.216 26.2267 158.629 25.4C158.069 24.5733 157.376 23.84 156.549 23.2C155.749 22.56 154.869 22.0667 153.909 21.72V44H146.829V21.08H142.229V14H150.349C153.176 14 155.762 14.6133 158.109 15.84C160.482 17.0667 162.469 18.72 164.069 20.8C165.642 18.72 167.602 17.0667 169.949 15.84C172.322 14.6133 174.922 14 177.749 14H181.269Z" fill="white"/>
</svg>
