<svg width="780" height="180" viewBox="0 0 780 180" fill="none" xmlns="http://www.w3.org/2000/svg">
<mask id="mask0_55_238" style="mask-type:alpha" maskUnits="userSpaceOnUse" x="0" y="0" width="781" height="180">
<rect width="780.004" height="180" fill="#2C2C2C"/>
</mask>
<g mask="url(#mask0_55_238)">
<rect width="780.004" height="180" fill="#2C2C2C"/>
<rect x="0.00195312" width="141.901" height="180" fill="#F375C2"/>
<rect x="0.00195312" y="142.123" width="780.002" height="37.8774" fill="#F375C2"/>
<rect x="268.829" y="-142.923" width="141.901" height="329.402" transform="rotate(45 268.829 -142.923)" fill="#F375C2"/>
<path d="M220.298 136.06C211.765 136.06 204.341 134.609 198.026 131.708C191.711 128.721 186.463 124.839 182.282 120.06C178.101 115.196 174.986 109.948 172.938 104.316C170.89 98.684 169.866 93.2227 169.866 87.932V85.116C169.866 79.228 170.933 73.468 173.066 67.836C175.199 62.1187 178.399 56.956 182.666 52.348C186.933 47.74 192.181 44.0707 198.41 41.34C204.725 38.6093 212.021 37.244 220.298 37.244C228.49 37.244 235.701 38.6093 241.93 41.34C248.245 44.0707 253.535 47.74 257.802 52.348C262.069 56.956 265.269 62.1187 267.402 67.836C269.621 73.468 270.73 79.228 270.73 85.116V87.932C270.73 93.2227 269.663 98.684 267.53 104.316C265.482 109.948 262.367 115.196 258.186 120.06C254.005 124.839 248.757 128.721 242.442 131.708C236.127 134.609 228.746 136.06 220.298 136.06ZM220.298 113.788C224.394 113.788 228.063 113.105 231.306 111.74C234.549 110.375 237.322 108.455 239.626 105.98C241.93 103.505 243.679 100.647 244.874 97.404C246.069 94.076 246.666 90.492 246.666 86.652C246.666 82.556 246.026 78.844 244.746 75.516C243.551 72.188 241.802 69.3293 239.498 66.94C237.194 64.5507 234.421 62.716 231.178 61.436C227.935 60.156 224.309 59.516 220.298 59.516C216.202 59.516 212.533 60.156 209.29 61.436C206.047 62.716 203.274 64.5507 200.97 66.94C198.666 69.3293 196.917 72.188 195.722 75.516C194.527 78.844 193.93 82.556 193.93 86.652C193.93 90.492 194.527 94.076 195.722 97.404C196.917 100.647 198.666 103.505 200.97 105.98C203.274 108.455 206.047 110.375 209.29 111.74C212.533 113.105 216.202 113.788 220.298 113.788ZM285.099 133.5V39.292H308.907V133.5H285.099ZM341.419 133.5L315.179 93.82H341.035L368.811 133.5H341.419ZM302.891 104.828V86.524H325.291C328.107 86.524 330.539 85.9693 332.587 84.86C334.635 83.7507 336.214 82.172 337.323 80.124C338.518 78.076 339.115 75.6867 339.115 72.956C339.115 70.14 338.518 67.708 337.323 65.66C336.214 63.612 334.635 62.0333 332.587 60.924C330.539 59.8147 328.107 59.26 325.291 59.26H302.891V39.292H323.883C331.99 39.292 338.987 40.5293 344.875 43.004C350.763 45.3933 355.286 48.9773 358.443 53.756C361.6 58.4493 363.179 64.2947 363.179 71.292V73.34C363.179 80.3373 361.558 86.1827 358.315 90.876C355.158 95.484 350.635 98.9827 344.747 101.372C338.944 103.676 331.99 104.828 323.883 104.828H302.891ZM422.497 136.06C414.049 136.06 406.796 134.609 400.737 131.708C394.678 128.721 389.686 124.839 385.761 120.06C381.836 115.196 378.934 109.948 377.057 104.316C375.18 98.684 374.241 93.2227 374.241 87.932V85.116C374.241 79.228 375.18 73.468 377.057 67.836C379.02 62.1187 381.964 56.956 385.889 52.348C389.9 47.74 394.892 44.0707 400.865 41.34C406.838 38.6093 413.836 37.244 421.857 37.244C430.39 37.244 437.942 38.8653 444.513 42.108C451.169 45.2653 456.502 49.7453 460.513 55.548C464.524 61.2653 466.87 67.9213 467.553 75.516H443.745C443.148 72.2733 441.868 69.4573 439.905 67.068C437.942 64.6787 435.425 62.844 432.353 61.564C429.281 60.1987 425.782 59.516 421.857 59.516C418.188 59.516 414.86 60.156 411.873 61.436C408.972 62.716 406.497 64.5507 404.449 66.94C402.486 69.244 400.95 72.06 399.841 75.388C398.817 78.716 398.305 82.4707 398.305 86.652C398.305 90.8333 398.817 94.588 399.841 97.916C400.95 101.244 402.529 104.103 404.577 106.492C406.71 108.881 409.27 110.716 412.257 111.996C415.244 113.191 418.657 113.788 422.497 113.788C428.47 113.788 433.505 112.337 437.601 109.436C441.782 106.535 444.3 102.652 445.153 97.788H468.961C468.193 104.785 465.846 111.185 461.921 116.988C457.996 122.791 452.705 127.441 446.049 130.94C439.393 134.353 431.542 136.06 422.497 136.06ZM481.73 133.5V40.06H505.538V133.5H481.73ZM545.972 134.012V111.74H561.332C565.343 111.74 568.927 111.185 572.084 110.076C575.327 108.881 578.057 107.217 580.276 105.084C582.495 102.865 584.201 100.22 585.396 97.148C586.591 93.9907 587.188 90.4493 587.188 86.524C587.188 82.428 586.591 78.844 585.396 75.772C584.201 72.6147 582.495 70.012 580.276 67.964C578.057 65.8307 575.327 64.252 572.084 63.228C568.927 62.1187 565.343 61.564 561.332 61.564H545.972V39.292H560.308C568.756 39.292 576.137 40.4867 582.452 42.876C588.852 45.2653 594.185 48.5933 598.452 52.86C602.719 57.0413 605.919 61.9053 608.052 67.452C610.185 72.9987 611.252 78.8867 611.252 85.116V87.932C611.252 93.6493 610.185 99.2813 608.052 104.828C605.919 110.289 602.719 115.239 598.452 119.676C594.185 124.028 588.852 127.527 582.452 130.172C576.137 132.732 568.756 134.012 560.308 134.012H545.972ZM524.724 134.012V39.292H548.532V134.012H524.724Z" fill="white"/>
</g>
</svg>
