<svg width="780" height="220" viewBox="0 0 780 220" fill="none" xmlns="http://www.w3.org/2000/svg">
<rect width="780.004" height="219.554" fill="#55264F"/>
<path d="M252.865 153.242C245.873 153.242 239.447 152.109 233.588 149.844C227.729 147.578 222.826 144.492 218.881 140.586C214.936 136.68 211.869 132.09 209.682 126.816C207.494 121.504 206.4 115.859 206.4 109.883C206.4 103.906 207.494 98.2812 209.682 93.0078C211.908 87.6953 214.994 83.0859 218.939 79.1797C222.885 75.2344 227.787 72.1094 233.646 69.8047C239.506 67.5 245.912 66.3477 252.865 66.3477C259.701 66.3477 266.029 67.5 271.85 69.8047C277.67 72.1094 282.553 75.2344 286.498 79.1797C290.443 83.0859 293.529 87.6953 295.756 93.0078C297.982 98.3203 299.096 103.945 299.096 109.883C299.096 114.688 298.412 119.277 297.045 123.652C295.717 127.988 293.725 131.953 291.068 135.547C288.412 139.141 285.229 142.266 281.518 144.922C277.846 147.539 273.549 149.59 268.627 151.074C263.744 152.52 258.49 153.242 252.865 153.242ZM238.451 120.898C242.123 123.398 246.85 124.648 252.631 124.648C258.412 124.648 263.178 123.398 266.928 120.898C270.678 118.359 272.553 114.688 272.553 109.883C272.553 105.039 270.678 101.387 266.928 98.9258C263.217 96.4648 258.451 95.2344 252.631 95.2344C246.85 95.2344 242.123 96.4648 238.451 98.9258C234.779 101.387 232.943 105.039 232.943 109.883C232.943 114.688 234.779 118.359 238.451 120.898ZM331.732 151.777H303.256V67.7539H352.592C361.146 67.7539 367.729 69.6484 372.338 73.4375C376.947 77.2266 379.252 82.0508 379.252 87.9102C379.252 91.3867 378.393 94.4922 376.674 97.2266C374.994 99.9609 372.729 102.129 369.877 103.73C367.025 105.332 363.9 106.543 360.502 107.363C357.143 108.184 353.627 108.594 349.955 108.594V110.117C353.119 110.117 355.814 110.273 358.041 110.586C360.268 110.859 362.357 111.406 364.311 112.227C366.303 113.047 367.963 114.238 369.291 115.801C370.619 117.324 371.693 119.277 372.514 121.66C372.709 122.207 373.529 124.922 374.975 129.805C376.459 134.648 377.904 138.906 379.311 142.578C380.717 146.211 382.006 148.75 383.178 150.195V151.777H352.357C351.381 149.707 350.463 147.305 349.604 144.57C348.744 141.797 347.904 138.828 347.084 135.664C346.264 132.5 345.775 130.625 345.619 130.039C344.213 125.195 342.689 122.012 341.049 120.488C339.447 118.965 336.928 118.203 333.49 118.203H331.732V151.777ZM331.732 89.0234V103.203H341.283C344.643 103.203 347.24 102.676 349.076 101.621C350.951 100.527 351.889 98.6523 351.889 95.9961C351.889 93.3789 350.971 91.5625 349.135 90.5469C347.299 89.5312 344.682 89.0234 341.283 89.0234H331.732ZM424.545 153.242C417.553 153.242 411.146 152.129 405.326 149.902C399.506 147.637 394.623 144.551 390.678 140.645C386.771 136.738 383.725 132.129 381.537 126.816C379.389 121.465 378.314 115.742 378.314 109.648C378.314 103.672 379.389 98.0469 381.537 92.7734C383.725 87.5 386.771 82.9102 390.678 79.0039C394.584 75.0977 399.447 72.0117 405.268 69.7461C411.127 67.4805 417.553 66.3477 424.545 66.3477C429.896 66.3477 434.877 67.0898 439.486 68.5742C444.135 70.0586 447.787 71.7188 450.443 73.5547V106.074H448.686C444.545 101.934 440.619 99.1016 436.908 97.5781C433.236 96.0156 429.037 95.2344 424.311 95.2344C418.295 95.2344 413.588 96.5234 410.189 99.1016C406.791 101.68 405.092 105.234 405.092 109.766C405.092 114.297 406.811 117.91 410.248 120.605C413.686 123.301 418.373 124.648 424.311 124.648C429.037 124.648 433.256 123.887 436.967 122.363C440.678 120.801 444.584 117.969 448.686 113.867H450.443V146.035C447.787 147.871 444.135 149.531 439.486 151.016C434.877 152.5 429.896 153.242 424.545 153.242ZM484.311 151.777H455.834V67.7539H484.311V151.777ZM525.795 151.777H490.287V67.7539H525.795C533.061 67.7539 539.506 68.5156 545.131 70.0391C550.795 71.5234 555.443 73.5547 559.076 76.1328C562.748 78.6719 565.756 81.7578 568.1 85.3906C570.443 89.0234 572.104 92.8516 573.08 96.875C574.057 100.859 574.545 105.195 574.545 109.883C574.545 114.57 574.057 118.906 573.08 122.891C572.143 126.875 570.502 130.684 568.158 134.316C565.814 137.91 562.807 140.977 559.135 143.516C555.502 146.055 550.854 148.066 545.189 149.551C539.525 151.035 533.061 151.777 525.795 151.777ZM518.764 91.6602V128.164H528.314C533.822 128.164 538.119 126.602 541.205 123.477C544.291 120.312 545.834 115.781 545.834 109.883C545.834 103.984 544.291 99.4727 541.205 96.3477C538.119 93.2227 533.822 91.6602 528.314 91.6602H518.764Z" fill="white"/>
</svg>
