<svg width="612" height="114" viewBox="0 0 612 114" fill="none" xmlns="http://www.w3.org/2000/svg">
<rect width="612" height="114" fill="#030BC3"/>
<path d="M24.8125 35.0625C24.8125 32.75 25.4062 30.6562 26.5938 28.7812C27.8021 26.8854 29.4062 25.375 31.4062 24.25C33.4062 23.125 35.625 22.5625 38.0625 22.5625H48.4688C50.9062 22.5625 53.125 23.125 55.125 24.25C57.1458 25.375 58.75 26.8854 59.9375 28.7812C61.125 30.6562 61.7188 32.75 61.7188 35.0625V54.5C61.7188 56.7917 61.125 58.8854 59.9375 60.7812C58.75 62.6771 57.1458 64.1875 55.125 65.3125C53.125 66.4375 50.9062 67 48.4688 67H38.0625C35.625 67 33.4062 66.4375 31.4062 65.3125C29.4062 64.1875 27.8021 62.6771 26.5938 60.7812C25.4062 58.8854 24.8125 56.7917 24.8125 54.5V35.0625ZM31.4062 54.5312C31.4062 56.1562 32.0521 57.5521 33.3438 58.7188C34.6562 59.8646 36.2292 60.4375 38.0625 60.4375H48.4688C50.3229 60.4375 51.8958 59.8646 53.1875 58.7188C54.4792 57.5521 55.125 56.1562 55.125 54.5312V35.0312C55.125 33.4062 54.4792 32.0208 53.1875 30.875C51.8958 29.7083 50.3229 29.125 48.4688 29.125H38.0625C36.2292 29.125 34.6562 29.7083 33.3438 30.875C32.0521 32.0208 31.4062 33.4062 31.4062 35.0312V54.5312ZM69.875 34.625H76.4688V55.2188C76.4688 56.6771 76.9688 57.9167 77.9688 58.9375C78.9688 59.9583 80.1667 60.4688 81.5625 60.4688H93.0312V34.625H99.625V60.4375C99.625 62.25 98.9792 63.8021 97.6875 65.0938C96.3958 66.3646 94.8229 67 92.9688 67H81.5625C79.4167 67 77.4583 66.4792 75.6875 65.4375C73.9167 64.375 72.5 62.9583 71.4375 61.1875C70.3958 59.4167 69.875 57.4583 69.875 55.3125V34.625ZM105.562 34.625H109.781V22.5625H116.375V34.625H126.344V41.2188H116.375V57.8125C116.375 58.5208 116.646 59.1354 117.188 59.6562C117.75 60.1562 118.417 60.4062 119.188 60.4062H126.344V67H119.094C117.385 67 115.823 66.5938 114.406 65.7812C113.01 64.9479 111.885 63.8438 111.031 62.4688C110.198 61.0729 109.781 59.5312 109.781 57.8438V41.2188H105.562V34.625ZM132.312 43.6875C132.312 42.0208 132.729 40.5 133.562 39.125C134.417 37.75 135.542 36.6562 136.938 35.8438C138.354 35.0312 139.917 34.625 141.625 34.625H148.844V41.1875H141.625C140.875 41.1875 140.229 41.4479 139.688 41.9688C139.167 42.4688 138.906 43.0833 138.906 43.8125V67H132.312V43.6875ZM153.875 46.3125C153.875 44.1667 154.396 42.2083 155.438 40.4375C156.5 38.6667 157.917 37.2604 159.688 36.2188C161.458 35.1562 163.417 34.625 165.562 34.625H172.625C174.771 34.625 176.729 35.1562 178.5 36.2188C180.271 37.2604 181.677 38.6667 182.719 40.4375C183.781 42.2083 184.312 44.1667 184.312 46.3125V55.3125C184.312 57.4583 183.781 59.4167 182.719 61.1875C181.677 62.9583 180.271 64.375 178.5 65.4375C176.729 66.4792 174.771 67 172.625 67H165.562C163.417 67 161.458 66.4792 159.688 65.4375C157.917 64.375 156.5 62.9583 155.438 61.1875C154.396 59.4167 153.875 57.4583 153.875 55.3125V46.3125ZM160.469 55.25C160.469 56.6667 160.969 57.8854 161.969 58.9062C162.969 59.9062 164.167 60.4062 165.562 60.4062H172.625C174.042 60.4062 175.24 59.9062 176.219 58.9062C177.219 57.8854 177.719 56.6667 177.719 55.25V46.375C177.719 44.9583 177.219 43.75 176.219 42.75C175.24 41.7292 174.042 41.2188 172.625 41.2188H165.562C164.167 41.2188 162.969 41.7292 161.969 42.75C160.969 43.75 160.469 44.9583 160.469 46.375V55.25ZM191.188 43.7188C191.188 42.0312 191.604 40.5 192.438 39.125C193.292 37.75 194.417 36.6562 195.812 35.8438C197.229 35.0312 198.792 34.625 200.5 34.625H219.5V41.2188H200.5C199.75 41.2188 199.104 41.4688 198.562 41.9688C198.042 42.4479 197.781 43.0312 197.781 43.7188V44.5C197.781 45.2083 198.042 45.8125 198.562 46.3125C199.104 46.8125 199.75 47.0625 200.5 47.0625H212.312C214.021 47.0625 215.573 47.4792 216.969 48.3125C218.385 49.125 219.51 50.2188 220.344 51.5938C221.177 52.9688 221.594 54.5 221.594 56.1875V57.875C221.594 59.5417 221.177 61.0729 220.344 62.4688C219.51 63.8438 218.385 64.9479 216.969 65.7812C215.573 66.5938 214.021 67 212.312 67H192.656V60.4062H212.312C213.062 60.4062 213.698 60.1562 214.219 59.6562C214.76 59.1562 215.031 58.5521 215.031 57.8438V56.2188C215.031 55.4896 214.76 54.875 214.219 54.375C213.698 53.875 213.062 53.625 212.312 53.625H200.5C198.792 53.625 197.229 53.2188 195.812 52.4062C194.417 51.5729 193.292 50.4688 192.438 49.0938C191.604 47.6979 191.188 46.1667 191.188 44.5V43.7188ZM247.562 35.0625C247.562 32.75 248.135 30.6562 249.281 28.7812C250.427 26.8854 251.958 25.375 253.875 24.25C255.792 23.125 257.917 22.5625 260.25 22.5625H283.531V29.125H260.25C258.562 29.125 257.125 29.7083 255.938 30.875C254.75 32.0208 254.156 33.4167 254.156 35.0625V54.625C254.156 56.2083 254.75 57.5729 255.938 58.7188C257.125 59.8438 258.562 60.4062 260.25 60.4062H283.531V67H260.25C257.917 67 255.792 66.4479 253.875 65.3438C251.958 64.2396 250.427 62.7604 249.281 60.9062C248.135 59.0312 247.562 56.9688 247.562 54.7188V35.0625ZM290.438 46.25C290.438 44.1042 290.958 42.1562 292 40.4062C293.062 38.6562 294.479 37.2604 296.25 36.2188C298.021 35.1562 299.979 34.625 302.125 34.625H320.188V67H313.594V41.2188H302.125C300.729 41.2188 299.531 41.7188 298.531 42.7188C297.531 43.6979 297.031 44.8958 297.031 46.3125V55.25C297.031 56.6667 297.531 57.8854 298.531 58.9062C299.531 59.9062 300.729 60.4062 302.125 60.4062H309.844V67H302.125C299.979 67 298.021 66.4792 296.25 65.4375C294.479 64.375 293.062 62.9583 292 61.1875C290.958 59.4167 290.438 57.4583 290.438 55.3125V46.25ZM327.688 41.1875C327.688 39.375 328.333 37.8333 329.625 36.5625C330.938 35.2708 332.51 34.625 334.344 34.625H345.75C347.896 34.625 349.854 35.1562 351.625 36.2188C353.396 37.2604 354.802 38.6667 355.844 40.4375C356.906 42.2083 357.438 44.1667 357.438 46.3125V67H350.844V46.4062C350.844 44.9479 350.344 43.7083 349.344 42.6875C348.365 41.6667 347.167 41.1562 345.75 41.1562H334.281V67H327.688V41.1875ZM364.625 46.25C364.625 44.1042 365.146 42.1562 366.188 40.4062C367.25 38.6562 368.667 37.2604 370.438 36.2188C372.208 35.1562 374.167 34.625 376.312 34.625H394.375V67H387.781V41.2188H376.312C374.917 41.2188 373.719 41.7188 372.719 42.7188C371.719 43.6979 371.219 44.8958 371.219 46.3125V55.25C371.219 56.6667 371.719 57.8854 372.719 58.9062C373.719 59.9062 374.917 60.4062 376.312 60.4062H384.031V67H376.312C374.167 67 372.208 66.4792 370.438 65.4375C368.667 64.375 367.25 62.9583 366.188 61.1875C365.146 59.4167 364.625 57.4583 364.625 55.3125V46.25ZM401.125 25.8125C401.125 24.6875 401.521 23.7292 402.312 22.9375C403.104 22.1458 404.062 21.75 405.188 21.75C406.312 21.75 407.271 22.1458 408.062 22.9375C408.854 23.7292 409.25 24.6875 409.25 25.8125C409.25 26.9375 408.854 27.8958 408.062 28.6875C407.271 29.4792 406.312 29.875 405.188 29.875C404.062 29.875 403.104 29.4792 402.312 28.6875C401.521 27.8958 401.125 26.9375 401.125 25.8125ZM401.875 34.625H408.5V67H401.875V34.625ZM415.688 43.7188C415.688 42.0312 416.104 40.5 416.938 39.125C417.792 37.75 418.917 36.6562 420.312 35.8438C421.729 35.0312 423.292 34.625 425 34.625H444V41.2188H425C424.25 41.2188 423.604 41.4688 423.062 41.9688C422.542 42.4479 422.281 43.0312 422.281 43.7188V44.5C422.281 45.2083 422.542 45.8125 423.062 46.3125C423.604 46.8125 424.25 47.0625 425 47.0625H436.812C438.521 47.0625 440.073 47.4792 441.469 48.3125C442.885 49.125 444.01 50.2188 444.844 51.5938C445.677 52.9688 446.094 54.5 446.094 56.1875V57.875C446.094 59.5417 445.677 61.0729 444.844 62.4688C444.01 63.8438 442.885 64.9479 441.469 65.7812C440.073 66.5938 438.521 67 436.812 67H417.156V60.4062H436.812C437.562 60.4062 438.198 60.1562 438.719 59.6562C439.26 59.1562 439.531 58.5521 439.531 57.8438V56.2188C439.531 55.4896 439.26 54.875 438.719 54.375C438.198 53.875 437.562 53.625 436.812 53.625H425C423.292 53.625 421.729 53.2188 420.312 52.4062C418.917 51.5729 417.792 50.4688 416.938 49.0938C416.104 47.6979 415.688 46.1667 415.688 44.5V43.7188Z" fill="white"/>
<path d="M39.4688 100L37.6328 93.9258H29.1953L27.3984 100H23.1602L31.1094 74.5117H35.7578L43.707 100H39.4688ZM30.2695 90.3516H36.5586L33.4336 79.8438L30.2695 90.3516ZM63.3945 100H59.3516V88.7695C59.3516 87.3503 59.0846 86.3672 58.5508 85.8203C58.0169 85.2734 57.2422 85 56.2266 85C54.7292 85 53.5052 85.6055 52.5547 86.8164C51.6172 88.0273 51.1484 89.7005 51.1484 91.8359V100H47.1055V81.7969H51.1484V86.3672C51.5521 84.7917 52.3008 83.5677 53.3945 82.6953C54.4883 81.8099 55.8359 81.3672 57.4375 81.3672C59.2995 81.3672 60.7578 81.9727 61.8125 83.1836C62.8672 84.3945 63.3945 86.2565 63.3945 88.7695V100ZM86.6562 90.918C86.6562 92.3372 86.4284 93.6263 85.9727 94.7852C85.5299 95.944 84.8854 96.9466 84.0391 97.793C83.2057 98.6263 82.2031 99.2773 81.0312 99.7461C79.8594 100.215 78.5508 100.449 77.1055 100.449C75.6862 100.449 74.3906 100.215 73.2188 99.7461C72.0469 99.2773 71.0378 98.6263 70.1914 97.793C69.3581 96.9466 68.7135 95.944 68.2578 94.7852C67.8151 93.6263 67.5938 92.3372 67.5938 90.918C67.5938 89.5378 67.8151 88.2617 68.2578 87.0898C68.7135 85.9049 69.3581 84.8893 70.1914 84.043C71.0378 83.1836 72.0469 82.526 73.2188 82.0703C74.3906 81.6016 75.6862 81.3672 77.1055 81.3672C78.5508 81.3672 79.8594 81.6016 81.0312 82.0703C82.2031 82.526 83.2057 83.1836 84.0391 84.043C84.8854 84.8893 85.5299 85.9049 85.9727 87.0898C86.4284 88.2617 86.6562 89.5378 86.6562 90.918ZM82.6328 90.918C82.6328 90.0977 82.5026 89.3229 82.2422 88.5938C81.9948 87.8516 81.6302 87.2201 81.1484 86.6992C80.6667 86.1784 80.0807 85.7682 79.3906 85.4688C78.7135 85.1562 77.9518 85 77.1055 85C76.2461 85 75.4779 85.1562 74.8008 85.4688C74.1237 85.7682 73.5508 86.1784 73.082 86.6992C72.6133 87.2201 72.2487 87.8516 71.9883 88.5938C71.7409 89.3229 71.6172 90.0977 71.6172 90.918C71.6172 91.7773 71.7409 92.5586 71.9883 93.2617C72.2487 93.9648 72.6133 94.5833 73.082 95.1172C73.5508 95.651 74.1237 96.0677 74.8008 96.3672C75.4779 96.6536 76.2461 96.7969 77.1055 96.7969C77.9518 96.7969 78.7135 96.6536 79.3906 96.3672C80.0807 96.0677 80.6667 95.651 81.1484 95.1172C81.6302 94.5833 81.9948 93.9648 82.2422 93.2617C82.5026 92.5586 82.6328 91.7773 82.6328 90.918ZM108.219 94.1992C108.01 96.1133 107.255 97.6367 105.953 98.7695C104.664 99.8893 103.049 100.449 101.109 100.449C100.042 100.449 99.0651 100.273 98.1797 99.9219C97.2943 99.5703 96.5391 99.082 95.9141 98.457C95.2891 97.832 94.8008 97.0833 94.4492 96.2109C94.1107 95.3255 93.9414 94.362 93.9414 93.3203V85.4492H89.8203V81.7969H93.9414V74.5117H97.9844V81.7969H105.621V85.4492H97.9844V93.3203C97.9844 94.4922 98.2708 95.3646 98.8438 95.9375C99.4167 96.5104 100.172 96.7969 101.109 96.7969C102.255 96.7969 103.108 96.4648 103.668 95.8008C104.228 95.1367 104.56 94.3359 104.664 93.3984L108.219 94.1992ZM128.902 100H124.859V88.7695C124.859 87.3503 124.592 86.3672 124.059 85.8203C123.525 85.2734 122.75 85 121.734 85C120.237 85 119.013 85.6055 118.062 86.8164C117.125 88.0273 116.656 89.7005 116.656 91.8359V100H112.613V74.5117H116.656V86.3672C117.06 84.7917 117.809 83.5677 118.902 82.6953C119.996 81.8099 121.344 81.3672 122.945 81.3672C124.807 81.3672 126.266 81.9727 127.32 83.1836C128.375 84.3945 128.902 86.2565 128.902 88.7695V100ZM137.203 92.4414C137.398 93.6914 137.991 94.7331 138.98 95.5664C139.983 96.3867 141.324 96.7969 143.004 96.7969C144.319 96.7969 145.458 96.5951 146.422 96.1914C147.398 95.7747 148.238 95.2279 148.941 94.5508L151.012 97.4023C149.84 98.5742 148.596 99.375 147.281 99.8047C145.979 100.234 144.553 100.449 143.004 100.449C141.598 100.449 140.289 100.215 139.078 99.7461C137.867 99.2773 136.819 98.6263 135.934 97.793C135.048 96.9466 134.352 95.944 133.844 94.7852C133.349 93.6263 133.102 92.3372 133.102 90.918C133.102 89.5378 133.329 88.2682 133.785 87.1094C134.254 85.9375 134.905 84.9284 135.738 84.082C136.585 83.2227 137.594 82.5586 138.766 82.0898C139.938 81.6081 141.233 81.3672 142.652 81.3672C144.124 81.3672 145.458 81.6211 146.656 82.1289C147.854 82.6237 148.876 83.3464 149.723 84.2969C150.582 85.2474 151.253 86.4128 151.734 87.793C152.216 89.1602 152.457 90.7096 152.457 92.4414H137.203ZM147.887 88.8867C147.678 87.7148 147.073 86.7773 146.07 86.0742C145.068 85.3581 143.928 85 142.652 85C141.376 85 140.23 85.3581 139.215 86.0742C138.199 86.7773 137.587 87.7148 137.379 88.8867H147.887ZM173.082 86.1133C172.6 85.8789 172.105 85.7031 171.598 85.5859C171.103 85.4557 170.53 85.3906 169.879 85.3906C168.98 85.3906 168.134 85.5273 167.34 85.8008C166.559 86.0612 165.882 86.4583 165.309 86.9922C164.736 87.526 164.286 88.1966 163.961 89.0039C163.648 89.7982 163.492 90.7422 163.492 91.8359V96.3672H167.574V100H155.328V96.3672H159.449V85.4492H155.328V81.7969H163.492V86.3672C164.156 84.5443 165.133 83.2552 166.422 82.5C167.724 81.7448 169.267 81.3672 171.051 81.3672C171.611 81.3672 172.197 81.4258 172.809 81.543C173.421 81.6602 174.02 81.8685 174.605 82.168L173.082 86.1133ZM216.246 100H211.559L204 81.5234V100H199.957V74.5117H205.035L212.203 92.0703V74.5117H216.246V100ZM224.547 92.4414C224.742 93.6914 225.335 94.7331 226.324 95.5664C227.327 96.3867 228.668 96.7969 230.348 96.7969C231.663 96.7969 232.802 96.5951 233.766 96.1914C234.742 95.7747 235.582 95.2279 236.285 94.5508L238.355 97.4023C237.184 98.5742 235.94 99.375 234.625 99.8047C233.323 100.234 231.897 100.449 230.348 100.449C228.941 100.449 227.633 100.215 226.422 99.7461C225.211 99.2773 224.163 98.6263 223.277 97.793C222.392 96.9466 221.695 95.944 221.188 94.7852C220.693 93.6263 220.445 92.3372 220.445 90.918C220.445 89.5378 220.673 88.2682 221.129 87.1094C221.598 85.9375 222.249 84.9284 223.082 84.082C223.928 83.2227 224.938 82.5586 226.109 82.0898C227.281 81.6081 228.577 81.3672 229.996 81.3672C231.467 81.3672 232.802 81.6211 234 82.1289C235.198 82.6237 236.22 83.3464 237.066 84.2969C237.926 85.2474 238.596 86.4128 239.078 87.793C239.56 89.1602 239.801 90.7096 239.801 92.4414H224.547ZM235.23 88.8867C235.022 87.7148 234.417 86.7773 233.414 86.0742C232.411 85.3581 231.272 85 229.996 85C228.72 85 227.574 85.3581 226.559 86.0742C225.543 86.7773 224.931 87.7148 224.723 88.8867H235.23ZM261.07 94.1992C260.862 96.1133 260.107 97.6367 258.805 98.7695C257.516 99.8893 255.901 100.449 253.961 100.449C252.893 100.449 251.917 100.273 251.031 99.9219C250.146 99.5703 249.391 99.082 248.766 98.457C248.141 97.832 247.652 97.0833 247.301 96.2109C246.962 95.3255 246.793 94.362 246.793 93.3203V85.4492H242.672V81.7969H246.793V74.5117H250.836V81.7969H258.473V85.4492H250.836V93.3203C250.836 94.4922 251.122 95.3646 251.695 95.9375C252.268 96.5104 253.023 96.7969 253.961 96.7969C255.107 96.7969 255.96 96.4648 256.52 95.8008C257.079 95.1367 257.411 94.3359 257.516 93.3984L261.07 94.1992ZM283.277 81.7969L280.543 100H275.543L273.629 89.043L271.676 100H266.676L263.941 81.7969H267.906L269.508 93.9648L271.461 81.7969H275.738L277.711 93.9648L279.312 81.7969H283.277ZM305.016 90.918C305.016 92.3372 304.788 93.6263 304.332 94.7852C303.889 95.944 303.245 96.9466 302.398 97.793C301.565 98.6263 300.562 99.2773 299.391 99.7461C298.219 100.215 296.91 100.449 295.465 100.449C294.046 100.449 292.75 100.215 291.578 99.7461C290.406 99.2773 289.397 98.6263 288.551 97.793C287.717 96.9466 287.073 95.944 286.617 94.7852C286.174 93.6263 285.953 92.3372 285.953 90.918C285.953 89.5378 286.174 88.2617 286.617 87.0898C287.073 85.9049 287.717 84.8893 288.551 84.043C289.397 83.1836 290.406 82.526 291.578 82.0703C292.75 81.6016 294.046 81.3672 295.465 81.3672C296.91 81.3672 298.219 81.6016 299.391 82.0703C300.562 82.526 301.565 83.1836 302.398 84.043C303.245 84.8893 303.889 85.9049 304.332 87.0898C304.788 88.2617 305.016 89.5378 305.016 90.918ZM300.992 90.918C300.992 90.0977 300.862 89.3229 300.602 88.5938C300.354 87.8516 299.99 87.2201 299.508 86.6992C299.026 86.1784 298.44 85.7682 297.75 85.4688C297.073 85.1562 296.311 85 295.465 85C294.605 85 293.837 85.1562 293.16 85.4688C292.483 85.7682 291.91 86.1784 291.441 86.6992C290.973 87.2201 290.608 87.8516 290.348 88.5938C290.1 89.3229 289.977 90.0977 289.977 90.918C289.977 91.7773 290.1 92.5586 290.348 93.2617C290.608 93.9648 290.973 94.5833 291.441 95.1172C291.91 95.651 292.483 96.0677 293.16 96.3672C293.837 96.6536 294.605 96.7969 295.465 96.7969C296.311 96.7969 297.073 96.6536 297.75 96.3672C298.44 96.0677 299.026 95.651 299.508 95.1172C299.99 94.5833 300.354 93.9648 300.602 93.2617C300.862 92.5586 300.992 91.7773 300.992 90.918ZM325.934 86.1133C325.452 85.8789 324.957 85.7031 324.449 85.5859C323.954 85.4557 323.382 85.3906 322.73 85.3906C321.832 85.3906 320.986 85.5273 320.191 85.8008C319.41 86.0612 318.733 86.4583 318.16 86.9922C317.587 87.526 317.138 88.1966 316.812 89.0039C316.5 89.7982 316.344 90.7422 316.344 91.8359V96.3672H320.426V100H308.18V96.3672H312.301V85.4492H308.18V81.7969H316.344V86.3672C317.008 84.5443 317.984 83.2552 319.273 82.5C320.576 81.7448 322.118 81.3672 323.902 81.3672C324.462 81.3672 325.048 81.4258 325.66 81.543C326.272 81.6602 326.871 81.8685 327.457 82.168L325.934 86.1133ZM348.18 100H342.945L336.852 92.6367L335.016 94.5117V100H330.973V74.5117H335.016V89.5117L342.301 81.7969H347.848L339.449 90.1562L348.18 100ZM369.566 94.5508C369.566 95.7357 369.299 96.6992 368.766 97.4414C368.232 98.1836 367.542 98.7826 366.695 99.2383C365.862 99.694 364.924 100.007 363.883 100.176C362.854 100.358 361.845 100.449 360.855 100.449C359.202 100.449 357.555 100.208 355.914 99.7266C354.273 99.2448 352.854 98.6133 351.656 97.832L353.336 94.5117C354.768 95.3451 356.077 95.9375 357.262 96.2891C358.46 96.6276 359.658 96.7969 360.855 96.7969C362.483 96.7969 363.668 96.6276 364.41 96.2891C365.152 95.9375 365.523 95.4557 365.523 94.8438C365.523 94.5443 365.419 94.2969 365.211 94.1016C365.003 93.9062 364.658 93.7305 364.176 93.5742C363.694 93.4049 363.056 93.2422 362.262 93.0859C361.48 92.9167 360.504 92.7409 359.332 92.5586C358.395 92.4023 357.503 92.2135 356.656 91.9922C355.823 91.7578 355.087 91.4323 354.449 91.0156C353.811 90.599 353.297 90.0716 352.906 89.4336C352.529 88.7956 352.34 87.9948 352.34 87.0312C352.34 86.0547 352.587 85.2083 353.082 84.4922C353.59 83.763 354.247 83.1641 355.055 82.6953C355.875 82.2266 356.793 81.888 357.809 81.6797C358.824 81.4714 359.84 81.3672 360.855 81.3672C362.288 81.3672 363.674 81.556 365.016 81.9336C366.37 82.2982 367.555 82.8255 368.57 83.5156L366.969 86.6406C365.953 86.0026 364.964 85.5729 364 85.3516C363.049 85.1172 362.001 85 360.855 85C360.374 85 359.872 85.026 359.352 85.0781C358.831 85.1302 358.349 85.2344 357.906 85.3906C357.464 85.5339 357.092 85.7357 356.793 85.9961C356.507 86.2435 356.363 86.5495 356.363 86.9141C356.363 87.3958 356.786 87.793 357.633 88.1055C358.492 88.4049 359.951 88.7044 362.008 89.0039C363.128 89.1602 364.15 89.362 365.074 89.6094C365.999 89.8438 366.793 90.1693 367.457 90.5859C368.121 90.9896 368.635 91.5169 369 92.168C369.378 92.806 369.566 93.6003 369.566 94.5508Z" fill="#1E1E1E"/>
</svg>
