<svg width="158" height="30" viewBox="0 0 158 30" fill="none" xmlns="http://www.w3.org/2000/svg">
<rect x="1" y="1" width="156" height="28" rx="9" fill="#C25934" fill-opacity="0.4" stroke="#C25934" stroke-width="2"/>
<path d="M33.84 16.896V14.336H35.76C36.1227 14.336 36.4373 14.2667 36.704 14.128C36.9707 13.9787 37.1787 13.7707 37.328 13.504C37.4773 13.2373 37.552 12.9227 37.552 12.56C37.552 12.1867 37.4773 11.8667 37.328 11.6C37.1787 11.3333 36.9707 11.1307 36.704 10.992C36.4373 10.8533 36.1227 10.784 35.76 10.784H33.84V8.224H35.68C36.6827 8.224 37.5467 8.39467 38.272 8.736C39.008 9.06667 39.5733 9.54667 39.968 10.176C40.3627 10.8053 40.56 11.5573 40.56 12.432V12.688C40.56 13.552 40.3627 14.2987 39.968 14.928C39.5733 15.5573 39.008 16.0427 38.272 16.384C37.5467 16.7253 36.6827 16.896 35.68 16.896H33.84ZM31.184 20V8.224H34.16V20H31.184ZM49.4205 20V8.32H52.3965V20H49.4205ZM41.9965 20V8.32H44.9725V20H41.9965ZM44.4605 15.408V12.816H49.9325V15.408H44.4605ZM57.4181 16.896V14.336H59.3381C59.7008 14.336 60.0155 14.2667 60.2821 14.128C60.5488 13.9787 60.7568 13.7707 60.9061 13.504C61.0555 13.2373 61.1301 12.9227 61.1301 12.56C61.1301 12.1867 61.0555 11.8667 60.9061 11.6C60.7568 11.3333 60.5488 11.1307 60.2821 10.992C60.0155 10.8533 59.7008 10.784 59.3381 10.784H57.4181V8.224H59.2581C60.2608 8.224 61.1248 8.39467 61.8501 8.736C62.5861 9.06667 63.1515 9.54667 63.5461 10.176C63.9408 10.8053 64.1381 11.5573 64.1381 12.432V12.688C64.1381 13.552 63.9408 14.2987 63.5461 14.928C63.1515 15.5573 62.5861 16.0427 61.8501 16.384C61.1248 16.7253 60.2608 16.896 59.2581 16.896H57.4181ZM54.7621 20V8.224H57.7381V20H54.7621ZM71.4963 16.896V14.336H73.4163C73.7789 14.336 74.0936 14.2667 74.3603 14.128C74.6269 13.9787 74.8349 13.7707 74.9843 13.504C75.1336 13.2373 75.2083 12.9227 75.2083 12.56C75.2083 12.1867 75.1336 11.8667 74.9843 11.6C74.8349 11.3333 74.6269 11.1307 74.3603 10.992C74.0936 10.8533 73.7789 10.784 73.4163 10.784H71.4963V8.224H73.3363C74.3389 8.224 75.2029 8.39467 75.9283 8.736C76.6643 9.06667 77.2296 9.54667 77.6243 10.176C78.0189 10.8053 78.2163 11.5573 78.2163 12.432V12.688C78.2163 13.552 78.0189 14.2987 77.6243 14.928C77.2296 15.5573 76.6643 16.0427 75.9283 16.384C75.2029 16.7253 74.3389 16.896 73.3363 16.896H71.4963ZM68.8403 20V8.224H71.8163V20H68.8403ZM84.7438 20V17.408H84.2638V14.64C84.2638 14.2347 84.1678 13.936 83.9758 13.744C83.7944 13.5413 83.4904 13.44 83.0638 13.44C82.8611 13.44 82.5624 13.4453 82.1678 13.456C81.7731 13.4667 81.3571 13.4827 80.9198 13.504C80.4824 13.5253 80.0824 13.5467 79.7198 13.568V11.136C79.9758 11.1147 80.2798 11.0933 80.6318 11.072C80.9838 11.0507 81.3464 11.0347 81.7198 11.024C82.1038 11.0133 82.4558 11.008 82.7758 11.008C83.6824 11.008 84.4504 11.1413 85.0798 11.408C85.7198 11.6747 86.2051 12.0747 86.5358 12.608C86.8771 13.1413 87.0478 13.8187 87.0478 14.64V20H84.7438ZM81.9438 20.224C81.3251 20.224 80.7758 20.112 80.2958 19.888C79.8158 19.664 79.4371 19.344 79.1598 18.928C78.8931 18.5013 78.7598 17.9947 78.7598 17.408C78.7598 16.7467 78.9358 16.2133 79.2878 15.808C79.6398 15.392 80.1251 15.088 80.7438 14.896C81.3624 14.704 82.0718 14.608 82.8718 14.608H84.5838V16.112H82.8718C82.4771 16.112 82.1731 16.2133 81.9598 16.416C81.7464 16.608 81.6398 16.8693 81.6398 17.2C81.6398 17.52 81.7464 17.7813 81.9598 17.984C82.1731 18.176 82.4771 18.272 82.8718 18.272C83.1278 18.272 83.3518 18.2293 83.5438 18.144C83.7464 18.048 83.9118 17.888 84.0398 17.664C84.1678 17.44 84.2424 17.1307 84.2638 16.736L84.9358 17.376C84.8824 17.984 84.7331 18.5013 84.4878 18.928C84.2531 19.344 83.9224 19.664 83.4958 19.888C83.0798 20.112 82.5624 20.224 81.9438 20.224ZM93.0255 20.32C92.2575 20.32 91.5908 20.1973 91.0255 19.952C90.4602 19.696 89.9855 19.3547 89.6015 18.928C89.2282 18.5013 88.9455 18.016 88.7535 17.472C88.5722 16.928 88.4815 16.3627 88.4815 15.776V15.456C88.4815 14.8373 88.5775 14.2507 88.7695 13.696C88.9722 13.1413 89.2655 12.6507 89.6495 12.224C90.0335 11.7973 90.5082 11.4613 91.0735 11.216C91.6388 10.9707 92.2895 10.848 93.0255 10.848C93.8362 10.848 94.5508 11.008 95.1695 11.328C95.7882 11.648 96.2788 12.0907 96.6415 12.656C97.0148 13.2107 97.2228 13.8507 97.2655 14.576H94.4175C94.3855 14.224 94.2522 13.9253 94.0175 13.68C93.7935 13.4347 93.4628 13.312 93.0255 13.312C92.6522 13.312 92.3428 13.408 92.0975 13.6C91.8628 13.792 91.6868 14.0587 91.5695 14.4C91.4522 14.7413 91.3935 15.1467 91.3935 15.616C91.3935 16.0533 91.4415 16.4427 91.5375 16.784C91.6442 17.1253 91.8148 17.392 92.0495 17.584C92.2948 17.7653 92.6202 17.856 93.0255 17.856C93.3242 17.856 93.5748 17.8027 93.7775 17.696C93.9802 17.5893 94.1402 17.44 94.2575 17.248C94.3748 17.0453 94.4495 16.8107 94.4815 16.544H97.3295C97.2868 17.2907 97.0735 17.9467 96.6895 18.512C96.3162 19.0773 95.8148 19.52 95.1855 19.84C94.5562 20.16 93.8362 20.32 93.0255 20.32ZM105.078 20L102.47 15.872H101.286L104.742 11.168H107.782L104.502 15.6V14.192L108.326 20H105.078ZM98.806 20V8.32H101.718V20H98.806ZM114.541 20V17.408H114.061V14.64C114.061 14.2347 113.965 13.936 113.773 13.744C113.591 13.5413 113.287 13.44 112.861 13.44C112.658 13.44 112.359 13.4453 111.965 13.456C111.57 13.4667 111.154 13.4827 110.717 13.504C110.279 13.5253 109.879 13.5467 109.517 13.568V11.136C109.773 11.1147 110.077 11.0933 110.429 11.072C110.781 11.0507 111.143 11.0347 111.517 11.024C111.901 11.0133 112.253 11.008 112.573 11.008C113.479 11.008 114.247 11.1413 114.877 11.408C115.517 11.6747 116.002 12.0747 116.333 12.608C116.674 13.1413 116.845 13.8187 116.845 14.64V20H114.541ZM111.741 20.224C111.122 20.224 110.573 20.112 110.093 19.888C109.613 19.664 109.234 19.344 108.957 18.928C108.69 18.5013 108.557 17.9947 108.557 17.408C108.557 16.7467 108.733 16.2133 109.085 15.808C109.437 15.392 109.922 15.088 110.541 14.896C111.159 14.704 111.869 14.608 112.669 14.608H114.381V16.112H112.669C112.274 16.112 111.97 16.2133 111.757 16.416C111.543 16.608 111.437 16.8693 111.437 17.2C111.437 17.52 111.543 17.7813 111.757 17.984C111.97 18.176 112.274 18.272 112.669 18.272C112.925 18.272 113.149 18.2293 113.341 18.144C113.543 18.048 113.709 17.888 113.837 17.664C113.965 17.44 114.039 17.1307 114.061 16.736L114.733 17.376C114.679 17.984 114.53 18.5013 114.285 18.928C114.05 19.344 113.719 19.664 113.293 19.888C112.877 20.112 112.359 20.224 111.741 20.224ZM122.326 23.536C121.889 23.536 121.436 23.52 120.966 23.488C120.508 23.456 120.092 23.4133 119.718 23.36V20.928C120.092 20.9707 120.508 21.008 120.966 21.04C121.425 21.0827 121.846 21.104 122.23 21.104C122.892 21.104 123.43 21.0347 123.846 20.896C124.273 20.7573 124.588 20.544 124.79 20.256C124.993 19.968 125.094 19.6 125.094 19.152V17.36L125.542 16.4C125.521 17.1467 125.377 17.7973 125.11 18.352C124.844 18.896 124.46 19.3173 123.958 19.616C123.468 19.9147 122.87 20.064 122.166 20.064C121.569 20.064 121.03 19.9573 120.55 19.744C120.07 19.5307 119.66 19.232 119.318 18.848C118.988 18.4533 118.732 17.9893 118.55 17.456C118.369 16.9227 118.278 16.3413 118.278 15.712V15.328C118.278 14.6987 118.374 14.1173 118.566 13.584C118.758 13.04 119.036 12.5707 119.398 12.176C119.761 11.7707 120.188 11.4613 120.678 11.248C121.18 11.024 121.734 10.912 122.342 10.912C123.046 10.912 123.654 11.072 124.166 11.392C124.678 11.7013 125.078 12.1547 125.366 12.752C125.654 13.3493 125.809 14.0747 125.83 14.928L125.51 15.04V11.168H127.814V18.96C127.814 20.048 127.612 20.928 127.206 21.6C126.801 22.272 126.188 22.7627 125.366 23.072C124.556 23.3813 123.542 23.536 122.326 23.536ZM123.142 17.664C123.494 17.664 123.809 17.584 124.086 17.424C124.374 17.264 124.604 17.0347 124.774 16.736C124.945 16.4267 125.03 16.0587 125.03 15.632V15.248C125.03 14.832 124.94 14.48 124.758 14.192C124.588 13.904 124.358 13.6853 124.07 13.536C123.782 13.3867 123.473 13.312 123.142 13.312C122.758 13.312 122.417 13.4027 122.118 13.584C121.83 13.7653 121.601 14.0213 121.43 14.352C121.27 14.6827 121.19 15.072 121.19 15.52C121.19 15.968 121.27 16.352 121.43 16.672C121.601 16.992 121.83 17.2373 122.118 17.408C122.417 17.5787 122.758 17.664 123.142 17.664ZM130.253 20V11.168H133.165V20H130.253ZM129.133 13.28V11.168H133.165V13.28H129.133ZM131.453 10.464C130.92 10.464 130.525 10.3307 130.269 10.064C130.024 9.78667 129.901 9.43467 129.901 9.008C129.901 8.58133 130.024 8.23467 130.269 7.968C130.525 7.69067 130.915 7.552 131.437 7.552C131.971 7.552 132.36 7.69067 132.605 7.968C132.851 8.23467 132.973 8.58133 132.973 9.008C132.973 9.43467 132.851 9.78667 132.605 10.064C132.36 10.3307 131.976 10.464 131.453 10.464ZM138.81 20.288C137.53 20.288 136.522 20.0267 135.786 19.504C135.05 18.9707 134.655 18.224 134.602 17.264H137.162C137.205 17.5307 137.37 17.76 137.658 17.952C137.946 18.144 138.351 18.24 138.874 18.24C139.247 18.24 139.567 18.1867 139.834 18.08C140.111 17.9627 140.25 17.776 140.25 17.52C140.25 17.296 140.143 17.1147 139.93 16.976C139.717 16.8267 139.327 16.7253 138.762 16.672L138.154 16.608C137.023 16.4907 136.191 16.1813 135.658 15.68C135.125 15.1787 134.858 14.5493 134.858 13.792C134.858 13.1413 135.018 12.608 135.338 12.192C135.658 11.7653 136.101 11.4453 136.666 11.232C137.231 11.0187 137.877 10.912 138.602 10.912C139.786 10.912 140.741 11.1733 141.466 11.696C142.191 12.208 142.575 12.9493 142.618 13.92H140.058C140.015 13.6533 139.871 13.4293 139.626 13.248C139.381 13.056 139.029 12.96 138.57 12.96C138.239 12.96 137.967 13.0187 137.754 13.136C137.551 13.2533 137.45 13.4187 137.45 13.632C137.45 13.856 137.546 14.0213 137.738 14.128C137.941 14.2347 138.261 14.3147 138.698 14.368L139.306 14.432C140.437 14.5493 141.306 14.864 141.914 15.376C142.533 15.8773 142.842 16.5387 142.842 17.36C142.842 17.968 142.677 18.4907 142.346 18.928C142.026 19.3653 141.562 19.7013 140.954 19.936C140.357 20.1707 139.642 20.288 138.81 20.288ZM148.498 20.128C147.538 20.128 146.77 20.0107 146.194 19.776C145.629 19.5413 145.218 19.152 144.962 18.608C144.706 18.064 144.578 17.328 144.578 16.4L144.594 8.864H147.282L147.266 16.48C147.266 16.8747 147.368 17.1787 147.57 17.392C147.784 17.5947 148.088 17.696 148.482 17.696H149.698V20.128H148.498ZM143.298 13.28V11.168H149.698V13.28H143.298Z" fill="white"/>
<path d="M14 7.51451C14.6188 7.15725 15.3812 7.15725 16 7.51451L20.9084 10.3484C21.5272 10.7056 21.9084 11.3659 21.9084 12.0804V17.7481C21.9084 18.4627 21.5272 19.1229 20.9084 19.4802L16 22.314C15.3812 22.6713 14.6188 22.6713 14 22.314L9.09162 19.4802C8.47282 19.1229 8.09162 18.4627 8.09162 17.7481V12.0804C8.09162 11.3659 8.47282 10.7056 9.09162 10.3484L14 7.51451Z" fill="#C25934"/>
</svg>
