<svg width="179" height="80" viewBox="0 0 179 80" fill="none" xmlns="http://www.w3.org/2000/svg">
<path d="M148.75 23.9893C150.761 22.8283 153.239 22.8283 155.25 23.9893L172.9 34.1807C174.911 35.3418 176.15 37.4873 176.15 39.8096V60.1904C176.15 62.5127 174.911 64.6582 172.9 65.8193L155.25 76.0107C153.239 77.1717 150.761 77.1717 148.75 76.0107L131.1 65.8193C129.089 64.6582 127.85 62.5127 127.85 60.1904V39.8096C127.85 37.4873 129.089 35.3418 131.1 34.1807L148.75 23.9893Z" fill="black" stroke="#050505" stroke-width="5"/>
<path d="M123.75 23.9893C125.761 22.8283 128.239 22.8283 130.25 23.9893L147.9 34.1807C149.911 35.3418 151.15 37.4873 151.15 39.8096V60.1904C151.15 62.5127 149.911 64.6582 147.9 65.8193L130.25 76.0107C128.239 77.1717 125.761 77.1717 123.75 76.0107L106.1 65.8193C104.089 64.6582 102.85 62.5127 102.85 60.1904V39.8096C102.85 37.4873 104.089 35.3418 106.1 34.1807L123.75 23.9893Z" fill="black" stroke="#050505" stroke-width="5"/>
<path d="M98.75 23.9893C100.761 22.8283 103.239 22.8283 105.25 23.9893L122.9 34.1807C124.911 35.3418 126.15 37.4873 126.15 39.8096V60.1904C126.15 62.5127 124.911 64.6582 122.9 65.8193L105.25 76.0107C103.239 77.1717 100.761 77.1717 98.75 76.0107L81.0996 65.8193C79.0885 64.6582 77.8496 62.5127 77.8496 60.1904V39.8096C77.8496 37.4873 79.0885 35.3418 81.0996 34.1807L98.75 23.9893Z" fill="black" stroke="#050505" stroke-width="5"/>
<path d="M73.75 23.9893C75.761 22.8283 78.239 22.8283 80.25 23.9893L97.9004 34.1807C99.9115 35.3418 101.15 37.4873 101.15 39.8096V60.1904C101.15 62.5127 99.9115 64.6582 97.9004 65.8193L80.25 76.0107C78.239 77.1717 75.761 77.1717 73.75 76.0107L56.0996 65.8193C54.0885 64.6582 52.8496 62.5127 52.8496 60.1904V39.8096C52.8496 37.4873 54.0885 35.3418 56.0996 34.1807L73.75 23.9893Z" fill="#7B7FB5" stroke="#8388CA" stroke-width="5"/>
<path d="M48.75 23.9893C50.761 22.8283 53.239 22.8283 55.25 23.9893L72.9004 34.1807C74.9115 35.3418 76.1504 37.4873 76.1504 39.8096V60.1904C76.1504 62.5127 74.9115 64.6582 72.9004 65.8193L55.25 76.0107C53.239 77.1717 50.761 77.1717 48.75 76.0107L31.0996 65.8193C29.0885 64.6582 27.8496 62.5127 27.8496 60.1904V39.8096C27.8496 37.4873 29.0885 35.3418 31.0996 34.1807L48.75 23.9893Z" fill="#7B7FB5" stroke="#8388CA" stroke-width="5"/>
<path d="M23.75 23.9893C25.761 22.8283 28.239 22.8283 30.25 23.9893L47.9004 34.1807C49.9115 35.3418 51.1504 37.4873 51.1504 39.8096V60.1904C51.1504 62.5127 49.9115 64.6582 47.9004 65.8193L30.25 76.0107C28.239 77.1717 25.761 77.1717 23.75 76.0107L6.09961 65.8193C4.0885 64.6582 2.84961 62.5127 2.84961 60.1904V39.8096C2.84961 37.4873 4.0885 35.3418 6.09961 34.1807L23.75 23.9893Z" fill="#7B7FB5" stroke="#8388CA" stroke-width="5"/>
<path d="M75.84 11.896V9.336H77.76C78.1227 9.336 78.4373 9.26667 78.704 9.128C78.9707 8.97867 79.1787 8.77067 79.328 8.504C79.4773 8.23733 79.552 7.92267 79.552 7.56C79.552 7.18667 79.4773 6.86667 79.328 6.6C79.1787 6.33333 78.9707 6.13067 78.704 5.992C78.4373 5.85333 78.1227 5.784 77.76 5.784H75.84V3.224H77.68C78.6827 3.224 79.5467 3.39467 80.272 3.736C81.008 4.06667 81.5733 4.54667 81.968 5.176C82.3627 5.80533 82.56 6.55733 82.56 7.432V7.688C82.56 8.552 82.3627 9.29867 81.968 9.928C81.5733 10.5573 81.008 11.0427 80.272 11.384C79.5467 11.7253 78.6827 11.896 77.68 11.896H75.84ZM73.184 15V3.224H76.16V15H73.184ZM91.4205 15V3.32H94.3965V15H91.4205ZM83.9965 15V3.32H86.9725V15H83.9965ZM86.4605 10.408V7.816H91.9325V10.408H86.4605ZM99.4181 11.896V9.336H101.338C101.701 9.336 102.015 9.26667 102.282 9.128C102.549 8.97867 102.757 8.77067 102.906 8.504C103.055 8.23733 103.13 7.92267 103.13 7.56C103.13 7.18667 103.055 6.86667 102.906 6.6C102.757 6.33333 102.549 6.13067 102.282 5.992C102.015 5.85333 101.701 5.784 101.338 5.784H99.4181V3.224H101.258C102.261 3.224 103.125 3.39467 103.85 3.736C104.586 4.06667 105.151 4.54667 105.546 5.176C105.941 5.80533 106.138 6.55733 106.138 7.432V7.688C106.138 8.552 105.941 9.29867 105.546 9.928C105.151 10.5573 104.586 11.0427 103.85 11.384C103.125 11.7253 102.261 11.896 101.258 11.896H99.4181ZM96.7621 15V3.224H99.7381V15H96.7621Z" fill="white"/>
</svg>
