<svg width="478" height="194" viewBox="0 0 478 194" fill="none" xmlns="http://www.w3.org/2000/svg">
<mask id="mask0_239_42" style="mask-type:alpha" maskUnits="userSpaceOnUse" x="0" y="0" width="478" height="194">
<rect width="478" height="194" fill="#8892BF"/>
</mask>
<g mask="url(#mask0_239_42)">
<rect width="478" height="194" fill="#8892BF"/>
<path d="M63.3244 75H69.4335L67.7069 84.2554H73.1964C76.2069 84.3203 78.4495 84.9986 79.9255 86.2908C81.4306 87.5825 81.8735 90.0385 81.2539 93.6564L78.2877 109.793H72.0899L74.9229 94.3831C75.2179 92.7676 75.1295 91.621 74.6575 90.9427C74.1855 90.2643 73.1673 89.9252 71.6029 89.9252L66.6888 89.8768L63.0586 109.793H56.9495L63.3244 75Z" fill="white"/>
<path fill-rule="evenodd" clip-rule="evenodd" d="M35.3306 84.2558H47.1949C50.6771 84.2877 53.2007 85.3866 54.7651 87.5506C56.3295 89.7151 56.8458 92.6708 56.3146 96.4185C56.1084 98.1312 55.6506 99.8105 54.9422 101.458C54.2633 103.106 53.3193 104.591 52.1091 105.916C50.6331 107.596 49.0542 108.662 47.372 109.115C45.6898 109.567 43.9482 109.793 42.1482 109.793H36.8358L35.1535 119H29L35.3306 84.2558ZM37.854 104.317L40.5014 89.8284H41.3956C41.7206 89.8284 42.0596 89.8119 42.4138 89.78C44.7752 89.7477 46.7372 89.9901 48.3018 90.5067C49.8953 91.0233 50.4266 92.978 49.8953 96.3701C49.2466 100.409 47.9767 102.767 46.0882 103.445C44.1996 104.091 41.8383 104.398 39.005 104.366H38.3852C38.2082 104.366 38.0311 104.349 37.854 104.317Z" fill="white"/>
<path fill-rule="evenodd" clip-rule="evenodd" d="M99.6782 84.2558H87.8139L81.4833 119H87.6368L89.3193 109.793H94.6317C96.4317 109.793 98.1732 109.567 99.8553 109.115C101.538 108.662 103.116 107.596 104.592 105.916C105.803 104.591 106.747 103.106 107.426 101.458C108.134 99.8105 108.592 98.1312 108.798 96.4185C109.329 92.6708 108.813 89.7151 107.248 87.5506C105.684 85.3866 103.161 84.2877 99.6782 84.2558ZM92.9848 89.8284L90.3375 104.317C90.5146 104.349 90.6917 104.366 90.8688 104.366H91.4884C94.3219 104.398 96.683 104.091 98.5717 103.445C100.46 102.767 101.73 100.409 102.379 96.3701C102.91 92.978 102.379 91.0233 100.785 90.5067C99.2208 89.9901 97.2586 89.7477 94.8971 89.78C94.543 89.8119 94.2041 89.8284 93.879 89.8284H92.9848Z" fill="white"/>
<path d="M0.0701828 164L112.118 194.023L102.657 229.33L-9.39023 199.307L0.0701828 164Z" fill="#18005B"/>
<path d="M-1.6265 141.518L201.842 196.038L198.308 209.227L-5.1607 154.708L-1.6265 141.518Z" fill="#18005B"/>
<path d="M-2.84124 124.052L257.68 193.858L255.361 202.515L-5.1607 132.708L-2.84124 124.052Z" fill="#18005B"/>
<rect x="149" y="72" width="315" height="50" rx="8" stroke="#EBEBEB" stroke-width="8"/>
<rect x="155" y="78" width="59" height="38" rx="3" fill="white"/>
<rect x="216" y="78" width="59" height="38" rx="3" fill="white"/>
<rect x="277" y="78" width="59" height="38" rx="3" fill="white"/>
<path d="M213.76 177.16H210.24V183H207.22V169.04H210.24V174.7H213.76V169.04H216.78V183H213.76V177.16ZM226.592 172.68H229.612L224.752 184.66C224.446 185.42 224.039 186 223.532 186.4C223.026 186.8 222.332 187 221.452 187H219.412V184.7H221.892L222.532 182.94L218.372 172.68H221.552L223.052 177.02L223.992 180.02H224.152L225.052 177.02L226.592 172.68ZM231.164 172.68H234.124V174.56H234.264C234.518 173.947 234.884 173.44 235.364 173.04C235.844 172.64 236.498 172.44 237.324 172.44C237.898 172.44 238.418 172.547 238.884 172.76C239.364 172.973 239.771 173.3 240.104 173.74C240.451 174.18 240.718 174.74 240.904 175.42C241.104 176.1 241.204 176.907 241.204 177.84C241.204 178.773 241.104 179.58 240.904 180.26C240.718 180.94 240.451 181.5 240.104 181.94C239.771 182.38 239.364 182.707 238.884 182.92C238.418 183.133 237.898 183.24 237.324 183.24C236.498 183.24 235.844 183.047 235.364 182.66C234.884 182.26 234.518 181.747 234.264 181.12H234.124V187H231.164V172.68ZM236.044 180.94C236.711 180.94 237.224 180.74 237.584 180.34C237.944 179.927 238.124 179.36 238.124 178.64V177.04C238.124 176.32 237.944 175.76 237.584 175.36C237.224 174.947 236.711 174.74 236.044 174.74C235.524 174.74 235.071 174.867 234.684 175.12C234.311 175.373 234.124 175.773 234.124 176.32V179.36C234.124 179.907 234.311 180.307 234.684 180.56C235.071 180.813 235.524 180.94 236.044 180.94ZM248.257 183.24C246.523 183.24 245.21 182.76 244.317 181.8C243.423 180.84 242.977 179.533 242.977 177.88C242.977 177.04 243.09 176.287 243.317 175.62C243.557 174.94 243.89 174.367 244.317 173.9C244.757 173.42 245.283 173.06 245.897 172.82C246.523 172.567 247.223 172.44 247.997 172.44C248.77 172.44 249.463 172.567 250.077 172.82C250.69 173.06 251.21 173.407 251.637 173.86C252.063 174.313 252.39 174.867 252.617 175.52C252.857 176.16 252.977 176.88 252.977 177.68V178.56H245.917V178.74C245.917 179.407 246.123 179.947 246.537 180.36C246.95 180.76 247.557 180.96 248.357 180.96C248.97 180.96 249.497 180.847 249.937 180.62C250.377 180.38 250.757 180.067 251.077 179.68L252.677 181.42C252.277 181.913 251.717 182.34 250.997 182.7C250.277 183.06 249.363 183.24 248.257 183.24ZM248.017 174.56C247.377 174.56 246.863 174.76 246.477 175.16C246.103 175.547 245.917 176.073 245.917 176.74V176.9H250.077V176.74C250.077 176.06 249.89 175.527 249.517 175.14C249.157 174.753 248.657 174.56 248.017 174.56ZM255.449 180.7H257.829V174.98H255.449V172.68H260.789V175.6H260.929C261.022 175.227 261.149 174.867 261.309 174.52C261.482 174.16 261.695 173.847 261.949 173.58C262.215 173.3 262.535 173.08 262.909 172.92C263.282 172.76 263.722 172.68 264.229 172.68H265.209V175.4H263.009C262.275 175.4 261.722 175.62 261.349 176.06C260.975 176.487 260.789 177.013 260.789 177.64V180.7H264.189V183H255.449V180.7ZM272.761 183C271.694 183 270.901 182.72 270.381 182.16C269.861 181.6 269.601 180.887 269.601 180.02V174.98H266.801V172.68H268.621C269.061 172.68 269.374 172.593 269.561 172.42C269.748 172.247 269.841 171.927 269.841 171.46V169.04H272.561V172.68H276.581V174.98H272.561V180.7H276.581V183H272.761ZM284.233 183.24C282.5 183.24 281.186 182.76 280.293 181.8C279.4 180.84 278.953 179.533 278.953 177.88C278.953 177.04 279.066 176.287 279.293 175.62C279.533 174.94 279.866 174.367 280.293 173.9C280.733 173.42 281.26 173.06 281.873 172.82C282.5 172.567 283.2 172.44 283.973 172.44C284.746 172.44 285.44 172.567 286.053 172.82C286.666 173.06 287.186 173.407 287.613 173.86C288.04 174.313 288.366 174.867 288.593 175.52C288.833 176.16 288.953 176.88 288.953 177.68V178.56H281.893V178.74C281.893 179.407 282.1 179.947 282.513 180.36C282.926 180.76 283.533 180.96 284.333 180.96C284.946 180.96 285.473 180.847 285.913 180.62C286.353 180.38 286.733 180.067 287.053 179.68L288.653 181.42C288.253 181.913 287.693 182.34 286.973 182.7C286.253 183.06 285.34 183.24 284.233 183.24ZM283.993 174.56C283.353 174.56 282.84 174.76 282.453 175.16C282.08 175.547 281.893 176.073 281.893 176.74V176.9H286.053V176.74C286.053 176.06 285.866 175.527 285.493 175.14C285.133 174.753 284.633 174.56 283.993 174.56ZM290.405 183L294.265 177.76L290.665 172.68H294.045L295.145 174.34L295.985 175.68H296.145L297.005 174.34L298.125 172.68H301.225L297.625 177.6L301.485 183H298.085L296.785 181.06L295.885 179.68H295.725L294.845 181.06L293.525 183H290.405ZM308.738 183C307.671 183 306.878 182.72 306.358 182.16C305.838 181.6 305.578 180.887 305.578 180.02V174.98H302.778V172.68H304.598C305.038 172.68 305.351 172.593 305.538 172.42C305.724 172.247 305.818 171.927 305.818 171.46V169.04H308.538V172.68H312.558V174.98H308.538V180.7H312.558V183H308.738ZM327.442 183V169.04H332.842C333.522 169.04 334.129 169.147 334.662 169.36C335.195 169.56 335.642 169.853 336.002 170.24C336.375 170.627 336.655 171.093 336.842 171.64C337.029 172.187 337.122 172.8 337.122 173.48C337.122 174.16 337.029 174.773 336.842 175.32C336.655 175.867 336.375 176.333 336.002 176.72C335.642 177.107 335.195 177.407 334.662 177.62C334.129 177.82 333.522 177.92 332.842 177.92H330.462V183H327.442ZM330.462 175.5H332.082C332.789 175.5 333.275 175.367 333.542 175.1C333.822 174.833 333.962 174.393 333.962 173.78V173.18C333.962 172.567 333.822 172.127 333.542 171.86C333.275 171.593 332.789 171.46 332.082 171.46H330.462V175.5ZM339.394 180.7H341.774V174.98H339.394V172.68H344.734V175.6H344.874C344.967 175.227 345.094 174.867 345.254 174.52C345.427 174.16 345.641 173.847 345.894 173.58C346.161 173.3 346.481 173.08 346.854 172.92C347.227 172.76 347.667 172.68 348.174 172.68H349.154V175.4H346.954C346.221 175.4 345.667 175.62 345.294 176.06C344.921 176.487 344.734 177.013 344.734 177.64V180.7H348.134V183H339.394V180.7ZM356.186 183.24C354.453 183.24 353.14 182.76 352.246 181.8C351.353 180.84 350.906 179.533 350.906 177.88C350.906 177.04 351.02 176.287 351.246 175.62C351.486 174.94 351.82 174.367 352.246 173.9C352.686 173.42 353.213 173.06 353.826 172.82C354.453 172.567 355.153 172.44 355.926 172.44C356.7 172.44 357.393 172.567 358.006 172.82C358.62 173.06 359.14 173.407 359.566 173.86C359.993 174.313 360.32 174.867 360.546 175.52C360.786 176.16 360.906 176.88 360.906 177.68V178.56H353.846V178.74C353.846 179.407 354.053 179.947 354.466 180.36C354.88 180.76 355.486 180.96 356.286 180.96C356.9 180.96 357.426 180.847 357.866 180.62C358.306 180.38 358.686 180.067 359.006 179.68L360.606 181.42C360.206 181.913 359.646 182.34 358.926 182.7C358.206 183.06 357.293 183.24 356.186 183.24ZM355.946 174.56C355.306 174.56 354.793 174.76 354.406 175.16C354.033 175.547 353.846 176.073 353.846 176.74V176.9H358.006V176.74C358.006 176.06 357.82 175.527 357.446 175.14C357.086 174.753 356.586 174.56 355.946 174.56ZM363.078 172.68H366.038V174.56H366.178C366.432 173.947 366.798 173.44 367.278 173.04C367.758 172.64 368.412 172.44 369.238 172.44C369.812 172.44 370.332 172.547 370.798 172.76C371.278 172.973 371.685 173.3 372.018 173.74C372.365 174.18 372.632 174.74 372.818 175.42C373.018 176.1 373.118 176.907 373.118 177.84C373.118 178.773 373.018 179.58 372.818 180.26C372.632 180.94 372.365 181.5 372.018 181.94C371.685 182.38 371.278 182.707 370.798 182.92C370.332 183.133 369.812 183.24 369.238 183.24C368.412 183.24 367.758 183.047 367.278 182.66C366.798 182.26 366.432 181.747 366.178 181.12H366.038V187H363.078V172.68ZM367.958 180.94C368.625 180.94 369.138 180.74 369.498 180.34C369.858 179.927 370.038 179.36 370.038 178.64V177.04C370.038 176.32 369.858 175.76 369.498 175.36C369.138 174.947 368.625 174.74 367.958 174.74C367.438 174.74 366.985 174.867 366.598 175.12C366.225 175.373 366.038 175.773 366.038 176.32V179.36C366.038 179.907 366.225 180.307 366.598 180.56C366.985 180.813 367.438 180.94 367.958 180.94ZM375.371 180.7H377.751V174.98H375.371V172.68H380.711V175.6H380.851C380.944 175.227 381.071 174.867 381.231 174.52C381.404 174.16 381.617 173.847 381.871 173.58C382.137 173.3 382.457 173.08 382.831 172.92C383.204 172.76 383.644 172.68 384.151 172.68H385.131V175.4H382.931C382.197 175.4 381.644 175.62 381.271 176.06C380.897 176.487 380.711 177.013 380.711 177.64V180.7H384.111V183H375.371V180.7ZM391.883 183.24C391.083 183.24 390.363 183.12 389.723 182.88C389.083 182.627 388.536 182.267 388.083 181.8C387.643 181.333 387.303 180.767 387.063 180.1C386.823 179.433 386.703 178.68 386.703 177.84C386.703 177 386.823 176.247 387.063 175.58C387.303 174.913 387.643 174.347 388.083 173.88C388.536 173.413 389.083 173.06 389.723 172.82C390.363 172.567 391.083 172.44 391.883 172.44C392.683 172.44 393.403 172.567 394.043 172.82C394.683 173.06 395.223 173.413 395.663 173.88C396.116 174.347 396.463 174.913 396.703 175.58C396.943 176.247 397.063 177 397.063 177.84C397.063 178.68 396.943 179.433 396.703 180.1C396.463 180.767 396.116 181.333 395.663 181.8C395.223 182.267 394.683 182.627 394.043 182.88C393.403 183.12 392.683 183.24 391.883 183.24ZM391.883 181.04C392.549 181.04 393.069 180.833 393.443 180.42C393.816 180.007 394.003 179.42 394.003 178.66V177.02C394.003 176.26 393.816 175.673 393.443 175.26C393.069 174.847 392.549 174.64 391.883 174.64C391.216 174.64 390.696 174.847 390.323 175.26C389.949 175.673 389.763 176.26 389.763 177.02V178.66C389.763 179.42 389.949 180.007 390.323 180.42C390.696 180.833 391.216 181.04 391.883 181.04ZM404.295 183.24C403.482 183.24 402.748 183.12 402.095 182.88C401.455 182.627 400.908 182.267 400.455 181.8C400.015 181.333 399.675 180.767 399.435 180.1C399.195 179.433 399.075 178.68 399.075 177.84C399.075 177 399.195 176.247 399.435 175.58C399.675 174.913 400.015 174.347 400.455 173.88C400.908 173.413 401.455 173.06 402.095 172.82C402.748 172.567 403.475 172.44 404.275 172.44C405.408 172.44 406.315 172.673 406.995 173.14C407.688 173.593 408.215 174.2 408.575 174.96L406.295 176.2C406.108 175.8 405.862 175.467 405.555 175.2C405.262 174.933 404.835 174.8 404.275 174.8C403.595 174.8 403.068 175 402.695 175.4C402.335 175.787 402.155 176.32 402.155 177V178.68C402.155 179.36 402.335 179.9 402.695 180.3C403.068 180.687 403.608 180.88 404.315 180.88C404.888 180.88 405.335 180.747 405.655 180.48C405.988 180.213 406.268 179.867 406.495 179.44L408.735 180.72C408.362 181.48 407.815 182.093 407.095 182.56C406.388 183.013 405.455 183.24 404.295 183.24ZM416.147 183.24C414.414 183.24 413.101 182.76 412.207 181.8C411.314 180.84 410.867 179.533 410.867 177.88C410.867 177.04 410.981 176.287 411.207 175.62C411.447 174.94 411.781 174.367 412.207 173.9C412.647 173.42 413.174 173.06 413.787 172.82C414.414 172.567 415.114 172.44 415.887 172.44C416.661 172.44 417.354 172.567 417.967 172.82C418.581 173.06 419.101 173.407 419.527 173.86C419.954 174.313 420.281 174.867 420.507 175.52C420.747 176.16 420.867 176.88 420.867 177.68V178.56H413.807V178.74C413.807 179.407 414.014 179.947 414.427 180.36C414.841 180.76 415.447 180.96 416.247 180.96C416.861 180.96 417.387 180.847 417.827 180.62C418.267 180.38 418.647 180.067 418.967 179.68L420.567 181.42C420.167 181.913 419.607 182.34 418.887 182.7C418.167 183.06 417.254 183.24 416.147 183.24ZM415.907 174.56C415.267 174.56 414.754 174.76 414.367 175.16C413.994 175.547 413.807 176.073 413.807 176.74V176.9H417.967V176.74C417.967 176.06 417.781 175.527 417.407 175.14C417.047 174.753 416.547 174.56 415.907 174.56ZM427.739 183.24C426.593 183.24 425.593 183.067 424.739 182.72C423.899 182.373 423.266 181.9 422.839 181.3L424.499 179.76C424.899 180.2 425.366 180.547 425.899 180.8C426.446 181.04 427.066 181.16 427.759 181.16C428.346 181.16 428.806 181.073 429.139 180.9C429.473 180.713 429.639 180.433 429.639 180.06C429.639 179.767 429.526 179.567 429.299 179.46C429.073 179.34 428.759 179.247 428.359 179.18L426.699 178.92C426.233 178.853 425.799 178.753 425.399 178.62C424.999 178.473 424.653 178.28 424.359 178.04C424.066 177.8 423.833 177.507 423.659 177.16C423.486 176.813 423.399 176.393 423.399 175.9C423.399 174.82 423.813 173.973 424.639 173.36C425.466 172.747 426.626 172.44 428.119 172.44C429.133 172.44 429.993 172.58 430.699 172.86C431.419 173.127 431.993 173.513 432.419 174.02L430.939 175.7C430.633 175.367 430.239 175.087 429.759 174.86C429.279 174.633 428.699 174.52 428.019 174.52C426.873 174.52 426.299 174.867 426.299 175.56C426.299 175.867 426.413 176.08 426.639 176.2C426.866 176.307 427.179 176.393 427.579 176.46L429.219 176.72C429.686 176.787 430.119 176.893 430.519 177.04C430.919 177.173 431.266 177.36 431.559 177.6C431.866 177.84 432.106 178.133 432.279 178.48C432.453 178.827 432.539 179.247 432.539 179.74C432.539 180.82 432.119 181.673 431.279 182.3C430.453 182.927 429.273 183.24 427.739 183.24ZM439.732 183.24C438.585 183.24 437.585 183.067 436.732 182.72C435.892 182.373 435.258 181.9 434.832 181.3L436.492 179.76C436.892 180.2 437.358 180.547 437.892 180.8C438.438 181.04 439.058 181.16 439.752 181.16C440.338 181.16 440.798 181.073 441.132 180.9C441.465 180.713 441.632 180.433 441.632 180.06C441.632 179.767 441.518 179.567 441.292 179.46C441.065 179.34 440.752 179.247 440.352 179.18L438.692 178.92C438.225 178.853 437.792 178.753 437.392 178.62C436.992 178.473 436.645 178.28 436.352 178.04C436.058 177.8 435.825 177.507 435.652 177.16C435.478 176.813 435.392 176.393 435.392 175.9C435.392 174.82 435.805 173.973 436.632 173.36C437.458 172.747 438.618 172.44 440.112 172.44C441.125 172.44 441.985 172.58 442.692 172.86C443.412 173.127 443.985 173.513 444.412 174.02L442.932 175.7C442.625 175.367 442.232 175.087 441.752 174.86C441.272 174.633 440.692 174.52 440.012 174.52C438.865 174.52 438.292 174.867 438.292 175.56C438.292 175.867 438.405 176.08 438.632 176.2C438.858 176.307 439.172 176.393 439.572 176.46L441.212 176.72C441.678 176.787 442.112 176.893 442.512 177.04C442.912 177.173 443.258 177.36 443.552 177.6C443.858 177.84 444.098 178.133 444.272 178.48C444.445 178.827 444.532 179.247 444.532 179.74C444.532 180.82 444.112 181.673 443.272 182.3C442.445 182.927 441.265 183.24 439.732 183.24ZM451.844 183.24C451.044 183.24 450.324 183.12 449.684 182.88C449.044 182.627 448.497 182.267 448.044 181.8C447.604 181.333 447.264 180.767 447.024 180.1C446.784 179.433 446.664 178.68 446.664 177.84C446.664 177 446.784 176.247 447.024 175.58C447.264 174.913 447.604 174.347 448.044 173.88C448.497 173.413 449.044 173.06 449.684 172.82C450.324 172.567 451.044 172.44 451.844 172.44C452.644 172.44 453.364 172.567 454.004 172.82C454.644 173.06 455.184 173.413 455.624 173.88C456.077 174.347 456.424 174.913 456.664 175.58C456.904 176.247 457.024 177 457.024 177.84C457.024 178.68 456.904 179.433 456.664 180.1C456.424 180.767 456.077 181.333 455.624 181.8C455.184 182.267 454.644 182.627 454.004 182.88C453.364 183.12 452.644 183.24 451.844 183.24ZM451.844 181.04C452.51 181.04 453.03 180.833 453.404 180.42C453.777 180.007 453.964 179.42 453.964 178.66V177.02C453.964 176.26 453.777 175.673 453.404 175.26C453.03 174.847 452.51 174.64 451.844 174.64C451.177 174.64 450.657 174.847 450.284 175.26C449.91 175.673 449.724 176.26 449.724 177.02V178.66C449.724 179.42 449.91 180.007 450.284 180.42C450.657 180.833 451.177 181.04 451.844 181.04ZM459.316 180.7H461.696V174.98H459.316V172.68H464.656V175.6H464.796C464.889 175.227 465.016 174.867 465.176 174.52C465.349 174.16 465.563 173.847 465.816 173.58C466.083 173.3 466.403 173.08 466.776 172.92C467.149 172.76 467.589 172.68 468.096 172.68H469.076V175.4H466.876C466.143 175.4 465.589 175.62 465.216 176.06C464.843 176.487 464.656 177.013 464.656 177.64V180.7H468.056V183H459.316V180.7Z" fill="white"/>
</g>
</svg>
