<svg width="454" height="60" viewBox="0 0 454 60" fill="none" xmlns="http://www.w3.org/2000/svg">
<rect width="454" height="60" fill="#EA7A44"/>
<rect width="60" height="60" fill="#E1743F"/>
<path d="M77.8734 14H105.993V23.8C105.993 25.4 105.687 26.9067 105.073 28.32C104.46 29.7067 103.633 30.92 102.593 31.96C101.553 33 100.327 33.8267 98.9134 34.44C97.5268 35.0267 96.0468 35.32 94.4734 35.32H89.5534V44H82.4734V21.08H77.8734V14ZM98.9134 21.08H89.5534V28.24H94.4734C95.0868 28.24 95.6601 28.12 96.1934 27.88C96.7268 27.64 97.1934 27.32 97.5934 26.92C97.9934 26.52 98.3134 26.0533 98.5534 25.52C98.7934 24.9867 98.9134 24.4133 98.9134 23.8V21.08ZM129.92 14H136.96V44H125.68V36.92H129.92V32.08H119.32V35.36C119.32 37.4133 119.027 39.1733 118.44 40.64C117.88 42.1067 117.2 43.3333 116.4 44.32C115.6 45.3067 114.773 46.08 113.92 46.64C113.093 47.2267 112.413 47.64 111.88 47.88L108.8 41.56C108.933 41.5067 109.187 41.3733 109.56 41.16C109.933 40.9467 110.32 40.6 110.72 40.12C111.12 39.64 111.467 39.0133 111.76 38.24C112.08 37.4667 112.24 36.5067 112.24 35.36V32.08H107.6V25H112.24V14H119.32V25H129.92V14ZM138.967 14H167.087V23.8C167.087 25.4 166.781 26.9067 166.167 28.32C165.554 29.7067 164.727 30.92 163.687 31.96C162.647 33 161.421 33.8267 160.007 34.44C158.621 35.0267 157.141 35.32 155.567 35.32H150.647V44H143.567V21.08H138.967V14ZM160.007 21.08H150.647V28.24H155.567C156.181 28.24 156.754 28.12 157.287 27.88C157.821 27.64 158.287 27.32 158.687 26.92C159.087 26.52 159.407 26.0533 159.647 25.52C159.887 24.9867 160.007 24.4133 160.007 23.8V21.08ZM181.506 14H209.626V23.8C209.626 25.4 209.32 26.9067 208.706 28.32C208.093 29.7067 207.266 30.92 206.226 31.96C205.186 33 203.96 33.8267 202.546 34.44C201.16 35.0267 199.68 35.32 198.106 35.32H193.186V44H186.106V21.08H181.506V14ZM202.546 21.08H193.186V28.24H198.106C198.72 28.24 199.293 28.12 199.826 27.88C200.36 27.64 200.826 27.32 201.226 26.92C201.626 26.52 201.946 26.0533 202.186 25.52C202.426 24.9867 202.546 24.4133 202.546 23.8V21.08ZM212.834 14H239.634V44H232.594V33.48H224.354C224.274 35 223.914 36.44 223.274 37.8C222.661 39.1333 221.834 40.2933 220.794 41.28C219.754 42.2667 218.554 43.0533 217.194 43.64C215.834 44.2 214.381 44.48 212.834 44.48V37.4C213.394 37.4 213.928 37.3067 214.434 37.12C214.941 36.9067 215.394 36.6267 215.794 36.28C216.194 35.9067 216.514 35.4933 216.754 35.04C217.021 34.56 217.181 34.04 217.234 33.48H212.834V27.12H217.274V21.08H212.834V14ZM232.594 21.08H224.354V27.12H232.594V21.08ZM241.623 14H270.983V21.08H253.343V33.4C253.343 34.36 253.677 35.1867 254.343 35.88C255.037 36.5733 255.877 36.92 256.863 36.92H270.983V44H256.863C255.397 44 254.023 43.72 252.743 43.16C251.463 42.6 250.343 41.84 249.383 40.88C248.423 39.92 247.663 38.8 247.103 37.52C246.543 36.24 246.263 34.8667 246.263 33.4V21.08H241.623V14ZM293.779 28.72C295.832 30.24 297.459 32.1467 298.659 34.44C299.859 36.7333 300.459 39.24 300.459 41.96V44H293.379V41.96C293.379 40.6533 293.125 39.4267 292.619 38.28C292.139 37.1333 291.472 36.1333 290.619 35.28C289.765 34.4267 288.765 33.76 287.619 33.28C286.472 32.7733 285.245 32.52 283.939 32.52H282.819V44H275.739V32.52H271.819V25.48H275.739V14H282.819V25.48H283.259C284.565 25.48 285.792 25.24 286.939 24.76C288.085 24.2533 289.085 23.5733 289.939 22.72C290.792 21.8667 291.459 20.8667 291.939 19.72C292.445 18.5733 292.699 17.3467 292.699 16.04V14H299.779V16.04C299.779 18.6 299.232 20.9733 298.139 23.16C297.072 25.3467 295.619 27.2 293.779 28.72ZM303.655 14H330.455V44H323.415V33.48H315.175C315.095 35 314.735 36.44 314.095 37.8C313.481 39.1333 312.655 40.2933 311.615 41.28C310.575 42.2667 309.375 43.0533 308.015 43.64C306.655 44.2 305.201 44.48 303.655 44.48V37.4C304.215 37.4 304.748 37.3067 305.255 37.12C305.761 36.9067 306.215 36.6267 306.615 36.28C307.015 35.9067 307.335 35.4933 307.575 35.04C307.841 34.56 308.001 34.04 308.055 33.48H303.655V27.12H308.095V21.08H303.655V14ZM323.415 21.08H315.175V27.12H323.415V21.08ZM332.444 14H361.844V21.08H344.164V33.4C344.164 33.88 344.257 34.3333 344.444 34.76C344.63 35.1867 344.884 35.56 345.204 35.88C345.524 36.2 345.897 36.4533 346.324 36.64C346.777 36.8267 347.244 36.92 347.724 36.92H354.764V32.16H348.724V25.08H361.844V49.8H354.764V44H347.724C346.257 44 344.87 43.72 343.564 43.16C342.284 42.6 341.164 41.84 340.204 40.88C339.244 39.92 338.484 38.8 337.924 37.52C337.364 36.24 337.084 34.8667 337.084 33.4V21.08H332.444V14ZM365.061 14H379.581V21.08H375.861V36.92H379.581V44H365.061V36.92H368.781V21.08H365.061V14ZM399.755 10.12H406.835V21.08H389.875V25.48H406.835V34.16C406.835 35.52 406.569 36.8 406.035 38C405.529 39.2 404.835 40.24 403.955 41.12C403.075 42 402.035 42.7067 400.835 43.24C399.662 43.7467 398.395 44 397.035 44H382.795V36.92H397.035C397.782 36.92 398.422 36.6533 398.955 36.12C399.489 35.5867 399.755 34.9333 399.755 34.16V32.52H382.795V14H399.755V10.12ZM408.811 14H434.131V21.08H425.011V44H417.931V21.08H408.811V14Z" fill="white"/>
<path d="M14.6899 33.7507C14.6895 33.7909 14.679 33.8303 14.6593 33.8651C14.6396 33.8999 14.6115 33.929 14.5776 33.9495C14.5437 33.97 14.5052 33.9813 14.4657 33.9823C14.4263 33.9832 14.3873 33.9738 14.3525 33.955L11.1219 32.2106C11.0851 32.1907 11.0543 32.1609 11.0328 32.1245C11.0113 32.0881 11 32.0465 11 32.004C11 31.9616 11.0113 31.9199 11.0328 31.8835C11.0543 31.8471 11.0851 31.8174 11.1219 31.7975L14.3525 30.0505C14.3873 30.0317 14.4263 30.0223 14.4657 30.0232C14.5052 30.0242 14.5437 30.0354 14.5776 30.056C14.6115 30.0765 14.6396 30.1056 14.6593 30.1404C14.679 30.1752 14.6895 30.2146 14.6899 30.2548V33.7507Z" fill="#E6E6E6"/>
<path d="M35.3136 30.146L35.0469 30.0807L32.8571 31.1137V42.8587H34.9276C34.9781 42.8589 35.0281 42.849 35.0748 42.8295C35.1216 42.81 35.1641 42.7813 35.1999 42.7451C35.2358 42.7088 35.2643 42.6658 35.2838 42.6183C35.3033 42.5709 35.3134 42.52 35.3136 42.4686V30.146Z" fill="#CBCBCB"/>
<path d="M48.9999 28.9536C49.0135 28.9945 47.3586 25.8504 47.3586 25.8504L45.0895 28.4884L48.9999 28.9536Z" fill="#E6E6E6"/>
<path d="M23.4617 17.3578H21.5566C21.4421 17.3577 21.33 17.3918 21.2342 17.4558L14.6523 21.8556C14.5709 21.91 14.504 21.9842 14.4577 22.0714C14.4114 22.1587 14.3872 22.2563 14.3871 22.3555V43.4015C14.3871 43.5602 14.449 43.7125 14.5592 43.8247C14.6694 43.9369 14.8188 44 14.9746 44H18.895C19.0507 43.9999 19.2 43.9369 19.3101 43.8248L23.3819 39.6773L15.2183 27.1388C15.1323 27.0065 15.1014 26.8448 15.1324 26.6892C15.1635 26.5337 15.2538 26.3971 15.3837 26.3095C15.3961 26.3013 15.4086 26.2935 15.4213 26.286L20.4923 23.4008C20.5835 23.3489 20.6595 23.2731 20.7123 23.1812C20.7652 23.0894 20.7931 22.9849 20.7931 22.8784V20.579C20.7925 20.4305 20.8461 20.287 20.9435 20.1766L23.4617 17.3578Z" fill="#CBCBCB"/>
<path d="M32.4986 44H26.807C26.7446 44 26.6832 43.9845 26.628 43.9548C26.5728 43.9252 26.5255 43.8824 26.4902 43.83L15.107 26.9549C15.0494 26.8692 15.0277 26.7637 15.0465 26.6616C15.0653 26.5595 15.1231 26.4692 15.2073 26.4106C15.2163 26.4045 15.2255 26.3987 15.2348 26.3932L20.7916 23.2318V30.6694C20.7916 30.773 20.8319 30.8724 20.9037 30.9458C20.9755 31.0193 21.0729 31.0607 21.1746 31.0611L32.8556 31.1122V43.6354C32.8556 43.7321 32.8179 43.8248 32.7507 43.8932C32.6836 43.9616 32.5936 44 32.4986 44Z" fill="#E6E6E6"/>
<path d="M27.7109 16.051C27.671 16.051 27.6328 16.0349 27.6046 16.0061C27.5764 15.9774 27.5605 15.9384 27.5605 15.8978V12.3064C27.5602 12.2796 27.5668 12.2532 27.5797 12.2298C27.5925 12.2065 27.6112 12.1869 27.6338 12.1732C27.6563 12.1594 27.6821 12.152 27.7083 12.1515C27.7346 12.151 27.7606 12.1576 27.7836 12.1706L34.351 15.7589C34.3816 15.7745 34.4061 15.8003 34.4203 15.832C34.4346 15.8637 34.4378 15.8994 34.4294 15.9332C34.4211 15.967 34.4017 15.9969 34.3744 16.018C34.3471 16.039 34.3136 16.0499 34.2794 16.049L27.7109 16.051Z" fill="#CBCBCB"/>
<path d="M47.3626 25.8443L42.4917 25.2279L40.0061 27.6367L40.1164 28.2862L42.2911 31.7489L47.3626 25.8443Z" fill="#CBCBCB"/>
<path d="M42.2515 31.7663L40.1164 28.2862L38.6124 19.4223C38.5828 19.248 38.4913 19.091 38.3552 18.9811L34.4583 15.835H26.9619C26.8715 15.835 26.782 15.8543 26.6993 15.8917L23.4617 17.3578L32.8571 31.1137L35.0469 30.0807L42.2515 31.7663Z" fill="#E6E6E6"/>
<path d="M20.7931 30.6694V20.6045C20.7931 20.4394 20.8535 20.2803 20.9625 20.1582L23.4617 17.3578L32.8571 31.1137L21.1761 31.0626C21.1256 31.0624 21.0756 31.0521 21.0291 31.0322C20.9825 31.0124 20.9402 30.9833 20.9046 30.9468C20.8691 30.9103 20.8409 30.867 20.8218 30.8194C20.8026 30.7718 20.7929 30.7209 20.7931 30.6694Z" fill="white"/>
</svg>
