<svg width="179" height="82" viewBox="0 0 179 82" fill="none" xmlns="http://www.w3.org/2000/svg">
<path d="M148.75 25.9893C150.761 24.8283 153.239 24.8283 155.25 25.9893L172.9 36.1807C174.911 37.3418 176.15 39.4873 176.15 41.8096V62.1904C176.15 64.5127 174.911 66.6582 172.9 67.8193L155.25 78.0107C153.239 79.1717 150.761 79.1717 148.75 78.0107L131.1 67.8193C129.089 66.6582 127.85 64.5127 127.85 62.1904V41.8096C127.85 39.4873 129.089 37.3418 131.1 36.1807L148.75 25.9893Z" fill="black" stroke="#050505" stroke-width="5"/>
<path d="M123.75 25.9893C125.761 24.8283 128.239 24.8283 130.25 25.9893L147.9 36.1807C149.911 37.3418 151.15 39.4873 151.15 41.8096V62.1904C151.15 64.5127 149.911 66.6582 147.9 67.8193L130.25 78.0107C128.239 79.1717 125.761 79.1717 123.75 78.0107L106.1 67.8193C104.089 66.6582 102.85 64.5127 102.85 62.1904V41.8096C102.85 39.4873 104.089 37.3418 106.1 36.1807L123.75 25.9893Z" fill="black" stroke="#050505" stroke-width="5"/>
<path d="M98.75 25.9893C100.761 24.8283 103.239 24.8283 105.25 25.9893L122.9 36.1807C124.911 37.3418 126.15 39.4873 126.15 41.8096V62.1904C126.15 64.5127 124.911 66.6582 122.9 67.8193L105.25 78.0107C103.239 79.1717 100.761 79.1717 98.75 78.0107L81.0996 67.8193C79.0885 66.6582 77.8496 64.5127 77.8496 62.1904V41.8096C77.8496 39.4873 79.0885 37.3418 81.0996 36.1807L98.75 25.9893Z" fill="#81DA88" stroke="#6CD975" stroke-width="5"/>
<path d="M73.75 25.9893C75.761 24.8283 78.239 24.8283 80.25 25.9893L97.9004 36.1807C99.9115 37.3418 101.15 39.4873 101.15 41.8096V62.1904C101.15 64.5127 99.9115 66.6582 97.9004 67.8193L80.25 78.0107C78.239 79.1717 75.761 79.1717 73.75 78.0107L56.0996 67.8193C54.0885 66.6582 52.8496 64.5127 52.8496 62.1904V41.8096C52.8496 39.4873 54.0885 37.3418 56.0996 36.1807L73.75 25.9893Z" fill="#81DA88" stroke="#6CD975" stroke-width="5"/>
<path d="M48.75 25.9893C50.761 24.8283 53.239 24.8283 55.25 25.9893L72.9004 36.1807C74.9115 37.3418 76.1504 39.4873 76.1504 41.8096V62.1904C76.1504 64.5127 74.9115 66.6582 72.9004 67.8193L55.25 78.0107C53.239 79.1717 50.761 79.1717 48.75 78.0107L31.0996 67.8193C29.0885 66.6582 27.8496 64.5127 27.8496 62.1904V41.8096C27.8496 39.4873 29.0885 37.3418 31.0996 36.1807L48.75 25.9893Z" fill="#81DA88" stroke="#6CD975" stroke-width="5"/>
<path d="M23.75 25.9893C25.761 24.8283 28.239 24.8283 30.25 25.9893L47.9004 36.1807C49.9115 37.3418 51.1504 39.4873 51.1504 41.8096V62.1904C51.1504 64.5127 49.9115 66.6582 47.9004 67.8193L30.25 78.0107C28.239 79.1717 25.761 79.1717 23.75 78.0107L6.09961 67.8193C4.0885 66.6582 2.84961 64.5127 2.84961 62.1904V41.8096C2.84961 39.4873 4.0885 37.3418 6.09961 36.1807L23.75 25.9893Z" fill="#81DA88" stroke="#6CD975" stroke-width="5"/>
<path d="M9.84 11.896V9.336H11.76C12.1227 9.336 12.4373 9.26667 12.704 9.128C12.9707 8.97867 13.1787 8.77067 13.328 8.504C13.4773 8.23733 13.552 7.92267 13.552 7.56C13.552 7.18667 13.4773 6.86667 13.328 6.6C13.1787 6.33333 12.9707 6.13067 12.704 5.992C12.4373 5.85333 12.1227 5.784 11.76 5.784H9.84V3.224H11.68C12.6827 3.224 13.5467 3.39467 14.272 3.736C15.008 4.06667 15.5733 4.54667 15.968 5.176C16.3627 5.80533 16.56 6.55733 16.56 7.432V7.688C16.56 8.552 16.3627 9.29867 15.968 9.928C15.5733 10.5573 15.008 11.0427 14.272 11.384C13.5467 11.7253 12.6827 11.896 11.68 11.896H9.84ZM7.184 15V3.224H10.16V15H7.184ZM17.9622 15V6.168H20.2663V10.008H20.2343C20.2343 8.77067 20.4903 7.8 21.0023 7.096C21.5249 6.392 22.2716 6.04 23.2423 6.04H23.5943V8.536H22.9223C22.2716 8.536 21.7649 8.712 21.4023 9.064C21.0503 9.416 20.8743 9.92267 20.8743 10.584V15H17.9622ZM29.1123 15.32C28.3336 15.32 27.6403 15.2027 27.0323 14.968C26.4243 14.7333 25.9069 14.408 25.4803 13.992C25.0643 13.576 24.7443 13.096 24.5203 12.552C24.3069 12.008 24.2003 11.4267 24.2003 10.808V10.424C24.2003 9.784 24.3123 9.18667 24.5363 8.632C24.7709 8.07733 25.1016 7.592 25.5283 7.176C25.9549 6.76 26.4723 6.43467 27.0803 6.2C27.6883 5.96533 28.3656 5.848 29.1123 5.848C29.8696 5.848 30.5469 5.96533 31.1443 6.2C31.7523 6.43467 32.2696 6.76 32.6962 7.176C33.1229 7.592 33.4483 8.07733 33.6723 8.632C33.9069 9.18667 34.0243 9.784 34.0243 10.424V10.808C34.0243 11.4267 33.9123 12.008 33.6883 12.552C33.4749 13.096 33.1549 13.576 32.7283 13.992C32.3123 14.408 31.8003 14.7333 31.1923 14.968C30.5843 15.2027 29.8909 15.32 29.1123 15.32ZM29.1123 12.888C29.5603 12.888 29.9283 12.792 30.2163 12.6C30.5149 12.408 30.7389 12.1413 30.8883 11.8C31.0376 11.448 31.1123 11.0533 31.1123 10.616C31.1123 10.1573 31.0323 9.75733 30.8723 9.416C30.7229 9.064 30.4989 8.78667 30.2003 8.584C29.9016 8.38133 29.5389 8.28 29.1123 8.28C28.6856 8.28 28.3229 8.38133 28.0243 8.584C27.7256 8.78667 27.4963 9.064 27.3363 9.416C27.1869 9.75733 27.1123 10.1573 27.1123 10.616C27.1123 11.0533 27.1869 11.448 27.3363 11.8C27.4856 12.1413 27.7096 12.408 28.0083 12.6C28.3069 12.792 28.6749 12.888 29.1123 12.888ZM35.6185 15V6.168H37.9225V9.976H37.7945C37.7945 9.05867 37.9065 8.30133 38.1305 7.704C38.3652 7.096 38.7065 6.64267 39.1545 6.344C39.6025 6.03467 40.1518 5.88 40.8025 5.88H40.9305C41.5918 5.88 42.1412 6.03467 42.5785 6.344C43.0265 6.64267 43.3625 7.096 43.5865 7.704C43.8212 8.30133 43.9385 9.05867 43.9385 9.976H43.2665C43.2665 9.05867 43.3785 8.30133 43.6025 7.704C43.8372 7.096 44.1785 6.64267 44.6265 6.344C45.0745 6.03467 45.6238 5.88 46.2745 5.88H46.4025C47.0638 5.88 47.6185 6.03467 48.0665 6.344C48.5252 6.64267 48.8718 7.096 49.1065 7.704C49.3518 8.30133 49.4745 9.05867 49.4745 9.976V15H46.5625V9.896C46.5625 9.49067 46.4505 9.15467 46.2265 8.888C46.0132 8.61067 45.7038 8.472 45.2985 8.472C44.8932 8.472 44.5732 8.61067 44.3385 8.888C44.1145 9.15467 44.0025 9.50133 44.0025 9.928V15H41.0905V9.896C41.0905 9.49067 40.9785 9.15467 40.7545 8.888C40.5412 8.61067 40.2318 8.472 39.8265 8.472C39.4212 8.472 39.1012 8.61067 38.8665 8.888C38.6425 9.15467 38.5305 9.50133 38.5305 9.928V15H35.6185ZM51.431 18.2V6.168H53.735V9.976H53.479C53.511 9.112 53.6817 8.376 53.991 7.768C54.311 7.16 54.743 6.70133 55.287 6.392C55.831 6.072 56.455 5.912 57.159 5.912C57.767 5.912 58.3163 6.024 58.807 6.248C59.2977 6.46133 59.719 6.77067 60.071 7.176C60.423 7.57067 60.6897 8.04 60.871 8.584C61.063 9.128 61.159 9.72533 61.159 10.376V10.76C61.159 11.4107 61.0737 12.0133 60.903 12.568C60.7323 13.112 60.4763 13.592 60.135 14.008C59.7937 14.4133 59.3723 14.728 58.871 14.952C58.3803 15.176 57.815 15.288 57.175 15.288C56.4923 15.288 55.8897 15.1547 55.367 14.888C54.8443 14.6107 54.4283 14.2 54.119 13.656C53.8203 13.1013 53.6603 12.408 53.639 11.576L54.343 12.44V18.2H51.431ZM56.295 12.888C56.679 12.888 57.015 12.792 57.303 12.6C57.6017 12.3973 57.831 12.12 57.991 11.768C58.1617 11.416 58.247 11.016 58.247 10.568C58.247 10.1093 58.1617 9.71467 57.991 9.384C57.831 9.04267 57.607 8.78133 57.319 8.6C57.031 8.408 56.6897 8.312 56.295 8.312C55.943 8.312 55.6123 8.392 55.303 8.552C55.0043 8.712 54.759 8.94667 54.567 9.256C54.375 9.56533 54.279 9.93867 54.279 10.376V10.92C54.279 11.336 54.3803 11.6933 54.583 11.992C54.7857 12.28 55.0417 12.504 55.351 12.664C55.6603 12.8133 55.975 12.888 56.295 12.888ZM66.9671 15.128C66.0071 15.128 65.2391 15.0107 64.6631 14.776C64.0978 14.5413 63.6871 14.152 63.4311 13.608C63.1751 13.064 63.0471 12.328 63.0471 11.4L63.0631 3.864H65.7511L65.7351 11.48C65.7351 11.8747 65.8365 12.1787 66.0391 12.392C66.2525 12.5947 66.5565 12.696 66.9511 12.696H68.1671V15.128H66.9671ZM61.7671 8.28V6.168H68.1671V8.28H61.7671ZM73.1215 15V3.32H76.0015V15H73.1215ZM75.6815 15V12.568H80.6095V15H75.6815ZM75.6815 10.28V7.848H80.2735V10.28H75.6815ZM75.6815 5.752V3.32H80.5135V5.752H75.6815ZM82.4622 15V6.168H84.7663V9.96H84.6383C84.6383 9.04267 84.7556 8.28533 84.9903 7.688C85.2249 7.08 85.5716 6.62667 86.0303 6.328C86.4996 6.02933 87.0649 5.88 87.7263 5.88H87.8543C88.8569 5.88 89.6303 6.216 90.1743 6.888C90.7289 7.54933 91.0063 8.568 91.0063 9.944V15H88.0943V9.864C88.0943 9.45867 87.9716 9.128 87.7263 8.872C87.4916 8.60533 87.1663 8.472 86.7503 8.472C86.3343 8.472 85.9983 8.60533 85.7423 8.872C85.4969 9.128 85.3743 9.46933 85.3743 9.896V15H82.4622ZM96.4983 18.536C96.0609 18.536 95.6076 18.52 95.1383 18.488C94.6796 18.456 94.2636 18.4133 93.8903 18.36V15.928C94.2636 15.9707 94.6796 16.008 95.1383 16.04C95.5969 16.0827 96.0183 16.104 96.4023 16.104C97.0636 16.104 97.6023 16.0347 98.0183 15.896C98.4449 15.7573 98.7596 15.544 98.9623 15.256C99.1649 14.968 99.2663 14.6 99.2663 14.152V12.36L99.7143 11.4C99.6929 12.1467 99.5489 12.7973 99.2823 13.352C99.0156 13.896 98.6316 14.3173 98.1303 14.616C97.6396 14.9147 97.0423 15.064 96.3383 15.064C95.7409 15.064 95.2023 14.9573 94.7223 14.744C94.2423 14.5307 93.8316 14.232 93.4903 13.848C93.1596 13.4533 92.9036 12.9893 92.7223 12.456C92.5409 11.9227 92.4503 11.3413 92.4503 10.712V10.328C92.4503 9.69867 92.5463 9.11733 92.7383 8.584C92.9303 8.04 93.2076 7.57067 93.5703 7.176C93.9329 6.77067 94.3596 6.46133 94.8503 6.248C95.3516 6.024 95.9063 5.912 96.5143 5.912C97.2183 5.912 97.8263 6.072 98.3383 6.392C98.8503 6.70133 99.2503 7.15467 99.5383 7.752C99.8263 8.34933 99.9809 9.07467 100.002 9.928L99.6823 10.04V6.168H101.986V13.96C101.986 15.048 101.784 15.928 101.378 16.6C100.973 17.272 100.36 17.7627 99.5383 18.072C98.7276 18.3813 97.7143 18.536 96.4983 18.536ZM97.3143 12.664C97.6663 12.664 97.9809 12.584 98.2583 12.424C98.5463 12.264 98.7756 12.0347 98.9463 11.736C99.1169 11.4267 99.2023 11.0587 99.2023 10.632V10.248C99.2023 9.832 99.1116 9.48 98.9303 9.192C98.7596 8.904 98.5303 8.68533 98.2423 8.536C97.9543 8.38667 97.6449 8.312 97.3143 8.312C96.9303 8.312 96.5889 8.40267 96.2903 8.584C96.0023 8.76533 95.7729 9.02133 95.6023 9.352C95.4423 9.68267 95.3623 10.072 95.3623 10.52C95.3623 10.968 95.4423 11.352 95.6023 11.672C95.7729 11.992 96.0023 12.2373 96.2903 12.408C96.5889 12.5787 96.9303 12.664 97.3143 12.664ZM104.425 15V6.168H107.337V15H104.425ZM103.305 8.28V6.168H107.337V8.28H103.305ZM105.625 5.464C105.092 5.464 104.697 5.33067 104.441 5.064C104.196 4.78667 104.073 4.43467 104.073 4.008C104.073 3.58133 104.196 3.23467 104.441 2.968C104.697 2.69067 105.086 2.552 105.609 2.552C106.142 2.552 106.532 2.69067 106.777 2.968C107.022 3.23467 107.145 3.58133 107.145 4.008C107.145 4.43467 107.022 4.78667 106.777 5.064C106.532 5.33067 106.148 5.464 105.625 5.464ZM109.478 15V6.168H111.782V9.96H111.654C111.654 9.04267 111.771 8.28533 112.006 7.688C112.241 7.08 112.587 6.62667 113.046 6.328C113.515 6.02933 114.081 5.88 114.742 5.88H114.87C115.873 5.88 116.646 6.216 117.19 6.888C117.745 7.54933 118.022 8.568 118.022 9.944V15H115.11V9.864C115.11 9.45867 114.987 9.128 114.742 8.872C114.507 8.60533 114.182 8.472 113.766 8.472C113.35 8.472 113.014 8.60533 112.758 8.872C112.513 9.128 112.39 9.46933 112.39 9.896V15H109.478ZM124.122 15.32C123.375 15.32 122.714 15.192 122.138 14.936C121.562 14.68 121.077 14.3333 120.682 13.896C120.287 13.4587 119.983 12.968 119.77 12.424C119.567 11.88 119.466 11.32 119.466 10.744V10.424C119.466 9.82667 119.567 9.256 119.77 8.712C119.983 8.15733 120.282 7.66667 120.666 7.24C121.061 6.81333 121.541 6.47733 122.106 6.232C122.671 5.976 123.311 5.848 124.026 5.848C124.975 5.848 125.781 6.06133 126.442 6.488C127.103 6.91467 127.61 7.48 127.962 8.184C128.314 8.87733 128.49 9.63467 128.49 10.456V11.384H120.682V9.816H126.81L125.802 10.52C125.802 10.0187 125.733 9.59733 125.594 9.256C125.466 8.904 125.269 8.63733 125.002 8.456C124.746 8.27467 124.421 8.184 124.026 8.184C123.642 8.184 123.306 8.27467 123.018 8.456C122.741 8.62667 122.527 8.89333 122.378 9.256C122.229 9.608 122.154 10.056 122.154 10.6C122.154 11.0907 122.223 11.5173 122.362 11.88C122.501 12.232 122.714 12.504 123.002 12.696C123.29 12.888 123.663 12.984 124.122 12.984C124.527 12.984 124.858 12.9147 125.114 12.776C125.381 12.6373 125.567 12.4507 125.674 12.216H128.33C128.202 12.8133 127.946 13.3467 127.562 13.816C127.189 14.2853 126.709 14.6533 126.122 14.92C125.546 15.1867 124.879 15.32 124.122 15.32ZM134.169 15.32C133.422 15.32 132.761 15.192 132.185 14.936C131.609 14.68 131.123 14.3333 130.729 13.896C130.334 13.4587 130.03 12.968 129.817 12.424C129.614 11.88 129.513 11.32 129.513 10.744V10.424C129.513 9.82667 129.614 9.256 129.817 8.712C130.03 8.15733 130.329 7.66667 130.713 7.24C131.107 6.81333 131.587 6.47733 132.153 6.232C132.718 5.976 133.358 5.848 134.073 5.848C135.022 5.848 135.827 6.06133 136.489 6.488C137.15 6.91467 137.657 7.48 138.009 8.184C138.361 8.87733 138.537 9.63467 138.537 10.456V11.384H130.729V9.816H136.857L135.849 10.52C135.849 10.0187 135.779 9.59733 135.641 9.256C135.513 8.904 135.315 8.63733 135.049 8.456C134.793 8.27467 134.467 8.184 134.073 8.184C133.689 8.184 133.353 8.27467 133.065 8.456C132.787 8.62667 132.574 8.89333 132.425 9.256C132.275 9.608 132.201 10.056 132.201 10.6C132.201 11.0907 132.27 11.5173 132.409 11.88C132.547 12.232 132.761 12.504 133.049 12.696C133.337 12.888 133.71 12.984 134.169 12.984C134.574 12.984 134.905 12.9147 135.161 12.776C135.427 12.6373 135.614 12.4507 135.721 12.216H138.377C138.249 12.8133 137.993 13.3467 137.609 13.816C137.235 14.2853 136.755 14.6533 136.169 14.92C135.593 15.1867 134.926 15.32 134.169 15.32ZM140.072 15V6.168H142.376V10.008H142.344C142.344 8.77067 142.6 7.8 143.112 7.096C143.634 6.392 144.381 6.04 145.352 6.04H145.704V8.536H145.032C144.381 8.536 143.874 8.712 143.512 9.064C143.16 9.416 142.984 9.92267 142.984 10.584V15H140.072ZM147.269 15V6.168H150.181V15H147.269ZM146.149 8.28V6.168H150.181V8.28H146.149ZM148.469 5.464C147.936 5.464 147.541 5.33067 147.285 5.064C147.04 4.78667 146.917 4.43467 146.917 4.008C146.917 3.58133 147.04 3.23467 147.285 2.968C147.541 2.69067 147.93 2.552 148.453 2.552C148.986 2.552 149.376 2.69067 149.621 2.968C149.866 3.23467 149.989 3.58133 149.989 4.008C149.989 4.43467 149.866 4.78667 149.621 5.064C149.376 5.33067 148.992 5.464 148.469 5.464ZM152.322 15V6.168H154.626V9.96H154.498C154.498 9.04267 154.615 8.28533 154.85 7.688C155.084 7.08 155.431 6.62667 155.89 6.328C156.359 6.02933 156.924 5.88 157.586 5.88H157.714C158.716 5.88 159.49 6.216 160.034 6.888C160.588 7.54933 160.866 8.568 160.866 9.944V15H157.954V9.864C157.954 9.45867 157.831 9.128 157.586 8.872C157.351 8.60533 157.026 8.472 156.61 8.472C156.194 8.472 155.858 8.60533 155.602 8.872C155.356 9.128 155.234 9.46933 155.234 9.896V15H152.322ZM166.358 18.536C165.92 18.536 165.467 18.52 164.998 18.488C164.539 18.456 164.123 18.4133 163.75 18.36V15.928C164.123 15.9707 164.539 16.008 164.998 16.04C165.456 16.0827 165.878 16.104 166.262 16.104C166.923 16.104 167.462 16.0347 167.878 15.896C168.304 15.7573 168.619 15.544 168.822 15.256C169.024 14.968 169.126 14.6 169.126 14.152V12.36L169.574 11.4C169.552 12.1467 169.408 12.7973 169.142 13.352C168.875 13.896 168.491 14.3173 167.99 14.616C167.499 14.9147 166.902 15.064 166.198 15.064C165.6 15.064 165.062 14.9573 164.582 14.744C164.102 14.5307 163.691 14.232 163.35 13.848C163.019 13.4533 162.763 12.9893 162.582 12.456C162.4 11.9227 162.31 11.3413 162.31 10.712V10.328C162.31 9.69867 162.406 9.11733 162.598 8.584C162.79 8.04 163.067 7.57067 163.43 7.176C163.792 6.77067 164.219 6.46133 164.71 6.248C165.211 6.024 165.766 5.912 166.374 5.912C167.078 5.912 167.686 6.072 168.198 6.392C168.71 6.70133 169.11 7.15467 169.398 7.752C169.686 8.34933 169.84 9.07467 169.862 9.928L169.542 10.04V6.168H171.846V13.96C171.846 15.048 171.643 15.928 171.238 16.6C170.832 17.272 170.219 17.7627 169.398 18.072C168.587 18.3813 167.574 18.536 166.358 18.536ZM167.174 12.664C167.526 12.664 167.84 12.584 168.118 12.424C168.406 12.264 168.635 12.0347 168.806 11.736C168.976 11.4267 169.062 11.0587 169.062 10.632V10.248C169.062 9.832 168.971 9.48 168.79 9.192C168.619 8.904 168.39 8.68533 168.102 8.536C167.814 8.38667 167.504 8.312 167.174 8.312C166.79 8.312 166.448 8.40267 166.15 8.584C165.862 8.76533 165.632 9.02133 165.462 9.352C165.302 9.68267 165.222 10.072 165.222 10.52C165.222 10.968 165.302 11.352 165.462 11.672C165.632 11.992 165.862 12.2373 166.15 12.408C166.448 12.5787 166.79 12.664 167.174 12.664Z" fill="white"/>
</svg>
