<svg width="478" height="194" viewBox="0 0 478 194" fill="none" xmlns="http://www.w3.org/2000/svg">
<mask id="mask0_240_142" style="mask-type:alpha" maskUnits="userSpaceOnUse" x="0" y="0" width="478" height="194">
<rect width="478" height="194" fill="#8892BF"/>
</mask>
<g mask="url(#mask0_240_142)">
<rect width="478" height="194" fill="url(#paint0_linear_240_142)"/>
<path fill-rule="evenodd" clip-rule="evenodd" d="M50.6067 67C45.8986 67 42.0821 70.6954 42.0821 75.254V80.9683H56.8363V82.5556H35.5246C30.8166 82.5556 27 86.251 27 90.8095V103.191C27 107.749 30.8166 111.444 35.5246 111.444H40.4427V104.46C40.4427 99.9019 44.2593 96.2063 48.9674 96.2063H64.7051C68.6889 96.2063 71.9183 93.0794 71.9183 89.2223V75.254C71.9183 70.6954 68.1018 67 63.3937 67H50.6067ZM48.6396 77.1587C50.2692 77.1587 51.5903 75.8795 51.5903 74.3016C51.5903 72.7236 50.2692 71.4444 48.6396 71.4444C47.0097 71.4444 45.6886 72.7236 45.6886 74.3016C45.6886 75.8795 47.0097 77.1587 48.6396 77.1587Z" fill="white"/>
<path fill-rule="evenodd" clip-rule="evenodd" d="M63.3933 127C68.1014 127 71.918 123.305 71.918 118.746V113.032H57.1637V111.445H78.4754C83.1835 111.445 87 107.749 87 103.191V90.8095C87 86.251 83.1835 82.5556 78.4754 82.5556H73.5573V89.5396C73.5573 94.0984 69.7407 97.7937 65.0328 97.7937H49.2949C45.3111 97.7937 42.0817 100.921 42.0817 104.778V118.746C42.0817 123.305 45.8984 127 50.6063 127H63.3933ZM65.3606 116.841C63.7308 116.841 62.4097 118.12 62.4097 119.698C62.4097 121.276 63.7308 122.556 65.3606 122.556C66.9903 122.556 68.3114 121.276 68.3114 119.698C68.3114 118.12 66.9903 116.841 65.3606 116.841Z" fill="#EBEBEB"/>
<path d="M0.0701828 164L112.118 194.023L102.657 229.33L-9.39023 199.307L0.0701828 164Z" fill="#18005B"/>
<path d="M-1.6265 141.518L201.842 196.038L198.308 209.227L-5.1607 154.708L-1.6265 141.518Z" fill="#18005B"/>
<path d="M-2.84124 124.052L257.68 193.858L255.361 202.515L-5.1607 132.708L-2.84124 124.052Z" fill="#18005B"/>
<rect x="149" y="72" width="315" height="50" rx="8" stroke="#EBEBEB" stroke-width="8"/>
<rect x="155" y="78" width="59" height="38" rx="3" fill="white"/>
<rect x="216" y="78" width="59" height="38" rx="3" fill="white"/>
<path d="M398.52 183V169.04H403.92C404.6 169.04 405.207 169.147 405.74 169.36C406.273 169.56 406.72 169.853 407.08 170.24C407.453 170.627 407.733 171.093 407.92 171.64C408.107 172.187 408.2 172.8 408.2 173.48C408.2 174.16 408.107 174.773 407.92 175.32C407.733 175.867 407.453 176.333 407.08 176.72C406.72 177.107 406.273 177.407 405.74 177.62C405.207 177.82 404.6 177.92 403.92 177.92H401.54V183H398.52ZM401.54 175.5H403.16C403.867 175.5 404.353 175.367 404.62 175.1C404.9 174.833 405.04 174.393 405.04 173.78V173.18C405.04 172.567 404.9 172.127 404.62 171.86C404.353 171.593 403.867 171.46 403.16 171.46H401.54V175.5ZM417.592 172.68H420.612L415.752 184.66C415.446 185.42 415.039 186 414.532 186.4C414.026 186.8 413.332 187 412.452 187H410.412V184.7H412.892L413.532 182.94L409.372 172.68H412.552L414.052 177.02L414.992 180.02H415.152L416.052 177.02L417.592 172.68ZM427.784 183C426.718 183 425.924 182.72 425.404 182.16C424.884 181.6 424.624 180.887 424.624 180.02V174.98H421.824V172.68H423.644C424.084 172.68 424.398 172.593 424.584 172.42C424.771 172.247 424.864 171.927 424.864 171.46V169.04H427.584V172.68H431.604V174.98H427.584V180.7H431.604V183H427.784ZM434.277 168.2H437.237V174.56H437.357C437.477 174.267 437.623 173.993 437.797 173.74C437.97 173.487 438.177 173.267 438.417 173.08C438.67 172.88 438.957 172.727 439.277 172.62C439.61 172.5 439.983 172.44 440.397 172.44C440.89 172.44 441.343 172.527 441.757 172.7C442.17 172.86 442.523 173.107 442.817 173.44C443.11 173.773 443.337 174.18 443.497 174.66C443.67 175.14 443.757 175.693 443.757 176.32V183H440.797V176.72C440.797 175.387 440.217 174.72 439.057 174.72C438.83 174.72 438.603 174.753 438.377 174.82C438.163 174.873 437.97 174.967 437.797 175.1C437.623 175.22 437.483 175.373 437.377 175.56C437.283 175.747 437.237 175.967 437.237 176.22V183H434.277V168.2ZM450.969 183.24C450.169 183.24 449.449 183.12 448.809 182.88C448.169 182.627 447.622 182.267 447.169 181.8C446.729 181.333 446.389 180.767 446.149 180.1C445.909 179.433 445.789 178.68 445.789 177.84C445.789 177 445.909 176.247 446.149 175.58C446.389 174.913 446.729 174.347 447.169 173.88C447.622 173.413 448.169 173.06 448.809 172.82C449.449 172.567 450.169 172.44 450.969 172.44C451.769 172.44 452.489 172.567 453.129 172.82C453.769 173.06 454.309 173.413 454.749 173.88C455.202 174.347 455.549 174.913 455.789 175.58C456.029 176.247 456.149 177 456.149 177.84C456.149 178.68 456.029 179.433 455.789 180.1C455.549 180.767 455.202 181.333 454.749 181.8C454.309 182.267 453.769 182.627 453.129 182.88C452.489 183.12 451.769 183.24 450.969 183.24ZM450.969 181.04C451.635 181.04 452.155 180.833 452.529 180.42C452.902 180.007 453.089 179.42 453.089 178.66V177.02C453.089 176.26 452.902 175.673 452.529 175.26C452.155 174.847 451.635 174.64 450.969 174.64C450.302 174.64 449.782 174.847 449.409 175.26C449.035 175.673 448.849 176.26 448.849 177.02V178.66C448.849 179.42 449.035 180.007 449.409 180.42C449.782 180.833 450.302 181.04 450.969 181.04ZM458.261 183V172.68H461.221V174.56H461.341C461.461 174.267 461.608 173.993 461.781 173.74C461.954 173.487 462.161 173.267 462.401 173.08C462.654 172.88 462.941 172.727 463.261 172.62C463.594 172.5 463.968 172.44 464.381 172.44C464.874 172.44 465.328 172.527 465.741 172.7C466.154 172.86 466.508 173.107 466.801 173.44C467.094 173.773 467.321 174.18 467.481 174.66C467.654 175.14 467.741 175.693 467.741 176.32V183H464.781V176.72C464.781 175.387 464.201 174.72 463.041 174.72C462.814 174.72 462.588 174.753 462.361 174.82C462.148 174.873 461.954 174.967 461.781 175.1C461.608 175.22 461.468 175.373 461.361 175.56C461.268 175.747 461.221 175.967 461.221 176.22V183H458.261Z" fill="white"/>
</g>
<defs>
<linearGradient id="paint0_linear_240_142" x1="98.5" y1="42.5" x2="377.5" y2="97" gradientUnits="userSpaceOnUse">
<stop stop-color="#FDD22C"/>
<stop offset="1" stop-color="#2B78B8"/>
</linearGradient>
</defs>
</svg>
