<svg width="179" height="80" viewBox="0 0 179 80" fill="none" xmlns="http://www.w3.org/2000/svg">
<path d="M148.75 23.9893C150.761 22.8283 153.239 22.8283 155.25 23.9893L172.9 34.1807C174.911 35.3418 176.15 37.4873 176.15 39.8096V60.1904C176.15 62.5127 174.911 64.6582 172.9 65.8193L155.25 76.0107C153.239 77.1717 150.761 77.1717 148.75 76.0107L131.1 65.8193C129.089 64.6582 127.85 62.5127 127.85 60.1904V39.8096C127.85 37.4873 129.089 35.3418 131.1 34.1807L148.75 23.9893Z" fill="black" stroke="#050505" stroke-width="5"/>
<path d="M123.75 23.9893C125.761 22.8283 128.239 22.8283 130.25 23.9893L147.9 34.1807C149.911 35.3418 151.15 37.4873 151.15 39.8096V60.1904C151.15 62.5127 149.911 64.6582 147.9 65.8193L130.25 76.0107C128.239 77.1717 125.761 77.1717 123.75 76.0107L106.1 65.8193C104.089 64.6582 102.85 62.5127 102.85 60.1904V39.8096C102.85 37.4873 104.089 35.3418 106.1 34.1807L123.75 23.9893Z" fill="black" stroke="#050505" stroke-width="5"/>
<path d="M98.75 23.9893C100.761 22.8283 103.239 22.8283 105.25 23.9893L122.9 34.1807C124.911 35.3418 126.15 37.4873 126.15 39.8096V60.1904C126.15 62.5127 124.911 64.6582 122.9 65.8193L105.25 76.0107C103.239 77.1717 100.761 77.1717 98.75 76.0107L81.0996 65.8193C79.0885 64.6582 77.8496 62.5127 77.8496 60.1904V39.8096C77.8496 37.4873 79.0885 35.3418 81.0996 34.1807L98.75 23.9893Z" fill="black" stroke="#050505" stroke-width="5"/>
<path d="M73.75 23.9893C75.761 22.8283 78.239 22.8283 80.25 23.9893L97.9004 34.1807C99.9115 35.3418 101.15 37.4873 101.15 39.8096V60.1904C101.15 62.5127 99.9115 64.6582 97.9004 65.8193L80.25 76.0107C78.239 77.1717 75.761 77.1717 73.75 76.0107L56.0996 65.8193C54.0885 64.6582 52.8496 62.5127 52.8496 60.1904V39.8096C52.8496 37.4873 54.0885 35.3418 56.0996 34.1807L73.75 23.9893Z" fill="black" stroke="#050505" stroke-width="5"/>
<path d="M48.75 23.9893C50.761 22.8283 53.239 22.8283 55.25 23.9893L72.9004 34.1807C74.9115 35.3418 76.1504 37.4873 76.1504 39.8096V60.1904C76.1504 62.5127 74.9115 64.6582 72.9004 65.8193L55.25 76.0107C53.239 77.1717 50.761 77.1717 48.75 76.0107L31.0996 65.8193C29.0885 64.6582 27.8496 62.5127 27.8496 60.1904V39.8096C27.8496 37.4873 29.0885 35.3418 31.0996 34.1807L48.75 23.9893Z" fill="black" stroke="#050505" stroke-width="5"/>
<path d="M23.75 23.9893C25.761 22.8283 28.239 22.8283 30.25 23.9893L47.9004 34.1807C49.9115 35.3418 51.1504 37.4873 51.1504 39.8096V60.1904C51.1504 62.5127 49.9115 64.6582 47.9004 65.8193L30.25 76.0107C28.239 77.1717 25.761 77.1717 23.75 76.0107L6.09961 65.8193C4.0885 64.6582 2.84961 62.5127 2.84961 60.1904V39.8096C2.84961 37.4873 4.0885 35.3418 6.09961 34.1807L23.75 23.9893Z" fill="#FFD448" stroke="#FFD038" stroke-width="5"/>
<path d="M62.84 11.896V9.336H64.76C65.1227 9.336 65.4373 9.26667 65.704 9.128C65.9707 8.97867 66.1787 8.77067 66.328 8.504C66.4773 8.23733 66.552 7.92267 66.552 7.56C66.552 7.18667 66.4773 6.86667 66.328 6.6C66.1787 6.33333 65.9707 6.13067 65.704 5.992C65.4373 5.85333 65.1227 5.784 64.76 5.784H62.84V3.224H64.68C65.6827 3.224 66.5467 3.39467 67.272 3.736C68.008 4.06667 68.5733 4.54667 68.968 5.176C69.3627 5.80533 69.56 6.55733 69.56 7.432V7.688C69.56 8.552 69.3627 9.29867 68.968 9.928C68.5733 10.5573 68.008 11.0427 67.272 11.384C66.5467 11.7253 65.6827 11.896 64.68 11.896H62.84ZM60.184 15V3.224H63.16V15H60.184ZM71.1513 18.52V16.088H73.1833C73.4286 16.088 73.6366 16.056 73.8073 15.992C73.9779 15.928 74.1166 15.8213 74.2233 15.672C74.3299 15.5333 74.4099 15.336 74.4633 15.08L76.4473 6.168H79.1993L76.8793 15.64C76.7086 16.3653 76.4686 16.936 76.1593 17.352C75.8606 17.7787 75.4446 18.0773 74.9113 18.248C74.3886 18.4293 73.7059 18.52 72.8633 18.52H71.1513ZM73.9513 14.808V12.568H75.8073V14.808H73.9513ZM72.6073 14.808L70.0312 6.168H72.9433L75.3593 14.808H72.6073ZM84.6859 15.128C83.7259 15.128 82.9579 15.0107 82.3819 14.776C81.8165 14.5413 81.4059 14.152 81.1499 13.608C80.8939 13.064 80.7659 12.328 80.7659 11.4L80.7819 3.864H83.4699L83.4539 11.48C83.4539 11.8747 83.5552 12.1787 83.7579 12.392C83.9712 12.5947 84.2752 12.696 84.6699 12.696H85.8859V15.128H84.6859ZM79.4859 8.28V6.168H85.8859V8.28H79.4859ZM87.4466 15V3.32H90.3586V9.976H89.9746C89.9746 9.08 90.0866 8.328 90.3106 7.72C90.5346 7.112 90.86 6.65333 91.2866 6.344C91.724 6.03467 92.2626 5.88 92.9026 5.88H93.0306C93.9906 5.88 94.7213 6.22667 95.2226 6.92C95.7346 7.61333 95.9906 8.632 95.9906 9.976V15H93.0786V9.864C93.0786 9.45867 92.956 9.128 92.7106 8.872C92.4653 8.60533 92.14 8.472 91.7346 8.472C91.3293 8.472 90.9986 8.60533 90.7426 8.872C90.4866 9.128 90.3586 9.46933 90.3586 9.896V15H87.4466ZM102.347 15.32C101.568 15.32 100.875 15.2027 100.267 14.968C99.6586 14.7333 99.1413 14.408 98.7146 13.992C98.2986 13.576 97.9786 13.096 97.7546 12.552C97.5413 12.008 97.4346 11.4267 97.4346 10.808V10.424C97.4346 9.784 97.5466 9.18667 97.7706 8.632C98.0053 8.07733 98.336 7.592 98.7626 7.176C99.1893 6.76 99.7066 6.43467 100.315 6.2C100.923 5.96533 101.6 5.848 102.347 5.848C103.104 5.848 103.781 5.96533 104.379 6.2C104.987 6.43467 105.504 6.76 105.931 7.176C106.357 7.592 106.683 8.07733 106.907 8.632C107.141 9.18667 107.259 9.784 107.259 10.424V10.808C107.259 11.4267 107.147 12.008 106.923 12.552C106.709 13.096 106.389 13.576 105.963 13.992C105.547 14.408 105.035 14.7333 104.427 14.968C103.819 15.2027 103.125 15.32 102.347 15.32ZM102.347 12.888C102.795 12.888 103.163 12.792 103.451 12.6C103.749 12.408 103.973 12.1413 104.123 11.8C104.272 11.448 104.347 11.0533 104.347 10.616C104.347 10.1573 104.267 9.75733 104.107 9.416C103.957 9.064 103.733 8.78667 103.435 8.584C103.136 8.38133 102.773 8.28 102.347 8.28C101.92 8.28 101.557 8.38133 101.259 8.584C100.96 8.78667 100.731 9.064 100.571 9.416C100.421 9.75733 100.347 10.1573 100.347 10.616C100.347 11.0533 100.421 11.448 100.571 11.8C100.72 12.1413 100.944 12.408 101.243 12.6C101.541 12.792 101.909 12.888 102.347 12.888ZM108.853 15V6.168H111.157V9.96H111.029C111.029 9.04267 111.146 8.28533 111.381 7.688C111.616 7.08 111.962 6.62667 112.421 6.328C112.89 6.02933 113.456 5.88 114.117 5.88H114.245C115.248 5.88 116.021 6.216 116.565 6.888C117.12 7.54933 117.397 8.568 117.397 9.944V15H114.485V9.864C114.485 9.45867 114.362 9.128 114.117 8.872C113.882 8.60533 113.557 8.472 113.141 8.472C112.725 8.472 112.389 8.60533 112.133 8.872C111.888 9.128 111.765 9.46933 111.765 9.896V15H108.853Z" fill="white"/>
</svg>
