<svg width="478" height="194" viewBox="0 0 478 194" fill="none" xmlns="http://www.w3.org/2000/svg">
<mask id="mask0_240_155" style="mask-type:alpha" maskUnits="userSpaceOnUse" x="0" y="0" width="478" height="194">
<rect width="478" height="194" fill="#8892BF"/>
</mask>
<g mask="url(#mask0_240_155)">
<rect width="478" height="194" fill="#16CCFE"/>
<path d="M86 97.0062C86 92.9892 81.0224 89.1824 73.391 86.8217C75.1521 78.9609 74.3693 72.7068 70.9205 70.7045C70.1256 70.2348 69.1961 70.0124 68.181 70.0124V72.7686C68.7436 72.7686 69.1961 72.8798 69.5752 73.09C71.2385 74.054 71.9601 77.7249 71.3975 82.4463C71.263 83.6081 71.0428 84.8318 70.7737 86.0801C68.3767 85.4868 65.7595 85.0295 63.0077 84.7329C61.3567 82.4463 59.6445 80.3699 57.9201 78.553C61.9071 74.808 65.6494 72.7562 68.1932 72.7562V70C64.83 70 60.4272 72.4225 55.9755 76.6249C51.5239 72.4472 47.1211 70.0494 43.7578 70.0494V72.8057C46.2894 72.8057 50.044 74.845 54.031 78.5653C52.3188 80.3822 50.6066 82.4463 48.98 84.7329C46.2161 85.0295 43.5989 85.4868 41.2018 86.0925C40.9205 84.8565 40.7126 83.6576 40.5658 82.5081C39.991 77.7867 40.7004 74.1158 42.3514 73.1394C42.7183 72.9169 43.1953 72.818 43.7578 72.818V70.0618C42.7305 70.0618 41.8011 70.2843 40.9939 70.7539C37.5573 72.7562 36.7868 78.9979 38.5601 86.8341C30.9531 89.2071 26 93.0016 26 97.0062C26 101.023 30.9776 104.83 38.6091 107.191C36.8479 115.051 37.6307 121.306 41.0795 123.308C41.8744 123.778 42.8039 124 43.8312 124C47.1945 124 51.5972 121.577 56.0489 117.375C60.5006 121.553 64.9034 123.951 68.2666 123.951C69.2939 123.951 70.2234 123.728 71.0306 123.258C74.4672 121.256 75.2377 115.014 73.4643 107.178C81.0469 104.818 86 101.011 86 97.0062ZM70.0766 88.7622C69.6241 90.3566 69.0616 92.0005 68.4256 93.6443C67.9242 92.6555 67.3983 91.6667 66.8235 90.678C66.2609 89.6892 65.6616 88.7251 65.0624 87.7858C66.799 88.0453 68.4745 88.3667 70.0766 88.7622ZM64.4753 101.925C63.5214 103.594 62.543 105.176 61.5279 106.647C59.7057 106.808 57.859 106.894 56 106.894C54.1533 106.894 52.3066 106.808 50.4965 106.659C49.4815 105.188 48.4908 103.619 47.5369 101.962C46.6074 100.343 45.7636 98.6995 44.9931 97.0433C45.7513 95.387 46.6074 93.7308 47.5247 92.1117C48.4786 90.4431 49.457 88.8611 50.4721 87.3902C52.2943 87.2296 54.1411 87.1431 56 87.1431C57.8467 87.1431 59.6934 87.2296 61.5035 87.3779C62.5186 88.8487 63.5092 90.4184 64.4631 92.0746C65.3926 93.6938 66.2364 95.3376 67.0069 96.9938C66.2364 98.65 65.3926 100.306 64.4753 101.925ZM68.4256 100.319C69.086 101.975 69.6486 103.631 70.1133 105.238C68.5112 105.633 66.8235 105.967 65.0746 106.227C65.6739 105.275 66.2731 104.298 66.8357 103.297C67.3983 102.309 67.9242 101.307 68.4256 100.319ZM56.0245 113.507C54.8871 112.32 53.7497 110.997 52.6245 109.551C53.7252 109.601 54.8504 109.638 55.9878 109.638C57.1374 109.638 58.2748 109.613 59.3877 109.551C58.287 110.997 57.1496 112.32 56.0245 113.507ZM46.9254 106.227C45.1887 105.967 43.5133 105.646 41.9111 105.25C42.3636 103.656 42.9262 102.012 43.5622 100.368C44.0636 101.357 44.5895 102.346 45.1643 103.334C45.7391 104.323 46.3261 105.287 46.9254 106.227ZM55.9633 80.5058C57.1007 81.6924 58.2381 83.0149 59.3632 84.461C58.2625 84.4115 57.1374 84.3745 56 84.3745C54.8504 84.3745 53.713 84.3992 52.6001 84.461C53.7008 83.0149 54.8382 81.6924 55.9633 80.5058ZM46.9132 87.7858C46.3139 88.7375 45.7146 89.7139 45.1521 90.715C44.5895 91.7038 44.0636 92.6926 43.5622 93.6814C42.9018 92.0252 42.3392 90.369 41.8744 88.7622C43.4766 88.379 45.1643 88.0453 46.9132 87.7858ZM35.8451 103.26C31.5157 101.394 28.715 98.9467 28.715 97.0062C28.715 95.0657 31.5157 92.6061 35.8451 90.7521C36.8969 90.2948 38.0465 89.8869 39.2328 89.5038C39.9299 91.9263 40.8471 94.4477 41.9845 97.0309C40.8594 99.6017 39.9543 102.111 39.2695 104.521C38.0587 104.138 36.9091 103.718 35.8451 103.26ZM42.4248 120.922C40.7615 119.958 40.04 116.287 40.6025 111.566C40.7371 110.404 40.9572 109.181 41.2263 107.932C43.6233 108.526 46.2405 108.983 48.9923 109.279C50.6433 111.566 52.3555 113.642 54.0799 115.459C50.0929 119.204 46.3506 121.256 43.8068 121.256C43.2564 121.244 42.7917 121.133 42.4248 120.922ZM71.4342 111.504C72.009 116.226 71.2996 119.897 69.6486 120.873C69.2817 121.095 68.8047 121.194 68.2422 121.194C65.7106 121.194 61.956 119.155 57.969 115.435C59.6812 113.618 61.3934 111.554 63.02 109.267C65.7839 108.97 68.4011 108.513 70.7982 107.908C71.0795 109.156 71.2996 110.355 71.4342 111.504ZM76.1427 103.26C75.0909 103.718 73.9413 104.125 72.755 104.509C72.0579 102.086 71.1406 99.5647 70.0033 96.9815C71.1284 94.4106 72.0334 91.9016 72.7183 89.4914C73.9291 89.8746 75.0787 90.2948 76.1549 90.7521C80.4843 92.6184 83.285 95.0657 83.285 97.0062C83.2727 98.9467 80.4721 101.406 76.1427 103.26Z" fill="white"/>
<path d="M55.9878 102.655C59.0745 102.655 61.5768 100.126 61.5768 97.0062C61.5768 93.8866 59.0745 91.3577 55.9878 91.3577C52.901 91.3577 50.3987 93.8866 50.3987 97.0062C50.3987 100.126 52.901 102.655 55.9878 102.655Z" fill="white"/>
<path d="M0.0701828 164L112.118 194.023L102.657 229.33L-9.39023 199.307L0.0701828 164Z" fill="#18005B"/>
<path d="M-1.6265 141.518L201.842 196.038L198.308 209.227L-5.1607 154.708L-1.6265 141.518Z" fill="#18005B"/>
<path d="M-2.84124 124.052L257.68 193.858L255.361 202.515L-5.1607 132.708L-2.84124 124.052Z" fill="#18005B"/>
<rect x="149" y="72" width="315" height="50" rx="8" stroke="#EBEBEB" stroke-width="8"/>
<rect x="155" y="78" width="59" height="38" rx="3" fill="white"/>
<rect x="216" y="78" width="59" height="38" rx="3" fill="white"/>
<rect x="277" y="78" width="59" height="38" rx="3" fill="white"/>
<path d="M413.48 183H410.52V169.04H415.92C416.6 169.04 417.207 169.147 417.74 169.36C418.273 169.56 418.72 169.853 419.08 170.24C419.453 170.627 419.733 171.093 419.92 171.64C420.107 172.187 420.2 172.8 420.2 173.48C420.2 174.467 419.987 175.313 419.56 176.02C419.133 176.727 418.527 177.193 417.74 177.42L420.48 183H417.2L414.86 177.82H413.48V183ZM415.2 175.5C415.907 175.5 416.393 175.367 416.66 175.1C416.94 174.833 417.08 174.393 417.08 173.78V173.18C417.08 172.567 416.94 172.127 416.66 171.86C416.393 171.593 415.907 171.46 415.2 171.46H413.48V175.5H415.2ZM427.272 183.24C425.539 183.24 424.226 182.76 423.332 181.8C422.439 180.84 421.992 179.533 421.992 177.88C421.992 177.04 422.106 176.287 422.332 175.62C422.572 174.94 422.906 174.367 423.332 173.9C423.772 173.42 424.299 173.06 424.912 172.82C425.539 172.567 426.239 172.44 427.012 172.44C427.786 172.44 428.479 172.567 429.092 172.82C429.706 173.06 430.226 173.407 430.652 173.86C431.079 174.313 431.406 174.867 431.632 175.52C431.872 176.16 431.992 176.88 431.992 177.68V178.56H424.932V178.74C424.932 179.407 425.139 179.947 425.552 180.36C425.966 180.76 426.572 180.96 427.372 180.96C427.986 180.96 428.512 180.847 428.952 180.62C429.392 180.38 429.772 180.067 430.092 179.68L431.692 181.42C431.292 181.913 430.732 182.34 430.012 182.7C429.292 183.06 428.379 183.24 427.272 183.24ZM427.032 174.56C426.392 174.56 425.879 174.76 425.492 175.16C425.119 175.547 424.932 176.073 424.932 176.74V176.9H429.092V176.74C429.092 176.06 428.906 175.527 428.532 175.14C428.172 174.753 427.672 174.56 427.032 174.56ZM442.724 183C442.111 183 441.618 182.847 441.244 182.54C440.871 182.22 440.651 181.767 440.584 181.18H440.484C440.298 181.86 439.924 182.373 439.364 182.72C438.818 183.067 438.144 183.24 437.344 183.24C436.344 183.24 435.538 182.973 434.924 182.44C434.324 181.893 434.024 181.133 434.024 180.16C434.024 179.08 434.418 178.28 435.204 177.76C435.991 177.24 437.144 176.98 438.664 176.98H440.324V176.46C440.324 175.847 440.178 175.387 439.884 175.08C439.604 174.76 439.124 174.6 438.444 174.6C437.818 174.6 437.311 174.72 436.924 174.96C436.538 175.2 436.204 175.513 435.924 175.9L434.304 174.46C434.651 173.873 435.191 173.393 435.924 173.02C436.671 172.633 437.624 172.44 438.784 172.44C440.198 172.44 441.298 172.767 442.084 173.42C442.884 174.06 443.284 175.033 443.284 176.34V180.86H444.424V183H442.724ZM438.464 181.3C438.984 181.3 439.424 181.173 439.784 180.92C440.144 180.667 440.324 180.3 440.324 179.82V178.58H438.744C437.531 178.58 436.924 178.987 436.924 179.8V180.2C436.924 180.56 437.064 180.833 437.344 181.02C437.624 181.207 437.998 181.3 438.464 181.3ZM451.397 183.24C450.583 183.24 449.85 183.12 449.197 182.88C448.557 182.627 448.01 182.267 447.557 181.8C447.117 181.333 446.777 180.767 446.537 180.1C446.297 179.433 446.177 178.68 446.177 177.84C446.177 177 446.297 176.247 446.537 175.58C446.777 174.913 447.117 174.347 447.557 173.88C448.01 173.413 448.557 173.06 449.197 172.82C449.85 172.567 450.577 172.44 451.377 172.44C452.51 172.44 453.417 172.673 454.097 173.14C454.79 173.593 455.317 174.2 455.677 174.96L453.397 176.2C453.21 175.8 452.963 175.467 452.657 175.2C452.363 174.933 451.937 174.8 451.377 174.8C450.697 174.8 450.17 175 449.797 175.4C449.437 175.787 449.257 176.32 449.257 177V178.68C449.257 179.36 449.437 179.9 449.797 180.3C450.17 180.687 450.71 180.88 451.417 180.88C451.99 180.88 452.437 180.747 452.757 180.48C453.09 180.213 453.37 179.867 453.597 179.44L455.837 180.72C455.463 181.48 454.917 182.093 454.197 182.56C453.49 183.013 452.557 183.24 451.397 183.24ZM463.769 183C462.702 183 461.909 182.72 461.389 182.16C460.869 181.6 460.609 180.887 460.609 180.02V174.98H457.809V172.68H459.629C460.069 172.68 460.382 172.593 460.569 172.42C460.755 172.247 460.849 171.927 460.849 171.46V169.04H463.569V172.68H467.589V174.98H463.569V180.7H467.589V183H463.769Z" fill="white"/>
</g>
</svg>
