<svg width="780" height="180" viewBox="0 0 780 180" fill="none" xmlns="http://www.w3.org/2000/svg">
<mask id="mask0_55_222" style="mask-type:alpha" maskUnits="userSpaceOnUse" x="0" y="0" width="781" height="180">
<rect x="6.10352e-05" width="780.004" height="180" fill="#2C2C2C"/>
</mask>
<g mask="url(#mask0_55_222)">
<rect x="6.10352e-05" width="780.004" height="180" fill="#2C2C2C"/>
<rect x="0.00213623" width="141.901" height="180" fill="#4D2FB2"/>
<rect x="0.00213623" y="142.123" width="780.002" height="37.8774" fill="#4D2FB2"/>
<rect x="268.829" y="-142.923" width="141.901" height="329.402" transform="rotate(45 268.829 -142.923)" fill="#4D2FB2"/>
<path d="M171.974 133.5V39.292H195.782V133.5H171.974ZM228.294 133.5L202.054 93.82H227.91L255.686 133.5H228.294ZM189.766 104.828V86.524H212.166C214.982 86.524 217.414 85.9693 219.462 84.86C221.51 83.7507 223.089 82.172 224.198 80.124C225.393 78.076 225.99 75.6867 225.99 72.956C225.99 70.14 225.393 67.708 224.198 65.66C223.089 63.612 221.51 62.0333 219.462 60.924C217.414 59.8147 214.982 59.26 212.166 59.26H189.766V39.292H210.758C218.865 39.292 225.862 40.5293 231.75 43.004C237.638 45.3933 242.161 48.9773 245.318 53.756C248.475 58.4493 250.054 64.2947 250.054 71.292V73.34C250.054 80.3373 248.433 86.1827 245.19 90.876C242.033 95.484 237.51 98.9827 231.622 101.372C225.819 103.676 218.865 104.828 210.758 104.828H189.766ZM297.602 136.06C291.629 136.06 286.338 135.036 281.73 132.988C277.122 130.94 273.239 128.167 270.082 124.668C266.925 121.169 264.493 117.244 262.786 112.892C261.165 108.54 260.354 104.06 260.354 99.452V96.892C260.354 92.1133 261.165 87.548 262.786 83.196C264.493 78.7587 266.882 74.8333 269.954 71.42C273.111 68.0067 276.951 65.3187 281.474 63.356C285.997 61.308 291.117 60.284 296.834 60.284C304.429 60.284 310.871 61.9907 316.162 65.404C321.453 68.8173 325.506 73.34 328.322 78.972C331.138 84.5187 332.546 90.5773 332.546 97.148V104.572H270.082V92.028H319.106L311.042 97.66C311.042 93.6493 310.487 90.2787 309.378 87.548C308.354 84.732 306.775 82.5987 304.642 81.148C302.594 79.6973 299.991 78.972 296.834 78.972C293.762 78.972 291.074 79.6973 288.77 81.148C286.551 82.5133 284.845 84.6467 283.65 87.548C282.455 90.364 281.858 93.948 281.858 98.3C281.858 102.225 282.413 105.639 283.522 108.54C284.631 111.356 286.338 113.532 288.642 115.068C290.946 116.604 293.933 117.372 297.602 117.372C300.845 117.372 303.49 116.817 305.538 115.708C307.671 114.599 309.165 113.105 310.018 111.228H331.266C330.242 116.007 328.194 120.273 325.122 124.028C322.135 127.783 318.295 130.727 313.602 132.86C308.994 134.993 303.661 136.06 297.602 136.06ZM373.881 135.804C368.932 135.804 364.409 134.908 360.313 133.116C356.302 131.324 352.804 128.849 349.817 125.692C346.916 122.449 344.654 118.652 343.033 114.3C341.497 109.948 340.729 105.212 340.729 100.092V97.02C340.729 91.9 341.454 87.164 342.905 82.812C344.441 78.3747 346.617 74.5347 349.433 71.292C352.249 67.964 355.662 65.404 359.673 63.612C363.684 61.7347 368.164 60.796 373.113 60.796C378.83 60.796 383.694 62.076 387.705 64.636C391.801 67.1107 394.916 70.7373 397.049 75.516C399.268 80.2947 400.462 86.0973 400.633 92.924L395.257 88.956V40.06H418.553V133.5H400.121V104.828H402.681C402.51 111.143 401.23 116.647 398.841 121.34C396.452 125.948 393.124 129.532 388.857 132.092C384.676 134.567 379.684 135.804 373.881 135.804ZM380.153 116.604C382.969 116.604 385.529 115.964 387.833 114.684C390.222 113.404 392.142 111.527 393.593 109.052C395.044 106.577 395.769 103.591 395.769 100.092V95.74C395.769 92.3267 395.001 89.468 393.465 87.164C392.014 84.86 390.094 83.1107 387.705 81.916C385.401 80.636 382.884 79.996 380.153 79.996C377.081 79.996 374.308 80.8067 371.833 82.428C369.444 83.964 367.524 86.14 366.073 88.956C364.708 91.6867 364.025 94.8867 364.025 98.556C364.025 102.225 364.708 105.425 366.073 108.156C367.524 110.801 369.444 112.892 371.833 114.428C374.308 115.879 377.081 116.604 380.153 116.604ZM464.506 135.804C459.557 135.804 455.034 134.908 450.938 133.116C446.927 131.324 443.429 128.849 440.442 125.692C437.541 122.449 435.279 118.652 433.658 114.3C432.122 109.948 431.354 105.212 431.354 100.092V97.02C431.354 91.9 432.079 87.164 433.53 82.812C435.066 78.3747 437.242 74.5347 440.058 71.292C442.874 67.964 446.287 65.404 450.298 63.612C454.309 61.7347 458.789 60.796 463.738 60.796C469.455 60.796 474.319 62.076 478.33 64.636C482.426 67.1107 485.541 70.7373 487.674 75.516C489.893 80.2947 491.087 86.0973 491.258 92.924L485.882 88.956V40.06H509.178V133.5H490.746V104.828H493.306C493.135 111.143 491.855 116.647 489.466 121.34C487.077 125.948 483.749 129.532 479.482 132.092C475.301 134.567 470.309 135.804 464.506 135.804ZM470.778 116.604C473.594 116.604 476.154 115.964 478.458 114.684C480.847 113.404 482.767 111.527 484.218 109.052C485.669 106.577 486.394 103.591 486.394 100.092V95.74C486.394 92.3267 485.626 89.468 484.09 87.164C482.639 84.86 480.719 83.1107 478.33 81.916C476.026 80.636 473.509 79.996 470.778 79.996C467.706 79.996 464.933 80.8067 462.458 82.428C460.069 83.964 458.149 86.14 456.698 88.956C455.333 91.6867 454.65 94.8867 454.65 98.556C454.65 102.225 455.333 105.425 456.698 108.156C458.149 110.801 460.069 112.892 462.458 114.428C464.933 115.879 467.706 116.604 470.778 116.604ZM529.403 133.5V62.844H552.699V133.5H529.403ZM520.443 79.74V62.844H552.699V79.74H520.443ZM539.003 57.212C534.736 57.212 531.579 56.1453 529.531 54.012C527.568 51.7933 526.587 48.9773 526.587 45.564C526.587 42.1507 527.568 39.3773 529.531 37.244C531.579 35.0253 534.694 33.916 538.875 33.916C543.142 33.916 546.256 35.0253 548.219 37.244C550.182 39.3773 551.163 42.1507 551.163 45.564C551.163 48.9773 550.182 51.7933 548.219 54.012C546.256 56.1453 543.184 57.212 539.003 57.212ZM603.489 134.524C595.809 134.524 589.665 133.585 585.057 131.708C580.534 129.831 577.249 126.716 575.201 122.364C573.153 118.012 572.129 112.124 572.129 104.7L572.257 44.412H593.761L593.633 105.34C593.633 108.497 594.444 110.929 596.065 112.636C597.772 114.257 600.204 115.068 603.361 115.068H613.089V134.524H603.489ZM561.889 79.74V62.844H613.089V79.74H561.889Z" fill="white"/>
</g>
</svg>
