<svg width="96" height="30" viewBox="0 0 96 30" fill="none" xmlns="http://www.w3.org/2000/svg">
<rect x="1" y="1" width="94" height="28" rx="9" fill="#FF4500" fill-opacity="0.4" stroke="#FF4500" stroke-width="2"/>
<path d="M31.184 21.8571V10.0811H34.16V21.8571H31.184ZM38.224 21.8571L34.944 16.8971H38.176L41.648 21.8571H38.224ZM33.408 18.2731V15.9851H36.208C36.56 15.9851 36.864 15.9158 37.12 15.7771C37.376 15.6385 37.5733 15.4411 37.712 15.1851C37.8613 14.9291 37.936 14.6305 37.936 14.2891C37.936 13.9371 37.8613 13.6331 37.712 13.3771C37.5733 13.1211 37.376 12.9238 37.12 12.7851C36.864 12.6465 36.56 12.5771 36.208 12.5771H33.408V10.0811H36.032C37.0453 10.0811 37.92 10.2358 38.656 10.5451C39.392 10.8438 39.9573 11.2918 40.352 11.8891C40.7467 12.4758 40.944 13.2065 40.944 14.0811V14.3371C40.944 15.2118 40.7413 15.9425 40.336 16.5291C39.9413 17.1051 39.376 17.5425 38.64 17.8411C37.9147 18.1291 37.0453 18.2731 36.032 18.2731H33.408ZM46.8875 22.1771C46.1408 22.1771 45.4795 22.0491 44.9035 21.7931C44.3275 21.5371 43.8422 21.1905 43.4475 20.7531C43.0528 20.3158 42.7488 19.8251 42.5355 19.2811C42.3328 18.7371 42.2315 18.1771 42.2315 17.6011V17.2811C42.2315 16.6838 42.3328 16.1131 42.5355 15.5691C42.7488 15.0145 43.0475 14.5238 43.4315 14.0971C43.8262 13.6705 44.3062 13.3345 44.8715 13.0891C45.4368 12.8331 46.0768 12.7051 46.7915 12.7051C47.7408 12.7051 48.5462 12.9185 49.2075 13.3451C49.8688 13.7718 50.3755 14.3371 50.7275 15.0411C51.0795 15.7345 51.2555 16.4918 51.2555 17.3131V18.2411H43.4475V16.6731H49.5755L48.5675 17.3771C48.5675 16.8758 48.4982 16.4545 48.3595 16.1131C48.2315 15.7611 48.0342 15.4945 47.7675 15.3131C47.5115 15.1318 47.1862 15.0411 46.7915 15.0411C46.4075 15.0411 46.0715 15.1318 45.7835 15.3131C45.5062 15.4838 45.2928 15.7505 45.1435 16.1131C44.9942 16.4651 44.9195 16.9131 44.9195 17.4571C44.9195 17.9478 44.9888 18.3745 45.1275 18.7371C45.2662 19.0891 45.4795 19.3611 45.7675 19.5531C46.0555 19.7451 46.4288 19.8411 46.8875 19.8411C47.2928 19.8411 47.6235 19.7718 47.8795 19.6331C48.1462 19.4945 48.3328 19.3078 48.4395 19.0731H51.0955C50.9675 19.6705 50.7115 20.2038 50.3275 20.6731C49.9542 21.1425 49.4742 21.5105 48.8875 21.7771C48.3115 22.0438 47.6448 22.1771 46.8875 22.1771ZM56.4224 22.1451C55.8037 22.1451 55.2384 22.0331 54.7264 21.8091C54.225 21.5851 53.7877 21.2758 53.4144 20.8811C53.0517 20.4758 52.769 20.0011 52.5664 19.4571C52.3744 18.9131 52.2784 18.3211 52.2784 17.6811V17.2971C52.2784 16.6571 52.369 16.0651 52.5504 15.5211C52.7424 14.9665 53.0144 14.4865 53.3664 14.0811C53.7184 13.6651 54.145 13.3451 54.6464 13.1211C55.1477 12.8865 55.7077 12.7691 56.3264 12.7691C57.041 12.7691 57.649 12.9291 58.1504 13.2491C58.6624 13.5585 59.0517 14.0118 59.3184 14.6091C59.5957 15.2065 59.745 15.9318 59.7664 16.7851L59.0944 16.2891V10.1771H62.0064V21.8571H59.7024V18.2731H60.0224C60.001 19.0625 59.841 19.7505 59.5424 20.3371C59.2437 20.9131 58.8277 21.3611 58.2944 21.6811C57.7717 21.9905 57.1477 22.1451 56.4224 22.1451ZM57.2064 19.7451C57.5584 19.7451 57.8784 19.6651 58.1664 19.5051C58.465 19.3451 58.705 19.1105 58.8864 18.8011C59.0677 18.4918 59.1584 18.1185 59.1584 17.6811V17.1371C59.1584 16.7105 59.0624 16.3531 58.8704 16.0651C58.689 15.7771 58.449 15.5585 58.1504 15.4091C57.8624 15.2491 57.5477 15.1691 57.2064 15.1691C56.8224 15.1691 56.4757 15.2705 56.1664 15.4731C55.8677 15.6651 55.6277 15.9371 55.4464 16.2891C55.2757 16.6305 55.1904 17.0305 55.1904 17.4891C55.1904 17.9478 55.2757 18.3478 55.4464 18.6891C55.6277 19.0198 55.8677 19.2811 56.1664 19.4731C56.4757 19.6545 56.8224 19.7451 57.2064 19.7451ZM67.7505 22.1451C67.1318 22.1451 66.5665 22.0331 66.0545 21.8091C65.5532 21.5851 65.1158 21.2758 64.7425 20.8811C64.3798 20.4758 64.0972 20.0011 63.8945 19.4571C63.7025 18.9131 63.6065 18.3211 63.6065 17.6811V17.2971C63.6065 16.6571 63.6972 16.0651 63.8785 15.5211C64.0705 14.9665 64.3425 14.4865 64.6945 14.0811C65.0465 13.6651 65.4732 13.3451 65.9745 13.1211C66.4758 12.8865 67.0358 12.7691 67.6545 12.7691C68.3692 12.7691 68.9772 12.9291 69.4785 13.2491C69.9905 13.5585 70.3798 14.0118 70.6465 14.6091C70.9238 15.2065 71.0732 15.9318 71.0945 16.7851L70.4225 16.2891V10.1771H73.3345V21.8571H71.0305V18.2731H71.3505C71.3292 19.0625 71.1692 19.7505 70.8705 20.3371C70.5718 20.9131 70.1558 21.3611 69.6225 21.6811C69.0998 21.9905 68.4758 22.1451 67.7505 22.1451ZM68.5345 19.7451C68.8865 19.7451 69.2065 19.6651 69.4945 19.5051C69.7932 19.3451 70.0332 19.1105 70.2145 18.8011C70.3958 18.4918 70.4865 18.1185 70.4865 17.6811V17.1371C70.4865 16.7105 70.3905 16.3531 70.1985 16.0651C70.0172 15.7771 69.7772 15.5585 69.4785 15.4091C69.1905 15.2491 68.8758 15.1691 68.5345 15.1691C68.1505 15.1691 67.8038 15.2705 67.4945 15.4731C67.1958 15.6651 66.9558 15.9371 66.7745 16.2891C66.6038 16.6305 66.5185 17.0305 66.5185 17.4891C66.5185 17.9478 66.6038 18.3478 66.7745 18.6891C66.9558 19.0198 67.1958 19.2811 67.4945 19.4731C67.8038 19.6545 68.1505 19.7451 68.5345 19.7451ZM75.8626 21.8571V13.0251H78.7746V21.8571H75.8626ZM74.7426 15.1371V13.0251H78.7746V15.1371H74.7426ZM77.0626 12.3211C76.5293 12.3211 76.1346 12.1878 75.8786 11.9211C75.6333 11.6438 75.5106 11.2918 75.5106 10.8651C75.5106 10.4385 75.6333 10.0918 75.8786 9.82515C76.1346 9.54781 76.524 9.40915 77.0466 9.40915C77.58 9.40915 77.9693 9.54781 78.2146 9.82515C78.46 10.0918 78.5826 10.4385 78.5826 10.8651C78.5826 11.2918 78.46 11.6438 78.2146 11.9211C77.9693 12.1878 77.5853 12.3211 77.0626 12.3211ZM85.1234 21.9851C84.1634 21.9851 83.3954 21.8678 82.8194 21.6331C82.254 21.3985 81.8434 21.0091 81.5874 20.4651C81.3314 19.9211 81.2034 19.1851 81.2034 18.2571L81.2194 10.7211H83.9074L83.8914 18.3371C83.8914 18.7318 83.9927 19.0358 84.1954 19.2491C84.4087 19.4518 84.7127 19.5531 85.1074 19.5531H86.3234V21.9851H85.1234ZM79.9234 15.1371V13.0251H86.3234V15.1371H79.9234Z" fill="white"/>
<path d="M14 7.51451C14.6188 7.15725 15.3812 7.15725 16 7.51451L20.9084 10.3484C21.5272 10.7056 21.9084 11.3659 21.9084 12.0804V17.7481C21.9084 18.4627 21.5272 19.1229 20.9084 19.4802L16 22.314C15.3812 22.6713 14.6188 22.6713 14 22.314L9.09162 19.4802C8.47282 19.1229 8.09162 18.4627 8.09162 17.7481V12.0804C8.09162 11.3659 8.47282 10.7056 9.09162 10.3484L14 7.51451Z" fill="#FF4500"/>
</svg>
