<svg width="780" height="220" viewBox="0 0 780 220" fill="none" xmlns="http://www.w3.org/2000/svg">
<rect width="780.004" height="219.554" fill="#532546"/>
<path d="M221.811 151.777H193.334V67.7539H242.67C251.225 67.7539 257.807 69.6484 262.416 73.4375C267.025 77.2266 269.33 82.0508 269.33 87.9102C269.33 91.3867 268.471 94.4922 266.752 97.2266C265.072 99.9609 262.807 102.129 259.955 103.73C257.104 105.332 253.979 106.543 250.58 107.363C247.221 108.184 243.705 108.594 240.033 108.594V110.117C243.197 110.117 245.893 110.273 248.119 110.586C250.346 110.859 252.436 111.406 254.389 112.227C256.381 113.047 258.041 114.238 259.369 115.801C260.697 117.324 261.771 119.277 262.592 121.66C262.787 122.207 263.607 124.922 265.053 129.805C266.537 134.648 267.982 138.906 269.389 142.578C270.795 146.211 272.084 148.75 273.256 150.195V151.777H242.436C241.459 149.707 240.541 147.305 239.682 144.57C238.822 141.797 237.982 138.828 237.162 135.664C236.342 132.5 235.854 130.625 235.697 130.039C234.291 125.195 232.768 122.012 231.127 120.488C229.525 118.965 227.006 118.203 223.568 118.203H221.811V151.777ZM221.811 89.0234V103.203H231.361C234.721 103.203 237.318 102.676 239.154 101.621C241.029 100.527 241.967 98.6523 241.967 95.9961C241.967 93.3789 241.049 91.5625 239.213 90.5469C237.377 89.5312 234.76 89.0234 231.361 89.0234H221.811ZM307.826 153.242C301.811 153.242 296.244 152.285 291.127 150.371C286.01 148.418 281.713 145.762 278.236 142.402C274.799 139.043 272.104 135.059 270.15 130.449C268.197 125.84 267.221 120.918 267.221 115.684C267.221 110.566 268.119 105.723 269.916 101.152C271.713 96.582 274.213 92.6172 277.416 89.2578C280.619 85.8984 284.545 83.2422 289.193 81.2891C293.881 79.3359 298.959 78.3594 304.428 78.3594C309.037 78.3594 313.373 79.043 317.436 80.4102C321.537 81.7383 325.15 83.6523 328.275 86.1523C331.4 88.6523 333.861 91.8555 335.658 95.7617C337.494 99.668 338.412 104.023 338.412 108.828C338.412 111.445 338.1 114.473 337.475 117.91L293.061 115.918C293.49 119.863 295.287 122.793 298.451 124.707C301.654 126.582 305.658 127.52 310.463 127.52C319.213 127.52 326.889 125.156 333.49 120.43H335.072V146.973C332.064 148.809 328.178 150.312 323.412 151.484C318.646 152.656 313.451 153.242 307.826 153.242ZM293.998 109.414L314.271 108.359C313.686 106.562 312.553 105.156 310.873 104.141C309.232 103.086 307.221 102.559 304.838 102.559C302.494 102.559 300.346 103.145 298.393 104.316C296.439 105.449 294.975 107.148 293.998 109.414ZM368.822 153.242C362.924 153.242 357.768 151.543 353.354 148.145C348.979 144.746 345.697 140.254 343.51 134.668C341.322 129.082 340.229 122.832 340.229 115.918C340.229 109.004 341.322 102.734 343.51 97.1094C345.736 91.4844 349.037 86.9531 353.412 83.5156C357.826 80.0781 362.963 78.3594 368.822 78.3594C370.307 78.3594 371.713 78.4375 373.041 78.5938C374.369 78.75 375.854 79.082 377.494 79.5898C379.135 80.0586 380.639 80.7031 382.006 81.5234C383.373 82.3438 384.74 83.4766 386.107 84.9219C387.475 86.3672 388.646 88.0664 389.623 90.0195C390.639 91.9336 391.498 94.3359 392.201 97.2266C392.904 100.078 393.354 103.262 393.549 106.777H394.955L392.318 89.375V61.7773H419.447V151.777H391.264L393.783 127.051H392.846C392.182 131.035 391.225 134.57 389.975 137.656C388.764 140.703 387.396 143.203 385.873 145.156C384.35 147.07 382.611 148.652 380.658 149.902C378.744 151.152 376.83 152.012 374.916 152.48C373.002 152.988 370.971 153.242 368.822 153.242ZM380.951 127.285C385.326 127.285 388.881 126.367 391.615 124.531C394.35 122.656 395.717 119.941 395.717 116.387C395.717 112.754 394.35 110.02 391.615 108.184C388.881 106.348 385.326 105.43 380.951 105.43C376.576 105.43 373.041 106.348 370.346 108.184C367.65 110.02 366.303 112.754 366.303 116.387C366.303 119.941 367.65 122.656 370.346 124.531C373.08 126.367 376.615 127.285 380.951 127.285ZM451.674 153.242C445.775 153.242 440.619 151.543 436.205 148.145C431.83 144.746 428.549 140.254 426.361 134.668C424.174 129.082 423.08 122.832 423.08 115.918C423.08 109.004 424.174 102.734 426.361 97.1094C428.588 91.4844 431.889 86.9531 436.264 83.5156C440.678 80.0781 445.814 78.3594 451.674 78.3594C453.158 78.3594 454.564 78.4375 455.893 78.5938C457.221 78.75 458.705 79.082 460.346 79.5898C461.986 80.0586 463.49 80.7031 464.857 81.5234C466.225 82.3438 467.592 83.4766 468.959 84.9219C470.326 86.3672 471.498 88.0664 472.475 90.0195C473.49 91.9336 474.35 94.3359 475.053 97.2266C475.756 100.078 476.205 103.262 476.4 106.777H477.807L475.17 89.375V61.7773H502.299V151.777H474.115L476.635 127.051H475.697C475.033 131.035 474.076 134.57 472.826 137.656C471.615 140.703 470.248 143.203 468.725 145.156C467.201 147.07 465.463 148.652 463.51 149.902C461.596 151.152 459.682 152.012 457.768 152.48C455.854 152.988 453.822 153.242 451.674 153.242ZM463.803 127.285C468.178 127.285 471.732 126.367 474.467 124.531C477.201 122.656 478.568 119.941 478.568 116.387C478.568 112.754 477.201 110.02 474.467 108.184C471.732 106.348 468.178 105.43 463.803 105.43C459.428 105.43 455.893 106.348 453.197 108.184C450.502 110.02 449.154 112.754 449.154 116.387C449.154 119.941 450.502 122.656 453.197 124.531C455.932 126.367 459.467 127.285 463.803 127.285ZM521.459 89.7266C516.693 89.7266 512.826 88.3203 509.857 85.5078C506.928 82.6562 505.463 79.1797 505.463 75.0781C505.463 70.9766 506.947 67.5 509.916 64.6484C512.924 61.7578 516.771 60.3125 521.459 60.3125C526.107 60.3125 529.896 61.7578 532.826 64.6484C535.795 67.5 537.279 70.9766 537.279 75.0781C537.279 79.2188 535.814 82.6953 532.885 85.5078C529.994 88.3203 526.186 89.7266 521.459 89.7266ZM535.58 151.777H507.162V87.4414H508.1C511.42 90.6445 515.873 92.2461 521.459 92.2461C526.928 92.2461 531.322 90.6445 534.643 87.4414H535.58V151.777ZM588.197 147.207C583.822 151.23 577.982 153.242 570.678 153.242C563.373 153.242 557.689 151.016 553.627 146.562C549.564 142.07 547.533 136.133 547.533 128.75V96.6992H539.857V80.6445C544.896 80.6445 548.588 79.6875 550.932 77.7734C553.314 75.8203 554.506 72.4805 554.506 67.7539H575.834V79.7656H588.197V98.9844L575.834 97.0508V119.961C575.834 122.617 576.283 124.668 577.182 126.113C578.08 127.559 579.643 128.281 581.869 128.281C583.783 128.281 585.404 127.266 586.732 125.234H588.197V147.207Z" fill="white"/>
</svg>
