<svg width="268" height="60" viewBox="0 0 268 60" fill="none" xmlns="http://www.w3.org/2000/svg">
<rect width="268" height="60" fill="#FF3618"/>
<rect width="60" height="60" fill="#FF3F18"/>
<path d="M103.958 33.28C104.358 34.48 105.078 35.4667 106.118 36.24C107.158 37.0133 108.358 37.4 109.718 37.4H110.198V44.48H109.718C108.252 44.48 106.852 44.2533 105.518 43.8C104.185 43.3467 102.972 42.72 101.878 41.92C100.785 41.0933 99.8249 40.12 98.9983 39C98.1983 37.88 97.5849 36.6533 97.1583 35.32H92.5183V44H85.4383V21.08H80.8383V14H108.958V23.8C108.958 25.7733 108.505 27.5867 107.598 29.24C106.692 30.8933 105.478 32.24 103.958 33.28ZM92.5183 28.24H97.4383C98.0516 28.24 98.6249 28.12 99.1583 27.88C99.6916 27.64 100.158 27.32 100.558 26.92C100.958 26.52 101.278 26.0533 101.518 25.52C101.758 24.9867 101.878 24.4133 101.878 23.8V21.08H92.5183V28.24ZM112.635 14H139.675V21.08H124.395V26H136.635V32.36H124.395V36.92H139.675V44H112.635V36.92H117.315V21.08H112.635V14ZM142.87 14H172.27V33.4C172.27 34.8667 171.99 36.24 171.43 37.52C170.87 38.8 170.11 39.92 169.15 40.88C168.19 41.84 167.056 42.6 165.75 43.16C164.47 43.72 163.096 44 161.63 44H142.87V36.92H147.51V21.08H142.87V14ZM165.19 21.08H154.59V36.92H161.63C162.11 36.92 162.563 36.8267 162.99 36.64C163.443 36.4533 163.83 36.2 164.15 35.88C164.47 35.56 164.723 35.1867 164.91 34.76C165.096 34.3333 165.19 33.88 165.19 33.4V21.08ZM175.487 14H204.887V33.4C204.887 34.8667 204.607 36.24 204.047 37.52C203.487 38.8 202.727 39.92 201.767 40.88C200.807 41.84 199.673 42.6 198.367 43.16C197.087 43.72 195.713 44 194.247 44H175.487V36.92H180.127V21.08H175.487V14ZM197.807 21.08H187.207V36.92H194.247C194.727 36.92 195.18 36.8267 195.607 36.64C196.06 36.4533 196.447 36.2 196.767 35.88C197.087 35.56 197.34 35.1867 197.527 34.76C197.713 34.3333 197.807 33.88 197.807 33.4V21.08ZM207.323 14H221.843V21.08H218.123V36.92H221.843V44H207.323V36.92H211.043V21.08H207.323V14ZM223.846 14H249.166V21.08H240.046V44H232.966V21.08H223.846V14Z" fill="white"/>
<path fill-rule="evenodd" clip-rule="evenodd" d="M29.2313 21.9482C25.9144 22.2246 23.4267 22.7775 20.6627 24.1598C19.8334 24.4363 19.0042 24.9892 18.175 25.5421C17.8986 25.2657 17.3458 24.9892 16.793 24.7127C12.3704 22.7775 8.77715 28.3067 12.6469 31.6242C12.9233 31.9006 13.1997 31.9006 13.1997 32.1771C12.9233 34.9417 13.1997 36.324 14.3053 38.5356C17.0694 43.5119 23.7031 46 29.5077 46C34.2066 46 38.3527 44.6177 41.1168 42.406C42.4989 41.3002 43.8809 40.1944 44.7101 38.5356C45.5393 36.8769 45.8157 35.4946 45.8157 33.8359C45.8157 33.0065 45.8157 32.73 45.8157 32.1771C49.409 30.2419 48.3034 24.7127 44.4337 24.1598C42.4989 24.1598 41.6696 24.9892 40.8404 25.2657C40.564 25.2657 40.2876 24.9892 40.0112 24.7127C39.7348 24.7127 39.4584 24.4363 38.9056 24.1598C38.3527 23.8834 37.5235 23.6069 36.6943 23.3305C35.0359 22.7775 33.3774 22.5011 31.4426 22.2246C31.4426 21.9482 33.101 16.419 33.3774 16.1425L38.6291 17.2484C39.182 17.8013 39.182 19.7365 41.6696 20.013C44.9865 20.5659 46.645 15.5896 43.3281 14.2073C42.7753 13.9309 41.946 13.9309 41.1168 14.2073C40.0112 14.4838 40.0112 14.7603 39.4584 15.3132C38.6291 15.3132 34.483 14.4838 33.3774 14.2073C31.719 13.6544 31.719 14.4838 31.1661 16.419C30.8897 17.2484 29.5077 21.6717 29.2313 21.9482ZM23.7031 37.9827C23.1503 37.9827 22.5975 38.5356 23.1503 39.365C23.4267 39.6415 23.9796 40.1944 24.5324 40.4708C27.8493 42.1296 32.8246 41.8531 35.3123 39.9179C36.9707 38.8121 35.5887 37.4298 34.483 37.9827C32.2718 39.6415 29.5077 39.9179 27.02 39.365C25.0852 38.5356 24.5324 37.7063 23.7031 37.9827ZM34.7594 29.4125C33.3774 29.689 32.2718 31.0713 32.8246 32.4536C33.101 33.5594 34.2066 34.9417 35.8651 34.3888C36.9707 34.1123 38.0763 33.0065 37.7999 31.3477C37.5235 30.2419 36.4179 29.1361 34.7594 29.4125ZM23.4267 29.4125C22.0447 29.689 20.9391 30.7948 21.2155 32.4536C21.4919 33.5594 22.8739 34.6652 24.256 34.3888C25.3616 34.1123 26.7436 33.0065 26.1908 31.3477C26.1908 30.2419 24.8088 29.1361 23.4267 29.4125Z" fill="white"/>
</svg>
