<svg width="6000" height="952" viewBox="0 0 6000 952" fill="none" xmlns="http://www.w3.org/2000/svg">
<path d="M1033.66 616H938.74V335.922H1103.19C1131.71 335.922 1153.65 342.237 1169.01 354.867C1184.38 367.497 1192.06 383.578 1192.06 403.109C1192.06 414.698 1189.2 425.049 1183.47 434.164C1177.87 443.279 1170.32 450.505 1160.81 455.844C1151.31 461.182 1140.89 465.219 1129.56 467.953C1118.36 470.688 1106.64 472.055 1094.4 472.055V477.133C1104.95 477.133 1113.94 477.654 1121.36 478.695C1128.78 479.607 1135.75 481.43 1142.26 484.164C1148.9 486.898 1154.43 490.87 1158.86 496.078C1163.28 501.156 1166.87 507.667 1169.6 515.609C1170.25 517.432 1172.99 526.482 1177.8 542.758C1182.75 558.904 1187.57 573.096 1192.26 585.336C1196.94 597.445 1201.24 605.909 1205.15 610.727V616H1102.41C1099.16 609.099 1096.1 601.091 1093.23 591.977C1090.37 582.732 1087.57 572.836 1084.83 562.289C1082.1 551.742 1080.47 545.492 1079.95 543.539C1075.26 527.393 1070.19 516.781 1064.72 511.703C1059.38 506.625 1050.98 504.086 1039.52 504.086H1033.66V616ZM1033.66 406.82V454.086H1065.5C1076.7 454.086 1085.35 452.328 1091.47 448.812C1097.72 445.167 1100.85 438.917 1100.85 430.062C1100.85 421.339 1097.79 415.284 1091.67 411.898C1085.55 408.513 1076.83 406.82 1065.5 406.82H1033.66ZM1320.38 620.883C1300.33 620.883 1281.77 617.693 1264.72 611.312C1247.66 604.802 1233.34 595.948 1221.75 584.75C1210.29 573.552 1201.31 560.271 1194.79 544.906C1188.28 529.542 1185.03 513.135 1185.03 495.688C1185.03 478.63 1188.02 462.484 1194.01 447.25C1200 432.016 1208.34 418.799 1219.01 407.602C1229.69 396.404 1242.78 387.549 1258.27 381.039C1273.9 374.529 1290.82 371.273 1309.05 371.273C1324.42 371.273 1338.87 373.552 1352.41 378.109C1366.08 382.536 1378.13 388.917 1388.54 397.25C1398.96 405.583 1407.16 416.26 1413.15 429.281C1419.27 442.302 1422.33 456.82 1422.33 472.836C1422.33 481.56 1421.29 491.651 1419.21 503.109L1271.16 496.469C1272.59 509.62 1278.58 519.385 1289.13 525.766C1299.81 532.016 1313.15 535.141 1329.17 535.141C1358.34 535.141 1383.92 527.263 1405.93 511.508H1411.2V599.984C1401.18 606.104 1388.22 611.117 1372.33 615.023C1356.45 618.93 1339.13 620.883 1320.38 620.883ZM1274.29 474.789L1341.87 471.273C1339.91 465.284 1336.14 460.596 1330.54 457.211C1325.07 453.695 1318.36 451.938 1310.42 451.938C1302.61 451.938 1295.45 453.891 1288.94 457.797C1282.43 461.573 1277.54 467.237 1274.29 474.789ZM1524.87 675.961H1434.44V375.961H1528.39L1519.99 458.383H1523.31C1525.52 445.102 1528.65 433.383 1532.69 423.227C1536.85 412.94 1541.47 404.607 1546.55 398.227C1551.63 391.716 1557.36 386.443 1563.74 382.406C1570.12 378.24 1576.5 375.375 1582.88 373.812C1589.26 372.12 1596.03 371.273 1603.19 371.273C1622.85 371.273 1639.98 376.938 1654.56 388.266C1669.27 399.594 1680.28 414.568 1687.57 433.188C1694.86 451.807 1698.51 472.641 1698.51 495.688C1698.51 518.734 1694.79 539.633 1687.37 558.383C1680.08 577.133 1669.08 592.237 1654.37 603.695C1639.78 615.154 1622.72 620.883 1603.19 620.883C1597.2 620.883 1591.8 620.622 1586.98 620.102C1582.16 619.581 1576.96 618.474 1571.36 616.781C1565.76 615.219 1560.75 613.07 1556.32 610.336C1552.02 607.471 1547.72 603.63 1543.43 598.812C1539.13 593.995 1535.49 588.331 1532.49 581.82C1529.63 575.31 1527.09 567.367 1524.87 557.992C1522.79 548.487 1521.42 537.81 1520.77 525.961H1516.08L1524.87 583.969V675.961ZM1527.22 521.273C1536.33 527.393 1548.18 530.453 1562.76 530.453C1577.35 530.453 1589.13 527.393 1598.12 521.273C1607.1 515.154 1611.59 506.039 1611.59 493.93C1611.59 482.081 1607.03 473.096 1597.92 466.977C1588.94 460.727 1577.22 457.602 1562.76 457.602C1548.18 457.602 1536.33 460.727 1527.22 466.977C1518.1 473.096 1513.54 482.081 1513.54 493.93C1513.54 506.039 1518.1 515.154 1527.22 521.273ZM1839.72 620.883C1819.66 620.883 1801.24 617.628 1784.44 611.117C1767.65 604.607 1753.58 595.753 1742.26 584.555C1730.93 573.227 1722.14 560.01 1715.89 544.906C1709.64 529.802 1706.51 513.656 1706.51 496.469C1706.51 482.797 1708.47 469.711 1712.37 457.211C1716.41 444.581 1722.27 433.057 1729.95 422.641C1737.63 412.224 1746.81 403.174 1757.49 395.492C1768.17 387.81 1780.54 381.885 1794.6 377.719C1808.66 373.422 1823.7 371.273 1839.72 371.273C1859.38 371.273 1877.54 374.594 1894.21 381.234C1911.01 387.875 1925.07 396.859 1936.4 408.188C1947.72 419.385 1956.58 432.667 1962.96 448.031C1969.34 463.266 1972.53 479.411 1972.53 496.469C1972.53 513.656 1969.4 529.802 1963.15 544.906C1957.03 560.01 1948.38 573.227 1937.18 584.555C1925.98 595.753 1911.98 604.607 1895.19 611.117C1878.39 617.628 1859.9 620.883 1839.72 620.883ZM1804.56 523.617C1813.54 529.737 1825.26 532.797 1839.72 532.797C1854.17 532.797 1865.95 529.737 1875.07 523.617C1884.31 517.497 1888.94 508.448 1888.94 496.469C1888.94 484.49 1884.31 475.44 1875.07 469.32C1865.95 463.07 1854.17 459.945 1839.72 459.945C1825.52 459.945 1813.87 463.07 1804.76 469.32C1795.64 475.44 1791.08 484.49 1791.08 496.469C1791.08 508.448 1795.58 517.497 1804.56 523.617ZM2080.34 620.883C2044.01 620.883 2011.92 613.917 1984.05 599.984V503.109H1990.11C2015.5 528.5 2046.55 541.195 2083.27 541.195C2090.56 541.195 2096.29 540.414 2100.46 538.852C2104.76 537.289 2106.9 535.141 2106.9 532.406C2106.9 530.583 2105.08 529.086 2101.44 527.914C2097.79 526.612 2092.97 525.57 2086.98 524.789C2081.12 524.008 2074.42 522.901 2066.87 521.469C2059.31 519.906 2051.57 518.214 2043.62 516.391C2035.68 514.568 2027.93 511.768 2020.38 507.992C2012.83 504.216 2006.06 499.854 2000.07 494.906C1994.21 489.828 1989.46 483.253 1985.81 475.18C1982.16 467.107 1980.34 457.927 1980.34 447.641C1980.34 435.141 1983.27 423.943 1989.13 414.047C1995.12 404.021 2003.13 395.948 2013.15 389.828C2023.18 383.708 2034.44 379.086 2046.94 375.961C2059.57 372.836 2072.99 371.273 2087.18 371.273C2121.16 371.273 2153.19 379.281 2183.27 395.297V480.453H2178C2166.28 470.167 2151.83 461.964 2134.64 455.844C2117.45 449.594 2100.07 446.469 2082.49 446.469C2065.69 446.469 2057.29 449.659 2057.29 456.039C2057.29 458.513 2059.83 460.596 2064.91 462.289C2070.12 463.852 2076.83 465.219 2085.03 466.391C2093.23 467.562 2102.28 468.93 2112.18 470.492C2122.2 472.055 2132.16 474.464 2142.06 477.719C2152.09 480.974 2161.2 484.945 2169.4 489.633C2177.61 494.32 2184.25 500.896 2189.33 509.359C2194.53 517.693 2197.14 527.393 2197.14 538.461C2197.14 557.211 2192 572.901 2181.71 585.531C2171.42 598.031 2157.75 607.081 2140.69 612.68C2123.64 618.148 2103.52 620.883 2080.34 620.883ZM2256.71 409.164C2240.82 409.164 2227.93 404.477 2218.04 395.102C2208.27 385.596 2203.39 374.008 2203.39 360.336C2203.39 346.664 2208.34 335.076 2218.23 325.57C2228.26 315.935 2241.08 311.117 2256.71 311.117C2272.2 311.117 2284.83 315.935 2294.6 325.57C2304.5 335.076 2309.44 346.664 2309.44 360.336C2309.44 374.138 2304.56 385.727 2294.79 395.102C2285.16 404.477 2272.46 409.164 2256.71 409.164ZM2303.78 616H2209.05V401.547H2212.18C2223.25 412.224 2238.09 417.562 2256.71 417.562C2274.94 417.562 2289.59 412.224 2300.65 401.547H2303.78V616ZM2479.17 600.766C2464.59 614.177 2445.12 620.883 2420.77 620.883C2396.42 620.883 2377.48 613.461 2363.94 598.617C2350.39 583.643 2343.62 563.852 2343.62 539.242V432.406H2318.04V378.891C2334.83 378.891 2347.14 375.701 2354.95 369.32C2362.89 362.81 2366.87 351.677 2366.87 335.922H2437.96V375.961H2479.17V440.023L2437.96 433.578V509.945C2437.96 518.799 2439.46 525.635 2442.45 530.453C2445.45 535.271 2450.65 537.68 2458.08 537.68C2464.46 537.68 2469.86 534.294 2474.29 527.523H2479.17V600.766ZM2620.58 620.883C2600.52 620.883 2582.1 617.628 2565.3 611.117C2548.51 604.607 2534.44 595.753 2523.12 584.555C2511.79 573.227 2503 560.01 2496.75 544.906C2490.5 529.802 2487.37 513.656 2487.37 496.469C2487.37 482.797 2489.33 469.711 2493.23 457.211C2497.27 444.581 2503.13 433.057 2510.81 422.641C2518.49 412.224 2527.67 403.174 2538.35 395.492C2549.03 387.81 2561.4 381.885 2575.46 377.719C2589.52 373.422 2604.56 371.273 2620.58 371.273C2640.24 371.273 2658.4 374.594 2675.07 381.234C2691.87 387.875 2705.93 396.859 2717.26 408.188C2728.58 419.385 2737.44 432.667 2743.82 448.031C2750.2 463.266 2753.39 479.411 2753.39 496.469C2753.39 513.656 2750.26 529.802 2744.01 544.906C2737.89 560.01 2729.24 573.227 2718.04 584.555C2706.84 595.753 2692.84 604.607 2676.04 611.117C2659.25 617.628 2640.76 620.883 2620.58 620.883ZM2585.42 523.617C2594.4 529.737 2606.12 532.797 2620.58 532.797C2635.03 532.797 2646.81 529.737 2655.93 523.617C2665.17 517.497 2669.79 508.448 2669.79 496.469C2669.79 484.49 2665.17 475.44 2655.93 469.32C2646.81 463.07 2635.03 459.945 2620.58 459.945C2606.38 459.945 2594.73 463.07 2585.62 469.32C2576.5 475.44 2571.94 484.49 2571.94 496.469C2571.94 508.448 2576.44 517.497 2585.42 523.617ZM2858.86 616H2765.3V375.961H2860.03L2844.99 512.484H2848.9C2851.11 485.01 2854.5 462.094 2859.05 443.734C2863.61 425.375 2869.6 410.922 2877.02 400.375C2884.57 389.698 2893.04 382.211 2902.41 377.914C2911.92 373.487 2923.31 371.273 2936.59 371.273V480.453H2931.32C2924.29 473.422 2915.5 469.906 2904.95 469.906C2890.76 469.906 2879.5 476.221 2871.16 488.852C2862.96 501.482 2858.86 520.688 2858.86 546.469V616ZM2996.16 409.164C2980.28 409.164 2967.39 404.477 2957.49 395.102C2947.72 385.596 2942.84 374.008 2942.84 360.336C2942.84 346.664 2947.79 335.076 2957.69 325.57C2967.71 315.935 2980.54 311.117 2996.16 311.117C3011.66 311.117 3024.29 315.935 3034.05 325.57C3043.95 335.076 3048.9 346.664 3048.9 360.336C3048.9 374.138 3044.01 385.727 3034.25 395.102C3024.61 404.477 3011.92 409.164 2996.16 409.164ZM3043.23 616H2948.51V401.547H2951.63C2962.7 412.224 2977.54 417.562 2996.16 417.562C3014.39 417.562 3029.04 412.224 3040.11 401.547H3043.23V616ZM3190.69 620.883C3170.64 620.883 3152.09 617.693 3135.03 611.312C3117.97 604.802 3103.65 595.948 3092.06 584.75C3080.6 573.552 3071.62 560.271 3065.11 544.906C3058.6 529.542 3055.34 513.135 3055.34 495.688C3055.34 478.63 3058.34 462.484 3064.33 447.25C3070.32 432.016 3078.65 418.799 3089.33 407.602C3100 396.404 3113.09 387.549 3128.58 381.039C3144.21 374.529 3161.14 371.273 3179.37 371.273C3194.73 371.273 3209.18 373.552 3222.72 378.109C3236.4 382.536 3248.44 388.917 3258.86 397.25C3269.27 405.583 3277.48 416.26 3283.47 429.281C3289.59 442.302 3292.65 456.82 3292.65 472.836C3292.65 481.56 3291.6 491.651 3289.52 503.109L3141.47 496.469C3142.91 509.62 3148.9 519.385 3159.44 525.766C3170.12 532.016 3183.47 535.141 3199.48 535.141C3228.65 535.141 3254.24 527.263 3276.24 511.508H3281.51V599.984C3271.49 606.104 3258.53 611.117 3242.65 615.023C3226.76 618.93 3209.44 620.883 3190.69 620.883ZM3144.6 474.789L3212.18 471.273C3210.22 465.284 3206.45 460.596 3200.85 457.211C3195.38 453.695 3188.68 451.938 3180.73 451.938C3172.92 451.938 3165.76 453.891 3159.25 457.797C3152.74 461.573 3147.85 467.237 3144.6 474.789ZM3398.7 620.883C3362.37 620.883 3330.28 613.917 3302.41 599.984V503.109H3308.47C3333.86 528.5 3364.91 541.195 3401.63 541.195C3408.92 541.195 3414.65 540.414 3418.82 538.852C3423.12 537.289 3425.26 535.141 3425.26 532.406C3425.26 530.583 3423.44 529.086 3419.79 527.914C3416.15 526.612 3411.33 525.57 3405.34 524.789C3399.48 524.008 3392.78 522.901 3385.22 521.469C3377.67 519.906 3369.93 518.214 3361.98 516.391C3354.04 514.568 3346.29 511.768 3338.74 507.992C3331.19 504.216 3324.42 499.854 3318.43 494.906C3312.57 489.828 3307.82 483.253 3304.17 475.18C3300.52 467.107 3298.7 457.927 3298.7 447.641C3298.7 435.141 3301.63 423.943 3307.49 414.047C3313.48 404.021 3321.49 395.948 3331.51 389.828C3341.54 383.708 3352.8 379.086 3365.3 375.961C3377.93 372.836 3391.34 371.273 3405.54 371.273C3439.52 371.273 3471.55 379.281 3501.63 395.297V480.453H3496.36C3484.64 470.167 3470.19 461.964 3453 455.844C3435.81 449.594 3418.43 446.469 3400.85 446.469C3384.05 446.469 3375.65 449.659 3375.65 456.039C3375.65 458.513 3378.19 460.596 3383.27 462.289C3388.48 463.852 3395.19 465.219 3403.39 466.391C3411.59 467.562 3420.64 468.93 3430.54 470.492C3440.56 472.055 3450.52 474.464 3460.42 477.719C3470.45 480.974 3479.56 484.945 3487.76 489.633C3495.97 494.32 3502.61 500.896 3507.69 509.359C3512.89 517.693 3515.5 527.393 3515.5 538.461C3515.5 557.211 3510.35 572.901 3500.07 585.531C3489.78 598.031 3476.11 607.081 3459.05 612.68C3442 618.148 3421.88 620.883 3398.7 620.883Z" fill="#3E39A5"/>
<rect x="472.592" y="326" width="300" height="300" fill="#3E39A5"/>
<mask id="mask0_89_2" style="mask-type:alpha" maskUnits="userSpaceOnUse" x="512" y="366" width="221" height="220">
<rect x="512.592" y="366" width="220" height="220" fill="#D9D9D9"/>
</mask>
<g mask="url(#mask0_89_2)">
<path d="M576.758 512.666H595.092V402.666H576.758V512.666ZM567.592 567.666C559.953 567.666 553.46 564.993 548.113 559.645C542.765 554.298 540.092 547.805 540.092 540.166V411.833C540.092 404.194 542.765 397.701 548.113 392.354C553.46 387.007 559.953 384.333 567.592 384.333H668.425V531H567.592C564.995 531 562.817 531.878 561.061 533.635C559.304 535.392 558.425 537.569 558.425 540.166C558.425 542.764 559.304 544.941 561.061 546.698C562.817 548.455 564.995 549.333 567.592 549.333H686.758V402.666H705.092V567.666H567.592Z" fill="white"/>
</g>
</svg>
