<svg width="6000" height="952" viewBox="0 0 6000 952" fill="none" xmlns="http://www.w3.org/2000/svg">
<path d="M1030.97 616H930.967L998.154 335.922H1151.47L1218.66 616H1118.66L1111.83 583.188C1110.26 575.505 1110.26 568.474 1111.83 562.094H1037.8C1039.37 568.474 1039.37 575.505 1037.8 583.188L1030.97 616ZM1046.2 501.938V504.086H1103.43V501.938C1098.87 497.38 1093.92 483.122 1088.58 459.164C1085.33 443.409 1082.53 426.156 1080.19 407.406C1077.84 388.656 1076.67 375.766 1076.67 368.734H1072.96C1072.96 375.766 1071.79 388.656 1069.44 407.406C1067.1 426.156 1064.3 443.409 1061.04 459.164C1055.71 483.122 1050.76 497.38 1046.2 501.938ZM1397.18 620.883C1388.06 620.883 1379.6 619.451 1371.79 616.586C1363.97 613.852 1356.36 609.359 1348.94 603.109C1341.64 596.729 1335.2 587.68 1329.6 575.961C1324.13 564.112 1320.03 549.984 1317.29 533.578H1313.97L1322.37 616H1228.43V316H1318.86V407.992L1310.07 466H1314.76C1315.41 454.281 1316.9 443.669 1319.25 434.164C1321.59 424.529 1324.39 416.521 1327.65 410.141C1331.03 403.63 1335 397.966 1339.56 393.148C1344.12 388.331 1348.68 384.555 1353.23 381.82C1357.79 379.086 1362.8 376.938 1368.27 375.375C1373.74 373.682 1378.69 372.576 1383.12 372.055C1387.54 371.534 1392.23 371.273 1397.18 371.273C1416.71 371.273 1433.77 377.003 1448.35 388.461C1463.06 399.919 1474.07 415.023 1481.36 433.773C1488.78 452.523 1492.49 473.422 1492.49 496.469C1492.49 519.516 1488.84 540.349 1481.55 558.969C1474.26 577.589 1463.26 592.562 1448.54 603.891C1433.96 615.219 1416.84 620.883 1397.18 620.883ZM1356.75 534.359C1371.2 534.359 1382.92 531.299 1391.9 525.18C1401.02 518.93 1405.58 509.88 1405.58 498.031C1405.58 485.922 1401.08 476.807 1392.1 470.688C1383.12 464.568 1371.33 461.508 1356.75 461.508C1342.16 461.508 1330.32 464.568 1321.2 470.688C1312.09 476.807 1307.53 485.922 1307.53 498.031C1307.53 509.88 1312.09 518.93 1321.2 525.18C1330.32 531.299 1342.16 534.359 1356.75 534.359ZM1633.7 620.883C1613.65 620.883 1595.22 617.628 1578.43 611.117C1561.63 604.607 1547.57 595.753 1536.24 584.555C1524.91 573.227 1516.12 560.01 1509.87 544.906C1503.62 529.802 1500.5 513.656 1500.5 496.469C1500.5 482.797 1502.45 469.711 1506.36 457.211C1510.39 444.581 1516.25 433.057 1523.94 422.641C1531.62 412.224 1540.8 403.174 1551.47 395.492C1562.15 387.81 1574.52 381.885 1588.58 377.719C1602.65 373.422 1617.69 371.273 1633.7 371.273C1653.36 371.273 1671.53 374.594 1688.19 381.234C1704.99 387.875 1719.05 396.859 1730.38 408.188C1741.71 419.385 1750.56 432.667 1756.94 448.031C1763.32 463.266 1766.51 479.411 1766.51 496.469C1766.51 513.656 1763.39 529.802 1757.14 544.906C1751.02 560.01 1742.36 573.227 1731.16 584.555C1719.96 595.753 1705.97 604.607 1689.17 611.117C1672.37 617.628 1653.88 620.883 1633.7 620.883ZM1598.54 523.617C1607.53 529.737 1619.25 532.797 1633.7 532.797C1648.15 532.797 1659.94 529.737 1669.05 523.617C1678.3 517.497 1682.92 508.448 1682.92 496.469C1682.92 484.49 1678.3 475.44 1669.05 469.32C1659.94 463.07 1648.15 459.945 1633.7 459.945C1619.51 459.945 1607.85 463.07 1598.74 469.32C1589.63 475.44 1585.07 484.49 1585.07 496.469C1585.07 508.448 1589.56 517.497 1598.54 523.617ZM1852.45 620.883C1828.62 620.883 1810.33 612.354 1797.57 595.297C1784.81 578.24 1778.43 550.766 1778.43 512.875V375.961H1871.98V461.117C1871.98 467.497 1872.05 472.771 1872.18 476.938C1872.31 481.104 1872.63 485.857 1873.15 491.195C1873.81 496.404 1874.72 500.701 1875.89 504.086C1877.19 507.341 1878.82 510.531 1880.77 513.656C1882.85 516.651 1885.52 518.865 1888.78 520.297C1892.03 521.729 1895.81 522.445 1900.11 522.445C1903.75 522.445 1906.88 522.055 1909.48 521.273C1912.09 520.362 1914.82 518.344 1917.69 515.219C1920.68 511.964 1923.02 507.536 1924.72 501.938C1926.54 496.339 1928.04 488.526 1929.21 478.5C1930.51 468.344 1931.16 456.169 1931.16 441.977V375.961H2024.91V616H1929.99L1945.22 479.672H1941.12C1938.39 506.104 1934.87 528.044 1930.58 545.492C1926.41 562.94 1920.81 577.458 1913.78 589.047C1906.75 600.505 1898.28 608.708 1888.39 613.656C1878.62 618.474 1866.64 620.883 1852.45 620.883ZM2200.11 600.766C2185.52 614.177 2166.06 620.883 2141.71 620.883C2117.36 620.883 2098.41 613.461 2084.87 598.617C2071.33 583.643 2064.56 563.852 2064.56 539.242V432.406H2038.97V378.891C2055.77 378.891 2068.08 375.701 2075.89 369.32C2083.83 362.81 2087.8 351.677 2087.8 335.922H2158.9V375.961H2200.11V440.023L2158.9 433.578V509.945C2158.9 518.799 2160.39 525.635 2163.39 530.453C2166.38 535.271 2171.59 537.68 2179.01 537.68C2185.39 537.68 2190.8 534.294 2195.22 527.523H2200.11V600.766ZM2389.17 616H2298.35V335.922H2431.94L2448.35 417.953C2450.82 431.495 2452.06 449.008 2452.06 470.492H2455.19C2455.19 448.357 2456.36 430.844 2458.7 417.953L2475.11 335.922H2608.7V616H2518.08V537.68C2518.08 511.247 2519.57 484.229 2522.57 456.625C2525.69 428.891 2529.79 405.453 2534.87 386.312H2531.16L2477.65 616H2430.38L2376.08 386.312H2372.37C2377.45 405.453 2381.49 428.891 2384.48 456.625C2387.61 484.229 2389.17 511.247 2389.17 537.68V616ZM2758.12 620.883C2738.06 620.883 2719.51 617.693 2702.45 611.312C2685.39 604.802 2671.07 595.948 2659.48 584.75C2648.02 573.552 2639.04 560.271 2632.53 544.906C2626.02 529.542 2622.76 513.135 2622.76 495.688C2622.76 478.63 2625.76 462.484 2631.75 447.25C2637.74 432.016 2646.07 418.799 2656.75 407.602C2667.43 396.404 2680.51 387.549 2696.01 381.039C2711.63 374.529 2728.56 371.273 2746.79 371.273C2762.15 371.273 2776.6 373.552 2790.15 378.109C2803.82 382.536 2815.86 388.917 2826.28 397.25C2836.7 405.583 2844.9 416.26 2850.89 429.281C2857.01 442.302 2860.07 456.82 2860.07 472.836C2860.07 481.56 2859.03 491.651 2856.94 503.109L2708.9 496.469C2710.33 509.62 2716.32 519.385 2726.87 525.766C2737.54 532.016 2750.89 535.141 2766.9 535.141C2796.07 535.141 2821.66 527.263 2843.66 511.508H2848.94V599.984C2838.91 606.104 2825.95 611.117 2810.07 615.023C2794.18 618.93 2776.87 620.883 2758.12 620.883ZM2712.02 474.789L2779.6 471.273C2777.65 465.284 2773.87 460.596 2768.27 457.211C2762.8 453.695 2756.1 451.938 2748.15 451.938C2740.34 451.938 2733.18 453.891 2726.67 457.797C2720.16 461.573 2715.28 467.237 2712.02 474.789Z" fill="#492A8B"/>
<rect x="472.592" y="326" width="300" height="300" fill="#492A8B"/>
<mask id="mask0_81_244" style="mask-type:alpha" maskUnits="userSpaceOnUse" x="512" y="366" width="221" height="220">
<rect x="512.592" y="366" width="220" height="220" fill="#D9D9D9"/>
</mask>
<g mask="url(#mask0_81_244)">
<path d="M609.644 424.781C606.054 421.191 604.259 416.875 604.259 411.833C604.259 406.792 606.054 402.476 609.644 398.885C613.234 395.295 617.55 393.5 622.592 393.5C627.634 393.5 631.95 395.295 635.54 398.885C639.13 402.476 640.925 406.792 640.925 411.833C640.925 416.875 639.13 421.191 635.54 424.781C631.95 428.372 627.634 430.167 622.592 430.167C617.55 430.167 613.234 428.372 609.644 424.781ZM608.842 558.5V448.5H636.342V558.5H608.842Z" fill="white"/>
</g>
</svg>
