<svg width="4000" height="513" viewBox="0 0 4000 513" fill="none" xmlns="http://www.w3.org/2000/svg">
<rect width="4000" height="512.5" fill="#190626"/>
<path d="M592.398 229.057C592.398 233.257 594.498 236.557 598.698 238.957C603.098 241.357 609.898 243.957 619.098 246.757C630.098 250.357 639.098 253.857 646.098 257.257C653.298 260.657 659.498 265.957 664.698 273.157C670.098 280.357 672.798 289.757 672.798 301.357C672.798 338.557 648.598 357.157 600.198 357.157C592.198 357.157 582.398 356.457 570.798 355.057C559.398 353.657 548.998 351.857 539.598 349.657C539.998 345.457 540.798 339.357 541.998 331.357C543.398 323.157 544.698 317.057 545.898 313.057C552.898 314.057 563.398 315.257 577.398 316.657C591.598 318.057 602.298 318.757 609.498 318.757C613.698 318.757 616.198 318.457 616.998 317.857C618.198 317.057 619.098 315.757 619.698 313.957C620.498 311.957 620.898 310.257 620.898 308.857C620.898 304.857 618.998 301.857 615.198 299.857C611.398 297.657 604.898 295.057 595.698 292.057C584.698 288.657 575.598 285.157 568.398 281.557C561.198 277.957 554.898 272.357 549.498 264.757C544.098 257.157 541.398 247.157 541.398 234.757C541.398 225.957 543.398 217.357 547.398 208.957C551.398 200.357 555.498 194.557 559.698 191.557C562.898 189.357 569.498 187.257 579.498 185.257C589.498 183.257 598.898 182.257 607.698 182.257C630.098 182.257 648.398 184.357 662.598 188.557C662.398 192.557 661.698 198.057 660.498 205.057C659.498 212.057 658.398 218.457 657.198 224.257L650.298 223.957C624.298 222.157 607.698 221.257 600.498 221.257C597.498 221.257 595.798 221.357 595.398 221.557C594.598 221.957 593.898 222.857 593.298 224.257C592.698 225.657 592.398 227.257 592.398 229.057ZM761.492 357.757C737.492 357.757 719.492 352.157 707.492 340.957C695.692 329.557 689.792 311.657 689.792 287.257C689.792 273.857 690.992 262.157 693.392 252.157C695.992 241.957 699.092 234.857 702.692 230.857C707.292 225.657 715.692 221.357 727.892 217.957C740.292 214.557 751.892 212.857 762.692 212.857C788.492 212.857 806.892 218.357 817.892 229.357C828.892 240.357 834.392 257.957 834.392 282.157C834.392 308.157 828.492 327.257 816.692 339.457C804.892 351.657 786.492 357.757 761.492 357.757ZM762.392 322.657C770.192 322.657 775.292 319.957 777.692 314.557C780.092 308.957 781.292 299.157 781.292 285.157C781.292 275.357 780.792 267.857 779.792 262.657C778.792 257.257 776.892 253.357 774.092 250.957C771.492 248.357 767.392 247.057 761.792 247.057C753.792 247.057 749.192 247.757 747.992 249.157C746.392 250.557 745.092 254.957 744.092 262.357C743.092 269.757 742.592 277.457 742.592 285.457C742.592 299.057 743.892 308.657 746.492 314.257C749.292 319.857 754.592 322.657 762.392 322.657ZM946.674 212.857C962.274 212.857 974.274 217.557 982.674 226.957C991.274 236.357 995.574 252.957 995.574 276.757C995.574 294.157 993.774 309.057 990.174 321.457C986.774 333.657 982.874 341.457 978.474 344.857C973.274 349.057 965.574 352.157 955.374 354.157C945.174 356.157 933.574 357.157 920.574 357.157C910.574 357.157 899.374 356.357 886.974 354.757C874.574 353.357 863.474 351.057 853.674 347.857V173.857L905.574 171.757V199.957C905.574 201.557 905.474 205.257 905.274 211.057C905.274 216.857 905.074 221.757 904.674 225.757C904.274 229.557 903.674 232.457 902.874 234.457L904.674 236.557C909.274 229.557 915.074 223.857 922.074 219.457C929.074 215.057 937.274 212.857 946.674 212.857ZM938.274 321.157C939.474 319.157 940.474 314.457 941.274 307.057C942.274 299.657 942.774 292.557 942.774 285.757C942.774 277.757 942.374 271.457 941.574 266.857C940.974 262.257 939.274 258.657 936.474 256.057C933.874 253.257 929.774 251.857 924.174 251.857C919.174 251.857 912.774 252.557 904.974 253.957V321.757C912.374 322.957 920.074 323.557 928.074 323.557C933.874 323.557 937.274 322.757 938.274 321.157ZM1100.9 212.857C1103.5 212.857 1106.2 213.157 1109 213.757C1112 214.357 1114.2 215.057 1115.6 215.857C1115.6 220.257 1115.1 227.557 1114.1 237.757C1113.1 247.757 1112.2 254.857 1111.4 259.057C1109.4 258.857 1105.7 258.757 1100.3 258.757C1087.7 258.757 1076.5 259.457 1066.7 260.857V353.857H1015.4V215.857H1058.3L1064.3 238.057H1064.6C1070.4 230.457 1076.6 224.357 1083.2 219.757C1089.8 215.157 1095.7 212.857 1100.9 212.857ZM1212.77 317.857C1217.77 317.857 1227.07 317.357 1240.67 316.357C1242.47 316.357 1245.77 316.157 1250.57 315.757L1255.07 346.657C1239.67 353.857 1219.67 357.457 1195.07 357.457C1172.07 357.457 1154.37 351.657 1141.97 340.057C1129.77 328.457 1123.67 310.957 1123.67 287.557C1123.67 275.557 1125.17 263.957 1128.17 252.757C1131.37 241.557 1134.97 233.757 1138.97 229.357C1143.17 224.957 1150.97 221.157 1162.37 217.957C1173.77 214.757 1185.07 213.157 1196.27 213.157C1214.27 213.157 1227.77 216.357 1236.77 222.757C1245.77 229.157 1251.67 238.057 1254.47 249.457C1257.27 260.657 1258.67 275.757 1258.67 294.757C1245.07 295.557 1231.77 295.957 1218.77 295.957H1176.17C1176.17 302.357 1177.47 307.157 1180.07 310.357C1182.87 313.557 1186.77 315.657 1191.77 316.657C1196.77 317.457 1203.77 317.857 1212.77 317.857ZM1179.17 248.857C1177.97 249.457 1177.07 252.057 1176.47 256.657C1175.87 261.257 1175.47 266.457 1175.27 272.257H1190.87C1200.27 272.257 1207.07 272.157 1211.27 271.957C1211.27 262.357 1209.87 255.557 1207.07 251.557C1204.47 247.557 1199.87 245.557 1193.27 245.557C1187.87 245.557 1183.17 246.657 1179.17 248.857ZM1545.05 353.857H1494.65L1490.75 259.657C1490.15 241.057 1489.45 226.957 1488.65 217.357H1487.75C1485.35 224.957 1482.55 236.757 1479.35 252.757L1477.85 260.257L1457.15 353.857H1406.75L1389.35 269.557L1386.35 254.557C1382.15 235.957 1379.25 223.557 1377.65 217.357H1376.75C1375.95 227.357 1375.25 243.657 1374.65 266.257C1374.45 267.657 1374.35 269.857 1374.35 272.857L1371.65 353.857H1320.95L1328.15 182.857H1413.95L1428.65 256.657L1432.25 276.457C1433.85 270.257 1435.35 263.357 1436.75 255.757L1450.55 182.857H1538.15L1545.05 353.857ZM1595.52 198.757C1588.72 198.757 1582.82 196.457 1577.82 191.857C1573.02 187.257 1570.62 181.757 1570.62 175.357C1570.62 168.957 1573.02 163.457 1577.82 158.857C1582.82 154.257 1588.72 151.957 1595.52 151.957C1602.32 151.957 1608.12 154.257 1612.92 158.857C1617.72 163.457 1620.12 168.957 1620.12 175.357C1620.12 181.757 1617.72 187.257 1612.92 191.857C1608.12 196.457 1602.32 198.757 1595.52 198.757ZM1569.72 215.857H1621.02V353.857H1569.72V215.857ZM1862.15 225.457C1865.35 230.257 1866.95 248.857 1866.95 281.257V353.857H1815.65V286.357V270.157C1815.65 262.757 1814.95 258.357 1813.55 256.957C1811.95 255.357 1808.55 254.557 1803.35 254.557L1799.75 254.857C1793.55 255.257 1787.65 256.657 1782.05 259.057C1782.25 263.257 1782.35 270.657 1782.35 281.257V353.857H1731.05V286.357V268.357C1731.05 262.157 1730.35 258.357 1728.95 256.957C1727.35 255.357 1723.95 254.557 1718.75 254.557L1715.15 254.857C1709.55 255.057 1703.75 256.357 1697.75 258.757V353.857H1646.45V215.857H1688.15L1693.55 238.357C1700.15 229.557 1707.75 223.157 1716.35 219.157C1724.95 214.957 1733.65 212.857 1742.45 212.857C1749.85 212.857 1756.85 213.957 1763.45 216.157C1770.25 218.357 1774.95 221.457 1777.55 225.457C1778.75 227.257 1779.75 230.557 1780.55 235.357C1786.95 227.557 1794.25 221.857 1802.45 218.257C1810.65 214.657 1818.85 212.857 1827.05 212.857C1834.45 212.857 1841.45 213.957 1848.05 216.157C1854.85 218.357 1859.55 221.457 1862.15 225.457Z" fill="#4D2FB2"/>
<mask id="mask0_53_182" style="mask-type:alpha" maskUnits="userSpaceOnUse" x="91" y="112" width="301" height="301">
<rect x="91.7579" y="112.643" width="300" height="300" fill="#D9D9D9"/>
</mask>
<g mask="url(#mask0_53_182)">
<path d="M193.164 286.237C190.143 283.216 188.633 279.518 188.633 275.143C188.633 270.768 190.143 267.07 193.164 264.049C196.185 261.028 199.883 259.518 204.258 259.518C208.633 259.518 212.331 261.028 215.352 264.049C218.373 267.07 219.883 270.768 219.883 275.143C219.883 279.518 218.373 283.216 215.352 286.237C212.331 289.257 208.633 290.768 204.258 290.768C199.883 290.768 196.185 289.257 193.164 286.237ZM268.164 286.237C265.143 283.216 263.633 279.518 263.633 275.143C263.633 270.768 265.143 267.07 268.164 264.049C271.185 261.028 274.883 259.518 279.258 259.518C283.633 259.518 287.331 261.028 290.352 264.049C293.373 267.07 294.883 270.768 294.883 275.143C294.883 279.518 293.373 283.216 290.352 286.237C287.331 289.257 283.633 290.768 279.258 290.768C274.883 290.768 271.185 289.257 268.164 286.237ZM241.758 362.643C269.675 362.643 293.32 352.955 312.695 333.58C332.07 314.205 341.758 290.559 341.758 262.643C341.758 257.643 341.445 252.799 340.82 248.112C340.195 243.424 339.05 238.893 337.383 234.518C333.008 235.559 328.633 236.341 324.258 236.862C319.883 237.382 315.3 237.643 310.508 237.643C291.55 237.643 273.633 233.58 256.758 225.455C239.883 217.33 225.508 205.976 213.633 191.393C206.966 207.643 197.435 221.757 185.039 233.737C172.643 245.716 158.216 254.726 141.758 260.768V262.643C141.758 290.559 151.445 314.205 170.82 333.58C190.195 352.955 213.841 362.643 241.758 362.643ZM241.758 387.643C224.466 387.643 208.216 384.362 193.008 377.799C177.8 371.237 164.57 362.33 153.32 351.08C142.07 339.83 133.164 326.601 126.602 311.393C120.039 296.184 116.758 279.934 116.758 262.643C116.758 245.351 120.039 229.101 126.602 213.893C133.164 198.684 142.07 185.455 153.32 174.205C164.57 162.955 177.8 154.049 193.008 147.487C208.216 140.924 224.466 137.643 241.758 137.643C259.05 137.643 275.3 140.924 290.508 147.487C305.716 154.049 318.945 162.955 330.195 174.205C341.445 185.455 350.352 198.684 356.914 213.893C363.477 229.101 366.758 245.351 366.758 262.643C366.758 279.934 363.477 296.184 356.914 311.393C350.352 326.601 341.445 339.83 330.195 351.08C318.945 362.33 305.716 371.237 290.508 377.799C275.3 384.362 259.05 387.643 241.758 387.643Z" fill="#4D2FB2"/>
</g>
</svg>
