<svg width="612" height="114" viewBox="0 0 612 114" fill="none" xmlns="http://www.w3.org/2000/svg">
<rect width="612" height="114" fill="#0007A4"/>
<path d="M28 33.3125C28 31.3333 28.4896 29.5312 29.4688 27.9062C30.4688 26.2812 31.8021 24.9896 33.4688 24.0312C35.1562 23.0521 37.0104 22.5625 39.0312 22.5625H62.0312V29.125H39.0312C37.8229 29.125 36.7812 29.5521 35.9062 30.4062C35.0312 31.2604 34.5938 32.2917 34.5938 33.5V36.5625C34.5938 37.6667 35.0312 38.6146 35.9062 39.4062C36.7812 40.1979 37.8229 40.5938 39.0312 40.5938H53.1875C55.2292 40.5938 57.0833 41.0833 58.75 42.0625C60.4167 43.0208 61.7396 44.3229 62.7188 45.9688C63.7188 47.5938 64.2188 49.3958 64.2188 51.375V56.2188C64.2188 58.1979 63.7188 60.0104 62.7188 61.6562C61.7396 63.2812 60.4167 64.5833 58.75 65.5625C57.0833 66.5208 55.2292 67 53.1875 67H28.0312V60.4062H53.1875C54.4167 60.4062 55.4583 60 56.3125 59.1875C57.1875 58.3542 57.625 57.3542 57.625 56.1875V51.4062C57.625 50.2396 57.1875 49.2396 56.3125 48.4062C55.4583 47.5729 54.4167 47.1562 53.1875 47.1562H39.0312C37.0104 47.1562 35.1562 46.6875 33.4688 45.75C31.8021 44.7917 30.4688 43.5104 29.4688 41.9062C28.4896 40.3021 28 38.5312 28 36.5938V33.3125ZM71.4375 46.3125C71.4375 44.1667 71.9583 42.2083 73 40.4375C74.0625 38.6667 75.4792 37.2604 77.25 36.2188C79.0208 35.1562 80.9792 34.625 83.125 34.625H90.1875C92.3333 34.625 94.2917 35.1562 96.0625 36.2188C97.8333 37.2604 99.2396 38.6667 100.281 40.4375C101.344 42.2083 101.875 44.1667 101.875 46.3125V55.3125C101.875 57.4583 101.344 59.4167 100.281 61.1875C99.2396 62.9583 97.8333 64.375 96.0625 65.4375C94.2917 66.4792 92.3333 67 90.1875 67H83.125C80.9792 67 79.0208 66.4792 77.25 65.4375C75.4792 64.375 74.0625 62.9583 73 61.1875C71.9583 59.4167 71.4375 57.4583 71.4375 55.3125V46.3125ZM78.0312 55.25C78.0312 56.6667 78.5312 57.8854 79.5312 58.9062C80.5312 59.9062 81.7292 60.4062 83.125 60.4062H90.1875C91.6042 60.4062 92.8021 59.9062 93.7812 58.9062C94.7812 57.8854 95.2812 56.6667 95.2812 55.25V46.375C95.2812 44.9583 94.7812 43.75 93.7812 42.75C92.8021 41.7292 91.6042 41.2188 90.1875 41.2188H83.125C81.7292 41.2188 80.5312 41.7292 79.5312 42.75C78.5312 43.75 78.0312 44.9583 78.0312 46.375V55.25ZM108.75 22.5625H115.344V60.4062H126.812C128.229 60.4062 129.427 59.9062 130.406 58.9062C131.406 57.9062 131.906 56.7083 131.906 55.3125V46.375C131.906 44.9583 131.406 43.75 130.406 42.75C129.427 41.7292 128.229 41.2188 126.812 41.2188H119.094V34.625H126.812C128.958 34.625 130.917 35.1562 132.688 36.2188C134.458 37.2604 135.865 38.6667 136.906 40.4375C137.969 42.2083 138.5 44.1667 138.5 46.3125V55.375C138.5 57.5 137.969 59.4479 136.906 61.2188C135.865 62.9688 134.458 64.375 132.688 65.4375C130.917 66.4792 128.958 67 126.812 67H115.344C113.531 67 111.979 66.3542 110.688 65.0625C109.396 63.7708 108.75 62.2188 108.75 60.4062V22.5625ZM146 43.6875C146 42.0208 146.417 40.5 147.25 39.125C148.104 37.75 149.229 36.6562 150.625 35.8438C152.042 35.0312 153.604 34.625 155.312 34.625H162.531V41.1875H155.312C154.562 41.1875 153.917 41.4479 153.375 41.9688C152.854 42.4688 152.594 43.0833 152.594 43.8125V67H146V43.6875ZM168.5 41.3125C168.5 39.4583 169.177 37.8854 170.531 36.5938C171.885 35.2812 173.51 34.625 175.406 34.625H188.906C190.635 34.625 192.198 35.0521 193.594 35.9062C195.01 36.7396 196.135 37.875 196.969 39.3125C197.823 40.7292 198.25 42.3021 198.25 44.0312V44.9375C198.25 46.6458 197.823 48.2083 196.969 49.625C196.135 51.0208 195.01 52.1458 193.594 53C192.198 53.8333 190.635 54.25 188.906 54.25H178.844V47.6875H188.969C189.719 47.6875 190.354 47.4167 190.875 46.875C191.417 46.3333 191.688 45.6771 191.688 44.9062V44.0312C191.688 43.2396 191.417 42.5729 190.875 42.0312C190.354 41.4896 189.719 41.2188 188.969 41.2188H175.094V57.8438C175.094 58.5521 175.333 59.1562 175.812 59.6562C176.292 60.1562 176.875 60.4062 177.562 60.4062H195.969V67H177.562C175.896 67 174.375 66.5938 173 65.7812C171.625 64.9479 170.531 63.8438 169.719 62.4688C168.906 61.0729 168.5 59.5417 168.5 57.875V41.3125ZM224.812 22.5625H230.844L245.188 40.0938L259.531 22.5625H265.562V67H258.969V33.7812L247.938 47.1562H242.469L231.406 33.7812V67H224.812V22.5625ZM272.938 25.8125C272.938 24.6875 273.333 23.7292 274.125 22.9375C274.917 22.1458 275.875 21.75 277 21.75C278.125 21.75 279.083 22.1458 279.875 22.9375C280.667 23.7292 281.062 24.6875 281.062 25.8125C281.062 26.9375 280.667 27.8958 279.875 28.6875C279.083 29.4792 278.125 29.875 277 29.875C275.875 29.875 274.917 29.4792 274.125 28.6875C273.333 27.8958 272.938 26.9375 272.938 25.8125ZM273.688 34.625H280.312V67H273.688V34.625ZM287.812 41.2188C287.812 39.4062 288.458 37.8542 289.75 36.5625C291.042 35.2708 292.604 34.625 294.438 34.625H304.312C306.979 34.625 309.167 35.4583 310.875 37.125C312.542 35.4583 314.729 34.625 317.438 34.625H322.312C324.458 34.625 326.417 35.1562 328.188 36.2188C329.958 37.2604 331.365 38.6667 332.406 40.4375C333.469 42.1875 334 44.1354 334 46.2812V67H327.438V46.375C327.438 44.9375 326.938 43.7188 325.938 42.7188C324.938 41.6979 323.729 41.1875 322.312 41.1875H317.438C316.521 41.1875 315.74 41.4792 315.094 42.0625C314.448 42.625 314.125 43.3125 314.125 44.125V67H307.531V44.125C307.531 43.3125 307.219 42.625 306.594 42.0625C305.969 41.4792 305.208 41.1875 304.312 41.1875H294.406V67H287.812V41.2188Z" fill="white"/>
<path d="M39.3125 100L37.4766 93.9258H29.0391L27.2422 100H23.0039L30.9531 74.5117H35.6016L43.5508 100H39.3125ZM30.1133 90.3516H36.4023L33.2773 79.8438L30.1133 90.3516ZM46.9492 74.5117H50.9922V83.4375C51.7604 82.7474 52.5352 82.2331 53.3164 81.8945C54.1107 81.543 55.0156 81.3672 56.0312 81.3672C57.2031 81.3672 58.2904 81.6081 59.293 82.0898C60.2956 82.5586 61.1549 83.2161 61.8711 84.0625C62.5872 84.8958 63.1536 85.9049 63.5703 87.0898C63.987 88.2617 64.1953 89.5378 64.1953 90.918C64.1953 92.3112 63.987 93.5938 63.5703 94.7656C63.1536 95.9375 62.5872 96.9466 61.8711 97.793C61.1549 98.6263 60.2956 99.2773 59.293 99.7461C58.2904 100.215 57.2031 100.449 56.0312 100.449C55.0156 100.449 54.1107 100.267 53.3164 99.9023C52.5352 99.5378 51.7604 99.0104 50.9922 98.3203V100H46.9492V74.5117ZM50.9922 95.1562C51.474 95.6901 52.0859 96.1003 52.8281 96.3867C53.5833 96.6602 54.306 96.7969 54.9961 96.7969C56.5195 96.7969 57.7565 96.2565 58.707 95.1758C59.6706 94.0951 60.1523 92.6758 60.1523 90.918C60.1523 89.1602 59.6706 87.7344 58.707 86.6406C57.7565 85.5469 56.5195 85 54.9961 85C54.306 85 53.5833 85.1432 52.8281 85.4297C52.0859 85.7031 51.474 86.1068 50.9922 86.6406V95.1562ZM86.5 90.918C86.5 92.3372 86.2721 93.6263 85.8164 94.7852C85.3737 95.944 84.7292 96.9466 83.8828 97.793C83.0495 98.6263 82.0469 99.2773 80.875 99.7461C79.7031 100.215 78.3945 100.449 76.9492 100.449C75.5299 100.449 74.2344 100.215 73.0625 99.7461C71.8906 99.2773 70.8815 98.6263 70.0352 97.793C69.2018 96.9466 68.5573 95.944 68.1016 94.7852C67.6589 93.6263 67.4375 92.3372 67.4375 90.918C67.4375 89.5378 67.6589 88.2617 68.1016 87.0898C68.5573 85.9049 69.2018 84.8893 70.0352 84.043C70.8815 83.1836 71.8906 82.526 73.0625 82.0703C74.2344 81.6016 75.5299 81.3672 76.9492 81.3672C78.3945 81.3672 79.7031 81.6016 80.875 82.0703C82.0469 82.526 83.0495 83.1836 83.8828 84.043C84.7292 84.8893 85.3737 85.9049 85.8164 87.0898C86.2721 88.2617 86.5 89.5378 86.5 90.918ZM82.4766 90.918C82.4766 90.0977 82.3464 89.3229 82.0859 88.5938C81.8385 87.8516 81.474 87.2201 80.9922 86.6992C80.5104 86.1784 79.9245 85.7682 79.2344 85.4688C78.5573 85.1562 77.7956 85 76.9492 85C76.0898 85 75.3216 85.1562 74.6445 85.4688C73.9674 85.7682 73.3945 86.1784 72.9258 86.6992C72.457 87.2201 72.0924 87.8516 71.832 88.5938C71.5846 89.3229 71.4609 90.0977 71.4609 90.918C71.4609 91.7773 71.5846 92.5586 71.832 93.2617C72.0924 93.9648 72.457 94.5833 72.9258 95.1172C73.3945 95.651 73.9674 96.0677 74.6445 96.3672C75.3216 96.6536 76.0898 96.7969 76.9492 96.7969C77.7956 96.7969 78.5573 96.6536 79.2344 96.3672C79.9245 96.0677 80.5104 95.651 80.9922 95.1172C81.474 94.5833 81.8385 93.9648 82.0859 93.2617C82.3464 92.5586 82.4766 91.7773 82.4766 90.918ZM90.6211 81.7969H94.6641V93.0469C94.6641 94.4531 94.931 95.4297 95.4648 95.9766C95.9987 96.5234 96.7734 96.7969 97.7891 96.7969C99.2734 96.7969 100.491 96.1914 101.441 94.9805C102.392 93.7695 102.867 92.0964 102.867 89.9609V81.7969H106.91V100H102.867V95.4492C102.464 97.0117 101.715 98.2357 100.621 99.1211C99.5273 100.007 98.1797 100.449 96.5781 100.449C94.7161 100.449 93.2578 99.8438 92.2031 98.6328C91.1484 97.4089 90.6211 95.5469 90.6211 93.0469V81.7969ZM129.898 94.1992C129.69 96.1133 128.935 97.6367 127.633 98.7695C126.344 99.8893 124.729 100.449 122.789 100.449C121.721 100.449 120.745 100.273 119.859 99.9219C118.974 99.5703 118.219 99.082 117.594 98.457C116.969 97.832 116.48 97.0833 116.129 96.2109C115.79 95.3255 115.621 94.362 115.621 93.3203V85.4492H111.5V81.7969H115.621V74.5117H119.664V81.7969H127.301V85.4492H119.664V93.3203C119.664 94.4922 119.951 95.3646 120.523 95.9375C121.096 96.5104 121.852 96.7969 122.789 96.7969C123.935 96.7969 124.788 96.4648 125.348 95.8008C125.908 95.1367 126.24 94.3359 126.344 93.3984L129.898 94.1992ZM172.418 100H168.375V82.7539L165.816 91.9141H162.691L160.172 82.7539V100H156.129V74.5117H160.934L164.254 86.0352L167.574 74.5117H172.418V100ZM180.719 92.4414C180.914 93.6914 181.507 94.7331 182.496 95.5664C183.499 96.3867 184.84 96.7969 186.52 96.7969C187.835 96.7969 188.974 96.5951 189.938 96.1914C190.914 95.7747 191.754 95.2279 192.457 94.5508L194.527 97.4023C193.355 98.5742 192.112 99.375 190.797 99.8047C189.495 100.234 188.069 100.449 186.52 100.449C185.113 100.449 183.805 100.215 182.594 99.7461C181.383 99.2773 180.335 98.6263 179.449 97.793C178.564 96.9466 177.867 95.944 177.359 94.7852C176.865 93.6263 176.617 92.3372 176.617 90.918C176.617 89.5378 176.845 88.2682 177.301 87.1094C177.77 85.9375 178.421 84.9284 179.254 84.082C180.1 83.2227 181.109 82.5586 182.281 82.0898C183.453 81.6081 184.749 81.3672 186.168 81.3672C187.639 81.3672 188.974 81.6211 190.172 82.1289C191.37 82.6237 192.392 83.3464 193.238 84.2969C194.098 85.2474 194.768 86.4128 195.25 87.793C195.732 89.1602 195.973 90.7096 195.973 92.4414H180.719ZM191.402 88.8867C191.194 87.7148 190.589 86.7773 189.586 86.0742C188.583 85.3581 187.444 85 186.168 85C184.892 85 183.746 85.3581 182.73 86.0742C181.715 86.7773 181.103 87.7148 180.895 88.8867H191.402Z" fill="#1E1E1E"/>
</svg>
