<svg width="4000" height="651" viewBox="0 0 4000 651" fill="none" xmlns="http://www.w3.org/2000/svg">
<rect width="4000" height="651" fill="#2C2C2C" fill-opacity="0.1"/>
<rect x="124.073" y="176.5" width="260" height="260" rx="130" fill="#4D2FB2"/>
<mask id="mask0_59_308" style="mask-type:alpha" maskUnits="userSpaceOnUse" x="164" y="216" width="181" height="181">
<rect x="164.073" y="216.5" width="180" height="180" rx="5" fill="#D9D9D9"/>
</mask>
<g mask="url(#mask0_59_308)">
<path d="M285.76 303.406C293.64 301.929 300.718 300.115 306.994 297.964C310.39 296.8 314.073 299.243 314.073 302.833V367.017C314.073 368.985 312.924 370.781 311.1 371.519C304.2 374.313 296.066 376.609 286.698 378.406C275.948 380.469 265.073 381.5 254.073 381.5C243.073 381.5 232.198 380.469 221.448 378.406C212.08 376.609 203.946 374.313 197.046 371.519C195.222 370.781 194.073 368.985 194.073 367.017V302.833C194.073 299.243 197.755 296.8 201.151 297.964C207.427 300.115 214.505 301.929 222.385 303.406C233.385 305.469 243.948 306.5 254.073 306.5C264.198 306.5 274.76 305.469 285.76 303.406ZM275.26 240.313C281.135 246.188 284.073 253.25 284.073 261.5C284.073 269.75 281.135 276.813 275.26 282.688C269.385 288.563 262.323 291.5 254.073 291.5C245.823 291.5 238.76 288.563 232.885 282.688C227.01 276.813 224.073 269.75 224.073 261.5C224.073 253.25 227.01 246.188 232.885 240.313C238.76 234.438 245.823 231.5 254.073 231.5C262.323 231.5 269.385 234.438 275.26 240.313Z" fill="white"/>
</g>
<mask id="path-4-outside-1_59_308" maskUnits="userSpaceOnUse" x="436.563" y="194.5" width="1095" height="198" fill="black">
<rect fill="white" x="436.563" y="194.5" width="1095" height="198"/>
<path d="M494.923 272.66C494.923 276.02 496.603 278.66 499.963 280.58C503.483 282.5 508.923 284.58 516.283 286.82C525.083 289.7 532.283 292.5 537.883 295.22C543.643 297.94 548.603 302.18 552.763 307.94C557.083 313.7 559.243 321.22 559.243 330.5C559.243 360.26 539.883 375.14 501.163 375.14C494.763 375.14 486.923 374.58 477.643 373.46C468.523 372.34 460.203 370.9 452.683 369.14C453.003 365.78 453.643 360.9 454.603 354.5C455.723 347.94 456.763 343.06 457.723 339.86C463.323 340.66 471.723 341.62 482.923 342.74C494.283 343.86 502.843 344.42 508.603 344.42C511.963 344.42 513.963 344.18 514.603 343.7C515.563 343.06 516.283 342.02 516.763 340.58C517.403 338.98 517.723 337.62 517.723 336.5C517.723 333.3 516.203 330.9 513.163 329.3C510.123 327.54 504.923 325.46 497.563 323.06C488.763 320.34 481.483 317.54 475.723 314.66C469.963 311.78 464.923 307.3 460.603 301.22C456.283 295.14 454.123 287.14 454.123 277.22C454.123 270.18 455.723 263.3 458.923 256.58C462.123 249.7 465.403 245.06 468.763 242.66C471.323 240.9 476.603 239.22 484.603 237.62C492.603 236.02 500.123 235.22 507.163 235.22C525.083 235.22 539.723 236.9 551.083 240.26C550.923 243.46 550.363 247.86 549.403 253.46C548.603 259.06 547.723 264.18 546.763 268.82L541.243 268.58C520.443 267.14 507.163 266.42 501.403 266.42C499.003 266.42 497.643 266.5 497.323 266.66C496.683 266.98 496.123 267.7 495.643 268.82C495.163 269.94 494.923 271.22 494.923 272.66ZM630.198 375.62C610.998 375.62 596.598 371.14 586.998 362.18C577.558 353.06 572.838 338.74 572.838 319.22C572.838 308.5 573.798 299.14 575.718 291.14C577.798 282.98 580.278 277.3 583.158 274.1C586.838 269.94 593.558 266.5 603.318 263.78C613.238 261.06 622.518 259.7 631.158 259.7C651.798 259.7 666.518 264.1 675.318 272.9C684.118 281.7 688.518 295.78 688.518 315.14C688.518 335.94 683.798 351.22 674.358 360.98C664.918 370.74 650.198 375.62 630.198 375.62ZM630.918 347.54C637.158 347.54 641.238 345.38 643.158 341.06C645.078 336.58 646.038 328.74 646.038 317.54C646.038 309.7 645.638 303.7 644.838 299.54C644.038 295.22 642.518 292.1 640.278 290.18C638.198 288.1 634.918 287.06 630.438 287.06C624.038 287.06 620.358 287.62 619.398 288.74C618.118 289.86 617.078 293.38 616.278 299.3C615.478 305.22 615.078 311.38 615.078 317.78C615.078 328.66 616.118 336.34 618.198 340.82C620.438 345.3 624.678 347.54 630.918 347.54ZM778.344 259.7C790.824 259.7 800.424 263.46 807.144 270.98C814.024 278.5 817.464 291.78 817.464 310.82C817.464 324.74 816.024 336.66 813.144 346.58C810.424 356.34 807.304 362.58 803.784 365.3C799.624 368.66 793.464 371.14 785.304 372.74C777.144 374.34 767.864 375.14 757.464 375.14C749.464 375.14 740.504 374.5 730.584 373.22C720.664 372.1 711.784 370.26 703.944 367.7V228.5L745.464 226.82V249.38C745.464 250.66 745.384 253.62 745.224 258.26C745.224 262.9 745.064 266.82 744.744 270.02C744.424 273.06 743.944 275.38 743.304 276.98L744.744 278.66C748.424 273.06 753.064 268.5 758.664 264.98C764.264 261.46 770.824 259.7 778.344 259.7ZM771.624 346.34C772.584 344.74 773.384 340.98 774.024 335.06C774.824 329.14 775.224 323.46 775.224 318.02C775.224 311.62 774.904 306.58 774.264 302.9C773.784 299.22 772.424 296.34 770.184 294.26C768.104 292.02 764.824 290.9 760.344 290.9C756.344 290.9 751.224 291.46 744.984 292.58V346.82C750.904 347.78 757.064 348.26 763.464 348.26C768.104 348.26 770.824 347.62 771.624 346.34ZM901.724 259.7C903.805 259.7 905.965 259.94 908.205 260.42C910.605 260.9 912.365 261.46 913.485 262.1C913.485 265.62 913.085 271.46 912.284 279.62C911.484 287.62 910.765 293.3 910.125 296.66C908.525 296.5 905.564 296.42 901.244 296.42C891.164 296.42 882.204 296.98 874.365 298.1V372.5H833.324V262.1H867.645L872.444 279.86H872.685C877.325 273.78 882.285 268.9 887.565 265.22C892.845 261.54 897.564 259.7 901.724 259.7ZM991.222 343.7C995.222 343.7 1002.66 343.3 1013.54 342.5C1014.98 342.5 1017.62 342.34 1021.46 342.02L1025.06 366.74C1012.74 372.5 996.742 375.38 977.062 375.38C958.662 375.38 944.502 370.74 934.582 361.46C924.822 352.18 919.942 338.18 919.942 319.46C919.942 309.86 921.142 300.58 923.542 291.62C926.102 282.66 928.982 276.42 932.182 272.9C935.542 269.38 941.782 266.34 950.902 263.78C960.022 261.22 969.062 259.94 978.022 259.94C992.422 259.94 1003.22 262.5 1010.42 267.62C1017.62 272.74 1022.34 279.86 1024.58 288.98C1026.82 297.94 1027.94 310.02 1027.94 325.22C1017.06 325.86 1006.42 326.18 996.022 326.18H961.942C961.942 331.3 962.982 335.14 965.062 337.7C967.302 340.26 970.422 341.94 974.422 342.74C978.422 343.38 984.022 343.7 991.222 343.7ZM964.342 288.5C963.382 288.98 962.662 291.06 962.182 294.74C961.702 298.42 961.382 302.58 961.222 307.22H973.702C981.222 307.22 986.662 307.14 990.022 306.98C990.022 299.3 988.902 293.86 986.662 290.66C984.582 287.46 980.902 285.86 975.622 285.86C971.302 285.86 967.542 286.74 964.342 288.5ZM1257.04 372.5H1216.72L1213.6 297.14C1213.12 282.26 1212.56 270.98 1211.92 263.3H1211.2C1209.28 269.38 1207.04 278.82 1204.48 291.62L1203.28 297.62L1186.72 372.5H1146.4L1132.48 305.06L1130.08 293.06C1126.72 278.18 1124.4 268.26 1123.12 263.3H1122.4C1121.76 271.3 1121.2 284.34 1120.72 302.42C1120.56 303.54 1120.48 305.3 1120.48 307.7L1118.32 372.5H1077.76L1083.52 235.7H1152.16L1163.92 294.74L1166.8 310.58C1168.08 305.62 1169.28 300.1 1170.4 294.02L1181.44 235.7H1251.52L1257.04 372.5ZM1297.42 248.42C1291.98 248.42 1287.26 246.58 1283.26 242.9C1279.42 239.22 1277.5 234.82 1277.5 229.7C1277.5 224.58 1279.42 220.18 1283.26 216.5C1287.26 212.82 1291.98 210.98 1297.42 210.98C1302.86 210.98 1307.5 212.82 1311.34 216.5C1315.18 220.18 1317.1 224.58 1317.1 229.7C1317.1 234.82 1315.18 239.22 1311.34 242.9C1307.5 246.58 1302.86 248.42 1297.42 248.42ZM1276.78 262.1H1317.82V372.5H1276.78V262.1ZM1510.73 269.78C1513.29 273.62 1514.57 288.5 1514.57 314.42V372.5H1473.53V318.5V305.54C1473.53 299.62 1472.97 296.1 1471.85 294.98C1470.57 293.7 1467.85 293.06 1463.69 293.06L1460.81 293.3C1455.85 293.62 1451.13 294.74 1446.65 296.66C1446.81 300.02 1446.89 305.94 1446.89 314.42V372.5H1405.85V318.5V304.1C1405.85 299.14 1405.29 296.1 1404.17 294.98C1402.89 293.7 1400.17 293.06 1396.01 293.06L1393.13 293.3C1388.65 293.46 1384.01 294.5 1379.21 296.42V372.5H1338.17V262.1H1371.53L1375.85 280.1C1381.13 273.06 1387.21 267.94 1394.09 264.74C1400.97 261.38 1407.93 259.7 1414.97 259.7C1420.89 259.7 1426.49 260.58 1431.77 262.34C1437.21 264.1 1440.97 266.58 1443.05 269.78C1444.01 271.22 1444.81 273.86 1445.45 277.7C1450.57 271.46 1456.41 266.9 1462.97 264.02C1469.53 261.14 1476.09 259.7 1482.65 259.7C1488.57 259.7 1494.17 260.58 1499.45 262.34C1504.89 264.1 1508.65 266.58 1510.73 269.78Z"/>
</mask>
<path d="M494.923 272.66C494.923 276.02 496.603 278.66 499.963 280.58C503.483 282.5 508.923 284.58 516.283 286.82C525.083 289.7 532.283 292.5 537.883 295.22C543.643 297.94 548.603 302.18 552.763 307.94C557.083 313.7 559.243 321.22 559.243 330.5C559.243 360.26 539.883 375.14 501.163 375.14C494.763 375.14 486.923 374.58 477.643 373.46C468.523 372.34 460.203 370.9 452.683 369.14C453.003 365.78 453.643 360.9 454.603 354.5C455.723 347.94 456.763 343.06 457.723 339.86C463.323 340.66 471.723 341.62 482.923 342.74C494.283 343.86 502.843 344.42 508.603 344.42C511.963 344.42 513.963 344.18 514.603 343.7C515.563 343.06 516.283 342.02 516.763 340.58C517.403 338.98 517.723 337.62 517.723 336.5C517.723 333.3 516.203 330.9 513.163 329.3C510.123 327.54 504.923 325.46 497.563 323.06C488.763 320.34 481.483 317.54 475.723 314.66C469.963 311.78 464.923 307.3 460.603 301.22C456.283 295.14 454.123 287.14 454.123 277.22C454.123 270.18 455.723 263.3 458.923 256.58C462.123 249.7 465.403 245.06 468.763 242.66C471.323 240.9 476.603 239.22 484.603 237.62C492.603 236.02 500.123 235.22 507.163 235.22C525.083 235.22 539.723 236.9 551.083 240.26C550.923 243.46 550.363 247.86 549.403 253.46C548.603 259.06 547.723 264.18 546.763 268.82L541.243 268.58C520.443 267.14 507.163 266.42 501.403 266.42C499.003 266.42 497.643 266.5 497.323 266.66C496.683 266.98 496.123 267.7 495.643 268.82C495.163 269.94 494.923 271.22 494.923 272.66ZM630.198 375.62C610.998 375.62 596.598 371.14 586.998 362.18C577.558 353.06 572.838 338.74 572.838 319.22C572.838 308.5 573.798 299.14 575.718 291.14C577.798 282.98 580.278 277.3 583.158 274.1C586.838 269.94 593.558 266.5 603.318 263.78C613.238 261.06 622.518 259.7 631.158 259.7C651.798 259.7 666.518 264.1 675.318 272.9C684.118 281.7 688.518 295.78 688.518 315.14C688.518 335.94 683.798 351.22 674.358 360.98C664.918 370.74 650.198 375.62 630.198 375.62ZM630.918 347.54C637.158 347.54 641.238 345.38 643.158 341.06C645.078 336.58 646.038 328.74 646.038 317.54C646.038 309.7 645.638 303.7 644.838 299.54C644.038 295.22 642.518 292.1 640.278 290.18C638.198 288.1 634.918 287.06 630.438 287.06C624.038 287.06 620.358 287.62 619.398 288.74C618.118 289.86 617.078 293.38 616.278 299.3C615.478 305.22 615.078 311.38 615.078 317.78C615.078 328.66 616.118 336.34 618.198 340.82C620.438 345.3 624.678 347.54 630.918 347.54ZM778.344 259.7C790.824 259.7 800.424 263.46 807.144 270.98C814.024 278.5 817.464 291.78 817.464 310.82C817.464 324.74 816.024 336.66 813.144 346.58C810.424 356.34 807.304 362.58 803.784 365.3C799.624 368.66 793.464 371.14 785.304 372.74C777.144 374.34 767.864 375.14 757.464 375.14C749.464 375.14 740.504 374.5 730.584 373.22C720.664 372.1 711.784 370.26 703.944 367.7V228.5L745.464 226.82V249.38C745.464 250.66 745.384 253.62 745.224 258.26C745.224 262.9 745.064 266.82 744.744 270.02C744.424 273.06 743.944 275.38 743.304 276.98L744.744 278.66C748.424 273.06 753.064 268.5 758.664 264.98C764.264 261.46 770.824 259.7 778.344 259.7ZM771.624 346.34C772.584 344.74 773.384 340.98 774.024 335.06C774.824 329.14 775.224 323.46 775.224 318.02C775.224 311.62 774.904 306.58 774.264 302.9C773.784 299.22 772.424 296.34 770.184 294.26C768.104 292.02 764.824 290.9 760.344 290.9C756.344 290.9 751.224 291.46 744.984 292.58V346.82C750.904 347.78 757.064 348.26 763.464 348.26C768.104 348.26 770.824 347.62 771.624 346.34ZM901.724 259.7C903.805 259.7 905.965 259.94 908.205 260.42C910.605 260.9 912.365 261.46 913.485 262.1C913.485 265.62 913.085 271.46 912.284 279.62C911.484 287.62 910.765 293.3 910.125 296.66C908.525 296.5 905.564 296.42 901.244 296.42C891.164 296.42 882.204 296.98 874.365 298.1V372.5H833.324V262.1H867.645L872.444 279.86H872.685C877.325 273.78 882.285 268.9 887.565 265.22C892.845 261.54 897.564 259.7 901.724 259.7ZM991.222 343.7C995.222 343.7 1002.66 343.3 1013.54 342.5C1014.98 342.5 1017.62 342.34 1021.46 342.02L1025.06 366.74C1012.74 372.5 996.742 375.38 977.062 375.38C958.662 375.38 944.502 370.74 934.582 361.46C924.822 352.18 919.942 338.18 919.942 319.46C919.942 309.86 921.142 300.58 923.542 291.62C926.102 282.66 928.982 276.42 932.182 272.9C935.542 269.38 941.782 266.34 950.902 263.78C960.022 261.22 969.062 259.94 978.022 259.94C992.422 259.94 1003.22 262.5 1010.42 267.62C1017.62 272.74 1022.34 279.86 1024.58 288.98C1026.82 297.94 1027.94 310.02 1027.94 325.22C1017.06 325.86 1006.42 326.18 996.022 326.18H961.942C961.942 331.3 962.982 335.14 965.062 337.7C967.302 340.26 970.422 341.94 974.422 342.74C978.422 343.38 984.022 343.7 991.222 343.7ZM964.342 288.5C963.382 288.98 962.662 291.06 962.182 294.74C961.702 298.42 961.382 302.58 961.222 307.22H973.702C981.222 307.22 986.662 307.14 990.022 306.98C990.022 299.3 988.902 293.86 986.662 290.66C984.582 287.46 980.902 285.86 975.622 285.86C971.302 285.86 967.542 286.74 964.342 288.5ZM1257.04 372.5H1216.72L1213.6 297.14C1213.12 282.26 1212.56 270.98 1211.92 263.3H1211.2C1209.28 269.38 1207.04 278.82 1204.48 291.62L1203.28 297.62L1186.72 372.5H1146.4L1132.48 305.06L1130.08 293.06C1126.72 278.18 1124.4 268.26 1123.12 263.3H1122.4C1121.76 271.3 1121.2 284.34 1120.72 302.42C1120.56 303.54 1120.48 305.3 1120.48 307.7L1118.32 372.5H1077.76L1083.52 235.7H1152.16L1163.92 294.74L1166.8 310.58C1168.08 305.62 1169.28 300.1 1170.4 294.02L1181.44 235.7H1251.52L1257.04 372.5ZM1297.42 248.42C1291.98 248.42 1287.26 246.58 1283.26 242.9C1279.42 239.22 1277.5 234.82 1277.5 229.7C1277.5 224.58 1279.42 220.18 1283.26 216.5C1287.26 212.82 1291.98 210.98 1297.42 210.98C1302.86 210.98 1307.5 212.82 1311.34 216.5C1315.18 220.18 1317.1 224.58 1317.1 229.7C1317.1 234.82 1315.18 239.22 1311.34 242.9C1307.5 246.58 1302.86 248.42 1297.42 248.42ZM1276.78 262.1H1317.82V372.5H1276.78V262.1ZM1510.73 269.78C1513.29 273.62 1514.57 288.5 1514.57 314.42V372.5H1473.53V318.5V305.54C1473.53 299.62 1472.97 296.1 1471.85 294.98C1470.57 293.7 1467.85 293.06 1463.69 293.06L1460.81 293.3C1455.85 293.62 1451.13 294.74 1446.65 296.66C1446.81 300.02 1446.89 305.94 1446.89 314.42V372.5H1405.85V318.5V304.1C1405.85 299.14 1405.29 296.1 1404.17 294.98C1402.89 293.7 1400.17 293.06 1396.01 293.06L1393.13 293.3C1388.65 293.46 1384.01 294.5 1379.21 296.42V372.5H1338.17V262.1H1371.53L1375.85 280.1C1381.13 273.06 1387.21 267.94 1394.09 264.74C1400.97 261.38 1407.93 259.7 1414.97 259.7C1420.89 259.7 1426.49 260.58 1431.77 262.34C1437.21 264.1 1440.97 266.58 1443.05 269.78C1444.01 271.22 1444.81 273.86 1445.45 277.7C1450.57 271.46 1456.41 266.9 1462.97 264.02C1469.53 261.14 1476.09 259.7 1482.65 259.7C1488.57 259.7 1494.17 260.58 1499.45 262.34C1504.89 264.1 1508.65 266.58 1510.73 269.78Z" fill="#4D2FB2"/>
<path d="M499.963 280.58L492.024 294.472C492.116 294.524 492.208 294.576 492.301 294.626L499.963 280.58ZM516.283 286.82L521.259 271.614C521.154 271.579 521.048 271.546 520.941 271.513L516.283 286.82ZM537.883 295.22L530.892 309.612C530.945 309.638 530.998 309.663 531.051 309.688L537.883 295.22ZM552.763 307.94L539.792 317.308C539.848 317.386 539.905 317.463 539.963 317.54L552.763 307.94ZM477.643 373.46L475.692 389.341C475.703 389.342 475.714 389.343 475.726 389.345L477.643 373.46ZM452.683 369.14L436.755 367.623C435.996 375.592 441.242 382.895 449.036 384.719L452.683 369.14ZM454.603 354.5L438.831 351.807C438.813 351.914 438.796 352.02 438.78 352.127L454.603 354.5ZM457.723 339.86L459.985 324.021C452.149 322.901 444.672 327.68 442.397 335.262L457.723 339.86ZM482.923 342.74L481.331 358.661C481.338 358.661 481.345 358.662 481.353 358.663L482.923 342.74ZM514.603 343.7L505.727 330.387C505.481 330.551 505.239 330.722 505.003 330.9L514.603 343.7ZM516.763 340.58L501.907 334.638C501.791 334.929 501.683 335.223 501.584 335.52L516.763 340.58ZM513.163 329.3L505.146 343.147C505.332 343.255 505.52 343.359 505.711 343.459L513.163 329.3ZM497.563 323.06L502.523 307.848C502.445 307.823 502.366 307.798 502.288 307.774L497.563 323.06ZM475.723 314.66L482.878 300.349L482.878 300.349L475.723 314.66ZM460.603 301.22L473.646 291.953H473.646L460.603 301.22ZM458.923 256.58L473.368 263.459C473.389 263.415 473.41 263.372 473.43 263.328L458.923 256.58ZM468.763 242.66L459.698 229.475C459.619 229.53 459.541 229.585 459.463 229.64L468.763 242.66ZM484.603 237.62L481.465 221.931V221.931L484.603 237.62ZM551.083 240.26L567.063 241.059C567.431 233.682 562.703 227.012 555.621 224.917L551.083 240.26ZM549.403 253.46L533.633 250.757C533.608 250.903 533.584 251.05 533.563 251.197L549.403 253.46ZM546.763 268.82L546.068 284.805C553.909 285.146 560.84 279.748 562.431 272.062L546.763 268.82ZM541.243 268.58L540.138 284.542C540.274 284.551 540.411 284.559 540.548 284.565L541.243 268.58ZM497.323 266.66L504.478 280.971L504.478 280.971L497.323 266.66ZM495.643 268.82L480.936 262.517L480.936 262.517L495.643 268.82ZM494.923 272.66H478.923C478.923 282.735 484.586 290.221 492.024 294.472L499.963 280.58L507.901 266.688C507.952 266.717 508.834 267.238 509.681 268.57C510.596 270.008 510.923 271.531 510.923 272.66H494.923ZM499.963 280.58L492.301 294.626C497.287 297.346 503.987 299.802 511.624 302.127L516.283 286.82L520.941 271.513C513.858 269.358 509.678 267.654 507.624 266.534L499.963 280.58ZM516.283 286.82L511.306 302.026C519.714 304.778 526.175 307.321 530.892 309.612L537.883 295.22L544.873 280.828C538.39 277.679 530.451 274.622 521.259 271.614L516.283 286.82ZM537.883 295.22L531.051 309.688C534.094 311.125 537.028 313.481 539.792 317.308L552.763 307.94L565.733 298.572C560.177 290.879 553.191 284.755 544.715 280.752L537.883 295.22ZM552.763 307.94L539.963 317.54C541.674 319.822 543.243 323.677 543.243 330.5H559.243H575.243C575.243 318.763 572.491 307.578 565.563 298.34L552.763 307.94ZM559.243 330.5H543.243C543.243 341.621 539.842 347.551 534.972 351.294C529.305 355.65 518.921 359.14 501.163 359.14V375.14V391.14C522.124 391.14 540.781 387.19 554.473 376.666C568.963 365.529 575.243 349.139 575.243 330.5H559.243ZM501.163 375.14V359.14C495.621 359.14 488.465 358.65 479.56 357.575L477.643 373.46L475.726 389.345C485.381 390.51 493.904 391.14 501.163 391.14V375.14ZM477.643 373.46L479.593 357.579C470.94 356.517 463.196 355.168 456.329 353.561L452.683 369.14L449.036 384.719C457.209 386.632 466.105 388.163 475.692 389.341L477.643 373.46ZM452.683 369.14L468.611 370.657C468.889 367.735 469.477 363.196 470.426 356.873L454.603 354.5L438.78 352.127C437.808 358.604 437.116 363.825 436.755 367.623L452.683 369.14ZM454.603 354.5L470.374 357.193C471.47 350.778 472.379 346.686 473.048 344.458L457.723 339.86L442.397 335.262C441.146 339.434 439.976 345.102 438.831 351.807L454.603 354.5ZM457.723 339.86L455.46 355.699C461.406 356.549 470.079 357.535 481.331 358.661L482.923 342.74L484.515 326.819C473.366 325.705 465.239 324.771 459.985 324.021L457.723 339.86ZM482.923 342.74L481.353 358.663C492.834 359.795 502.03 360.42 508.603 360.42V344.42V328.42C503.656 328.42 495.732 327.925 484.492 326.817L482.923 342.74ZM508.603 344.42V360.42C510.56 360.42 512.618 360.355 514.529 360.126C515.48 360.012 516.729 359.819 518.078 359.451C519.17 359.153 521.674 358.397 524.203 356.5L514.603 343.7L505.003 330.9C506.215 329.991 507.309 329.457 507.996 329.162C508.712 328.855 509.298 328.677 509.658 328.579C510.032 328.477 510.313 328.421 510.463 328.394C510.62 328.365 510.71 328.355 510.716 328.354C510.716 328.354 510.545 328.373 510.152 328.391C509.771 328.408 509.26 328.42 508.603 328.42V344.42ZM514.603 343.7L523.478 357.013C528.215 353.855 530.692 349.388 531.942 345.64L516.763 340.58L501.584 335.52C501.873 334.652 502.91 332.265 505.727 330.387L514.603 343.7ZM516.763 340.58L531.618 346.522C532.65 343.943 533.723 340.448 533.723 336.5H517.723H501.723C501.723 335.567 501.852 334.935 501.908 334.695C501.967 334.445 501.996 334.414 501.907 334.638L516.763 340.58ZM517.723 336.5H533.723C533.723 332.263 532.68 327.814 530.1 323.739C527.558 319.726 524.094 316.972 520.615 315.141L513.163 329.3L505.711 343.459C505.272 343.228 504.087 342.474 503.066 340.861C502.005 339.186 501.723 337.537 501.723 336.5H517.723ZM513.163 329.3L521.179 315.453C516.576 312.788 509.99 310.283 502.523 307.848L497.563 323.06L492.602 338.272C499.855 340.637 503.67 342.292 505.146 343.147L513.163 329.3ZM497.563 323.06L502.288 307.774C493.999 305.212 487.602 302.711 482.878 300.349L475.723 314.66L468.567 328.971C475.363 332.369 483.526 335.468 492.838 338.346L497.563 323.06ZM475.723 314.66L482.878 300.349C479.811 298.816 476.688 296.234 473.646 291.953L460.603 301.22L447.56 310.487C453.158 318.366 460.114 324.744 468.567 328.971L475.723 314.66ZM460.603 301.22L473.646 291.953C471.793 289.346 470.123 284.901 470.123 277.22H454.123H438.123C438.123 289.379 440.772 300.934 447.56 310.487L460.603 301.22ZM454.123 277.22H470.123C470.123 272.696 471.132 268.156 473.368 263.459L458.923 256.58L444.477 249.701C440.314 258.444 438.123 267.664 438.123 277.22H454.123ZM458.923 256.58L473.43 263.328C474.751 260.489 475.911 258.501 476.848 257.176C477.814 255.809 478.275 255.528 478.062 255.68L468.763 242.66L459.463 229.64C452.668 234.494 447.953 242.227 444.415 249.832L458.923 256.58ZM468.763 242.66L477.827 255.845C477.175 256.293 477.375 256.001 479.494 255.327C481.376 254.728 484.076 254.042 487.74 253.309L484.603 237.62L481.465 221.931C477.129 222.798 473.189 223.752 469.791 224.833C466.63 225.839 462.91 227.267 459.698 229.475L468.763 242.66ZM484.603 237.62L487.74 253.309C494.866 251.884 501.327 251.22 507.163 251.22V235.22V219.22C498.919 219.22 490.339 220.156 481.465 221.931L484.603 237.62ZM507.163 235.22V251.22C524.248 251.22 537.206 252.841 546.545 255.603L551.083 240.26L555.621 224.917C542.239 220.959 525.918 219.22 507.163 219.22V235.22ZM551.083 240.26L535.103 239.461C534.99 241.715 534.553 245.385 533.633 250.757L549.403 253.46L565.173 256.163C566.172 250.335 566.855 245.205 567.063 241.059L551.083 240.26ZM549.403 253.46L533.563 251.197C532.802 256.53 531.976 261.318 531.094 265.578L546.763 268.82L562.431 272.062C563.469 267.042 564.404 261.59 565.242 255.723L549.403 253.46ZM546.763 268.82L547.458 252.835L541.938 252.595L541.243 268.58L540.548 284.565L546.068 284.805L546.763 268.82ZM541.243 268.58L542.348 252.618C521.716 251.19 507.831 250.42 501.403 250.42V266.42V282.42C506.494 282.42 519.17 283.09 540.138 284.542L541.243 268.58ZM501.403 266.42V250.42C500.086 250.42 498.785 250.44 497.643 250.508C497.09 250.54 496.324 250.597 495.495 250.716C495.278 250.747 492.8 251.033 490.167 252.349L497.323 266.66L504.478 280.971C503.644 281.388 502.929 281.652 502.455 281.81C501.96 281.975 501.543 282.085 501.246 282.157C500.669 282.296 500.227 282.365 500.02 282.394C499.611 282.453 499.395 282.46 499.522 282.452C499.74 282.44 500.319 282.42 501.403 282.42V266.42ZM497.323 266.66L490.167 252.349C484.465 255.2 481.948 260.156 480.936 262.517L495.643 268.82L510.349 275.123C510.218 275.428 509.839 276.251 509.052 277.263C508.255 278.287 506.798 279.811 504.478 280.971L497.323 266.66ZM495.643 268.82L480.936 262.517C479.462 265.957 478.923 269.441 478.923 272.66H494.923H510.923C510.923 272.999 510.863 273.923 510.349 275.123L495.643 268.82ZM586.998 362.18L575.881 373.687C575.947 373.751 576.014 373.814 576.081 373.877L586.998 362.18ZM575.718 291.14L560.214 287.188C560.196 287.26 560.178 287.333 560.16 287.406L575.718 291.14ZM583.158 274.1L595.051 284.803C595.082 284.769 595.112 284.735 595.142 284.701L583.158 274.1ZM603.318 263.78L599.087 248.35C599.066 248.355 599.044 248.361 599.023 248.367L603.318 263.78ZM674.358 360.98L685.859 372.104V372.104L674.358 360.98ZM643.158 341.06L657.779 347.558C657.808 347.493 657.837 347.428 657.865 347.363L643.158 341.06ZM644.838 299.54L629.106 302.453C629.112 302.49 629.119 302.526 629.126 302.562L644.838 299.54ZM640.278 290.18L628.965 301.494C629.254 301.783 629.555 302.062 629.866 302.328L640.278 290.18ZM619.398 288.74L629.934 300.781C630.51 300.278 631.049 299.733 631.546 299.153L619.398 288.74ZM616.278 299.3L632.134 301.443V301.443L616.278 299.3ZM618.198 340.82L603.686 347.558C603.751 347.698 603.818 347.837 603.887 347.975L618.198 340.82ZM630.198 375.62V359.62C613.201 359.62 603.432 355.632 597.915 350.483L586.998 362.18L576.081 373.877C589.765 386.648 608.796 391.62 630.198 391.62V375.62ZM586.998 362.18L598.115 350.673C593.041 345.771 588.838 336.508 588.838 319.22H572.838H556.838C556.838 340.972 562.075 360.349 575.881 373.687L586.998 362.18ZM572.838 319.22H588.838C588.838 309.401 589.723 301.347 591.276 294.874L575.718 291.14L560.16 287.406C557.874 296.933 556.838 307.599 556.838 319.22H572.838ZM575.718 291.14L591.222 295.092C592.119 291.575 593.005 288.986 593.801 287.162C594.63 285.265 595.143 284.701 595.051 284.803L583.158 274.1L571.266 263.397C565.674 269.61 562.433 278.483 560.214 287.188L575.718 291.14ZM583.158 274.1L595.142 284.701C595.695 284.076 598.717 281.672 607.614 279.193L603.318 263.78L599.023 248.367C588.399 251.328 577.982 255.804 571.174 263.499L583.158 274.1ZM603.318 263.78L607.549 279.21C616.344 276.799 624.189 275.7 631.158 275.7V259.7V243.7C620.848 243.7 610.132 245.321 599.087 248.35L603.318 263.78ZM631.158 259.7V275.7C650.203 275.7 659.666 279.875 664.005 284.214L675.318 272.9L686.632 261.586C673.371 248.325 653.394 243.7 631.158 243.7V259.7ZM675.318 272.9L664.005 284.214C668.498 288.708 672.518 297.728 672.518 315.14H688.518H704.518C704.518 293.832 699.738 274.692 686.632 261.586L675.318 272.9ZM688.518 315.14H672.518C672.518 333.941 668.199 344.334 662.858 349.856L674.358 360.98L685.859 372.104C699.397 358.106 704.518 337.939 704.518 315.14H688.518ZM674.358 360.98L662.858 349.856C657.61 355.282 647.914 359.62 630.198 359.62V375.62V391.62C652.483 391.62 672.227 386.198 685.859 372.104L674.358 360.98ZM630.918 347.54V363.54C635.771 363.54 641.131 362.715 646.144 360.061C651.433 357.261 655.402 352.908 657.779 347.558L643.158 341.06L628.537 334.562C628.72 334.15 629.048 333.592 629.573 333.024C630.102 332.453 630.673 332.043 631.172 331.779C632.106 331.285 632.305 331.54 630.918 331.54V347.54ZM643.158 341.06L657.865 347.363C661.193 339.596 662.038 328.809 662.038 317.54H646.038H630.038C630.038 328.671 628.963 333.564 628.452 334.757L643.158 341.06ZM646.038 317.54H662.038C662.038 309.386 661.64 302.183 660.55 296.518L644.838 299.54L629.126 302.562C629.637 305.217 630.038 310.014 630.038 317.54H646.038ZM644.838 299.54L660.571 296.627C659.418 290.403 656.78 283.251 650.691 278.032L640.278 290.18L629.866 302.328C629.058 301.636 628.746 301.032 628.714 300.967C628.702 300.941 628.75 301.036 628.829 301.288C628.907 301.54 629.007 301.921 629.106 302.453L644.838 299.54ZM640.278 290.18L651.592 278.866C645.259 272.533 636.982 271.06 630.438 271.06V287.06V303.06C631.504 303.06 631.737 303.191 631.422 303.092C631.034 302.968 630.022 302.551 628.965 301.494L640.278 290.18ZM630.438 287.06V271.06C626.917 271.06 623.475 271.205 620.471 271.662C618.981 271.889 617.108 272.263 615.181 272.961C613.549 273.552 610.117 274.983 607.25 278.327L619.398 288.74L631.546 299.153C630.265 300.648 628.958 301.564 628.093 302.081C627.212 302.608 626.484 302.901 626.075 303.049C625.308 303.327 624.935 303.351 625.285 303.298C625.561 303.256 626.119 303.191 627.036 303.14C627.934 303.09 629.06 303.06 630.438 303.06V287.06ZM619.398 288.74L608.862 276.699C604.496 280.52 602.906 285.684 602.314 287.686C601.465 290.56 600.873 293.823 600.422 297.157L616.278 299.3L632.134 301.443C632.302 300.2 632.469 299.184 632.628 298.371C632.789 297.545 632.922 297.027 633.003 296.754C633.096 296.437 633.058 296.658 632.794 297.185C632.653 297.468 632.394 297.946 631.98 298.529C631.572 299.104 630.912 299.926 629.934 300.781L619.398 288.74ZM616.278 299.3L600.422 297.157C599.52 303.836 599.078 310.714 599.078 317.78H615.078H631.078C631.078 312.046 631.437 306.604 632.134 301.443L616.278 299.3ZM615.078 317.78H599.078C599.078 328.843 600.008 339.636 603.686 347.558L618.198 340.82L632.71 334.082C632.71 334.082 632.708 334.076 632.702 334.063C632.696 334.05 632.688 334.031 632.678 334.005C632.657 333.954 632.629 333.878 632.594 333.776C632.522 333.569 632.432 333.276 632.331 332.884C632.127 332.086 631.909 330.993 631.714 329.553C631.32 326.644 631.078 322.764 631.078 317.78H615.078ZM618.198 340.82L603.887 347.975C609.553 359.307 620.403 363.54 630.918 363.54V347.54V331.54C629.644 331.54 629.76 331.305 630.532 331.713C630.931 331.924 631.371 332.239 631.771 332.654C632.166 333.064 632.397 333.44 632.509 333.665L618.198 340.82ZM807.144 270.98L795.213 281.641C795.255 281.688 795.297 281.734 795.339 281.78L807.144 270.98ZM813.144 346.58L797.778 342.119C797.762 342.174 797.747 342.229 797.731 342.285L813.144 346.58ZM803.784 365.3L794.001 352.639C793.91 352.71 793.82 352.781 793.73 352.853L803.784 365.3ZM785.304 372.74L782.225 357.039L785.304 372.74ZM730.584 373.22L732.631 357.352C732.547 357.341 732.463 357.331 732.379 357.321L730.584 373.22ZM703.944 367.7H687.944C687.944 374.623 692.396 380.761 698.977 382.91L703.944 367.7ZM703.944 228.5L703.297 212.513C694.719 212.86 687.944 219.915 687.944 228.5H703.944ZM745.464 226.82H761.464C761.464 222.464 759.688 218.297 756.547 215.28C753.405 212.263 749.169 210.657 744.817 210.833L745.464 226.82ZM745.224 258.26L729.233 257.709C729.227 257.892 729.224 258.076 729.224 258.26H745.224ZM744.744 270.02L760.656 271.695C760.659 271.667 760.662 271.64 760.664 271.612L744.744 270.02ZM743.304 276.98L728.448 271.038C726.236 276.568 727.279 282.87 731.156 287.393L743.304 276.98ZM744.744 278.66L732.596 289.073C735.868 292.89 740.744 294.947 745.761 294.628C750.779 294.308 755.354 291.648 758.115 287.447L744.744 278.66ZM758.664 264.98L767.179 278.526V278.526L758.664 264.98ZM771.624 346.34L785.192 354.82C785.243 354.738 785.294 354.655 785.344 354.572L771.624 346.34ZM774.024 335.06L758.168 332.917C758.149 333.058 758.132 333.199 758.117 333.34L774.024 335.06ZM774.264 302.9L758.398 304.969C758.428 305.194 758.462 305.418 758.5 305.641L774.264 302.9ZM770.184 294.26L758.459 305.147C758.728 305.437 759.007 305.716 759.297 305.985L770.184 294.26ZM744.984 292.58L742.157 276.832C734.533 278.2 728.984 284.834 728.984 292.58H744.984ZM744.984 346.82H728.984C728.984 354.668 734.676 361.357 742.423 362.614L744.984 346.82ZM778.344 259.7V275.7C787.436 275.7 792.228 278.301 795.213 281.641L807.144 270.98L819.074 260.319C808.619 248.619 794.212 243.7 778.344 243.7V259.7ZM807.144 270.98L795.339 281.78C797.989 284.676 801.464 292.703 801.464 310.82H817.464H833.464C833.464 290.857 830.059 272.324 818.949 260.18L807.144 270.98ZM817.464 310.82H801.464C801.464 323.718 800.12 334.052 797.778 342.119L813.144 346.58L828.509 351.041C831.927 339.268 833.464 325.762 833.464 310.82H817.464ZM813.144 346.58L797.731 342.285C796.535 346.578 795.401 349.529 794.453 351.425C793.42 353.49 793.079 353.352 794.001 352.639L803.784 365.3L813.567 377.961C818.009 374.528 820.987 369.91 823.075 365.735C825.247 361.391 827.033 356.342 828.557 350.875L813.144 346.58ZM803.784 365.3L793.73 352.853C792.415 353.915 789.115 355.688 782.225 357.039L785.304 372.74L788.383 388.441C797.812 386.592 806.832 383.405 813.837 377.747L803.784 365.3ZM785.304 372.74L782.225 357.039C775.294 358.398 767.075 359.14 757.464 359.14V375.14V391.14C768.653 391.14 778.994 390.282 788.383 388.441L785.304 372.74ZM757.464 375.14V359.14C750.293 359.14 742.032 358.565 732.631 357.352L730.584 373.22L728.536 389.088C738.975 390.435 748.635 391.14 757.464 391.14V375.14ZM730.584 373.22L732.379 357.321C723.32 356.298 715.531 354.652 708.91 352.49L703.944 367.7L698.977 382.91C708.037 385.868 718.008 387.902 728.789 389.119L730.584 373.22ZM703.944 367.7H719.944V228.5H703.944H687.944V367.7H703.944ZM703.944 228.5L704.591 244.487L746.111 242.807L745.464 226.82L744.817 210.833L703.297 212.513L703.944 228.5ZM745.464 226.82H729.464V249.38H745.464H761.464V226.82H745.464ZM745.464 249.38H729.464C729.464 250.327 729.396 252.984 729.233 257.709L745.224 258.26L761.214 258.811C761.371 254.256 761.464 250.993 761.464 249.38H745.464ZM745.224 258.26H729.224C729.224 262.579 729.073 265.932 728.823 268.428L744.744 270.02L760.664 271.612C761.055 267.708 761.224 263.221 761.224 258.26H745.224ZM744.744 270.02L728.832 268.345C728.712 269.481 728.583 270.279 728.476 270.798C728.361 271.352 728.316 271.368 728.448 271.038L743.304 276.98L758.16 282.922C759.612 279.29 760.281 275.256 760.656 271.695L744.744 270.02ZM743.304 276.98L731.156 287.393L732.596 289.073L744.744 278.66L756.892 268.247L755.452 266.567L743.304 276.98ZM744.744 278.66L758.115 287.447C760.553 283.737 763.546 280.81 767.179 278.526L758.664 264.98L750.149 251.434C742.582 256.19 736.295 262.383 731.373 269.873L744.744 278.66ZM758.664 264.98L767.179 278.526C769.892 276.821 773.414 275.7 778.344 275.7V259.7V243.7C768.234 243.7 758.636 246.099 750.149 251.434L758.664 264.98ZM771.624 346.34L785.344 354.572C787.265 351.37 788.13 347.827 788.594 345.65C789.15 343.033 789.581 340.022 789.931 336.78L774.024 335.06L758.117 333.34C757.827 336.018 757.537 337.847 757.294 338.99C757.174 339.555 757.102 339.774 757.112 339.743C757.121 339.719 757.171 339.566 757.277 339.319C757.379 339.082 757.578 338.652 757.904 338.108L771.624 346.34ZM774.024 335.06L789.88 337.203C790.767 330.641 791.224 324.242 791.224 318.02H775.224H759.224C759.224 322.678 758.881 327.639 758.168 332.917L774.024 335.06ZM775.224 318.02H791.224C791.224 311.251 790.897 305.16 790.027 300.159L774.264 302.9L758.5 305.641C758.911 308 759.224 311.989 759.224 318.02H775.224ZM774.264 302.9L790.129 300.831C789.274 294.272 786.597 287.667 781.071 282.535L770.184 294.26L759.297 305.985C758.86 305.579 758.57 305.138 758.416 304.812C758.279 304.522 758.339 304.514 758.398 304.969L774.264 302.9ZM770.184 294.26L781.909 283.373C775.624 276.605 767.183 274.9 760.344 274.9V290.9V306.9C761.312 306.9 761.424 307.029 760.994 306.882C760.47 306.703 759.448 306.212 758.459 305.147L770.184 294.26ZM760.344 290.9V274.9C755.013 274.9 748.857 275.629 742.157 276.832L744.984 292.58L747.81 308.328C753.59 307.291 757.674 306.9 760.344 306.9V290.9ZM744.984 292.58H728.984V346.82H744.984H760.984V292.58H744.984ZM744.984 346.82L742.423 362.614C749.244 363.72 756.263 364.26 763.464 364.26V348.26V332.26C757.865 332.26 752.564 331.84 747.545 331.026L744.984 346.82ZM763.464 348.26V364.26C766.322 364.26 769.56 364.081 772.648 363.355C774.969 362.809 781.286 361.07 785.192 354.82L771.624 346.34L758.056 337.86C759.715 335.206 761.793 333.793 763.002 333.134C764.205 332.478 765.108 332.255 765.319 332.205C765.688 332.119 765.245 332.26 763.464 332.26V348.26ZM908.204 260.42L904.852 276.065C904.923 276.08 904.995 276.095 905.067 276.109L908.204 260.42ZM913.484 262.1H929.484C929.484 256.358 926.408 251.057 921.423 248.208L913.484 262.1ZM912.284 279.62L928.205 281.212C928.206 281.202 928.207 281.191 928.208 281.181L912.284 279.62ZM910.125 296.66L908.532 312.581C916.78 313.405 924.291 307.796 925.842 299.654L910.125 296.66ZM874.365 298.1L872.102 282.261C864.219 283.387 858.365 290.138 858.365 298.1H874.365ZM874.365 372.5V388.5C883.201 388.5 890.365 381.337 890.365 372.5H874.365ZM833.324 372.5H817.324C817.324 381.337 824.488 388.5 833.324 388.5V372.5ZM833.324 262.1V246.1C824.488 246.1 817.324 253.263 817.324 262.1H833.324ZM867.645 262.1L883.09 257.925C881.204 250.947 874.873 246.1 867.645 246.1V262.1ZM872.444 279.86L856.999 284.035C858.885 291.013 865.216 295.86 872.444 295.86V279.86ZM872.685 279.86V295.86C877.674 295.86 882.377 293.533 885.404 289.567L872.685 279.86ZM887.565 265.22L896.713 278.346V278.346L887.565 265.22ZM901.724 259.7V275.7C902.571 275.7 903.604 275.797 904.852 276.065L908.204 260.42L911.557 244.775C908.325 244.083 905.038 243.7 901.724 243.7V259.7ZM908.204 260.42L905.067 276.109C905.452 276.186 905.762 276.257 906.004 276.317C906.248 276.378 906.4 276.423 906.473 276.447C906.55 276.471 906.507 276.461 906.371 276.404C906.24 276.35 905.947 276.221 905.546 275.992L913.484 262.1L921.423 248.208C918.013 246.26 914.2 245.302 911.342 244.731L908.204 260.42ZM913.484 262.1H897.484C897.484 264.765 897.159 269.92 896.361 278.059L912.284 279.62L928.208 281.181C929.01 273 929.484 266.475 929.484 262.1H913.484ZM912.284 279.62L896.364 278.028C895.565 286.014 894.902 291.069 894.407 293.666L910.125 296.66L925.842 299.654C926.627 295.531 927.404 289.226 928.205 281.212L912.284 279.62ZM910.125 296.66L911.717 280.739C909.214 280.489 905.497 280.42 901.245 280.42V296.42V312.42C905.632 312.42 907.835 312.511 908.532 312.581L910.125 296.66ZM901.245 296.42V280.42C890.601 280.42 880.861 281.009 872.102 282.261L874.365 298.1L876.627 313.939C883.548 312.951 891.728 312.42 901.245 312.42V296.42ZM874.365 298.1H858.365V372.5H874.365H890.365V298.1H874.365ZM874.365 372.5V356.5H833.324V372.5V388.5H874.365V372.5ZM833.324 372.5H849.324V262.1H833.324H817.324V372.5H833.324ZM833.324 262.1V278.1H867.645V262.1V246.1H833.324V262.1ZM867.645 262.1L852.199 266.275L856.999 284.035L872.444 279.86L887.89 275.685L883.09 257.925L867.645 262.1ZM872.444 279.86V295.86H872.685V279.86V263.86H872.444V279.86ZM872.685 279.86L885.404 289.567C889.222 284.564 893.022 280.919 896.713 278.346L887.565 265.22L878.416 252.094C871.547 256.881 865.427 262.996 859.965 270.153L872.685 279.86ZM887.565 265.22L896.713 278.346C898.58 277.045 899.962 276.344 900.876 275.987C901.775 275.637 902.014 275.7 901.724 275.7V259.7V243.7C892.949 243.7 885.013 247.496 878.416 252.094L887.565 265.22ZM1013.54 342.5V326.5C1013.15 326.5 1012.76 326.514 1012.37 326.543L1013.54 342.5ZM1021.46 342.02L1037.29 339.714C1036.08 331.348 1028.56 325.373 1020.13 326.075L1021.46 342.02ZM1025.06 366.74L1031.84 381.234C1038.23 378.245 1041.91 371.419 1040.9 364.434L1025.06 366.74ZM934.582 361.46L923.557 373.055C923.588 373.085 923.62 373.115 923.651 373.144L934.582 361.46ZM923.542 291.62L908.158 287.224C908.133 287.31 908.11 287.395 908.087 287.48L923.542 291.62ZM932.182 272.9L920.608 261.852C920.519 261.946 920.43 262.041 920.343 262.137L932.182 272.9ZM950.902 263.78L955.226 279.185V279.185L950.902 263.78ZM1010.42 267.62L1001.15 280.659L1001.15 280.659L1010.42 267.62ZM1024.58 288.98L1009.04 292.796C1009.05 292.818 1009.05 292.839 1009.06 292.861L1024.58 288.98ZM1027.94 325.22L1028.88 341.192C1037.34 340.695 1043.94 333.692 1043.94 325.22H1027.94ZM961.942 326.18V310.18C953.105 310.18 945.942 317.343 945.942 326.18H961.942ZM965.062 337.7L952.644 347.789C952.767 347.941 952.893 348.09 953.021 348.236L965.062 337.7ZM974.422 342.74L971.284 358.429C971.487 358.47 971.69 358.506 971.894 358.539L974.422 342.74ZM964.342 288.5L971.497 302.811C971.684 302.717 971.87 302.62 972.053 302.519L964.342 288.5ZM962.182 294.74L978.048 296.809V296.809L962.182 294.74ZM961.222 307.22L945.232 306.669C945.082 311.005 946.7 315.216 949.715 318.337C952.73 321.458 956.883 323.22 961.222 323.22V307.22ZM990.022 306.98L990.783 322.962C999.314 322.556 1006.02 315.521 1006.02 306.98H990.022ZM986.662 290.66L973.247 299.38C973.347 299.533 973.449 299.685 973.554 299.835L986.662 290.66ZM991.222 343.7V359.7C995.893 359.7 1003.89 359.253 1014.72 358.457L1013.54 342.5L1012.37 326.543C1001.43 327.347 994.552 327.7 991.222 327.7V343.7ZM1013.54 342.5V358.5C1015.74 358.5 1019 358.28 1022.79 357.965L1021.46 342.02L1020.13 326.075C1016.24 326.4 1014.23 326.5 1013.54 326.5V342.5ZM1021.46 342.02L1005.63 344.326L1009.23 369.046L1025.06 366.74L1040.9 364.434L1037.29 339.714L1021.46 342.02ZM1025.06 366.74L1018.29 352.246C1008.82 356.673 995.368 359.38 977.062 359.38V375.38V391.38C998.116 391.38 1016.67 388.327 1031.84 381.234L1025.06 366.74ZM977.062 375.38V359.38C961.257 359.38 951.549 355.423 945.513 349.776L934.582 361.46L923.651 373.144C937.455 386.057 956.067 391.38 977.062 391.38V375.38ZM934.582 361.46L945.607 349.865C940.103 344.631 935.942 335.55 935.942 319.46H919.942H903.942C903.942 340.81 909.541 359.729 923.557 373.055L934.582 361.46ZM919.942 319.46H935.942C935.942 311.209 936.971 303.323 938.997 295.76L923.542 291.62L908.087 287.48C905.313 297.837 903.942 308.511 903.942 319.46H919.942ZM923.542 291.62L938.926 296.016C941.339 287.573 943.41 284.334 944.021 283.663L932.182 272.9L920.343 262.137C914.553 268.506 910.865 277.747 908.158 287.224L923.542 291.62ZM932.182 272.9L943.756 283.948C943.693 284.013 944.309 283.377 946.389 282.364C948.401 281.384 951.281 280.292 955.226 279.185L950.902 263.78L946.578 248.375C936.862 251.103 927.075 255.078 920.608 261.852L932.182 272.9ZM950.902 263.78L955.226 279.185C963.019 276.997 970.605 275.94 978.022 275.94V259.94V243.94C967.519 243.94 957.025 245.443 946.578 248.375L950.902 263.78ZM978.022 259.94V275.94C991.011 275.94 997.883 278.337 1001.15 280.659L1010.42 267.62L1019.69 254.581C1008.56 246.663 993.833 243.94 978.022 243.94V259.94ZM1010.42 267.62L1001.15 280.659C1005.02 283.408 1007.66 287.148 1009.04 292.796L1024.58 288.98L1040.12 285.164C1037.03 272.572 1030.23 262.072 1019.69 254.581L1010.42 267.62ZM1024.58 288.98L1009.06 292.861C1010.84 300.002 1011.94 310.604 1011.94 325.22H1027.94H1043.94C1043.94 309.436 1042.8 295.878 1040.1 285.099L1024.58 288.98ZM1027.94 325.22L1027 309.248C1016.42 309.87 1006.09 310.18 996.022 310.18V326.18V342.18C1006.75 342.18 1017.7 341.85 1028.88 341.192L1027.94 325.22ZM996.022 326.18V310.18H961.942V326.18V342.18H996.022V326.18ZM961.942 326.18H945.942C945.942 333.053 947.272 341.177 952.644 347.789L965.062 337.7L977.48 327.611C978.11 328.386 978.219 328.915 978.166 328.717C978.103 328.486 977.942 327.709 977.942 326.18H961.942ZM965.062 337.7L953.021 348.236C958.016 353.945 964.54 357.08 971.284 358.429L974.422 342.74L977.56 327.051C976.884 326.915 976.64 326.778 976.668 326.792C976.681 326.8 976.743 326.835 976.833 326.906C976.925 326.979 977.018 327.067 977.103 327.164L965.062 337.7ZM974.422 342.74L971.894 358.539C977.134 359.377 983.718 359.7 991.222 359.7V343.7V327.7C984.326 327.7 979.71 327.383 976.95 326.941L974.422 342.74ZM964.342 288.5L957.187 274.189C950.595 277.485 948.463 283.741 947.962 285.186C947.087 287.714 946.615 290.378 946.316 292.671L962.182 294.74L978.048 296.809C978.229 295.422 978.357 295.206 978.202 295.654C978.121 295.888 977.799 296.788 977.044 297.938C976.328 299.029 974.636 301.242 971.497 302.811L964.342 288.5ZM962.182 294.74L946.316 292.671C945.757 296.961 945.405 301.641 945.232 306.669L961.222 307.22L977.213 307.771C977.359 303.519 977.647 299.879 978.048 296.809L962.182 294.74ZM961.222 307.22V323.22H973.702V307.22V291.22H961.222V307.22ZM973.702 307.22V323.22C981.245 323.22 987.013 323.141 990.783 322.962L990.022 306.98L989.261 290.998C986.311 291.139 981.199 291.22 973.702 291.22V307.22ZM990.022 306.98H1006.02C1006.02 298.673 1004.99 288.942 999.77 281.485L986.662 290.66L973.554 299.835C973.013 299.062 973.219 298.949 973.511 300.366C973.787 301.709 974.022 303.845 974.022 306.98H990.022ZM986.662 290.66L1000.08 281.94C993.988 272.572 984.037 269.86 975.622 269.86V285.86V301.86C976.727 301.86 976.663 302.038 975.962 301.733C975.586 301.569 975.086 301.291 974.559 300.852C974.027 300.408 973.584 299.898 973.247 299.38L986.662 290.66ZM975.622 285.86V269.86C969.1 269.86 962.591 271.202 956.631 274.481L964.342 288.5L972.053 302.519C972.493 302.278 973.504 301.86 975.622 301.86V285.86ZM1257.04 372.5V388.5C1261.4 388.5 1265.56 386.724 1268.58 383.583C1271.6 380.442 1273.2 376.207 1273.03 371.855L1257.04 372.5ZM1216.72 372.5L1200.73 373.162C1201.09 381.734 1208.14 388.5 1216.72 388.5V372.5ZM1213.6 297.14L1197.61 297.656C1197.61 297.705 1197.61 297.753 1197.61 297.802L1213.6 297.14ZM1211.92 263.3L1227.87 261.971C1227.17 253.679 1220.24 247.3 1211.92 247.3V263.3ZM1211.2 263.3V247.3C1204.22 247.3 1198.05 251.825 1195.94 258.482L1211.2 263.3ZM1204.48 291.62L1220.17 294.758V294.758L1204.48 291.62ZM1203.28 297.62L1218.9 301.075C1218.93 300.969 1218.95 300.864 1218.97 300.758L1203.28 297.62ZM1186.72 372.5V388.5C1194.23 388.5 1200.72 383.283 1202.34 375.955L1186.72 372.5ZM1146.4 372.5L1130.73 375.734C1132.27 383.168 1138.81 388.5 1146.4 388.5V372.5ZM1132.48 305.06L1116.79 308.198C1116.8 308.23 1116.8 308.262 1116.81 308.294L1132.48 305.06ZM1130.08 293.06L1145.77 289.922C1145.74 289.793 1145.72 289.664 1145.69 289.536L1130.08 293.06ZM1123.12 263.3L1138.61 259.302C1136.79 252.237 1130.42 247.3 1123.12 247.3V263.3ZM1122.4 263.3V247.3C1114.06 247.3 1107.12 253.709 1106.45 262.024L1122.4 263.3ZM1120.72 302.42L1136.56 304.683C1136.65 304.074 1136.7 303.46 1136.72 302.845L1120.72 302.42ZM1120.48 307.7L1136.47 308.233C1136.48 308.055 1136.48 307.878 1136.48 307.7H1120.48ZM1118.32 372.5V388.5C1126.95 388.5 1134.02 381.657 1134.31 373.033L1118.32 372.5ZM1077.76 372.5L1061.77 371.827C1061.59 376.183 1063.19 380.426 1066.21 383.573C1069.23 386.721 1073.4 388.5 1077.76 388.5V372.5ZM1083.52 235.7V219.7C1074.95 219.7 1067.9 226.46 1067.53 235.027L1083.52 235.7ZM1152.16 235.7L1167.85 232.574C1166.36 225.09 1159.79 219.7 1152.16 219.7V235.7ZM1163.92 294.74L1179.66 291.878C1179.65 291.79 1179.63 291.702 1179.61 291.614L1163.92 294.74ZM1166.8 310.58L1151.06 313.442C1152.4 320.835 1158.71 326.296 1166.22 326.569C1173.73 326.842 1180.42 321.854 1182.29 314.578L1166.8 310.58ZM1170.4 294.02L1154.68 291.044C1154.68 291.07 1154.67 291.096 1154.67 291.121L1170.4 294.02ZM1181.44 235.7V219.7C1173.75 219.7 1167.15 225.169 1165.72 232.724L1181.44 235.7ZM1251.52 235.7L1267.51 235.055C1267.16 226.476 1260.11 219.7 1251.52 219.7V235.7ZM1257.04 372.5V356.5H1216.72V372.5V388.5H1257.04V372.5ZM1216.72 372.5L1232.71 371.838L1229.59 296.478L1213.6 297.14L1197.61 297.802L1200.73 373.162L1216.72 372.5ZM1213.6 297.14L1229.59 296.624C1229.11 281.673 1228.54 270.066 1227.87 261.971L1211.92 263.3L1195.98 264.629C1196.58 271.894 1197.13 282.847 1197.61 297.656L1213.6 297.14ZM1211.92 263.3V247.3H1211.2V263.3V279.3H1211.92V263.3ZM1211.2 263.3L1195.94 258.482C1193.75 265.429 1191.37 275.573 1188.79 288.482L1204.48 291.62L1220.17 294.758C1222.71 282.067 1224.81 273.331 1226.46 268.118L1211.2 263.3ZM1204.48 291.62L1188.79 288.482L1187.59 294.482L1203.28 297.62L1218.97 300.758L1220.17 294.758L1204.48 291.62ZM1203.28 297.62L1187.66 294.165L1171.1 369.045L1186.72 372.5L1202.34 375.955L1218.9 301.075L1203.28 297.62ZM1186.72 372.5V356.5H1146.4V372.5V388.5H1186.72V372.5ZM1146.4 372.5L1162.07 369.266L1148.15 301.826L1132.48 305.06L1116.81 308.294L1130.73 375.734L1146.4 372.5ZM1132.48 305.06L1148.17 301.922L1145.77 289.922L1130.08 293.06L1114.39 296.198L1116.79 308.198L1132.48 305.06ZM1130.08 293.06L1145.69 289.536C1142.34 274.694 1139.96 264.537 1138.61 259.302L1123.12 263.3L1107.63 267.298C1108.84 271.983 1111.11 281.666 1114.47 296.584L1130.08 293.06ZM1123.12 263.3V247.3H1122.4V263.3V279.3H1123.12V263.3ZM1122.4 263.3L1106.45 262.024C1105.77 270.484 1105.21 283.892 1104.73 301.995L1120.72 302.42L1136.72 302.845C1137.19 284.788 1137.75 272.116 1138.35 264.576L1122.4 263.3ZM1120.72 302.42L1104.88 300.157C1104.55 302.47 1104.48 305.187 1104.48 307.7H1120.48H1136.48C1136.48 306.662 1136.5 305.876 1136.52 305.307C1136.55 304.692 1136.58 304.535 1136.56 304.683L1120.72 302.42ZM1120.48 307.7L1104.49 307.167L1102.33 371.967L1118.32 372.5L1134.31 373.033L1136.47 308.233L1120.48 307.7ZM1118.32 372.5V356.5H1077.76V372.5V388.5H1118.32V372.5ZM1077.76 372.5L1093.75 373.173L1099.51 236.373L1083.52 235.7L1067.53 235.027L1061.77 371.827L1077.76 372.5ZM1083.52 235.7V251.7H1152.16V235.7V219.7H1083.52V235.7ZM1152.16 235.7L1136.47 238.826L1148.23 297.866L1163.92 294.74L1179.61 291.614L1167.85 232.574L1152.16 235.7ZM1163.92 294.74L1148.18 297.602L1151.06 313.442L1166.8 310.58L1182.54 307.718L1179.66 291.878L1163.92 294.74ZM1166.8 310.58L1182.29 314.578C1183.68 309.19 1184.96 303.295 1186.14 296.919L1170.4 294.02L1154.67 291.121C1153.6 296.905 1152.48 302.05 1151.31 306.582L1166.8 310.58ZM1170.4 294.02L1186.12 296.996L1197.16 238.676L1181.44 235.7L1165.72 232.724L1154.68 291.044L1170.4 294.02ZM1181.44 235.7V251.7H1251.52V235.7V219.7H1181.44V235.7ZM1251.52 235.7L1235.53 236.345L1241.05 373.145L1257.04 372.5L1273.03 371.855L1267.51 235.055L1251.52 235.7ZM1283.26 242.9L1272.19 254.452C1272.27 254.527 1272.35 254.601 1272.43 254.675L1283.26 242.9ZM1283.26 216.5L1272.43 204.725C1272.35 204.799 1272.27 204.873 1272.19 204.948L1283.26 216.5ZM1311.34 242.9L1322.41 254.452L1311.34 242.9ZM1276.78 262.1V246.1C1267.94 246.1 1260.78 253.263 1260.78 262.1H1276.78ZM1317.82 262.1H1333.82C1333.82 253.263 1326.66 246.1 1317.82 246.1V262.1ZM1317.82 372.5V388.5C1326.66 388.5 1333.82 381.337 1333.82 372.5H1317.82ZM1276.78 372.5H1260.78C1260.78 381.337 1267.94 388.5 1276.78 388.5V372.5ZM1297.42 248.42V232.42C1295.99 232.42 1295.14 232.085 1294.09 231.125L1283.26 242.9L1272.43 254.675C1279.38 261.075 1287.97 264.42 1297.42 264.42V248.42ZM1283.26 242.9L1294.33 231.348C1293.77 230.813 1293.63 230.504 1293.6 230.441C1293.58 230.391 1293.5 230.207 1293.5 229.7H1277.5H1261.5C1261.5 239.368 1265.34 247.886 1272.19 254.452L1283.26 242.9ZM1277.5 229.7H1293.5C1293.5 229.193 1293.58 229.009 1293.6 228.959C1293.63 228.896 1293.77 228.587 1294.33 228.052L1283.26 216.5L1272.19 204.948C1265.34 211.514 1261.5 220.032 1261.5 229.7H1277.5ZM1283.26 216.5L1294.09 228.275C1295.14 227.315 1295.99 226.98 1297.42 226.98V210.98V194.98C1287.97 194.98 1279.38 198.325 1272.43 204.725L1283.26 216.5ZM1297.42 210.98V226.98C1298.84 226.98 1299.48 227.298 1300.27 228.052L1311.34 216.5L1322.41 204.948C1315.52 198.342 1306.88 194.98 1297.42 194.98V210.98ZM1311.34 216.5L1300.27 228.052C1300.83 228.587 1300.97 228.896 1300.99 228.959C1301.02 229.009 1301.1 229.193 1301.1 229.7H1317.1H1333.1C1333.1 220.032 1329.26 211.514 1322.41 204.948L1311.34 216.5ZM1317.1 229.7H1301.1C1301.1 230.207 1301.02 230.391 1300.99 230.441C1300.97 230.504 1300.83 230.813 1300.27 231.348L1311.34 242.9L1322.41 254.452C1329.26 247.886 1333.1 239.368 1333.1 229.7H1317.1ZM1311.34 242.9L1300.27 231.348C1299.48 232.102 1298.84 232.42 1297.42 232.42V248.42V264.42C1306.88 264.42 1315.52 261.058 1322.41 254.452L1311.34 242.9ZM1276.78 262.1V278.1H1317.82V262.1V246.1H1276.78V262.1ZM1317.82 262.1H1301.82V372.5H1317.82H1333.82V262.1H1317.82ZM1317.82 372.5V356.5H1276.78V372.5V388.5H1317.82V372.5ZM1276.78 372.5H1292.78V262.1H1276.78H1260.78V372.5H1276.78ZM1510.73 269.78L1497.31 278.5C1497.35 278.552 1497.38 278.604 1497.42 278.655L1510.73 269.78ZM1514.57 372.5V388.5C1523.4 388.5 1530.57 381.337 1530.57 372.5H1514.57ZM1473.53 372.5H1457.53C1457.53 381.337 1464.69 388.5 1473.53 388.5V372.5ZM1471.85 294.98L1483.16 283.666V283.666L1471.85 294.98ZM1463.69 293.06V277.06C1463.24 277.06 1462.8 277.078 1462.36 277.115L1463.69 293.06ZM1460.81 293.3L1461.84 309.267C1461.94 309.26 1462.04 309.253 1462.14 309.245L1460.81 293.3ZM1446.65 296.66L1440.35 281.954C1434.21 284.584 1430.35 290.751 1430.67 297.421L1446.65 296.66ZM1446.89 372.5V388.5C1455.72 388.5 1462.89 381.337 1462.89 372.5H1446.89ZM1405.85 372.5H1389.85C1389.85 381.337 1397.01 388.5 1405.85 388.5V372.5ZM1404.17 294.98L1392.85 306.294L1392.85 306.294L1404.17 294.98ZM1396.01 293.06V277.06C1395.56 277.06 1395.12 277.078 1394.68 277.115L1396.01 293.06ZM1393.13 293.3L1393.7 309.29C1393.95 309.281 1394.2 309.266 1394.46 309.245L1393.13 293.3ZM1379.21 296.42L1373.27 281.564C1367.19 283.994 1363.21 289.878 1363.21 296.42H1379.21ZM1379.21 372.5V388.5C1388.04 388.5 1395.21 381.337 1395.21 372.5H1379.21ZM1338.17 372.5H1322.17C1322.17 381.337 1329.33 388.5 1338.17 388.5V372.5ZM1338.17 262.1V246.1C1329.33 246.1 1322.17 253.263 1322.17 262.1H1338.17ZM1371.53 262.1L1387.09 258.366C1385.36 251.172 1378.93 246.1 1371.53 246.1V262.1ZM1375.85 280.1L1360.29 283.834C1361.74 289.862 1366.54 294.512 1372.61 295.768C1378.68 297.024 1384.93 294.66 1388.65 289.7L1375.85 280.1ZM1394.09 264.74L1400.84 279.248C1400.93 279.205 1401.02 279.161 1401.11 279.117L1394.09 264.74ZM1431.77 262.34L1426.71 277.519C1426.75 277.534 1426.8 277.549 1426.84 277.563L1431.77 262.34ZM1443.05 269.78L1429.63 278.5C1429.67 278.552 1429.7 278.604 1429.74 278.655L1443.05 269.78ZM1445.45 277.7L1429.67 280.33C1430.7 286.522 1435.26 291.538 1441.32 293.158C1447.38 294.778 1453.84 292.702 1457.82 287.849L1445.45 277.7ZM1499.45 262.34L1494.39 277.519C1494.43 277.534 1494.48 277.549 1494.52 277.563L1499.45 262.34ZM1510.73 269.78L1497.42 278.655C1496.23 276.884 1496.32 275.928 1496.73 277.945C1497.04 279.437 1497.37 281.788 1497.67 285.191C1498.25 291.963 1498.57 301.638 1498.57 314.42H1514.57H1530.57C1530.57 301.282 1530.25 290.557 1529.55 282.449C1529.2 278.412 1528.74 274.703 1528.08 271.515C1527.54 268.851 1526.5 264.596 1524.04 260.905L1510.73 269.78ZM1514.57 314.42H1498.57V372.5H1514.57H1530.57V314.42H1514.57ZM1514.57 372.5V356.5H1473.53V372.5V388.5H1514.57V372.5ZM1473.53 372.5H1489.53V318.5H1473.53H1457.53V372.5H1473.53ZM1473.53 318.5H1489.53V305.54H1473.53H1457.53V318.5H1473.53ZM1473.53 305.54H1489.53C1489.53 302.21 1489.38 298.901 1488.91 295.946C1488.67 294.466 1488.3 292.671 1487.63 290.823C1487.02 289.142 1485.77 286.272 1483.16 283.666L1471.85 294.98L1460.53 306.294C1459.45 305.209 1458.76 304.165 1458.34 303.433C1457.92 302.693 1457.67 302.084 1457.54 301.717C1457.29 301.029 1457.26 300.694 1457.31 300.974C1457.34 301.199 1457.4 301.684 1457.45 302.497C1457.5 303.295 1457.53 304.301 1457.53 305.54H1473.53ZM1471.85 294.98L1483.16 283.666C1479.57 280.072 1475.32 278.626 1472.51 277.965C1469.52 277.262 1466.46 277.06 1463.69 277.06V293.06V309.06C1465.07 309.06 1465.45 309.178 1465.18 309.115C1465.01 309.075 1464.46 308.934 1463.69 308.564C1462.92 308.193 1461.74 307.502 1460.53 306.294L1471.85 294.98ZM1463.69 293.06L1462.36 277.115L1459.48 277.355L1460.81 293.3L1462.14 309.245L1465.02 309.005L1463.69 293.06ZM1460.81 293.3L1459.78 277.333C1453.04 277.768 1446.53 279.302 1440.35 281.954L1446.65 296.66L1452.95 311.366C1455.72 310.178 1458.66 309.472 1461.84 309.267L1460.81 293.3ZM1446.65 296.66L1430.67 297.421C1430.81 300.356 1430.89 305.927 1430.89 314.42H1446.89H1462.89C1462.89 305.953 1462.81 299.684 1462.63 295.899L1446.65 296.66ZM1446.89 314.42H1430.89V372.5H1446.89H1462.89V314.42H1446.89ZM1446.89 372.5V356.5H1405.85V372.5V388.5H1446.89V372.5ZM1405.85 372.5H1421.85V318.5H1405.85H1389.85V372.5H1405.85ZM1405.85 318.5H1421.85V304.1H1405.85H1389.85V318.5H1405.85ZM1405.85 304.1H1421.85C1421.85 301.155 1421.69 298.072 1421.16 295.201C1420.77 293.039 1419.66 287.842 1415.48 283.666L1404.17 294.98L1392.85 306.294C1391.12 304.561 1390.35 302.876 1390.07 302.171C1389.9 301.76 1389.81 301.446 1389.76 301.27C1389.73 301.177 1389.72 301.108 1389.71 301.065C1389.7 301.043 1389.7 301.026 1389.7 301.015C1389.69 301.004 1389.69 300.999 1389.69 300.999C1389.69 300.998 1389.69 301.003 1389.7 301.013C1389.7 301.023 1389.7 301.037 1389.7 301.057C1389.71 301.095 1389.72 301.151 1389.72 301.226C1389.74 301.376 1389.76 301.584 1389.78 301.857C1389.82 302.411 1389.85 303.15 1389.85 304.1H1405.85ZM1404.17 294.98L1415.48 283.666C1411.89 280.072 1407.64 278.626 1404.83 277.965C1401.84 277.262 1398.78 277.06 1396.01 277.06V293.06V309.06C1397.39 309.06 1397.77 309.178 1397.5 309.115C1397.33 309.075 1396.78 308.934 1396.01 308.564C1395.24 308.193 1394.06 307.502 1392.85 306.294L1404.17 294.98ZM1396.01 293.06L1394.68 277.115L1391.8 277.355L1393.13 293.3L1394.46 309.245L1397.34 309.005L1396.01 293.06ZM1393.13 293.3L1392.56 277.31C1385.98 277.545 1379.52 279.063 1373.27 281.564L1379.21 296.42L1385.15 311.276C1388.5 309.937 1391.32 309.375 1393.7 309.29L1393.13 293.3ZM1379.21 296.42H1363.21V372.5H1379.21H1395.21V296.42H1379.21ZM1379.21 372.5V356.5H1338.17V372.5V388.5H1379.21V372.5ZM1338.17 372.5H1354.17V262.1H1338.17H1322.17V372.5H1338.17ZM1338.17 262.1V278.1H1371.53V262.1V246.1H1338.17V262.1ZM1371.53 262.1L1355.97 265.834L1360.29 283.834L1375.85 280.1L1391.41 276.366L1387.09 258.366L1371.53 262.1ZM1375.85 280.1L1388.65 289.7C1392.6 284.431 1396.7 281.17 1400.84 279.248L1394.09 264.74L1387.34 250.232C1377.71 254.71 1369.66 261.689 1363.05 270.5L1375.85 280.1ZM1394.09 264.74L1401.11 279.117C1406 276.73 1410.57 275.7 1414.97 275.7V259.7V243.7C1405.29 243.7 1395.94 246.03 1387.07 250.363L1394.09 264.74ZM1414.97 259.7V275.7C1419.28 275.7 1423.16 276.336 1426.71 277.519L1431.77 262.34L1436.83 247.161C1429.82 244.824 1422.5 243.7 1414.97 243.7V259.7ZM1431.77 262.34L1426.84 277.563C1428.54 278.112 1429.46 278.611 1429.86 278.876C1430.23 279.12 1429.99 279.048 1429.63 278.5L1443.05 269.78L1456.46 261.06C1451.6 253.578 1443.96 249.466 1436.69 247.117L1431.77 262.34ZM1443.05 269.78L1429.74 278.655C1429.31 278.024 1429.11 277.563 1429.05 277.422C1428.98 277.266 1428.99 277.266 1429.06 277.48C1429.19 277.935 1429.42 278.837 1429.67 280.33L1445.45 277.7L1461.23 275.07C1460.57 271.107 1459.38 265.435 1456.36 260.905L1443.05 269.78ZM1445.45 277.7L1457.82 287.849C1461.54 283.307 1465.42 280.416 1469.4 278.67L1462.97 264.02L1456.54 249.37C1447.39 253.384 1439.59 259.613 1433.08 267.551L1445.45 277.7ZM1462.97 264.02L1469.4 278.67C1474.12 276.598 1478.5 275.7 1482.65 275.7V259.7V243.7C1473.68 243.7 1464.94 245.682 1456.54 249.37L1462.97 264.02ZM1482.65 259.7V275.7C1486.96 275.7 1490.84 276.336 1494.39 277.519L1499.45 262.34L1504.51 247.161C1497.5 244.824 1490.18 243.7 1482.65 243.7V259.7ZM1499.45 262.34L1494.52 277.563C1496.22 278.112 1497.14 278.611 1497.54 278.876C1497.91 279.12 1497.67 279.048 1497.31 278.5L1510.73 269.78L1524.14 261.06C1519.28 253.578 1511.64 249.466 1504.37 247.117L1499.45 262.34Z" fill="white" mask="url(#path-4-outside-1_59_308)"/>
</svg>
