<svg width="1803" height="354" viewBox="0 0 1803 354" fill="none" xmlns="http://www.w3.org/2000/svg">
<mask id="path-1-outside-1_53_182" maskUnits="userSpaceOnUse" x="422.44" y="66" width="1380" height="258" fill="black">
<rect fill="white" x="422.44" y="66" width="1380" height="258"/>
<path d="M501.64 169.2C501.64 173.4 503.74 176.7 507.94 179.1C512.34 181.5 519.14 184.1 528.34 186.9C539.34 190.5 548.34 194 555.34 197.4C562.54 200.8 568.74 206.1 573.94 213.3C579.34 220.5 582.04 229.9 582.04 241.5C582.04 278.7 557.84 297.3 509.44 297.3C501.44 297.3 491.64 296.6 480.04 295.2C468.64 293.8 458.24 292 448.84 289.8C449.24 285.6 450.04 279.5 451.24 271.5C452.64 263.3 453.94 257.2 455.14 253.2C462.14 254.2 472.64 255.4 486.64 256.8C500.84 258.2 511.54 258.9 518.74 258.9C522.94 258.9 525.44 258.6 526.24 258C527.44 257.2 528.34 255.9 528.94 254.1C529.74 252.1 530.14 250.4 530.14 249C530.14 245 528.24 242 524.44 240C520.64 237.8 514.14 235.2 504.94 232.2C493.94 228.8 484.84 225.3 477.64 221.7C470.44 218.1 464.14 212.5 458.74 204.9C453.34 197.3 450.64 187.3 450.64 174.9C450.64 166.1 452.64 157.5 456.64 149.1C460.64 140.5 464.74 134.7 468.94 131.7C472.14 129.5 478.74 127.4 488.74 125.4C498.74 123.4 508.14 122.4 516.94 122.4C539.34 122.4 557.64 124.5 571.84 128.7C571.64 132.7 570.94 138.2 569.74 145.2C568.74 152.2 567.64 158.6 566.44 164.4L559.54 164.1C533.54 162.3 516.94 161.4 509.74 161.4C506.74 161.4 505.04 161.5 504.64 161.7C503.84 162.1 503.14 163 502.54 164.4C501.94 165.8 501.64 167.4 501.64 169.2ZM670.734 297.9C646.734 297.9 628.734 292.3 616.734 281.1C604.934 269.7 599.034 251.8 599.034 227.4C599.034 214 600.234 202.3 602.634 192.3C605.234 182.1 608.334 175 611.934 171C616.534 165.8 624.934 161.5 637.134 158.1C649.534 154.7 661.134 153 671.934 153C697.734 153 716.134 158.5 727.134 169.5C738.134 180.5 743.634 198.1 743.634 222.3C743.634 248.3 737.734 267.4 725.934 279.6C714.134 291.8 695.734 297.9 670.734 297.9ZM671.634 262.8C679.434 262.8 684.534 260.1 686.934 254.7C689.334 249.1 690.534 239.3 690.534 225.3C690.534 215.5 690.034 208 689.034 202.8C688.034 197.4 686.134 193.5 683.334 191.1C680.734 188.5 676.634 187.2 671.034 187.2C663.034 187.2 658.434 187.9 657.234 189.3C655.634 190.7 654.334 195.1 653.334 202.5C652.334 209.9 651.834 217.6 651.834 225.6C651.834 239.2 653.134 248.8 655.734 254.4C658.534 260 663.834 262.8 671.634 262.8ZM855.916 153C871.516 153 883.516 157.7 891.916 167.1C900.516 176.5 904.816 193.1 904.816 216.9C904.816 234.3 903.016 249.2 899.416 261.6C896.016 273.8 892.116 281.6 887.716 285C882.516 289.2 874.816 292.3 864.616 294.3C854.416 296.3 842.816 297.3 829.816 297.3C819.816 297.3 808.616 296.5 796.216 294.9C783.816 293.5 772.716 291.2 762.916 288V114L814.816 111.9V140.1C814.816 141.7 814.716 145.4 814.516 151.2C814.516 157 814.316 161.9 813.916 165.9C813.516 169.7 812.916 172.6 812.116 174.6L813.916 176.7C818.516 169.7 824.316 164 831.316 159.6C838.316 155.2 846.516 153 855.916 153ZM847.516 261.3C848.716 259.3 849.716 254.6 850.516 247.2C851.516 239.8 852.016 232.7 852.016 225.9C852.016 217.9 851.616 211.6 850.816 207C850.216 202.4 848.516 198.8 845.716 196.2C843.116 193.4 839.016 192 833.416 192C828.416 192 822.016 192.7 814.216 194.1V261.9C821.616 263.1 829.316 263.7 837.316 263.7C843.116 263.7 846.516 262.9 847.516 261.3ZM1010.14 153C1012.74 153 1015.44 153.3 1018.24 153.9C1021.24 154.5 1023.44 155.2 1024.84 156C1024.84 160.4 1024.34 167.7 1023.34 177.9C1022.34 187.9 1021.44 195 1020.64 199.2C1018.64 199 1014.94 198.9 1009.54 198.9C996.942 198.9 985.742 199.6 975.942 201V294H924.642V156H967.542L973.542 178.2H973.842C979.642 170.6 985.842 164.5 992.442 159.9C999.042 155.3 1004.94 153 1010.14 153ZM1122.01 258C1127.01 258 1136.31 257.5 1149.91 256.5C1151.71 256.5 1155.01 256.3 1159.81 255.9L1164.31 286.8C1148.91 294 1128.91 297.6 1104.31 297.6C1081.31 297.6 1063.61 291.8 1051.21 280.2C1039.01 268.6 1032.91 251.1 1032.91 227.7C1032.91 215.7 1034.41 204.1 1037.41 192.9C1040.61 181.7 1044.21 173.9 1048.21 169.5C1052.41 165.1 1060.21 161.3 1071.61 158.1C1083.01 154.9 1094.31 153.3 1105.51 153.3C1123.51 153.3 1137.01 156.5 1146.01 162.9C1155.01 169.3 1160.91 178.2 1163.71 189.6C1166.51 200.8 1167.91 215.9 1167.91 234.9C1154.31 235.7 1141.01 236.1 1128.01 236.1H1085.41C1085.41 242.5 1086.71 247.3 1089.31 250.5C1092.11 253.7 1096.01 255.8 1101.01 256.8C1106.01 257.6 1113.01 258 1122.01 258ZM1088.41 189C1087.21 189.6 1086.31 192.2 1085.71 196.8C1085.11 201.4 1084.71 206.6 1084.51 212.4H1100.11C1109.51 212.4 1116.31 212.3 1120.51 212.1C1120.51 202.5 1119.11 195.7 1116.31 191.7C1113.71 187.7 1109.11 185.7 1102.51 185.7C1097.11 185.7 1092.41 186.8 1088.41 189ZM1454.29 294H1403.89L1399.99 199.8C1399.39 181.2 1398.69 167.1 1397.89 157.5H1396.99C1394.59 165.1 1391.79 176.9 1388.59 192.9L1387.09 200.4L1366.39 294H1315.99L1298.59 209.7L1295.59 194.7C1291.39 176.1 1288.49 163.7 1286.89 157.5H1285.99C1285.19 167.5 1284.49 183.8 1283.89 206.4C1283.69 207.8 1283.59 210 1283.59 213L1280.89 294H1230.19L1237.39 123H1323.19L1337.89 196.8L1341.49 216.6C1343.09 210.4 1344.59 203.5 1345.99 195.9L1359.79 123H1447.39L1454.29 294ZM1504.76 138.9C1497.96 138.9 1492.06 136.6 1487.06 132C1482.26 127.4 1479.86 121.9 1479.86 115.5C1479.86 109.1 1482.26 103.6 1487.06 99C1492.06 94.4 1497.96 92.1 1504.76 92.1C1511.56 92.1 1517.36 94.4 1522.16 99C1526.96 103.6 1529.36 109.1 1529.36 115.5C1529.36 121.9 1526.96 127.4 1522.16 132C1517.36 136.6 1511.56 138.9 1504.76 138.9ZM1478.96 156H1530.26V294H1478.96V156ZM1771.4 165.6C1774.6 170.4 1776.2 189 1776.2 221.4V294H1724.9V226.5V210.3C1724.9 202.9 1724.2 198.5 1722.8 197.1C1721.2 195.5 1717.8 194.7 1712.6 194.7L1709 195C1702.8 195.4 1696.9 196.8 1691.3 199.2C1691.5 203.4 1691.6 210.8 1691.6 221.4V294H1640.3V226.5V208.5C1640.3 202.3 1639.6 198.5 1638.2 197.1C1636.6 195.5 1633.2 194.7 1628 194.7L1624.4 195C1618.8 195.2 1613 196.5 1607 198.9V294H1555.7V156H1597.4L1602.8 178.5C1609.4 169.7 1617 163.3 1625.6 159.3C1634.2 155.1 1642.9 153 1651.7 153C1659.1 153 1666.1 154.1 1672.7 156.3C1679.5 158.5 1684.2 161.6 1686.8 165.6C1688 167.4 1689 170.7 1689.8 175.5C1696.2 167.7 1703.5 162 1711.7 158.4C1719.9 154.8 1728.1 153 1736.3 153C1743.7 153 1750.7 154.1 1757.3 156.3C1764.1 158.5 1768.8 161.6 1771.4 165.6Z"/>
</mask>
<path d="M501.64 169.2C501.64 173.4 503.74 176.7 507.94 179.1C512.34 181.5 519.14 184.1 528.34 186.9C539.34 190.5 548.34 194 555.34 197.4C562.54 200.8 568.74 206.1 573.94 213.3C579.34 220.5 582.04 229.9 582.04 241.5C582.04 278.7 557.84 297.3 509.44 297.3C501.44 297.3 491.64 296.6 480.04 295.2C468.64 293.8 458.24 292 448.84 289.8C449.24 285.6 450.04 279.5 451.24 271.5C452.64 263.3 453.94 257.2 455.14 253.2C462.14 254.2 472.64 255.4 486.64 256.8C500.84 258.2 511.54 258.9 518.74 258.9C522.94 258.9 525.44 258.6 526.24 258C527.44 257.2 528.34 255.9 528.94 254.1C529.74 252.1 530.14 250.4 530.14 249C530.14 245 528.24 242 524.44 240C520.64 237.8 514.14 235.2 504.94 232.2C493.94 228.8 484.84 225.3 477.64 221.7C470.44 218.1 464.14 212.5 458.74 204.9C453.34 197.3 450.64 187.3 450.64 174.9C450.64 166.1 452.64 157.5 456.64 149.1C460.64 140.5 464.74 134.7 468.94 131.7C472.14 129.5 478.74 127.4 488.74 125.4C498.74 123.4 508.14 122.4 516.94 122.4C539.34 122.4 557.64 124.5 571.84 128.7C571.64 132.7 570.94 138.2 569.74 145.2C568.74 152.2 567.64 158.6 566.44 164.4L559.54 164.1C533.54 162.3 516.94 161.4 509.74 161.4C506.74 161.4 505.04 161.5 504.64 161.7C503.84 162.1 503.14 163 502.54 164.4C501.94 165.8 501.64 167.4 501.64 169.2ZM670.734 297.9C646.734 297.9 628.734 292.3 616.734 281.1C604.934 269.7 599.034 251.8 599.034 227.4C599.034 214 600.234 202.3 602.634 192.3C605.234 182.1 608.334 175 611.934 171C616.534 165.8 624.934 161.5 637.134 158.1C649.534 154.7 661.134 153 671.934 153C697.734 153 716.134 158.5 727.134 169.5C738.134 180.5 743.634 198.1 743.634 222.3C743.634 248.3 737.734 267.4 725.934 279.6C714.134 291.8 695.734 297.9 670.734 297.9ZM671.634 262.8C679.434 262.8 684.534 260.1 686.934 254.7C689.334 249.1 690.534 239.3 690.534 225.3C690.534 215.5 690.034 208 689.034 202.8C688.034 197.4 686.134 193.5 683.334 191.1C680.734 188.5 676.634 187.2 671.034 187.2C663.034 187.2 658.434 187.9 657.234 189.3C655.634 190.7 654.334 195.1 653.334 202.5C652.334 209.9 651.834 217.6 651.834 225.6C651.834 239.2 653.134 248.8 655.734 254.4C658.534 260 663.834 262.8 671.634 262.8ZM855.916 153C871.516 153 883.516 157.7 891.916 167.1C900.516 176.5 904.816 193.1 904.816 216.9C904.816 234.3 903.016 249.2 899.416 261.6C896.016 273.8 892.116 281.6 887.716 285C882.516 289.2 874.816 292.3 864.616 294.3C854.416 296.3 842.816 297.3 829.816 297.3C819.816 297.3 808.616 296.5 796.216 294.9C783.816 293.5 772.716 291.2 762.916 288V114L814.816 111.9V140.1C814.816 141.7 814.716 145.4 814.516 151.2C814.516 157 814.316 161.9 813.916 165.9C813.516 169.7 812.916 172.6 812.116 174.6L813.916 176.7C818.516 169.7 824.316 164 831.316 159.6C838.316 155.2 846.516 153 855.916 153ZM847.516 261.3C848.716 259.3 849.716 254.6 850.516 247.2C851.516 239.8 852.016 232.7 852.016 225.9C852.016 217.9 851.616 211.6 850.816 207C850.216 202.4 848.516 198.8 845.716 196.2C843.116 193.4 839.016 192 833.416 192C828.416 192 822.016 192.7 814.216 194.1V261.9C821.616 263.1 829.316 263.7 837.316 263.7C843.116 263.7 846.516 262.9 847.516 261.3ZM1010.14 153C1012.74 153 1015.44 153.3 1018.24 153.9C1021.24 154.5 1023.44 155.2 1024.84 156C1024.84 160.4 1024.34 167.7 1023.34 177.9C1022.34 187.9 1021.44 195 1020.64 199.2C1018.64 199 1014.94 198.9 1009.54 198.9C996.942 198.9 985.742 199.6 975.942 201V294H924.642V156H967.542L973.542 178.2H973.842C979.642 170.6 985.842 164.5 992.442 159.9C999.042 155.3 1004.94 153 1010.14 153ZM1122.01 258C1127.01 258 1136.31 257.5 1149.91 256.5C1151.71 256.5 1155.01 256.3 1159.81 255.9L1164.31 286.8C1148.91 294 1128.91 297.6 1104.31 297.6C1081.31 297.6 1063.61 291.8 1051.21 280.2C1039.01 268.6 1032.91 251.1 1032.91 227.7C1032.91 215.7 1034.41 204.1 1037.41 192.9C1040.61 181.7 1044.21 173.9 1048.21 169.5C1052.41 165.1 1060.21 161.3 1071.61 158.1C1083.01 154.9 1094.31 153.3 1105.51 153.3C1123.51 153.3 1137.01 156.5 1146.01 162.9C1155.01 169.3 1160.91 178.2 1163.71 189.6C1166.51 200.8 1167.91 215.9 1167.91 234.9C1154.31 235.7 1141.01 236.1 1128.01 236.1H1085.41C1085.41 242.5 1086.71 247.3 1089.31 250.5C1092.11 253.7 1096.01 255.8 1101.01 256.8C1106.01 257.6 1113.01 258 1122.01 258ZM1088.41 189C1087.21 189.6 1086.31 192.2 1085.71 196.8C1085.11 201.4 1084.71 206.6 1084.51 212.4H1100.11C1109.51 212.4 1116.31 212.3 1120.51 212.1C1120.51 202.5 1119.11 195.7 1116.31 191.7C1113.71 187.7 1109.11 185.7 1102.51 185.7C1097.11 185.7 1092.41 186.8 1088.41 189ZM1454.29 294H1403.89L1399.99 199.8C1399.39 181.2 1398.69 167.1 1397.89 157.5H1396.99C1394.59 165.1 1391.79 176.9 1388.59 192.9L1387.09 200.4L1366.39 294H1315.99L1298.59 209.7L1295.59 194.7C1291.39 176.1 1288.49 163.7 1286.89 157.5H1285.99C1285.19 167.5 1284.49 183.8 1283.89 206.4C1283.69 207.8 1283.59 210 1283.59 213L1280.89 294H1230.19L1237.39 123H1323.19L1337.89 196.8L1341.49 216.6C1343.09 210.4 1344.59 203.5 1345.99 195.9L1359.79 123H1447.39L1454.29 294ZM1504.76 138.9C1497.96 138.9 1492.06 136.6 1487.06 132C1482.26 127.4 1479.86 121.9 1479.86 115.5C1479.86 109.1 1482.26 103.6 1487.06 99C1492.06 94.4 1497.96 92.1 1504.76 92.1C1511.56 92.1 1517.36 94.4 1522.16 99C1526.96 103.6 1529.36 109.1 1529.36 115.5C1529.36 121.9 1526.96 127.4 1522.16 132C1517.36 136.6 1511.56 138.9 1504.76 138.9ZM1478.96 156H1530.26V294H1478.96V156ZM1771.4 165.6C1774.6 170.4 1776.2 189 1776.2 221.4V294H1724.9V226.5V210.3C1724.9 202.9 1724.2 198.5 1722.8 197.1C1721.2 195.5 1717.8 194.7 1712.6 194.7L1709 195C1702.8 195.4 1696.9 196.8 1691.3 199.2C1691.5 203.4 1691.6 210.8 1691.6 221.4V294H1640.3V226.5V208.5C1640.3 202.3 1639.6 198.5 1638.2 197.1C1636.6 195.5 1633.2 194.7 1628 194.7L1624.4 195C1618.8 195.2 1613 196.5 1607 198.9V294H1555.7V156H1597.4L1602.8 178.5C1609.4 169.7 1617 163.3 1625.6 159.3C1634.2 155.1 1642.9 153 1651.7 153C1659.1 153 1666.1 154.1 1672.7 156.3C1679.5 158.5 1684.2 161.6 1686.8 165.6C1688 167.4 1689 170.7 1689.8 175.5C1696.2 167.7 1703.5 162 1711.7 158.4C1719.9 154.8 1728.1 153 1736.3 153C1743.7 153 1750.7 154.1 1757.3 156.3C1764.1 158.5 1768.8 161.6 1771.4 165.6Z" fill="#4D2FB2"/>
<path d="M507.94 179.1L495.04 201.674C495.189 201.759 495.339 201.843 495.49 201.925L507.94 179.1ZM528.34 186.9L536.427 162.19C536.255 162.133 536.083 162.079 535.91 162.026L528.34 186.9ZM555.34 197.4L543.98 220.787C544.066 220.829 544.152 220.87 544.238 220.91L555.34 197.4ZM573.94 213.3L552.862 228.523C552.954 228.649 553.046 228.775 553.14 228.9L573.94 213.3ZM480.04 295.2L476.871 321.006C476.889 321.008 476.907 321.011 476.924 321.013L480.04 295.2ZM448.84 289.8L422.957 287.335C421.724 300.284 430.25 312.152 442.915 315.116L448.84 289.8ZM451.24 271.5L425.611 267.124C425.581 267.297 425.553 267.47 425.527 267.643L451.24 271.5ZM455.14 253.2L458.817 227.461C446.083 225.642 433.933 233.408 430.236 245.729L455.14 253.2ZM486.64 256.8L484.053 282.671C484.065 282.672 484.077 282.673 484.089 282.675L486.64 256.8ZM526.24 258L511.818 236.367C511.417 236.634 511.025 236.911 510.64 237.2L526.24 258ZM528.94 254.1L504.799 244.444C504.61 244.917 504.435 245.395 504.274 245.878L528.94 254.1ZM524.44 240L511.413 262.501C511.715 262.676 512.021 262.845 512.33 263.008L524.44 240ZM504.94 232.2L513 207.481C512.873 207.44 512.746 207.399 512.618 207.36L504.94 232.2ZM477.64 221.7L489.267 198.445H489.267L477.64 221.7ZM458.74 204.9L479.935 189.841H479.935L458.74 204.9ZM456.64 149.1L480.114 160.278C480.148 160.207 480.181 160.136 480.215 160.065L456.64 149.1ZM468.94 131.7L454.21 110.275C454.082 110.363 453.954 110.452 453.828 110.543L468.94 131.7ZM488.74 125.4L483.641 99.9049H483.641L488.74 125.4ZM571.84 128.7L597.807 129.998C598.407 118.011 590.723 107.172 579.214 103.768L571.84 128.7ZM569.74 145.2L544.114 140.807C544.073 141.045 544.035 141.284 544.001 141.523L569.74 145.2ZM566.44 164.4L565.31 190.375C578.053 190.93 589.316 182.158 591.901 169.668L566.44 164.4ZM559.54 164.1L557.744 190.038C557.966 190.053 558.188 190.066 558.41 190.075L559.54 164.1ZM504.64 161.7L516.267 184.955L516.268 184.955L504.64 161.7ZM502.54 164.4L478.642 154.158L478.642 154.158L502.54 164.4ZM501.64 169.2H475.64C475.64 184.312 484.212 195.487 495.04 201.674L507.94 179.1L520.839 156.526C521.552 156.933 523.458 158.207 525.15 160.866C526.952 163.698 527.64 166.736 527.64 169.2H501.64ZM507.94 179.1L495.49 201.925C502.272 205.625 511.119 208.836 520.77 211.774L528.34 186.9L535.91 162.026C527.16 159.363 522.407 157.375 520.39 156.275L507.94 179.1ZM528.34 186.9L520.253 211.61C530.617 215.002 538.416 218.084 543.98 220.787L555.34 197.4L566.699 174.013C558.264 169.916 548.063 165.998 536.427 162.19L528.34 186.9ZM555.34 197.4L544.238 220.91C547.023 222.226 549.931 224.465 552.862 228.523L573.94 213.3L595.017 198.077C587.548 187.735 578.056 179.374 566.442 173.89L555.34 197.4ZM573.94 213.3L553.14 228.9C554.301 230.448 556.04 233.893 556.04 241.5H582.04H608.04C608.04 225.907 604.379 210.552 594.74 197.7L573.94 213.3ZM582.04 241.5H556.04C556.04 253.992 552.329 259.443 548.046 262.735C542.466 267.024 531.038 271.3 509.44 271.3V297.3V323.3C536.242 323.3 561.114 318.276 579.734 303.965C599.651 288.657 608.04 266.208 608.04 241.5H582.04ZM509.44 297.3V271.3C502.835 271.3 494.146 270.714 483.155 269.387L480.04 295.2L476.924 321.013C489.134 322.486 500.044 323.3 509.44 323.3V297.3ZM480.04 295.2L483.209 269.394C472.568 268.087 463.105 266.436 454.765 264.484L448.84 289.8L442.915 315.116C453.375 317.564 464.712 319.513 476.871 321.006L480.04 295.2ZM448.84 289.8L474.723 292.265C475.055 288.777 475.771 283.231 476.952 275.357L451.24 271.5L425.527 267.643C424.309 275.769 423.425 282.423 422.957 287.335L448.84 289.8ZM451.24 271.5L476.869 275.876C478.229 267.911 479.317 263.092 480.043 260.671L455.14 253.2L430.236 245.729C428.562 251.308 427.051 258.689 425.611 267.124L451.24 271.5ZM455.14 253.2L451.463 278.939C459.025 280.019 469.97 281.263 484.053 282.671L486.64 256.8L489.227 230.929C475.31 229.537 465.254 228.381 458.817 227.461L455.14 253.2ZM486.64 256.8L484.089 282.675C498.485 284.094 510.219 284.9 518.74 284.9V258.9V232.9C512.861 232.9 503.194 232.306 489.191 230.925L486.64 256.8ZM518.74 258.9V284.9C521.29 284.9 524.133 284.817 526.863 284.49C528.22 284.327 530.095 284.041 532.162 283.478C533.814 283.027 537.791 281.837 541.84 278.8L526.24 258L510.64 237.2C512.64 235.7 514.456 234.811 515.618 234.313C516.828 233.795 517.833 233.486 518.48 233.31C519.722 232.971 520.559 232.873 520.667 232.86C520.897 232.833 520.389 232.9 518.74 232.9V258.9ZM526.24 258L540.662 279.633C548 274.741 551.755 267.872 553.606 262.322L528.94 254.1L504.274 245.878C504.924 243.928 506.879 239.659 511.818 236.367L526.24 258ZM528.94 254.1L553.08 263.756C554.517 260.165 556.14 254.996 556.14 249H530.14H504.14C504.14 247.274 504.38 246.014 504.531 245.37C504.687 244.708 504.825 244.381 504.799 244.444L528.94 254.1ZM530.14 249H556.14C556.14 242.715 554.589 236.01 550.68 229.839C546.835 223.767 541.633 219.668 536.549 216.992L524.44 240L512.33 263.008C511.047 262.332 508.695 260.733 506.75 257.661C504.741 254.49 504.14 251.285 504.14 249H530.14ZM524.44 240L537.467 217.499C531.126 213.828 522.374 210.538 513 207.481L504.94 232.2L496.879 256.919C505.905 259.862 510.154 261.772 511.413 262.501L524.44 240ZM504.94 232.2L512.618 207.36C502.45 204.217 494.784 201.203 489.267 198.445L477.64 221.7L466.012 244.955C474.896 249.397 485.43 253.383 497.262 257.04L504.94 232.2ZM477.64 221.7L489.267 198.445C486.443 197.033 483.258 194.518 479.935 189.841L458.74 204.9L437.545 219.959C445.022 230.482 454.436 239.167 466.012 244.955L477.64 221.7ZM458.74 204.9L479.935 189.841C478.545 187.885 476.64 183.662 476.64 174.9H450.64H424.64C424.64 190.938 428.135 206.715 437.545 219.959L458.74 204.9ZM450.64 174.9H476.64C476.64 170.188 477.68 165.391 480.114 160.278L456.64 149.1L433.165 137.922C427.6 149.609 424.64 162.012 424.64 174.9H450.64ZM456.64 149.1L480.215 160.065C481.76 156.742 483.038 154.592 483.946 153.308C484.901 151.956 485.027 152.161 484.052 152.857L468.94 131.7L453.828 110.543C444.046 117.53 437.614 128.356 433.065 138.135L456.64 149.1ZM468.94 131.7L483.67 153.125C482.723 153.776 482.181 153.984 482.424 153.878C482.611 153.796 483.156 153.575 484.173 153.251C486.242 152.593 489.385 151.786 493.839 150.895L488.74 125.4L483.641 99.9049C478.095 101.014 472.937 102.257 468.407 103.699C464.26 105.018 458.949 107.017 454.21 110.275L468.94 131.7ZM488.74 125.4L493.839 150.895C502.418 149.179 510.096 148.4 516.94 148.4V122.4V96.4C506.183 96.4 495.062 97.6207 483.641 99.9049L488.74 125.4ZM516.94 122.4V148.4C537.983 148.4 553.55 150.404 564.465 153.632L571.84 128.7L579.214 103.768C561.729 98.5961 540.697 96.4 516.94 96.4V122.4ZM571.84 128.7L545.872 127.402C545.749 129.865 545.25 134.179 544.114 140.807L569.74 145.2L595.366 149.593C596.63 142.221 597.531 135.535 597.807 129.998L571.84 128.7ZM569.74 145.2L544.001 141.523C543.063 148.088 542.052 153.949 540.979 159.132L566.44 164.4L591.901 169.668C593.228 163.251 594.416 156.312 595.479 148.877L569.74 145.2ZM566.44 164.4L567.569 138.425L560.669 138.125L559.54 164.1L558.41 190.075L565.31 190.375L566.44 164.4ZM559.54 164.1L561.336 138.162C535.608 136.381 518.026 135.4 509.74 135.4V161.4V187.4C515.854 187.4 531.471 188.219 557.744 190.038L559.54 164.1ZM509.74 161.4V135.4C508.05 135.4 506.288 135.426 504.688 135.52C503.917 135.565 502.776 135.649 501.507 135.83C501.233 135.869 497.261 136.321 493.012 138.445L504.64 161.7L516.268 184.955C514.904 185.637 513.733 186.069 512.952 186.329C512.139 186.601 511.449 186.784 510.952 186.904C509.987 187.137 509.235 187.254 508.861 187.307C508.444 187.367 508.139 187.397 507.992 187.41C507.834 187.425 507.744 187.43 507.742 187.43C507.735 187.431 507.777 187.428 507.876 187.424C507.973 187.421 508.108 187.417 508.287 187.413C508.648 187.405 509.127 187.4 509.74 187.4V161.4ZM504.64 161.7L493.012 138.445C483.987 142.958 480.106 150.741 478.642 154.158L502.54 164.4L526.438 174.642C526.135 175.348 525.422 176.859 524.038 178.637C522.638 180.437 520.158 183.01 516.267 184.955L504.64 161.7ZM502.54 164.4L478.642 154.158C476.427 159.327 475.64 164.509 475.64 169.2H501.64H527.64C527.64 170.291 527.453 172.273 526.438 174.642L502.54 164.4ZM616.734 281.1L598.669 299.799C598.777 299.903 598.885 300.006 598.994 300.107L616.734 281.1ZM602.634 192.3L577.44 185.878C577.41 185.996 577.381 186.114 577.352 186.232L602.634 192.3ZM611.934 171L631.26 188.393C631.31 188.338 631.359 188.283 631.408 188.227L611.934 171ZM637.134 158.1L630.259 133.025C630.224 133.035 630.189 133.045 630.154 133.054L637.134 158.1ZM725.934 279.6L744.623 297.676V297.676L725.934 279.6ZM686.934 254.7L710.693 265.26C710.74 265.154 710.787 265.048 710.832 264.942L686.934 254.7ZM689.034 202.8L663.469 207.534C663.48 207.593 663.491 207.652 663.502 207.71L689.034 202.8ZM683.334 191.1L664.95 209.485C665.42 209.955 665.909 210.408 666.414 210.841L683.334 191.1ZM657.234 189.3L674.355 208.867C675.291 208.049 676.166 207.164 676.975 206.221L657.234 189.3ZM653.334 202.5L679.1 205.982V205.982L653.334 202.5ZM655.734 254.4L632.152 265.349C632.258 265.577 632.367 265.803 632.479 266.028L655.734 254.4ZM670.734 297.9V271.9C650.313 271.9 639.839 267.099 634.475 262.093L616.734 281.1L598.994 300.107C617.63 317.501 643.156 323.9 670.734 323.9V297.9ZM616.734 281.1L634.799 262.401C630.095 257.856 625.034 248.173 625.034 227.4H599.034H573.034C573.034 255.427 579.774 281.544 598.669 299.799L616.734 281.1ZM599.034 227.4H625.034C625.034 215.465 626.112 205.887 627.916 198.368L602.634 192.3L577.352 186.232C574.357 198.713 573.034 212.535 573.034 227.4H599.034ZM602.634 192.3L627.829 198.722C628.896 194.536 629.908 191.627 630.737 189.729C631.618 187.711 631.95 187.627 631.26 188.393L611.934 171L592.609 153.607C584.602 162.503 580.266 174.792 577.44 185.878L602.634 192.3ZM611.934 171L631.408 188.227C630.937 188.76 631.249 188.187 633.532 187.019C635.753 185.882 639.165 184.525 644.114 183.146L637.134 158.1L630.154 133.054C616.551 136.845 602.142 142.828 592.46 153.773L611.934 171ZM637.134 158.1L644.01 183.174C654.582 180.276 663.849 179 671.934 179V153V127C658.42 127 644.487 129.124 630.259 133.025L637.134 158.1ZM671.934 153V179C695.141 179 704.999 184.134 708.75 187.885L727.134 169.5L745.519 151.115C727.27 132.866 700.327 127 671.934 127V153ZM727.134 169.5L708.75 187.885C712.752 191.887 717.634 201.265 717.634 222.3H743.634H769.634C769.634 194.935 763.517 169.113 745.519 151.115L727.134 169.5ZM743.634 222.3H717.634C717.634 245.052 712.386 256.21 707.246 261.524L725.934 279.6L744.623 297.676C763.083 278.59 769.634 251.548 769.634 222.3H743.634ZM725.934 279.6L707.246 261.524C702.258 266.681 692.022 271.9 670.734 271.9V297.9V323.9C699.446 323.9 726.011 316.919 744.623 297.676L725.934 279.6ZM671.634 262.8V288.8C678.35 288.8 686.092 287.662 693.474 283.753C701.303 279.609 707.19 273.142 710.693 265.26L686.934 254.7L663.175 244.14C663.653 243.066 664.415 241.805 665.55 240.579C666.691 239.347 667.951 238.428 669.144 237.797C671.426 236.588 672.719 236.8 671.634 236.8V262.8ZM686.934 254.7L710.832 264.942C715.521 254.001 716.534 239.412 716.534 225.3H690.534H664.534C664.534 231.642 664.258 236.47 663.827 239.99C663.365 243.762 662.859 244.873 663.037 244.458L686.934 254.7ZM690.534 225.3H716.534C716.534 214.99 716.037 205.535 714.567 197.89L689.034 202.8L663.502 207.71C664.032 210.465 664.534 216.01 664.534 225.3H690.534ZM689.034 202.8L714.6 198.066C713.027 189.572 709.31 179.121 700.255 171.359L683.334 191.1L666.414 210.841C664.681 209.355 663.822 207.902 663.486 207.212C663.178 206.581 663.289 206.56 663.469 207.534L689.034 202.8ZM683.334 191.1L701.719 172.715C692.208 163.204 679.988 161.2 671.034 161.2V187.2V213.2C671.927 213.2 671.577 213.316 670.451 212.959C669.204 212.564 667.058 211.593 664.95 209.485L683.334 191.1ZM671.034 187.2V161.2C666.513 161.2 661.864 161.383 657.673 162.021C655.596 162.337 652.835 162.879 649.92 163.934C647.485 164.816 642.062 167.05 637.494 172.379L657.234 189.3L676.975 206.221C674.847 208.703 672.663 210.241 671.181 211.127C669.671 212.028 668.396 212.549 667.623 212.828C666.159 213.358 665.272 213.463 665.496 213.429C665.905 213.367 667.556 213.2 671.034 213.2V187.2ZM657.234 189.3L640.113 169.733C633.257 175.732 630.891 183.689 630.125 186.283C628.94 190.292 628.151 194.71 627.569 199.018L653.334 202.5L679.1 205.982C679.298 204.518 679.489 203.365 679.66 202.487C679.836 201.587 679.96 201.131 679.994 201.017C680.048 200.833 679.883 201.465 679.346 202.54C679.062 203.107 678.585 203.979 677.855 205.008C677.135 206.023 676.004 207.424 674.355 208.867L657.234 189.3ZM653.334 202.5L627.569 199.018C626.402 207.651 625.834 216.517 625.834 225.6H651.834H677.834C677.834 218.683 678.267 212.149 679.1 205.982L653.334 202.5ZM651.834 225.6H625.834C625.834 239.498 626.956 254.156 632.152 265.349L655.734 254.4L679.317 243.451C679.553 243.961 679.049 243.021 678.574 239.511C678.129 236.225 677.834 231.66 677.834 225.6H651.834ZM655.734 254.4L632.479 266.028C640.846 282.762 656.887 288.8 671.634 288.8V262.8V236.8C670.733 236.8 671.904 236.628 673.954 237.711C675 238.264 676.065 239.038 677.019 240.027C677.965 241.009 678.597 241.987 678.989 242.772L655.734 254.4ZM891.916 167.1L872.529 184.425C872.597 184.5 872.665 184.576 872.733 184.65L891.916 167.1ZM899.416 261.6L874.447 254.351C874.421 254.441 874.396 254.53 874.371 254.62L899.416 261.6ZM887.716 285L871.819 264.427C871.671 264.541 871.525 264.656 871.38 264.774L887.716 285ZM864.616 294.3L859.614 268.786L864.616 294.3ZM796.216 294.9L799.544 269.114C799.407 269.096 799.27 269.08 799.133 269.064L796.216 294.9ZM762.916 288H736.916C736.916 299.25 744.152 309.224 754.846 312.716L762.916 288ZM762.916 114L761.865 88.0213C747.926 88.5853 736.916 100.05 736.916 114H762.916ZM814.816 111.9H840.816C840.816 104.822 837.931 98.0499 832.826 93.1472C827.721 88.2446 820.837 85.6351 813.765 85.9212L814.816 111.9ZM814.516 151.2L788.532 150.304C788.522 150.603 788.516 150.901 788.516 151.2H814.516ZM813.916 165.9L839.774 168.622C839.778 168.577 839.783 168.532 839.787 168.487L813.916 165.9ZM812.116 174.6L787.976 164.944C784.381 173.931 786.076 184.171 792.376 191.521L812.116 174.6ZM813.916 176.7L794.176 193.621C799.493 199.824 807.416 203.167 815.569 202.647C823.723 202.128 831.158 197.806 835.645 190.979L813.916 176.7ZM831.316 159.6L845.153 181.613H845.153L831.316 159.6ZM847.516 261.3L869.564 275.08C869.648 274.946 869.73 274.812 869.811 274.677L847.516 261.3ZM850.516 247.2L824.751 243.718C824.72 243.947 824.692 244.176 824.667 244.405L850.516 247.2ZM850.816 207L825.035 210.363C825.082 210.728 825.138 211.092 825.201 211.455L850.816 207ZM845.716 196.2L826.664 213.892C827.1 214.362 827.554 214.816 828.025 215.253L845.716 196.2ZM814.216 194.1L809.623 168.509C797.234 170.733 788.216 181.512 788.216 194.1H814.216ZM814.216 261.9H788.216C788.216 274.653 797.466 285.523 810.055 287.565L814.216 261.9ZM855.916 153V179C866.011 179 870.199 181.817 872.529 184.425L891.916 167.1L911.303 149.775C896.834 133.583 877.022 127 855.916 127V153ZM891.916 167.1L872.733 184.65C874.459 186.537 878.816 194.599 878.816 216.9H904.816H930.816C930.816 191.601 926.573 166.463 911.099 149.55L891.916 167.1ZM904.816 216.9H878.816C878.816 232.639 877.173 244.962 874.447 254.351L899.416 261.6L924.385 268.849C928.86 253.438 930.816 235.961 930.816 216.9H904.816ZM899.416 261.6L874.371 254.62C872.936 259.767 871.641 263.063 870.686 264.972C870.227 265.892 869.981 266.215 870.033 266.145C870.075 266.088 870.622 265.351 871.819 264.427L887.716 285L903.614 305.573C910.172 300.506 914.39 293.841 917.197 288.228C920.142 282.337 922.496 275.633 924.462 268.58L899.416 261.6ZM887.716 285L871.38 264.774C870.802 265.24 867.75 267.19 859.614 268.786L864.616 294.3L869.619 319.814C881.883 317.41 894.23 313.16 904.053 305.226L887.716 285ZM864.616 294.3L859.614 268.786C851.411 270.394 841.535 271.3 829.816 271.3V297.3V323.3C844.098 323.3 857.422 322.206 869.619 319.814L864.616 294.3ZM829.816 297.3V271.3C821.163 271.3 811.1 270.605 799.544 269.114L796.216 294.9L792.889 320.686C806.133 322.395 818.469 323.3 829.816 323.3V297.3ZM796.216 294.9L799.133 269.064C788.133 267.822 778.805 265.837 770.987 263.284L762.916 288L754.846 312.716C766.628 316.563 779.5 319.178 793.299 320.736L796.216 294.9ZM762.916 288H788.916V114H762.916H736.916V288H762.916ZM762.916 114L763.968 139.979L815.868 137.879L814.816 111.9L813.765 85.9212L761.865 88.0213L762.916 114ZM814.816 111.9H788.816V140.1H814.816H840.816V111.9H814.816ZM814.816 140.1H788.816C788.816 141.158 788.737 144.367 788.532 150.304L814.516 151.2L840.501 152.096C840.696 146.433 840.816 142.242 840.816 140.1H814.816ZM814.516 151.2H788.516C788.516 156.478 788.331 160.457 788.045 163.313L813.916 165.9L839.787 168.487C840.302 163.343 840.516 157.522 840.516 151.2H814.516ZM813.916 165.9L788.059 163.178C787.925 164.454 787.79 165.249 787.706 165.657C787.666 165.85 787.652 165.885 787.679 165.788C787.705 165.698 787.794 165.399 787.976 164.944L812.116 174.6L836.257 184.256C838.378 178.953 839.284 173.268 839.774 168.622L813.916 165.9ZM812.116 174.6L792.376 191.521L794.176 193.621L813.916 176.7L833.657 159.779L831.857 157.679L812.116 174.6ZM813.916 176.7L835.645 190.979C838.226 187.05 841.35 184.003 845.153 181.613L831.316 159.6L817.48 137.587C807.283 143.997 798.807 152.35 792.188 162.421L813.916 176.7ZM831.316 159.6L845.153 181.613C847.462 180.161 850.725 179 855.916 179V153V127C842.308 127 829.171 130.239 817.48 137.587L831.316 159.6ZM847.516 261.3L869.811 274.677C872.753 269.774 873.995 264.518 874.597 261.686C875.352 258.139 875.916 254.153 876.366 249.995L850.516 247.2L824.667 244.405C824.317 247.647 823.981 249.711 823.736 250.864C823.615 251.429 823.578 251.483 823.677 251.183C823.731 251.017 823.855 250.656 824.071 250.155C824.28 249.669 824.646 248.882 825.222 247.923L847.516 261.3ZM850.516 247.2L876.282 250.682C877.423 242.239 878.016 233.971 878.016 225.9H852.016H826.016C826.016 231.429 825.61 237.361 824.751 243.718L850.516 247.2ZM852.016 225.9H878.016C878.016 217.3 877.605 209.292 876.432 202.545L850.816 207L825.201 211.455C825.628 213.908 826.016 218.5 826.016 225.9H852.016ZM850.816 207L876.598 203.637C875.388 194.36 871.548 184.706 863.408 177.147L845.716 196.2L828.025 215.253C826.895 214.203 826.086 213.021 825.581 211.952C825.103 210.941 825.028 210.312 825.035 210.363L850.816 207ZM845.716 196.2L864.769 178.508C855.337 168.35 842.85 166 833.416 166V192V218C834.15 218 833.604 218.104 832.29 217.655C830.824 217.154 828.66 216.042 826.664 213.892L845.716 196.2ZM833.416 192V166C826.254 166 818.171 166.975 809.623 168.509L814.216 194.1L818.81 219.691C825.862 218.425 830.578 218 833.416 218V192ZM814.216 194.1H788.216V261.9H814.216H840.216V194.1H814.216ZM814.216 261.9L810.055 287.565C818.919 289.002 828.015 289.7 837.316 289.7V263.7V237.7C830.618 237.7 824.314 237.198 818.378 236.235L814.216 261.9ZM837.316 263.7V289.7C841.091 289.7 845.663 289.47 850.171 288.409C853.432 287.642 863.367 284.996 869.564 275.08L847.516 261.3L825.468 247.52C828.239 243.087 831.737 240.686 833.866 239.525C835.986 238.369 837.663 237.932 838.261 237.791C839.37 237.53 839.341 237.7 837.316 237.7V263.7ZM1018.24 153.9L1012.79 179.323C1012.91 179.348 1013.03 179.372 1013.14 179.395L1018.24 153.9ZM1024.84 156H1050.84C1050.84 146.67 1045.84 138.055 1037.74 133.426L1024.84 156ZM1023.34 177.9L1049.21 180.487C1049.21 180.47 1049.22 180.454 1049.22 180.437L1023.34 177.9ZM1020.64 199.2L1018.06 225.071C1031.46 226.411 1043.66 217.295 1046.18 204.065L1020.64 199.2ZM975.942 201L972.265 175.261C959.456 177.091 949.942 188.061 949.942 201H975.942ZM975.942 294V320C990.302 320 1001.94 308.359 1001.94 294H975.942ZM924.642 294H898.642C898.642 308.359 910.283 320 924.642 320V294ZM924.642 156V130C910.283 130 898.642 141.641 898.642 156H924.642ZM967.542 156L992.642 149.216C989.577 137.876 979.289 130 967.542 130V156ZM973.542 178.2L948.443 184.984C951.508 196.324 961.795 204.2 973.542 204.2V178.2ZM973.842 178.2V204.2C981.949 204.2 989.593 200.418 994.511 193.973L973.842 178.2ZM992.442 159.9L1007.31 181.23V181.23L992.442 159.9ZM1010.14 153V179C1010.74 179 1011.61 179.068 1012.79 179.323L1018.24 153.9L1023.69 128.477C1019.28 127.532 1014.75 127 1010.14 127V153ZM1018.24 153.9L1013.14 179.395C1013.98 179.563 1014.31 179.668 1014.26 179.651C1014.22 179.638 1014 179.567 1013.64 179.419C1013.3 179.274 1012.7 179.006 1011.94 178.574L1024.84 156L1037.74 133.426C1032.62 130.5 1027.09 129.154 1023.34 128.405L1018.24 153.9ZM1024.84 156H998.842C998.842 159.011 998.463 165.197 997.466 175.363L1023.34 177.9L1049.22 180.437C1050.22 170.203 1050.84 161.789 1050.84 156H1024.84ZM1023.34 177.9L997.471 175.313C996.474 185.29 995.665 191.375 995.101 194.335L1020.64 199.2L1046.18 204.065C1047.22 198.625 1048.21 190.51 1049.21 180.487L1023.34 177.9ZM1020.64 199.2L1023.23 173.329C1019.76 172.982 1014.83 172.9 1009.54 172.9V198.9V224.9C1012.1 224.9 1014.13 224.924 1015.66 224.966C1016.43 224.986 1017.02 225.01 1017.46 225.033C1017.92 225.057 1018.09 225.074 1018.06 225.071L1020.64 199.2ZM1009.54 198.9V172.9C996.026 172.9 983.559 173.648 972.265 175.261L975.942 201L979.619 226.739C987.925 225.552 997.858 224.9 1009.54 224.9V198.9ZM975.942 201H949.942V294H975.942H1001.94V201H975.942ZM975.942 294V268H924.642V294V320H975.942V294ZM924.642 294H950.642V156H924.642H898.642V294H924.642ZM924.642 156V182H967.542V156V130H924.642V156ZM967.542 156L942.443 162.784L948.443 184.984L973.542 178.2L998.642 171.416L992.642 149.216L967.542 156ZM973.542 178.2V204.2H973.842V178.2V152.2H973.542V178.2ZM973.842 178.2L994.511 193.973C998.975 188.124 1003.29 184.031 1007.31 181.23L992.442 159.9L977.576 138.57C968.395 144.969 960.309 153.076 953.173 162.426L973.842 178.2ZM992.442 159.9L1007.31 181.23C1009.35 179.806 1010.66 179.183 1011.26 178.949C1011.84 178.725 1011.39 179 1010.14 179V153V127C997.442 127 986.315 132.478 977.576 138.57L992.442 159.9ZM1149.91 256.5V230.5C1149.28 230.5 1148.64 230.523 1148.01 230.57L1149.91 256.5ZM1159.81 255.9L1185.54 252.153C1183.56 238.557 1171.35 228.849 1157.65 229.99L1159.81 255.9ZM1164.31 286.8L1175.33 310.353C1185.72 305.495 1191.7 294.403 1190.04 283.053L1164.31 286.8ZM1051.21 280.2L1033.3 299.042C1033.35 299.091 1033.4 299.139 1033.45 299.187L1051.21 280.2ZM1037.41 192.9L1012.41 185.757C1012.37 185.895 1012.34 186.034 1012.3 186.173L1037.41 192.9ZM1048.21 169.5L1029.41 151.548C1029.26 151.7 1029.12 151.854 1028.98 152.011L1048.21 169.5ZM1071.61 158.1L1078.64 183.132V183.132L1071.61 158.1ZM1146.01 162.9L1130.95 184.089V184.089L1146.01 162.9ZM1163.71 189.6L1138.46 195.802C1138.47 195.836 1138.48 195.871 1138.49 195.906L1163.71 189.6ZM1167.91 234.9L1169.44 260.855C1183.18 260.047 1193.91 248.666 1193.91 234.9H1167.91ZM1085.41 236.1V210.1C1071.05 210.1 1059.41 221.741 1059.41 236.1H1085.41ZM1089.31 250.5L1069.14 266.895C1069.33 267.141 1069.54 267.383 1069.75 267.621L1089.31 250.5ZM1101.01 256.8L1095.92 282.295C1096.24 282.361 1096.57 282.42 1096.91 282.473L1101.01 256.8ZM1088.41 189L1100.04 212.255C1100.35 212.103 1100.65 211.945 1100.94 211.782L1088.41 189ZM1085.71 196.8L1111.5 200.163V200.163L1085.71 196.8ZM1084.51 212.4L1058.53 211.504C1058.29 218.551 1060.92 225.394 1065.82 230.465C1070.71 235.536 1077.46 238.4 1084.51 238.4V212.4ZM1120.51 212.1L1121.75 238.071C1135.61 237.41 1146.51 225.979 1146.51 212.1H1120.51ZM1116.31 191.7L1094.51 205.87C1094.68 206.119 1094.84 206.366 1095.01 206.61L1116.31 191.7ZM1122.01 258V284C1128.1 284 1138.31 283.423 1151.82 282.43L1149.91 256.5L1148.01 230.57C1134.32 231.577 1125.92 232 1122.01 232V258ZM1149.91 256.5V282.5C1152.94 282.5 1157.26 282.203 1161.97 281.81L1159.81 255.9L1157.65 229.99C1155.37 230.18 1153.55 230.313 1152.17 230.398C1151.48 230.439 1150.93 230.466 1150.53 230.482C1150.32 230.49 1150.17 230.495 1150.06 230.497C1149.95 230.5 1149.9 230.5 1149.91 230.5V256.5ZM1159.81 255.9L1134.09 259.647L1138.59 290.547L1164.31 286.8L1190.04 283.053L1185.54 252.153L1159.81 255.9ZM1164.31 286.8L1153.3 263.247C1142.54 268.281 1126.68 271.6 1104.31 271.6V297.6V323.6C1131.15 323.6 1155.29 319.719 1175.33 310.353L1164.31 286.8ZM1104.31 297.6V271.6C1085.53 271.6 1075.07 266.909 1068.98 261.213L1051.21 280.2L1033.45 299.187C1052.16 316.691 1077.1 323.6 1104.31 323.6V297.6ZM1051.21 280.2L1069.13 261.358C1063.85 256.333 1058.91 246.826 1058.91 227.7H1032.91H1006.91C1006.91 255.374 1014.18 280.867 1033.3 299.042L1051.21 280.2ZM1032.91 227.7H1058.91C1058.91 217.892 1060.14 208.557 1062.53 199.627L1037.41 192.9L1012.3 186.173C1008.69 199.643 1006.91 213.508 1006.91 227.7H1032.91ZM1037.41 192.9L1062.41 200.043C1063.77 195.308 1065.04 191.892 1066.12 189.546C1067.26 187.081 1067.84 186.567 1067.45 186.989L1048.21 169.5L1028.98 152.011C1020.77 161.039 1015.85 173.717 1012.41 185.757L1037.41 192.9ZM1048.21 169.5L1067.02 187.452C1066.29 188.219 1066.39 187.801 1068.6 186.724C1070.7 185.702 1073.94 184.452 1078.64 183.132L1071.61 158.1L1064.59 133.068C1052.22 136.54 1038.66 141.859 1029.41 151.548L1048.21 169.5ZM1071.61 158.1L1078.64 183.132C1087.88 180.538 1096.82 179.3 1105.51 179.3V153.3V127.3C1091.81 127.3 1078.14 129.262 1064.59 133.068L1071.61 158.1ZM1105.51 153.3V179.3C1121.22 179.3 1128.34 182.234 1130.95 184.089L1146.01 162.9L1161.08 141.711C1145.69 130.766 1125.81 127.3 1105.51 127.3V153.3ZM1146.01 162.9L1130.95 184.089C1134.53 186.636 1137.05 190.043 1138.46 195.802L1163.71 189.6L1188.96 183.398C1184.78 166.357 1175.5 151.964 1161.08 141.711L1146.01 162.9ZM1163.71 189.6L1138.49 195.906C1140.55 204.15 1141.91 216.849 1141.91 234.9H1167.91H1193.91C1193.91 214.951 1192.48 197.45 1188.94 183.294L1163.71 189.6ZM1167.91 234.9L1166.39 208.945C1153.27 209.716 1140.48 210.1 1128.01 210.1V236.1V262.1C1141.55 262.1 1155.36 261.684 1169.44 260.855L1167.91 234.9ZM1128.01 236.1V210.1H1085.41V236.1V262.1H1128.01V236.1ZM1085.41 236.1H1059.41C1059.41 245.349 1061.18 257.11 1069.14 266.895L1089.31 250.5L1109.49 234.105C1110.91 235.845 1111.38 237.304 1111.48 237.703C1111.58 238.047 1111.41 237.625 1111.41 236.1H1085.41ZM1089.31 250.5L1069.75 267.621C1077.02 275.937 1086.46 280.403 1095.92 282.295L1101.01 256.8L1106.11 231.305C1105.76 231.235 1106.04 231.244 1106.67 231.583C1107.34 231.945 1108.15 232.54 1108.88 233.379L1089.31 250.5ZM1101.01 256.8L1096.91 282.473C1103.92 283.596 1112.52 284 1122.01 284V258V232C1113.51 232 1108.11 231.604 1105.12 231.127L1101.01 256.8ZM1088.41 189L1076.79 165.745C1066.26 171.011 1062.95 180.936 1062.27 182.895C1060.98 186.613 1060.33 190.403 1059.93 193.437L1085.71 196.8L1111.5 200.163C1111.7 198.597 1111.8 198.787 1111.41 199.905C1111.21 200.481 1110.61 202.101 1109.31 204.09C1108.07 205.982 1105.23 209.66 1100.04 212.255L1088.41 189ZM1085.71 196.8L1059.93 193.437C1059.2 199.028 1058.75 205.074 1058.53 211.504L1084.51 212.4L1110.5 213.296C1110.68 208.126 1111.02 203.772 1111.5 200.163L1085.71 196.8ZM1084.51 212.4V238.4H1100.11V212.4V186.4H1084.51V212.4ZM1100.11 212.4V238.4C1109.55 238.4 1116.88 238.302 1121.75 238.071L1120.51 212.1L1119.28 186.129C1115.74 186.298 1109.48 186.4 1100.11 186.4V212.4ZM1120.51 212.1H1146.51C1146.51 201.481 1145.26 187.708 1137.61 176.79L1116.31 191.7L1095.01 206.61C1094.32 205.623 1094.01 204.889 1093.92 204.649C1093.83 204.407 1093.89 204.498 1094 205.043C1094.24 206.204 1094.51 208.445 1094.51 212.1H1120.51ZM1116.31 191.7L1138.11 177.53C1129 163.506 1114.21 159.7 1102.51 159.7V185.7V211.7C1103.32 211.7 1102.38 211.839 1100.55 211.044C1098.42 210.12 1096.14 208.372 1094.51 205.87L1116.31 191.7ZM1102.51 185.7V159.7C1093.54 159.7 1084.37 161.551 1075.88 166.218L1088.41 189L1100.94 211.782C1100.75 211.887 1100.69 211.882 1100.86 211.841C1101.06 211.795 1101.58 211.7 1102.51 211.7V185.7ZM1454.29 294V320C1461.36 320 1468.14 317.115 1473.04 312.01C1477.94 306.906 1480.55 300.023 1480.27 292.952L1454.29 294ZM1403.89 294L1377.91 295.076C1378.49 309.005 1389.95 320 1403.89 320V294ZM1399.99 199.8L1374 200.638C1374 200.717 1374.01 200.796 1374.01 200.876L1399.99 199.8ZM1397.89 157.5L1423.8 155.341C1422.67 141.865 1411.41 131.5 1397.89 131.5V157.5ZM1396.99 157.5V131.5C1385.64 131.5 1375.61 138.854 1372.19 149.671L1396.99 157.5ZM1388.59 192.9L1414.08 197.999V197.999L1388.59 192.9ZM1387.09 200.4L1412.47 206.014C1412.51 205.843 1412.55 205.671 1412.58 205.499L1387.09 200.4ZM1366.39 294V320C1378.58 320 1389.14 311.523 1391.77 299.614L1366.39 294ZM1315.99 294L1290.52 299.256C1293.02 311.335 1303.65 320 1315.99 320V294ZM1298.59 209.7L1273.09 214.799C1273.1 214.851 1273.11 214.904 1273.12 214.956L1298.59 209.7ZM1295.59 194.7L1321.08 189.601C1321.04 189.391 1321 189.182 1320.95 188.973L1295.59 194.7ZM1286.89 157.5L1312.06 151.003C1309.1 139.522 1298.74 131.5 1286.89 131.5V157.5ZM1285.99 157.5V131.5C1272.43 131.5 1261.15 141.914 1260.07 155.427L1285.99 157.5ZM1283.89 206.4L1309.63 210.077C1309.77 209.087 1309.85 208.09 1309.88 207.09L1283.89 206.4ZM1283.59 213L1309.57 213.866C1309.58 213.578 1309.59 213.289 1309.59 213H1283.59ZM1280.89 294V320C1294.91 320 1306.41 308.881 1306.87 294.866L1280.89 294ZM1230.19 294L1204.21 292.906C1203.91 299.985 1206.52 306.879 1211.42 311.994C1216.32 317.108 1223.1 320 1230.19 320V294ZM1237.39 123V97C1223.45 97 1212 107.985 1211.41 121.906L1237.39 123ZM1323.19 123L1348.69 117.921C1346.26 105.758 1335.59 97 1323.19 97V123ZM1337.89 196.8L1363.47 192.149C1363.44 192.006 1363.41 191.863 1363.39 191.721L1337.89 196.8ZM1341.49 216.6L1315.91 221.251C1318.09 233.264 1328.34 242.139 1340.54 242.583C1352.74 243.027 1363.61 234.92 1366.66 223.097L1341.49 216.6ZM1345.99 195.9L1320.44 191.064C1320.43 191.106 1320.43 191.148 1320.42 191.19L1345.99 195.9ZM1359.79 123V97C1347.29 97 1336.57 105.888 1334.24 118.164L1359.79 123ZM1447.39 123L1473.37 121.952C1472.8 108.011 1461.34 97 1447.39 97V123ZM1454.29 294V268H1403.89V294V320H1454.29V294ZM1403.89 294L1429.87 292.924L1425.97 198.724L1399.99 199.8L1374.01 200.876L1377.91 295.076L1403.89 294ZM1399.99 199.8L1425.97 198.962C1425.37 180.246 1424.65 165.616 1423.8 155.341L1397.89 157.5L1371.98 159.659C1372.72 168.584 1373.4 182.154 1374 200.638L1399.99 199.8ZM1397.89 157.5V131.5H1396.99V157.5V183.5H1397.89V157.5ZM1396.99 157.5L1372.19 149.671C1369.35 158.679 1366.33 171.623 1363.09 187.801L1388.59 192.9L1414.08 197.999C1417.25 182.177 1419.83 171.521 1421.78 165.329L1396.99 157.5ZM1388.59 192.9L1363.09 187.801L1361.59 195.301L1387.09 200.4L1412.58 205.499L1414.08 197.999L1388.59 192.9ZM1387.09 200.4L1361.7 194.786L1341 288.386L1366.39 294L1391.77 299.614L1412.47 206.014L1387.09 200.4ZM1366.39 294V268H1315.99V294V320H1366.39V294ZM1315.99 294L1341.45 288.744L1324.05 204.444L1298.59 209.7L1273.12 214.956L1290.52 299.256L1315.99 294ZM1298.59 209.7L1324.08 204.601L1321.08 189.601L1295.59 194.7L1270.09 199.799L1273.09 214.799L1298.59 209.7ZM1295.59 194.7L1320.95 188.973C1316.76 170.436 1313.78 157.65 1312.06 151.003L1286.89 157.5L1261.71 163.997C1263.2 169.75 1266.01 181.764 1270.23 200.427L1295.59 194.7ZM1286.89 157.5V131.5H1285.99V157.5V183.5H1286.89V157.5ZM1285.99 157.5L1260.07 155.427C1259.21 166.174 1258.5 183.073 1257.9 205.71L1283.89 206.4L1309.88 207.09C1310.48 184.527 1311.16 168.826 1311.9 159.573L1285.99 157.5ZM1283.89 206.4L1258.15 202.723C1257.67 206.061 1257.59 209.816 1257.59 213H1283.59H1309.59C1309.59 211.764 1309.61 210.876 1309.64 210.281C1309.65 209.989 1309.66 209.822 1309.67 209.759C1309.67 209.686 1309.66 209.807 1309.63 210.077L1283.89 206.4ZM1283.59 213L1257.6 212.134L1254.9 293.134L1280.89 294L1306.87 294.866L1309.57 213.866L1283.59 213ZM1280.89 294V268H1230.19V294V320H1280.89V294ZM1230.19 294L1256.16 295.094L1263.36 124.094L1237.39 123L1211.41 121.906L1204.21 292.906L1230.19 294ZM1237.39 123V149H1323.19V123V97H1237.39V123ZM1323.19 123L1297.69 128.079L1312.39 201.879L1337.89 196.8L1363.39 191.721L1348.69 117.921L1323.19 123ZM1337.89 196.8L1312.31 201.451L1315.91 221.251L1341.49 216.6L1367.07 211.949L1363.47 192.149L1337.89 196.8ZM1341.49 216.6L1366.66 223.097C1368.44 216.2 1370.07 208.692 1371.56 200.61L1345.99 195.9L1320.42 191.19C1319.11 198.308 1317.73 204.6 1316.31 210.103L1341.49 216.6ZM1345.99 195.9L1371.53 200.736L1385.33 127.836L1359.79 123L1334.24 118.164L1320.44 191.064L1345.99 195.9ZM1359.79 123V149H1447.39V123V97H1359.79V123ZM1447.39 123L1421.41 124.048L1428.31 295.048L1454.29 294L1480.27 292.952L1473.37 121.952L1447.39 123ZM1487.06 132L1469.07 150.772C1469.2 150.894 1469.33 151.015 1469.46 151.134L1487.06 132ZM1487.06 99L1469.46 79.8658C1469.33 79.9853 1469.2 80.1062 1469.07 80.2283L1487.06 99ZM1478.96 156V130C1464.6 130 1452.96 141.641 1452.96 156H1478.96ZM1530.26 156H1556.26C1556.26 141.641 1544.62 130 1530.26 130V156ZM1530.26 294V320C1544.62 320 1556.26 308.359 1556.26 294H1530.26ZM1478.96 294H1452.96C1452.96 308.359 1464.6 320 1478.96 320V294ZM1504.76 138.9V112.9C1504.64 112.9 1504.56 112.895 1504.52 112.891C1504.47 112.887 1504.45 112.883 1504.46 112.885C1504.47 112.886 1504.5 112.892 1504.54 112.903C1504.58 112.915 1504.63 112.931 1504.68 112.951C1504.73 112.971 1504.78 112.992 1504.81 113.011C1504.85 113.031 1504.88 113.045 1504.89 113.05C1504.89 113.055 1504.88 113.047 1504.84 113.02C1504.81 112.993 1504.75 112.943 1504.66 112.866L1487.06 132L1469.46 151.134C1479.26 160.154 1491.45 164.9 1504.76 164.9V138.9ZM1487.06 132L1505.05 113.228C1504.86 113.049 1505.17 113.303 1505.49 114.026C1505.64 114.36 1505.74 114.693 1505.8 114.991C1505.86 115.285 1505.86 115.467 1505.86 115.5H1479.86H1453.86C1453.86 129.291 1459.38 141.482 1469.07 150.772L1487.06 132ZM1479.86 115.5H1505.86C1505.86 115.533 1505.86 115.715 1505.8 116.009C1505.74 116.307 1505.64 116.64 1505.49 116.974C1505.17 117.697 1504.86 117.951 1505.05 117.772L1487.06 99L1469.07 80.2283C1459.38 89.5184 1453.86 101.709 1453.86 115.5H1479.86ZM1487.06 99L1504.66 118.134C1504.75 118.057 1504.81 118.007 1504.84 117.98C1504.88 117.953 1504.89 117.945 1504.89 117.95C1504.88 117.955 1504.85 117.969 1504.81 117.989C1504.78 118.008 1504.73 118.029 1504.68 118.049C1504.63 118.069 1504.58 118.085 1504.54 118.097C1504.5 118.108 1504.47 118.114 1504.46 118.115C1504.45 118.117 1504.47 118.113 1504.52 118.109C1504.56 118.105 1504.64 118.1 1504.76 118.1V92.1V66.1C1491.45 66.1 1479.26 70.8463 1469.46 79.8658L1487.06 99ZM1504.76 92.1V118.1C1504.99 118.1 1505.06 118.119 1505 118.109C1504.94 118.097 1504.81 118.065 1504.63 117.994C1504.45 117.922 1504.29 117.84 1504.19 117.771C1504.09 117.705 1504.08 117.687 1504.17 117.772L1522.16 99L1540.15 80.2283C1530.39 70.8732 1518.09 66.1 1504.76 66.1V92.1ZM1522.16 99L1504.17 117.772C1504.36 117.951 1504.05 117.697 1503.73 116.974C1503.58 116.64 1503.48 116.307 1503.42 116.009C1503.36 115.715 1503.36 115.533 1503.36 115.5H1529.36H1555.36C1555.36 101.709 1549.84 89.5184 1540.15 80.2283L1522.16 99ZM1529.36 115.5H1503.36C1503.36 115.467 1503.36 115.285 1503.42 114.991C1503.48 114.693 1503.58 114.36 1503.73 114.026C1504.05 113.303 1504.36 113.049 1504.17 113.228L1522.16 132L1540.15 150.772C1549.84 141.482 1555.36 129.291 1555.36 115.5H1529.36ZM1522.16 132L1504.17 113.228C1504.08 113.313 1504.09 113.295 1504.19 113.229C1504.29 113.16 1504.45 113.077 1504.63 113.006C1504.81 112.935 1504.94 112.903 1505 112.891C1505.06 112.881 1504.99 112.9 1504.76 112.9V138.9V164.9C1518.09 164.9 1530.39 160.127 1540.15 150.772L1522.16 132ZM1478.96 156V182H1530.26V156V130H1478.96V156ZM1530.26 156H1504.26V294H1530.26H1556.26V156H1530.26ZM1530.26 294V268H1478.96V294V320H1530.26V294ZM1478.96 294H1504.96V156H1478.96H1452.96V294H1478.96ZM1771.4 165.6L1749.6 179.77C1749.65 179.854 1749.71 179.938 1749.76 180.022L1771.4 165.6ZM1776.2 294V320C1790.56 320 1802.2 308.359 1802.2 294H1776.2ZM1724.9 294H1698.9C1698.9 308.359 1710.54 320 1724.9 320V294ZM1722.8 197.1L1741.18 178.715V178.715L1722.8 197.1ZM1712.6 194.7V168.7C1711.88 168.7 1711.16 168.73 1710.44 168.79L1712.6 194.7ZM1709 195L1710.67 220.946C1710.83 220.936 1710.99 220.924 1711.16 220.91L1709 195ZM1691.3 199.2L1681.05 175.302C1671.08 179.577 1664.81 189.597 1665.33 200.437L1691.3 199.2ZM1691.6 294V320C1705.96 320 1717.6 308.359 1717.6 294H1691.6ZM1640.3 294H1614.3C1614.3 308.359 1625.94 320 1640.3 320V294ZM1638.2 197.1L1619.81 215.485L1619.81 215.485L1638.2 197.1ZM1628 194.7V168.7C1627.28 168.7 1626.56 168.73 1625.84 168.79L1628 194.7ZM1624.4 195L1625.32 220.983C1625.74 220.969 1626.15 220.944 1626.56 220.91L1624.4 195ZM1607 198.9L1597.34 174.76C1587.47 178.708 1581 188.268 1581 198.9H1607ZM1607 294V320C1621.36 320 1633 308.359 1633 294H1607ZM1555.7 294H1529.7C1529.7 308.359 1541.34 320 1555.7 320V294ZM1555.7 156V130C1541.34 130 1529.7 141.641 1529.7 156H1555.7ZM1597.4 156L1622.68 149.932C1619.87 138.242 1609.42 130 1597.4 130V156ZM1602.8 178.5L1577.51 184.568C1579.87 194.364 1587.66 201.92 1597.53 203.961C1607.4 206.002 1617.55 202.16 1623.6 194.1L1602.8 178.5ZM1625.6 159.3L1636.56 182.875C1636.71 182.805 1636.86 182.735 1637.01 182.663L1625.6 159.3ZM1672.7 156.3L1664.47 180.966C1664.55 180.99 1664.62 181.014 1664.69 181.038L1672.7 156.3ZM1686.8 165.6L1665 179.77C1665.05 179.854 1665.11 179.938 1665.16 180.022L1686.8 165.6ZM1689.8 175.5L1664.15 179.774C1665.83 189.836 1673.23 197.987 1683.09 200.62C1692.94 203.252 1703.43 199.878 1709.9 191.992L1689.8 175.5ZM1757.3 156.3L1749.07 180.966C1749.15 180.99 1749.22 181.014 1749.29 181.038L1757.3 156.3ZM1771.4 165.6L1749.76 180.022C1747.6 176.784 1747.54 174.613 1748.03 177.012C1748.34 178.56 1748.74 181.243 1749.09 185.378C1749.8 193.592 1750.2 205.489 1750.2 221.4H1776.2H1802.2C1802.2 204.911 1801.79 191.308 1800.9 180.922C1800.46 175.757 1799.85 170.865 1798.97 166.563C1798.26 163.112 1796.79 156.816 1793.03 151.178L1771.4 165.6ZM1776.2 221.4H1750.2V294H1776.2H1802.2V221.4H1776.2ZM1776.2 294V268H1724.9V294V320H1776.2V294ZM1724.9 294H1750.9V226.5H1724.9H1698.9V294H1724.9ZM1724.9 226.5H1750.9V210.3H1724.9H1698.9V226.5H1724.9ZM1724.9 210.3H1750.9C1750.9 205.999 1750.71 201.507 1750.05 197.365C1749.72 195.29 1749.17 192.647 1748.16 189.861C1747.25 187.348 1745.31 182.845 1741.18 178.715L1722.8 197.1L1704.41 215.485C1702.6 213.669 1701.42 211.906 1700.7 210.637C1699.97 209.353 1699.52 208.268 1699.27 207.564C1699.01 206.842 1698.86 206.296 1698.79 206.002C1698.76 205.845 1698.73 205.726 1698.72 205.652C1698.7 205.578 1698.7 205.538 1698.69 205.535C1698.69 205.535 1698.71 205.643 1698.74 205.877C1698.76 206.109 1698.79 206.431 1698.81 206.852C1698.86 207.706 1698.9 208.842 1698.9 210.3H1724.9ZM1722.8 197.1L1741.18 178.715C1735.58 173.115 1729.05 170.944 1725 169.991C1720.65 168.968 1716.33 168.7 1712.6 168.7V194.7V220.7C1714.07 220.7 1714.04 220.832 1713.09 220.609C1712.56 220.484 1711.45 220.18 1710.01 219.49C1708.56 218.796 1706.5 217.568 1704.41 215.485L1722.8 197.1ZM1712.6 194.7L1710.44 168.79L1706.84 169.09L1709 195L1711.16 220.91L1714.76 220.61L1712.6 194.7ZM1709 195L1707.32 169.054C1698.23 169.641 1689.43 171.714 1681.05 175.302L1691.3 199.2L1701.54 223.098C1704.37 221.886 1707.36 221.159 1710.67 220.946L1709 195ZM1691.3 199.2L1665.33 200.437C1665.49 203.946 1665.6 210.779 1665.6 221.4H1691.6H1717.6C1717.6 210.821 1717.5 202.854 1717.27 197.963L1691.3 199.2ZM1691.6 221.4H1665.6V294H1691.6H1717.6V221.4H1691.6ZM1691.6 294V268H1640.3V294V320H1691.6V294ZM1640.3 294H1666.3V226.5H1640.3H1614.3V294H1640.3ZM1640.3 226.5H1666.3V208.5H1640.3H1614.3V226.5H1640.3ZM1640.3 208.5H1666.3C1666.3 204.644 1666.1 200.385 1665.34 196.29C1664.8 193.345 1663.16 185.29 1656.58 178.715L1638.2 197.1L1619.81 215.485C1616.89 212.564 1615.55 209.676 1615.01 208.336C1614.42 206.886 1614.23 205.886 1614.2 205.71C1614.15 205.415 1614.3 206.156 1614.3 208.5H1640.3ZM1638.2 197.1L1656.58 178.715C1650.98 173.115 1644.45 170.944 1640.4 169.991C1636.05 168.968 1631.73 168.7 1628 168.7V194.7V220.7C1629.47 220.7 1629.44 220.832 1628.49 220.609C1627.96 220.484 1626.85 220.18 1625.41 219.49C1623.96 218.796 1621.9 217.568 1619.81 215.485L1638.2 197.1ZM1628 194.7L1625.84 168.79L1622.24 169.09L1624.4 195L1626.56 220.91L1630.16 220.61L1628 194.7ZM1624.4 195L1623.47 169.017C1614.45 169.338 1605.7 171.415 1597.34 174.76L1607 198.9L1616.65 223.04C1620.29 221.585 1623.14 221.061 1625.32 220.983L1624.4 195ZM1607 198.9H1581V294H1607H1633V198.9H1607ZM1607 294V268H1555.7V294V320H1607V294ZM1555.7 294H1581.7V156H1555.7H1529.7V294H1555.7ZM1555.7 156V182H1597.4V156V130H1555.7V156ZM1597.4 156L1572.11 162.068L1577.51 184.568L1602.8 178.5L1628.08 172.432L1622.68 149.932L1597.4 156ZM1602.8 178.5L1623.6 194.1C1628.04 188.178 1632.43 184.798 1636.56 182.875L1625.6 159.3L1614.63 135.725C1601.57 141.802 1590.76 151.222 1582 162.9L1602.8 178.5ZM1625.6 159.3L1637.01 182.663C1642.37 180.043 1647.19 179 1651.7 179V153V127C1638.6 127 1626.02 130.157 1614.19 135.937L1625.6 159.3ZM1651.7 153V179C1656.48 179 1660.69 179.704 1664.47 180.966L1672.7 156.3L1680.92 131.634C1671.5 128.496 1661.71 127 1651.7 127V153ZM1672.7 156.3L1664.69 181.038C1665.54 181.31 1666.13 181.552 1666.52 181.732C1666.91 181.912 1667.05 182.009 1667.01 181.979C1666.9 181.909 1665.97 181.26 1665 179.77L1686.8 165.6L1708.6 151.43C1701.47 140.471 1690.46 134.72 1680.7 131.562L1672.7 156.3ZM1686.8 165.6L1665.16 180.022C1664.76 179.423 1664.47 178.902 1664.25 178.498C1664.04 178.093 1663.89 177.762 1663.79 177.53C1663.59 177.084 1663.53 176.864 1663.56 176.965C1663.59 177.053 1663.67 177.325 1663.78 177.821C1663.89 178.312 1664.01 178.956 1664.15 179.774L1689.8 175.5L1715.44 171.226C1714.61 166.226 1712.98 157.999 1708.43 151.178L1686.8 165.6ZM1689.8 175.5L1709.9 191.992C1714.03 186.951 1718.15 183.964 1722.15 182.207L1711.7 158.4L1701.25 134.593C1688.85 140.036 1678.36 148.449 1669.7 159.008L1689.8 175.5ZM1711.7 158.4L1722.15 182.207C1727.36 179.919 1732.02 179 1736.3 179V153V127C1724.18 127 1712.43 129.681 1701.25 134.593L1711.7 158.4ZM1736.3 153V179C1741.08 179 1745.29 179.704 1749.07 180.966L1757.3 156.3L1765.52 131.634C1756.1 128.496 1746.31 127 1736.3 127V153ZM1757.3 156.3L1749.29 181.038C1750.14 181.31 1750.73 181.552 1751.12 181.732C1751.51 181.912 1751.65 182.009 1751.61 181.979C1751.5 181.909 1750.57 181.26 1749.6 179.77L1771.4 165.6L1793.2 151.43C1786.07 140.471 1775.06 134.72 1765.3 131.562L1757.3 156.3Z" fill="white" mask="url(#path-1-outside-1_53_182)"/>
<mask id="mask0_53_182" style="mask-type:alpha" maskUnits="userSpaceOnUse" x="-25" y="26" width="352" height="353">
<rect x="-12" y="39.7856" width="326" height="326" fill="#D9D9D9" stroke="white" stroke-width="26"/>
</mask>
<g mask="url(#mask0_53_182)">
<path d="M151 64.7856C169.984 64.7856 187.994 68.3978 204.9 75.6929C221.554 82.8791 236.171 92.6964 248.63 105.156C261.089 117.615 270.907 132.231 278.093 148.885C285.388 165.791 289 183.802 289 202.786C289 221.769 285.388 239.78 278.093 256.686C270.907 273.34 261.089 287.956 248.63 300.416C236.171 312.875 221.554 322.692 204.9 329.878C187.994 337.173 169.984 340.786 151 340.786C132.016 340.786 114.006 337.173 97.0996 329.878C80.4458 322.692 65.8295 312.875 53.3701 300.416C40.9107 287.956 31.0935 273.34 23.9072 256.686C16.6122 239.78 13 221.769 13 202.786C13 183.802 16.6122 165.791 23.9072 148.885C31.0935 132.231 40.9107 117.615 53.3701 105.156C65.8295 92.6964 80.4458 82.8791 97.0996 75.6929C114.006 68.3978 132.016 64.7856 151 64.7856ZM126.215 154.083C119.956 164.799 112.32 174.526 103.315 183.228C91.8434 194.314 78.787 203.1 64.2197 209.573C65.6421 231.104 73.9509 249.227 89.2549 264.531C106.141 281.417 126.458 289.786 151 289.786C175.542 289.786 195.859 281.417 212.745 264.531C229.631 247.645 238 227.327 238 202.786C238 198.328 237.722 194.059 237.177 189.972C237.162 189.863 237.145 189.753 237.13 189.644C236.432 189.739 235.735 189.83 235.037 189.914C230.11 190.5 225.011 190.786 219.75 190.786C213.498 190.786 207.339 190.38 201.277 189.575C203.997 190.922 206.519 192.732 208.786 195C214.31 200.523 217.125 207.556 217.125 215.286C217.125 223.015 214.31 230.048 208.786 235.572C203.262 241.096 196.23 243.911 188.5 243.911C180.77 243.911 173.738 241.096 168.214 235.572C162.69 230.048 159.875 223.015 159.875 215.286C159.875 207.556 162.69 200.523 168.214 195C173.225 189.989 179.477 187.206 186.365 186.733C177.464 184.508 168.79 181.37 160.36 177.311C147.713 171.222 136.322 163.469 126.215 154.083ZM113.5 186.661C121.23 186.661 128.262 189.476 133.786 195C139.31 200.523 142.125 207.556 142.125 215.286C142.125 223.015 139.31 230.048 133.786 235.572C128.262 241.096 121.23 243.911 113.5 243.911C105.77 243.911 98.7377 241.096 93.2139 235.572C87.6901 230.048 84.875 223.015 84.875 215.286C84.875 207.556 87.6901 200.523 93.2139 195C98.7377 189.476 105.77 186.661 113.5 186.661Z" fill="#4D2FB2" stroke="white" stroke-width="26"/>
</g>
</svg>
