<svg width="478" height="194" viewBox="0 0 478 194" fill="none" xmlns="http://www.w3.org/2000/svg">
<mask id="mask0_244_8" style="mask-type:alpha" maskUnits="userSpaceOnUse" x="0" y="0" width="478" height="194">
<rect width="478" height="194" fill="#8892BF"/>
</mask>
<g mask="url(#mask0_244_8)">
<rect width="478" height="194" fill="#EACA4B"/>
<path d="M38.0688 95.512C42.8625 97.1907 47.9197 97.9989 53 97.898C58.0804 97.9982 63.1376 97.1894 67.9312 95.51C71.6731 94.056 73 92.44 73 91.51V84.4C71.6918 85.2728 70.2883 85.9948 68.8165 86.552C63.7446 88.3614 58.3865 89.2436 53 89.156C47.6139 89.2419 42.2564 88.3612 37.1835 86.556C35.711 85.9988 34.3073 85.2754 33 84.4V91.5C33 92.448 34.3309 94.056 38.0688 95.512Z" fill="white"/>
<path d="M38.0688 108.922C39.7622 109.565 41.5086 110.061 43.2881 110.404C46.488 111.021 49.7408 111.324 53 111.31C56.2592 111.325 59.5119 111.022 62.7119 110.406C64.4914 110.063 66.2378 109.567 67.9312 108.924C71.6731 107.47 73 105.854 73 104.924V98.144C71.9186 98.7923 70.7821 99.3444 69.6034 99.794C64.2753 101.674 58.6513 102.583 53 102.48C47.3481 102.58 41.7241 101.667 36.3966 99.784C35.2185 99.3333 34.082 98.7812 33 98.134V104.92C33 105.852 34.3309 107.462 38.0688 108.922Z" fill="white"/>
<path d="M53 125C64.0409 125 73 121.512 73 117.212V111.538C72.0163 112.129 70.9857 112.638 69.9186 113.062L69.6034 113.188C64.2763 115.073 58.6523 115.988 53 115.89C47.3475 115.991 41.723 115.076 36.3966 113.188C36.2882 113.148 36.1838 113.102 36.0814 113.062C35.0143 112.638 33.9837 112.129 33 111.538V117.212C33 121.512 41.9591 125 53 125Z" fill="white"/>
<path d="M53 84.576C64.0457 84.576 73 81.0892 73 76.788C73 72.4868 64.0457 69 53 69C41.9543 69 33 72.4868 33 76.788C33 81.0892 41.9543 84.576 53 84.576Z" fill="white"/>
<path d="M0.0701828 164L112.118 194.023L102.657 229.33L-9.39023 199.307L0.0701828 164Z" fill="#18005B"/>
<path d="M-1.6265 141.518L201.842 196.038L198.308 209.227L-5.1607 154.708L-1.6265 141.518Z" fill="#18005B"/>
<path d="M-2.84124 124.052L257.68 193.858L255.361 202.515L-5.1607 132.708L-2.84124 124.052Z" fill="#18005B"/>
<rect x="149" y="72" width="315" height="50" rx="8" stroke="#EBEBEB" stroke-width="8"/>
<rect x="155" y="78" width="59" height="38" rx="3" fill="white"/>
<rect x="216" y="78" width="59" height="38" rx="3" fill="white"/>
<path d="M176.78 183.24C175.607 183.24 174.587 183.047 173.72 182.66C172.853 182.273 172.153 181.747 171.62 181.08L173.36 179.16C173.867 179.72 174.42 180.133 175.02 180.4C175.633 180.667 176.253 180.8 176.88 180.8C177.6 180.8 178.147 180.64 178.52 180.32C178.893 180 179.08 179.54 179.08 178.94C179.08 178.447 178.933 178.073 178.64 177.82C178.36 177.567 177.88 177.387 177.2 177.28L175.74 177.04C174.487 176.827 173.58 176.367 173.02 175.66C172.46 174.94 172.18 174.067 172.18 173.04C172.18 171.693 172.62 170.653 173.5 169.92C174.38 169.173 175.613 168.8 177.2 168.8C178.28 168.8 179.22 168.967 180.02 169.3C180.82 169.633 181.467 170.087 181.96 170.66L180.26 172.56C179.887 172.147 179.447 171.827 178.94 171.6C178.433 171.36 177.86 171.24 177.22 171.24C175.873 171.24 175.2 171.793 175.2 172.9C175.2 173.38 175.347 173.74 175.64 173.98C175.947 174.22 176.44 174.4 177.12 174.52L178.58 174.78C179.713 174.98 180.587 175.407 181.2 176.06C181.813 176.713 182.12 177.593 182.12 178.7C182.12 179.353 182.007 179.96 181.78 180.52C181.553 181.067 181.213 181.547 180.76 181.96C180.307 182.36 179.747 182.673 179.08 182.9C178.427 183.127 177.66 183.24 176.78 183.24ZM189.792 183C188.726 183 187.932 182.72 187.412 182.16C186.892 181.6 186.632 180.887 186.632 180.02V174.98H183.832V172.68H185.652C186.092 172.68 186.406 172.593 186.592 172.42C186.779 172.247 186.872 171.927 186.872 171.46V169.04H189.592V172.68H193.612V174.98H189.592V180.7H193.612V183H189.792ZM196.464 180.7H198.844V174.98H196.464V172.68H201.804V175.6H201.944C202.038 175.227 202.164 174.867 202.324 174.52C202.498 174.16 202.711 173.847 202.964 173.58C203.231 173.3 203.551 173.08 203.924 172.92C204.298 172.76 204.738 172.68 205.244 172.68H206.224V175.4H204.024C203.291 175.4 202.738 175.62 202.364 176.06C201.991 176.487 201.804 177.013 201.804 177.64V180.7H205.204V183H196.464V180.7ZM214.717 181.12H214.597C214.37 181.707 214.01 182.207 213.517 182.62C213.037 183.033 212.383 183.24 211.557 183.24C211.063 183.24 210.61 183.16 210.197 183C209.783 182.827 209.43 182.573 209.137 182.24C208.843 181.907 208.61 181.5 208.437 181.02C208.277 180.54 208.197 179.987 208.197 179.36V172.68H211.157V178.96C211.157 180.293 211.737 180.96 212.897 180.96C213.123 180.96 213.343 180.933 213.557 180.88C213.783 180.813 213.977 180.72 214.137 180.6C214.31 180.467 214.45 180.307 214.557 180.12C214.663 179.933 214.717 179.713 214.717 179.46V172.68H217.677V183H214.717V181.12ZM225.389 183.24C224.575 183.24 223.842 183.12 223.189 182.88C222.549 182.627 222.002 182.267 221.549 181.8C221.109 181.333 220.769 180.767 220.529 180.1C220.289 179.433 220.169 178.68 220.169 177.84C220.169 177 220.289 176.247 220.529 175.58C220.769 174.913 221.109 174.347 221.549 173.88C222.002 173.413 222.549 173.06 223.189 172.82C223.842 172.567 224.569 172.44 225.369 172.44C226.502 172.44 227.409 172.673 228.089 173.14C228.782 173.593 229.309 174.2 229.669 174.96L227.389 176.2C227.202 175.8 226.955 175.467 226.649 175.2C226.355 174.933 225.929 174.8 225.369 174.8C224.689 174.8 224.162 175 223.789 175.4C223.429 175.787 223.249 176.32 223.249 177V178.68C223.249 179.36 223.429 179.9 223.789 180.3C224.162 180.687 224.702 180.88 225.409 180.88C225.982 180.88 226.429 180.747 226.749 180.48C227.082 180.213 227.362 179.867 227.589 179.44L229.829 180.72C229.455 181.48 228.909 182.093 228.189 182.56C227.482 183.013 226.549 183.24 225.389 183.24ZM237.761 183C236.694 183 235.901 182.72 235.381 182.16C234.861 181.6 234.601 180.887 234.601 180.02V174.98H231.801V172.68H233.621C234.061 172.68 234.374 172.593 234.561 172.42C234.748 172.247 234.841 171.927 234.841 171.46V169.04H237.561V172.68H241.581V174.98H237.561V180.7H241.581V183H237.761ZM250.693 181.12H250.573C250.346 181.707 249.986 182.207 249.493 182.62C249.013 183.033 248.36 183.24 247.533 183.24C247.04 183.24 246.586 183.16 246.173 183C245.76 182.827 245.406 182.573 245.113 182.24C244.82 181.907 244.586 181.5 244.413 181.02C244.253 180.54 244.173 179.987 244.173 179.36V172.68H247.133V178.96C247.133 180.293 247.713 180.96 248.873 180.96C249.1 180.96 249.32 180.933 249.533 180.88C249.76 180.813 249.953 180.72 250.113 180.6C250.286 180.467 250.426 180.307 250.533 180.12C250.64 179.933 250.693 179.713 250.693 179.46V172.68H253.653V183H250.693V181.12ZM256.425 180.7H258.805V174.98H256.425V172.68H261.765V175.6H261.905C261.999 175.227 262.125 174.867 262.285 174.52C262.459 174.16 262.672 173.847 262.925 173.58C263.192 173.3 263.512 173.08 263.885 172.92C264.259 172.76 264.699 172.68 265.205 172.68H266.185V175.4H263.985C263.252 175.4 262.699 175.62 262.325 176.06C261.952 176.487 261.765 177.013 261.765 177.64V180.7H265.165V183H256.425V180.7ZM273.218 183.24C271.484 183.24 270.171 182.76 269.278 181.8C268.384 180.84 267.938 179.533 267.938 177.88C267.938 177.04 268.051 176.287 268.278 175.62C268.518 174.94 268.851 174.367 269.278 173.9C269.718 173.42 270.244 173.06 270.858 172.82C271.484 172.567 272.184 172.44 272.958 172.44C273.731 172.44 274.424 172.567 275.038 172.82C275.651 173.06 276.171 173.407 276.598 173.86C277.024 174.313 277.351 174.867 277.578 175.52C277.818 176.16 277.938 176.88 277.938 177.68V178.56H270.878V178.74C270.878 179.407 271.084 179.947 271.498 180.36C271.911 180.76 272.518 180.96 273.318 180.96C273.931 180.96 274.458 180.847 274.898 180.62C275.338 180.38 275.718 180.067 276.038 179.68L277.638 181.42C277.238 181.913 276.678 182.34 275.958 182.7C275.238 183.06 274.324 183.24 273.218 183.24ZM272.978 174.56C272.338 174.56 271.824 174.76 271.438 175.16C271.064 175.547 270.878 176.073 270.878 176.74V176.9H275.038V176.74C275.038 176.06 274.851 175.527 274.478 175.14C274.118 174.753 273.618 174.56 272.978 174.56ZM286.79 181.12H286.65C286.383 181.747 286.01 182.26 285.53 182.66C285.063 183.047 284.416 183.24 283.59 183.24C283.016 183.24 282.49 183.133 282.01 182.92C281.543 182.707 281.136 182.38 280.79 181.94C280.456 181.5 280.19 180.94 279.99 180.26C279.803 179.58 279.71 178.773 279.71 177.84C279.71 176.907 279.803 176.1 279.99 175.42C280.19 174.74 280.456 174.18 280.79 173.74C281.136 173.3 281.543 172.973 282.01 172.76C282.49 172.547 283.016 172.44 283.59 172.44C284.003 172.44 284.37 172.493 284.69 172.6C285.01 172.707 285.29 172.853 285.53 173.04C285.783 173.227 285.996 173.453 286.17 173.72C286.356 173.973 286.516 174.253 286.65 174.56H286.79V168.2H289.75V183H286.79V181.12ZM284.87 180.94C285.39 180.94 285.836 180.813 286.21 180.56C286.596 180.307 286.79 179.907 286.79 179.36V176.32C286.79 175.773 286.596 175.373 286.21 175.12C285.836 174.867 285.39 174.74 284.87 174.74C284.203 174.74 283.69 174.947 283.33 175.36C282.97 175.76 282.79 176.32 282.79 177.04V178.64C282.79 179.36 282.97 179.927 283.33 180.34C283.69 180.74 284.203 180.94 284.87 180.94ZM313.434 186.82H310.594C309.514 186.82 308.747 186.56 308.294 186.04C307.841 185.52 307.614 184.82 307.614 183.94V183.12C306.187 182.84 305.134 182.093 304.454 180.88C303.787 179.653 303.454 178.033 303.454 176.02C303.454 173.74 303.894 171.967 304.774 170.7C305.667 169.433 307.047 168.8 308.914 168.8C310.781 168.8 312.154 169.433 313.034 170.7C313.927 171.967 314.374 173.74 314.374 176.02C314.374 178.033 314.034 179.653 313.354 180.88C312.687 182.093 311.641 182.84 310.214 183.12V184.68H313.434V186.82ZM308.914 180.82C309.767 180.82 310.354 180.507 310.674 179.88C311.007 179.24 311.174 178.353 311.174 177.22V174.8C311.174 173.68 311.007 172.807 310.674 172.18C310.354 171.54 309.767 171.22 308.914 171.22C308.061 171.22 307.467 171.54 307.134 172.18C306.814 172.807 306.654 173.68 306.654 174.8V177.24C306.654 178.36 306.814 179.24 307.134 179.88C307.467 180.507 308.061 180.82 308.914 180.82ZM322.646 181.12H322.526C322.3 181.707 321.94 182.207 321.446 182.62C320.966 183.033 320.313 183.24 319.486 183.24C318.993 183.24 318.54 183.16 318.126 183C317.713 182.827 317.36 182.573 317.066 182.24C316.773 181.907 316.54 181.5 316.366 181.02C316.206 180.54 316.126 179.987 316.126 179.36V172.68H319.086V178.96C319.086 180.293 319.666 180.96 320.826 180.96C321.053 180.96 321.273 180.933 321.486 180.88C321.713 180.813 321.906 180.72 322.066 180.6C322.24 180.467 322.38 180.307 322.486 180.12C322.593 179.933 322.646 179.713 322.646 179.46V172.68H325.606V183H322.646V181.12ZM333.178 183.24C331.445 183.24 330.132 182.76 329.238 181.8C328.345 180.84 327.898 179.533 327.898 177.88C327.898 177.04 328.012 176.287 328.238 175.62C328.478 174.94 328.812 174.367 329.238 173.9C329.678 173.42 330.205 173.06 330.818 172.82C331.445 172.567 332.145 172.44 332.918 172.44C333.692 172.44 334.385 172.567 334.998 172.82C335.612 173.06 336.132 173.407 336.558 173.86C336.985 174.313 337.312 174.867 337.538 175.52C337.778 176.16 337.898 176.88 337.898 177.68V178.56H330.838V178.74C330.838 179.407 331.045 179.947 331.458 180.36C331.872 180.76 332.478 180.96 333.278 180.96C333.892 180.96 334.418 180.847 334.858 180.62C335.298 180.38 335.678 180.067 335.998 179.68L337.598 181.42C337.198 181.913 336.638 182.34 335.918 182.7C335.198 183.06 334.285 183.24 333.178 183.24ZM332.938 174.56C332.298 174.56 331.785 174.76 331.398 175.16C331.025 175.547 330.838 176.073 330.838 176.74V176.9H334.998V176.74C334.998 176.06 334.812 175.527 334.438 175.14C334.078 174.753 333.578 174.56 332.938 174.56ZM340.371 180.7H342.751V174.98H340.371V172.68H345.711V175.6H345.851C345.944 175.227 346.071 174.867 346.231 174.52C346.404 174.16 346.617 173.847 346.871 173.58C347.137 173.3 347.457 173.08 347.831 172.92C348.204 172.76 348.644 172.68 349.151 172.68H350.131V175.4H347.931C347.197 175.4 346.644 175.62 346.271 176.06C345.897 176.487 345.711 177.013 345.711 177.64V180.7H349.111V183H340.371V180.7ZM359.483 172.68H362.503L357.643 184.66C357.336 185.42 356.929 186 356.423 186.4C355.916 186.8 355.223 187 354.343 187H352.303V184.7H354.783L355.423 182.94L351.263 172.68H354.443L355.943 177.02L356.883 180.02H357.043L357.943 177.02L359.483 172.68ZM376.707 183V169.04H379.727V180.54H385.727V183H376.707ZM396.599 183C395.986 183 395.493 182.847 395.119 182.54C394.746 182.22 394.526 181.767 394.459 181.18H394.359C394.173 181.86 393.799 182.373 393.239 182.72C392.693 183.067 392.019 183.24 391.219 183.24C390.219 183.24 389.413 182.973 388.799 182.44C388.199 181.893 387.899 181.133 387.899 180.16C387.899 179.08 388.293 178.28 389.079 177.76C389.866 177.24 391.019 176.98 392.539 176.98H394.199V176.46C394.199 175.847 394.053 175.387 393.759 175.08C393.479 174.76 392.999 174.6 392.319 174.6C391.693 174.6 391.186 174.72 390.799 174.96C390.413 175.2 390.079 175.513 389.799 175.9L388.179 174.46C388.526 173.873 389.066 173.393 389.799 173.02C390.546 172.633 391.499 172.44 392.659 172.44C394.073 172.44 395.173 172.767 395.959 173.42C396.759 174.06 397.159 175.033 397.159 176.34V180.86H398.299V183H396.599ZM392.339 181.3C392.859 181.3 393.299 181.173 393.659 180.92C394.019 180.667 394.199 180.3 394.199 179.82V178.58H392.619C391.406 178.58 390.799 178.987 390.799 179.8V180.2C390.799 180.56 390.939 180.833 391.219 181.02C391.499 181.207 391.873 181.3 392.339 181.3ZM400.152 183V172.68H403.112V174.56H403.232C403.352 174.267 403.498 173.993 403.672 173.74C403.845 173.487 404.052 173.267 404.292 173.08C404.545 172.88 404.832 172.727 405.152 172.62C405.485 172.5 405.858 172.44 406.272 172.44C406.765 172.44 407.218 172.527 407.632 172.7C408.045 172.86 408.398 173.107 408.692 173.44C408.985 173.773 409.212 174.18 409.372 174.66C409.545 175.14 409.632 175.693 409.632 176.32V183H406.672V176.72C406.672 175.387 406.092 174.72 404.932 174.72C404.705 174.72 404.478 174.753 404.252 174.82C404.038 174.873 403.845 174.967 403.672 175.1C403.498 175.22 403.358 175.373 403.252 175.56C403.158 175.747 403.112 175.967 403.112 176.22V183H400.152ZM422.504 184.04C422.504 185.133 422.044 185.94 421.124 186.46C420.204 186.98 418.757 187.24 416.784 187.24C415.797 187.24 414.984 187.18 414.344 187.06C413.704 186.953 413.19 186.793 412.804 186.58C412.43 186.367 412.164 186.113 412.004 185.82C411.857 185.527 411.784 185.207 411.784 184.86C411.784 184.273 411.957 183.827 412.304 183.52C412.65 183.227 413.137 183 413.764 182.84V182.72C413.324 182.587 412.97 182.4 412.704 182.16C412.45 181.907 412.324 181.553 412.324 181.1C412.324 180.593 412.49 180.22 412.824 179.98C413.17 179.74 413.624 179.553 414.184 179.42V179.3C413.57 179.007 413.09 178.593 412.744 178.06C412.41 177.527 412.244 176.88 412.244 176.12C412.244 175.52 412.35 174.993 412.564 174.54C412.777 174.073 413.077 173.687 413.464 173.38C413.864 173.073 414.337 172.84 414.884 172.68C415.43 172.52 416.044 172.44 416.724 172.44C417.377 172.44 417.984 172.513 418.544 172.66V172.1C418.544 171.7 418.684 171.367 418.964 171.1C419.244 170.833 419.63 170.7 420.124 170.7H421.944V172.86H419.464V173.04C420.024 173.333 420.457 173.74 420.764 174.26C421.084 174.767 421.244 175.387 421.244 176.12C421.244 176.72 421.137 177.247 420.924 177.7C420.71 178.153 420.404 178.54 420.004 178.86C419.604 179.167 419.124 179.4 418.564 179.56C418.017 179.72 417.404 179.8 416.724 179.8C416.417 179.8 416.124 179.787 415.844 179.76C415.564 179.72 415.297 179.667 415.044 179.6C414.897 179.68 414.77 179.78 414.664 179.9C414.57 180.02 414.524 180.173 414.524 180.36C414.524 180.52 414.564 180.647 414.644 180.74C414.724 180.833 414.83 180.907 414.964 180.96C415.11 181 415.277 181.027 415.464 181.04C415.65 181.053 415.844 181.06 416.044 181.06H418.404C419.137 181.06 419.764 181.133 420.284 181.28C420.804 181.427 421.23 181.633 421.564 181.9C421.897 182.167 422.137 182.48 422.284 182.84C422.43 183.2 422.504 183.6 422.504 184.04ZM419.704 184.26C419.704 183.993 419.597 183.78 419.384 183.62C419.17 183.473 418.764 183.4 418.164 183.4H414.624C414.357 183.627 414.224 183.907 414.224 184.24C414.224 184.56 414.357 184.82 414.624 185.02C414.904 185.233 415.37 185.34 416.024 185.34H417.764C418.444 185.34 418.937 185.247 419.244 185.06C419.55 184.873 419.704 184.607 419.704 184.26ZM416.724 177.92C417.324 177.92 417.757 177.773 418.024 177.48C418.304 177.187 418.444 176.813 418.444 176.36V175.88C418.444 175.427 418.304 175.053 418.024 174.76C417.757 174.467 417.324 174.32 416.724 174.32C416.137 174.32 415.71 174.467 415.444 174.76C415.177 175.053 415.044 175.427 415.044 175.88V176.36C415.044 176.813 415.177 177.187 415.444 177.48C415.71 177.773 416.137 177.92 416.724 177.92ZM430.576 181.12H430.456C430.229 181.707 429.869 182.207 429.376 182.62C428.896 183.033 428.243 183.24 427.416 183.24C426.923 183.24 426.469 183.16 426.056 183C425.643 182.827 425.289 182.573 424.996 182.24C424.703 181.907 424.469 181.5 424.296 181.02C424.136 180.54 424.056 179.987 424.056 179.36V172.68H427.016V178.96C427.016 180.293 427.596 180.96 428.756 180.96C428.983 180.96 429.203 180.933 429.416 180.88C429.643 180.813 429.836 180.72 429.996 180.6C430.169 180.467 430.309 180.307 430.416 180.12C430.523 179.933 430.576 179.713 430.576 179.46V172.68H433.536V183H430.576V181.12ZM444.568 183C443.955 183 443.461 182.847 443.088 182.54C442.715 182.22 442.495 181.767 442.428 181.18H442.328C442.141 181.86 441.768 182.373 441.208 182.72C440.661 183.067 439.988 183.24 439.188 183.24C438.188 183.24 437.381 182.973 436.768 182.44C436.168 181.893 435.868 181.133 435.868 180.16C435.868 179.08 436.261 178.28 437.048 177.76C437.835 177.24 438.988 176.98 440.508 176.98H442.168V176.46C442.168 175.847 442.021 175.387 441.728 175.08C441.448 174.76 440.968 174.6 440.288 174.6C439.661 174.6 439.155 174.72 438.768 174.96C438.381 175.2 438.048 175.513 437.768 175.9L436.148 174.46C436.495 173.873 437.035 173.393 437.768 173.02C438.515 172.633 439.468 172.44 440.628 172.44C442.041 172.44 443.141 172.767 443.928 173.42C444.728 174.06 445.128 175.033 445.128 176.34V180.86H446.268V183H444.568ZM440.308 181.3C440.828 181.3 441.268 181.173 441.628 180.92C441.988 180.667 442.168 180.3 442.168 179.82V178.58H440.588C439.375 178.58 438.768 178.987 438.768 179.8V180.2C438.768 180.56 438.908 180.833 439.188 181.02C439.468 181.207 439.841 181.3 440.308 181.3ZM458.48 184.04C458.48 185.133 458.02 185.94 457.1 186.46C456.18 186.98 454.734 187.24 452.76 187.24C451.774 187.24 450.96 187.18 450.32 187.06C449.68 186.953 449.167 186.793 448.78 186.58C448.407 186.367 448.14 186.113 447.98 185.82C447.834 185.527 447.76 185.207 447.76 184.86C447.76 184.273 447.934 183.827 448.28 183.52C448.627 183.227 449.114 183 449.74 182.84V182.72C449.3 182.587 448.947 182.4 448.68 182.16C448.427 181.907 448.3 181.553 448.3 181.1C448.3 180.593 448.467 180.22 448.8 179.98C449.147 179.74 449.6 179.553 450.16 179.42V179.3C449.547 179.007 449.067 178.593 448.72 178.06C448.387 177.527 448.22 176.88 448.22 176.12C448.22 175.52 448.327 174.993 448.54 174.54C448.754 174.073 449.054 173.687 449.44 173.38C449.84 173.073 450.314 172.84 450.86 172.68C451.407 172.52 452.02 172.44 452.7 172.44C453.354 172.44 453.96 172.513 454.52 172.66V172.1C454.52 171.7 454.66 171.367 454.94 171.1C455.22 170.833 455.607 170.7 456.1 170.7H457.92V172.86H455.44V173.04C456 173.333 456.434 173.74 456.74 174.26C457.06 174.767 457.22 175.387 457.22 176.12C457.22 176.72 457.114 177.247 456.9 177.7C456.687 178.153 456.38 178.54 455.98 178.86C455.58 179.167 455.1 179.4 454.54 179.56C453.994 179.72 453.38 179.8 452.7 179.8C452.394 179.8 452.1 179.787 451.82 179.76C451.54 179.72 451.274 179.667 451.02 179.6C450.874 179.68 450.747 179.78 450.64 179.9C450.547 180.02 450.5 180.173 450.5 180.36C450.5 180.52 450.54 180.647 450.62 180.74C450.7 180.833 450.807 180.907 450.94 180.96C451.087 181 451.254 181.027 451.44 181.04C451.627 181.053 451.82 181.06 452.02 181.06H454.38C455.114 181.06 455.74 181.133 456.26 181.28C456.78 181.427 457.207 181.633 457.54 181.9C457.874 182.167 458.114 182.48 458.26 182.84C458.407 183.2 458.48 183.6 458.48 184.04ZM455.68 184.26C455.68 183.993 455.574 183.78 455.36 183.62C455.147 183.473 454.74 183.4 454.14 183.4H450.6C450.334 183.627 450.2 183.907 450.2 184.24C450.2 184.56 450.334 184.82 450.6 185.02C450.88 185.233 451.347 185.34 452 185.34H453.74C454.42 185.34 454.914 185.247 455.22 185.06C455.527 184.873 455.68 184.607 455.68 184.26ZM452.7 177.92C453.3 177.92 453.734 177.773 454 177.48C454.28 177.187 454.42 176.813 454.42 176.36V175.88C454.42 175.427 454.28 175.053 454 174.76C453.734 174.467 453.3 174.32 452.7 174.32C452.114 174.32 451.687 174.467 451.42 174.76C451.154 175.053 451.02 175.427 451.02 175.88V176.36C451.02 176.813 451.154 177.187 451.42 177.48C451.687 177.773 452.114 177.92 452.7 177.92ZM465.093 183.24C463.359 183.24 462.046 182.76 461.153 181.8C460.259 180.84 459.813 179.533 459.813 177.88C459.813 177.04 459.926 176.287 460.153 175.62C460.393 174.94 460.726 174.367 461.153 173.9C461.593 173.42 462.119 173.06 462.733 172.82C463.359 172.567 464.059 172.44 464.833 172.44C465.606 172.44 466.299 172.567 466.913 172.82C467.526 173.06 468.046 173.407 468.473 173.86C468.899 174.313 469.226 174.867 469.453 175.52C469.693 176.16 469.813 176.88 469.813 177.68V178.56H462.753V178.74C462.753 179.407 462.959 179.947 463.373 180.36C463.786 180.76 464.393 180.96 465.193 180.96C465.806 180.96 466.333 180.847 466.773 180.62C467.213 180.38 467.593 180.067 467.913 179.68L469.513 181.42C469.113 181.913 468.553 182.34 467.833 182.7C467.113 183.06 466.199 183.24 465.093 183.24ZM464.853 174.56C464.213 174.56 463.699 174.76 463.313 175.16C462.939 175.547 462.753 176.073 462.753 176.74V176.9H466.913V176.74C466.913 176.06 466.726 175.527 466.353 175.14C465.993 174.753 465.493 174.56 464.853 174.56Z" fill="white"/>
</g>
</svg>
