<svg width="179" height="80" viewBox="0 0 179 80" fill="none" xmlns="http://www.w3.org/2000/svg">
<path d="M148.75 23.9893C150.761 22.8283 153.239 22.8283 155.25 23.9893L172.9 34.1807C174.911 35.3418 176.15 37.4873 176.15 39.8096V60.1904C176.15 62.5127 174.911 64.6582 172.9 65.8193L155.25 76.0107C153.239 77.1717 150.761 77.1717 148.75 76.0107L131.1 65.8193C129.089 64.6582 127.85 62.5127 127.85 60.1904V39.8096C127.85 37.4873 129.089 35.3418 131.1 34.1807L148.75 23.9893Z" fill="black" stroke="#050505" stroke-width="5"/>
<path d="M123.75 23.9893C125.761 22.8283 128.239 22.8283 130.25 23.9893L147.9 34.1807C149.911 35.3418 151.15 37.4873 151.15 39.8096V60.1904C151.15 62.5127 149.911 64.6582 147.9 65.8193L130.25 76.0107C128.239 77.1717 125.761 77.1717 123.75 76.0107L106.1 65.8193C104.089 64.6582 102.85 62.5127 102.85 60.1904V39.8096C102.85 37.4873 104.089 35.3418 106.1 34.1807L123.75 23.9893Z" fill="black" stroke="#050505" stroke-width="5"/>
<path d="M98.75 23.9893C100.761 22.8283 103.239 22.8283 105.25 23.9893L122.9 34.1807C124.911 35.3418 126.15 37.4873 126.15 39.8096V60.1904C126.15 62.5127 124.911 64.6582 122.9 65.8193L105.25 76.0107C103.239 77.1717 100.761 77.1717 98.75 76.0107L81.0996 65.8193C79.0885 64.6582 77.8496 62.5127 77.8496 60.1904V39.8096C77.8496 37.4873 79.0885 35.3418 81.0996 34.1807L98.75 23.9893Z" fill="black" stroke="#050505" stroke-width="5"/>
<path d="M73.75 23.9893C75.761 22.8283 78.239 22.8283 80.25 23.9893L97.9004 34.1807C99.9115 35.3418 101.15 37.4873 101.15 39.8096V60.1904C101.15 62.5127 99.9115 64.6582 97.9004 65.8193L80.25 76.0107C78.239 77.1717 75.761 77.1717 73.75 76.0107L56.0996 65.8193C54.0885 64.6582 52.8496 62.5127 52.8496 60.1904V39.8096C52.8496 37.4873 54.0885 35.3418 56.0996 34.1807L73.75 23.9893Z" fill="black" stroke="#050505" stroke-width="5"/>
<path d="M48.75 23.9893C50.761 22.8283 53.239 22.8283 55.25 23.9893L72.9004 34.1807C74.9115 35.3418 76.1504 37.4873 76.1504 39.8096V60.1904C76.1504 62.5127 74.9115 64.6582 72.9004 65.8193L55.25 76.0107C53.239 77.1717 50.761 77.1717 48.75 76.0107L31.0996 65.8193C29.0885 64.6582 27.8496 62.5127 27.8496 60.1904V39.8096C27.8496 37.4873 29.0885 35.3418 31.0996 34.1807L48.75 23.9893Z" fill="#BAD538" stroke="#B6D32C" stroke-width="5"/>
<path d="M23.75 23.9893C25.761 22.8283 28.239 22.8283 30.25 23.9893L47.9004 34.1807C49.9115 35.3418 51.1504 37.4873 51.1504 39.8096V60.1904C51.1504 62.5127 49.9115 64.6582 47.9004 65.8193L30.25 76.0107C28.239 77.1717 25.761 77.1717 23.75 76.0107L6.09961 65.8193C4.0885 64.6582 2.84961 62.5127 2.84961 60.1904V39.8096C2.84961 37.4873 4.0885 35.3418 6.09961 34.1807L23.75 23.9893Z" fill="#BAD538" stroke="#B6D32C" stroke-width="5"/>
<path d="M77.344 15.32C76.256 15.32 75.3387 15.1493 74.592 14.808C73.856 14.4667 73.296 14.0027 72.912 13.416C72.5387 12.8187 72.352 12.136 72.352 11.368H75.232C75.232 11.6453 75.3067 11.9013 75.456 12.136C75.616 12.36 75.8507 12.536 76.16 12.664C76.4693 12.792 76.864 12.856 77.344 12.856C77.76 12.856 78.112 12.8027 78.4 12.696C78.6987 12.5893 78.9227 12.44 79.072 12.248C79.232 12.056 79.312 11.8267 79.312 11.56C79.312 11.2187 79.168 10.9573 78.88 10.776C78.592 10.584 78.1067 10.4613 77.424 10.408L76.672 10.344C75.4667 10.2373 74.5067 9.85867 73.792 9.208C73.0773 8.55733 72.72 7.69333 72.72 6.616C72.72 5.848 72.896 5.192 73.248 4.648C73.6107 4.104 74.1173 3.688 74.768 3.4C75.4187 3.112 76.1867 2.968 77.072 2.968C78.032 2.968 78.8427 3.128 79.504 3.448C80.176 3.768 80.688 4.22133 81.04 4.808C81.392 5.384 81.568 6.056 81.568 6.824H78.688C78.688 6.568 78.624 6.33333 78.496 6.12C78.368 5.90667 78.1813 5.74133 77.936 5.624C77.7013 5.496 77.4133 5.432 77.072 5.432C76.752 5.432 76.48 5.48533 76.256 5.592C76.0427 5.688 75.8773 5.82667 75.76 6.008C75.6533 6.18933 75.6 6.392 75.6 6.616C75.6 6.91467 75.7013 7.17067 75.904 7.384C76.1067 7.59733 76.4587 7.72533 76.96 7.768L77.712 7.832C78.5867 7.90667 79.36 8.09867 80.032 8.408C80.704 8.70667 81.232 9.11733 81.616 9.64C82 10.1627 82.192 10.8027 82.192 11.56C82.192 12.3173 81.9947 12.9787 81.6 13.544C81.216 14.1093 80.6613 14.5467 79.936 14.856C79.2213 15.1653 78.3573 15.32 77.344 15.32ZM91.7789 18.52C91.0109 18.52 90.3442 18.4347 89.7789 18.264C89.2135 18.0933 88.7709 17.7787 88.4509 17.32C88.1415 16.8613 87.9869 16.1947 87.9869 15.32V13.4H90.7709V15.384C90.7709 15.6827 90.8509 15.9067 91.0109 16.056C91.1815 16.2053 91.4162 16.28 91.7149 16.28H93.3789V18.52H91.7789ZM89.4589 15.32C88.3922 15.32 87.4642 15.1387 86.6749 14.776C85.8855 14.4027 85.2295 13.9173 84.7069 13.32C84.1842 12.712 83.7949 12.056 83.5389 11.352C83.2829 10.648 83.1549 9.96533 83.1549 9.304V8.952C83.1549 8.216 83.2882 7.496 83.5549 6.792C83.8215 6.07733 84.2215 5.432 84.7549 4.856C85.2882 4.28 85.9442 3.82133 86.7229 3.48C87.5122 3.13867 88.4242 2.968 89.4589 2.968C90.4829 2.968 91.3842 3.13867 92.1629 3.48C92.9522 3.82133 93.6135 4.28 94.1469 4.856C94.6802 5.432 95.0802 6.07733 95.3469 6.792C95.6242 7.496 95.7629 8.216 95.7629 8.952V9.304C95.7629 9.96533 95.6295 10.648 95.3629 11.352C95.1069 12.056 94.7175 12.712 94.1949 13.32C93.6722 13.9173 93.0162 14.4027 92.2269 14.776C91.4375 15.1387 90.5149 15.32 89.4589 15.32ZM89.4589 12.536C89.9709 12.536 90.4295 12.4507 90.8349 12.28C91.2402 12.1093 91.5869 11.8693 91.8749 11.56C92.1629 11.2507 92.3815 10.8933 92.5309 10.488C92.6802 10.072 92.7549 9.624 92.7549 9.144C92.7549 8.632 92.6749 8.168 92.5149 7.752C92.3655 7.336 92.1469 6.97867 91.8589 6.68C91.5709 6.38133 91.2242 6.152 90.8189 5.992C90.4135 5.832 89.9602 5.752 89.4589 5.752C88.9469 5.752 88.4882 5.832 88.0829 5.992C87.6775 6.152 87.3309 6.38133 87.0429 6.68C86.7549 6.97867 86.5362 7.336 86.3869 7.752C86.2375 8.168 86.1629 8.632 86.1629 9.144C86.1629 9.624 86.2375 10.072 86.3869 10.488C86.5362 10.8933 86.7549 11.2507 87.0429 11.56C87.3309 11.8693 87.6775 12.1093 88.0829 12.28C88.4882 12.4507 88.9469 12.536 89.4589 12.536ZM97.559 15V3.32H100.535V15H97.559ZM100.215 15V12.408H104.951V15H100.215Z" fill="white"/>
</svg>
