<svg width="478" height="194" viewBox="0 0 478 194" fill="none" xmlns="http://www.w3.org/2000/svg">
<mask id="mask0_239_125" style="mask-type:alpha" maskUnits="userSpaceOnUse" x="0" y="0" width="478" height="194">
<rect width="478" height="194" fill="#8892BF"/>
</mask>
<g mask="url(#mask0_239_125)">
<rect width="478" height="194" fill="#007ACC"/>
<path d="M30 97V67H90V127H30" fill="white"/>
<path d="M43.155 97.105V99.55H50.955V121.75H56.49V99.55H64.29V97.15C64.29 95.8 64.29 94.705 64.23 94.675C64.23 94.63 59.475 94.615 53.7 94.615L43.2 94.66V97.12L43.155 97.105ZM78.21 94.6C79.74 94.96 80.91 95.65 81.96 96.745C82.515 97.345 83.34 98.395 83.4 98.665C83.4 98.755 80.805 100.51 79.23 101.485C79.17 101.53 78.93 101.275 78.69 100.885C77.91 99.775 77.115 99.295 75.87 99.205C74.07 99.085 72.87 100.03 72.87 101.605C72.87 102.085 72.96 102.355 73.14 102.745C73.545 103.57 74.295 104.065 76.62 105.085C80.91 106.93 82.77 108.145 83.895 109.885C85.17 111.835 85.455 114.895 84.6 117.19C83.64 119.695 81.3 121.39 77.955 121.945C76.905 122.125 74.505 122.095 73.38 121.9C70.98 121.45 68.685 120.25 67.275 118.705C66.72 118.105 65.655 116.5 65.715 116.395L66.285 116.035L68.535 114.73L70.23 113.74L70.62 114.265C71.115 115.045 72.225 116.095 72.87 116.455C74.82 117.46 77.43 117.325 78.72 116.155C79.275 115.645 79.515 115.105 79.515 114.355C79.515 113.665 79.41 113.35 79.065 112.825C78.585 112.165 77.625 111.625 74.925 110.425C71.82 109.105 70.5 108.265 69.27 106.975C68.565 106.195 67.92 104.98 67.62 103.975C67.395 103.105 67.32 100.975 67.53 100.12C68.175 97.12 70.44 95.02 73.68 94.42C74.73 94.21 77.205 94.3 78.24 94.57L78.21 94.6Z" fill="#007ACC"/>
<path d="M0.0701828 164L112.118 194.023L102.657 229.33L-9.39023 199.307L0.0701828 164Z" fill="#18005B"/>
<path d="M-1.6265 141.518L201.842 196.038L198.308 209.227L-5.1607 154.708L-1.6265 141.518Z" fill="#18005B"/>
<path d="M-2.84124 124.052L257.68 193.858L255.361 202.515L-5.1607 132.708L-2.84124 124.052Z" fill="#18005B"/>
<rect x="149" y="72" width="315" height="50" rx="8" stroke="#EBEBEB" stroke-width="8"/>
<rect x="155" y="78" width="59" height="38" rx="3" fill="white"/>
<rect x="216" y="78" width="59" height="38" rx="3" fill="white"/>
<rect x="277" y="78" width="59" height="38" rx="3" fill="white"/>
<rect x="338" y="78" width="59" height="38" rx="3" fill="white"/>
<path d="M357.5 171.5V183H354.5V171.5H350.48V169.04H361.52V171.5H357.5ZM370.592 172.68H373.612L368.752 184.66C368.446 185.42 368.039 186 367.532 186.4C367.026 186.8 366.332 187 365.452 187H363.412V184.7H365.892L366.532 182.94L362.372 172.68H365.552L367.052 177.02L367.992 180.02H368.152L369.052 177.02L370.592 172.68ZM375.164 172.68H378.124V174.56H378.264C378.518 173.947 378.884 173.44 379.364 173.04C379.844 172.64 380.498 172.44 381.324 172.44C381.898 172.44 382.418 172.547 382.884 172.76C383.364 172.973 383.771 173.3 384.104 173.74C384.451 174.18 384.718 174.74 384.904 175.42C385.104 176.1 385.204 176.907 385.204 177.84C385.204 178.773 385.104 179.58 384.904 180.26C384.718 180.94 384.451 181.5 384.104 181.94C383.771 182.38 383.364 182.707 382.884 182.92C382.418 183.133 381.898 183.24 381.324 183.24C380.498 183.24 379.844 183.047 379.364 182.66C378.884 182.26 378.518 181.747 378.264 181.12H378.124V187H375.164V172.68ZM380.044 180.94C380.711 180.94 381.224 180.74 381.584 180.34C381.944 179.927 382.124 179.36 382.124 178.64V177.04C382.124 176.32 381.944 175.76 381.584 175.36C381.224 174.947 380.711 174.74 380.044 174.74C379.524 174.74 379.071 174.867 378.684 175.12C378.311 175.373 378.124 175.773 378.124 176.32V179.36C378.124 179.907 378.311 180.307 378.684 180.56C379.071 180.813 379.524 180.94 380.044 180.94ZM392.257 183.24C390.523 183.24 389.21 182.76 388.317 181.8C387.423 180.84 386.977 179.533 386.977 177.88C386.977 177.04 387.09 176.287 387.317 175.62C387.557 174.94 387.89 174.367 388.317 173.9C388.757 173.42 389.283 173.06 389.897 172.82C390.523 172.567 391.223 172.44 391.997 172.44C392.77 172.44 393.463 172.567 394.077 172.82C394.69 173.06 395.21 173.407 395.637 173.86C396.063 174.313 396.39 174.867 396.617 175.52C396.857 176.16 396.977 176.88 396.977 177.68V178.56H389.917V178.74C389.917 179.407 390.123 179.947 390.537 180.36C390.95 180.76 391.557 180.96 392.357 180.96C392.97 180.96 393.497 180.847 393.937 180.62C394.377 180.38 394.757 180.067 395.077 179.68L396.677 181.42C396.277 181.913 395.717 182.34 394.997 182.7C394.277 183.06 393.363 183.24 392.257 183.24ZM392.017 174.56C391.377 174.56 390.863 174.76 390.477 175.16C390.103 175.547 389.917 176.073 389.917 176.74V176.9H394.077V176.74C394.077 176.06 393.89 175.527 393.517 175.14C393.157 174.753 392.657 174.56 392.017 174.56ZM403.849 183.24C402.702 183.24 401.702 183.067 400.849 182.72C400.009 182.373 399.375 181.9 398.949 181.3L400.609 179.76C401.009 180.2 401.475 180.547 402.009 180.8C402.555 181.04 403.175 181.16 403.869 181.16C404.455 181.16 404.915 181.073 405.249 180.9C405.582 180.713 405.749 180.433 405.749 180.06C405.749 179.767 405.635 179.567 405.409 179.46C405.182 179.34 404.869 179.247 404.469 179.18L402.809 178.92C402.342 178.853 401.909 178.753 401.509 178.62C401.109 178.473 400.762 178.28 400.469 178.04C400.175 177.8 399.942 177.507 399.769 177.16C399.595 176.813 399.509 176.393 399.509 175.9C399.509 174.82 399.922 173.973 400.749 173.36C401.575 172.747 402.735 172.44 404.229 172.44C405.242 172.44 406.102 172.58 406.809 172.86C407.529 173.127 408.102 173.513 408.529 174.02L407.049 175.7C406.742 175.367 406.349 175.087 405.869 174.86C405.389 174.633 404.809 174.52 404.129 174.52C402.982 174.52 402.409 174.867 402.409 175.56C402.409 175.867 402.522 176.08 402.749 176.2C402.975 176.307 403.289 176.393 403.689 176.46L405.329 176.72C405.795 176.787 406.229 176.893 406.629 177.04C407.029 177.173 407.375 177.36 407.669 177.6C407.975 177.84 408.215 178.133 408.389 178.48C408.562 178.827 408.649 179.247 408.649 179.74C408.649 180.82 408.229 181.673 407.389 182.3C406.562 182.927 405.382 183.24 403.849 183.24ZM416.381 183.24C415.568 183.24 414.834 183.12 414.181 182.88C413.541 182.627 412.994 182.267 412.541 181.8C412.101 181.333 411.761 180.767 411.521 180.1C411.281 179.433 411.161 178.68 411.161 177.84C411.161 177 411.281 176.247 411.521 175.58C411.761 174.913 412.101 174.347 412.541 173.88C412.994 173.413 413.541 173.06 414.181 172.82C414.834 172.567 415.561 172.44 416.361 172.44C417.494 172.44 418.401 172.673 419.081 173.14C419.774 173.593 420.301 174.2 420.661 174.96L418.381 176.2C418.194 175.8 417.948 175.467 417.641 175.2C417.348 174.933 416.921 174.8 416.361 174.8C415.681 174.8 415.154 175 414.781 175.4C414.421 175.787 414.241 176.32 414.241 177V178.68C414.241 179.36 414.421 179.9 414.781 180.3C415.154 180.687 415.694 180.88 416.401 180.88C416.974 180.88 417.421 180.747 417.741 180.48C418.074 180.213 418.354 179.867 418.581 179.44L420.821 180.72C420.448 181.48 419.901 182.093 419.181 182.56C418.474 183.013 417.541 183.24 416.381 183.24ZM423.433 180.7H425.813V174.98H423.433V172.68H428.773V175.6H428.913C429.006 175.227 429.133 174.867 429.293 174.52C429.466 174.16 429.68 173.847 429.933 173.58C430.2 173.3 430.52 173.08 430.893 172.92C431.266 172.76 431.706 172.68 432.213 172.68H433.193V175.4H430.993C430.26 175.4 429.706 175.62 429.333 176.06C428.96 176.487 428.773 177.013 428.773 177.64V180.7H432.173V183H423.433V180.7ZM440.585 171.36C439.919 171.36 439.452 171.227 439.185 170.96C438.932 170.68 438.805 170.347 438.805 169.96V169.38C438.805 168.98 438.932 168.647 439.185 168.38C439.452 168.113 439.919 167.98 440.585 167.98C441.252 167.98 441.712 168.113 441.965 168.38C442.232 168.647 442.365 168.98 442.365 169.38V169.96C442.365 170.347 442.232 170.68 441.965 170.96C441.712 171.227 441.252 171.36 440.585 171.36ZM435.825 180.7H439.105V174.98H435.825V172.68H442.065V180.7H445.105V183H435.825V180.7ZM447.118 172.68H450.078V174.56H450.218C450.471 173.947 450.838 173.44 451.318 173.04C451.798 172.64 452.451 172.44 453.278 172.44C453.851 172.44 454.371 172.547 454.838 172.76C455.318 172.973 455.724 173.3 456.058 173.74C456.404 174.18 456.671 174.74 456.858 175.42C457.058 176.1 457.158 176.907 457.158 177.84C457.158 178.773 457.058 179.58 456.858 180.26C456.671 180.94 456.404 181.5 456.058 181.94C455.724 182.38 455.318 182.707 454.838 182.92C454.371 183.133 453.851 183.24 453.278 183.24C452.451 183.24 451.798 183.047 451.318 182.66C450.838 182.26 450.471 181.747 450.218 181.12H450.078V187H447.118V172.68ZM451.998 180.94C452.664 180.94 453.178 180.74 453.538 180.34C453.898 179.927 454.078 179.36 454.078 178.64V177.04C454.078 176.32 453.898 175.76 453.538 175.36C453.178 174.947 452.664 174.74 451.998 174.74C451.478 174.74 451.024 174.867 450.638 175.12C450.264 175.373 450.078 175.773 450.078 176.32V179.36C450.078 179.907 450.264 180.307 450.638 180.56C451.024 180.813 451.478 180.94 451.998 180.94ZM464.73 183C463.663 183 462.87 182.72 462.35 182.16C461.83 181.6 461.57 180.887 461.57 180.02V174.98H458.77V172.68H460.59C461.03 172.68 461.343 172.593 461.53 172.42C461.716 172.247 461.81 171.927 461.81 171.46V169.04H464.53V172.68H468.55V174.98H464.53V180.7H468.55V183H464.73Z" fill="white"/>
</g>
</svg>
