<svg width="179" height="80" viewBox="0 0 179 80" fill="none" xmlns="http://www.w3.org/2000/svg">
<path d="M148.75 23.9893C150.761 22.8283 153.239 22.8283 155.25 23.9893L172.9 34.1807C174.911 35.3418 176.15 37.4873 176.15 39.8096V60.1904C176.15 62.5127 174.911 64.6582 172.9 65.8193L155.25 76.0107C153.239 77.1717 150.761 77.1717 148.75 76.0107L131.1 65.8193C129.089 64.6582 127.85 62.5127 127.85 60.1904V39.8096C127.85 37.4873 129.089 35.3418 131.1 34.1807L148.75 23.9893Z" fill="black" stroke="#050505" stroke-width="5"/>
<path d="M123.75 23.9893C125.761 22.8283 128.239 22.8283 130.25 23.9893L147.9 34.1807C149.911 35.3418 151.15 37.4873 151.15 39.8096V60.1904C151.15 62.5127 149.911 64.6582 147.9 65.8193L130.25 76.0107C128.239 77.1717 125.761 77.1717 123.75 76.0107L106.1 65.8193C104.089 64.6582 102.85 62.5127 102.85 60.1904V39.8096C102.85 37.4873 104.089 35.3418 106.1 34.1807L123.75 23.9893Z" fill="black" stroke="#050505" stroke-width="5"/>
<path d="M98.75 23.9893C100.761 22.8283 103.239 22.8283 105.25 23.9893L122.9 34.1807C124.911 35.3418 126.15 37.4873 126.15 39.8096V60.1904C126.15 62.5127 124.911 64.6582 122.9 65.8193L105.25 76.0107C103.239 77.1717 100.761 77.1717 98.75 76.0107L81.0996 65.8193C79.0885 64.6582 77.8496 62.5127 77.8496 60.1904V39.8096C77.8496 37.4873 79.0885 35.3418 81.0996 34.1807L98.75 23.9893Z" fill="#A567FB" stroke="#A15DFF" stroke-width="5"/>
<path d="M73.75 23.9893C75.761 22.8283 78.239 22.8283 80.25 23.9893L97.9004 34.1807C99.9115 35.3418 101.15 37.4873 101.15 39.8096V60.1904C101.15 62.5127 99.9115 64.6582 97.9004 65.8193L80.25 76.0107C78.239 77.1717 75.761 77.1717 73.75 76.0107L56.0996 65.8193C54.0885 64.6582 52.8496 62.5127 52.8496 60.1904V39.8096C52.8496 37.4873 54.0885 35.3418 56.0996 34.1807L73.75 23.9893Z" fill="#A567FB" stroke="#A15DFF" stroke-width="5"/>
<path d="M48.75 23.9893C50.761 22.8283 53.239 22.8283 55.25 23.9893L72.9004 34.1807C74.9115 35.3418 76.1504 37.4873 76.1504 39.8096V60.1904C76.1504 62.5127 74.9115 64.6582 72.9004 65.8193L55.25 76.0107C53.239 77.1717 50.761 77.1717 48.75 76.0107L31.0996 65.8193C29.0885 64.6582 27.8496 62.5127 27.8496 60.1904V39.8096C27.8496 37.4873 29.0885 35.3418 31.0996 34.1807L48.75 23.9893Z" fill="#A567FB" stroke="#A15DFF" stroke-width="5"/>
<path d="M23.75 23.9893C25.761 22.8283 28.239 22.8283 30.25 23.9893L47.9004 34.1807C49.9115 35.3418 51.1504 37.4873 51.1504 39.8096V60.1904C51.1504 62.5127 49.9115 64.6582 47.9004 65.8193L30.25 76.0107C28.239 77.1717 25.761 77.1717 23.75 76.0107L6.09961 65.8193C4.0885 64.6582 2.84961 62.5127 2.84961 60.1904V39.8096C2.84961 37.4873 4.0885 35.3418 6.09961 34.1807L23.75 23.9893Z" fill="#A567FB" stroke="#A15DFF" stroke-width="5"/>
<path d="M47.176 15.32C46.056 15.32 45.1067 15.112 44.328 14.696C43.56 14.28 42.9733 13.6933 42.568 12.936C42.1627 12.168 41.96 11.2613 41.96 10.216V3.32H44.936V10.28C44.936 10.7387 45.0213 11.1387 45.192 11.48C45.3733 11.8213 45.6293 12.0827 45.96 12.264C46.2907 12.4453 46.696 12.536 47.176 12.536C47.656 12.536 48.0613 12.4453 48.392 12.264C48.7227 12.0827 48.9733 11.8267 49.144 11.496C49.3147 11.1547 49.4 10.7493 49.4 10.28V3.32H52.376V10.216C52.376 11.2613 52.1733 12.168 51.768 12.936C51.3733 13.6933 50.7867 14.28 50.008 14.696C49.24 15.112 48.296 15.32 47.176 15.32ZM54.5598 15V3.32H57.5358V15H54.5598ZM59.006 15.96L62.334 2.52H65.342L62.014 15.96H59.006ZM71.7698 15.32C70.6498 15.32 69.7004 15.112 68.9218 14.696C68.1538 14.28 67.5671 13.6933 67.1618 12.936C66.7564 12.168 66.5538 11.2613 66.5538 10.216V3.32H69.5298V10.28C69.5298 10.7387 69.6151 11.1387 69.7858 11.48C69.9671 11.8213 70.2231 12.0827 70.5538 12.264C70.8844 12.4453 71.2898 12.536 71.7698 12.536C72.2498 12.536 72.6551 12.4453 72.9858 12.264C73.3164 12.0827 73.5671 11.8267 73.7378 11.496C73.9084 11.1547 73.9938 10.7493 73.9938 10.28V3.32H76.9698V10.216C76.9698 11.2613 76.7671 12.168 76.3618 12.936C75.9671 13.6933 75.3804 14.28 74.6018 14.696C73.8338 15.112 72.8898 15.32 71.7698 15.32ZM77.8773 15L81.7493 8.792L81.7812 9.048L78.1973 3.32H81.4613L83.4613 6.696H83.8773L85.8133 3.32H88.9813L85.4133 9.08L85.3653 8.824L89.3653 15H86.1013L83.7173 11.144H83.3013L81.0453 15H77.8773ZM96.2544 15V5.592H99.2304V15H96.2544ZM93.0544 5.912V3.32H102.43V5.912H93.0544ZM107.081 15.32C106.302 15.32 105.609 15.2027 105.001 14.968C104.393 14.7333 103.876 14.408 103.449 13.992C103.033 13.576 102.713 13.096 102.489 12.552C102.276 12.008 102.169 11.4267 102.169 10.808V10.424C102.169 9.784 102.281 9.18667 102.505 8.632C102.74 8.07733 103.07 7.592 103.497 7.176C103.924 6.76 104.441 6.43467 105.049 6.2C105.657 5.96533 106.334 5.848 107.081 5.848C107.838 5.848 108.516 5.96533 109.113 6.2C109.721 6.43467 110.238 6.76 110.665 7.176C111.092 7.592 111.417 8.07733 111.641 8.632C111.876 9.18667 111.993 9.784 111.993 10.424V10.808C111.993 11.4267 111.881 12.008 111.657 12.552C111.444 13.096 111.124 13.576 110.697 13.992C110.281 14.408 109.769 14.7333 109.161 14.968C108.553 15.2027 107.86 15.32 107.081 15.32ZM107.081 12.888C107.529 12.888 107.897 12.792 108.185 12.6C108.484 12.408 108.708 12.1413 108.857 11.8C109.006 11.448 109.081 11.0533 109.081 10.616C109.081 10.1573 109.001 9.75733 108.841 9.416C108.692 9.064 108.468 8.78667 108.169 8.584C107.87 8.38133 107.508 8.28 107.081 8.28C106.654 8.28 106.292 8.38133 105.993 8.584C105.694 8.78667 105.465 9.064 105.305 9.416C105.156 9.75733 105.081 10.1573 105.081 10.616C105.081 11.0533 105.156 11.448 105.305 11.8C105.454 12.1413 105.678 12.408 105.977 12.6C106.276 12.792 106.644 12.888 107.081 12.888ZM117.987 15.32C117.209 15.32 116.515 15.2027 115.907 14.968C115.299 14.7333 114.782 14.408 114.355 13.992C113.939 13.576 113.619 13.096 113.395 12.552C113.182 12.008 113.075 11.4267 113.075 10.808V10.424C113.075 9.784 113.187 9.18667 113.411 8.632C113.646 8.07733 113.977 7.592 114.403 7.176C114.83 6.76 115.347 6.43467 115.955 6.2C116.563 5.96533 117.241 5.848 117.987 5.848C118.745 5.848 119.422 5.96533 120.019 6.2C120.627 6.43467 121.145 6.76 121.571 7.176C121.998 7.592 122.323 8.07733 122.547 8.632C122.782 9.18667 122.899 9.784 122.899 10.424V10.808C122.899 11.4267 122.787 12.008 122.563 12.552C122.35 13.096 122.03 13.576 121.603 13.992C121.187 14.408 120.675 14.7333 120.067 14.968C119.459 15.2027 118.766 15.32 117.987 15.32ZM117.987 12.888C118.435 12.888 118.803 12.792 119.091 12.6C119.39 12.408 119.614 12.1413 119.763 11.8C119.913 11.448 119.987 11.0533 119.987 10.616C119.987 10.1573 119.907 9.75733 119.747 9.416C119.598 9.064 119.374 8.78667 119.075 8.584C118.777 8.38133 118.414 8.28 117.987 8.28C117.561 8.28 117.198 8.38133 116.899 8.584C116.601 8.78667 116.371 9.064 116.211 9.416C116.062 9.75733 115.987 10.1573 115.987 10.616C115.987 11.0533 116.062 11.448 116.211 11.8C116.361 12.1413 116.585 12.408 116.883 12.6C117.182 12.792 117.55 12.888 117.987 12.888ZM124.622 15V3.32H127.534V15H124.622ZM123.63 5.432V3.32H127.534V5.432H123.63ZM133.185 15.288C131.905 15.288 130.897 15.0267 130.161 14.504C129.425 13.9707 129.03 13.224 128.977 12.264H131.537C131.58 12.5307 131.745 12.76 132.033 12.952C132.321 13.144 132.726 13.24 133.249 13.24C133.622 13.24 133.942 13.1867 134.209 13.08C134.486 12.9627 134.625 12.776 134.625 12.52C134.625 12.296 134.518 12.1147 134.305 11.976C134.092 11.8267 133.702 11.7253 133.137 11.672L132.529 11.608C131.398 11.4907 130.566 11.1813 130.033 10.68C129.5 10.1787 129.233 9.54933 129.233 8.792C129.233 8.14133 129.393 7.608 129.713 7.192C130.033 6.76533 130.476 6.44533 131.041 6.232C131.606 6.01867 132.252 5.912 132.977 5.912C134.161 5.912 135.116 6.17333 135.841 6.696C136.566 7.208 136.95 7.94933 136.993 8.92H134.433C134.39 8.65333 134.246 8.42933 134.001 8.248C133.756 8.056 133.404 7.96 132.945 7.96C132.614 7.96 132.342 8.01867 132.129 8.136C131.926 8.25333 131.825 8.41867 131.825 8.632C131.825 8.856 131.921 9.02133 132.113 9.128C132.316 9.23467 132.636 9.31467 133.073 9.368L133.681 9.432C134.812 9.54933 135.681 9.864 136.289 10.376C136.908 10.8773 137.217 11.5387 137.217 12.36C137.217 12.968 137.052 13.4907 136.721 13.928C136.401 14.3653 135.937 14.7013 135.329 14.936C134.732 15.1707 134.017 15.288 133.185 15.288Z" fill="white"/>
</svg>
