<svg width="780" height="180" viewBox="0 0 780 180" fill="none" xmlns="http://www.w3.org/2000/svg">
<mask id="mask0_55_246" style="mask-type:alpha" maskUnits="userSpaceOnUse" x="0" y="0" width="781" height="180">
<rect width="780.004" height="180" fill="#2C2C2C"/>
</mask>
<g mask="url(#mask0_55_246)">
<rect width="780.004" height="180" fill="#2C2C2C"/>
<rect x="0.00195312" width="141.901" height="180" fill="#F7374F"/>
<rect x="0.00195312" y="142.123" width="780.002" height="37.8774" fill="#F7374F"/>
<rect x="268.829" y="-142.923" width="141.901" height="329.402" transform="rotate(45 268.829 -142.923)" fill="#F7374F"/>
<path d="M135.578 133.5L113.306 40.06H137.882L154.65 117.5L150.682 114.556H161.05L156.57 117.5L169.242 43.388H188.57L171.034 133.5H135.578ZM191.13 133.5L172.314 43.388H192.666L207.514 117.5L203.034 114.556H212.762L209.434 117.5L223.898 40.06H246.938L227.354 133.5H191.13ZM287.477 136.06C281.504 136.06 276.213 135.036 271.605 132.988C266.997 130.94 263.114 128.167 259.957 124.668C256.8 121.169 254.368 117.244 252.661 112.892C251.04 108.54 250.229 104.06 250.229 99.452V96.892C250.229 92.1133 251.04 87.548 252.661 83.196C254.368 78.7587 256.757 74.8333 259.829 71.42C262.986 68.0067 266.826 65.3187 271.349 63.356C275.872 61.308 280.992 60.284 286.709 60.284C294.304 60.284 300.746 61.9907 306.037 65.404C311.328 68.8173 315.381 73.34 318.197 78.972C321.013 84.5187 322.421 90.5773 322.421 97.148V104.572H259.957V92.028H308.981L300.917 97.66C300.917 93.6493 300.362 90.2787 299.253 87.548C298.229 84.732 296.65 82.5987 294.517 81.148C292.469 79.6973 289.866 78.972 286.709 78.972C283.637 78.972 280.949 79.6973 278.645 81.148C276.426 82.5133 274.72 84.6467 273.525 87.548C272.33 90.364 271.733 93.948 271.733 98.3C271.733 102.225 272.288 105.639 273.397 108.54C274.506 111.356 276.213 113.532 278.517 115.068C280.821 116.604 283.808 117.372 287.477 117.372C290.72 117.372 293.365 116.817 295.413 115.708C297.546 114.599 299.04 113.105 299.893 111.228H321.141C320.117 116.007 318.069 120.273 314.997 124.028C312.01 127.783 308.17 130.727 303.477 132.86C298.869 134.993 293.536 136.06 287.477 136.06ZM380.268 135.804C374.465 135.804 369.388 134.609 365.036 132.22C360.769 129.831 357.399 126.332 354.924 121.724C352.535 117.116 351.255 111.484 351.084 104.828H353.132V133.5H334.7V40.06H357.996V88.188L352.876 93.308C353.132 86.396 354.455 80.508 356.844 75.644C359.233 70.78 362.519 67.1107 366.7 64.636C370.967 62.076 375.873 60.796 381.42 60.796C386.199 60.796 390.508 61.692 394.348 63.484C398.188 65.1907 401.431 67.6653 404.076 70.908C406.807 74.0653 408.897 77.82 410.348 82.172C411.799 86.524 412.524 91.3027 412.524 96.508V99.58C412.524 104.785 411.799 109.607 410.348 114.044C408.897 118.396 406.764 122.236 403.948 125.564C401.132 128.807 397.719 131.324 393.708 133.116C389.783 134.908 385.303 135.804 380.268 135.804ZM373.612 116.604C376.684 116.604 379.372 115.836 381.676 114.3C384.065 112.679 385.9 110.46 387.18 107.644C388.545 104.828 389.228 101.628 389.228 98.044C389.228 94.3747 388.545 91.2173 387.18 88.572C385.9 85.8413 384.108 83.7507 381.804 82.3C379.5 80.764 376.769 79.996 373.612 79.996C370.796 79.996 368.151 80.636 365.676 81.916C363.287 83.196 361.324 85.0733 359.788 87.548C358.252 90.0227 357.484 93.0093 357.484 96.508V100.86C357.484 104.188 358.295 107.047 359.916 109.436C361.537 111.74 363.585 113.532 366.06 114.812C368.535 116.007 371.052 116.604 373.612 116.604ZM453.357 135.804C443.117 135.804 435.053 133.713 429.165 129.532C423.277 125.265 420.12 119.292 419.693 111.612H440.173C440.514 113.745 441.837 115.58 444.141 117.116C446.445 118.652 449.688 119.42 453.869 119.42C456.856 119.42 459.416 118.993 461.549 118.14C463.768 117.201 464.877 115.708 464.877 113.66C464.877 111.868 464.024 110.417 462.317 109.308C460.61 108.113 457.496 107.303 452.973 106.876L448.109 106.364C439.064 105.425 432.408 102.951 428.141 98.94C423.874 94.9293 421.741 89.8947 421.741 83.836C421.741 78.6307 423.021 74.364 425.581 71.036C428.141 67.6227 431.682 65.0627 436.205 63.356C440.728 61.6493 445.89 60.796 451.693 60.796C461.165 60.796 468.802 62.8867 474.605 67.068C480.408 71.164 483.48 77.0947 483.821 84.86H463.341C463 82.7267 461.848 80.9347 459.885 79.484C457.922 77.948 455.106 77.18 451.437 77.18C448.792 77.18 446.616 77.6493 444.909 78.588C443.288 79.5267 442.477 80.8493 442.477 82.556C442.477 84.348 443.245 85.6707 444.781 86.524C446.402 87.3773 448.962 88.0173 452.461 88.444L457.325 88.956C466.37 89.8947 473.325 92.412 478.189 96.508C483.138 100.519 485.613 105.809 485.613 112.38C485.613 117.244 484.29 121.425 481.645 124.924C479.085 128.423 475.373 131.111 470.509 132.988C465.73 134.865 460.013 135.804 453.357 135.804ZM500.528 133.5V62.844H523.824V133.5H500.528ZM491.568 79.74V62.844H523.824V79.74H491.568ZM510.128 57.212C505.861 57.212 502.704 56.1453 500.656 54.012C498.693 51.7933 497.712 48.9773 497.712 45.564C497.712 42.1507 498.693 39.3773 500.656 37.244C502.704 35.0253 505.819 33.916 510 33.916C514.267 33.916 517.381 35.0253 519.344 37.244C521.307 39.3773 522.288 42.1507 522.288 45.564C522.288 48.9773 521.307 51.7933 519.344 54.012C517.381 56.1453 514.309 57.212 510.128 57.212ZM574.614 134.524C566.934 134.524 560.79 133.585 556.182 131.708C551.659 129.831 548.374 126.716 546.326 122.364C544.278 118.012 543.254 112.124 543.254 104.7L543.382 44.412H564.886L564.758 105.34C564.758 108.497 565.569 110.929 567.19 112.636C568.897 114.257 571.329 115.068 574.486 115.068H584.214V134.524H574.614ZM533.014 79.74V62.844H584.214V79.74H533.014ZM629.602 136.06C623.629 136.06 618.338 135.036 613.73 132.988C609.122 130.94 605.239 128.167 602.082 124.668C598.925 121.169 596.493 117.244 594.786 112.892C593.165 108.54 592.354 104.06 592.354 99.452V96.892C592.354 92.1133 593.165 87.548 594.786 83.196C596.493 78.7587 598.882 74.8333 601.954 71.42C605.111 68.0067 608.951 65.3187 613.474 63.356C617.997 61.308 623.117 60.284 628.834 60.284C636.429 60.284 642.871 61.9907 648.162 65.404C653.453 68.8173 657.506 73.34 660.322 78.972C663.138 84.5187 664.546 90.5773 664.546 97.148V104.572H602.082V92.028H651.106L643.042 97.66C643.042 93.6493 642.487 90.2787 641.378 87.548C640.354 84.732 638.775 82.5987 636.642 81.148C634.594 79.6973 631.991 78.972 628.834 78.972C625.762 78.972 623.074 79.6973 620.77 81.148C618.551 82.5133 616.845 84.6467 615.65 87.548C614.455 90.364 613.858 93.948 613.858 98.3C613.858 102.225 614.413 105.639 615.522 108.54C616.631 111.356 618.338 113.532 620.642 115.068C622.946 116.604 625.933 117.372 629.602 117.372C632.845 117.372 635.49 116.817 637.538 115.708C639.671 114.599 641.165 113.105 642.018 111.228H663.266C662.242 116.007 660.194 120.273 657.122 124.028C654.135 127.783 650.295 130.727 645.602 132.86C640.994 134.993 635.661 136.06 629.602 136.06Z" fill="white"/>
</g>
</svg>
