<svg width="780" height="220" viewBox="0 0 780 220" fill="none" xmlns="http://www.w3.org/2000/svg">
<rect width="780.004" height="219.554" fill="#582757"/>
<path d="M193.979 151.777H155.951L143.939 67.7539H173.939L176.986 112.051C177.221 115.371 177.553 120.352 177.982 126.992C178.412 133.633 178.744 138.613 178.979 141.934H179.975C179.975 132.559 180.854 121.758 182.611 109.531L188.354 67.7539H215.482L221.107 109.414C222.865 121.641 223.744 132.48 223.744 141.934H224.857C225.092 138.574 225.424 133.555 225.854 126.875C226.322 120.195 226.674 115.176 226.908 111.816L229.779 67.7539H259.779L247.768 151.777H209.74L203.588 104.727C202.885 99.1406 202.533 94.0625 202.533 89.4922H201.186C201.186 94.1406 200.834 99.2188 200.131 104.727L193.979 151.777ZM297.514 153.242C291.498 153.242 285.932 152.285 280.814 150.371C275.697 148.418 271.4 145.762 267.924 142.402C264.486 139.043 261.791 135.059 259.838 130.449C257.885 125.84 256.908 120.918 256.908 115.684C256.908 110.566 257.807 105.723 259.604 101.152C261.4 96.582 263.9 92.6172 267.104 89.2578C270.307 85.8984 274.232 83.2422 278.881 81.2891C283.568 79.3359 288.646 78.3594 294.115 78.3594C298.725 78.3594 303.061 79.043 307.123 80.4102C311.225 81.7383 314.838 83.6523 317.963 86.1523C321.088 88.6523 323.549 91.8555 325.346 95.7617C327.182 99.668 328.1 104.023 328.1 108.828C328.1 111.445 327.787 114.473 327.162 117.91L282.748 115.918C283.178 119.863 284.975 122.793 288.139 124.707C291.342 126.582 295.346 127.52 300.15 127.52C308.9 127.52 316.576 125.156 323.178 120.43H324.76V146.973C321.752 148.809 317.865 150.312 313.1 151.484C308.334 152.656 303.139 153.242 297.514 153.242ZM283.686 109.414L303.959 108.359C303.373 106.562 302.24 105.156 300.561 104.141C298.92 103.086 296.908 102.559 294.525 102.559C292.182 102.559 290.033 103.145 288.08 104.316C286.127 105.449 284.662 107.148 283.686 109.414ZM382.357 153.242C379.623 153.242 377.084 152.812 374.74 151.953C372.396 151.133 370.111 149.785 367.885 147.91C365.697 145.996 363.764 143.281 362.084 139.766C360.443 136.211 359.213 131.973 358.393 127.051H357.396L359.916 151.777H331.732V61.7773H358.861V89.375L356.225 106.777H357.631C357.826 103.262 358.275 100.078 358.979 97.2266C359.682 94.3359 360.521 91.9336 361.498 90.0195C362.514 88.0664 363.705 86.3672 365.072 84.9219C366.439 83.4766 367.807 82.3438 369.174 81.5234C370.541 80.7031 372.045 80.0586 373.686 79.5898C375.326 79.082 376.811 78.75 378.139 78.5938C379.467 78.4375 380.873 78.3594 382.357 78.3594C388.217 78.3594 393.334 80.0781 397.709 83.5156C402.123 86.9531 405.424 91.4844 407.611 97.1094C409.838 102.734 410.951 109.004 410.951 115.918C410.951 122.832 409.857 129.082 407.67 134.668C405.482 140.254 402.182 144.746 397.768 148.145C393.393 151.543 388.256 153.242 382.357 153.242ZM370.229 127.285C374.564 127.285 378.08 126.367 380.775 124.531C383.51 122.656 384.877 119.941 384.877 116.387C384.877 112.754 383.529 110.02 380.834 108.184C378.139 106.348 374.604 105.43 370.229 105.43C365.854 105.43 362.299 106.348 359.564 108.184C356.83 110.02 355.463 112.754 355.463 116.387C355.463 119.941 356.83 122.656 359.564 124.531C362.299 126.367 365.854 127.285 370.229 127.285ZM443.354 153.242C432.455 153.242 422.826 151.152 414.467 146.973V117.91H416.283C423.9 125.527 433.217 129.336 444.232 129.336C446.42 129.336 448.139 129.102 449.389 128.633C450.678 128.164 451.322 127.52 451.322 126.699C451.322 126.152 450.775 125.703 449.682 125.352C448.588 124.961 447.143 124.648 445.346 124.414C443.588 124.18 441.576 123.848 439.311 123.418C437.045 122.949 434.721 122.441 432.338 121.895C429.955 121.348 427.631 120.508 425.365 119.375C423.1 118.242 421.068 116.934 419.271 115.449C417.514 113.926 416.088 111.953 414.994 109.531C413.9 107.109 413.354 104.355 413.354 101.27C413.354 97.5195 414.232 94.1602 415.99 91.1914C417.787 88.1836 420.189 85.7617 423.197 83.9258C426.205 82.0898 429.584 80.7031 433.334 79.7656C437.123 78.8281 441.146 78.3594 445.404 78.3594C455.6 78.3594 465.209 80.7617 474.232 85.5664V111.113H472.65C469.135 108.027 464.799 105.566 459.643 103.73C454.486 101.855 449.271 100.918 443.998 100.918C438.959 100.918 436.439 101.875 436.439 103.789C436.439 104.531 437.201 105.156 438.725 105.664C440.287 106.133 442.299 106.543 444.76 106.895C447.221 107.246 449.936 107.656 452.904 108.125C455.912 108.594 458.9 109.316 461.869 110.293C464.877 111.27 467.611 112.461 470.072 113.867C472.533 115.273 474.525 117.246 476.049 119.785C477.611 122.285 478.393 125.195 478.393 128.516C478.393 134.141 476.85 138.848 473.764 142.637C470.678 146.387 466.576 149.102 461.459 150.781C456.342 152.422 450.307 153.242 443.354 153.242ZM496.264 89.7266C491.498 89.7266 487.631 88.3203 484.662 85.5078C481.732 82.6562 480.268 79.1797 480.268 75.0781C480.268 70.9766 481.752 67.5 484.721 64.6484C487.729 61.7578 491.576 60.3125 496.264 60.3125C500.912 60.3125 504.701 61.7578 507.631 64.6484C510.6 67.5 512.084 70.9766 512.084 75.0781C512.084 79.2188 510.619 82.6953 507.689 85.5078C504.799 88.3203 500.99 89.7266 496.264 89.7266ZM510.385 151.777H481.967V87.4414H482.904C486.225 90.6445 490.678 92.2461 496.264 92.2461C501.732 92.2461 506.127 90.6445 509.447 87.4414H510.385V151.777ZM563.002 147.207C558.627 151.23 552.787 153.242 545.482 153.242C538.178 153.242 532.494 151.016 528.432 146.562C524.369 142.07 522.338 136.133 522.338 128.75V96.6992H514.662V80.6445C519.701 80.6445 523.393 79.6875 525.736 77.7734C528.119 75.8203 529.311 72.4805 529.311 67.7539H550.639V79.7656H563.002V98.9844L550.639 97.0508V119.961C550.639 122.617 551.088 124.668 551.986 126.113C552.885 127.559 554.447 128.281 556.674 128.281C558.588 128.281 560.209 127.266 561.537 125.234H563.002V147.207ZM606.068 153.242C600.053 153.242 594.486 152.285 589.369 150.371C584.252 148.418 579.955 145.762 576.479 142.402C573.041 139.043 570.346 135.059 568.393 130.449C566.439 125.84 565.463 120.918 565.463 115.684C565.463 110.566 566.361 105.723 568.158 101.152C569.955 96.582 572.455 92.6172 575.658 89.2578C578.861 85.8984 582.787 83.2422 587.436 81.2891C592.123 79.3359 597.201 78.3594 602.67 78.3594C607.279 78.3594 611.615 79.043 615.678 80.4102C619.779 81.7383 623.393 83.6523 626.518 86.1523C629.643 88.6523 632.104 91.8555 633.9 95.7617C635.736 99.668 636.654 104.023 636.654 108.828C636.654 111.445 636.342 114.473 635.717 117.91L591.303 115.918C591.732 119.863 593.529 122.793 596.693 124.707C599.896 126.582 603.9 127.52 608.705 127.52C617.455 127.52 625.131 125.156 631.732 120.43H633.314V146.973C630.307 148.809 626.42 150.312 621.654 151.484C616.889 152.656 611.693 153.242 606.068 153.242ZM592.24 109.414L612.514 108.359C611.928 106.562 610.795 105.156 609.115 104.141C607.475 103.086 605.463 102.559 603.08 102.559C600.736 102.559 598.588 103.145 596.635 104.316C594.682 105.449 593.217 107.148 592.24 109.414Z" fill="white"/>
</svg>
