<svg width="780" height="220" viewBox="0 0 780 220" fill="none" xmlns="http://www.w3.org/2000/svg">
<rect width="780.004" height="219.554" fill="#542B83"/>
<path d="M125.775 151.777H93.6074L112.475 113.281C113.803 110.391 117.24 108.945 122.787 108.945V108.125C119.74 108.125 117.436 107.793 115.873 107.129C114.35 106.426 113.178 105.273 112.357 103.672L93.6074 67.7539H125.424L133.568 86.3867C135.561 90.957 136.557 95.3906 136.557 99.6875H137.553C137.553 95.3906 138.549 90.957 140.541 86.3867L148.686 67.7539H180.502L161.811 103.672C160.99 105.273 159.799 106.426 158.236 107.129C156.674 107.793 154.369 108.125 151.322 108.125V108.945C156.869 108.945 160.307 110.391 161.635 113.281L180.502 151.777H148.334L140.541 130.684C139.486 127.793 138.725 125.41 138.256 123.535C137.787 121.66 137.553 119.59 137.553 117.324H136.557C136.557 119.59 136.322 121.66 135.854 123.535C135.385 125.41 134.623 127.793 133.568 130.684L125.775 151.777ZM203.471 151.777H182.318L213.432 61.7773H234.408L203.471 151.777ZM286.264 151.777H257.846V91.1914H236.225V67.7539H308.002V91.1914H286.264V151.777ZM361.322 151.777H326.752L310.17 79.7656H339.818L344.154 115.801C344.232 116.582 344.408 118.066 344.682 120.254C344.955 122.402 345.15 124.004 345.268 125.059C345.424 126.074 345.58 127.422 345.736 129.102C345.893 130.742 346.01 132.227 346.088 133.555C346.166 134.883 346.205 136.152 346.205 137.363H347.143L351.947 79.7656H380.014L384.818 137.363H385.756C385.756 135.449 385.834 133.418 385.99 131.27C386.186 129.121 386.518 126.25 386.986 122.656C387.455 119.023 387.729 116.777 387.807 115.918L392.143 79.7656H421.791L405.209 151.777H370.639L366.479 105.195H365.482L361.322 151.777ZM438.783 89.7266C434.018 89.7266 430.15 88.3203 427.182 85.5078C424.252 82.6562 422.787 79.1797 422.787 75.0781C422.787 70.9766 424.271 67.5 427.24 64.6484C430.248 61.7578 434.096 60.3125 438.783 60.3125C443.432 60.3125 447.221 61.7578 450.15 64.6484C453.119 67.5 454.604 70.9766 454.604 75.0781C454.604 79.2188 453.139 82.6953 450.209 85.5078C447.318 88.3203 443.51 89.7266 438.783 89.7266ZM452.904 151.777H424.486V87.4414H425.424C428.744 90.6445 433.197 92.2461 438.783 92.2461C444.252 92.2461 448.646 90.6445 451.967 87.4414H452.904V151.777ZM505.521 147.207C501.146 151.23 495.307 153.242 488.002 153.242C480.697 153.242 475.014 151.016 470.951 146.562C466.889 142.07 464.857 136.133 464.857 128.75V96.6992H457.182V80.6445C462.221 80.6445 465.912 79.6875 468.256 77.7734C470.639 75.8203 471.83 72.4805 471.83 67.7539H493.158V79.7656H505.521V98.9844L493.158 97.0508V119.961C493.158 122.617 493.607 124.668 494.506 126.113C495.404 127.559 496.967 128.281 499.193 128.281C501.107 128.281 502.729 127.266 504.057 125.234H505.521V147.207ZM558.139 147.207C553.764 151.23 547.924 153.242 540.619 153.242C533.314 153.242 527.631 151.016 523.568 146.562C519.506 142.07 517.475 136.133 517.475 128.75V96.6992H509.799V80.6445C514.838 80.6445 518.529 79.6875 520.873 77.7734C523.256 75.8203 524.447 72.4805 524.447 67.7539H545.775V79.7656H558.139V98.9844L545.775 97.0508V119.961C545.775 122.617 546.225 124.668 547.123 126.113C548.021 127.559 549.584 128.281 551.811 128.281C553.725 128.281 555.346 127.266 556.674 125.234H558.139V147.207ZM601.205 153.242C595.189 153.242 589.623 152.285 584.506 150.371C579.389 148.418 575.092 145.762 571.615 142.402C568.178 139.043 565.482 135.059 563.529 130.449C561.576 125.84 560.6 120.918 560.6 115.684C560.6 110.566 561.498 105.723 563.295 101.152C565.092 96.582 567.592 92.6172 570.795 89.2578C573.998 85.8984 577.924 83.2422 582.572 81.2891C587.26 79.3359 592.338 78.3594 597.807 78.3594C602.416 78.3594 606.752 79.043 610.814 80.4102C614.916 81.7383 618.529 83.6523 621.654 86.1523C624.779 88.6523 627.24 91.8555 629.037 95.7617C630.873 99.668 631.791 104.023 631.791 108.828C631.791 111.445 631.479 114.473 630.854 117.91L586.439 115.918C586.869 119.863 588.666 122.793 591.83 124.707C595.033 126.582 599.037 127.52 603.842 127.52C612.592 127.52 620.268 125.156 626.869 120.43H628.451V146.973C625.443 148.809 621.557 150.312 616.791 151.484C612.025 152.656 606.83 153.242 601.205 153.242ZM587.377 109.414L607.65 108.359C607.064 106.562 605.932 105.156 604.252 104.141C602.611 103.086 600.6 102.559 598.217 102.559C595.873 102.559 593.725 103.145 591.771 104.316C589.818 105.449 588.354 107.148 587.377 109.414ZM663.49 151.777H635.424V79.7656H663.842L659.33 120.723H660.502C661.166 112.48 662.182 105.605 663.549 100.098C664.916 94.5898 666.713 90.2539 668.939 87.0898C671.205 83.8867 673.744 81.6406 676.557 80.3516C679.408 79.0234 682.826 78.3594 686.811 78.3594V111.113H685.229C683.119 109.004 680.482 107.949 677.318 107.949C673.061 107.949 669.682 109.844 667.182 113.633C664.721 117.422 663.49 123.184 663.49 130.918V151.777Z" fill="white"/>
</svg>
