<svg width="780" height="180" viewBox="0 0 780 180" fill="none" xmlns="http://www.w3.org/2000/svg">
<mask id="mask0_55_262" style="mask-type:alpha" maskUnits="userSpaceOnUse" x="0" y="0" width="781" height="180">
<rect width="780.004" height="180" fill="#2C2C2C"/>
</mask>
<g mask="url(#mask0_55_262)">
<rect width="780.004" height="180" fill="#2C2C2C"/>
<rect x="0.00195312" width="141.901" height="180" fill="#522546"/>
<rect x="0.00195312" y="142.123" width="780.002" height="37.8774" fill="#522546"/>
<rect x="268.829" y="-142.923" width="141.901" height="329.402" transform="rotate(45 268.829 -142.923)" fill="#522546"/>
<path d="M73.77 133.5L104.746 83.836L105.002 85.884L76.33 40.06H102.442L118.442 67.068H121.77L137.258 40.06H162.602L134.058 86.14L133.674 84.092L165.674 133.5H139.562L120.49 102.652H117.162L99.114 133.5H73.77ZM168.55 141.18L195.174 33.66H219.238L192.614 141.18H168.55ZM249.412 133.5V58.236H273.22V133.5H249.412ZM223.812 60.796V40.06H298.82V60.796H223.812ZM332.348 133.5L344.892 65.148H369.212L383.548 133.5H365.884L351.036 65.66H361.788L348.22 133.5H332.348ZM327.996 133.5L327.868 114.044H341.948L342.076 133.5H327.996ZM316.604 133.5L298.044 62.844H320.828L337.98 133.5H316.604ZM372.156 133.5L372.284 114.044H386.364L386.236 133.5H372.156ZM377.788 133.5L393.276 62.844H414.524L397.628 133.5H377.788ZM429.153 133.5V62.844H452.449V133.5H429.153ZM420.193 79.74V62.844H452.449V79.74H420.193ZM438.753 57.212C434.486 57.212 431.329 56.1453 429.281 54.012C427.318 51.7933 426.337 48.9773 426.337 45.564C426.337 42.1507 427.318 39.3773 429.281 37.244C431.329 35.0253 434.444 33.916 438.625 33.916C442.892 33.916 446.006 35.0253 447.969 37.244C449.932 39.3773 450.913 42.1507 450.913 45.564C450.913 48.9773 449.932 51.7933 447.969 54.012C446.006 56.1453 442.934 57.212 438.753 57.212ZM503.239 134.524C495.559 134.524 489.415 133.585 484.807 131.708C480.284 129.831 476.999 126.716 474.951 122.364C472.903 118.012 471.879 112.124 471.879 104.7L472.007 44.412H493.511L493.383 105.34C493.383 108.497 494.194 110.929 495.815 112.636C497.522 114.257 499.954 115.068 503.111 115.068H512.839V134.524H503.239ZM461.639 79.74V62.844H512.839V79.74H461.639ZM558.989 134.524C551.309 134.524 545.165 133.585 540.557 131.708C536.034 129.831 532.749 126.716 530.701 122.364C528.653 118.012 527.629 112.124 527.629 104.7L527.757 44.412H549.261L549.133 105.34C549.133 108.497 549.944 110.929 551.565 112.636C553.272 114.257 555.704 115.068 558.861 115.068H568.589V134.524H558.989ZM517.389 79.74V62.844H568.589V79.74H517.389ZM613.977 136.06C608.004 136.06 602.713 135.036 598.105 132.988C593.497 130.94 589.614 128.167 586.457 124.668C583.3 121.169 580.868 117.244 579.161 112.892C577.54 108.54 576.729 104.06 576.729 99.452V96.892C576.729 92.1133 577.54 87.548 579.161 83.196C580.868 78.7587 583.257 74.8333 586.329 71.42C589.486 68.0067 593.326 65.3187 597.849 63.356C602.372 61.308 607.492 60.284 613.209 60.284C620.804 60.284 627.246 61.9907 632.537 65.404C637.828 68.8173 641.881 73.34 644.697 78.972C647.513 84.5187 648.921 90.5773 648.921 97.148V104.572H586.457V92.028H635.481L627.417 97.66C627.417 93.6493 626.862 90.2787 625.753 87.548C624.729 84.732 623.15 82.5987 621.017 81.148C618.969 79.6973 616.366 78.972 613.209 78.972C610.137 78.972 607.449 79.6973 605.145 81.148C602.926 82.5133 601.22 84.6467 600.025 87.548C598.83 90.364 598.233 93.948 598.233 98.3C598.233 102.225 598.788 105.639 599.897 108.54C601.006 111.356 602.713 113.532 605.017 115.068C607.321 116.604 610.308 117.372 613.977 117.372C617.22 117.372 619.865 116.817 621.913 115.708C624.046 114.599 625.54 113.105 626.393 111.228H647.641C646.617 116.007 644.569 120.273 641.497 124.028C638.51 127.783 634.67 130.727 629.977 132.86C625.369 134.993 620.036 136.06 613.977 136.06ZM661.2 133.5V62.844H679.632V93.564H679.376C679.376 83.6653 681.424 75.9 685.52 70.268C689.701 64.636 695.675 61.82 703.44 61.82H706.256V81.788H700.88C695.675 81.788 691.621 83.196 688.72 86.012C685.904 88.828 684.496 92.8813 684.496 98.172V133.5H661.2Z" fill="white"/>
</g>
</svg>
